<?xml version="1.0" encoding="utf-8" standalone="no"?>
<!DOCTYPE svg PUBLIC "-//W3C//DTD SVG 1.1//EN"
  "http://www.w3.org/Graphics/SVG/1.1/DTD/svg11.dtd">
<!-- Created with matplotlib (http://matplotlib.org/) -->
<svg height="864pt" version="1.1" viewBox="0 0 1152 864" width="1152pt" xmlns="http://www.w3.org/2000/svg" xmlns:xlink="http://www.w3.org/1999/xlink">
 <defs>
  <style type="text/css">
*{stroke-linecap:butt;stroke-linejoin:round;}
  </style>
 </defs>
 <g id="figure_1">
  <g id="patch_1">
   <path d="M 0 864 
L 1152 864 
L 1152 0 
L 0 0 
z
" style="fill:#ffffff;"/>
  </g>
  <g id="axes_1">
   <g id="text_1">
    <!-- caucus -->
    <defs>
     <path d="M 48.78125 52.59375 
L 48.78125 44.1875 
Q 44.96875 46.296875 41.140625 47.34375 
Q 37.3125 48.390625 33.40625 48.390625 
Q 24.65625 48.390625 19.8125 42.84375 
Q 14.984375 37.3125 14.984375 27.296875 
Q 14.984375 17.28125 19.8125 11.734375 
Q 24.65625 6.203125 33.40625 6.203125 
Q 37.3125 6.203125 41.140625 7.25 
Q 44.96875 8.296875 48.78125 10.40625 
L 48.78125 2.09375 
Q 45.015625 0.34375 40.984375 -0.53125 
Q 36.96875 -1.421875 32.421875 -1.421875 
Q 20.0625 -1.421875 12.78125 6.34375 
Q 5.515625 14.109375 5.515625 27.296875 
Q 5.515625 40.671875 12.859375 48.328125 
Q 20.21875 56 33.015625 56 
Q 37.15625 56 41.109375 55.140625 
Q 45.0625 54.296875 48.78125 52.59375 
" id="DejaVuSans-63"/>
     <path d="M 34.28125 27.484375 
Q 23.390625 27.484375 19.1875 25 
Q 14.984375 22.515625 14.984375 16.5 
Q 14.984375 11.71875 18.140625 8.90625 
Q 21.296875 6.109375 26.703125 6.109375 
Q 34.1875 6.109375 38.703125 11.40625 
Q 43.21875 16.703125 43.21875 25.484375 
L 43.21875 27.484375 
z
M 52.203125 31.203125 
L 52.203125 0 
L 43.21875 0 
L 43.21875 8.296875 
Q 40.140625 3.328125 35.546875 0.953125 
Q 30.953125 -1.421875 24.3125 -1.421875 
Q 15.921875 -1.421875 10.953125 3.296875 
Q 6 8.015625 6 15.921875 
Q 6 25.140625 12.171875 29.828125 
Q 18.359375 34.515625 30.609375 34.515625 
L 43.21875 34.515625 
L 43.21875 35.40625 
Q 43.21875 41.609375 39.140625 45 
Q 35.0625 48.390625 27.6875 48.390625 
Q 23 48.390625 18.546875 47.265625 
Q 14.109375 46.140625 10.015625 43.890625 
L 10.015625 52.203125 
Q 14.9375 54.109375 19.578125 55.046875 
Q 24.21875 56 28.609375 56 
Q 40.484375 56 46.34375 49.84375 
Q 52.203125 43.703125 52.203125 31.203125 
" id="DejaVuSans-61"/>
     <path d="M 8.5 21.578125 
L 8.5 54.6875 
L 17.484375 54.6875 
L 17.484375 21.921875 
Q 17.484375 14.15625 20.5 10.265625 
Q 23.53125 6.390625 29.59375 6.390625 
Q 36.859375 6.390625 41.078125 11.03125 
Q 45.3125 15.671875 45.3125 23.6875 
L 45.3125 54.6875 
L 54.296875 54.6875 
L 54.296875 0 
L 45.3125 0 
L 45.3125 8.40625 
Q 42.046875 3.421875 37.71875 1 
Q 33.40625 -1.421875 27.6875 -1.421875 
Q 18.265625 -1.421875 13.375 4.4375 
Q 8.5 10.296875 8.5 21.578125 
M 31.109375 56 
z
" id="DejaVuSans-75"/>
     <path d="M 44.28125 53.078125 
L 44.28125 44.578125 
Q 40.484375 46.53125 36.375 47.5 
Q 32.28125 48.484375 27.875 48.484375 
Q 21.1875 48.484375 17.84375 46.4375 
Q 14.5 44.390625 14.5 40.28125 
Q 14.5 37.15625 16.890625 35.375 
Q 19.28125 33.59375 26.515625 31.984375 
L 29.59375 31.296875 
Q 39.15625 29.25 43.1875 25.515625 
Q 47.21875 21.78125 47.21875 15.09375 
Q 47.21875 7.46875 41.1875 3.015625 
Q 35.15625 -1.421875 24.609375 -1.421875 
Q 20.21875 -1.421875 15.453125 -0.5625 
Q 10.6875 0.296875 5.421875 2 
L 5.421875 11.28125 
Q 10.40625 8.6875 15.234375 7.390625 
Q 20.0625 6.109375 24.8125 6.109375 
Q 31.15625 6.109375 34.5625 8.28125 
Q 37.984375 10.453125 37.984375 14.40625 
Q 37.984375 18.0625 35.515625 20.015625 
Q 33.0625 21.96875 24.703125 23.78125 
L 21.578125 24.515625 
Q 13.234375 26.265625 9.515625 29.90625 
Q 5.8125 33.546875 5.8125 39.890625 
Q 5.8125 47.609375 11.28125 51.796875 
Q 16.75 56 26.8125 56 
Q 31.78125 56 36.171875 55.265625 
Q 40.578125 54.546875 44.28125 53.078125 
" id="DejaVuSans-73"/>
    </defs>
    <g transform="translate(640.534526 503.432136)scale(0.0579 -0.0579)">
     <use xlink:href="#DejaVuSans-63"/>
     <use x="54.980469" xlink:href="#DejaVuSans-61"/>
     <use x="116.259766" xlink:href="#DejaVuSans-75"/>
     <use x="179.638672" xlink:href="#DejaVuSans-63"/>
     <use x="234.619141" xlink:href="#DejaVuSans-75"/>
     <use x="297.998047" xlink:href="#DejaVuSans-73"/>
    </g>
   </g>
   <g id="text_2">
    <!-- super-delegates -->
    <defs>
     <path d="M 18.109375 8.203125 
L 18.109375 -20.796875 
L 9.078125 -20.796875 
L 9.078125 54.6875 
L 18.109375 54.6875 
L 18.109375 46.390625 
Q 20.953125 51.265625 25.265625 53.625 
Q 29.59375 56 35.59375 56 
Q 45.5625 56 51.78125 48.09375 
Q 58.015625 40.1875 58.015625 27.296875 
Q 58.015625 14.40625 51.78125 6.484375 
Q 45.5625 -1.421875 35.59375 -1.421875 
Q 29.59375 -1.421875 25.265625 0.953125 
Q 20.953125 3.328125 18.109375 8.203125 
M 48.6875 27.296875 
Q 48.6875 37.203125 44.609375 42.84375 
Q 40.53125 48.484375 33.40625 48.484375 
Q 26.265625 48.484375 22.1875 42.84375 
Q 18.109375 37.203125 18.109375 27.296875 
Q 18.109375 17.390625 22.1875 11.75 
Q 26.265625 6.109375 33.40625 6.109375 
Q 40.53125 6.109375 44.609375 11.75 
Q 48.6875 17.390625 48.6875 27.296875 
" id="DejaVuSans-70"/>
     <path d="M 56.203125 29.59375 
L 56.203125 25.203125 
L 14.890625 25.203125 
Q 15.484375 15.921875 20.484375 11.0625 
Q 25.484375 6.203125 34.421875 6.203125 
Q 39.59375 6.203125 44.453125 7.46875 
Q 49.3125 8.734375 54.109375 11.28125 
L 54.109375 2.78125 
Q 49.265625 0.734375 44.1875 -0.34375 
Q 39.109375 -1.421875 33.890625 -1.421875 
Q 20.796875 -1.421875 13.15625 6.1875 
Q 5.515625 13.8125 5.515625 26.8125 
Q 5.515625 40.234375 12.765625 48.109375 
Q 20.015625 56 32.328125 56 
Q 43.359375 56 49.78125 48.890625 
Q 56.203125 41.796875 56.203125 29.59375 
M 47.21875 32.234375 
Q 47.125 39.59375 43.09375 43.984375 
Q 39.0625 48.390625 32.421875 48.390625 
Q 24.90625 48.390625 20.390625 44.140625 
Q 15.875 39.890625 15.1875 32.171875 
z
" id="DejaVuSans-65"/>
     <path d="M 41.109375 46.296875 
Q 39.59375 47.171875 37.8125 47.578125 
Q 36.03125 48 33.890625 48 
Q 26.265625 48 22.1875 43.046875 
Q 18.109375 38.09375 18.109375 28.8125 
L 18.109375 0 
L 9.078125 0 
L 9.078125 54.6875 
L 18.109375 54.6875 
L 18.109375 46.1875 
Q 20.953125 51.171875 25.484375 53.578125 
Q 30.03125 56 36.53125 56 
Q 37.453125 56 38.578125 55.875 
Q 39.703125 55.765625 41.0625 55.515625 
z
" id="DejaVuSans-72"/>
     <path d="M 4.890625 31.390625 
L 31.203125 31.390625 
L 31.203125 23.390625 
L 4.890625 23.390625 
z
" id="DejaVuSans-2d"/>
     <path d="M 45.40625 46.390625 
L 45.40625 75.984375 
L 54.390625 75.984375 
L 54.390625 0 
L 45.40625 0 
L 45.40625 8.203125 
Q 42.578125 3.328125 38.25 0.953125 
Q 33.9375 -1.421875 27.875 -1.421875 
Q 17.96875 -1.421875 11.734375 6.484375 
Q 5.515625 14.40625 5.515625 27.296875 
Q 5.515625 40.1875 11.734375 48.09375 
Q 17.96875 56 27.875 56 
Q 33.9375 56 38.25 53.625 
Q 42.578125 51.265625 45.40625 46.390625 
M 14.796875 27.296875 
Q 14.796875 17.390625 18.875 11.75 
Q 22.953125 6.109375 30.078125 6.109375 
Q 37.203125 6.109375 41.296875 11.75 
Q 45.40625 17.390625 45.40625 27.296875 
Q 45.40625 37.203125 41.296875 42.84375 
Q 37.203125 48.484375 30.078125 48.484375 
Q 22.953125 48.484375 18.875 42.84375 
Q 14.796875 37.203125 14.796875 27.296875 
" id="DejaVuSans-64"/>
     <path d="M 9.421875 75.984375 
L 18.40625 75.984375 
L 18.40625 0 
L 9.421875 0 
z
" id="DejaVuSans-6c"/>
     <path d="M 45.40625 27.984375 
Q 45.40625 37.75 41.375 43.109375 
Q 37.359375 48.484375 30.078125 48.484375 
Q 22.859375 48.484375 18.828125 43.109375 
Q 14.796875 37.75 14.796875 27.984375 
Q 14.796875 18.265625 18.828125 12.890625 
Q 22.859375 7.515625 30.078125 7.515625 
Q 37.359375 7.515625 41.375 12.890625 
Q 45.40625 18.265625 45.40625 27.984375 
M 54.390625 6.78125 
Q 54.390625 -7.171875 48.1875 -13.984375 
Q 42 -20.796875 29.203125 -20.796875 
Q 24.46875 -20.796875 20.265625 -20.09375 
Q 16.0625 -19.390625 12.109375 -17.921875 
L 12.109375 -9.1875 
Q 16.0625 -11.328125 19.921875 -12.34375 
Q 23.78125 -13.375 27.78125 -13.375 
Q 36.625 -13.375 41.015625 -8.765625 
Q 45.40625 -4.15625 45.40625 5.171875 
L 45.40625 9.625 
Q 42.625 4.78125 38.28125 2.390625 
Q 33.9375 0 27.875 0 
Q 17.828125 0 11.671875 7.65625 
Q 5.515625 15.328125 5.515625 27.984375 
Q 5.515625 40.671875 11.671875 48.328125 
Q 17.828125 56 27.875 56 
Q 33.9375 56 38.28125 53.609375 
Q 42.625 51.21875 45.40625 46.390625 
L 45.40625 54.6875 
L 54.390625 54.6875 
z
" id="DejaVuSans-67"/>
     <path d="M 18.3125 70.21875 
L 18.3125 54.6875 
L 36.8125 54.6875 
L 36.8125 47.703125 
L 18.3125 47.703125 
L 18.3125 18.015625 
Q 18.3125 11.328125 20.140625 9.421875 
Q 21.96875 7.515625 27.59375 7.515625 
L 36.8125 7.515625 
L 36.8125 0 
L 27.59375 0 
Q 17.1875 0 13.234375 3.875 
Q 9.28125 7.765625 9.28125 18.015625 
L 9.28125 47.703125 
L 2.6875 47.703125 
L 2.6875 54.6875 
L 9.28125 54.6875 
L 9.28125 70.21875 
z
" id="DejaVuSans-74"/>
    </defs>
    <g transform="translate(624.653715 529.618525)scale(0.0579 -0.0579)">
     <use xlink:href="#DejaVuSans-73"/>
     <use x="52.099609" xlink:href="#DejaVuSans-75"/>
     <use x="115.478516" xlink:href="#DejaVuSans-70"/>
     <use x="178.955078" xlink:href="#DejaVuSans-65"/>
     <use x="240.478516" xlink:href="#DejaVuSans-72"/>
     <use x="281.498047" xlink:href="#DejaVuSans-2d"/>
     <use x="317.582031" xlink:href="#DejaVuSans-64"/>
     <use x="381.058594" xlink:href="#DejaVuSans-65"/>
     <use x="442.582031" xlink:href="#DejaVuSans-6c"/>
     <use x="470.365234" xlink:href="#DejaVuSans-65"/>
     <use x="531.888672" xlink:href="#DejaVuSans-67"/>
     <use x="595.365234" xlink:href="#DejaVuSans-61"/>
     <use x="656.644531" xlink:href="#DejaVuSans-74"/>
     <use x="695.853516" xlink:href="#DejaVuSans-65"/>
     <use x="757.376953" xlink:href="#DejaVuSans-73"/>
    </g>
   </g>
   <g id="text_3">
    <!-- tuesday -->
    <defs>
     <path d="M 32.171875 -5.078125 
Q 28.375 -14.84375 24.75 -17.8125 
Q 21.140625 -20.796875 15.09375 -20.796875 
L 7.90625 -20.796875 
L 7.90625 -13.28125 
L 13.1875 -13.28125 
Q 16.890625 -13.28125 18.9375 -11.515625 
Q 21 -9.765625 23.484375 -3.21875 
L 25.09375 0.875 
L 2.984375 54.6875 
L 12.5 54.6875 
L 29.59375 11.921875 
L 46.6875 54.6875 
L 56.203125 54.6875 
z
" id="DejaVuSans-79"/>
    </defs>
    <g transform="translate(591.890704 450.136542)scale(0.0579 -0.0579)">
     <use xlink:href="#DejaVuSans-74"/>
     <use x="39.208984" xlink:href="#DejaVuSans-75"/>
     <use x="102.587891" xlink:href="#DejaVuSans-65"/>
     <use x="164.111328" xlink:href="#DejaVuSans-73"/>
     <use x="216.210938" xlink:href="#DejaVuSans-64"/>
     <use x="279.6875" xlink:href="#DejaVuSans-61"/>
     <use x="340.966797" xlink:href="#DejaVuSans-79"/>
    </g>
   </g>
   <g id="text_4">
    <!-- lyin -->
    <defs>
     <path d="M 9.421875 54.6875 
L 18.40625 54.6875 
L 18.40625 0 
L 9.421875 0 
z
M 9.421875 75.984375 
L 18.40625 75.984375 
L 18.40625 64.59375 
L 9.421875 64.59375 
z
" id="DejaVuSans-69"/>
     <path d="M 54.890625 33.015625 
L 54.890625 0 
L 45.90625 0 
L 45.90625 32.71875 
Q 45.90625 40.484375 42.875 44.328125 
Q 39.84375 48.1875 33.796875 48.1875 
Q 26.515625 48.1875 22.3125 43.546875 
Q 18.109375 38.921875 18.109375 30.90625 
L 18.109375 0 
L 9.078125 0 
L 9.078125 54.6875 
L 18.109375 54.6875 
L 18.109375 46.1875 
Q 21.34375 51.125 25.703125 53.5625 
Q 30.078125 56 35.796875 56 
Q 45.21875 56 50.046875 50.171875 
Q 54.890625 44.34375 54.890625 33.015625 
" id="DejaVuSans-6e"/>
    </defs>
    <g transform="translate(661.085339 537.649575)scale(0.0579 -0.0579)">
     <use xlink:href="#DejaVuSans-6c"/>
     <use x="27.783203" xlink:href="#DejaVuSans-79"/>
     <use x="86.962891" xlink:href="#DejaVuSans-69"/>
     <use x="114.746094" xlink:href="#DejaVuSans-6e"/>
    </g>
   </g>
   <g id="text_5">
    <!-- lyin -->
    <g transform="translate(1036.8 487.524265)scale(0.0579 -0.0579)">
     <use xlink:href="#DejaVuSans-6c"/>
     <use x="27.783203" xlink:href="#DejaVuSans-79"/>
     <use x="86.962891" xlink:href="#DejaVuSans-69"/>
     <use x="114.746094" xlink:href="#DejaVuSans-6e"/>
    </g>
   </g>
   <g id="text_6">
    <!-- wins -->
    <defs>
     <path d="M 4.203125 54.6875 
L 13.1875 54.6875 
L 24.421875 12.015625 
L 35.59375 54.6875 
L 46.1875 54.6875 
L 57.421875 12.015625 
L 68.609375 54.6875 
L 77.59375 54.6875 
L 63.28125 0 
L 52.6875 0 
L 40.921875 44.828125 
L 29.109375 0 
L 18.5 0 
z
" id="DejaVuSans-77"/>
    </defs>
    <g transform="translate(471.278406 389.656125)scale(0.0579 -0.0579)">
     <use xlink:href="#DejaVuSans-77"/>
     <use x="81.787109" xlink:href="#DejaVuSans-69"/>
     <use x="109.570312" xlink:href="#DejaVuSans-6e"/>
     <use x="172.949219" xlink:href="#DejaVuSans-73"/>
    </g>
   </g>
   <g id="text_7">
    <!-- caucuses -->
    <g transform="translate(209.721754 616.399647)scale(0.0579 -0.0579)">
     <use xlink:href="#DejaVuSans-63"/>
     <use x="54.980469" xlink:href="#DejaVuSans-61"/>
     <use x="116.259766" xlink:href="#DejaVuSans-75"/>
     <use x="179.638672" xlink:href="#DejaVuSans-63"/>
     <use x="234.619141" xlink:href="#DejaVuSans-75"/>
     <use x="297.998047" xlink:href="#DejaVuSans-73"/>
     <use x="350.097656" xlink:href="#DejaVuSans-65"/>
     <use x="411.621094" xlink:href="#DejaVuSans-73"/>
    </g>
   </g>
   <g id="text_8">
    <!-- delegates -->
    <g transform="translate(637.76075 440.55595)scale(0.0579 -0.0579)">
     <use xlink:href="#DejaVuSans-64"/>
     <use x="63.476562" xlink:href="#DejaVuSans-65"/>
     <use x="125" xlink:href="#DejaVuSans-6c"/>
     <use x="152.783203" xlink:href="#DejaVuSans-65"/>
     <use x="214.306641" xlink:href="#DejaVuSans-67"/>
     <use x="277.783203" xlink:href="#DejaVuSans-61"/>
     <use x="339.0625" xlink:href="#DejaVuSans-74"/>
     <use x="378.271484" xlink:href="#DejaVuSans-65"/>
     <use x="439.794922" xlink:href="#DejaVuSans-73"/>
    </g>
   </g>
   <g id="text_9">
    <!-- non-citizen -->
    <defs>
     <path d="M 30.609375 48.390625 
Q 23.390625 48.390625 19.1875 42.75 
Q 14.984375 37.109375 14.984375 27.296875 
Q 14.984375 17.484375 19.15625 11.84375 
Q 23.34375 6.203125 30.609375 6.203125 
Q 37.796875 6.203125 41.984375 11.859375 
Q 46.1875 17.53125 46.1875 27.296875 
Q 46.1875 37.015625 41.984375 42.703125 
Q 37.796875 48.390625 30.609375 48.390625 
M 30.609375 56 
Q 42.328125 56 49.015625 48.375 
Q 55.71875 40.765625 55.71875 27.296875 
Q 55.71875 13.875 49.015625 6.21875 
Q 42.328125 -1.421875 30.609375 -1.421875 
Q 18.84375 -1.421875 12.171875 6.21875 
Q 5.515625 13.875 5.515625 27.296875 
Q 5.515625 40.765625 12.171875 48.375 
Q 18.84375 56 30.609375 56 
" id="DejaVuSans-6f"/>
     <path d="M 5.515625 54.6875 
L 48.1875 54.6875 
L 48.1875 46.484375 
L 14.40625 7.171875 
L 48.1875 7.171875 
L 48.1875 0 
L 4.296875 0 
L 4.296875 8.203125 
L 38.09375 47.515625 
L 5.515625 47.515625 
z
" id="DejaVuSans-7a"/>
    </defs>
    <g transform="translate(548.633193 446.719886)scale(0.0579 -0.0579)">
     <use xlink:href="#DejaVuSans-6e"/>
     <use x="63.378906" xlink:href="#DejaVuSans-6f"/>
     <use x="124.560547" xlink:href="#DejaVuSans-6e"/>
     <use x="187.939453" xlink:href="#DejaVuSans-2d"/>
     <use x="224.023438" xlink:href="#DejaVuSans-63"/>
     <use x="279.003906" xlink:href="#DejaVuSans-69"/>
     <use x="306.787109" xlink:href="#DejaVuSans-74"/>
     <use x="345.996094" xlink:href="#DejaVuSans-69"/>
     <use x="373.779297" xlink:href="#DejaVuSans-7a"/>
     <use x="426.269531" xlink:href="#DejaVuSans-65"/>
     <use x="487.792969" xlink:href="#DejaVuSans-6e"/>
    </g>
   </g>
   <g id="text_10">
    <!-- tickets -->
    <defs>
     <path d="M 9.078125 75.984375 
L 18.109375 75.984375 
L 18.109375 31.109375 
L 44.921875 54.6875 
L 56.390625 54.6875 
L 27.390625 29.109375 
L 57.625 0 
L 45.90625 0 
L 18.109375 26.703125 
L 18.109375 0 
L 9.078125 0 
z
" id="DejaVuSans-6b"/>
    </defs>
    <g transform="translate(585.840285 543.367173)scale(0.0579 -0.0579)">
     <use xlink:href="#DejaVuSans-74"/>
     <use x="39.208984" xlink:href="#DejaVuSans-69"/>
     <use x="66.992188" xlink:href="#DejaVuSans-63"/>
     <use x="121.972656" xlink:href="#DejaVuSans-6b"/>
     <use x="179.835938" xlink:href="#DejaVuSans-65"/>
     <use x="241.359375" xlink:href="#DejaVuSans-74"/>
     <use x="280.568359" xlink:href="#DejaVuSans-73"/>
    </g>
   </g>
   <g id="text_11">
    <!-- october -->
    <defs>
     <path d="M 48.6875 27.296875 
Q 48.6875 37.203125 44.609375 42.84375 
Q 40.53125 48.484375 33.40625 48.484375 
Q 26.265625 48.484375 22.1875 42.84375 
Q 18.109375 37.203125 18.109375 27.296875 
Q 18.109375 17.390625 22.1875 11.75 
Q 26.265625 6.109375 33.40625 6.109375 
Q 40.53125 6.109375 44.609375 11.75 
Q 48.6875 17.390625 48.6875 27.296875 
M 18.109375 46.390625 
Q 20.953125 51.265625 25.265625 53.625 
Q 29.59375 56 35.59375 56 
Q 45.5625 56 51.78125 48.09375 
Q 58.015625 40.1875 58.015625 27.296875 
Q 58.015625 14.40625 51.78125 6.484375 
Q 45.5625 -1.421875 35.59375 -1.421875 
Q 29.59375 -1.421875 25.265625 0.953125 
Q 20.953125 3.328125 18.109375 8.203125 
L 18.109375 0 
L 9.078125 0 
L 9.078125 75.984375 
L 18.109375 75.984375 
z
" id="DejaVuSans-62"/>
    </defs>
    <g transform="translate(513.549906 480.942685)scale(0.0579 -0.0579)">
     <use xlink:href="#DejaVuSans-6f"/>
     <use x="61.181641" xlink:href="#DejaVuSans-63"/>
     <use x="116.162109" xlink:href="#DejaVuSans-74"/>
     <use x="155.371094" xlink:href="#DejaVuSans-6f"/>
     <use x="216.552734" xlink:href="#DejaVuSans-62"/>
     <use x="280.029297" xlink:href="#DejaVuSans-65"/>
     <use x="341.552734" xlink:href="#DejaVuSans-72"/>
    </g>
   </g>
   <g id="text_12">
    <!-- caucus -->
    <g transform="translate(712.988089 469.627139)scale(0.0579 -0.0579)">
     <use xlink:href="#DejaVuSans-63"/>
     <use x="54.980469" xlink:href="#DejaVuSans-61"/>
     <use x="116.259766" xlink:href="#DejaVuSans-75"/>
     <use x="179.638672" xlink:href="#DejaVuSans-63"/>
     <use x="234.619141" xlink:href="#DejaVuSans-75"/>
     <use x="297.998047" xlink:href="#DejaVuSans-73"/>
    </g>
   </g>
   <g id="text_13">
    <!-- super-delegates -->
    <g transform="translate(638.290794 460.220887)scale(0.0579 -0.0579)">
     <use xlink:href="#DejaVuSans-73"/>
     <use x="52.099609" xlink:href="#DejaVuSans-75"/>
     <use x="115.478516" xlink:href="#DejaVuSans-70"/>
     <use x="178.955078" xlink:href="#DejaVuSans-65"/>
     <use x="240.478516" xlink:href="#DejaVuSans-72"/>
     <use x="281.498047" xlink:href="#DejaVuSans-2d"/>
     <use x="317.582031" xlink:href="#DejaVuSans-64"/>
     <use x="381.058594" xlink:href="#DejaVuSans-65"/>
     <use x="442.582031" xlink:href="#DejaVuSans-6c"/>
     <use x="470.365234" xlink:href="#DejaVuSans-65"/>
     <use x="531.888672" xlink:href="#DejaVuSans-67"/>
     <use x="595.365234" xlink:href="#DejaVuSans-61"/>
     <use x="656.644531" xlink:href="#DejaVuSans-74"/>
     <use x="695.853516" xlink:href="#DejaVuSans-65"/>
     <use x="757.376953" xlink:href="#DejaVuSans-73"/>
    </g>
   </g>
   <g id="text_14">
    <!-- pacs -->
    <g transform="translate(678.858727 457.545321)scale(0.0579 -0.0579)">
     <use xlink:href="#DejaVuSans-70"/>
     <use x="63.476562" xlink:href="#DejaVuSans-61"/>
     <use x="124.755859" xlink:href="#DejaVuSans-63"/>
     <use x="179.736328" xlink:href="#DejaVuSans-73"/>
    </g>
   </g>
   <g id="text_15">
    <!-- caucuses -->
    <g transform="translate(627.807521 486.879695)scale(0.0579 -0.0579)">
     <use xlink:href="#DejaVuSans-63"/>
     <use x="54.980469" xlink:href="#DejaVuSans-61"/>
     <use x="116.259766" xlink:href="#DejaVuSans-75"/>
     <use x="179.638672" xlink:href="#DejaVuSans-63"/>
     <use x="234.619141" xlink:href="#DejaVuSans-75"/>
     <use x="297.998047" xlink:href="#DejaVuSans-73"/>
     <use x="350.097656" xlink:href="#DejaVuSans-65"/>
     <use x="411.621094" xlink:href="#DejaVuSans-73"/>
    </g>
   </g>
   <g id="text_16">
    <!-- ticket -->
    <g transform="translate(607.517468 467.655481)scale(0.0579 -0.0579)">
     <use xlink:href="#DejaVuSans-74"/>
     <use x="39.208984" xlink:href="#DejaVuSans-69"/>
     <use x="66.992188" xlink:href="#DejaVuSans-63"/>
     <use x="121.972656" xlink:href="#DejaVuSans-6b"/>
     <use x="179.835938" xlink:href="#DejaVuSans-65"/>
     <use x="241.359375" xlink:href="#DejaVuSans-74"/>
    </g>
   </g>
   <g id="text_17">
    <!-- delegates -->
    <g transform="translate(855.527289 345.806015)scale(0.0579 -0.0579)">
     <use xlink:href="#DejaVuSans-64"/>
     <use x="63.476562" xlink:href="#DejaVuSans-65"/>
     <use x="125" xlink:href="#DejaVuSans-6c"/>
     <use x="152.783203" xlink:href="#DejaVuSans-65"/>
     <use x="214.306641" xlink:href="#DejaVuSans-67"/>
     <use x="277.783203" xlink:href="#DejaVuSans-61"/>
     <use x="339.0625" xlink:href="#DejaVuSans-74"/>
     <use x="378.271484" xlink:href="#DejaVuSans-65"/>
     <use x="439.794922" xlink:href="#DejaVuSans-73"/>
    </g>
   </g>
   <g id="text_18">
    <!-- winds -->
    <g transform="translate(669.358488 511.978839)scale(0.0579 -0.0579)">
     <use xlink:href="#DejaVuSans-77"/>
     <use x="81.787109" xlink:href="#DejaVuSans-69"/>
     <use x="109.570312" xlink:href="#DejaVuSans-6e"/>
     <use x="172.949219" xlink:href="#DejaVuSans-64"/>
     <use x="236.425781" xlink:href="#DejaVuSans-73"/>
    </g>
   </g>
   <g id="text_19">
    <!-- ticket -->
    <g transform="translate(571.683766 469.030179)scale(0.0579 -0.0579)">
     <use xlink:href="#DejaVuSans-74"/>
     <use x="39.208984" xlink:href="#DejaVuSans-69"/>
     <use x="66.992188" xlink:href="#DejaVuSans-63"/>
     <use x="121.972656" xlink:href="#DejaVuSans-6b"/>
     <use x="179.835938" xlink:href="#DejaVuSans-65"/>
     <use x="241.359375" xlink:href="#DejaVuSans-74"/>
    </g>
   </g>
   <g id="text_20">
    <!-- delegates -->
    <g transform="translate(510.668622 504.111037)scale(0.0579 -0.0579)">
     <use xlink:href="#DejaVuSans-64"/>
     <use x="63.476562" xlink:href="#DejaVuSans-65"/>
     <use x="125" xlink:href="#DejaVuSans-6c"/>
     <use x="152.783203" xlink:href="#DejaVuSans-65"/>
     <use x="214.306641" xlink:href="#DejaVuSans-67"/>
     <use x="277.783203" xlink:href="#DejaVuSans-61"/>
     <use x="339.0625" xlink:href="#DejaVuSans-74"/>
     <use x="378.271484" xlink:href="#DejaVuSans-65"/>
     <use x="439.794922" xlink:href="#DejaVuSans-73"/>
    </g>
   </g>
   <g id="text_21">
    <!-- registered -->
    <g transform="translate(634.646547 624.013557)scale(0.0579 -0.0579)">
     <use xlink:href="#DejaVuSans-72"/>
     <use x="41.082031" xlink:href="#DejaVuSans-65"/>
     <use x="102.605469" xlink:href="#DejaVuSans-67"/>
     <use x="166.082031" xlink:href="#DejaVuSans-69"/>
     <use x="193.865234" xlink:href="#DejaVuSans-73"/>
     <use x="245.964844" xlink:href="#DejaVuSans-74"/>
     <use x="285.173828" xlink:href="#DejaVuSans-65"/>
     <use x="346.697266" xlink:href="#DejaVuSans-72"/>
     <use x="387.779297" xlink:href="#DejaVuSans-65"/>
     <use x="449.302734" xlink:href="#DejaVuSans-64"/>
    </g>
   </g>
   <g id="text_22">
    <!-- ads -->
    <g transform="translate(539.681949 546.592296)scale(0.0579 -0.0579)">
     <use xlink:href="#DejaVuSans-61"/>
     <use x="61.279297" xlink:href="#DejaVuSans-64"/>
     <use x="124.755859" xlink:href="#DejaVuSans-73"/>
    </g>
   </g>
   <g id="text_23">
    <!-- nominee -->
    <defs>
     <path d="M 52 44.1875 
Q 55.375 50.25 60.0625 53.125 
Q 64.75 56 71.09375 56 
Q 79.640625 56 84.28125 50.015625 
Q 88.921875 44.046875 88.921875 33.015625 
L 88.921875 0 
L 79.890625 0 
L 79.890625 32.71875 
Q 79.890625 40.578125 77.09375 44.375 
Q 74.3125 48.1875 68.609375 48.1875 
Q 61.625 48.1875 57.5625 43.546875 
Q 53.515625 38.921875 53.515625 30.90625 
L 53.515625 0 
L 44.484375 0 
L 44.484375 32.71875 
Q 44.484375 40.625 41.703125 44.40625 
Q 38.921875 48.1875 33.109375 48.1875 
Q 26.21875 48.1875 22.15625 43.53125 
Q 18.109375 38.875 18.109375 30.90625 
L 18.109375 0 
L 9.078125 0 
L 9.078125 54.6875 
L 18.109375 54.6875 
L 18.109375 46.1875 
Q 21.1875 51.21875 25.484375 53.609375 
Q 29.78125 56 35.6875 56 
Q 41.65625 56 45.828125 52.96875 
Q 50 49.953125 52 44.1875 
" id="DejaVuSans-6d"/>
    </defs>
    <g transform="translate(574.082387 523.702844)scale(0.0579 -0.0579)">
     <use xlink:href="#DejaVuSans-6e"/>
     <use x="63.378906" xlink:href="#DejaVuSans-6f"/>
     <use x="124.560547" xlink:href="#DejaVuSans-6d"/>
     <use x="221.972656" xlink:href="#DejaVuSans-69"/>
     <use x="249.755859" xlink:href="#DejaVuSans-6e"/>
     <use x="313.134766" xlink:href="#DejaVuSans-65"/>
     <use x="374.658203" xlink:href="#DejaVuSans-65"/>
    </g>
   </g>
   <g id="text_24">
    <!-- ads -->
    <g transform="translate(625.238846 409.78212)scale(0.0579 -0.0579)">
     <use xlink:href="#DejaVuSans-61"/>
     <use x="61.279297" xlink:href="#DejaVuSans-64"/>
     <use x="124.755859" xlink:href="#DejaVuSans-73"/>
    </g>
   </g>
   <g id="text_25">
    <!-- artists -->
    <g transform="translate(587.942756 574.437908)scale(0.0579 -0.0579)">
     <use xlink:href="#DejaVuSans-61"/>
     <use x="61.279297" xlink:href="#DejaVuSans-72"/>
     <use x="102.392578" xlink:href="#DejaVuSans-74"/>
     <use x="141.601562" xlink:href="#DejaVuSans-69"/>
     <use x="169.384766" xlink:href="#DejaVuSans-73"/>
     <use x="221.484375" xlink:href="#DejaVuSans-74"/>
     <use x="260.693359" xlink:href="#DejaVuSans-73"/>
    </g>
   </g>
   <g id="text_26">
    <!-- booths -->
    <defs>
     <path d="M 54.890625 33.015625 
L 54.890625 0 
L 45.90625 0 
L 45.90625 32.71875 
Q 45.90625 40.484375 42.875 44.328125 
Q 39.84375 48.1875 33.796875 48.1875 
Q 26.515625 48.1875 22.3125 43.546875 
Q 18.109375 38.921875 18.109375 30.90625 
L 18.109375 0 
L 9.078125 0 
L 9.078125 75.984375 
L 18.109375 75.984375 
L 18.109375 46.1875 
Q 21.34375 51.125 25.703125 53.5625 
Q 30.078125 56 35.796875 56 
Q 45.21875 56 50.046875 50.171875 
Q 54.890625 44.34375 54.890625 33.015625 
" id="DejaVuSans-68"/>
    </defs>
    <g transform="translate(595.950128 485.446646)scale(0.0579 -0.0579)">
     <use xlink:href="#DejaVuSans-62"/>
     <use x="63.476562" xlink:href="#DejaVuSans-6f"/>
     <use x="124.658203" xlink:href="#DejaVuSans-6f"/>
     <use x="185.839844" xlink:href="#DejaVuSans-74"/>
     <use x="225.048828" xlink:href="#DejaVuSans-68"/>
     <use x="288.427734" xlink:href="#DejaVuSans-73"/>
    </g>
   </g>
   <g id="text_27">
    <!-- registered -->
    <g transform="translate(608.904524 512.108923)scale(0.0579 -0.0579)">
     <use xlink:href="#DejaVuSans-72"/>
     <use x="41.082031" xlink:href="#DejaVuSans-65"/>
     <use x="102.605469" xlink:href="#DejaVuSans-67"/>
     <use x="166.082031" xlink:href="#DejaVuSans-69"/>
     <use x="193.865234" xlink:href="#DejaVuSans-73"/>
     <use x="245.964844" xlink:href="#DejaVuSans-74"/>
     <use x="285.173828" xlink:href="#DejaVuSans-65"/>
     <use x="346.697266" xlink:href="#DejaVuSans-72"/>
     <use x="387.779297" xlink:href="#DejaVuSans-65"/>
     <use x="449.302734" xlink:href="#DejaVuSans-64"/>
    </g>
   </g>
   <g id="text_28">
    <!-- first-time -->
    <defs>
     <path d="M 37.109375 75.984375 
L 37.109375 68.5 
L 28.515625 68.5 
Q 23.6875 68.5 21.796875 66.546875 
Q 19.921875 64.59375 19.921875 59.515625 
L 19.921875 54.6875 
L 34.71875 54.6875 
L 34.71875 47.703125 
L 19.921875 47.703125 
L 19.921875 0 
L 10.890625 0 
L 10.890625 47.703125 
L 2.296875 47.703125 
L 2.296875 54.6875 
L 10.890625 54.6875 
L 10.890625 58.5 
Q 10.890625 67.625 15.140625 71.796875 
Q 19.390625 75.984375 28.609375 75.984375 
z
" id="DejaVuSans-66"/>
    </defs>
    <g transform="translate(511.198816 458.975092)scale(0.0579 -0.0579)">
     <use xlink:href="#DejaVuSans-66"/>
     <use x="35.205078" xlink:href="#DejaVuSans-69"/>
     <use x="62.988281" xlink:href="#DejaVuSans-72"/>
     <use x="104.101562" xlink:href="#DejaVuSans-73"/>
     <use x="156.201172" xlink:href="#DejaVuSans-74"/>
     <use x="195.410156" xlink:href="#DejaVuSans-2d"/>
     <use x="231.494141" xlink:href="#DejaVuSans-74"/>
     <use x="270.703125" xlink:href="#DejaVuSans-69"/>
     <use x="298.486328" xlink:href="#DejaVuSans-6d"/>
     <use x="395.898438" xlink:href="#DejaVuSans-65"/>
    </g>
   </g>
   <g id="text_29">
    <!-- registered -->
    <g transform="translate(572.846267 768.96)scale(0.0579 -0.0579)">
     <use xlink:href="#DejaVuSans-72"/>
     <use x="41.082031" xlink:href="#DejaVuSans-65"/>
     <use x="102.605469" xlink:href="#DejaVuSans-67"/>
     <use x="166.082031" xlink:href="#DejaVuSans-69"/>
     <use x="193.865234" xlink:href="#DejaVuSans-73"/>
     <use x="245.964844" xlink:href="#DejaVuSans-74"/>
     <use x="285.173828" xlink:href="#DejaVuSans-65"/>
     <use x="346.697266" xlink:href="#DejaVuSans-72"/>
     <use x="387.779297" xlink:href="#DejaVuSans-65"/>
     <use x="449.302734" xlink:href="#DejaVuSans-64"/>
    </g>
   </g>
   <g id="text_30">
    <!-- colorado -->
    <g transform="translate(534.028167 419.30022)scale(0.0579 -0.0579)">
     <use xlink:href="#DejaVuSans-63"/>
     <use x="54.980469" xlink:href="#DejaVuSans-6f"/>
     <use x="116.162109" xlink:href="#DejaVuSans-6c"/>
     <use x="143.945312" xlink:href="#DejaVuSans-6f"/>
     <use x="205.126953" xlink:href="#DejaVuSans-72"/>
     <use x="246.240234" xlink:href="#DejaVuSans-61"/>
     <use x="307.519531" xlink:href="#DejaVuSans-64"/>
     <use x="370.996094" xlink:href="#DejaVuSans-6f"/>
    </g>
   </g>
   <g id="text_31">
    <!-- rnc -->
    <g transform="translate(581.514569 503.021989)scale(0.0579 -0.0579)">
     <use xlink:href="#DejaVuSans-72"/>
     <use x="41.097656" xlink:href="#DejaVuSans-6e"/>
     <use x="104.476562" xlink:href="#DejaVuSans-63"/>
    </g>
   </g>
   <g id="text_32">
    <!-- primers -->
    <g transform="translate(658.469325 413.571849)scale(0.0579 -0.0579)">
     <use xlink:href="#DejaVuSans-70"/>
     <use x="63.476562" xlink:href="#DejaVuSans-72"/>
     <use x="104.589844" xlink:href="#DejaVuSans-69"/>
     <use x="132.373047" xlink:href="#DejaVuSans-6d"/>
     <use x="229.785156" xlink:href="#DejaVuSans-65"/>
     <use x="291.308594" xlink:href="#DejaVuSans-72"/>
     <use x="332.421875" xlink:href="#DejaVuSans-73"/>
    </g>
   </g>
   <g id="text_33">
    <!-- governors -->
    <defs>
     <path d="M 2.984375 54.6875 
L 12.5 54.6875 
L 29.59375 8.796875 
L 46.6875 54.6875 
L 56.203125 54.6875 
L 35.6875 0 
L 23.484375 0 
z
" id="DejaVuSans-76"/>
    </defs>
    <g transform="translate(691.123489 491.273687)scale(0.0579 -0.0579)">
     <use xlink:href="#DejaVuSans-67"/>
     <use x="63.476562" xlink:href="#DejaVuSans-6f"/>
     <use x="124.658203" xlink:href="#DejaVuSans-76"/>
     <use x="183.837891" xlink:href="#DejaVuSans-65"/>
     <use x="245.361328" xlink:href="#DejaVuSans-72"/>
     <use x="286.458984" xlink:href="#DejaVuSans-6e"/>
     <use x="349.837891" xlink:href="#DejaVuSans-6f"/>
     <use x="411.019531" xlink:href="#DejaVuSans-72"/>
     <use x="452.132812" xlink:href="#DejaVuSans-73"/>
    </g>
   </g>
   <g id="text_34">
    <!-- winter -->
    <g transform="translate(480.033907 489.357648)scale(0.0579 -0.0579)">
     <use xlink:href="#DejaVuSans-77"/>
     <use x="81.787109" xlink:href="#DejaVuSans-69"/>
     <use x="109.570312" xlink:href="#DejaVuSans-6e"/>
     <use x="172.949219" xlink:href="#DejaVuSans-74"/>
     <use x="212.158203" xlink:href="#DejaVuSans-65"/>
     <use x="273.681641" xlink:href="#DejaVuSans-72"/>
    </g>
   </g>
   <g id="text_35">
    <!-- electors -->
    <g transform="translate(710.265476 513.943477)scale(0.0579 -0.0579)">
     <use xlink:href="#DejaVuSans-65"/>
     <use x="61.523438" xlink:href="#DejaVuSans-6c"/>
     <use x="89.306641" xlink:href="#DejaVuSans-65"/>
     <use x="150.830078" xlink:href="#DejaVuSans-63"/>
     <use x="205.810547" xlink:href="#DejaVuSans-74"/>
     <use x="245.019531" xlink:href="#DejaVuSans-6f"/>
     <use x="306.201172" xlink:href="#DejaVuSans-72"/>
     <use x="347.314453" xlink:href="#DejaVuSans-73"/>
    </g>
   </g>
   <g id="text_36">
    <!-- tickets -->
    <g transform="translate(144 726.867905)scale(0.0579 -0.0579)">
     <use xlink:href="#DejaVuSans-74"/>
     <use x="39.208984" xlink:href="#DejaVuSans-69"/>
     <use x="66.992188" xlink:href="#DejaVuSans-63"/>
     <use x="121.972656" xlink:href="#DejaVuSans-6b"/>
     <use x="179.835938" xlink:href="#DejaVuSans-65"/>
     <use x="241.359375" xlink:href="#DejaVuSans-74"/>
     <use x="280.568359" xlink:href="#DejaVuSans-73"/>
    </g>
   </g>
   <g id="text_37">
    <!-- debates -->
    <g transform="translate(625.582073 557.746112)scale(0.0579 -0.0579)">
     <use xlink:href="#DejaVuSans-64"/>
     <use x="63.476562" xlink:href="#DejaVuSans-65"/>
     <use x="125" xlink:href="#DejaVuSans-62"/>
     <use x="188.476562" xlink:href="#DejaVuSans-61"/>
     <use x="249.755859" xlink:href="#DejaVuSans-74"/>
     <use x="288.964844" xlink:href="#DejaVuSans-65"/>
     <use x="350.488281" xlink:href="#DejaVuSans-73"/>
    </g>
   </g>
   <g id="text_38">
    <!-- colorado -->
    <g transform="translate(659.438823 478.702996)scale(0.0579 -0.0579)">
     <use xlink:href="#DejaVuSans-63"/>
     <use x="54.980469" xlink:href="#DejaVuSans-6f"/>
     <use x="116.162109" xlink:href="#DejaVuSans-6c"/>
     <use x="143.945312" xlink:href="#DejaVuSans-6f"/>
     <use x="205.126953" xlink:href="#DejaVuSans-72"/>
     <use x="246.240234" xlink:href="#DejaVuSans-61"/>
     <use x="307.519531" xlink:href="#DejaVuSans-64"/>
     <use x="370.996094" xlink:href="#DejaVuSans-6f"/>
    </g>
   </g>
   <g id="text_39">
    <!-- commercials -->
    <g transform="translate(451.606153 468.967099)scale(0.0579 -0.0579)">
     <use xlink:href="#DejaVuSans-63"/>
     <use x="54.980469" xlink:href="#DejaVuSans-6f"/>
     <use x="116.162109" xlink:href="#DejaVuSans-6d"/>
     <use x="213.574219" xlink:href="#DejaVuSans-6d"/>
     <use x="310.986328" xlink:href="#DejaVuSans-65"/>
     <use x="372.509766" xlink:href="#DejaVuSans-72"/>
     <use x="413.591797" xlink:href="#DejaVuSans-63"/>
     <use x="468.572266" xlink:href="#DejaVuSans-69"/>
     <use x="496.355469" xlink:href="#DejaVuSans-61"/>
     <use x="557.634766" xlink:href="#DejaVuSans-6c"/>
     <use x="585.417969" xlink:href="#DejaVuSans-73"/>
    </g>
   </g>
   <g id="text_40">
    <!-- rnc -->
    <g transform="translate(557.970021 488.385511)scale(0.0579 -0.0579)">
     <use xlink:href="#DejaVuSans-72"/>
     <use x="41.097656" xlink:href="#DejaVuSans-6e"/>
     <use x="104.476562" xlink:href="#DejaVuSans-63"/>
    </g>
   </g>
   <g id="text_41">
    <!-- bosses -->
    <g transform="translate(698.124555 542.451833)scale(0.0579 -0.0579)">
     <use xlink:href="#DejaVuSans-62"/>
     <use x="63.476562" xlink:href="#DejaVuSans-6f"/>
     <use x="124.658203" xlink:href="#DejaVuSans-73"/>
     <use x="176.757812" xlink:href="#DejaVuSans-73"/>
     <use x="228.857422" xlink:href="#DejaVuSans-65"/>
     <use x="290.380859" xlink:href="#DejaVuSans-73"/>
    </g>
   </g>
   <g id="text_42">
    <!-- bosses -->
    <g transform="translate(539.906914 468.048186)scale(0.0579 -0.0579)">
     <use xlink:href="#DejaVuSans-62"/>
     <use x="63.476562" xlink:href="#DejaVuSans-6f"/>
     <use x="124.658203" xlink:href="#DejaVuSans-73"/>
     <use x="176.757812" xlink:href="#DejaVuSans-73"/>
     <use x="228.857422" xlink:href="#DejaVuSans-65"/>
     <use x="290.380859" xlink:href="#DejaVuSans-73"/>
    </g>
   </g>
   <g id="text_43">
    <!-- voters -->
    <g transform="translate(607.630154 430.403899)scale(0.0579 -0.0579)">
     <use xlink:href="#DejaVuSans-76"/>
     <use x="59.179688" xlink:href="#DejaVuSans-6f"/>
     <use x="120.361328" xlink:href="#DejaVuSans-74"/>
     <use x="159.570312" xlink:href="#DejaVuSans-65"/>
     <use x="221.09375" xlink:href="#DejaVuSans-72"/>
     <use x="262.207031" xlink:href="#DejaVuSans-73"/>
    </g>
   </g>
   <g id="text_44">
    <!-- boss -->
    <g transform="translate(510.157729 438.988135)scale(0.0579 -0.0579)">
     <use xlink:href="#DejaVuSans-62"/>
     <use x="63.476562" xlink:href="#DejaVuSans-6f"/>
     <use x="124.658203" xlink:href="#DejaVuSans-73"/>
     <use x="176.757812" xlink:href="#DejaVuSans-73"/>
    </g>
   </g>
   <g id="text_45">
    <!-- wins -->
    <g transform="translate(463.131038 260.076943)scale(0.0579 -0.0579)">
     <use xlink:href="#DejaVuSans-77"/>
     <use x="81.787109" xlink:href="#DejaVuSans-69"/>
     <use x="109.570312" xlink:href="#DejaVuSans-6e"/>
     <use x="172.949219" xlink:href="#DejaVuSans-73"/>
    </g>
   </g>
   <g id="text_46">
    <!-- bosses -->
    <g transform="translate(445.030979 496.923858)scale(0.0579 -0.0579)">
     <use xlink:href="#DejaVuSans-62"/>
     <use x="63.476562" xlink:href="#DejaVuSans-6f"/>
     <use x="124.658203" xlink:href="#DejaVuSans-73"/>
     <use x="176.757812" xlink:href="#DejaVuSans-73"/>
     <use x="228.857422" xlink:href="#DejaVuSans-65"/>
     <use x="290.380859" xlink:href="#DejaVuSans-73"/>
    </g>
   </g>
   <g id="text_47">
    <!-- voters -->
    <g transform="translate(471.19429 441.873549)scale(0.0579 -0.0579)">
     <use xlink:href="#DejaVuSans-76"/>
     <use x="59.179688" xlink:href="#DejaVuSans-6f"/>
     <use x="120.361328" xlink:href="#DejaVuSans-74"/>
     <use x="159.570312" xlink:href="#DejaVuSans-65"/>
     <use x="221.09375" xlink:href="#DejaVuSans-72"/>
     <use x="262.207031" xlink:href="#DejaVuSans-73"/>
    </g>
   </g>
   <g id="text_48">
    <!-- registered -->
    <g transform="translate(659.742816 103.68)scale(0.0579 -0.0579)">
     <use xlink:href="#DejaVuSans-72"/>
     <use x="41.082031" xlink:href="#DejaVuSans-65"/>
     <use x="102.605469" xlink:href="#DejaVuSans-67"/>
     <use x="166.082031" xlink:href="#DejaVuSans-69"/>
     <use x="193.865234" xlink:href="#DejaVuSans-73"/>
     <use x="245.964844" xlink:href="#DejaVuSans-74"/>
     <use x="285.173828" xlink:href="#DejaVuSans-65"/>
     <use x="346.697266" xlink:href="#DejaVuSans-72"/>
     <use x="387.779297" xlink:href="#DejaVuSans-65"/>
     <use x="449.302734" xlink:href="#DejaVuSans-64"/>
    </g>
   </g>
   <g id="text_49">
    <!-- colorado -->
    <g transform="translate(557.966282 403.232518)scale(0.0579 -0.0579)">
     <use xlink:href="#DejaVuSans-63"/>
     <use x="54.980469" xlink:href="#DejaVuSans-6f"/>
     <use x="116.162109" xlink:href="#DejaVuSans-6c"/>
     <use x="143.945312" xlink:href="#DejaVuSans-6f"/>
     <use x="205.126953" xlink:href="#DejaVuSans-72"/>
     <use x="246.240234" xlink:href="#DejaVuSans-61"/>
     <use x="307.519531" xlink:href="#DejaVuSans-64"/>
     <use x="370.996094" xlink:href="#DejaVuSans-6f"/>
    </g>
   </g>
   <g id="text_50">
    <!-- caucus -->
    <g transform="translate(991.57122 337.358702)scale(0.0579 -0.0579)">
     <use xlink:href="#DejaVuSans-63"/>
     <use x="54.980469" xlink:href="#DejaVuSans-61"/>
     <use x="116.259766" xlink:href="#DejaVuSans-75"/>
     <use x="179.638672" xlink:href="#DejaVuSans-63"/>
     <use x="234.619141" xlink:href="#DejaVuSans-75"/>
     <use x="297.998047" xlink:href="#DejaVuSans-73"/>
    </g>
   </g>
   <g id="text_51">
    <!-- rallies -->
    <g transform="translate(679.299487 434.141261)scale(0.0579 -0.0579)">
     <use xlink:href="#DejaVuSans-72"/>
     <use x="41.113281" xlink:href="#DejaVuSans-61"/>
     <use x="102.392578" xlink:href="#DejaVuSans-6c"/>
     <use x="130.175781" xlink:href="#DejaVuSans-6c"/>
     <use x="157.958984" xlink:href="#DejaVuSans-69"/>
     <use x="185.742188" xlink:href="#DejaVuSans-65"/>
     <use x="247.265625" xlink:href="#DejaVuSans-73"/>
    </g>
   </g>
   <g id="text_52">
    <!-- governors -->
    <g transform="translate(548.247043 507.53482)scale(0.0579 -0.0579)">
     <use xlink:href="#DejaVuSans-67"/>
     <use x="63.476562" xlink:href="#DejaVuSans-6f"/>
     <use x="124.658203" xlink:href="#DejaVuSans-76"/>
     <use x="183.837891" xlink:href="#DejaVuSans-65"/>
     <use x="245.361328" xlink:href="#DejaVuSans-72"/>
     <use x="286.458984" xlink:href="#DejaVuSans-6e"/>
     <use x="349.837891" xlink:href="#DejaVuSans-6f"/>
     <use x="411.019531" xlink:href="#DejaVuSans-72"/>
     <use x="452.132812" xlink:href="#DejaVuSans-73"/>
    </g>
   </g>
   <g id="text_53">
    <!-- super-delegates -->
    <g transform="translate(574.492069 430.415684)scale(0.0579 -0.0579)">
     <use xlink:href="#DejaVuSans-73"/>
     <use x="52.099609" xlink:href="#DejaVuSans-75"/>
     <use x="115.478516" xlink:href="#DejaVuSans-70"/>
     <use x="178.955078" xlink:href="#DejaVuSans-65"/>
     <use x="240.478516" xlink:href="#DejaVuSans-72"/>
     <use x="281.498047" xlink:href="#DejaVuSans-2d"/>
     <use x="317.582031" xlink:href="#DejaVuSans-64"/>
     <use x="381.058594" xlink:href="#DejaVuSans-65"/>
     <use x="442.582031" xlink:href="#DejaVuSans-6c"/>
     <use x="470.365234" xlink:href="#DejaVuSans-65"/>
     <use x="531.888672" xlink:href="#DejaVuSans-67"/>
     <use x="595.365234" xlink:href="#DejaVuSans-61"/>
     <use x="656.644531" xlink:href="#DejaVuSans-74"/>
     <use x="695.853516" xlink:href="#DejaVuSans-65"/>
     <use x="757.376953" xlink:href="#DejaVuSans-73"/>
    </g>
   </g>
   <g id="text_54">
    <!-- wins -->
    <g transform="translate(690.622434 663.8465)scale(0.0579 -0.0579)">
     <use xlink:href="#DejaVuSans-77"/>
     <use x="81.787109" xlink:href="#DejaVuSans-69"/>
     <use x="109.570312" xlink:href="#DejaVuSans-6e"/>
     <use x="172.949219" xlink:href="#DejaVuSans-73"/>
    </g>
   </g>
   <g id="text_55">
    <!-- senators -->
    <g transform="translate(531.488046 523.1786)scale(0.0579 -0.0579)">
     <use xlink:href="#DejaVuSans-73"/>
     <use x="52.099609" xlink:href="#DejaVuSans-65"/>
     <use x="113.623047" xlink:href="#DejaVuSans-6e"/>
     <use x="177.001953" xlink:href="#DejaVuSans-61"/>
     <use x="238.28125" xlink:href="#DejaVuSans-74"/>
     <use x="277.490234" xlink:href="#DejaVuSans-6f"/>
     <use x="338.671875" xlink:href="#DejaVuSans-72"/>
     <use x="379.785156" xlink:href="#DejaVuSans-73"/>
    </g>
   </g>
   <g id="text_56">
    <!-- pacs -->
    <g transform="translate(244.242183 487.47127)scale(0.0579 -0.0579)">
     <use xlink:href="#DejaVuSans-70"/>
     <use x="63.476562" xlink:href="#DejaVuSans-61"/>
     <use x="124.755859" xlink:href="#DejaVuSans-63"/>
     <use x="179.736328" xlink:href="#DejaVuSans-73"/>
    </g>
   </g>
   <g id="text_57">
    <!-- super -->
    <g transform="translate(593.838438 401.293884)scale(0.0579 -0.0579)">
     <use xlink:href="#DejaVuSans-73"/>
     <use x="52.099609" xlink:href="#DejaVuSans-75"/>
     <use x="115.478516" xlink:href="#DejaVuSans-70"/>
     <use x="178.955078" xlink:href="#DejaVuSans-65"/>
     <use x="240.478516" xlink:href="#DejaVuSans-72"/>
    </g>
   </g>
   <g id="text_58">
    <!-- Cluster 0 -->
    <defs>
     <path d="M 64.40625 67.28125 
L 64.40625 56.890625 
Q 59.421875 61.53125 53.78125 63.8125 
Q 48.140625 66.109375 41.796875 66.109375 
Q 29.296875 66.109375 22.65625 58.46875 
Q 16.015625 50.828125 16.015625 36.375 
Q 16.015625 21.96875 22.65625 14.328125 
Q 29.296875 6.6875 41.796875 6.6875 
Q 48.140625 6.6875 53.78125 8.984375 
Q 59.421875 11.28125 64.40625 15.921875 
L 64.40625 5.609375 
Q 59.234375 2.09375 53.4375 0.328125 
Q 47.65625 -1.421875 41.21875 -1.421875 
Q 24.65625 -1.421875 15.125 8.703125 
Q 5.609375 18.84375 5.609375 36.375 
Q 5.609375 53.953125 15.125 64.078125 
Q 24.65625 74.21875 41.21875 74.21875 
Q 47.75 74.21875 53.53125 72.484375 
Q 59.328125 70.75 64.40625 67.28125 
" id="DejaVuSans-43"/>
     <path id="DejaVuSans-20"/>
     <path d="M 31.78125 66.40625 
Q 24.171875 66.40625 20.328125 58.90625 
Q 16.5 51.421875 16.5 36.375 
Q 16.5 21.390625 20.328125 13.890625 
Q 24.171875 6.390625 31.78125 6.390625 
Q 39.453125 6.390625 43.28125 13.890625 
Q 47.125 21.390625 47.125 36.375 
Q 47.125 51.421875 43.28125 58.90625 
Q 39.453125 66.40625 31.78125 66.40625 
M 31.78125 74.21875 
Q 44.046875 74.21875 50.515625 64.515625 
Q 56.984375 54.828125 56.984375 36.375 
Q 56.984375 17.96875 50.515625 8.265625 
Q 44.046875 -1.421875 31.78125 -1.421875 
Q 19.53125 -1.421875 13.0625 8.265625 
Q 6.59375 17.96875 6.59375 36.375 
Q 6.59375 54.828125 13.0625 64.515625 
Q 19.53125 74.21875 31.78125 74.21875 
" id="DejaVuSans-30"/>
    </defs>
    <g transform="translate(563.380312 97.68)scale(0.12 -0.12)">
     <use xlink:href="#DejaVuSans-43"/>
     <use x="69.824219" xlink:href="#DejaVuSans-6c"/>
     <use x="97.607422" xlink:href="#DejaVuSans-75"/>
     <use x="160.986328" xlink:href="#DejaVuSans-73"/>
     <use x="213.085938" xlink:href="#DejaVuSans-74"/>
     <use x="252.294922" xlink:href="#DejaVuSans-65"/>
     <use x="313.818359" xlink:href="#DejaVuSans-72"/>
     <use x="354.931641" xlink:href="#DejaVuSans-20"/>
     <use x="386.71875" xlink:href="#DejaVuSans-30"/>
    </g>
   </g>
  </g>
 </g>
</svg>
