<?xml version="1.0" encoding="utf-8" standalone="no"?>
<!DOCTYPE svg PUBLIC "-//W3C//DTD SVG 1.1//EN"
  "http://www.w3.org/Graphics/SVG/1.1/DTD/svg11.dtd">
<!-- Created with matplotlib (http://matplotlib.org/) -->
<svg height="864pt" version="1.1" viewBox="0 0 1152 864" width="1152pt" xmlns="http://www.w3.org/2000/svg" xmlns:xlink="http://www.w3.org/1999/xlink">
 <defs>
  <style type="text/css">
*{stroke-linecap:butt;stroke-linejoin:round;}
  </style>
 </defs>
 <g id="figure_1">
  <g id="patch_1">
   <path d="M 0 864 
L 1152 864 
L 1152 0 
L 0 0 
z
" style="fill:#ffffff;"/>
  </g>
  <g id="axes_1">
   <g id="text_1">
    <!-- maine -->
    <defs>
     <path d="M 52 44.1875 
Q 55.375 50.25 60.0625 53.125 
Q 64.75 56 71.09375 56 
Q 79.640625 56 84.28125 50.015625 
Q 88.921875 44.046875 88.921875 33.015625 
L 88.921875 0 
L 79.890625 0 
L 79.890625 32.71875 
Q 79.890625 40.578125 77.09375 44.375 
Q 74.3125 48.1875 68.609375 48.1875 
Q 61.625 48.1875 57.5625 43.546875 
Q 53.515625 38.921875 53.515625 30.90625 
L 53.515625 0 
L 44.484375 0 
L 44.484375 32.71875 
Q 44.484375 40.625 41.703125 44.40625 
Q 38.921875 48.1875 33.109375 48.1875 
Q 26.21875 48.1875 22.15625 43.53125 
Q 18.109375 38.875 18.109375 30.90625 
L 18.109375 0 
L 9.078125 0 
L 9.078125 54.6875 
L 18.109375 54.6875 
L 18.109375 46.1875 
Q 21.1875 51.21875 25.484375 53.609375 
Q 29.78125 56 35.6875 56 
Q 41.65625 56 45.828125 52.96875 
Q 50 49.953125 52 44.1875 
" id="DejaVuSans-6d"/>
     <path d="M 34.28125 27.484375 
Q 23.390625 27.484375 19.1875 25 
Q 14.984375 22.515625 14.984375 16.5 
Q 14.984375 11.71875 18.140625 8.90625 
Q 21.296875 6.109375 26.703125 6.109375 
Q 34.1875 6.109375 38.703125 11.40625 
Q 43.21875 16.703125 43.21875 25.484375 
L 43.21875 27.484375 
z
M 52.203125 31.203125 
L 52.203125 0 
L 43.21875 0 
L 43.21875 8.296875 
Q 40.140625 3.328125 35.546875 0.953125 
Q 30.953125 -1.421875 24.3125 -1.421875 
Q 15.921875 -1.421875 10.953125 3.296875 
Q 6 8.015625 6 15.921875 
Q 6 25.140625 12.171875 29.828125 
Q 18.359375 34.515625 30.609375 34.515625 
L 43.21875 34.515625 
L 43.21875 35.40625 
Q 43.21875 41.609375 39.140625 45 
Q 35.0625 48.390625 27.6875 48.390625 
Q 23 48.390625 18.546875 47.265625 
Q 14.109375 46.140625 10.015625 43.890625 
L 10.015625 52.203125 
Q 14.9375 54.109375 19.578125 55.046875 
Q 24.21875 56 28.609375 56 
Q 40.484375 56 46.34375 49.84375 
Q 52.203125 43.703125 52.203125 31.203125 
" id="DejaVuSans-61"/>
     <path d="M 9.421875 54.6875 
L 18.40625 54.6875 
L 18.40625 0 
L 9.421875 0 
z
M 9.421875 75.984375 
L 18.40625 75.984375 
L 18.40625 64.59375 
L 9.421875 64.59375 
z
" id="DejaVuSans-69"/>
     <path d="M 54.890625 33.015625 
L 54.890625 0 
L 45.90625 0 
L 45.90625 32.71875 
Q 45.90625 40.484375 42.875 44.328125 
Q 39.84375 48.1875 33.796875 48.1875 
Q 26.515625 48.1875 22.3125 43.546875 
Q 18.109375 38.921875 18.109375 30.90625 
L 18.109375 0 
L 9.078125 0 
L 9.078125 54.6875 
L 18.109375 54.6875 
L 18.109375 46.1875 
Q 21.34375 51.125 25.703125 53.5625 
Q 30.078125 56 35.796875 56 
Q 45.21875 56 50.046875 50.171875 
Q 54.890625 44.34375 54.890625 33.015625 
" id="DejaVuSans-6e"/>
     <path d="M 56.203125 29.59375 
L 56.203125 25.203125 
L 14.890625 25.203125 
Q 15.484375 15.921875 20.484375 11.0625 
Q 25.484375 6.203125 34.421875 6.203125 
Q 39.59375 6.203125 44.453125 7.46875 
Q 49.3125 8.734375 54.109375 11.28125 
L 54.109375 2.78125 
Q 49.265625 0.734375 44.1875 -0.34375 
Q 39.109375 -1.421875 33.890625 -1.421875 
Q 20.796875 -1.421875 13.15625 6.1875 
Q 5.515625 13.8125 5.515625 26.8125 
Q 5.515625 40.234375 12.765625 48.109375 
Q 20.015625 56 32.328125 56 
Q 43.359375 56 49.78125 48.890625 
Q 56.203125 41.796875 56.203125 29.59375 
M 47.21875 32.234375 
Q 47.125 39.59375 43.09375 43.984375 
Q 39.0625 48.390625 32.421875 48.390625 
Q 24.90625 48.390625 20.390625 44.140625 
Q 15.875 39.890625 15.1875 32.171875 
z
" id="DejaVuSans-65"/>
    </defs>
    <g transform="translate(733.036614 512.008677)scale(0.0579 -0.0579)">
     <use xlink:href="#DejaVuSans-6d"/>
     <use x="97.412109" xlink:href="#DejaVuSans-61"/>
     <use x="158.691406" xlink:href="#DejaVuSans-69"/>
     <use x="186.474609" xlink:href="#DejaVuSans-6e"/>
     <use x="249.853516" xlink:href="#DejaVuSans-65"/>
    </g>
   </g>
   <g id="text_2">
    <!-- firewall -->
    <defs>
     <path d="M 37.109375 75.984375 
L 37.109375 68.5 
L 28.515625 68.5 
Q 23.6875 68.5 21.796875 66.546875 
Q 19.921875 64.59375 19.921875 59.515625 
L 19.921875 54.6875 
L 34.71875 54.6875 
L 34.71875 47.703125 
L 19.921875 47.703125 
L 19.921875 0 
L 10.890625 0 
L 10.890625 47.703125 
L 2.296875 47.703125 
L 2.296875 54.6875 
L 10.890625 54.6875 
L 10.890625 58.5 
Q 10.890625 67.625 15.140625 71.796875 
Q 19.390625 75.984375 28.609375 75.984375 
z
" id="DejaVuSans-66"/>
     <path d="M 41.109375 46.296875 
Q 39.59375 47.171875 37.8125 47.578125 
Q 36.03125 48 33.890625 48 
Q 26.265625 48 22.1875 43.046875 
Q 18.109375 38.09375 18.109375 28.8125 
L 18.109375 0 
L 9.078125 0 
L 9.078125 54.6875 
L 18.109375 54.6875 
L 18.109375 46.1875 
Q 20.953125 51.171875 25.484375 53.578125 
Q 30.03125 56 36.53125 56 
Q 37.453125 56 38.578125 55.875 
Q 39.703125 55.765625 41.0625 55.515625 
z
" id="DejaVuSans-72"/>
     <path d="M 4.203125 54.6875 
L 13.1875 54.6875 
L 24.421875 12.015625 
L 35.59375 54.6875 
L 46.1875 54.6875 
L 57.421875 12.015625 
L 68.609375 54.6875 
L 77.59375 54.6875 
L 63.28125 0 
L 52.6875 0 
L 40.921875 44.828125 
L 29.109375 0 
L 18.5 0 
z
" id="DejaVuSans-77"/>
     <path d="M 9.421875 75.984375 
L 18.40625 75.984375 
L 18.40625 0 
L 9.421875 0 
z
" id="DejaVuSans-6c"/>
    </defs>
    <g transform="translate(536.470091 462.917576)scale(0.0579 -0.0579)">
     <use xlink:href="#DejaVuSans-66"/>
     <use x="35.205078" xlink:href="#DejaVuSans-69"/>
     <use x="62.988281" xlink:href="#DejaVuSans-72"/>
     <use x="104.070312" xlink:href="#DejaVuSans-65"/>
     <use x="165.59375" xlink:href="#DejaVuSans-77"/>
     <use x="247.380859" xlink:href="#DejaVuSans-61"/>
     <use x="308.660156" xlink:href="#DejaVuSans-6c"/>
     <use x="336.443359" xlink:href="#DejaVuSans-6c"/>
    </g>
   </g>
   <g id="text_3">
    <!-- coach -->
    <defs>
     <path d="M 48.78125 52.59375 
L 48.78125 44.1875 
Q 44.96875 46.296875 41.140625 47.34375 
Q 37.3125 48.390625 33.40625 48.390625 
Q 24.65625 48.390625 19.8125 42.84375 
Q 14.984375 37.3125 14.984375 27.296875 
Q 14.984375 17.28125 19.8125 11.734375 
Q 24.65625 6.203125 33.40625 6.203125 
Q 37.3125 6.203125 41.140625 7.25 
Q 44.96875 8.296875 48.78125 10.40625 
L 48.78125 2.09375 
Q 45.015625 0.34375 40.984375 -0.53125 
Q 36.96875 -1.421875 32.421875 -1.421875 
Q 20.0625 -1.421875 12.78125 6.34375 
Q 5.515625 14.109375 5.515625 27.296875 
Q 5.515625 40.671875 12.859375 48.328125 
Q 20.21875 56 33.015625 56 
Q 37.15625 56 41.109375 55.140625 
Q 45.0625 54.296875 48.78125 52.59375 
" id="DejaVuSans-63"/>
     <path d="M 30.609375 48.390625 
Q 23.390625 48.390625 19.1875 42.75 
Q 14.984375 37.109375 14.984375 27.296875 
Q 14.984375 17.484375 19.15625 11.84375 
Q 23.34375 6.203125 30.609375 6.203125 
Q 37.796875 6.203125 41.984375 11.859375 
Q 46.1875 17.53125 46.1875 27.296875 
Q 46.1875 37.015625 41.984375 42.703125 
Q 37.796875 48.390625 30.609375 48.390625 
M 30.609375 56 
Q 42.328125 56 49.015625 48.375 
Q 55.71875 40.765625 55.71875 27.296875 
Q 55.71875 13.875 49.015625 6.21875 
Q 42.328125 -1.421875 30.609375 -1.421875 
Q 18.84375 -1.421875 12.171875 6.21875 
Q 5.515625 13.875 5.515625 27.296875 
Q 5.515625 40.765625 12.171875 48.375 
Q 18.84375 56 30.609375 56 
" id="DejaVuSans-6f"/>
     <path d="M 54.890625 33.015625 
L 54.890625 0 
L 45.90625 0 
L 45.90625 32.71875 
Q 45.90625 40.484375 42.875 44.328125 
Q 39.84375 48.1875 33.796875 48.1875 
Q 26.515625 48.1875 22.3125 43.546875 
Q 18.109375 38.921875 18.109375 30.90625 
L 18.109375 0 
L 9.078125 0 
L 9.078125 75.984375 
L 18.109375 75.984375 
L 18.109375 46.1875 
Q 21.34375 51.125 25.703125 53.5625 
Q 30.078125 56 35.796875 56 
Q 45.21875 56 50.046875 50.171875 
Q 54.890625 44.34375 54.890625 33.015625 
" id="DejaVuSans-68"/>
    </defs>
    <g transform="translate(1036.8 685.648137)scale(0.0579 -0.0579)">
     <use xlink:href="#DejaVuSans-63"/>
     <use x="54.980469" xlink:href="#DejaVuSans-6f"/>
     <use x="116.162109" xlink:href="#DejaVuSans-61"/>
     <use x="177.441406" xlink:href="#DejaVuSans-63"/>
     <use x="232.421875" xlink:href="#DejaVuSans-68"/>
    </g>
   </g>
   <g id="text_4">
    <!-- louise -->
    <defs>
     <path d="M 8.5 21.578125 
L 8.5 54.6875 
L 17.484375 54.6875 
L 17.484375 21.921875 
Q 17.484375 14.15625 20.5 10.265625 
Q 23.53125 6.390625 29.59375 6.390625 
Q 36.859375 6.390625 41.078125 11.03125 
Q 45.3125 15.671875 45.3125 23.6875 
L 45.3125 54.6875 
L 54.296875 54.6875 
L 54.296875 0 
L 45.3125 0 
L 45.3125 8.40625 
Q 42.046875 3.421875 37.71875 1 
Q 33.40625 -1.421875 27.6875 -1.421875 
Q 18.265625 -1.421875 13.375 4.4375 
Q 8.5 10.296875 8.5 21.578125 
M 31.109375 56 
z
" id="DejaVuSans-75"/>
     <path d="M 44.28125 53.078125 
L 44.28125 44.578125 
Q 40.484375 46.53125 36.375 47.5 
Q 32.28125 48.484375 27.875 48.484375 
Q 21.1875 48.484375 17.84375 46.4375 
Q 14.5 44.390625 14.5 40.28125 
Q 14.5 37.15625 16.890625 35.375 
Q 19.28125 33.59375 26.515625 31.984375 
L 29.59375 31.296875 
Q 39.15625 29.25 43.1875 25.515625 
Q 47.21875 21.78125 47.21875 15.09375 
Q 47.21875 7.46875 41.1875 3.015625 
Q 35.15625 -1.421875 24.609375 -1.421875 
Q 20.21875 -1.421875 15.453125 -0.5625 
Q 10.6875 0.296875 5.421875 2 
L 5.421875 11.28125 
Q 10.40625 8.6875 15.234375 7.390625 
Q 20.0625 6.109375 24.8125 6.109375 
Q 31.15625 6.109375 34.5625 8.28125 
Q 37.984375 10.453125 37.984375 14.40625 
Q 37.984375 18.0625 35.515625 20.015625 
Q 33.0625 21.96875 24.703125 23.78125 
L 21.578125 24.515625 
Q 13.234375 26.265625 9.515625 29.90625 
Q 5.8125 33.546875 5.8125 39.890625 
Q 5.8125 47.609375 11.28125 51.796875 
Q 16.75 56 26.8125 56 
Q 31.78125 56 36.171875 55.265625 
Q 40.578125 54.546875 44.28125 53.078125 
" id="DejaVuSans-73"/>
    </defs>
    <g transform="translate(630.400202 455.56682)scale(0.0579 -0.0579)">
     <use xlink:href="#DejaVuSans-6c"/>
     <use x="27.783203" xlink:href="#DejaVuSans-6f"/>
     <use x="88.964844" xlink:href="#DejaVuSans-75"/>
     <use x="152.34375" xlink:href="#DejaVuSans-69"/>
     <use x="180.126953" xlink:href="#DejaVuSans-73"/>
     <use x="232.226562" xlink:href="#DejaVuSans-65"/>
    </g>
   </g>
   <g id="text_5">
    <!-- volunteers -->
    <defs>
     <path d="M 2.984375 54.6875 
L 12.5 54.6875 
L 29.59375 8.796875 
L 46.6875 54.6875 
L 56.203125 54.6875 
L 35.6875 0 
L 23.484375 0 
z
" id="DejaVuSans-76"/>
     <path d="M 18.3125 70.21875 
L 18.3125 54.6875 
L 36.8125 54.6875 
L 36.8125 47.703125 
L 18.3125 47.703125 
L 18.3125 18.015625 
Q 18.3125 11.328125 20.140625 9.421875 
Q 21.96875 7.515625 27.59375 7.515625 
L 36.8125 7.515625 
L 36.8125 0 
L 27.59375 0 
Q 17.1875 0 13.234375 3.875 
Q 9.28125 7.765625 9.28125 18.015625 
L 9.28125 47.703125 
L 2.6875 47.703125 
L 2.6875 54.6875 
L 9.28125 54.6875 
L 9.28125 70.21875 
z
" id="DejaVuSans-74"/>
    </defs>
    <g transform="translate(554.68771 446.486566)scale(0.0579 -0.0579)">
     <use xlink:href="#DejaVuSans-76"/>
     <use x="59.179688" xlink:href="#DejaVuSans-6f"/>
     <use x="120.361328" xlink:href="#DejaVuSans-6c"/>
     <use x="148.144531" xlink:href="#DejaVuSans-75"/>
     <use x="211.523438" xlink:href="#DejaVuSans-6e"/>
     <use x="274.902344" xlink:href="#DejaVuSans-74"/>
     <use x="314.111328" xlink:href="#DejaVuSans-65"/>
     <use x="375.634766" xlink:href="#DejaVuSans-65"/>
     <use x="437.158203" xlink:href="#DejaVuSans-72"/>
     <use x="478.271484" xlink:href="#DejaVuSans-73"/>
    </g>
   </g>
   <g id="text_6">
    <!-- maria -->
    <g transform="translate(574.148061 460.914362)scale(0.0579 -0.0579)">
     <use xlink:href="#DejaVuSans-6d"/>
     <use x="97.412109" xlink:href="#DejaVuSans-61"/>
     <use x="158.691406" xlink:href="#DejaVuSans-72"/>
     <use x="199.804688" xlink:href="#DejaVuSans-69"/>
     <use x="227.587891" xlink:href="#DejaVuSans-61"/>
    </g>
   </g>
   <g id="text_7">
    <!-- football -->
    <defs>
     <path d="M 48.6875 27.296875 
Q 48.6875 37.203125 44.609375 42.84375 
Q 40.53125 48.484375 33.40625 48.484375 
Q 26.265625 48.484375 22.1875 42.84375 
Q 18.109375 37.203125 18.109375 27.296875 
Q 18.109375 17.390625 22.1875 11.75 
Q 26.265625 6.109375 33.40625 6.109375 
Q 40.53125 6.109375 44.609375 11.75 
Q 48.6875 17.390625 48.6875 27.296875 
M 18.109375 46.390625 
Q 20.953125 51.265625 25.265625 53.625 
Q 29.59375 56 35.59375 56 
Q 45.5625 56 51.78125 48.09375 
Q 58.015625 40.1875 58.015625 27.296875 
Q 58.015625 14.40625 51.78125 6.484375 
Q 45.5625 -1.421875 35.59375 -1.421875 
Q 29.59375 -1.421875 25.265625 0.953125 
Q 20.953125 3.328125 18.109375 8.203125 
L 18.109375 0 
L 9.078125 0 
L 9.078125 75.984375 
L 18.109375 75.984375 
z
" id="DejaVuSans-62"/>
    </defs>
    <g transform="translate(615.201945 423.995479)scale(0.0579 -0.0579)">
     <use xlink:href="#DejaVuSans-66"/>
     <use x="35.205078" xlink:href="#DejaVuSans-6f"/>
     <use x="96.386719" xlink:href="#DejaVuSans-6f"/>
     <use x="157.568359" xlink:href="#DejaVuSans-74"/>
     <use x="196.777344" xlink:href="#DejaVuSans-62"/>
     <use x="260.253906" xlink:href="#DejaVuSans-61"/>
     <use x="321.533203" xlink:href="#DejaVuSans-6c"/>
     <use x="349.316406" xlink:href="#DejaVuSans-6c"/>
    </g>
   </g>
   <g id="text_8">
    <!-- marty -->
    <defs>
     <path d="M 32.171875 -5.078125 
Q 28.375 -14.84375 24.75 -17.8125 
Q 21.140625 -20.796875 15.09375 -20.796875 
L 7.90625 -20.796875 
L 7.90625 -13.28125 
L 13.1875 -13.28125 
Q 16.890625 -13.28125 18.9375 -11.515625 
Q 21 -9.765625 23.484375 -3.21875 
L 25.09375 0.875 
L 2.984375 54.6875 
L 12.5 54.6875 
L 29.59375 11.921875 
L 46.6875 54.6875 
L 56.203125 54.6875 
z
" id="DejaVuSans-79"/>
    </defs>
    <g transform="translate(561.346074 414.452967)scale(0.0579 -0.0579)">
     <use xlink:href="#DejaVuSans-6d"/>
     <use x="97.412109" xlink:href="#DejaVuSans-61"/>
     <use x="158.691406" xlink:href="#DejaVuSans-72"/>
     <use x="199.804688" xlink:href="#DejaVuSans-74"/>
     <use x="239.013672" xlink:href="#DejaVuSans-79"/>
    </g>
   </g>
   <g id="text_9">
    <!-- congratulate -->
    <defs>
     <path d="M 45.40625 27.984375 
Q 45.40625 37.75 41.375 43.109375 
Q 37.359375 48.484375 30.078125 48.484375 
Q 22.859375 48.484375 18.828125 43.109375 
Q 14.796875 37.75 14.796875 27.984375 
Q 14.796875 18.265625 18.828125 12.890625 
Q 22.859375 7.515625 30.078125 7.515625 
Q 37.359375 7.515625 41.375 12.890625 
Q 45.40625 18.265625 45.40625 27.984375 
M 54.390625 6.78125 
Q 54.390625 -7.171875 48.1875 -13.984375 
Q 42 -20.796875 29.203125 -20.796875 
Q 24.46875 -20.796875 20.265625 -20.09375 
Q 16.0625 -19.390625 12.109375 -17.921875 
L 12.109375 -9.1875 
Q 16.0625 -11.328125 19.921875 -12.34375 
Q 23.78125 -13.375 27.78125 -13.375 
Q 36.625 -13.375 41.015625 -8.765625 
Q 45.40625 -4.15625 45.40625 5.171875 
L 45.40625 9.625 
Q 42.625 4.78125 38.28125 2.390625 
Q 33.9375 0 27.875 0 
Q 17.828125 0 11.671875 7.65625 
Q 5.515625 15.328125 5.515625 27.984375 
Q 5.515625 40.671875 11.671875 48.328125 
Q 17.828125 56 27.875 56 
Q 33.9375 56 38.28125 53.609375 
Q 42.625 51.21875 45.40625 46.390625 
L 45.40625 54.6875 
L 54.390625 54.6875 
z
" id="DejaVuSans-67"/>
    </defs>
    <g transform="translate(470.506053 768.96)scale(0.0579 -0.0579)">
     <use xlink:href="#DejaVuSans-63"/>
     <use x="54.980469" xlink:href="#DejaVuSans-6f"/>
     <use x="116.162109" xlink:href="#DejaVuSans-6e"/>
     <use x="179.541016" xlink:href="#DejaVuSans-67"/>
     <use x="243.017578" xlink:href="#DejaVuSans-72"/>
     <use x="284.130859" xlink:href="#DejaVuSans-61"/>
     <use x="345.410156" xlink:href="#DejaVuSans-74"/>
     <use x="384.619141" xlink:href="#DejaVuSans-75"/>
     <use x="447.998047" xlink:href="#DejaVuSans-6c"/>
     <use x="475.78125" xlink:href="#DejaVuSans-61"/>
     <use x="537.060547" xlink:href="#DejaVuSans-74"/>
     <use x="576.269531" xlink:href="#DejaVuSans-65"/>
    </g>
   </g>
   <g id="text_10">
    <!-- tea -->
    <g transform="translate(639.325904 438.519336)scale(0.0579 -0.0579)">
     <use xlink:href="#DejaVuSans-74"/>
     <use x="39.208984" xlink:href="#DejaVuSans-65"/>
     <use x="100.732422" xlink:href="#DejaVuSans-61"/>
    </g>
   </g>
   <g id="text_11">
    <!-- jerry -->
    <defs>
     <path d="M 9.421875 54.6875 
L 18.40625 54.6875 
L 18.40625 -0.984375 
Q 18.40625 -11.421875 14.421875 -16.109375 
Q 10.453125 -20.796875 1.609375 -20.796875 
L -1.8125 -20.796875 
L -1.8125 -13.1875 
L 0.59375 -13.1875 
Q 5.71875 -13.1875 7.5625 -10.8125 
Q 9.421875 -8.453125 9.421875 -0.984375 
z
M 9.421875 75.984375 
L 18.40625 75.984375 
L 18.40625 64.59375 
L 9.421875 64.59375 
z
" id="DejaVuSans-6a"/>
    </defs>
    <g transform="translate(574.546899 420.295913)scale(0.0579 -0.0579)">
     <use xlink:href="#DejaVuSans-6a"/>
     <use x="27.783203" xlink:href="#DejaVuSans-65"/>
     <use x="89.306641" xlink:href="#DejaVuSans-72"/>
     <use x="130.404297" xlink:href="#DejaVuSans-72"/>
     <use x="171.517578" xlink:href="#DejaVuSans-79"/>
    </g>
   </g>
   <g id="text_12">
    <!-- university -->
    <g transform="translate(484.36586 489.888905)scale(0.0579 -0.0579)">
     <use xlink:href="#DejaVuSans-75"/>
     <use x="63.378906" xlink:href="#DejaVuSans-6e"/>
     <use x="126.757812" xlink:href="#DejaVuSans-69"/>
     <use x="154.541016" xlink:href="#DejaVuSans-76"/>
     <use x="213.720703" xlink:href="#DejaVuSans-65"/>
     <use x="275.244141" xlink:href="#DejaVuSans-72"/>
     <use x="316.357422" xlink:href="#DejaVuSans-73"/>
     <use x="368.457031" xlink:href="#DejaVuSans-69"/>
     <use x="396.240234" xlink:href="#DejaVuSans-74"/>
     <use x="435.449219" xlink:href="#DejaVuSans-79"/>
    </g>
   </g>
   <g id="text_13">
    <!-- texas -->
    <defs>
     <path d="M 54.890625 54.6875 
L 35.109375 28.078125 
L 55.90625 0 
L 45.3125 0 
L 29.390625 21.484375 
L 13.484375 0 
L 2.875 0 
L 24.125 28.609375 
L 4.6875 54.6875 
L 15.28125 54.6875 
L 29.78125 35.203125 
L 44.28125 54.6875 
z
" id="DejaVuSans-78"/>
    </defs>
    <g transform="translate(398.302292 457.800904)scale(0.0579 -0.0579)">
     <use xlink:href="#DejaVuSans-74"/>
     <use x="39.208984" xlink:href="#DejaVuSans-65"/>
     <use x="100.716797" xlink:href="#DejaVuSans-78"/>
     <use x="159.896484" xlink:href="#DejaVuSans-61"/>
     <use x="221.175781" xlink:href="#DejaVuSans-73"/>
    </g>
   </g>
   <g id="text_14">
    <!-- laredo -->
    <defs>
     <path d="M 45.40625 46.390625 
L 45.40625 75.984375 
L 54.390625 75.984375 
L 54.390625 0 
L 45.40625 0 
L 45.40625 8.203125 
Q 42.578125 3.328125 38.25 0.953125 
Q 33.9375 -1.421875 27.875 -1.421875 
Q 17.96875 -1.421875 11.734375 6.484375 
Q 5.515625 14.40625 5.515625 27.296875 
Q 5.515625 40.1875 11.734375 48.09375 
Q 17.96875 56 27.875 56 
Q 33.9375 56 38.25 53.625 
Q 42.578125 51.265625 45.40625 46.390625 
M 14.796875 27.296875 
Q 14.796875 17.390625 18.875 11.75 
Q 22.953125 6.109375 30.078125 6.109375 
Q 37.203125 6.109375 41.296875 11.75 
Q 45.40625 17.390625 45.40625 27.296875 
Q 45.40625 37.203125 41.296875 42.84375 
Q 37.203125 48.484375 30.078125 48.484375 
Q 22.953125 48.484375 18.875 42.84375 
Q 14.796875 37.203125 14.796875 27.296875 
" id="DejaVuSans-64"/>
    </defs>
    <g transform="translate(481.407912 439.195669)scale(0.0579 -0.0579)">
     <use xlink:href="#DejaVuSans-6c"/>
     <use x="27.783203" xlink:href="#DejaVuSans-61"/>
     <use x="89.0625" xlink:href="#DejaVuSans-72"/>
     <use x="130.144531" xlink:href="#DejaVuSans-65"/>
     <use x="191.667969" xlink:href="#DejaVuSans-64"/>
     <use x="255.144531" xlink:href="#DejaVuSans-6f"/>
    </g>
   </g>
   <g id="text_15">
    <!-- virginia -->
    <g transform="translate(469.788112 425.554865)scale(0.0579 -0.0579)">
     <use xlink:href="#DejaVuSans-76"/>
     <use x="59.179688" xlink:href="#DejaVuSans-69"/>
     <use x="86.962891" xlink:href="#DejaVuSans-72"/>
     <use x="128.060547" xlink:href="#DejaVuSans-67"/>
     <use x="191.537109" xlink:href="#DejaVuSans-69"/>
     <use x="219.320312" xlink:href="#DejaVuSans-6e"/>
     <use x="282.699219" xlink:href="#DejaVuSans-69"/>
     <use x="310.482422" xlink:href="#DejaVuSans-61"/>
    </g>
   </g>
   <g id="text_16">
    <!-- louisiana -->
    <g transform="translate(545.920166 408.355206)scale(0.0579 -0.0579)">
     <use xlink:href="#DejaVuSans-6c"/>
     <use x="27.783203" xlink:href="#DejaVuSans-6f"/>
     <use x="88.964844" xlink:href="#DejaVuSans-75"/>
     <use x="152.34375" xlink:href="#DejaVuSans-69"/>
     <use x="180.126953" xlink:href="#DejaVuSans-73"/>
     <use x="232.226562" xlink:href="#DejaVuSans-69"/>
     <use x="260.009766" xlink:href="#DejaVuSans-61"/>
     <use x="321.289062" xlink:href="#DejaVuSans-6e"/>
     <use x="384.667969" xlink:href="#DejaVuSans-61"/>
    </g>
   </g>
   <g id="text_17">
    <!-- indiana -->
    <g transform="translate(477.434109 399.515545)scale(0.0579 -0.0579)">
     <use xlink:href="#DejaVuSans-69"/>
     <use x="27.783203" xlink:href="#DejaVuSans-6e"/>
     <use x="91.162109" xlink:href="#DejaVuSans-64"/>
     <use x="154.638672" xlink:href="#DejaVuSans-69"/>
     <use x="182.421875" xlink:href="#DejaVuSans-61"/>
     <use x="243.701172" xlink:href="#DejaVuSans-6e"/>
     <use x="307.080078" xlink:href="#DejaVuSans-61"/>
    </g>
   </g>
   <g id="text_18">
    <!-- usa -->
    <g transform="translate(435.260168 397.389687)scale(0.0579 -0.0579)">
     <use xlink:href="#DejaVuSans-75"/>
     <use x="63.378906" xlink:href="#DejaVuSans-73"/>
     <use x="115.478516" xlink:href="#DejaVuSans-61"/>
    </g>
   </g>
   <g id="text_19">
    <!-- jim -->
    <g transform="translate(555.129952 421.732148)scale(0.0579 -0.0579)">
     <use xlink:href="#DejaVuSans-6a"/>
     <use x="27.783203" xlink:href="#DejaVuSans-69"/>
     <use x="55.566406" xlink:href="#DejaVuSans-6d"/>
    </g>
   </g>
   <g id="text_20">
    <!-- arkansas -->
    <defs>
     <path d="M 9.078125 75.984375 
L 18.109375 75.984375 
L 18.109375 31.109375 
L 44.921875 54.6875 
L 56.390625 54.6875 
L 27.390625 29.109375 
L 57.625 0 
L 45.90625 0 
L 18.109375 26.703125 
L 18.109375 0 
L 9.078125 0 
z
" id="DejaVuSans-6b"/>
    </defs>
    <g transform="translate(539.318155 449.012873)scale(0.0579 -0.0579)">
     <use xlink:href="#DejaVuSans-61"/>
     <use x="61.279297" xlink:href="#DejaVuSans-72"/>
     <use x="102.392578" xlink:href="#DejaVuSans-6b"/>
     <use x="160.287109" xlink:href="#DejaVuSans-61"/>
     <use x="221.566406" xlink:href="#DejaVuSans-6e"/>
     <use x="284.945312" xlink:href="#DejaVuSans-73"/>
     <use x="337.044922" xlink:href="#DejaVuSans-61"/>
     <use x="398.324219" xlink:href="#DejaVuSans-73"/>
    </g>
   </g>
   <g id="text_21">
    <!-- usa -->
    <g transform="translate(576.55855 401.821609)scale(0.0579 -0.0579)">
     <use xlink:href="#DejaVuSans-75"/>
     <use x="63.378906" xlink:href="#DejaVuSans-73"/>
     <use x="115.478516" xlink:href="#DejaVuSans-61"/>
    </g>
   </g>
   <g id="text_22">
    <!-- missouri -->
    <g transform="translate(579.031846 435.41139)scale(0.0579 -0.0579)">
     <use xlink:href="#DejaVuSans-6d"/>
     <use x="97.412109" xlink:href="#DejaVuSans-69"/>
     <use x="125.195312" xlink:href="#DejaVuSans-73"/>
     <use x="177.294922" xlink:href="#DejaVuSans-73"/>
     <use x="229.394531" xlink:href="#DejaVuSans-6f"/>
     <use x="290.576172" xlink:href="#DejaVuSans-75"/>
     <use x="353.955078" xlink:href="#DejaVuSans-72"/>
     <use x="395.068359" xlink:href="#DejaVuSans-69"/>
    </g>
   </g>
   <g id="text_23">
    <!-- universe -->
    <g transform="translate(530.100381 396.702032)scale(0.0579 -0.0579)">
     <use xlink:href="#DejaVuSans-75"/>
     <use x="63.378906" xlink:href="#DejaVuSans-6e"/>
     <use x="126.757812" xlink:href="#DejaVuSans-69"/>
     <use x="154.541016" xlink:href="#DejaVuSans-76"/>
     <use x="213.720703" xlink:href="#DejaVuSans-65"/>
     <use x="275.244141" xlink:href="#DejaVuSans-72"/>
     <use x="316.357422" xlink:href="#DejaVuSans-73"/>
     <use x="368.457031" xlink:href="#DejaVuSans-65"/>
    </g>
   </g>
   <g id="text_24">
    <!-- momentum -->
    <g transform="translate(493.848976 450.787194)scale(0.0579 -0.0579)">
     <use xlink:href="#DejaVuSans-6d"/>
     <use x="97.412109" xlink:href="#DejaVuSans-6f"/>
     <use x="158.59375" xlink:href="#DejaVuSans-6d"/>
     <use x="256.005859" xlink:href="#DejaVuSans-65"/>
     <use x="317.529297" xlink:href="#DejaVuSans-6e"/>
     <use x="380.908203" xlink:href="#DejaVuSans-74"/>
     <use x="420.117188" xlink:href="#DejaVuSans-75"/>
     <use x="483.496094" xlink:href="#DejaVuSans-6d"/>
    </g>
   </g>
   <g id="text_25">
    <!-- missouri -->
    <g transform="translate(585.035246 441.270346)scale(0.0579 -0.0579)">
     <use xlink:href="#DejaVuSans-6d"/>
     <use x="97.412109" xlink:href="#DejaVuSans-69"/>
     <use x="125.195312" xlink:href="#DejaVuSans-73"/>
     <use x="177.294922" xlink:href="#DejaVuSans-73"/>
     <use x="229.394531" xlink:href="#DejaVuSans-6f"/>
     <use x="290.576172" xlink:href="#DejaVuSans-75"/>
     <use x="353.955078" xlink:href="#DejaVuSans-72"/>
     <use x="395.068359" xlink:href="#DejaVuSans-69"/>
    </g>
   </g>
   <g id="text_26">
    <!-- wee -->
    <g transform="translate(490.855415 458.344975)scale(0.0579 -0.0579)">
     <use xlink:href="#DejaVuSans-77"/>
     <use x="81.787109" xlink:href="#DejaVuSans-65"/>
     <use x="143.310547" xlink:href="#DejaVuSans-65"/>
    </g>
   </g>
   <g id="text_27">
    <!-- cobbs -->
    <g transform="translate(513.264336 476.056607)scale(0.0579 -0.0579)">
     <use xlink:href="#DejaVuSans-63"/>
     <use x="54.980469" xlink:href="#DejaVuSans-6f"/>
     <use x="116.162109" xlink:href="#DejaVuSans-62"/>
     <use x="179.638672" xlink:href="#DejaVuSans-62"/>
     <use x="243.115234" xlink:href="#DejaVuSans-73"/>
    </g>
   </g>
   <g id="text_28">
    <!-- kansas -->
    <g transform="translate(506.125139 435.391932)scale(0.0579 -0.0579)">
     <use xlink:href="#DejaVuSans-6b"/>
     <use x="57.894531" xlink:href="#DejaVuSans-61"/>
     <use x="119.173828" xlink:href="#DejaVuSans-6e"/>
     <use x="182.552734" xlink:href="#DejaVuSans-73"/>
     <use x="234.652344" xlink:href="#DejaVuSans-61"/>
     <use x="295.931641" xlink:href="#DejaVuSans-73"/>
    </g>
   </g>
   <g id="text_29">
    <!-- kentucky -->
    <g transform="translate(593.812517 409.530171)scale(0.0579 -0.0579)">
     <use xlink:href="#DejaVuSans-6b"/>
     <use x="57.863281" xlink:href="#DejaVuSans-65"/>
     <use x="119.386719" xlink:href="#DejaVuSans-6e"/>
     <use x="182.765625" xlink:href="#DejaVuSans-74"/>
     <use x="221.974609" xlink:href="#DejaVuSans-75"/>
     <use x="285.353516" xlink:href="#DejaVuSans-63"/>
     <use x="340.333984" xlink:href="#DejaVuSans-6b"/>
     <use x="398.197266" xlink:href="#DejaVuSans-79"/>
    </g>
   </g>
   <g id="text_30">
    <!-- louisiana -->
    <g transform="translate(719.87094 425.205255)scale(0.0579 -0.0579)">
     <use xlink:href="#DejaVuSans-6c"/>
     <use x="27.783203" xlink:href="#DejaVuSans-6f"/>
     <use x="88.964844" xlink:href="#DejaVuSans-75"/>
     <use x="152.34375" xlink:href="#DejaVuSans-69"/>
     <use x="180.126953" xlink:href="#DejaVuSans-73"/>
     <use x="232.226562" xlink:href="#DejaVuSans-69"/>
     <use x="260.009766" xlink:href="#DejaVuSans-61"/>
     <use x="321.289062" xlink:href="#DejaVuSans-6e"/>
     <use x="384.667969" xlink:href="#DejaVuSans-61"/>
    </g>
   </g>
   <g id="text_31">
    <!-- phil -->
    <defs>
     <path d="M 18.109375 8.203125 
L 18.109375 -20.796875 
L 9.078125 -20.796875 
L 9.078125 54.6875 
L 18.109375 54.6875 
L 18.109375 46.390625 
Q 20.953125 51.265625 25.265625 53.625 
Q 29.59375 56 35.59375 56 
Q 45.5625 56 51.78125 48.09375 
Q 58.015625 40.1875 58.015625 27.296875 
Q 58.015625 14.40625 51.78125 6.484375 
Q 45.5625 -1.421875 35.59375 -1.421875 
Q 29.59375 -1.421875 25.265625 0.953125 
Q 20.953125 3.328125 18.109375 8.203125 
M 48.6875 27.296875 
Q 48.6875 37.203125 44.609375 42.84375 
Q 40.53125 48.484375 33.40625 48.484375 
Q 26.265625 48.484375 22.1875 42.84375 
Q 18.109375 37.203125 18.109375 27.296875 
Q 18.109375 17.390625 22.1875 11.75 
Q 26.265625 6.109375 33.40625 6.109375 
Q 40.53125 6.109375 44.609375 11.75 
Q 48.6875 17.390625 48.6875 27.296875 
" id="DejaVuSans-70"/>
    </defs>
    <g transform="translate(459.99002 453.262376)scale(0.0579 -0.0579)">
     <use xlink:href="#DejaVuSans-70"/>
     <use x="63.476562" xlink:href="#DejaVuSans-68"/>
     <use x="126.855469" xlink:href="#DejaVuSans-69"/>
     <use x="154.638672" xlink:href="#DejaVuSans-6c"/>
    </g>
   </g>
   <g id="text_32">
    <!-- kansas -->
    <g transform="translate(499.290153 431.667395)scale(0.0579 -0.0579)">
     <use xlink:href="#DejaVuSans-6b"/>
     <use x="57.894531" xlink:href="#DejaVuSans-61"/>
     <use x="119.173828" xlink:href="#DejaVuSans-6e"/>
     <use x="182.552734" xlink:href="#DejaVuSans-73"/>
     <use x="234.652344" xlink:href="#DejaVuSans-61"/>
     <use x="295.931641" xlink:href="#DejaVuSans-73"/>
    </g>
   </g>
   <g id="text_33">
    <!-- utah -->
    <g transform="translate(573.275908 444.95428)scale(0.0579 -0.0579)">
     <use xlink:href="#DejaVuSans-75"/>
     <use x="63.378906" xlink:href="#DejaVuSans-74"/>
     <use x="102.587891" xlink:href="#DejaVuSans-61"/>
     <use x="163.867188" xlink:href="#DejaVuSans-68"/>
    </g>
   </g>
   <g id="text_34">
    <!-- birthday -->
    <g transform="translate(510.237792 452.682225)scale(0.0579 -0.0579)">
     <use xlink:href="#DejaVuSans-62"/>
     <use x="63.476562" xlink:href="#DejaVuSans-69"/>
     <use x="91.259766" xlink:href="#DejaVuSans-72"/>
     <use x="132.373047" xlink:href="#DejaVuSans-74"/>
     <use x="171.582031" xlink:href="#DejaVuSans-68"/>
     <use x="234.960938" xlink:href="#DejaVuSans-64"/>
     <use x="298.4375" xlink:href="#DejaVuSans-61"/>
     <use x="359.716797" xlink:href="#DejaVuSans-79"/>
    </g>
   </g>
   <g id="text_35">
    <!-- arkansas -->
    <g transform="translate(546.784727 439.954663)scale(0.0579 -0.0579)">
     <use xlink:href="#DejaVuSans-61"/>
     <use x="61.279297" xlink:href="#DejaVuSans-72"/>
     <use x="102.392578" xlink:href="#DejaVuSans-6b"/>
     <use x="160.287109" xlink:href="#DejaVuSans-61"/>
     <use x="221.566406" xlink:href="#DejaVuSans-6e"/>
     <use x="284.945312" xlink:href="#DejaVuSans-73"/>
     <use x="337.044922" xlink:href="#DejaVuSans-61"/>
     <use x="398.324219" xlink:href="#DejaVuSans-73"/>
    </g>
   </g>
   <g id="text_36">
    <!-- ducky -->
    <g transform="translate(542.044417 456.615952)scale(0.0579 -0.0579)">
     <use xlink:href="#DejaVuSans-64"/>
     <use x="63.476562" xlink:href="#DejaVuSans-75"/>
     <use x="126.855469" xlink:href="#DejaVuSans-63"/>
     <use x="181.835938" xlink:href="#DejaVuSans-6b"/>
     <use x="239.699219" xlink:href="#DejaVuSans-79"/>
    </g>
   </g>
   <g id="text_37">
    <!-- laredo -->
    <g transform="translate(472.679264 443.901395)scale(0.0579 -0.0579)">
     <use xlink:href="#DejaVuSans-6c"/>
     <use x="27.783203" xlink:href="#DejaVuSans-61"/>
     <use x="89.0625" xlink:href="#DejaVuSans-72"/>
     <use x="130.144531" xlink:href="#DejaVuSans-65"/>
     <use x="191.667969" xlink:href="#DejaVuSans-64"/>
     <use x="255.144531" xlink:href="#DejaVuSans-6f"/>
    </g>
   </g>
   <g id="text_38">
    <!-- texas -->
    <g transform="translate(507.454552 462.17429)scale(0.0579 -0.0579)">
     <use xlink:href="#DejaVuSans-74"/>
     <use x="39.208984" xlink:href="#DejaVuSans-65"/>
     <use x="100.716797" xlink:href="#DejaVuSans-78"/>
     <use x="159.896484" xlink:href="#DejaVuSans-61"/>
     <use x="221.175781" xlink:href="#DejaVuSans-73"/>
    </g>
   </g>
   <g id="text_39">
    <!-- cleveland -->
    <g transform="translate(531.970872 436.324454)scale(0.0579 -0.0579)">
     <use xlink:href="#DejaVuSans-63"/>
     <use x="54.980469" xlink:href="#DejaVuSans-6c"/>
     <use x="82.763672" xlink:href="#DejaVuSans-65"/>
     <use x="144.287109" xlink:href="#DejaVuSans-76"/>
     <use x="203.466797" xlink:href="#DejaVuSans-65"/>
     <use x="264.990234" xlink:href="#DejaVuSans-6c"/>
     <use x="292.773438" xlink:href="#DejaVuSans-61"/>
     <use x="354.052734" xlink:href="#DejaVuSans-6e"/>
     <use x="417.431641" xlink:href="#DejaVuSans-64"/>
    </g>
   </g>
   <g id="text_40">
    <!-- cobbs -->
    <g transform="translate(501.37264 442.209997)scale(0.0579 -0.0579)">
     <use xlink:href="#DejaVuSans-63"/>
     <use x="54.980469" xlink:href="#DejaVuSans-6f"/>
     <use x="116.162109" xlink:href="#DejaVuSans-62"/>
     <use x="179.638672" xlink:href="#DejaVuSans-62"/>
     <use x="243.115234" xlink:href="#DejaVuSans-73"/>
    </g>
   </g>
   <g id="text_41">
    <!-- massachusetts -->
    <g transform="translate(563.5311 436.193852)scale(0.0579 -0.0579)">
     <use xlink:href="#DejaVuSans-6d"/>
     <use x="97.412109" xlink:href="#DejaVuSans-61"/>
     <use x="158.691406" xlink:href="#DejaVuSans-73"/>
     <use x="210.791016" xlink:href="#DejaVuSans-73"/>
     <use x="262.890625" xlink:href="#DejaVuSans-61"/>
     <use x="324.169922" xlink:href="#DejaVuSans-63"/>
     <use x="379.150391" xlink:href="#DejaVuSans-68"/>
     <use x="442.529297" xlink:href="#DejaVuSans-75"/>
     <use x="505.908203" xlink:href="#DejaVuSans-73"/>
     <use x="558.007812" xlink:href="#DejaVuSans-65"/>
     <use x="619.53125" xlink:href="#DejaVuSans-74"/>
     <use x="658.740234" xlink:href="#DejaVuSans-74"/>
     <use x="697.949219" xlink:href="#DejaVuSans-73"/>
    </g>
   </g>
   <g id="text_42">
    <!-- kansas -->
    <g transform="translate(611.651807 473.196778)scale(0.0579 -0.0579)">
     <use xlink:href="#DejaVuSans-6b"/>
     <use x="57.894531" xlink:href="#DejaVuSans-61"/>
     <use x="119.173828" xlink:href="#DejaVuSans-6e"/>
     <use x="182.552734" xlink:href="#DejaVuSans-73"/>
     <use x="234.652344" xlink:href="#DejaVuSans-61"/>
     <use x="295.931641" xlink:href="#DejaVuSans-73"/>
    </g>
   </g>
   <g id="text_43">
    <!-- kentucky -->
    <g transform="translate(640.198653 466.001836)scale(0.0579 -0.0579)">
     <use xlink:href="#DejaVuSans-6b"/>
     <use x="57.863281" xlink:href="#DejaVuSans-65"/>
     <use x="119.386719" xlink:href="#DejaVuSans-6e"/>
     <use x="182.765625" xlink:href="#DejaVuSans-74"/>
     <use x="221.974609" xlink:href="#DejaVuSans-75"/>
     <use x="285.353516" xlink:href="#DejaVuSans-63"/>
     <use x="340.333984" xlink:href="#DejaVuSans-6b"/>
     <use x="398.197266" xlink:href="#DejaVuSans-79"/>
    </g>
   </g>
   <g id="text_44">
    <!-- louisiana -->
    <g transform="translate(424.806185 491.789622)scale(0.0579 -0.0579)">
     <use xlink:href="#DejaVuSans-6c"/>
     <use x="27.783203" xlink:href="#DejaVuSans-6f"/>
     <use x="88.964844" xlink:href="#DejaVuSans-75"/>
     <use x="152.34375" xlink:href="#DejaVuSans-69"/>
     <use x="180.126953" xlink:href="#DejaVuSans-73"/>
     <use x="232.226562" xlink:href="#DejaVuSans-69"/>
     <use x="260.009766" xlink:href="#DejaVuSans-61"/>
     <use x="321.289062" xlink:href="#DejaVuSans-6e"/>
     <use x="384.667969" xlink:href="#DejaVuSans-61"/>
    </g>
   </g>
   <g id="text_45">
    <!-- oklahoma -->
    <g transform="translate(558.96626 468.684106)scale(0.0579 -0.0579)">
     <use xlink:href="#DejaVuSans-6f"/>
     <use x="61.181641" xlink:href="#DejaVuSans-6b"/>
     <use x="119.091797" xlink:href="#DejaVuSans-6c"/>
     <use x="146.875" xlink:href="#DejaVuSans-61"/>
     <use x="208.154297" xlink:href="#DejaVuSans-68"/>
     <use x="271.533203" xlink:href="#DejaVuSans-6f"/>
     <use x="332.714844" xlink:href="#DejaVuSans-6d"/>
     <use x="430.126953" xlink:href="#DejaVuSans-61"/>
    </g>
   </g>
   <g id="text_46">
    <!-- dayton -->
    <g transform="translate(540.731709 432.955048)scale(0.0579 -0.0579)">
     <use xlink:href="#DejaVuSans-64"/>
     <use x="63.476562" xlink:href="#DejaVuSans-61"/>
     <use x="124.755859" xlink:href="#DejaVuSans-79"/>
     <use x="183.935547" xlink:href="#DejaVuSans-74"/>
     <use x="223.144531" xlink:href="#DejaVuSans-6f"/>
     <use x="284.326172" xlink:href="#DejaVuSans-6e"/>
    </g>
   </g>
   <g id="text_47">
    <!-- massachusetts -->
    <g transform="translate(590.843872 448.408413)scale(0.0579 -0.0579)">
     <use xlink:href="#DejaVuSans-6d"/>
     <use x="97.412109" xlink:href="#DejaVuSans-61"/>
     <use x="158.691406" xlink:href="#DejaVuSans-73"/>
     <use x="210.791016" xlink:href="#DejaVuSans-73"/>
     <use x="262.890625" xlink:href="#DejaVuSans-61"/>
     <use x="324.169922" xlink:href="#DejaVuSans-63"/>
     <use x="379.150391" xlink:href="#DejaVuSans-68"/>
     <use x="442.529297" xlink:href="#DejaVuSans-75"/>
     <use x="505.908203" xlink:href="#DejaVuSans-73"/>
     <use x="558.007812" xlink:href="#DejaVuSans-65"/>
     <use x="619.53125" xlink:href="#DejaVuSans-74"/>
     <use x="658.740234" xlink:href="#DejaVuSans-74"/>
     <use x="697.949219" xlink:href="#DejaVuSans-73"/>
    </g>
   </g>
   <g id="text_48">
    <!-- northern -->
    <g transform="translate(557.971502 458.498417)scale(0.0579 -0.0579)">
     <use xlink:href="#DejaVuSans-6e"/>
     <use x="63.378906" xlink:href="#DejaVuSans-6f"/>
     <use x="124.560547" xlink:href="#DejaVuSans-72"/>
     <use x="165.673828" xlink:href="#DejaVuSans-74"/>
     <use x="204.882812" xlink:href="#DejaVuSans-68"/>
     <use x="268.261719" xlink:href="#DejaVuSans-65"/>
     <use x="329.785156" xlink:href="#DejaVuSans-72"/>
     <use x="370.882812" xlink:href="#DejaVuSans-6e"/>
    </g>
   </g>
   <g id="text_49">
    <!-- kentucky -->
    <g transform="translate(628.287921 467.286501)scale(0.0579 -0.0579)">
     <use xlink:href="#DejaVuSans-6b"/>
     <use x="57.863281" xlink:href="#DejaVuSans-65"/>
     <use x="119.386719" xlink:href="#DejaVuSans-6e"/>
     <use x="182.765625" xlink:href="#DejaVuSans-74"/>
     <use x="221.974609" xlink:href="#DejaVuSans-75"/>
     <use x="285.353516" xlink:href="#DejaVuSans-63"/>
     <use x="340.333984" xlink:href="#DejaVuSans-6b"/>
     <use x="398.197266" xlink:href="#DejaVuSans-79"/>
    </g>
   </g>
   <g id="text_50">
    <!-- football -->
    <g transform="translate(628.964036 427.442121)scale(0.0579 -0.0579)">
     <use xlink:href="#DejaVuSans-66"/>
     <use x="35.205078" xlink:href="#DejaVuSans-6f"/>
     <use x="96.386719" xlink:href="#DejaVuSans-6f"/>
     <use x="157.568359" xlink:href="#DejaVuSans-74"/>
     <use x="196.777344" xlink:href="#DejaVuSans-62"/>
     <use x="260.253906" xlink:href="#DejaVuSans-61"/>
     <use x="321.533203" xlink:href="#DejaVuSans-6c"/>
     <use x="349.316406" xlink:href="#DejaVuSans-6c"/>
    </g>
   </g>
   <g id="text_51">
    <!-- coach -->
    <g transform="translate(144 254.25495)scale(0.0579 -0.0579)">
     <use xlink:href="#DejaVuSans-63"/>
     <use x="54.980469" xlink:href="#DejaVuSans-6f"/>
     <use x="116.162109" xlink:href="#DejaVuSans-61"/>
     <use x="177.441406" xlink:href="#DejaVuSans-63"/>
     <use x="232.421875" xlink:href="#DejaVuSans-68"/>
    </g>
   </g>
   <g id="text_52">
    <!-- jersey -->
    <g transform="translate(480.198238 473.259124)scale(0.0579 -0.0579)">
     <use xlink:href="#DejaVuSans-6a"/>
     <use x="27.783203" xlink:href="#DejaVuSans-65"/>
     <use x="89.306641" xlink:href="#DejaVuSans-72"/>
     <use x="130.419922" xlink:href="#DejaVuSans-73"/>
     <use x="182.519531" xlink:href="#DejaVuSans-65"/>
     <use x="244.042969" xlink:href="#DejaVuSans-79"/>
    </g>
   </g>
   <g id="text_53">
    <!-- mary -->
    <g transform="translate(586.375468 465.246078)scale(0.0579 -0.0579)">
     <use xlink:href="#DejaVuSans-6d"/>
     <use x="97.412109" xlink:href="#DejaVuSans-61"/>
     <use x="158.691406" xlink:href="#DejaVuSans-72"/>
     <use x="199.804688" xlink:href="#DejaVuSans-79"/>
    </g>
   </g>
   <g id="text_54">
    <!-- arizona -->
    <defs>
     <path d="M 5.515625 54.6875 
L 48.1875 54.6875 
L 48.1875 46.484375 
L 14.40625 7.171875 
L 48.1875 7.171875 
L 48.1875 0 
L 4.296875 0 
L 4.296875 8.203125 
L 38.09375 47.515625 
L 5.515625 47.515625 
z
" id="DejaVuSans-7a"/>
    </defs>
    <g transform="translate(557.930487 430.621071)scale(0.0579 -0.0579)">
     <use xlink:href="#DejaVuSans-61"/>
     <use x="61.279297" xlink:href="#DejaVuSans-72"/>
     <use x="102.392578" xlink:href="#DejaVuSans-69"/>
     <use x="130.175781" xlink:href="#DejaVuSans-7a"/>
     <use x="182.666016" xlink:href="#DejaVuSans-6f"/>
     <use x="243.847656" xlink:href="#DejaVuSans-6e"/>
     <use x="307.226562" xlink:href="#DejaVuSans-61"/>
    </g>
   </g>
   <g id="text_55">
    <!-- dayton -->
    <g transform="translate(524.222025 432.393194)scale(0.0579 -0.0579)">
     <use xlink:href="#DejaVuSans-64"/>
     <use x="63.476562" xlink:href="#DejaVuSans-61"/>
     <use x="124.755859" xlink:href="#DejaVuSans-79"/>
     <use x="183.935547" xlink:href="#DejaVuSans-74"/>
     <use x="223.144531" xlink:href="#DejaVuSans-6f"/>
     <use x="284.326172" xlink:href="#DejaVuSans-6e"/>
    </g>
   </g>
   <g id="text_56">
    <!-- philadelphia -->
    <g transform="translate(637.218991 409.395384)scale(0.0579 -0.0579)">
     <use xlink:href="#DejaVuSans-70"/>
     <use x="63.476562" xlink:href="#DejaVuSans-68"/>
     <use x="126.855469" xlink:href="#DejaVuSans-69"/>
     <use x="154.638672" xlink:href="#DejaVuSans-6c"/>
     <use x="182.421875" xlink:href="#DejaVuSans-61"/>
     <use x="243.701172" xlink:href="#DejaVuSans-64"/>
     <use x="307.177734" xlink:href="#DejaVuSans-65"/>
     <use x="368.701172" xlink:href="#DejaVuSans-6c"/>
     <use x="396.484375" xlink:href="#DejaVuSans-70"/>
     <use x="459.960938" xlink:href="#DejaVuSans-68"/>
     <use x="523.339844" xlink:href="#DejaVuSans-69"/>
     <use x="551.123047" xlink:href="#DejaVuSans-61"/>
    </g>
   </g>
   <g id="text_57">
    <!-- louis -->
    <g transform="translate(579.160071 474.020243)scale(0.0579 -0.0579)">
     <use xlink:href="#DejaVuSans-6c"/>
     <use x="27.783203" xlink:href="#DejaVuSans-6f"/>
     <use x="88.964844" xlink:href="#DejaVuSans-75"/>
     <use x="152.34375" xlink:href="#DejaVuSans-69"/>
     <use x="180.126953" xlink:href="#DejaVuSans-73"/>
    </g>
   </g>
   <g id="text_58">
    <!-- arena -->
    <g transform="translate(520.953421 439.801309)scale(0.0579 -0.0579)">
     <use xlink:href="#DejaVuSans-61"/>
     <use x="61.279297" xlink:href="#DejaVuSans-72"/>
     <use x="102.361328" xlink:href="#DejaVuSans-65"/>
     <use x="163.884766" xlink:href="#DejaVuSans-6e"/>
     <use x="227.263672" xlink:href="#DejaVuSans-61"/>
    </g>
   </g>
   <g id="text_59">
    <!-- basketball -->
    <g transform="translate(601.632882 427.390384)scale(0.0579 -0.0579)">
     <use xlink:href="#DejaVuSans-62"/>
     <use x="63.476562" xlink:href="#DejaVuSans-61"/>
     <use x="124.755859" xlink:href="#DejaVuSans-73"/>
     <use x="176.855469" xlink:href="#DejaVuSans-6b"/>
     <use x="234.71875" xlink:href="#DejaVuSans-65"/>
     <use x="296.242188" xlink:href="#DejaVuSans-74"/>
     <use x="335.451172" xlink:href="#DejaVuSans-62"/>
     <use x="398.927734" xlink:href="#DejaVuSans-61"/>
     <use x="460.207031" xlink:href="#DejaVuSans-6c"/>
     <use x="487.990234" xlink:href="#DejaVuSans-6c"/>
    </g>
   </g>
   <g id="text_60">
    <!-- bobby -->
    <g transform="translate(619.825881 446.2026)scale(0.0579 -0.0579)">
     <use xlink:href="#DejaVuSans-62"/>
     <use x="63.476562" xlink:href="#DejaVuSans-6f"/>
     <use x="124.658203" xlink:href="#DejaVuSans-62"/>
     <use x="188.134766" xlink:href="#DejaVuSans-62"/>
     <use x="251.611328" xlink:href="#DejaVuSans-79"/>
    </g>
   </g>
   <g id="text_61">
    <!-- maine -->
    <g transform="translate(1020.540425 482.190563)scale(0.0579 -0.0579)">
     <use xlink:href="#DejaVuSans-6d"/>
     <use x="97.412109" xlink:href="#DejaVuSans-61"/>
     <use x="158.691406" xlink:href="#DejaVuSans-69"/>
     <use x="186.474609" xlink:href="#DejaVuSans-6e"/>
     <use x="249.853516" xlink:href="#DejaVuSans-65"/>
    </g>
   </g>
   <g id="text_62">
    <!-- delphi -->
    <g transform="translate(627.410001 411.949699)scale(0.0579 -0.0579)">
     <use xlink:href="#DejaVuSans-64"/>
     <use x="63.476562" xlink:href="#DejaVuSans-65"/>
     <use x="125" xlink:href="#DejaVuSans-6c"/>
     <use x="152.783203" xlink:href="#DejaVuSans-70"/>
     <use x="216.259766" xlink:href="#DejaVuSans-68"/>
     <use x="279.638672" xlink:href="#DejaVuSans-69"/>
    </g>
   </g>
   <g id="text_63">
    <!-- bobby -->
    <g transform="translate(558.076841 400.075422)scale(0.0579 -0.0579)">
     <use xlink:href="#DejaVuSans-62"/>
     <use x="63.476562" xlink:href="#DejaVuSans-6f"/>
     <use x="124.658203" xlink:href="#DejaVuSans-62"/>
     <use x="188.134766" xlink:href="#DejaVuSans-62"/>
     <use x="251.611328" xlink:href="#DejaVuSans-79"/>
    </g>
   </g>
   <g id="text_64">
    <!-- congratulated -->
    <g transform="translate(664.19032 103.68)scale(0.0579 -0.0579)">
     <use xlink:href="#DejaVuSans-63"/>
     <use x="54.980469" xlink:href="#DejaVuSans-6f"/>
     <use x="116.162109" xlink:href="#DejaVuSans-6e"/>
     <use x="179.541016" xlink:href="#DejaVuSans-67"/>
     <use x="243.017578" xlink:href="#DejaVuSans-72"/>
     <use x="284.130859" xlink:href="#DejaVuSans-61"/>
     <use x="345.410156" xlink:href="#DejaVuSans-74"/>
     <use x="384.619141" xlink:href="#DejaVuSans-75"/>
     <use x="447.998047" xlink:href="#DejaVuSans-6c"/>
     <use x="475.78125" xlink:href="#DejaVuSans-61"/>
     <use x="537.060547" xlink:href="#DejaVuSans-74"/>
     <use x="576.269531" xlink:href="#DejaVuSans-65"/>
     <use x="637.792969" xlink:href="#DejaVuSans-64"/>
    </g>
   </g>
   <g id="text_65">
    <!-- georgie -->
    <g transform="translate(538.190054 443.548894)scale(0.0579 -0.0579)">
     <use xlink:href="#DejaVuSans-67"/>
     <use x="63.476562" xlink:href="#DejaVuSans-65"/>
     <use x="125" xlink:href="#DejaVuSans-6f"/>
     <use x="186.181641" xlink:href="#DejaVuSans-72"/>
     <use x="227.279297" xlink:href="#DejaVuSans-67"/>
     <use x="290.755859" xlink:href="#DejaVuSans-69"/>
     <use x="318.539062" xlink:href="#DejaVuSans-65"/>
    </g>
   </g>
   <g id="text_66">
    <!-- welcome -->
    <g transform="translate(530.882345 416.420289)scale(0.0579 -0.0579)">
     <use xlink:href="#DejaVuSans-77"/>
     <use x="81.787109" xlink:href="#DejaVuSans-65"/>
     <use x="143.310547" xlink:href="#DejaVuSans-6c"/>
     <use x="171.09375" xlink:href="#DejaVuSans-63"/>
     <use x="226.074219" xlink:href="#DejaVuSans-6f"/>
     <use x="287.255859" xlink:href="#DejaVuSans-6d"/>
     <use x="384.667969" xlink:href="#DejaVuSans-65"/>
    </g>
   </g>
   <g id="text_67">
    <!-- texas -->
    <g transform="translate(502.598066 421.464306)scale(0.0579 -0.0579)">
     <use xlink:href="#DejaVuSans-74"/>
     <use x="39.208984" xlink:href="#DejaVuSans-65"/>
     <use x="100.716797" xlink:href="#DejaVuSans-78"/>
     <use x="159.896484" xlink:href="#DejaVuSans-61"/>
     <use x="221.175781" xlink:href="#DejaVuSans-73"/>
    </g>
   </g>
   <g id="text_68">
    <!-- oklahoma -->
    <g transform="translate(585.751527 453.713007)scale(0.0579 -0.0579)">
     <use xlink:href="#DejaVuSans-6f"/>
     <use x="61.181641" xlink:href="#DejaVuSans-6b"/>
     <use x="119.091797" xlink:href="#DejaVuSans-6c"/>
     <use x="146.875" xlink:href="#DejaVuSans-61"/>
     <use x="208.154297" xlink:href="#DejaVuSans-68"/>
     <use x="271.533203" xlink:href="#DejaVuSans-6f"/>
     <use x="332.714844" xlink:href="#DejaVuSans-6d"/>
     <use x="430.126953" xlink:href="#DejaVuSans-61"/>
    </g>
   </g>
   <g id="text_69">
    <!-- virginia -->
    <g transform="translate(469.616774 411.444567)scale(0.0579 -0.0579)">
     <use xlink:href="#DejaVuSans-76"/>
     <use x="59.179688" xlink:href="#DejaVuSans-69"/>
     <use x="86.962891" xlink:href="#DejaVuSans-72"/>
     <use x="128.060547" xlink:href="#DejaVuSans-67"/>
     <use x="191.537109" xlink:href="#DejaVuSans-69"/>
     <use x="219.320312" xlink:href="#DejaVuSans-6e"/>
     <use x="282.699219" xlink:href="#DejaVuSans-69"/>
     <use x="310.482422" xlink:href="#DejaVuSans-61"/>
    </g>
   </g>
   <g id="text_70">
    <!-- phil -->
    <g transform="translate(663.268772 440.805721)scale(0.0579 -0.0579)">
     <use xlink:href="#DejaVuSans-70"/>
     <use x="63.476562" xlink:href="#DejaVuSans-68"/>
     <use x="126.855469" xlink:href="#DejaVuSans-69"/>
     <use x="154.638672" xlink:href="#DejaVuSans-6c"/>
    </g>
   </g>
   <g id="text_71">
    <!-- louisiana -->
    <g transform="translate(424.806185 491.789622)scale(0.0579 -0.0579)">
     <use xlink:href="#DejaVuSans-6c"/>
     <use x="27.783203" xlink:href="#DejaVuSans-6f"/>
     <use x="88.964844" xlink:href="#DejaVuSans-75"/>
     <use x="152.34375" xlink:href="#DejaVuSans-69"/>
     <use x="180.126953" xlink:href="#DejaVuSans-73"/>
     <use x="232.226562" xlink:href="#DejaVuSans-69"/>
     <use x="260.009766" xlink:href="#DejaVuSans-61"/>
     <use x="321.289062" xlink:href="#DejaVuSans-6e"/>
     <use x="384.667969" xlink:href="#DejaVuSans-61"/>
    </g>
   </g>
   <g id="text_72">
    <!-- utah -->
    <g transform="translate(571.656879 439.989094)scale(0.0579 -0.0579)">
     <use xlink:href="#DejaVuSans-75"/>
     <use x="63.378906" xlink:href="#DejaVuSans-74"/>
     <use x="102.587891" xlink:href="#DejaVuSans-61"/>
     <use x="163.867188" xlink:href="#DejaVuSans-68"/>
    </g>
   </g>
   <g id="text_73">
    <!-- philadelphia -->
    <g transform="translate(580.747023 428.05878)scale(0.0579 -0.0579)">
     <use xlink:href="#DejaVuSans-70"/>
     <use x="63.476562" xlink:href="#DejaVuSans-68"/>
     <use x="126.855469" xlink:href="#DejaVuSans-69"/>
     <use x="154.638672" xlink:href="#DejaVuSans-6c"/>
     <use x="182.421875" xlink:href="#DejaVuSans-61"/>
     <use x="243.701172" xlink:href="#DejaVuSans-64"/>
     <use x="307.177734" xlink:href="#DejaVuSans-65"/>
     <use x="368.701172" xlink:href="#DejaVuSans-6c"/>
     <use x="396.484375" xlink:href="#DejaVuSans-70"/>
     <use x="459.960938" xlink:href="#DejaVuSans-68"/>
     <use x="523.339844" xlink:href="#DejaVuSans-69"/>
     <use x="551.123047" xlink:href="#DejaVuSans-61"/>
    </g>
   </g>
   <g id="text_74">
    <!-- coach -->
    <g transform="translate(614.602807 434.337049)scale(0.0579 -0.0579)">
     <use xlink:href="#DejaVuSans-63"/>
     <use x="54.980469" xlink:href="#DejaVuSans-6f"/>
     <use x="116.162109" xlink:href="#DejaVuSans-61"/>
     <use x="177.441406" xlink:href="#DejaVuSans-63"/>
     <use x="232.421875" xlink:href="#DejaVuSans-68"/>
    </g>
   </g>
   <g id="text_75">
    <!-- coaches -->
    <g transform="translate(613.110714 439.891116)scale(0.0579 -0.0579)">
     <use xlink:href="#DejaVuSans-63"/>
     <use x="54.980469" xlink:href="#DejaVuSans-6f"/>
     <use x="116.162109" xlink:href="#DejaVuSans-61"/>
     <use x="177.441406" xlink:href="#DejaVuSans-63"/>
     <use x="232.421875" xlink:href="#DejaVuSans-68"/>
     <use x="295.800781" xlink:href="#DejaVuSans-65"/>
     <use x="357.324219" xlink:href="#DejaVuSans-73"/>
    </g>
   </g>
   <g id="text_76">
    <!-- vegas -->
    <g transform="translate(527.039675 449.624327)scale(0.0579 -0.0579)">
     <use xlink:href="#DejaVuSans-76"/>
     <use x="59.179688" xlink:href="#DejaVuSans-65"/>
     <use x="120.703125" xlink:href="#DejaVuSans-67"/>
     <use x="184.179688" xlink:href="#DejaVuSans-61"/>
     <use x="245.458984" xlink:href="#DejaVuSans-73"/>
    </g>
   </g>
   <g id="text_77">
    <!-- las -->
    <g transform="translate(535.137643 425.862889)scale(0.0579 -0.0579)">
     <use xlink:href="#DejaVuSans-6c"/>
     <use x="27.783203" xlink:href="#DejaVuSans-61"/>
     <use x="89.0625" xlink:href="#DejaVuSans-73"/>
    </g>
   </g>
   <g id="text_78">
    <!-- phil -->
    <g transform="translate(450.633857 452.663823)scale(0.0579 -0.0579)">
     <use xlink:href="#DejaVuSans-70"/>
     <use x="63.476562" xlink:href="#DejaVuSans-68"/>
     <use x="126.855469" xlink:href="#DejaVuSans-69"/>
     <use x="154.638672" xlink:href="#DejaVuSans-6c"/>
    </g>
   </g>
   <g id="text_79">
    <!-- sunday -->
    <g transform="translate(512.35218 447.916636)scale(0.0579 -0.0579)">
     <use xlink:href="#DejaVuSans-73"/>
     <use x="52.099609" xlink:href="#DejaVuSans-75"/>
     <use x="115.478516" xlink:href="#DejaVuSans-6e"/>
     <use x="178.857422" xlink:href="#DejaVuSans-64"/>
     <use x="242.333984" xlink:href="#DejaVuSans-61"/>
     <use x="303.613281" xlink:href="#DejaVuSans-79"/>
    </g>
   </g>
   <g id="text_80">
    <!-- louis -->
    <g transform="translate(603.94401 415.578634)scale(0.0579 -0.0579)">
     <use xlink:href="#DejaVuSans-6c"/>
     <use x="27.783203" xlink:href="#DejaVuSans-6f"/>
     <use x="88.964844" xlink:href="#DejaVuSans-75"/>
     <use x="152.34375" xlink:href="#DejaVuSans-69"/>
     <use x="180.126953" xlink:href="#DejaVuSans-73"/>
    </g>
   </g>
   <g id="text_81">
    <!-- played -->
    <g transform="translate(680.281279 449.416691)scale(0.0579 -0.0579)">
     <use xlink:href="#DejaVuSans-70"/>
     <use x="63.476562" xlink:href="#DejaVuSans-6c"/>
     <use x="91.259766" xlink:href="#DejaVuSans-61"/>
     <use x="152.539062" xlink:href="#DejaVuSans-79"/>
     <use x="211.71875" xlink:href="#DejaVuSans-65"/>
     <use x="273.242188" xlink:href="#DejaVuSans-64"/>
    </g>
   </g>
   <g id="text_82">
    <!-- virginia -->
    <g transform="translate(632.273933 392.000703)scale(0.0579 -0.0579)">
     <use xlink:href="#DejaVuSans-76"/>
     <use x="59.179688" xlink:href="#DejaVuSans-69"/>
     <use x="86.962891" xlink:href="#DejaVuSans-72"/>
     <use x="128.060547" xlink:href="#DejaVuSans-67"/>
     <use x="191.537109" xlink:href="#DejaVuSans-69"/>
     <use x="219.320312" xlink:href="#DejaVuSans-6e"/>
     <use x="282.699219" xlink:href="#DejaVuSans-69"/>
     <use x="310.482422" xlink:href="#DejaVuSans-61"/>
    </g>
   </g>
   <g id="text_83">
    <!-- indiana -->
    <g transform="translate(669.958691 418.19703)scale(0.0579 -0.0579)">
     <use xlink:href="#DejaVuSans-69"/>
     <use x="27.783203" xlink:href="#DejaVuSans-6e"/>
     <use x="91.162109" xlink:href="#DejaVuSans-64"/>
     <use x="154.638672" xlink:href="#DejaVuSans-69"/>
     <use x="182.421875" xlink:href="#DejaVuSans-61"/>
     <use x="243.701172" xlink:href="#DejaVuSans-6e"/>
     <use x="307.080078" xlink:href="#DejaVuSans-61"/>
    </g>
   </g>
   <g id="text_84">
    <!-- penn -->
    <g transform="translate(450.849117 420.025308)scale(0.0579 -0.0579)">
     <use xlink:href="#DejaVuSans-70"/>
     <use x="63.476562" xlink:href="#DejaVuSans-65"/>
     <use x="125" xlink:href="#DejaVuSans-6e"/>
     <use x="188.378906" xlink:href="#DejaVuSans-6e"/>
    </g>
   </g>
   <g id="text_85">
    <!-- louisiana -->
    <g transform="translate(455.795084 467.378478)scale(0.0579 -0.0579)">
     <use xlink:href="#DejaVuSans-6c"/>
     <use x="27.783203" xlink:href="#DejaVuSans-6f"/>
     <use x="88.964844" xlink:href="#DejaVuSans-75"/>
     <use x="152.34375" xlink:href="#DejaVuSans-69"/>
     <use x="180.126953" xlink:href="#DejaVuSans-73"/>
     <use x="232.226562" xlink:href="#DejaVuSans-69"/>
     <use x="260.009766" xlink:href="#DejaVuSans-61"/>
     <use x="321.289062" xlink:href="#DejaVuSans-6e"/>
     <use x="384.667969" xlink:href="#DejaVuSans-61"/>
    </g>
   </g>
   <g id="text_86">
    <!-- team -->
    <g transform="translate(639.938741 433.767345)scale(0.0579 -0.0579)">
     <use xlink:href="#DejaVuSans-74"/>
     <use x="39.208984" xlink:href="#DejaVuSans-65"/>
     <use x="100.732422" xlink:href="#DejaVuSans-61"/>
     <use x="162.011719" xlink:href="#DejaVuSans-6d"/>
    </g>
   </g>
   <g id="text_87">
    <!-- football -->
    <g transform="translate(622.644626 421.205719)scale(0.0579 -0.0579)">
     <use xlink:href="#DejaVuSans-66"/>
     <use x="35.205078" xlink:href="#DejaVuSans-6f"/>
     <use x="96.386719" xlink:href="#DejaVuSans-6f"/>
     <use x="157.568359" xlink:href="#DejaVuSans-74"/>
     <use x="196.777344" xlink:href="#DejaVuSans-62"/>
     <use x="260.253906" xlink:href="#DejaVuSans-61"/>
     <use x="321.533203" xlink:href="#DejaVuSans-6c"/>
     <use x="349.316406" xlink:href="#DejaVuSans-6c"/>
    </g>
   </g>
   <g id="text_88">
    <!-- lou -->
    <g transform="translate(492.799555 414.334535)scale(0.0579 -0.0579)">
     <use xlink:href="#DejaVuSans-6c"/>
     <use x="27.783203" xlink:href="#DejaVuSans-6f"/>
     <use x="88.964844" xlink:href="#DejaVuSans-75"/>
    </g>
   </g>
   <g id="text_89">
    <!-- knight -->
    <g transform="translate(597.801996 437.415388)scale(0.0579 -0.0579)">
     <use xlink:href="#DejaVuSans-6b"/>
     <use x="57.910156" xlink:href="#DejaVuSans-6e"/>
     <use x="121.289062" xlink:href="#DejaVuSans-69"/>
     <use x="149.072266" xlink:href="#DejaVuSans-67"/>
     <use x="212.548828" xlink:href="#DejaVuSans-68"/>
     <use x="275.927734" xlink:href="#DejaVuSans-74"/>
    </g>
   </g>
   <g id="text_90">
    <!-- bobby -->
    <g transform="translate(518.82909 408.945772)scale(0.0579 -0.0579)">
     <use xlink:href="#DejaVuSans-62"/>
     <use x="63.476562" xlink:href="#DejaVuSans-6f"/>
     <use x="124.658203" xlink:href="#DejaVuSans-62"/>
     <use x="188.134766" xlink:href="#DejaVuSans-62"/>
     <use x="251.611328" xlink:href="#DejaVuSans-79"/>
    </g>
   </g>
   <g id="text_91">
    <!-- played -->
    <g transform="translate(613.618325 459.627252)scale(0.0579 -0.0579)">
     <use xlink:href="#DejaVuSans-70"/>
     <use x="63.476562" xlink:href="#DejaVuSans-6c"/>
     <use x="91.259766" xlink:href="#DejaVuSans-61"/>
     <use x="152.539062" xlink:href="#DejaVuSans-79"/>
     <use x="211.71875" xlink:href="#DejaVuSans-65"/>
     <use x="273.242188" xlink:href="#DejaVuSans-64"/>
    </g>
   </g>
   <g id="text_92">
    <!-- maine -->
    <g transform="translate(652.463773 452.811379)scale(0.0579 -0.0579)">
     <use xlink:href="#DejaVuSans-6d"/>
     <use x="97.412109" xlink:href="#DejaVuSans-61"/>
     <use x="158.691406" xlink:href="#DejaVuSans-69"/>
     <use x="186.474609" xlink:href="#DejaVuSans-6e"/>
     <use x="249.853516" xlink:href="#DejaVuSans-65"/>
    </g>
   </g>
   <g id="text_93">
    <!-- basketball -->
    <g transform="translate(598.241342 421.893644)scale(0.0579 -0.0579)">
     <use xlink:href="#DejaVuSans-62"/>
     <use x="63.476562" xlink:href="#DejaVuSans-61"/>
     <use x="124.755859" xlink:href="#DejaVuSans-73"/>
     <use x="176.855469" xlink:href="#DejaVuSans-6b"/>
     <use x="234.71875" xlink:href="#DejaVuSans-65"/>
     <use x="296.242188" xlink:href="#DejaVuSans-74"/>
     <use x="335.451172" xlink:href="#DejaVuSans-62"/>
     <use x="398.927734" xlink:href="#DejaVuSans-61"/>
     <use x="460.207031" xlink:href="#DejaVuSans-6c"/>
     <use x="487.990234" xlink:href="#DejaVuSans-6c"/>
    </g>
   </g>
   <g id="text_94">
    <!-- volunteers -->
    <g transform="translate(554.427421 451.217818)scale(0.0579 -0.0579)">
     <use xlink:href="#DejaVuSans-76"/>
     <use x="59.179688" xlink:href="#DejaVuSans-6f"/>
     <use x="120.361328" xlink:href="#DejaVuSans-6c"/>
     <use x="148.144531" xlink:href="#DejaVuSans-75"/>
     <use x="211.523438" xlink:href="#DejaVuSans-6e"/>
     <use x="274.902344" xlink:href="#DejaVuSans-74"/>
     <use x="314.111328" xlink:href="#DejaVuSans-65"/>
     <use x="375.634766" xlink:href="#DejaVuSans-65"/>
     <use x="437.158203" xlink:href="#DejaVuSans-72"/>
     <use x="478.271484" xlink:href="#DejaVuSans-73"/>
    </g>
   </g>
   <g id="text_95">
    <!-- tuning -->
    <g transform="translate(516.900065 423.998708)scale(0.0579 -0.0579)">
     <use xlink:href="#DejaVuSans-74"/>
     <use x="39.208984" xlink:href="#DejaVuSans-75"/>
     <use x="102.587891" xlink:href="#DejaVuSans-6e"/>
     <use x="165.966797" xlink:href="#DejaVuSans-69"/>
     <use x="193.75" xlink:href="#DejaVuSans-6e"/>
     <use x="257.128906" xlink:href="#DejaVuSans-67"/>
    </g>
   </g>
   <g id="text_96">
    <!-- kentucky -->
    <g transform="translate(628.287921 467.286501)scale(0.0579 -0.0579)">
     <use xlink:href="#DejaVuSans-6b"/>
     <use x="57.863281" xlink:href="#DejaVuSans-65"/>
     <use x="119.386719" xlink:href="#DejaVuSans-6e"/>
     <use x="182.765625" xlink:href="#DejaVuSans-74"/>
     <use x="221.974609" xlink:href="#DejaVuSans-75"/>
     <use x="285.353516" xlink:href="#DejaVuSans-63"/>
     <use x="340.333984" xlink:href="#DejaVuSans-6b"/>
     <use x="398.197266" xlink:href="#DejaVuSans-79"/>
    </g>
   </g>
   <g id="text_97">
    <!-- cincinnati -->
    <g transform="translate(329.921807 424.811618)scale(0.0579 -0.0579)">
     <use xlink:href="#DejaVuSans-63"/>
     <use x="54.980469" xlink:href="#DejaVuSans-69"/>
     <use x="82.763672" xlink:href="#DejaVuSans-6e"/>
     <use x="146.142578" xlink:href="#DejaVuSans-63"/>
     <use x="201.123047" xlink:href="#DejaVuSans-69"/>
     <use x="228.90625" xlink:href="#DejaVuSans-6e"/>
     <use x="292.285156" xlink:href="#DejaVuSans-6e"/>
     <use x="355.664062" xlink:href="#DejaVuSans-61"/>
     <use x="416.943359" xlink:href="#DejaVuSans-74"/>
     <use x="456.152344" xlink:href="#DejaVuSans-69"/>
    </g>
   </g>
   <g id="text_98">
    <!-- Cluster 12 -->
    <defs>
     <path d="M 64.40625 67.28125 
L 64.40625 56.890625 
Q 59.421875 61.53125 53.78125 63.8125 
Q 48.140625 66.109375 41.796875 66.109375 
Q 29.296875 66.109375 22.65625 58.46875 
Q 16.015625 50.828125 16.015625 36.375 
Q 16.015625 21.96875 22.65625 14.328125 
Q 29.296875 6.6875 41.796875 6.6875 
Q 48.140625 6.6875 53.78125 8.984375 
Q 59.421875 11.28125 64.40625 15.921875 
L 64.40625 5.609375 
Q 59.234375 2.09375 53.4375 0.328125 
Q 47.65625 -1.421875 41.21875 -1.421875 
Q 24.65625 -1.421875 15.125 8.703125 
Q 5.609375 18.84375 5.609375 36.375 
Q 5.609375 53.953125 15.125 64.078125 
Q 24.65625 74.21875 41.21875 74.21875 
Q 47.75 74.21875 53.53125 72.484375 
Q 59.328125 70.75 64.40625 67.28125 
" id="DejaVuSans-43"/>
     <path id="DejaVuSans-20"/>
     <path d="M 12.40625 8.296875 
L 28.515625 8.296875 
L 28.515625 63.921875 
L 10.984375 60.40625 
L 10.984375 69.390625 
L 28.421875 72.90625 
L 38.28125 72.90625 
L 38.28125 8.296875 
L 54.390625 8.296875 
L 54.390625 0 
L 12.40625 0 
z
" id="DejaVuSans-31"/>
     <path d="M 19.1875 8.296875 
L 53.609375 8.296875 
L 53.609375 0 
L 7.328125 0 
L 7.328125 8.296875 
Q 12.9375 14.109375 22.625 23.890625 
Q 32.328125 33.6875 34.8125 36.53125 
Q 39.546875 41.84375 41.421875 45.53125 
Q 43.3125 49.21875 43.3125 52.78125 
Q 43.3125 58.59375 39.234375 62.25 
Q 35.15625 65.921875 28.609375 65.921875 
Q 23.96875 65.921875 18.8125 64.3125 
Q 13.671875 62.703125 7.8125 59.421875 
L 7.8125 69.390625 
Q 13.765625 71.78125 18.9375 73 
Q 24.125 74.21875 28.421875 74.21875 
Q 39.75 74.21875 46.484375 68.546875 
Q 53.21875 62.890625 53.21875 53.421875 
Q 53.21875 48.921875 51.53125 44.890625 
Q 49.859375 40.875 45.40625 35.40625 
Q 44.1875 33.984375 37.640625 27.21875 
Q 31.109375 20.453125 19.1875 8.296875 
" id="DejaVuSans-32"/>
    </defs>
    <g transform="translate(559.562812 97.68)scale(0.12 -0.12)">
     <use xlink:href="#DejaVuSans-43"/>
     <use x="69.824219" xlink:href="#DejaVuSans-6c"/>
     <use x="97.607422" xlink:href="#DejaVuSans-75"/>
     <use x="160.986328" xlink:href="#DejaVuSans-73"/>
     <use x="213.085938" xlink:href="#DejaVuSans-74"/>
     <use x="252.294922" xlink:href="#DejaVuSans-65"/>
     <use x="313.818359" xlink:href="#DejaVuSans-72"/>
     <use x="354.931641" xlink:href="#DejaVuSans-20"/>
     <use x="386.71875" xlink:href="#DejaVuSans-31"/>
     <use x="450.341797" xlink:href="#DejaVuSans-32"/>
    </g>
   </g>
  </g>
 </g>
</svg>
