<?xml version="1.0" encoding="utf-8" standalone="no"?>
<!DOCTYPE svg PUBLIC "-//W3C//DTD SVG 1.1//EN"
  "http://www.w3.org/Graphics/SVG/1.1/DTD/svg11.dtd">
<!-- Created with matplotlib (http://matplotlib.org/) -->
<svg height="864pt" version="1.1" viewBox="0 0 1152 864" width="1152pt" xmlns="http://www.w3.org/2000/svg" xmlns:xlink="http://www.w3.org/1999/xlink">
 <defs>
  <style type="text/css">
*{stroke-linecap:butt;stroke-linejoin:round;}
  </style>
 </defs>
 <g id="figure_1">
  <g id="patch_1">
   <path d="M 0 864 
L 1152 864 
L 1152 0 
L 0 0 
z
" style="fill:#ffffff;"/>
  </g>
  <g id="axes_1">
   <g id="text_1">
    <!-- tuition -->
    <defs>
     <path d="M 18.3125 70.21875 
L 18.3125 54.6875 
L 36.8125 54.6875 
L 36.8125 47.703125 
L 18.3125 47.703125 
L 18.3125 18.015625 
Q 18.3125 11.328125 20.140625 9.421875 
Q 21.96875 7.515625 27.59375 7.515625 
L 36.8125 7.515625 
L 36.8125 0 
L 27.59375 0 
Q 17.1875 0 13.234375 3.875 
Q 9.28125 7.765625 9.28125 18.015625 
L 9.28125 47.703125 
L 2.6875 47.703125 
L 2.6875 54.6875 
L 9.28125 54.6875 
L 9.28125 70.21875 
z
" id="DejaVuSans-74"/>
     <path d="M 8.5 21.578125 
L 8.5 54.6875 
L 17.484375 54.6875 
L 17.484375 21.921875 
Q 17.484375 14.15625 20.5 10.265625 
Q 23.53125 6.390625 29.59375 6.390625 
Q 36.859375 6.390625 41.078125 11.03125 
Q 45.3125 15.671875 45.3125 23.6875 
L 45.3125 54.6875 
L 54.296875 54.6875 
L 54.296875 0 
L 45.3125 0 
L 45.3125 8.40625 
Q 42.046875 3.421875 37.71875 1 
Q 33.40625 -1.421875 27.6875 -1.421875 
Q 18.265625 -1.421875 13.375 4.4375 
Q 8.5 10.296875 8.5 21.578125 
M 31.109375 56 
z
" id="DejaVuSans-75"/>
     <path d="M 9.421875 54.6875 
L 18.40625 54.6875 
L 18.40625 0 
L 9.421875 0 
z
M 9.421875 75.984375 
L 18.40625 75.984375 
L 18.40625 64.59375 
L 9.421875 64.59375 
z
" id="DejaVuSans-69"/>
     <path d="M 30.609375 48.390625 
Q 23.390625 48.390625 19.1875 42.75 
Q 14.984375 37.109375 14.984375 27.296875 
Q 14.984375 17.484375 19.15625 11.84375 
Q 23.34375 6.203125 30.609375 6.203125 
Q 37.796875 6.203125 41.984375 11.859375 
Q 46.1875 17.53125 46.1875 27.296875 
Q 46.1875 37.015625 41.984375 42.703125 
Q 37.796875 48.390625 30.609375 48.390625 
M 30.609375 56 
Q 42.328125 56 49.015625 48.375 
Q 55.71875 40.765625 55.71875 27.296875 
Q 55.71875 13.875 49.015625 6.21875 
Q 42.328125 -1.421875 30.609375 -1.421875 
Q 18.84375 -1.421875 12.171875 6.21875 
Q 5.515625 13.875 5.515625 27.296875 
Q 5.515625 40.765625 12.171875 48.375 
Q 18.84375 56 30.609375 56 
" id="DejaVuSans-6f"/>
     <path d="M 54.890625 33.015625 
L 54.890625 0 
L 45.90625 0 
L 45.90625 32.71875 
Q 45.90625 40.484375 42.875 44.328125 
Q 39.84375 48.1875 33.796875 48.1875 
Q 26.515625 48.1875 22.3125 43.546875 
Q 18.109375 38.921875 18.109375 30.90625 
L 18.109375 0 
L 9.078125 0 
L 9.078125 54.6875 
L 18.109375 54.6875 
L 18.109375 46.1875 
Q 21.34375 51.125 25.703125 53.5625 
Q 30.078125 56 35.796875 56 
Q 45.21875 56 50.046875 50.171875 
Q 54.890625 44.34375 54.890625 33.015625 
" id="DejaVuSans-6e"/>
    </defs>
    <g transform="translate(672.952692 406.792085)scale(0.0579 -0.0579)">
     <use xlink:href="#DejaVuSans-74"/>
     <use x="39.208984" xlink:href="#DejaVuSans-75"/>
     <use x="102.587891" xlink:href="#DejaVuSans-69"/>
     <use x="130.371094" xlink:href="#DejaVuSans-74"/>
     <use x="169.580078" xlink:href="#DejaVuSans-69"/>
     <use x="197.363281" xlink:href="#DejaVuSans-6f"/>
     <use x="258.544922" xlink:href="#DejaVuSans-6e"/>
    </g>
   </g>
   <g id="text_2">
    <!-- students -->
    <defs>
     <path d="M 44.28125 53.078125 
L 44.28125 44.578125 
Q 40.484375 46.53125 36.375 47.5 
Q 32.28125 48.484375 27.875 48.484375 
Q 21.1875 48.484375 17.84375 46.4375 
Q 14.5 44.390625 14.5 40.28125 
Q 14.5 37.15625 16.890625 35.375 
Q 19.28125 33.59375 26.515625 31.984375 
L 29.59375 31.296875 
Q 39.15625 29.25 43.1875 25.515625 
Q 47.21875 21.78125 47.21875 15.09375 
Q 47.21875 7.46875 41.1875 3.015625 
Q 35.15625 -1.421875 24.609375 -1.421875 
Q 20.21875 -1.421875 15.453125 -0.5625 
Q 10.6875 0.296875 5.421875 2 
L 5.421875 11.28125 
Q 10.40625 8.6875 15.234375 7.390625 
Q 20.0625 6.109375 24.8125 6.109375 
Q 31.15625 6.109375 34.5625 8.28125 
Q 37.984375 10.453125 37.984375 14.40625 
Q 37.984375 18.0625 35.515625 20.015625 
Q 33.0625 21.96875 24.703125 23.78125 
L 21.578125 24.515625 
Q 13.234375 26.265625 9.515625 29.90625 
Q 5.8125 33.546875 5.8125 39.890625 
Q 5.8125 47.609375 11.28125 51.796875 
Q 16.75 56 26.8125 56 
Q 31.78125 56 36.171875 55.265625 
Q 40.578125 54.546875 44.28125 53.078125 
" id="DejaVuSans-73"/>
     <path d="M 45.40625 46.390625 
L 45.40625 75.984375 
L 54.390625 75.984375 
L 54.390625 0 
L 45.40625 0 
L 45.40625 8.203125 
Q 42.578125 3.328125 38.25 0.953125 
Q 33.9375 -1.421875 27.875 -1.421875 
Q 17.96875 -1.421875 11.734375 6.484375 
Q 5.515625 14.40625 5.515625 27.296875 
Q 5.515625 40.1875 11.734375 48.09375 
Q 17.96875 56 27.875 56 
Q 33.9375 56 38.25 53.625 
Q 42.578125 51.265625 45.40625 46.390625 
M 14.796875 27.296875 
Q 14.796875 17.390625 18.875 11.75 
Q 22.953125 6.109375 30.078125 6.109375 
Q 37.203125 6.109375 41.296875 11.75 
Q 45.40625 17.390625 45.40625 27.296875 
Q 45.40625 37.203125 41.296875 42.84375 
Q 37.203125 48.484375 30.078125 48.484375 
Q 22.953125 48.484375 18.875 42.84375 
Q 14.796875 37.203125 14.796875 27.296875 
" id="DejaVuSans-64"/>
     <path d="M 56.203125 29.59375 
L 56.203125 25.203125 
L 14.890625 25.203125 
Q 15.484375 15.921875 20.484375 11.0625 
Q 25.484375 6.203125 34.421875 6.203125 
Q 39.59375 6.203125 44.453125 7.46875 
Q 49.3125 8.734375 54.109375 11.28125 
L 54.109375 2.78125 
Q 49.265625 0.734375 44.1875 -0.34375 
Q 39.109375 -1.421875 33.890625 -1.421875 
Q 20.796875 -1.421875 13.15625 6.1875 
Q 5.515625 13.8125 5.515625 26.8125 
Q 5.515625 40.234375 12.765625 48.109375 
Q 20.015625 56 32.328125 56 
Q 43.359375 56 49.78125 48.890625 
Q 56.203125 41.796875 56.203125 29.59375 
M 47.21875 32.234375 
Q 47.125 39.59375 43.09375 43.984375 
Q 39.0625 48.390625 32.421875 48.390625 
Q 24.90625 48.390625 20.390625 44.140625 
Q 15.875 39.890625 15.1875 32.171875 
z
" id="DejaVuSans-65"/>
    </defs>
    <g transform="translate(977.093046 328.18215)scale(0.0579 -0.0579)">
     <use xlink:href="#DejaVuSans-73"/>
     <use x="52.099609" xlink:href="#DejaVuSans-74"/>
     <use x="91.308594" xlink:href="#DejaVuSans-75"/>
     <use x="154.6875" xlink:href="#DejaVuSans-64"/>
     <use x="218.164062" xlink:href="#DejaVuSans-65"/>
     <use x="279.6875" xlink:href="#DejaVuSans-6e"/>
     <use x="343.066406" xlink:href="#DejaVuSans-74"/>
     <use x="382.275391" xlink:href="#DejaVuSans-73"/>
    </g>
   </g>
   <g id="text_3">
    <!-- nurses -->
    <defs>
     <path d="M 41.109375 46.296875 
Q 39.59375 47.171875 37.8125 47.578125 
Q 36.03125 48 33.890625 48 
Q 26.265625 48 22.1875 43.046875 
Q 18.109375 38.09375 18.109375 28.8125 
L 18.109375 0 
L 9.078125 0 
L 9.078125 54.6875 
L 18.109375 54.6875 
L 18.109375 46.1875 
Q 20.953125 51.171875 25.484375 53.578125 
Q 30.03125 56 36.53125 56 
Q 37.453125 56 38.578125 55.875 
Q 39.703125 55.765625 41.0625 55.515625 
z
" id="DejaVuSans-72"/>
    </defs>
    <g transform="translate(732.735981 489.798404)scale(0.0579 -0.0579)">
     <use xlink:href="#DejaVuSans-6e"/>
     <use x="63.378906" xlink:href="#DejaVuSans-75"/>
     <use x="126.757812" xlink:href="#DejaVuSans-72"/>
     <use x="167.871094" xlink:href="#DejaVuSans-73"/>
     <use x="219.970703" xlink:href="#DejaVuSans-65"/>
     <use x="281.494141" xlink:href="#DejaVuSans-73"/>
    </g>
   </g>
   <g id="text_4">
    <!-- reduced -->
    <defs>
     <path d="M 48.78125 52.59375 
L 48.78125 44.1875 
Q 44.96875 46.296875 41.140625 47.34375 
Q 37.3125 48.390625 33.40625 48.390625 
Q 24.65625 48.390625 19.8125 42.84375 
Q 14.984375 37.3125 14.984375 27.296875 
Q 14.984375 17.28125 19.8125 11.734375 
Q 24.65625 6.203125 33.40625 6.203125 
Q 37.3125 6.203125 41.140625 7.25 
Q 44.96875 8.296875 48.78125 10.40625 
L 48.78125 2.09375 
Q 45.015625 0.34375 40.984375 -0.53125 
Q 36.96875 -1.421875 32.421875 -1.421875 
Q 20.0625 -1.421875 12.78125 6.34375 
Q 5.515625 14.109375 5.515625 27.296875 
Q 5.515625 40.671875 12.859375 48.328125 
Q 20.21875 56 33.015625 56 
Q 37.15625 56 41.109375 55.140625 
Q 45.0625 54.296875 48.78125 52.59375 
" id="DejaVuSans-63"/>
    </defs>
    <g transform="translate(756.39851 449.089974)scale(0.0579 -0.0579)">
     <use xlink:href="#DejaVuSans-72"/>
     <use x="41.082031" xlink:href="#DejaVuSans-65"/>
     <use x="102.605469" xlink:href="#DejaVuSans-64"/>
     <use x="166.082031" xlink:href="#DejaVuSans-75"/>
     <use x="229.460938" xlink:href="#DejaVuSans-63"/>
     <use x="284.441406" xlink:href="#DejaVuSans-65"/>
     <use x="345.964844" xlink:href="#DejaVuSans-64"/>
    </g>
   </g>
   <g id="text_5">
    <!-- cents -->
    <g transform="translate(625.942755 465.187018)scale(0.0579 -0.0579)">
     <use xlink:href="#DejaVuSans-63"/>
     <use x="54.980469" xlink:href="#DejaVuSans-65"/>
     <use x="116.503906" xlink:href="#DejaVuSans-6e"/>
     <use x="179.882812" xlink:href="#DejaVuSans-74"/>
     <use x="219.091797" xlink:href="#DejaVuSans-73"/>
    </g>
   </g>
   <g id="text_6">
    <!-- grow -->
    <defs>
     <path d="M 45.40625 27.984375 
Q 45.40625 37.75 41.375 43.109375 
Q 37.359375 48.484375 30.078125 48.484375 
Q 22.859375 48.484375 18.828125 43.109375 
Q 14.796875 37.75 14.796875 27.984375 
Q 14.796875 18.265625 18.828125 12.890625 
Q 22.859375 7.515625 30.078125 7.515625 
Q 37.359375 7.515625 41.375 12.890625 
Q 45.40625 18.265625 45.40625 27.984375 
M 54.390625 6.78125 
Q 54.390625 -7.171875 48.1875 -13.984375 
Q 42 -20.796875 29.203125 -20.796875 
Q 24.46875 -20.796875 20.265625 -20.09375 
Q 16.0625 -19.390625 12.109375 -17.921875 
L 12.109375 -9.1875 
Q 16.0625 -11.328125 19.921875 -12.34375 
Q 23.78125 -13.375 27.78125 -13.375 
Q 36.625 -13.375 41.015625 -8.765625 
Q 45.40625 -4.15625 45.40625 5.171875 
L 45.40625 9.625 
Q 42.625 4.78125 38.28125 2.390625 
Q 33.9375 0 27.875 0 
Q 17.828125 0 11.671875 7.65625 
Q 5.515625 15.328125 5.515625 27.984375 
Q 5.515625 40.671875 11.671875 48.328125 
Q 17.828125 56 27.875 56 
Q 33.9375 56 38.28125 53.609375 
Q 42.625 51.21875 45.40625 46.390625 
L 45.40625 54.6875 
L 54.390625 54.6875 
z
" id="DejaVuSans-67"/>
     <path d="M 4.203125 54.6875 
L 13.1875 54.6875 
L 24.421875 12.015625 
L 35.59375 54.6875 
L 46.1875 54.6875 
L 57.421875 12.015625 
L 68.609375 54.6875 
L 77.59375 54.6875 
L 63.28125 0 
L 52.6875 0 
L 40.921875 44.828125 
L 29.109375 0 
L 18.5 0 
z
" id="DejaVuSans-77"/>
    </defs>
    <g transform="translate(901.866476 382.31983)scale(0.0579 -0.0579)">
     <use xlink:href="#DejaVuSans-67"/>
     <use x="63.476562" xlink:href="#DejaVuSans-72"/>
     <use x="104.558594" xlink:href="#DejaVuSans-6f"/>
     <use x="165.740234" xlink:href="#DejaVuSans-77"/>
    </g>
   </g>
   <g id="text_7">
    <!-- earn -->
    <defs>
     <path d="M 34.28125 27.484375 
Q 23.390625 27.484375 19.1875 25 
Q 14.984375 22.515625 14.984375 16.5 
Q 14.984375 11.71875 18.140625 8.90625 
Q 21.296875 6.109375 26.703125 6.109375 
Q 34.1875 6.109375 38.703125 11.40625 
Q 43.21875 16.703125 43.21875 25.484375 
L 43.21875 27.484375 
z
M 52.203125 31.203125 
L 52.203125 0 
L 43.21875 0 
L 43.21875 8.296875 
Q 40.140625 3.328125 35.546875 0.953125 
Q 30.953125 -1.421875 24.3125 -1.421875 
Q 15.921875 -1.421875 10.953125 3.296875 
Q 6 8.015625 6 15.921875 
Q 6 25.140625 12.171875 29.828125 
Q 18.359375 34.515625 30.609375 34.515625 
L 43.21875 34.515625 
L 43.21875 35.40625 
Q 43.21875 41.609375 39.140625 45 
Q 35.0625 48.390625 27.6875 48.390625 
Q 23 48.390625 18.546875 47.265625 
Q 14.109375 46.140625 10.015625 43.890625 
L 10.015625 52.203125 
Q 14.9375 54.109375 19.578125 55.046875 
Q 24.21875 56 28.609375 56 
Q 40.484375 56 46.34375 49.84375 
Q 52.203125 43.703125 52.203125 31.203125 
" id="DejaVuSans-61"/>
    </defs>
    <g transform="translate(566.790368 459.430378)scale(0.0579 -0.0579)">
     <use xlink:href="#DejaVuSans-65"/>
     <use x="61.523438" xlink:href="#DejaVuSans-61"/>
     <use x="122.802734" xlink:href="#DejaVuSans-72"/>
     <use x="163.900391" xlink:href="#DejaVuSans-6e"/>
    </g>
   </g>
   <g id="text_8">
    <!-- choose -->
    <defs>
     <path d="M 54.890625 33.015625 
L 54.890625 0 
L 45.90625 0 
L 45.90625 32.71875 
Q 45.90625 40.484375 42.875 44.328125 
Q 39.84375 48.1875 33.796875 48.1875 
Q 26.515625 48.1875 22.3125 43.546875 
Q 18.109375 38.921875 18.109375 30.90625 
L 18.109375 0 
L 9.078125 0 
L 9.078125 75.984375 
L 18.109375 75.984375 
L 18.109375 46.1875 
Q 21.34375 51.125 25.703125 53.5625 
Q 30.078125 56 35.796875 56 
Q 45.21875 56 50.046875 50.171875 
Q 54.890625 44.34375 54.890625 33.015625 
" id="DejaVuSans-68"/>
    </defs>
    <g transform="translate(508.326371 506.396937)scale(0.0579 -0.0579)">
     <use xlink:href="#DejaVuSans-63"/>
     <use x="54.980469" xlink:href="#DejaVuSans-68"/>
     <use x="118.359375" xlink:href="#DejaVuSans-6f"/>
     <use x="179.541016" xlink:href="#DejaVuSans-6f"/>
     <use x="240.722656" xlink:href="#DejaVuSans-73"/>
     <use x="292.822266" xlink:href="#DejaVuSans-65"/>
    </g>
   </g>
   <g id="text_9">
    <!-- available -->
    <defs>
     <path d="M 2.984375 54.6875 
L 12.5 54.6875 
L 29.59375 8.796875 
L 46.6875 54.6875 
L 56.203125 54.6875 
L 35.6875 0 
L 23.484375 0 
z
" id="DejaVuSans-76"/>
     <path d="M 9.421875 75.984375 
L 18.40625 75.984375 
L 18.40625 0 
L 9.421875 0 
z
" id="DejaVuSans-6c"/>
     <path d="M 48.6875 27.296875 
Q 48.6875 37.203125 44.609375 42.84375 
Q 40.53125 48.484375 33.40625 48.484375 
Q 26.265625 48.484375 22.1875 42.84375 
Q 18.109375 37.203125 18.109375 27.296875 
Q 18.109375 17.390625 22.1875 11.75 
Q 26.265625 6.109375 33.40625 6.109375 
Q 40.53125 6.109375 44.609375 11.75 
Q 48.6875 17.390625 48.6875 27.296875 
M 18.109375 46.390625 
Q 20.953125 51.265625 25.265625 53.625 
Q 29.59375 56 35.59375 56 
Q 45.5625 56 51.78125 48.09375 
Q 58.015625 40.1875 58.015625 27.296875 
Q 58.015625 14.40625 51.78125 6.484375 
Q 45.5625 -1.421875 35.59375 -1.421875 
Q 29.59375 -1.421875 25.265625 0.953125 
Q 20.953125 3.328125 18.109375 8.203125 
L 18.109375 0 
L 9.078125 0 
L 9.078125 75.984375 
L 18.109375 75.984375 
z
" id="DejaVuSans-62"/>
    </defs>
    <g transform="translate(666.955739 496.666539)scale(0.0579 -0.0579)">
     <use xlink:href="#DejaVuSans-61"/>
     <use x="61.279297" xlink:href="#DejaVuSans-76"/>
     <use x="120.458984" xlink:href="#DejaVuSans-61"/>
     <use x="181.738281" xlink:href="#DejaVuSans-69"/>
     <use x="209.521484" xlink:href="#DejaVuSans-6c"/>
     <use x="237.304688" xlink:href="#DejaVuSans-61"/>
     <use x="298.583984" xlink:href="#DejaVuSans-62"/>
     <use x="362.060547" xlink:href="#DejaVuSans-6c"/>
     <use x="389.84375" xlink:href="#DejaVuSans-65"/>
    </g>
   </g>
   <g id="text_10">
    <!-- reduce -->
    <g transform="translate(717.642147 517.019948)scale(0.0579 -0.0579)">
     <use xlink:href="#DejaVuSans-72"/>
     <use x="41.082031" xlink:href="#DejaVuSans-65"/>
     <use x="102.605469" xlink:href="#DejaVuSans-64"/>
     <use x="166.082031" xlink:href="#DejaVuSans-75"/>
     <use x="229.460938" xlink:href="#DejaVuSans-63"/>
     <use x="284.441406" xlink:href="#DejaVuSans-65"/>
    </g>
   </g>
   <g id="text_11">
    <!-- reduction -->
    <g transform="translate(1036.8 410.738916)scale(0.0579 -0.0579)">
     <use xlink:href="#DejaVuSans-72"/>
     <use x="41.082031" xlink:href="#DejaVuSans-65"/>
     <use x="102.605469" xlink:href="#DejaVuSans-64"/>
     <use x="166.082031" xlink:href="#DejaVuSans-75"/>
     <use x="229.460938" xlink:href="#DejaVuSans-63"/>
     <use x="284.441406" xlink:href="#DejaVuSans-74"/>
     <use x="323.650391" xlink:href="#DejaVuSans-69"/>
     <use x="351.433594" xlink:href="#DejaVuSans-6f"/>
     <use x="412.615234" xlink:href="#DejaVuSans-6e"/>
    </g>
   </g>
   <g id="text_12">
    <!-- teachers -->
    <g transform="translate(614.628387 543.305301)scale(0.0579 -0.0579)">
     <use xlink:href="#DejaVuSans-74"/>
     <use x="39.208984" xlink:href="#DejaVuSans-65"/>
     <use x="100.732422" xlink:href="#DejaVuSans-61"/>
     <use x="162.011719" xlink:href="#DejaVuSans-63"/>
     <use x="216.992188" xlink:href="#DejaVuSans-68"/>
     <use x="280.371094" xlink:href="#DejaVuSans-65"/>
     <use x="341.894531" xlink:href="#DejaVuSans-72"/>
     <use x="383.007812" xlink:href="#DejaVuSans-73"/>
    </g>
   </g>
   <g id="text_13">
    <!-- reforms -->
    <defs>
     <path d="M 37.109375 75.984375 
L 37.109375 68.5 
L 28.515625 68.5 
Q 23.6875 68.5 21.796875 66.546875 
Q 19.921875 64.59375 19.921875 59.515625 
L 19.921875 54.6875 
L 34.71875 54.6875 
L 34.71875 47.703125 
L 19.921875 47.703125 
L 19.921875 0 
L 10.890625 0 
L 10.890625 47.703125 
L 2.296875 47.703125 
L 2.296875 54.6875 
L 10.890625 54.6875 
L 10.890625 58.5 
Q 10.890625 67.625 15.140625 71.796875 
Q 19.390625 75.984375 28.609375 75.984375 
z
" id="DejaVuSans-66"/>
     <path d="M 52 44.1875 
Q 55.375 50.25 60.0625 53.125 
Q 64.75 56 71.09375 56 
Q 79.640625 56 84.28125 50.015625 
Q 88.921875 44.046875 88.921875 33.015625 
L 88.921875 0 
L 79.890625 0 
L 79.890625 32.71875 
Q 79.890625 40.578125 77.09375 44.375 
Q 74.3125 48.1875 68.609375 48.1875 
Q 61.625 48.1875 57.5625 43.546875 
Q 53.515625 38.921875 53.515625 30.90625 
L 53.515625 0 
L 44.484375 0 
L 44.484375 32.71875 
Q 44.484375 40.625 41.703125 44.40625 
Q 38.921875 48.1875 33.109375 48.1875 
Q 26.21875 48.1875 22.15625 43.53125 
Q 18.109375 38.875 18.109375 30.90625 
L 18.109375 0 
L 9.078125 0 
L 9.078125 54.6875 
L 18.109375 54.6875 
L 18.109375 46.1875 
Q 21.1875 51.21875 25.484375 53.609375 
Q 29.78125 56 35.6875 56 
Q 41.65625 56 45.828125 52.96875 
Q 50 49.953125 52 44.1875 
" id="DejaVuSans-6d"/>
    </defs>
    <g transform="translate(780.414571 471.565171)scale(0.0579 -0.0579)">
     <use xlink:href="#DejaVuSans-72"/>
     <use x="41.082031" xlink:href="#DejaVuSans-65"/>
     <use x="102.605469" xlink:href="#DejaVuSans-66"/>
     <use x="137.810547" xlink:href="#DejaVuSans-6f"/>
     <use x="198.992188" xlink:href="#DejaVuSans-72"/>
     <use x="240.089844" xlink:href="#DejaVuSans-6d"/>
     <use x="337.501953" xlink:href="#DejaVuSans-73"/>
    </g>
   </g>
   <g id="text_14">
    <!-- low-income -->
    <defs>
     <path d="M 4.890625 31.390625 
L 31.203125 31.390625 
L 31.203125 23.390625 
L 4.890625 23.390625 
z
" id="DejaVuSans-2d"/>
    </defs>
    <g transform="translate(611.74209 420.718469)scale(0.0579 -0.0579)">
     <use xlink:href="#DejaVuSans-6c"/>
     <use x="27.783203" xlink:href="#DejaVuSans-6f"/>
     <use x="88.964844" xlink:href="#DejaVuSans-77"/>
     <use x="170.751953" xlink:href="#DejaVuSans-2d"/>
     <use x="206.835938" xlink:href="#DejaVuSans-69"/>
     <use x="234.619141" xlink:href="#DejaVuSans-6e"/>
     <use x="297.998047" xlink:href="#DejaVuSans-63"/>
     <use x="352.978516" xlink:href="#DejaVuSans-6f"/>
     <use x="414.160156" xlink:href="#DejaVuSans-6d"/>
     <use x="511.572266" xlink:href="#DejaVuSans-65"/>
    </g>
   </g>
   <g id="text_15">
    <!-- nurses -->
    <g transform="translate(704.499085 441.250839)scale(0.0579 -0.0579)">
     <use xlink:href="#DejaVuSans-6e"/>
     <use x="63.378906" xlink:href="#DejaVuSans-75"/>
     <use x="126.757812" xlink:href="#DejaVuSans-72"/>
     <use x="167.871094" xlink:href="#DejaVuSans-73"/>
     <use x="219.970703" xlink:href="#DejaVuSans-65"/>
     <use x="281.494141" xlink:href="#DejaVuSans-73"/>
    </g>
   </g>
   <g id="text_16">
    <!-- act -->
    <g transform="translate(758.649499 545.092352)scale(0.0579 -0.0579)">
     <use xlink:href="#DejaVuSans-61"/>
     <use x="61.279297" xlink:href="#DejaVuSans-63"/>
     <use x="116.259766" xlink:href="#DejaVuSans-74"/>
    </g>
   </g>
   <g id="text_17">
    <!-- affordable -->
    <g transform="translate(545.350871 578.159627)scale(0.0579 -0.0579)">
     <use xlink:href="#DejaVuSans-61"/>
     <use x="61.279297" xlink:href="#DejaVuSans-66"/>
     <use x="96.484375" xlink:href="#DejaVuSans-66"/>
     <use x="131.689453" xlink:href="#DejaVuSans-6f"/>
     <use x="192.871094" xlink:href="#DejaVuSans-72"/>
     <use x="233.96875" xlink:href="#DejaVuSans-64"/>
     <use x="297.445312" xlink:href="#DejaVuSans-61"/>
     <use x="358.724609" xlink:href="#DejaVuSans-62"/>
     <use x="422.201172" xlink:href="#DejaVuSans-6c"/>
     <use x="449.984375" xlink:href="#DejaVuSans-65"/>
    </g>
   </g>
   <g id="text_18">
    <!-- grandchild -->
    <g transform="translate(573.278707 480.837375)scale(0.0579 -0.0579)">
     <use xlink:href="#DejaVuSans-67"/>
     <use x="63.476562" xlink:href="#DejaVuSans-72"/>
     <use x="104.589844" xlink:href="#DejaVuSans-61"/>
     <use x="165.869141" xlink:href="#DejaVuSans-6e"/>
     <use x="229.248047" xlink:href="#DejaVuSans-64"/>
     <use x="292.724609" xlink:href="#DejaVuSans-63"/>
     <use x="347.705078" xlink:href="#DejaVuSans-68"/>
     <use x="411.083984" xlink:href="#DejaVuSans-69"/>
     <use x="438.867188" xlink:href="#DejaVuSans-6c"/>
     <use x="466.650391" xlink:href="#DejaVuSans-64"/>
    </g>
   </g>
   <g id="text_19">
    <!-- parenthood -->
    <defs>
     <path d="M 18.109375 8.203125 
L 18.109375 -20.796875 
L 9.078125 -20.796875 
L 9.078125 54.6875 
L 18.109375 54.6875 
L 18.109375 46.390625 
Q 20.953125 51.265625 25.265625 53.625 
Q 29.59375 56 35.59375 56 
Q 45.5625 56 51.78125 48.09375 
Q 58.015625 40.1875 58.015625 27.296875 
Q 58.015625 14.40625 51.78125 6.484375 
Q 45.5625 -1.421875 35.59375 -1.421875 
Q 29.59375 -1.421875 25.265625 0.953125 
Q 20.953125 3.328125 18.109375 8.203125 
M 48.6875 27.296875 
Q 48.6875 37.203125 44.609375 42.84375 
Q 40.53125 48.484375 33.40625 48.484375 
Q 26.265625 48.484375 22.1875 42.84375 
Q 18.109375 37.203125 18.109375 27.296875 
Q 18.109375 17.390625 22.1875 11.75 
Q 26.265625 6.109375 33.40625 6.109375 
Q 40.53125 6.109375 44.609375 11.75 
Q 48.6875 17.390625 48.6875 27.296875 
" id="DejaVuSans-70"/>
    </defs>
    <g transform="translate(696.747875 507.505798)scale(0.0579 -0.0579)">
     <use xlink:href="#DejaVuSans-70"/>
     <use x="63.476562" xlink:href="#DejaVuSans-61"/>
     <use x="124.755859" xlink:href="#DejaVuSans-72"/>
     <use x="165.837891" xlink:href="#DejaVuSans-65"/>
     <use x="227.361328" xlink:href="#DejaVuSans-6e"/>
     <use x="290.740234" xlink:href="#DejaVuSans-74"/>
     <use x="329.949219" xlink:href="#DejaVuSans-68"/>
     <use x="393.328125" xlink:href="#DejaVuSans-6f"/>
     <use x="454.509766" xlink:href="#DejaVuSans-6f"/>
     <use x="515.691406" xlink:href="#DejaVuSans-64"/>
    </g>
   </g>
   <g id="text_20">
    <!-- charter -->
    <g transform="translate(653.916069 436.477165)scale(0.0579 -0.0579)">
     <use xlink:href="#DejaVuSans-63"/>
     <use x="54.980469" xlink:href="#DejaVuSans-68"/>
     <use x="118.359375" xlink:href="#DejaVuSans-61"/>
     <use x="179.638672" xlink:href="#DejaVuSans-72"/>
     <use x="220.751953" xlink:href="#DejaVuSans-74"/>
     <use x="259.960938" xlink:href="#DejaVuSans-65"/>
     <use x="321.484375" xlink:href="#DejaVuSans-72"/>
    </g>
   </g>
   <g id="text_21">
    <!-- solution -->
    <g transform="translate(802.089376 514.778423)scale(0.0579 -0.0579)">
     <use xlink:href="#DejaVuSans-73"/>
     <use x="52.099609" xlink:href="#DejaVuSans-6f"/>
     <use x="113.28125" xlink:href="#DejaVuSans-6c"/>
     <use x="141.064453" xlink:href="#DejaVuSans-75"/>
     <use x="204.443359" xlink:href="#DejaVuSans-74"/>
     <use x="243.652344" xlink:href="#DejaVuSans-69"/>
     <use x="271.435547" xlink:href="#DejaVuSans-6f"/>
     <use x="332.617188" xlink:href="#DejaVuSans-6e"/>
    </g>
   </g>
   <g id="text_22">
    <!-- choices -->
    <g transform="translate(715.016827 416.191673)scale(0.0579 -0.0579)">
     <use xlink:href="#DejaVuSans-63"/>
     <use x="54.980469" xlink:href="#DejaVuSans-68"/>
     <use x="118.359375" xlink:href="#DejaVuSans-6f"/>
     <use x="179.541016" xlink:href="#DejaVuSans-69"/>
     <use x="207.324219" xlink:href="#DejaVuSans-63"/>
     <use x="262.304688" xlink:href="#DejaVuSans-65"/>
     <use x="323.828125" xlink:href="#DejaVuSans-73"/>
    </g>
   </g>
   <g id="text_23">
    <!-- options -->
    <g transform="translate(840.345374 503.359857)scale(0.0579 -0.0579)">
     <use xlink:href="#DejaVuSans-6f"/>
     <use x="61.181641" xlink:href="#DejaVuSans-70"/>
     <use x="124.658203" xlink:href="#DejaVuSans-74"/>
     <use x="163.867188" xlink:href="#DejaVuSans-69"/>
     <use x="191.650391" xlink:href="#DejaVuSans-6f"/>
     <use x="252.832031" xlink:href="#DejaVuSans-6e"/>
     <use x="316.210938" xlink:href="#DejaVuSans-73"/>
    </g>
   </g>
   <g id="text_24">
    <!-- kids -->
    <defs>
     <path d="M 9.078125 75.984375 
L 18.109375 75.984375 
L 18.109375 31.109375 
L 44.921875 54.6875 
L 56.390625 54.6875 
L 27.390625 29.109375 
L 57.625 0 
L 45.90625 0 
L 18.109375 26.703125 
L 18.109375 0 
L 9.078125 0 
z
" id="DejaVuSans-6b"/>
    </defs>
    <g transform="translate(734.40767 559.916238)scale(0.0579 -0.0579)">
     <use xlink:href="#DejaVuSans-6b"/>
     <use x="57.910156" xlink:href="#DejaVuSans-69"/>
     <use x="85.693359" xlink:href="#DejaVuSans-64"/>
     <use x="149.169922" xlink:href="#DejaVuSans-73"/>
    </g>
   </g>
   <g id="text_25">
    <!-- raise -->
    <g transform="translate(679.901235 559.486556)scale(0.0579 -0.0579)">
     <use xlink:href="#DejaVuSans-72"/>
     <use x="41.113281" xlink:href="#DejaVuSans-61"/>
     <use x="102.392578" xlink:href="#DejaVuSans-69"/>
     <use x="130.175781" xlink:href="#DejaVuSans-73"/>
     <use x="182.275391" xlink:href="#DejaVuSans-65"/>
    </g>
   </g>
   <g id="text_26">
    <!-- dreams -->
    <g transform="translate(738.72694 533.972209)scale(0.0579 -0.0579)">
     <use xlink:href="#DejaVuSans-64"/>
     <use x="63.476562" xlink:href="#DejaVuSans-72"/>
     <use x="104.558594" xlink:href="#DejaVuSans-65"/>
     <use x="166.082031" xlink:href="#DejaVuSans-61"/>
     <use x="227.361328" xlink:href="#DejaVuSans-6d"/>
     <use x="324.773438" xlink:href="#DejaVuSans-73"/>
    </g>
   </g>
   <g id="text_27">
    <!-- mare -->
    <g transform="translate(686.514571 448.91418)scale(0.0579 -0.0579)">
     <use xlink:href="#DejaVuSans-6d"/>
     <use x="97.412109" xlink:href="#DejaVuSans-61"/>
     <use x="158.691406" xlink:href="#DejaVuSans-72"/>
     <use x="199.773438" xlink:href="#DejaVuSans-65"/>
    </g>
   </g>
   <g id="text_28">
    <!-- children's -->
    <defs>
     <path d="M 17.921875 72.90625 
L 17.921875 45.796875 
L 9.625 45.796875 
L 9.625 72.90625 
z
" id="DejaVuSans-27"/>
    </defs>
    <g transform="translate(656.579018 461.684841)scale(0.0579 -0.0579)">
     <use xlink:href="#DejaVuSans-63"/>
     <use x="54.980469" xlink:href="#DejaVuSans-68"/>
     <use x="118.359375" xlink:href="#DejaVuSans-69"/>
     <use x="146.142578" xlink:href="#DejaVuSans-6c"/>
     <use x="173.925781" xlink:href="#DejaVuSans-64"/>
     <use x="237.402344" xlink:href="#DejaVuSans-72"/>
     <use x="278.484375" xlink:href="#DejaVuSans-65"/>
     <use x="340.007812" xlink:href="#DejaVuSans-6e"/>
     <use x="403.386719" xlink:href="#DejaVuSans-27"/>
     <use x="430.876953" xlink:href="#DejaVuSans-73"/>
    </g>
   </g>
   <g id="text_29">
    <!-- fund -->
    <g transform="translate(668.715078 470.019206)scale(0.0579 -0.0579)">
     <use xlink:href="#DejaVuSans-66"/>
     <use x="35.205078" xlink:href="#DejaVuSans-75"/>
     <use x="98.583984" xlink:href="#DejaVuSans-6e"/>
     <use x="161.962891" xlink:href="#DejaVuSans-64"/>
    </g>
   </g>
   <g id="text_30">
    <!-- choose -->
    <g transform="translate(671.868887 425.637068)scale(0.0579 -0.0579)">
     <use xlink:href="#DejaVuSans-63"/>
     <use x="54.980469" xlink:href="#DejaVuSans-68"/>
     <use x="118.359375" xlink:href="#DejaVuSans-6f"/>
     <use x="179.541016" xlink:href="#DejaVuSans-6f"/>
     <use x="240.722656" xlink:href="#DejaVuSans-73"/>
     <use x="292.822266" xlink:href="#DejaVuSans-65"/>
    </g>
   </g>
   <g id="text_31">
    <!-- k- -->
    <g transform="translate(727.36801 459.814222)scale(0.0579 -0.0579)">
     <use xlink:href="#DejaVuSans-6b"/>
     <use x="57.910156" xlink:href="#DejaVuSans-2d"/>
    </g>
   </g>
   <g id="text_32">
    <!-- charter -->
    <g transform="translate(629.489675 436.284957)scale(0.0579 -0.0579)">
     <use xlink:href="#DejaVuSans-63"/>
     <use x="54.980469" xlink:href="#DejaVuSans-68"/>
     <use x="118.359375" xlink:href="#DejaVuSans-61"/>
     <use x="179.638672" xlink:href="#DejaVuSans-72"/>
     <use x="220.751953" xlink:href="#DejaVuSans-74"/>
     <use x="259.960938" xlink:href="#DejaVuSans-65"/>
     <use x="321.484375" xlink:href="#DejaVuSans-72"/>
    </g>
   </g>
   <g id="text_33">
    <!-- working-class -->
    <g transform="translate(144 768.96)scale(0.0579 -0.0579)">
     <use xlink:href="#DejaVuSans-77"/>
     <use x="81.787109" xlink:href="#DejaVuSans-6f"/>
     <use x="142.96875" xlink:href="#DejaVuSans-72"/>
     <use x="184.082031" xlink:href="#DejaVuSans-6b"/>
     <use x="241.992188" xlink:href="#DejaVuSans-69"/>
     <use x="269.775391" xlink:href="#DejaVuSans-6e"/>
     <use x="333.154297" xlink:href="#DejaVuSans-67"/>
     <use x="396.630859" xlink:href="#DejaVuSans-2d"/>
     <use x="432.714844" xlink:href="#DejaVuSans-63"/>
     <use x="487.695312" xlink:href="#DejaVuSans-6c"/>
     <use x="515.478516" xlink:href="#DejaVuSans-61"/>
     <use x="576.757812" xlink:href="#DejaVuSans-73"/>
     <use x="628.857422" xlink:href="#DejaVuSans-73"/>
    </g>
   </g>
   <g id="text_34">
    <!-- insurers -->
    <g transform="translate(740.14393 480.495002)scale(0.0579 -0.0579)">
     <use xlink:href="#DejaVuSans-69"/>
     <use x="27.783203" xlink:href="#DejaVuSans-6e"/>
     <use x="91.162109" xlink:href="#DejaVuSans-73"/>
     <use x="143.261719" xlink:href="#DejaVuSans-75"/>
     <use x="206.640625" xlink:href="#DejaVuSans-72"/>
     <use x="247.722656" xlink:href="#DejaVuSans-65"/>
     <use x="309.246094" xlink:href="#DejaVuSans-72"/>
     <use x="350.359375" xlink:href="#DejaVuSans-73"/>
    </g>
   </g>
   <g id="text_35">
    <!-- affordable -->
    <g transform="translate(557.637475 570.749905)scale(0.0579 -0.0579)">
     <use xlink:href="#DejaVuSans-61"/>
     <use x="61.279297" xlink:href="#DejaVuSans-66"/>
     <use x="96.484375" xlink:href="#DejaVuSans-66"/>
     <use x="131.689453" xlink:href="#DejaVuSans-6f"/>
     <use x="192.871094" xlink:href="#DejaVuSans-72"/>
     <use x="233.96875" xlink:href="#DejaVuSans-64"/>
     <use x="297.445312" xlink:href="#DejaVuSans-61"/>
     <use x="358.724609" xlink:href="#DejaVuSans-62"/>
     <use x="422.201172" xlink:href="#DejaVuSans-6c"/>
     <use x="449.984375" xlink:href="#DejaVuSans-65"/>
    </g>
   </g>
   <g id="text_36">
    <!-- parenthood -->
    <g transform="translate(666.366341 510.240366)scale(0.0579 -0.0579)">
     <use xlink:href="#DejaVuSans-70"/>
     <use x="63.476562" xlink:href="#DejaVuSans-61"/>
     <use x="124.755859" xlink:href="#DejaVuSans-72"/>
     <use x="165.837891" xlink:href="#DejaVuSans-65"/>
     <use x="227.361328" xlink:href="#DejaVuSans-6e"/>
     <use x="290.740234" xlink:href="#DejaVuSans-74"/>
     <use x="329.949219" xlink:href="#DejaVuSans-68"/>
     <use x="393.328125" xlink:href="#DejaVuSans-6f"/>
     <use x="454.509766" xlink:href="#DejaVuSans-6f"/>
     <use x="515.691406" xlink:href="#DejaVuSans-64"/>
    </g>
   </g>
   <g id="text_37">
    <!-- choices -->
    <g transform="translate(691.07055 419.853278)scale(0.0579 -0.0579)">
     <use xlink:href="#DejaVuSans-63"/>
     <use x="54.980469" xlink:href="#DejaVuSans-68"/>
     <use x="118.359375" xlink:href="#DejaVuSans-6f"/>
     <use x="179.541016" xlink:href="#DejaVuSans-69"/>
     <use x="207.324219" xlink:href="#DejaVuSans-63"/>
     <use x="262.304688" xlink:href="#DejaVuSans-65"/>
     <use x="323.828125" xlink:href="#DejaVuSans-73"/>
    </g>
   </g>
   <g id="text_38">
    <!-- earning -->
    <g transform="translate(603.356598 483.084809)scale(0.0579 -0.0579)">
     <use xlink:href="#DejaVuSans-65"/>
     <use x="61.523438" xlink:href="#DejaVuSans-61"/>
     <use x="122.802734" xlink:href="#DejaVuSans-72"/>
     <use x="163.900391" xlink:href="#DejaVuSans-6e"/>
     <use x="227.279297" xlink:href="#DejaVuSans-69"/>
     <use x="255.0625" xlink:href="#DejaVuSans-6e"/>
     <use x="318.441406" xlink:href="#DejaVuSans-67"/>
    </g>
   </g>
   <g id="text_39">
    <!-- account -->
    <g transform="translate(720.292544 651.761458)scale(0.0579 -0.0579)">
     <use xlink:href="#DejaVuSans-61"/>
     <use x="61.279297" xlink:href="#DejaVuSans-63"/>
     <use x="116.259766" xlink:href="#DejaVuSans-63"/>
     <use x="171.240234" xlink:href="#DejaVuSans-6f"/>
     <use x="232.421875" xlink:href="#DejaVuSans-75"/>
     <use x="295.800781" xlink:href="#DejaVuSans-6e"/>
     <use x="359.179688" xlink:href="#DejaVuSans-74"/>
    </g>
   </g>
   <g id="text_40">
    <!-- childcare -->
    <g transform="translate(596.485789 530.008306)scale(0.0579 -0.0579)">
     <use xlink:href="#DejaVuSans-63"/>
     <use x="54.980469" xlink:href="#DejaVuSans-68"/>
     <use x="118.359375" xlink:href="#DejaVuSans-69"/>
     <use x="146.142578" xlink:href="#DejaVuSans-6c"/>
     <use x="173.925781" xlink:href="#DejaVuSans-64"/>
     <use x="237.402344" xlink:href="#DejaVuSans-63"/>
     <use x="292.382812" xlink:href="#DejaVuSans-61"/>
     <use x="353.662109" xlink:href="#DejaVuSans-72"/>
     <use x="394.744141" xlink:href="#DejaVuSans-65"/>
    </g>
   </g>
   <g id="text_41">
    <!-- employers -->
    <defs>
     <path d="M 32.171875 -5.078125 
Q 28.375 -14.84375 24.75 -17.8125 
Q 21.140625 -20.796875 15.09375 -20.796875 
L 7.90625 -20.796875 
L 7.90625 -13.28125 
L 13.1875 -13.28125 
Q 16.890625 -13.28125 18.9375 -11.515625 
Q 21 -9.765625 23.484375 -3.21875 
L 25.09375 0.875 
L 2.984375 54.6875 
L 12.5 54.6875 
L 29.59375 11.921875 
L 46.6875 54.6875 
L 56.203125 54.6875 
z
" id="DejaVuSans-79"/>
    </defs>
    <g transform="translate(620.964192 518.496221)scale(0.0579 -0.0579)">
     <use xlink:href="#DejaVuSans-65"/>
     <use x="61.523438" xlink:href="#DejaVuSans-6d"/>
     <use x="158.935547" xlink:href="#DejaVuSans-70"/>
     <use x="222.412109" xlink:href="#DejaVuSans-6c"/>
     <use x="250.195312" xlink:href="#DejaVuSans-6f"/>
     <use x="311.376953" xlink:href="#DejaVuSans-79"/>
     <use x="370.556641" xlink:href="#DejaVuSans-65"/>
     <use x="432.080078" xlink:href="#DejaVuSans-72"/>
     <use x="473.193359" xlink:href="#DejaVuSans-73"/>
    </g>
   </g>
   <g id="text_42">
    <!-- savings -->
    <g transform="translate(753.767139 525.793148)scale(0.0579 -0.0579)">
     <use xlink:href="#DejaVuSans-73"/>
     <use x="52.099609" xlink:href="#DejaVuSans-61"/>
     <use x="113.378906" xlink:href="#DejaVuSans-76"/>
     <use x="172.558594" xlink:href="#DejaVuSans-69"/>
     <use x="200.341797" xlink:href="#DejaVuSans-6e"/>
     <use x="263.720703" xlink:href="#DejaVuSans-67"/>
     <use x="327.197266" xlink:href="#DejaVuSans-73"/>
    </g>
   </g>
   <g id="text_43">
    <!-- mothers -->
    <g transform="translate(585.828966 548.607236)scale(0.0579 -0.0579)">
     <use xlink:href="#DejaVuSans-6d"/>
     <use x="97.412109" xlink:href="#DejaVuSans-6f"/>
     <use x="158.59375" xlink:href="#DejaVuSans-74"/>
     <use x="197.802734" xlink:href="#DejaVuSans-68"/>
     <use x="261.181641" xlink:href="#DejaVuSans-65"/>
     <use x="322.705078" xlink:href="#DejaVuSans-72"/>
     <use x="363.818359" xlink:href="#DejaVuSans-73"/>
    </g>
   </g>
   <g id="text_44">
    <!-- solutions -->
    <g transform="translate(833.353905 637.937706)scale(0.0579 -0.0579)">
     <use xlink:href="#DejaVuSans-73"/>
     <use x="52.099609" xlink:href="#DejaVuSans-6f"/>
     <use x="113.28125" xlink:href="#DejaVuSans-6c"/>
     <use x="141.064453" xlink:href="#DejaVuSans-75"/>
     <use x="204.443359" xlink:href="#DejaVuSans-74"/>
     <use x="243.652344" xlink:href="#DejaVuSans-69"/>
     <use x="271.435547" xlink:href="#DejaVuSans-6f"/>
     <use x="332.617188" xlink:href="#DejaVuSans-6e"/>
     <use x="395.996094" xlink:href="#DejaVuSans-73"/>
    </g>
   </g>
   <g id="text_45">
    <!-- maternity -->
    <g transform="translate(619.423689 497.182168)scale(0.0579 -0.0579)">
     <use xlink:href="#DejaVuSans-6d"/>
     <use x="97.412109" xlink:href="#DejaVuSans-61"/>
     <use x="158.691406" xlink:href="#DejaVuSans-74"/>
     <use x="197.900391" xlink:href="#DejaVuSans-65"/>
     <use x="259.423828" xlink:href="#DejaVuSans-72"/>
     <use x="300.521484" xlink:href="#DejaVuSans-6e"/>
     <use x="363.900391" xlink:href="#DejaVuSans-69"/>
     <use x="391.683594" xlink:href="#DejaVuSans-74"/>
     <use x="430.892578" xlink:href="#DejaVuSans-79"/>
    </g>
   </g>
   <g id="text_46">
    <!-- accounts -->
    <g transform="translate(420.88469 415.072414)scale(0.0579 -0.0579)">
     <use xlink:href="#DejaVuSans-61"/>
     <use x="61.279297" xlink:href="#DejaVuSans-63"/>
     <use x="116.259766" xlink:href="#DejaVuSans-63"/>
     <use x="171.240234" xlink:href="#DejaVuSans-6f"/>
     <use x="232.421875" xlink:href="#DejaVuSans-75"/>
     <use x="295.800781" xlink:href="#DejaVuSans-6e"/>
     <use x="359.179688" xlink:href="#DejaVuSans-74"/>
     <use x="398.388672" xlink:href="#DejaVuSans-73"/>
    </g>
   </g>
   <g id="text_47">
    <!-- big-league -->
    <g transform="translate(755.605925 426.982549)scale(0.0579 -0.0579)">
     <use xlink:href="#DejaVuSans-62"/>
     <use x="63.476562" xlink:href="#DejaVuSans-69"/>
     <use x="91.259766" xlink:href="#DejaVuSans-67"/>
     <use x="154.736328" xlink:href="#DejaVuSans-2d"/>
     <use x="190.820312" xlink:href="#DejaVuSans-6c"/>
     <use x="218.603516" xlink:href="#DejaVuSans-65"/>
     <use x="280.126953" xlink:href="#DejaVuSans-61"/>
     <use x="341.40625" xlink:href="#DejaVuSans-67"/>
     <use x="404.882812" xlink:href="#DejaVuSans-75"/>
     <use x="468.261719" xlink:href="#DejaVuSans-65"/>
    </g>
   </g>
   <g id="text_48">
    <!-- parental -->
    <g transform="translate(706.92554 461.866148)scale(0.0579 -0.0579)">
     <use xlink:href="#DejaVuSans-70"/>
     <use x="63.476562" xlink:href="#DejaVuSans-61"/>
     <use x="124.755859" xlink:href="#DejaVuSans-72"/>
     <use x="165.837891" xlink:href="#DejaVuSans-65"/>
     <use x="227.361328" xlink:href="#DejaVuSans-6e"/>
     <use x="290.740234" xlink:href="#DejaVuSans-74"/>
     <use x="329.949219" xlink:href="#DejaVuSans-61"/>
     <use x="391.228516" xlink:href="#DejaVuSans-6c"/>
    </g>
   </g>
   <g id="text_49">
    <!-- childcare -->
    <g transform="translate(629.073159 554.483327)scale(0.0579 -0.0579)">
     <use xlink:href="#DejaVuSans-63"/>
     <use x="54.980469" xlink:href="#DejaVuSans-68"/>
     <use x="118.359375" xlink:href="#DejaVuSans-69"/>
     <use x="146.142578" xlink:href="#DejaVuSans-6c"/>
     <use x="173.925781" xlink:href="#DejaVuSans-64"/>
     <use x="237.402344" xlink:href="#DejaVuSans-63"/>
     <use x="292.382812" xlink:href="#DejaVuSans-61"/>
     <use x="353.662109" xlink:href="#DejaVuSans-72"/>
     <use x="394.744141" xlink:href="#DejaVuSans-65"/>
    </g>
   </g>
   <g id="text_50">
    <!-- employers -->
    <g transform="translate(306.270732 313.22349)scale(0.0579 -0.0579)">
     <use xlink:href="#DejaVuSans-65"/>
     <use x="61.523438" xlink:href="#DejaVuSans-6d"/>
     <use x="158.935547" xlink:href="#DejaVuSans-70"/>
     <use x="222.412109" xlink:href="#DejaVuSans-6c"/>
     <use x="250.195312" xlink:href="#DejaVuSans-6f"/>
     <use x="311.376953" xlink:href="#DejaVuSans-79"/>
     <use x="370.556641" xlink:href="#DejaVuSans-65"/>
     <use x="432.080078" xlink:href="#DejaVuSans-72"/>
     <use x="473.193359" xlink:href="#DejaVuSans-73"/>
    </g>
   </g>
   <g id="text_51">
    <!-- savings -->
    <g transform="translate(718.306475 535.529892)scale(0.0579 -0.0579)">
     <use xlink:href="#DejaVuSans-73"/>
     <use x="52.099609" xlink:href="#DejaVuSans-61"/>
     <use x="113.378906" xlink:href="#DejaVuSans-76"/>
     <use x="172.558594" xlink:href="#DejaVuSans-69"/>
     <use x="200.341797" xlink:href="#DejaVuSans-6e"/>
     <use x="263.720703" xlink:href="#DejaVuSans-67"/>
     <use x="327.197266" xlink:href="#DejaVuSans-73"/>
    </g>
   </g>
   <g id="text_52">
    <!-- mothers -->
    <g transform="translate(829.009204 103.68)scale(0.0579 -0.0579)">
     <use xlink:href="#DejaVuSans-6d"/>
     <use x="97.412109" xlink:href="#DejaVuSans-6f"/>
     <use x="158.59375" xlink:href="#DejaVuSans-74"/>
     <use x="197.802734" xlink:href="#DejaVuSans-68"/>
     <use x="261.181641" xlink:href="#DejaVuSans-65"/>
     <use x="322.705078" xlink:href="#DejaVuSans-72"/>
     <use x="363.818359" xlink:href="#DejaVuSans-73"/>
    </g>
   </g>
   <g id="text_53">
    <!-- solutions -->
    <g transform="translate(824.721276 519.703582)scale(0.0579 -0.0579)">
     <use xlink:href="#DejaVuSans-73"/>
     <use x="52.099609" xlink:href="#DejaVuSans-6f"/>
     <use x="113.28125" xlink:href="#DejaVuSans-6c"/>
     <use x="141.064453" xlink:href="#DejaVuSans-75"/>
     <use x="204.443359" xlink:href="#DejaVuSans-74"/>
     <use x="243.652344" xlink:href="#DejaVuSans-69"/>
     <use x="271.435547" xlink:href="#DejaVuSans-6f"/>
     <use x="332.617188" xlink:href="#DejaVuSans-6e"/>
     <use x="395.996094" xlink:href="#DejaVuSans-73"/>
    </g>
   </g>
   <g id="text_54">
    <!-- maternity -->
    <g transform="translate(608.755407 678.876549)scale(0.0579 -0.0579)">
     <use xlink:href="#DejaVuSans-6d"/>
     <use x="97.412109" xlink:href="#DejaVuSans-61"/>
     <use x="158.691406" xlink:href="#DejaVuSans-74"/>
     <use x="197.900391" xlink:href="#DejaVuSans-65"/>
     <use x="259.423828" xlink:href="#DejaVuSans-72"/>
     <use x="300.521484" xlink:href="#DejaVuSans-6e"/>
     <use x="363.900391" xlink:href="#DejaVuSans-69"/>
     <use x="391.683594" xlink:href="#DejaVuSans-74"/>
     <use x="430.892578" xlink:href="#DejaVuSans-79"/>
    </g>
   </g>
   <g id="text_55">
    <!-- income -->
    <g transform="translate(605.954258 412.721656)scale(0.0579 -0.0579)">
     <use xlink:href="#DejaVuSans-69"/>
     <use x="27.783203" xlink:href="#DejaVuSans-6e"/>
     <use x="91.162109" xlink:href="#DejaVuSans-63"/>
     <use x="146.142578" xlink:href="#DejaVuSans-6f"/>
     <use x="207.324219" xlink:href="#DejaVuSans-6d"/>
     <use x="304.736328" xlink:href="#DejaVuSans-65"/>
    </g>
   </g>
   <g id="text_56">
    <!-- affordable -->
    <g transform="translate(618.205471 583.034092)scale(0.0579 -0.0579)">
     <use xlink:href="#DejaVuSans-61"/>
     <use x="61.279297" xlink:href="#DejaVuSans-66"/>
     <use x="96.484375" xlink:href="#DejaVuSans-66"/>
     <use x="131.689453" xlink:href="#DejaVuSans-6f"/>
     <use x="192.871094" xlink:href="#DejaVuSans-72"/>
     <use x="233.96875" xlink:href="#DejaVuSans-64"/>
     <use x="297.445312" xlink:href="#DejaVuSans-61"/>
     <use x="358.724609" xlink:href="#DejaVuSans-62"/>
     <use x="422.201172" xlink:href="#DejaVuSans-6c"/>
     <use x="449.984375" xlink:href="#DejaVuSans-65"/>
    </g>
   </g>
   <g id="text_57">
    <!-- offer -->
    <g transform="translate(779.83947 498.74459)scale(0.0579 -0.0579)">
     <use xlink:href="#DejaVuSans-6f"/>
     <use x="61.181641" xlink:href="#DejaVuSans-66"/>
     <use x="96.386719" xlink:href="#DejaVuSans-66"/>
     <use x="131.591797" xlink:href="#DejaVuSans-65"/>
     <use x="193.115234" xlink:href="#DejaVuSans-72"/>
    </g>
   </g>
   <g id="text_58">
    <!-- healthcare -->
    <g transform="translate(805.085642 447.373835)scale(0.0579 -0.0579)">
     <use xlink:href="#DejaVuSans-68"/>
     <use x="63.378906" xlink:href="#DejaVuSans-65"/>
     <use x="124.902344" xlink:href="#DejaVuSans-61"/>
     <use x="186.181641" xlink:href="#DejaVuSans-6c"/>
     <use x="213.964844" xlink:href="#DejaVuSans-74"/>
     <use x="253.173828" xlink:href="#DejaVuSans-68"/>
     <use x="316.552734" xlink:href="#DejaVuSans-63"/>
     <use x="371.533203" xlink:href="#DejaVuSans-61"/>
     <use x="432.8125" xlink:href="#DejaVuSans-72"/>
     <use x="473.894531" xlink:href="#DejaVuSans-65"/>
    </g>
   </g>
   <g id="text_59">
    <!-- wage -->
    <g transform="translate(900.471356 304.578276)scale(0.0579 -0.0579)">
     <use xlink:href="#DejaVuSans-77"/>
     <use x="81.787109" xlink:href="#DejaVuSans-61"/>
     <use x="143.066406" xlink:href="#DejaVuSans-67"/>
     <use x="206.542969" xlink:href="#DejaVuSans-65"/>
    </g>
   </g>
   <g id="text_60">
    <!-- earn -->
    <g transform="translate(803.310184 482.299182)scale(0.0579 -0.0579)">
     <use xlink:href="#DejaVuSans-65"/>
     <use x="61.523438" xlink:href="#DejaVuSans-61"/>
     <use x="122.802734" xlink:href="#DejaVuSans-72"/>
     <use x="163.900391" xlink:href="#DejaVuSans-6e"/>
    </g>
   </g>
   <g id="text_61">
    <!-- tax-free -->
    <defs>
     <path d="M 54.890625 54.6875 
L 35.109375 28.078125 
L 55.90625 0 
L 45.3125 0 
L 29.390625 21.484375 
L 13.484375 0 
L 2.875 0 
L 24.125 28.609375 
L 4.6875 54.6875 
L 15.28125 54.6875 
L 29.78125 35.203125 
L 44.28125 54.6875 
z
" id="DejaVuSans-78"/>
    </defs>
    <g transform="translate(700.472859 487.675124)scale(0.0579 -0.0579)">
     <use xlink:href="#DejaVuSans-74"/>
     <use x="39.208984" xlink:href="#DejaVuSans-61"/>
     <use x="100.488281" xlink:href="#DejaVuSans-78"/>
     <use x="159.667969" xlink:href="#DejaVuSans-2d"/>
     <use x="195.751953" xlink:href="#DejaVuSans-66"/>
     <use x="230.957031" xlink:href="#DejaVuSans-72"/>
     <use x="272.039062" xlink:href="#DejaVuSans-65"/>
     <use x="333.5625" xlink:href="#DejaVuSans-65"/>
    </g>
   </g>
   <g id="text_62">
    <!-- act -->
    <g transform="translate(672.59091 533.28718)scale(0.0579 -0.0579)">
     <use xlink:href="#DejaVuSans-61"/>
     <use x="61.279297" xlink:href="#DejaVuSans-63"/>
     <use x="116.259766" xlink:href="#DejaVuSans-74"/>
    </g>
   </g>
   <g id="text_63">
    <!-- elder -->
    <g transform="translate(758.70958 493.74877)scale(0.0579 -0.0579)">
     <use xlink:href="#DejaVuSans-65"/>
     <use x="61.523438" xlink:href="#DejaVuSans-6c"/>
     <use x="89.306641" xlink:href="#DejaVuSans-64"/>
     <use x="152.783203" xlink:href="#DejaVuSans-65"/>
     <use x="214.306641" xlink:href="#DejaVuSans-72"/>
    </g>
   </g>
   <g id="text_64">
    <!-- insurers -->
    <g transform="translate(718.114989 476.712691)scale(0.0579 -0.0579)">
     <use xlink:href="#DejaVuSans-69"/>
     <use x="27.783203" xlink:href="#DejaVuSans-6e"/>
     <use x="91.162109" xlink:href="#DejaVuSans-73"/>
     <use x="143.261719" xlink:href="#DejaVuSans-75"/>
     <use x="206.640625" xlink:href="#DejaVuSans-72"/>
     <use x="247.722656" xlink:href="#DejaVuSans-65"/>
     <use x="309.246094" xlink:href="#DejaVuSans-72"/>
     <use x="350.359375" xlink:href="#DejaVuSans-73"/>
    </g>
   </g>
   <g id="text_65">
    <!-- affordable -->
    <g transform="translate(563.352698 580.154937)scale(0.0579 -0.0579)">
     <use xlink:href="#DejaVuSans-61"/>
     <use x="61.279297" xlink:href="#DejaVuSans-66"/>
     <use x="96.484375" xlink:href="#DejaVuSans-66"/>
     <use x="131.689453" xlink:href="#DejaVuSans-6f"/>
     <use x="192.871094" xlink:href="#DejaVuSans-72"/>
     <use x="233.96875" xlink:href="#DejaVuSans-64"/>
     <use x="297.445312" xlink:href="#DejaVuSans-61"/>
     <use x="358.724609" xlink:href="#DejaVuSans-62"/>
     <use x="422.201172" xlink:href="#DejaVuSans-6c"/>
     <use x="449.984375" xlink:href="#DejaVuSans-65"/>
    </g>
   </g>
   <g id="text_66">
    <!-- earn -->
    <g transform="translate(463.031749 423.828408)scale(0.0579 -0.0579)">
     <use xlink:href="#DejaVuSans-65"/>
     <use x="61.523438" xlink:href="#DejaVuSans-61"/>
     <use x="122.802734" xlink:href="#DejaVuSans-72"/>
     <use x="163.900391" xlink:href="#DejaVuSans-6e"/>
    </g>
   </g>
   <g id="text_67">
    <!-- $ -->
    <defs>
     <path d="M 33.796875 -14.703125 
L 28.90625 -14.703125 
L 28.859375 0 
Q 23.734375 0.09375 18.609375 1.1875 
Q 13.484375 2.296875 8.296875 4.5 
L 8.296875 13.28125 
Q 13.28125 10.15625 18.375 8.5625 
Q 23.484375 6.984375 28.90625 6.9375 
L 28.90625 29.203125 
Q 18.109375 30.953125 13.203125 35.15625 
Q 8.296875 39.359375 8.296875 46.6875 
Q 8.296875 54.640625 13.625 59.21875 
Q 18.953125 63.8125 28.90625 64.5 
L 28.90625 75.984375 
L 33.796875 75.984375 
L 33.796875 64.65625 
Q 38.328125 64.453125 42.578125 63.6875 
Q 46.828125 62.9375 50.875 61.625 
L 50.875 53.078125 
Q 46.828125 55.125 42.546875 56.25 
Q 38.28125 57.375 33.796875 57.5625 
L 33.796875 36.71875 
Q 44.875 35.015625 50.09375 30.609375 
Q 55.328125 26.21875 55.328125 18.609375 
Q 55.328125 10.359375 49.78125 5.59375 
Q 44.234375 0.828125 33.796875 0.09375 
z
M 28.90625 37.59375 
L 28.90625 57.625 
Q 23.25 56.984375 20.265625 54.390625 
Q 17.28125 51.8125 17.28125 47.515625 
Q 17.28125 43.3125 20.03125 40.96875 
Q 22.796875 38.625 28.90625 37.59375 
M 33.796875 28.21875 
L 33.796875 7.078125 
Q 39.984375 7.90625 43.140625 10.59375 
Q 46.296875 13.28125 46.296875 17.671875 
Q 46.296875 21.96875 43.28125 24.5 
Q 40.28125 27.046875 33.796875 28.21875 
" id="DejaVuSans-24"/>
    </defs>
    <g transform="translate(637.634523 477.069884)scale(0.0579 -0.0579)">
     <use xlink:href="#DejaVuSans-24"/>
    </g>
   </g>
   <g id="text_68">
    <!-- housing -->
    <g transform="translate(686.410209 475.184264)scale(0.0579 -0.0579)">
     <use xlink:href="#DejaVuSans-68"/>
     <use x="63.378906" xlink:href="#DejaVuSans-6f"/>
     <use x="124.560547" xlink:href="#DejaVuSans-75"/>
     <use x="187.939453" xlink:href="#DejaVuSans-73"/>
     <use x="240.039062" xlink:href="#DejaVuSans-69"/>
     <use x="267.822266" xlink:href="#DejaVuSans-6e"/>
     <use x="331.201172" xlink:href="#DejaVuSans-67"/>
    </g>
   </g>
   <g id="text_69">
    <!-- earning -->
    <g transform="translate(560.542523 495.458225)scale(0.0579 -0.0579)">
     <use xlink:href="#DejaVuSans-65"/>
     <use x="61.523438" xlink:href="#DejaVuSans-61"/>
     <use x="122.802734" xlink:href="#DejaVuSans-72"/>
     <use x="163.900391" xlink:href="#DejaVuSans-6e"/>
     <use x="227.279297" xlink:href="#DejaVuSans-69"/>
     <use x="255.0625" xlink:href="#DejaVuSans-6e"/>
     <use x="318.441406" xlink:href="#DejaVuSans-67"/>
    </g>
   </g>
   <g id="text_70">
    <!-- children's -->
    <g transform="translate(686.785759 520.624173)scale(0.0579 -0.0579)">
     <use xlink:href="#DejaVuSans-63"/>
     <use x="54.980469" xlink:href="#DejaVuSans-68"/>
     <use x="118.359375" xlink:href="#DejaVuSans-69"/>
     <use x="146.142578" xlink:href="#DejaVuSans-6c"/>
     <use x="173.925781" xlink:href="#DejaVuSans-64"/>
     <use x="237.402344" xlink:href="#DejaVuSans-72"/>
     <use x="278.484375" xlink:href="#DejaVuSans-65"/>
     <use x="340.007812" xlink:href="#DejaVuSans-6e"/>
     <use x="403.386719" xlink:href="#DejaVuSans-27"/>
     <use x="430.876953" xlink:href="#DejaVuSans-73"/>
    </g>
   </g>
   <g id="text_71">
    <!-- code -->
    <g transform="translate(715.948218 499.440112)scale(0.0579 -0.0579)">
     <use xlink:href="#DejaVuSans-63"/>
     <use x="54.980469" xlink:href="#DejaVuSans-6f"/>
     <use x="116.162109" xlink:href="#DejaVuSans-64"/>
     <use x="179.638672" xlink:href="#DejaVuSans-65"/>
    </g>
   </g>
   <g id="text_72">
    <!-- employers -->
    <g transform="translate(425.613124 622.999237)scale(0.0579 -0.0579)">
     <use xlink:href="#DejaVuSans-65"/>
     <use x="61.523438" xlink:href="#DejaVuSans-6d"/>
     <use x="158.935547" xlink:href="#DejaVuSans-70"/>
     <use x="222.412109" xlink:href="#DejaVuSans-6c"/>
     <use x="250.195312" xlink:href="#DejaVuSans-6f"/>
     <use x="311.376953" xlink:href="#DejaVuSans-79"/>
     <use x="370.556641" xlink:href="#DejaVuSans-65"/>
     <use x="432.080078" xlink:href="#DejaVuSans-72"/>
     <use x="473.193359" xlink:href="#DejaVuSans-73"/>
    </g>
   </g>
   <g id="text_73">
    <!-- childcare -->
    <g transform="translate(571.833559 523.508029)scale(0.0579 -0.0579)">
     <use xlink:href="#DejaVuSans-63"/>
     <use x="54.980469" xlink:href="#DejaVuSans-68"/>
     <use x="118.359375" xlink:href="#DejaVuSans-69"/>
     <use x="146.142578" xlink:href="#DejaVuSans-6c"/>
     <use x="173.925781" xlink:href="#DejaVuSans-64"/>
     <use x="237.402344" xlink:href="#DejaVuSans-63"/>
     <use x="292.382812" xlink:href="#DejaVuSans-61"/>
     <use x="353.662109" xlink:href="#DejaVuSans-72"/>
     <use x="394.744141" xlink:href="#DejaVuSans-65"/>
    </g>
   </g>
   <g id="text_74">
    <!-- savings -->
    <g transform="translate(546.049965 477.708654)scale(0.0579 -0.0579)">
     <use xlink:href="#DejaVuSans-73"/>
     <use x="52.099609" xlink:href="#DejaVuSans-61"/>
     <use x="113.378906" xlink:href="#DejaVuSans-76"/>
     <use x="172.558594" xlink:href="#DejaVuSans-69"/>
     <use x="200.341797" xlink:href="#DejaVuSans-6e"/>
     <use x="263.720703" xlink:href="#DejaVuSans-67"/>
     <use x="327.197266" xlink:href="#DejaVuSans-73"/>
    </g>
   </g>
   <g id="text_75">
    <!-- mothers -->
    <g transform="translate(401.413767 700.221894)scale(0.0579 -0.0579)">
     <use xlink:href="#DejaVuSans-6d"/>
     <use x="97.412109" xlink:href="#DejaVuSans-6f"/>
     <use x="158.59375" xlink:href="#DejaVuSans-74"/>
     <use x="197.802734" xlink:href="#DejaVuSans-68"/>
     <use x="261.181641" xlink:href="#DejaVuSans-65"/>
     <use x="322.705078" xlink:href="#DejaVuSans-72"/>
     <use x="363.818359" xlink:href="#DejaVuSans-73"/>
    </g>
   </g>
   <g id="text_76">
    <!-- solutions -->
    <g transform="translate(321.10533 526.834754)scale(0.0579 -0.0579)">
     <use xlink:href="#DejaVuSans-73"/>
     <use x="52.099609" xlink:href="#DejaVuSans-6f"/>
     <use x="113.28125" xlink:href="#DejaVuSans-6c"/>
     <use x="141.064453" xlink:href="#DejaVuSans-75"/>
     <use x="204.443359" xlink:href="#DejaVuSans-74"/>
     <use x="243.652344" xlink:href="#DejaVuSans-69"/>
     <use x="271.435547" xlink:href="#DejaVuSans-6f"/>
     <use x="332.617188" xlink:href="#DejaVuSans-6e"/>
     <use x="395.996094" xlink:href="#DejaVuSans-73"/>
    </g>
   </g>
   <g id="text_77">
    <!-- provide -->
    <g transform="translate(542.245663 420.658165)scale(0.0579 -0.0579)">
     <use xlink:href="#DejaVuSans-70"/>
     <use x="63.476562" xlink:href="#DejaVuSans-72"/>
     <use x="104.558594" xlink:href="#DejaVuSans-6f"/>
     <use x="165.740234" xlink:href="#DejaVuSans-76"/>
     <use x="224.919922" xlink:href="#DejaVuSans-69"/>
     <use x="252.703125" xlink:href="#DejaVuSans-64"/>
     <use x="316.179688" xlink:href="#DejaVuSans-65"/>
    </g>
   </g>
   <g id="text_78">
    <!-- employer -->
    <g transform="translate(590.264841 446.860937)scale(0.0579 -0.0579)">
     <use xlink:href="#DejaVuSans-65"/>
     <use x="61.523438" xlink:href="#DejaVuSans-6d"/>
     <use x="158.935547" xlink:href="#DejaVuSans-70"/>
     <use x="222.412109" xlink:href="#DejaVuSans-6c"/>
     <use x="250.195312" xlink:href="#DejaVuSans-6f"/>
     <use x="311.376953" xlink:href="#DejaVuSans-79"/>
     <use x="370.556641" xlink:href="#DejaVuSans-65"/>
     <use x="432.080078" xlink:href="#DejaVuSans-72"/>
    </g>
   </g>
   <g id="text_79">
    <!-- expense -->
    <g transform="translate(521.249165 488.113901)scale(0.0579 -0.0579)">
     <use xlink:href="#DejaVuSans-65"/>
     <use x="61.507812" xlink:href="#DejaVuSans-78"/>
     <use x="120.6875" xlink:href="#DejaVuSans-70"/>
     <use x="184.164062" xlink:href="#DejaVuSans-65"/>
     <use x="245.6875" xlink:href="#DejaVuSans-6e"/>
     <use x="309.066406" xlink:href="#DejaVuSans-73"/>
     <use x="361.166016" xlink:href="#DejaVuSans-65"/>
    </g>
   </g>
   <g id="text_80">
    <!-- ava -->
    <g transform="translate(539.954477 539.174217)scale(0.0579 -0.0579)">
     <use xlink:href="#DejaVuSans-61"/>
     <use x="61.279297" xlink:href="#DejaVuSans-76"/>
     <use x="120.458984" xlink:href="#DejaVuSans-61"/>
    </g>
   </g>
   <g id="text_81">
    <!-- ensure -->
    <g transform="translate(748.764722 469.161181)scale(0.0579 -0.0579)">
     <use xlink:href="#DejaVuSans-65"/>
     <use x="61.523438" xlink:href="#DejaVuSans-6e"/>
     <use x="124.902344" xlink:href="#DejaVuSans-73"/>
     <use x="177.001953" xlink:href="#DejaVuSans-75"/>
     <use x="240.380859" xlink:href="#DejaVuSans-72"/>
     <use x="281.462891" xlink:href="#DejaVuSans-65"/>
    </g>
   </g>
   <g id="text_82">
    <!-- parental -->
    <g transform="translate(533.115056 456.97558)scale(0.0579 -0.0579)">
     <use xlink:href="#DejaVuSans-70"/>
     <use x="63.476562" xlink:href="#DejaVuSans-61"/>
     <use x="124.755859" xlink:href="#DejaVuSans-72"/>
     <use x="165.837891" xlink:href="#DejaVuSans-65"/>
     <use x="227.361328" xlink:href="#DejaVuSans-6e"/>
     <use x="290.740234" xlink:href="#DejaVuSans-74"/>
     <use x="329.949219" xlink:href="#DejaVuSans-61"/>
     <use x="391.228516" xlink:href="#DejaVuSans-6c"/>
    </g>
   </g>
   <g id="text_83">
    <!-- reduction -->
    <g transform="translate(742.355009 509.629773)scale(0.0579 -0.0579)">
     <use xlink:href="#DejaVuSans-72"/>
     <use x="41.082031" xlink:href="#DejaVuSans-65"/>
     <use x="102.605469" xlink:href="#DejaVuSans-64"/>
     <use x="166.082031" xlink:href="#DejaVuSans-75"/>
     <use x="229.460938" xlink:href="#DejaVuSans-63"/>
     <use x="284.441406" xlink:href="#DejaVuSans-74"/>
     <use x="323.650391" xlink:href="#DejaVuSans-69"/>
     <use x="351.433594" xlink:href="#DejaVuSans-6f"/>
     <use x="412.615234" xlink:href="#DejaVuSans-6e"/>
    </g>
   </g>
   <g id="text_84">
    <!-- reduce -->
    <g transform="translate(747.411667 441.529299)scale(0.0579 -0.0579)">
     <use xlink:href="#DejaVuSans-72"/>
     <use x="41.082031" xlink:href="#DejaVuSans-65"/>
     <use x="102.605469" xlink:href="#DejaVuSans-64"/>
     <use x="166.082031" xlink:href="#DejaVuSans-75"/>
     <use x="229.460938" xlink:href="#DejaVuSans-63"/>
     <use x="284.441406" xlink:href="#DejaVuSans-65"/>
    </g>
   </g>
   <g id="text_85">
    <!-- earnings -->
    <g transform="translate(600.744661 469.942493)scale(0.0579 -0.0579)">
     <use xlink:href="#DejaVuSans-65"/>
     <use x="61.523438" xlink:href="#DejaVuSans-61"/>
     <use x="122.802734" xlink:href="#DejaVuSans-72"/>
     <use x="163.900391" xlink:href="#DejaVuSans-6e"/>
     <use x="227.279297" xlink:href="#DejaVuSans-69"/>
     <use x="255.0625" xlink:href="#DejaVuSans-6e"/>
     <use x="318.441406" xlink:href="#DejaVuSans-67"/>
     <use x="381.917969" xlink:href="#DejaVuSans-73"/>
    </g>
   </g>
   <g id="text_86">
    <!-- housing -->
    <g transform="translate(688.520902 463.983262)scale(0.0579 -0.0579)">
     <use xlink:href="#DejaVuSans-68"/>
     <use x="63.378906" xlink:href="#DejaVuSans-6f"/>
     <use x="124.560547" xlink:href="#DejaVuSans-75"/>
     <use x="187.939453" xlink:href="#DejaVuSans-73"/>
     <use x="240.039062" xlink:href="#DejaVuSans-69"/>
     <use x="267.822266" xlink:href="#DejaVuSans-6e"/>
     <use x="331.201172" xlink:href="#DejaVuSans-67"/>
    </g>
   </g>
   <g id="text_87">
    <!-- earning -->
    <g transform="translate(603.356598 483.084809)scale(0.0579 -0.0579)">
     <use xlink:href="#DejaVuSans-65"/>
     <use x="61.523438" xlink:href="#DejaVuSans-61"/>
     <use x="122.802734" xlink:href="#DejaVuSans-72"/>
     <use x="163.900391" xlink:href="#DejaVuSans-6e"/>
     <use x="227.279297" xlink:href="#DejaVuSans-69"/>
     <use x="255.0625" xlink:href="#DejaVuSans-6e"/>
     <use x="318.441406" xlink:href="#DejaVuSans-67"/>
    </g>
   </g>
   <g id="text_88">
    <!-- grow -->
    <g transform="translate(627.985117 451.189741)scale(0.0579 -0.0579)">
     <use xlink:href="#DejaVuSans-67"/>
     <use x="63.476562" xlink:href="#DejaVuSans-72"/>
     <use x="104.558594" xlink:href="#DejaVuSans-6f"/>
     <use x="165.740234" xlink:href="#DejaVuSans-77"/>
    </g>
   </g>
   <g id="text_89">
    <!-- solutions -->
    <g transform="translate(824.721276 519.703582)scale(0.0579 -0.0579)">
     <use xlink:href="#DejaVuSans-73"/>
     <use x="52.099609" xlink:href="#DejaVuSans-6f"/>
     <use x="113.28125" xlink:href="#DejaVuSans-6c"/>
     <use x="141.064453" xlink:href="#DejaVuSans-75"/>
     <use x="204.443359" xlink:href="#DejaVuSans-74"/>
     <use x="243.652344" xlink:href="#DejaVuSans-69"/>
     <use x="271.435547" xlink:href="#DejaVuSans-6f"/>
     <use x="332.617188" xlink:href="#DejaVuSans-6e"/>
     <use x="395.996094" xlink:href="#DejaVuSans-73"/>
    </g>
   </g>
   <g id="text_90">
    <!-- Cluster 15 -->
    <defs>
     <path d="M 64.40625 67.28125 
L 64.40625 56.890625 
Q 59.421875 61.53125 53.78125 63.8125 
Q 48.140625 66.109375 41.796875 66.109375 
Q 29.296875 66.109375 22.65625 58.46875 
Q 16.015625 50.828125 16.015625 36.375 
Q 16.015625 21.96875 22.65625 14.328125 
Q 29.296875 6.6875 41.796875 6.6875 
Q 48.140625 6.6875 53.78125 8.984375 
Q 59.421875 11.28125 64.40625 15.921875 
L 64.40625 5.609375 
Q 59.234375 2.09375 53.4375 0.328125 
Q 47.65625 -1.421875 41.21875 -1.421875 
Q 24.65625 -1.421875 15.125 8.703125 
Q 5.609375 18.84375 5.609375 36.375 
Q 5.609375 53.953125 15.125 64.078125 
Q 24.65625 74.21875 41.21875 74.21875 
Q 47.75 74.21875 53.53125 72.484375 
Q 59.328125 70.75 64.40625 67.28125 
" id="DejaVuSans-43"/>
     <path id="DejaVuSans-20"/>
     <path d="M 12.40625 8.296875 
L 28.515625 8.296875 
L 28.515625 63.921875 
L 10.984375 60.40625 
L 10.984375 69.390625 
L 28.421875 72.90625 
L 38.28125 72.90625 
L 38.28125 8.296875 
L 54.390625 8.296875 
L 54.390625 0 
L 12.40625 0 
z
" id="DejaVuSans-31"/>
     <path d="M 10.796875 72.90625 
L 49.515625 72.90625 
L 49.515625 64.59375 
L 19.828125 64.59375 
L 19.828125 46.734375 
Q 21.96875 47.46875 24.109375 47.828125 
Q 26.265625 48.1875 28.421875 48.1875 
Q 40.625 48.1875 47.75 41.5 
Q 54.890625 34.8125 54.890625 23.390625 
Q 54.890625 11.625 47.5625 5.09375 
Q 40.234375 -1.421875 26.90625 -1.421875 
Q 22.3125 -1.421875 17.546875 -0.640625 
Q 12.796875 0.140625 7.71875 1.703125 
L 7.71875 11.625 
Q 12.109375 9.234375 16.796875 8.0625 
Q 21.484375 6.890625 26.703125 6.890625 
Q 35.15625 6.890625 40.078125 11.328125 
Q 45.015625 15.765625 45.015625 23.390625 
Q 45.015625 31 40.078125 35.4375 
Q 35.15625 39.890625 26.703125 39.890625 
Q 22.75 39.890625 18.8125 39.015625 
Q 14.890625 38.140625 10.796875 36.28125 
z
" id="DejaVuSans-35"/>
    </defs>
    <g transform="translate(559.562812 97.68)scale(0.12 -0.12)">
     <use xlink:href="#DejaVuSans-43"/>
     <use x="69.824219" xlink:href="#DejaVuSans-6c"/>
     <use x="97.607422" xlink:href="#DejaVuSans-75"/>
     <use x="160.986328" xlink:href="#DejaVuSans-73"/>
     <use x="213.085938" xlink:href="#DejaVuSans-74"/>
     <use x="252.294922" xlink:href="#DejaVuSans-65"/>
     <use x="313.818359" xlink:href="#DejaVuSans-72"/>
     <use x="354.931641" xlink:href="#DejaVuSans-20"/>
     <use x="386.71875" xlink:href="#DejaVuSans-31"/>
     <use x="450.341797" xlink:href="#DejaVuSans-35"/>
    </g>
   </g>
  </g>
 </g>
</svg>
