<?xml version="1.0" encoding="utf-8" standalone="no"?>
<!DOCTYPE svg PUBLIC "-//W3C//DTD SVG 1.1//EN"
  "http://www.w3.org/Graphics/SVG/1.1/DTD/svg11.dtd">
<!-- Created with matplotlib (http://matplotlib.org/) -->
<svg height="864pt" version="1.1" viewBox="0 0 1152 864" width="1152pt" xmlns="http://www.w3.org/2000/svg" xmlns:xlink="http://www.w3.org/1999/xlink">
 <defs>
  <style type="text/css">
*{stroke-linecap:butt;stroke-linejoin:round;}
  </style>
 </defs>
 <g id="figure_1">
  <g id="patch_1">
   <path d="M 0 864 
L 1152 864 
L 1152 0 
L 0 0 
z
" style="fill:#ffffff;"/>
  </g>
  <g id="axes_1">
   <g id="text_1">
    <!-- staff -->
    <defs>
     <path d="M 44.28125 53.078125 
L 44.28125 44.578125 
Q 40.484375 46.53125 36.375 47.5 
Q 32.28125 48.484375 27.875 48.484375 
Q 21.1875 48.484375 17.84375 46.4375 
Q 14.5 44.390625 14.5 40.28125 
Q 14.5 37.15625 16.890625 35.375 
Q 19.28125 33.59375 26.515625 31.984375 
L 29.59375 31.296875 
Q 39.15625 29.25 43.1875 25.515625 
Q 47.21875 21.78125 47.21875 15.09375 
Q 47.21875 7.46875 41.1875 3.015625 
Q 35.15625 -1.421875 24.609375 -1.421875 
Q 20.21875 -1.421875 15.453125 -0.5625 
Q 10.6875 0.296875 5.421875 2 
L 5.421875 11.28125 
Q 10.40625 8.6875 15.234375 7.390625 
Q 20.0625 6.109375 24.8125 6.109375 
Q 31.15625 6.109375 34.5625 8.28125 
Q 37.984375 10.453125 37.984375 14.40625 
Q 37.984375 18.0625 35.515625 20.015625 
Q 33.0625 21.96875 24.703125 23.78125 
L 21.578125 24.515625 
Q 13.234375 26.265625 9.515625 29.90625 
Q 5.8125 33.546875 5.8125 39.890625 
Q 5.8125 47.609375 11.28125 51.796875 
Q 16.75 56 26.8125 56 
Q 31.78125 56 36.171875 55.265625 
Q 40.578125 54.546875 44.28125 53.078125 
" id="DejaVuSans-73"/>
     <path d="M 18.3125 70.21875 
L 18.3125 54.6875 
L 36.8125 54.6875 
L 36.8125 47.703125 
L 18.3125 47.703125 
L 18.3125 18.015625 
Q 18.3125 11.328125 20.140625 9.421875 
Q 21.96875 7.515625 27.59375 7.515625 
L 36.8125 7.515625 
L 36.8125 0 
L 27.59375 0 
Q 17.1875 0 13.234375 3.875 
Q 9.28125 7.765625 9.28125 18.015625 
L 9.28125 47.703125 
L 2.6875 47.703125 
L 2.6875 54.6875 
L 9.28125 54.6875 
L 9.28125 70.21875 
z
" id="DejaVuSans-74"/>
     <path d="M 34.28125 27.484375 
Q 23.390625 27.484375 19.1875 25 
Q 14.984375 22.515625 14.984375 16.5 
Q 14.984375 11.71875 18.140625 8.90625 
Q 21.296875 6.109375 26.703125 6.109375 
Q 34.1875 6.109375 38.703125 11.40625 
Q 43.21875 16.703125 43.21875 25.484375 
L 43.21875 27.484375 
z
M 52.203125 31.203125 
L 52.203125 0 
L 43.21875 0 
L 43.21875 8.296875 
Q 40.140625 3.328125 35.546875 0.953125 
Q 30.953125 -1.421875 24.3125 -1.421875 
Q 15.921875 -1.421875 10.953125 3.296875 
Q 6 8.015625 6 15.921875 
Q 6 25.140625 12.171875 29.828125 
Q 18.359375 34.515625 30.609375 34.515625 
L 43.21875 34.515625 
L 43.21875 35.40625 
Q 43.21875 41.609375 39.140625 45 
Q 35.0625 48.390625 27.6875 48.390625 
Q 23 48.390625 18.546875 47.265625 
Q 14.109375 46.140625 10.015625 43.890625 
L 10.015625 52.203125 
Q 14.9375 54.109375 19.578125 55.046875 
Q 24.21875 56 28.609375 56 
Q 40.484375 56 46.34375 49.84375 
Q 52.203125 43.703125 52.203125 31.203125 
" id="DejaVuSans-61"/>
     <path d="M 37.109375 75.984375 
L 37.109375 68.5 
L 28.515625 68.5 
Q 23.6875 68.5 21.796875 66.546875 
Q 19.921875 64.59375 19.921875 59.515625 
L 19.921875 54.6875 
L 34.71875 54.6875 
L 34.71875 47.703125 
L 19.921875 47.703125 
L 19.921875 0 
L 10.890625 0 
L 10.890625 47.703125 
L 2.296875 47.703125 
L 2.296875 54.6875 
L 10.890625 54.6875 
L 10.890625 58.5 
Q 10.890625 67.625 15.140625 71.796875 
Q 19.390625 75.984375 28.609375 75.984375 
z
" id="DejaVuSans-66"/>
    </defs>
    <g transform="translate(477.337384 385.406062)scale(0.07 -0.07)">
     <use xlink:href="#DejaVuSans-73"/>
     <use x="52.099609" xlink:href="#DejaVuSans-74"/>
     <use x="91.308594" xlink:href="#DejaVuSans-61"/>
     <use x="152.587891" xlink:href="#DejaVuSans-66"/>
     <use x="187.792969" xlink:href="#DejaVuSans-66"/>
    </g>
   </g>
   <g id="text_2">
    <!-- subpoena -->
    <defs>
     <path d="M 8.5 21.578125 
L 8.5 54.6875 
L 17.484375 54.6875 
L 17.484375 21.921875 
Q 17.484375 14.15625 20.5 10.265625 
Q 23.53125 6.390625 29.59375 6.390625 
Q 36.859375 6.390625 41.078125 11.03125 
Q 45.3125 15.671875 45.3125 23.6875 
L 45.3125 54.6875 
L 54.296875 54.6875 
L 54.296875 0 
L 45.3125 0 
L 45.3125 8.40625 
Q 42.046875 3.421875 37.71875 1 
Q 33.40625 -1.421875 27.6875 -1.421875 
Q 18.265625 -1.421875 13.375 4.4375 
Q 8.5 10.296875 8.5 21.578125 
M 31.109375 56 
z
" id="DejaVuSans-75"/>
     <path d="M 48.6875 27.296875 
Q 48.6875 37.203125 44.609375 42.84375 
Q 40.53125 48.484375 33.40625 48.484375 
Q 26.265625 48.484375 22.1875 42.84375 
Q 18.109375 37.203125 18.109375 27.296875 
Q 18.109375 17.390625 22.1875 11.75 
Q 26.265625 6.109375 33.40625 6.109375 
Q 40.53125 6.109375 44.609375 11.75 
Q 48.6875 17.390625 48.6875 27.296875 
M 18.109375 46.390625 
Q 20.953125 51.265625 25.265625 53.625 
Q 29.59375 56 35.59375 56 
Q 45.5625 56 51.78125 48.09375 
Q 58.015625 40.1875 58.015625 27.296875 
Q 58.015625 14.40625 51.78125 6.484375 
Q 45.5625 -1.421875 35.59375 -1.421875 
Q 29.59375 -1.421875 25.265625 0.953125 
Q 20.953125 3.328125 18.109375 8.203125 
L 18.109375 0 
L 9.078125 0 
L 9.078125 75.984375 
L 18.109375 75.984375 
z
" id="DejaVuSans-62"/>
     <path d="M 18.109375 8.203125 
L 18.109375 -20.796875 
L 9.078125 -20.796875 
L 9.078125 54.6875 
L 18.109375 54.6875 
L 18.109375 46.390625 
Q 20.953125 51.265625 25.265625 53.625 
Q 29.59375 56 35.59375 56 
Q 45.5625 56 51.78125 48.09375 
Q 58.015625 40.1875 58.015625 27.296875 
Q 58.015625 14.40625 51.78125 6.484375 
Q 45.5625 -1.421875 35.59375 -1.421875 
Q 29.59375 -1.421875 25.265625 0.953125 
Q 20.953125 3.328125 18.109375 8.203125 
M 48.6875 27.296875 
Q 48.6875 37.203125 44.609375 42.84375 
Q 40.53125 48.484375 33.40625 48.484375 
Q 26.265625 48.484375 22.1875 42.84375 
Q 18.109375 37.203125 18.109375 27.296875 
Q 18.109375 17.390625 22.1875 11.75 
Q 26.265625 6.109375 33.40625 6.109375 
Q 40.53125 6.109375 44.609375 11.75 
Q 48.6875 17.390625 48.6875 27.296875 
" id="DejaVuSans-70"/>
     <path d="M 30.609375 48.390625 
Q 23.390625 48.390625 19.1875 42.75 
Q 14.984375 37.109375 14.984375 27.296875 
Q 14.984375 17.484375 19.15625 11.84375 
Q 23.34375 6.203125 30.609375 6.203125 
Q 37.796875 6.203125 41.984375 11.859375 
Q 46.1875 17.53125 46.1875 27.296875 
Q 46.1875 37.015625 41.984375 42.703125 
Q 37.796875 48.390625 30.609375 48.390625 
M 30.609375 56 
Q 42.328125 56 49.015625 48.375 
Q 55.71875 40.765625 55.71875 27.296875 
Q 55.71875 13.875 49.015625 6.21875 
Q 42.328125 -1.421875 30.609375 -1.421875 
Q 18.84375 -1.421875 12.171875 6.21875 
Q 5.515625 13.875 5.515625 27.296875 
Q 5.515625 40.765625 12.171875 48.375 
Q 18.84375 56 30.609375 56 
" id="DejaVuSans-6f"/>
     <path d="M 56.203125 29.59375 
L 56.203125 25.203125 
L 14.890625 25.203125 
Q 15.484375 15.921875 20.484375 11.0625 
Q 25.484375 6.203125 34.421875 6.203125 
Q 39.59375 6.203125 44.453125 7.46875 
Q 49.3125 8.734375 54.109375 11.28125 
L 54.109375 2.78125 
Q 49.265625 0.734375 44.1875 -0.34375 
Q 39.109375 -1.421875 33.890625 -1.421875 
Q 20.796875 -1.421875 13.15625 6.1875 
Q 5.515625 13.8125 5.515625 26.8125 
Q 5.515625 40.234375 12.765625 48.109375 
Q 20.015625 56 32.328125 56 
Q 43.359375 56 49.78125 48.890625 
Q 56.203125 41.796875 56.203125 29.59375 
M 47.21875 32.234375 
Q 47.125 39.59375 43.09375 43.984375 
Q 39.0625 48.390625 32.421875 48.390625 
Q 24.90625 48.390625 20.390625 44.140625 
Q 15.875 39.890625 15.1875 32.171875 
z
" id="DejaVuSans-65"/>
     <path d="M 54.890625 33.015625 
L 54.890625 0 
L 45.90625 0 
L 45.90625 32.71875 
Q 45.90625 40.484375 42.875 44.328125 
Q 39.84375 48.1875 33.796875 48.1875 
Q 26.515625 48.1875 22.3125 43.546875 
Q 18.109375 38.921875 18.109375 30.90625 
L 18.109375 0 
L 9.078125 0 
L 9.078125 54.6875 
L 18.109375 54.6875 
L 18.109375 46.1875 
Q 21.34375 51.125 25.703125 53.5625 
Q 30.078125 56 35.796875 56 
Q 45.21875 56 50.046875 50.171875 
Q 54.890625 44.34375 54.890625 33.015625 
" id="DejaVuSans-6e"/>
    </defs>
    <g transform="translate(509.700635 399.486376)scale(0.07 -0.07)">
     <use xlink:href="#DejaVuSans-73"/>
     <use x="52.099609" xlink:href="#DejaVuSans-75"/>
     <use x="115.478516" xlink:href="#DejaVuSans-62"/>
     <use x="178.955078" xlink:href="#DejaVuSans-70"/>
     <use x="242.431641" xlink:href="#DejaVuSans-6f"/>
     <use x="303.613281" xlink:href="#DejaVuSans-65"/>
     <use x="365.136719" xlink:href="#DejaVuSans-6e"/>
     <use x="428.515625" xlink:href="#DejaVuSans-61"/>
    </g>
   </g>
   <g id="text_3">
    <!-- hamm -->
    <defs>
     <path d="M 54.890625 33.015625 
L 54.890625 0 
L 45.90625 0 
L 45.90625 32.71875 
Q 45.90625 40.484375 42.875 44.328125 
Q 39.84375 48.1875 33.796875 48.1875 
Q 26.515625 48.1875 22.3125 43.546875 
Q 18.109375 38.921875 18.109375 30.90625 
L 18.109375 0 
L 9.078125 0 
L 9.078125 75.984375 
L 18.109375 75.984375 
L 18.109375 46.1875 
Q 21.34375 51.125 25.703125 53.5625 
Q 30.078125 56 35.796875 56 
Q 45.21875 56 50.046875 50.171875 
Q 54.890625 44.34375 54.890625 33.015625 
" id="DejaVuSans-68"/>
     <path d="M 52 44.1875 
Q 55.375 50.25 60.0625 53.125 
Q 64.75 56 71.09375 56 
Q 79.640625 56 84.28125 50.015625 
Q 88.921875 44.046875 88.921875 33.015625 
L 88.921875 0 
L 79.890625 0 
L 79.890625 32.71875 
Q 79.890625 40.578125 77.09375 44.375 
Q 74.3125 48.1875 68.609375 48.1875 
Q 61.625 48.1875 57.5625 43.546875 
Q 53.515625 38.921875 53.515625 30.90625 
L 53.515625 0 
L 44.484375 0 
L 44.484375 32.71875 
Q 44.484375 40.625 41.703125 44.40625 
Q 38.921875 48.1875 33.109375 48.1875 
Q 26.21875 48.1875 22.15625 43.53125 
Q 18.109375 38.875 18.109375 30.90625 
L 18.109375 0 
L 9.078125 0 
L 9.078125 54.6875 
L 18.109375 54.6875 
L 18.109375 46.1875 
Q 21.1875 51.21875 25.484375 53.609375 
Q 29.78125 56 35.6875 56 
Q 41.65625 56 45.828125 52.96875 
Q 50 49.953125 52 44.1875 
" id="DejaVuSans-6d"/>
    </defs>
    <g transform="translate(878.67702 313.319413)scale(0.07 -0.07)">
     <use xlink:href="#DejaVuSans-68"/>
     <use x="63.378906" xlink:href="#DejaVuSans-61"/>
     <use x="124.658203" xlink:href="#DejaVuSans-6d"/>
     <use x="222.070312" xlink:href="#DejaVuSans-6d"/>
    </g>
   </g>
   <g id="text_4">
    <!-- file -->
    <defs>
     <path d="M 9.421875 54.6875 
L 18.40625 54.6875 
L 18.40625 0 
L 9.421875 0 
z
M 9.421875 75.984375 
L 18.40625 75.984375 
L 18.40625 64.59375 
L 9.421875 64.59375 
z
" id="DejaVuSans-69"/>
     <path d="M 9.421875 75.984375 
L 18.40625 75.984375 
L 18.40625 0 
L 9.421875 0 
z
" id="DejaVuSans-6c"/>
    </defs>
    <g transform="translate(734.97431 412.029877)scale(0.07 -0.07)">
     <use xlink:href="#DejaVuSans-66"/>
     <use x="35.205078" xlink:href="#DejaVuSans-69"/>
     <use x="62.988281" xlink:href="#DejaVuSans-6c"/>
     <use x="90.771484" xlink:href="#DejaVuSans-65"/>
    </g>
   </g>
   <g id="text_5">
    <!-- false -->
    <g transform="translate(572.152824 375.821659)scale(0.07 -0.07)">
     <use xlink:href="#DejaVuSans-66"/>
     <use x="35.205078" xlink:href="#DejaVuSans-61"/>
     <use x="96.484375" xlink:href="#DejaVuSans-6c"/>
     <use x="124.267578" xlink:href="#DejaVuSans-73"/>
     <use x="176.367188" xlink:href="#DejaVuSans-65"/>
    </g>
   </g>
   <g id="text_6">
    <!-- scammers -->
    <defs>
     <path d="M 48.78125 52.59375 
L 48.78125 44.1875 
Q 44.96875 46.296875 41.140625 47.34375 
Q 37.3125 48.390625 33.40625 48.390625 
Q 24.65625 48.390625 19.8125 42.84375 
Q 14.984375 37.3125 14.984375 27.296875 
Q 14.984375 17.28125 19.8125 11.734375 
Q 24.65625 6.203125 33.40625 6.203125 
Q 37.3125 6.203125 41.140625 7.25 
Q 44.96875 8.296875 48.78125 10.40625 
L 48.78125 2.09375 
Q 45.015625 0.34375 40.984375 -0.53125 
Q 36.96875 -1.421875 32.421875 -1.421875 
Q 20.0625 -1.421875 12.78125 6.34375 
Q 5.515625 14.109375 5.515625 27.296875 
Q 5.515625 40.671875 12.859375 48.328125 
Q 20.21875 56 33.015625 56 
Q 37.15625 56 41.109375 55.140625 
Q 45.0625 54.296875 48.78125 52.59375 
" id="DejaVuSans-63"/>
     <path d="M 41.109375 46.296875 
Q 39.59375 47.171875 37.8125 47.578125 
Q 36.03125 48 33.890625 48 
Q 26.265625 48 22.1875 43.046875 
Q 18.109375 38.09375 18.109375 28.8125 
L 18.109375 0 
L 9.078125 0 
L 9.078125 54.6875 
L 18.109375 54.6875 
L 18.109375 46.1875 
Q 20.953125 51.171875 25.484375 53.578125 
Q 30.03125 56 36.53125 56 
Q 37.453125 56 38.578125 55.875 
Q 39.703125 55.765625 41.0625 55.515625 
z
" id="DejaVuSans-72"/>
    </defs>
    <g transform="translate(586.858713 352.236362)scale(0.07 -0.07)">
     <use xlink:href="#DejaVuSans-73"/>
     <use x="52.099609" xlink:href="#DejaVuSans-63"/>
     <use x="107.080078" xlink:href="#DejaVuSans-61"/>
     <use x="168.359375" xlink:href="#DejaVuSans-6d"/>
     <use x="265.771484" xlink:href="#DejaVuSans-6d"/>
     <use x="363.183594" xlink:href="#DejaVuSans-65"/>
     <use x="424.707031" xlink:href="#DejaVuSans-72"/>
     <use x="465.820312" xlink:href="#DejaVuSans-73"/>
    </g>
   </g>
   <g id="text_7">
    <!-- deleted -->
    <defs>
     <path d="M 45.40625 46.390625 
L 45.40625 75.984375 
L 54.390625 75.984375 
L 54.390625 0 
L 45.40625 0 
L 45.40625 8.203125 
Q 42.578125 3.328125 38.25 0.953125 
Q 33.9375 -1.421875 27.875 -1.421875 
Q 17.96875 -1.421875 11.734375 6.484375 
Q 5.515625 14.40625 5.515625 27.296875 
Q 5.515625 40.1875 11.734375 48.09375 
Q 17.96875 56 27.875 56 
Q 33.9375 56 38.25 53.625 
Q 42.578125 51.265625 45.40625 46.390625 
M 14.796875 27.296875 
Q 14.796875 17.390625 18.875 11.75 
Q 22.953125 6.109375 30.078125 6.109375 
Q 37.203125 6.109375 41.296875 11.75 
Q 45.40625 17.390625 45.40625 27.296875 
Q 45.40625 37.203125 41.296875 42.84375 
Q 37.203125 48.484375 30.078125 48.484375 
Q 22.953125 48.484375 18.875 42.84375 
Q 14.796875 37.203125 14.796875 27.296875 
" id="DejaVuSans-64"/>
    </defs>
    <g transform="translate(639.090633 466.173022)scale(0.07 -0.07)">
     <use xlink:href="#DejaVuSans-64"/>
     <use x="63.476562" xlink:href="#DejaVuSans-65"/>
     <use x="125" xlink:href="#DejaVuSans-6c"/>
     <use x="152.783203" xlink:href="#DejaVuSans-65"/>
     <use x="214.306641" xlink:href="#DejaVuSans-74"/>
     <use x="253.515625" xlink:href="#DejaVuSans-65"/>
     <use x="315.039062" xlink:href="#DejaVuSans-64"/>
    </g>
   </g>
   <g id="text_8">
    <!-- ubs -->
    <g transform="translate(709.194534 432.800476)scale(0.07 -0.07)">
     <use xlink:href="#DejaVuSans-75"/>
     <use x="63.378906" xlink:href="#DejaVuSans-62"/>
     <use x="126.855469" xlink:href="#DejaVuSans-73"/>
    </g>
   </g>
   <g id="text_9">
    <!-- foundation -->
    <g transform="translate(476.866285 372.481878)scale(0.07 -0.07)">
     <use xlink:href="#DejaVuSans-66"/>
     <use x="35.205078" xlink:href="#DejaVuSans-6f"/>
     <use x="96.386719" xlink:href="#DejaVuSans-75"/>
     <use x="159.765625" xlink:href="#DejaVuSans-6e"/>
     <use x="223.144531" xlink:href="#DejaVuSans-64"/>
     <use x="286.621094" xlink:href="#DejaVuSans-61"/>
     <use x="347.900391" xlink:href="#DejaVuSans-74"/>
     <use x="387.109375" xlink:href="#DejaVuSans-69"/>
     <use x="414.892578" xlink:href="#DejaVuSans-6f"/>
     <use x="476.074219" xlink:href="#DejaVuSans-6e"/>
    </g>
   </g>
   <g id="text_10">
    <!-- wikileaks -->
    <defs>
     <path d="M 4.203125 54.6875 
L 13.1875 54.6875 
L 24.421875 12.015625 
L 35.59375 54.6875 
L 46.1875 54.6875 
L 57.421875 12.015625 
L 68.609375 54.6875 
L 77.59375 54.6875 
L 63.28125 0 
L 52.6875 0 
L 40.921875 44.828125 
L 29.109375 0 
L 18.5 0 
z
" id="DejaVuSans-77"/>
     <path d="M 9.078125 75.984375 
L 18.109375 75.984375 
L 18.109375 31.109375 
L 44.921875 54.6875 
L 56.390625 54.6875 
L 27.390625 29.109375 
L 57.625 0 
L 45.90625 0 
L 18.109375 26.703125 
L 18.109375 0 
L 9.078125 0 
z
" id="DejaVuSans-6b"/>
    </defs>
    <g transform="translate(858.634401 401.702595)scale(0.07 -0.07)">
     <use xlink:href="#DejaVuSans-77"/>
     <use x="81.787109" xlink:href="#DejaVuSans-69"/>
     <use x="109.570312" xlink:href="#DejaVuSans-6b"/>
     <use x="167.480469" xlink:href="#DejaVuSans-69"/>
     <use x="195.263672" xlink:href="#DejaVuSans-6c"/>
     <use x="223.046875" xlink:href="#DejaVuSans-65"/>
     <use x="284.570312" xlink:href="#DejaVuSans-61"/>
     <use x="345.849609" xlink:href="#DejaVuSans-6b"/>
     <use x="403.759766" xlink:href="#DejaVuSans-73"/>
    </g>
   </g>
   <g id="text_11">
    <!-- scandal -->
    <g transform="translate(453.001987 502.877429)scale(0.07 -0.07)">
     <use xlink:href="#DejaVuSans-73"/>
     <use x="52.099609" xlink:href="#DejaVuSans-63"/>
     <use x="107.080078" xlink:href="#DejaVuSans-61"/>
     <use x="168.359375" xlink:href="#DejaVuSans-6e"/>
     <use x="231.738281" xlink:href="#DejaVuSans-64"/>
     <use x="295.214844" xlink:href="#DejaVuSans-61"/>
     <use x="356.494141" xlink:href="#DejaVuSans-6c"/>
    </g>
   </g>
   <g id="text_12">
    <!-- filed -->
    <g transform="translate(953.005365 408.346963)scale(0.07 -0.07)">
     <use xlink:href="#DejaVuSans-66"/>
     <use x="35.205078" xlink:href="#DejaVuSans-69"/>
     <use x="62.988281" xlink:href="#DejaVuSans-6c"/>
     <use x="90.771484" xlink:href="#DejaVuSans-65"/>
     <use x="152.294922" xlink:href="#DejaVuSans-64"/>
    </g>
   </g>
   <g id="text_13">
    <!-- department -->
    <g transform="translate(638.542153 393.443512)scale(0.07 -0.07)">
     <use xlink:href="#DejaVuSans-64"/>
     <use x="63.476562" xlink:href="#DejaVuSans-65"/>
     <use x="125" xlink:href="#DejaVuSans-70"/>
     <use x="188.476562" xlink:href="#DejaVuSans-61"/>
     <use x="249.755859" xlink:href="#DejaVuSans-72"/>
     <use x="290.869141" xlink:href="#DejaVuSans-74"/>
     <use x="330.078125" xlink:href="#DejaVuSans-6d"/>
     <use x="427.490234" xlink:href="#DejaVuSans-65"/>
     <use x="489.013672" xlink:href="#DejaVuSans-6e"/>
     <use x="552.392578" xlink:href="#DejaVuSans-74"/>
    </g>
   </g>
   <g id="text_14">
    <!-- uranium -->
    <g transform="translate(731.677306 370.945374)scale(0.07 -0.07)">
     <use xlink:href="#DejaVuSans-75"/>
     <use x="63.378906" xlink:href="#DejaVuSans-72"/>
     <use x="104.492188" xlink:href="#DejaVuSans-61"/>
     <use x="165.771484" xlink:href="#DejaVuSans-6e"/>
     <use x="229.150391" xlink:href="#DejaVuSans-69"/>
     <use x="256.933594" xlink:href="#DejaVuSans-75"/>
     <use x="320.3125" xlink:href="#DejaVuSans-6d"/>
    </g>
   </g>
   <g id="text_15">
    <!-- foundation -->
    <g transform="translate(661.975534 451.285961)scale(0.07 -0.07)">
     <use xlink:href="#DejaVuSans-66"/>
     <use x="35.205078" xlink:href="#DejaVuSans-6f"/>
     <use x="96.386719" xlink:href="#DejaVuSans-75"/>
     <use x="159.765625" xlink:href="#DejaVuSans-6e"/>
     <use x="223.144531" xlink:href="#DejaVuSans-64"/>
     <use x="286.621094" xlink:href="#DejaVuSans-61"/>
     <use x="347.900391" xlink:href="#DejaVuSans-74"/>
     <use x="387.109375" xlink:href="#DejaVuSans-69"/>
     <use x="414.892578" xlink:href="#DejaVuSans-6f"/>
     <use x="476.074219" xlink:href="#DejaVuSans-6e"/>
    </g>
   </g>
   <g id="text_16">
    <!-- gate -->
    <defs>
     <path d="M 45.40625 27.984375 
Q 45.40625 37.75 41.375 43.109375 
Q 37.359375 48.484375 30.078125 48.484375 
Q 22.859375 48.484375 18.828125 43.109375 
Q 14.796875 37.75 14.796875 27.984375 
Q 14.796875 18.265625 18.828125 12.890625 
Q 22.859375 7.515625 30.078125 7.515625 
Q 37.359375 7.515625 41.375 12.890625 
Q 45.40625 18.265625 45.40625 27.984375 
M 54.390625 6.78125 
Q 54.390625 -7.171875 48.1875 -13.984375 
Q 42 -20.796875 29.203125 -20.796875 
Q 24.46875 -20.796875 20.265625 -20.09375 
Q 16.0625 -19.390625 12.109375 -17.921875 
L 12.109375 -9.1875 
Q 16.0625 -11.328125 19.921875 -12.34375 
Q 23.78125 -13.375 27.78125 -13.375 
Q 36.625 -13.375 41.015625 -8.765625 
Q 45.40625 -4.15625 45.40625 5.171875 
L 45.40625 9.625 
Q 42.625 4.78125 38.28125 2.390625 
Q 33.9375 0 27.875 0 
Q 17.828125 0 11.671875 7.65625 
Q 5.515625 15.328125 5.515625 27.984375 
Q 5.515625 40.671875 11.671875 48.328125 
Q 17.828125 56 27.875 56 
Q 33.9375 56 38.28125 53.609375 
Q 42.625 51.21875 45.40625 46.390625 
L 45.40625 54.6875 
L 54.390625 54.6875 
z
" id="DejaVuSans-67"/>
    </defs>
    <g transform="translate(144 438.554117)scale(0.07 -0.07)">
     <use xlink:href="#DejaVuSans-67"/>
     <use x="63.476562" xlink:href="#DejaVuSans-61"/>
     <use x="124.755859" xlink:href="#DejaVuSans-74"/>
     <use x="163.964844" xlink:href="#DejaVuSans-65"/>
    </g>
   </g>
   <g id="text_17">
    <!-- classified -->
    <g transform="translate(782.934512 453.666714)scale(0.07 -0.07)">
     <use xlink:href="#DejaVuSans-63"/>
     <use x="54.980469" xlink:href="#DejaVuSans-6c"/>
     <use x="82.763672" xlink:href="#DejaVuSans-61"/>
     <use x="144.042969" xlink:href="#DejaVuSans-73"/>
     <use x="196.142578" xlink:href="#DejaVuSans-73"/>
     <use x="248.242188" xlink:href="#DejaVuSans-69"/>
     <use x="276.025391" xlink:href="#DejaVuSans-66"/>
     <use x="311.230469" xlink:href="#DejaVuSans-69"/>
     <use x="339.013672" xlink:href="#DejaVuSans-65"/>
     <use x="400.537109" xlink:href="#DejaVuSans-64"/>
    </g>
   </g>
   <g id="text_18">
    <!-- fbi -->
    <g transform="translate(514.32239 440.316953)scale(0.07 -0.07)">
     <use xlink:href="#DejaVuSans-66"/>
     <use x="35.205078" xlink:href="#DejaVuSans-62"/>
     <use x="98.681641" xlink:href="#DejaVuSans-69"/>
    </g>
   </g>
   <g id="text_19">
    <!-- covered -->
    <defs>
     <path d="M 2.984375 54.6875 
L 12.5 54.6875 
L 29.59375 8.796875 
L 46.6875 54.6875 
L 56.203125 54.6875 
L 35.6875 0 
L 23.484375 0 
z
" id="DejaVuSans-76"/>
    </defs>
    <g transform="translate(687.701943 424.394766)scale(0.07 -0.07)">
     <use xlink:href="#DejaVuSans-63"/>
     <use x="54.980469" xlink:href="#DejaVuSans-6f"/>
     <use x="116.162109" xlink:href="#DejaVuSans-76"/>
     <use x="175.341797" xlink:href="#DejaVuSans-65"/>
     <use x="236.865234" xlink:href="#DejaVuSans-72"/>
     <use x="277.947266" xlink:href="#DejaVuSans-65"/>
     <use x="339.470703" xlink:href="#DejaVuSans-64"/>
    </g>
   </g>
   <g id="text_20">
    <!-- wikileaks -->
    <g transform="translate(639.423236 442.171227)scale(0.07 -0.07)">
     <use xlink:href="#DejaVuSans-77"/>
     <use x="81.787109" xlink:href="#DejaVuSans-69"/>
     <use x="109.570312" xlink:href="#DejaVuSans-6b"/>
     <use x="167.480469" xlink:href="#DejaVuSans-69"/>
     <use x="195.263672" xlink:href="#DejaVuSans-6c"/>
     <use x="223.046875" xlink:href="#DejaVuSans-65"/>
     <use x="284.570312" xlink:href="#DejaVuSans-61"/>
     <use x="345.849609" xlink:href="#DejaVuSans-6b"/>
     <use x="403.759766" xlink:href="#DejaVuSans-73"/>
    </g>
   </g>
   <g id="text_21">
    <!-- documents -->
    <g transform="translate(694.780641 440.87096)scale(0.07 -0.07)">
     <use xlink:href="#DejaVuSans-64"/>
     <use x="63.476562" xlink:href="#DejaVuSans-6f"/>
     <use x="124.658203" xlink:href="#DejaVuSans-63"/>
     <use x="179.638672" xlink:href="#DejaVuSans-75"/>
     <use x="243.017578" xlink:href="#DejaVuSans-6d"/>
     <use x="340.429688" xlink:href="#DejaVuSans-65"/>
     <use x="401.953125" xlink:href="#DejaVuSans-6e"/>
     <use x="465.332031" xlink:href="#DejaVuSans-74"/>
     <use x="504.541016" xlink:href="#DejaVuSans-73"/>
    </g>
   </g>
   <g id="text_22">
    <!-- emails -->
    <g transform="translate(779.241897 725.696556)scale(0.07 -0.07)">
     <use xlink:href="#DejaVuSans-65"/>
     <use x="61.523438" xlink:href="#DejaVuSans-6d"/>
     <use x="158.935547" xlink:href="#DejaVuSans-61"/>
     <use x="220.214844" xlink:href="#DejaVuSans-69"/>
     <use x="247.998047" xlink:href="#DejaVuSans-6c"/>
     <use x="275.78125" xlink:href="#DejaVuSans-73"/>
    </g>
   </g>
   <g id="text_23">
    <!-- investigation -->
    <g transform="translate(622.869064 412.392705)scale(0.07 -0.07)">
     <use xlink:href="#DejaVuSans-69"/>
     <use x="27.783203" xlink:href="#DejaVuSans-6e"/>
     <use x="91.162109" xlink:href="#DejaVuSans-76"/>
     <use x="150.341797" xlink:href="#DejaVuSans-65"/>
     <use x="211.865234" xlink:href="#DejaVuSans-73"/>
     <use x="263.964844" xlink:href="#DejaVuSans-74"/>
     <use x="303.173828" xlink:href="#DejaVuSans-69"/>
     <use x="330.957031" xlink:href="#DejaVuSans-67"/>
     <use x="394.433594" xlink:href="#DejaVuSans-61"/>
     <use x="455.712891" xlink:href="#DejaVuSans-74"/>
     <use x="494.921875" xlink:href="#DejaVuSans-69"/>
     <use x="522.705078" xlink:href="#DejaVuSans-6f"/>
     <use x="583.886719" xlink:href="#DejaVuSans-6e"/>
    </g>
   </g>
   <g id="text_24">
    <!-- attorney -->
    <defs>
     <path d="M 32.171875 -5.078125 
Q 28.375 -14.84375 24.75 -17.8125 
Q 21.140625 -20.796875 15.09375 -20.796875 
L 7.90625 -20.796875 
L 7.90625 -13.28125 
L 13.1875 -13.28125 
Q 16.890625 -13.28125 18.9375 -11.515625 
Q 21 -9.765625 23.484375 -3.21875 
L 25.09375 0.875 
L 2.984375 54.6875 
L 12.5 54.6875 
L 29.59375 11.921875 
L 46.6875 54.6875 
L 56.203125 54.6875 
z
" id="DejaVuSans-79"/>
    </defs>
    <g transform="translate(538.694603 474.617225)scale(0.07 -0.07)">
     <use xlink:href="#DejaVuSans-61"/>
     <use x="61.279297" xlink:href="#DejaVuSans-74"/>
     <use x="100.488281" xlink:href="#DejaVuSans-74"/>
     <use x="139.697266" xlink:href="#DejaVuSans-6f"/>
     <use x="200.878906" xlink:href="#DejaVuSans-72"/>
     <use x="241.976562" xlink:href="#DejaVuSans-6e"/>
     <use x="305.355469" xlink:href="#DejaVuSans-65"/>
     <use x="366.878906" xlink:href="#DejaVuSans-79"/>
    </g>
   </g>
   <g id="text_25">
    <!-- impeached -->
    <g transform="translate(650.275582 534.40294)scale(0.07 -0.07)">
     <use xlink:href="#DejaVuSans-69"/>
     <use x="27.783203" xlink:href="#DejaVuSans-6d"/>
     <use x="125.195312" xlink:href="#DejaVuSans-70"/>
     <use x="188.671875" xlink:href="#DejaVuSans-65"/>
     <use x="250.195312" xlink:href="#DejaVuSans-61"/>
     <use x="311.474609" xlink:href="#DejaVuSans-63"/>
     <use x="366.455078" xlink:href="#DejaVuSans-68"/>
     <use x="429.833984" xlink:href="#DejaVuSans-65"/>
     <use x="491.357422" xlink:href="#DejaVuSans-64"/>
    </g>
   </g>
   <g id="text_26">
    <!-- misconduct -->
    <g transform="translate(663.931902 427.632667)scale(0.07 -0.07)">
     <use xlink:href="#DejaVuSans-6d"/>
     <use x="97.412109" xlink:href="#DejaVuSans-69"/>
     <use x="125.195312" xlink:href="#DejaVuSans-73"/>
     <use x="177.294922" xlink:href="#DejaVuSans-63"/>
     <use x="232.275391" xlink:href="#DejaVuSans-6f"/>
     <use x="293.457031" xlink:href="#DejaVuSans-6e"/>
     <use x="356.835938" xlink:href="#DejaVuSans-64"/>
     <use x="420.3125" xlink:href="#DejaVuSans-75"/>
     <use x="483.691406" xlink:href="#DejaVuSans-63"/>
     <use x="538.671875" xlink:href="#DejaVuSans-74"/>
    </g>
   </g>
   <g id="text_27">
    <!-- inappropriate -->
    <g transform="translate(727.872608 391.130121)scale(0.07 -0.07)">
     <use xlink:href="#DejaVuSans-69"/>
     <use x="27.783203" xlink:href="#DejaVuSans-6e"/>
     <use x="91.162109" xlink:href="#DejaVuSans-61"/>
     <use x="152.441406" xlink:href="#DejaVuSans-70"/>
     <use x="215.917969" xlink:href="#DejaVuSans-70"/>
     <use x="279.394531" xlink:href="#DejaVuSans-72"/>
     <use x="320.476562" xlink:href="#DejaVuSans-6f"/>
     <use x="381.658203" xlink:href="#DejaVuSans-70"/>
     <use x="445.134766" xlink:href="#DejaVuSans-72"/>
     <use x="486.248047" xlink:href="#DejaVuSans-69"/>
     <use x="514.03125" xlink:href="#DejaVuSans-61"/>
     <use x="575.310547" xlink:href="#DejaVuSans-74"/>
     <use x="614.519531" xlink:href="#DejaVuSans-65"/>
    </g>
   </g>
   <g id="text_28">
    <!-- del -->
    <g transform="translate(727.236137 445.819549)scale(0.07 -0.07)">
     <use xlink:href="#DejaVuSans-64"/>
     <use x="63.476562" xlink:href="#DejaVuSans-65"/>
     <use x="125" xlink:href="#DejaVuSans-6c"/>
    </g>
   </g>
   <g id="text_29">
    <!-- pressure -->
    <g transform="translate(653.611866 402.052872)scale(0.07 -0.07)">
     <use xlink:href="#DejaVuSans-70"/>
     <use x="63.476562" xlink:href="#DejaVuSans-72"/>
     <use x="104.558594" xlink:href="#DejaVuSans-65"/>
     <use x="166.082031" xlink:href="#DejaVuSans-73"/>
     <use x="218.181641" xlink:href="#DejaVuSans-73"/>
     <use x="270.28125" xlink:href="#DejaVuSans-75"/>
     <use x="333.660156" xlink:href="#DejaVuSans-72"/>
     <use x="374.742188" xlink:href="#DejaVuSans-65"/>
    </g>
   </g>
   <g id="text_30">
    <!-- destroyed -->
    <g transform="translate(578.673776 425.535739)scale(0.07 -0.07)">
     <use xlink:href="#DejaVuSans-64"/>
     <use x="63.476562" xlink:href="#DejaVuSans-65"/>
     <use x="125" xlink:href="#DejaVuSans-73"/>
     <use x="177.099609" xlink:href="#DejaVuSans-74"/>
     <use x="216.308594" xlink:href="#DejaVuSans-72"/>
     <use x="257.390625" xlink:href="#DejaVuSans-6f"/>
     <use x="318.572266" xlink:href="#DejaVuSans-79"/>
     <use x="377.751953" xlink:href="#DejaVuSans-65"/>
     <use x="439.275391" xlink:href="#DejaVuSans-64"/>
    </g>
   </g>
   <g id="text_31">
    <!-- hostage -->
    <g transform="translate(529.170244 430.433947)scale(0.07 -0.07)">
     <use xlink:href="#DejaVuSans-68"/>
     <use x="63.378906" xlink:href="#DejaVuSans-6f"/>
     <use x="124.560547" xlink:href="#DejaVuSans-73"/>
     <use x="176.660156" xlink:href="#DejaVuSans-74"/>
     <use x="215.869141" xlink:href="#DejaVuSans-61"/>
     <use x="277.148438" xlink:href="#DejaVuSans-67"/>
     <use x="340.625" xlink:href="#DejaVuSans-65"/>
    </g>
   </g>
   <g id="text_32">
    <!-- cellphones -->
    <g transform="translate(720.197247 510.925027)scale(0.07 -0.07)">
     <use xlink:href="#DejaVuSans-63"/>
     <use x="54.980469" xlink:href="#DejaVuSans-65"/>
     <use x="116.503906" xlink:href="#DejaVuSans-6c"/>
     <use x="144.287109" xlink:href="#DejaVuSans-6c"/>
     <use x="172.070312" xlink:href="#DejaVuSans-70"/>
     <use x="235.546875" xlink:href="#DejaVuSans-68"/>
     <use x="298.925781" xlink:href="#DejaVuSans-6f"/>
     <use x="360.107422" xlink:href="#DejaVuSans-6e"/>
     <use x="423.486328" xlink:href="#DejaVuSans-65"/>
     <use x="485.009766" xlink:href="#DejaVuSans-73"/>
    </g>
   </g>
   <g id="text_33">
    <!-- scandals -->
    <g transform="translate(689.779424 103.68)scale(0.07 -0.07)">
     <use xlink:href="#DejaVuSans-73"/>
     <use x="52.099609" xlink:href="#DejaVuSans-63"/>
     <use x="107.080078" xlink:href="#DejaVuSans-61"/>
     <use x="168.359375" xlink:href="#DejaVuSans-6e"/>
     <use x="231.738281" xlink:href="#DejaVuSans-64"/>
     <use x="295.214844" xlink:href="#DejaVuSans-61"/>
     <use x="356.494141" xlink:href="#DejaVuSans-6c"/>
     <use x="384.277344" xlink:href="#DejaVuSans-73"/>
    </g>
   </g>
   <g id="text_34">
    <!-- classifying -->
    <g transform="translate(622.792463 377.040205)scale(0.07 -0.07)">
     <use xlink:href="#DejaVuSans-63"/>
     <use x="54.980469" xlink:href="#DejaVuSans-6c"/>
     <use x="82.763672" xlink:href="#DejaVuSans-61"/>
     <use x="144.042969" xlink:href="#DejaVuSans-73"/>
     <use x="196.142578" xlink:href="#DejaVuSans-73"/>
     <use x="248.242188" xlink:href="#DejaVuSans-69"/>
     <use x="276.025391" xlink:href="#DejaVuSans-66"/>
     <use x="311.214844" xlink:href="#DejaVuSans-79"/>
     <use x="370.394531" xlink:href="#DejaVuSans-69"/>
     <use x="398.177734" xlink:href="#DejaVuSans-6e"/>
     <use x="461.556641" xlink:href="#DejaVuSans-67"/>
    </g>
   </g>
   <g id="text_35">
    <!-- congress -->
    <g transform="translate(453.358632 484.103435)scale(0.07 -0.07)">
     <use xlink:href="#DejaVuSans-63"/>
     <use x="54.980469" xlink:href="#DejaVuSans-6f"/>
     <use x="116.162109" xlink:href="#DejaVuSans-6e"/>
     <use x="179.541016" xlink:href="#DejaVuSans-67"/>
     <use x="243.017578" xlink:href="#DejaVuSans-72"/>
     <use x="284.099609" xlink:href="#DejaVuSans-65"/>
     <use x="345.623047" xlink:href="#DejaVuSans-73"/>
     <use x="397.722656" xlink:href="#DejaVuSans-73"/>
    </g>
   </g>
   <g id="text_36">
    <!-- scandals -->
    <g transform="translate(603.144202 423.597324)scale(0.07 -0.07)">
     <use xlink:href="#DejaVuSans-73"/>
     <use x="52.099609" xlink:href="#DejaVuSans-63"/>
     <use x="107.080078" xlink:href="#DejaVuSans-61"/>
     <use x="168.359375" xlink:href="#DejaVuSans-6e"/>
     <use x="231.738281" xlink:href="#DejaVuSans-64"/>
     <use x="295.214844" xlink:href="#DejaVuSans-61"/>
     <use x="356.494141" xlink:href="#DejaVuSans-6c"/>
     <use x="384.277344" xlink:href="#DejaVuSans-73"/>
    </g>
   </g>
   <g id="text_37">
    <!-- attorneys -->
    <g transform="translate(749.86394 390.655402)scale(0.07 -0.07)">
     <use xlink:href="#DejaVuSans-61"/>
     <use x="61.279297" xlink:href="#DejaVuSans-74"/>
     <use x="100.488281" xlink:href="#DejaVuSans-74"/>
     <use x="139.697266" xlink:href="#DejaVuSans-6f"/>
     <use x="200.878906" xlink:href="#DejaVuSans-72"/>
     <use x="241.976562" xlink:href="#DejaVuSans-6e"/>
     <use x="305.355469" xlink:href="#DejaVuSans-65"/>
     <use x="366.878906" xlink:href="#DejaVuSans-79"/>
     <use x="426.058594" xlink:href="#DejaVuSans-73"/>
    </g>
   </g>
   <g id="text_38">
    <!-- hostile -->
    <g transform="translate(356.264404 313.511232)scale(0.07 -0.07)">
     <use xlink:href="#DejaVuSans-68"/>
     <use x="63.378906" xlink:href="#DejaVuSans-6f"/>
     <use x="124.560547" xlink:href="#DejaVuSans-73"/>
     <use x="176.660156" xlink:href="#DejaVuSans-74"/>
     <use x="215.869141" xlink:href="#DejaVuSans-69"/>
     <use x="243.652344" xlink:href="#DejaVuSans-6c"/>
     <use x="271.435547" xlink:href="#DejaVuSans-65"/>
    </g>
   </g>
   <g id="text_39">
    <!-- cash -->
    <g transform="translate(683.605704 404.36391)scale(0.07 -0.07)">
     <use xlink:href="#DejaVuSans-63"/>
     <use x="54.980469" xlink:href="#DejaVuSans-61"/>
     <use x="116.259766" xlink:href="#DejaVuSans-73"/>
     <use x="168.359375" xlink:href="#DejaVuSans-68"/>
    </g>
   </g>
   <g id="text_40">
    <!-- subpoena -->
    <g transform="translate(499.059337 399.884162)scale(0.07 -0.07)">
     <use xlink:href="#DejaVuSans-73"/>
     <use x="52.099609" xlink:href="#DejaVuSans-75"/>
     <use x="115.478516" xlink:href="#DejaVuSans-62"/>
     <use x="178.955078" xlink:href="#DejaVuSans-70"/>
     <use x="242.431641" xlink:href="#DejaVuSans-6f"/>
     <use x="303.613281" xlink:href="#DejaVuSans-65"/>
     <use x="365.136719" xlink:href="#DejaVuSans-6e"/>
     <use x="428.515625" xlink:href="#DejaVuSans-61"/>
    </g>
   </g>
   <g id="text_41">
    <!-- subpoena -->
    <g transform="translate(1036.8 582.285794)scale(0.07 -0.07)">
     <use xlink:href="#DejaVuSans-73"/>
     <use x="52.099609" xlink:href="#DejaVuSans-75"/>
     <use x="115.478516" xlink:href="#DejaVuSans-62"/>
     <use x="178.955078" xlink:href="#DejaVuSans-70"/>
     <use x="242.431641" xlink:href="#DejaVuSans-6f"/>
     <use x="303.613281" xlink:href="#DejaVuSans-65"/>
     <use x="365.136719" xlink:href="#DejaVuSans-6e"/>
     <use x="428.515625" xlink:href="#DejaVuSans-61"/>
    </g>
   </g>
   <g id="text_42">
    <!-- fbi -->
    <g transform="translate(958.753744 436.773882)scale(0.07 -0.07)">
     <use xlink:href="#DejaVuSans-66"/>
     <use x="35.205078" xlink:href="#DejaVuSans-62"/>
     <use x="98.681641" xlink:href="#DejaVuSans-69"/>
    </g>
   </g>
   <g id="text_43">
    <!-- congress -->
    <g transform="translate(525.71205 465.952161)scale(0.07 -0.07)">
     <use xlink:href="#DejaVuSans-63"/>
     <use x="54.980469" xlink:href="#DejaVuSans-6f"/>
     <use x="116.162109" xlink:href="#DejaVuSans-6e"/>
     <use x="179.541016" xlink:href="#DejaVuSans-67"/>
     <use x="243.017578" xlink:href="#DejaVuSans-72"/>
     <use x="284.099609" xlink:href="#DejaVuSans-65"/>
     <use x="345.623047" xlink:href="#DejaVuSans-73"/>
     <use x="397.722656" xlink:href="#DejaVuSans-73"/>
    </g>
   </g>
   <g id="text_44">
    <!-- wikileaks -->
    <g transform="translate(648.934514 444.672335)scale(0.07 -0.07)">
     <use xlink:href="#DejaVuSans-77"/>
     <use x="81.787109" xlink:href="#DejaVuSans-69"/>
     <use x="109.570312" xlink:href="#DejaVuSans-6b"/>
     <use x="167.480469" xlink:href="#DejaVuSans-69"/>
     <use x="195.263672" xlink:href="#DejaVuSans-6c"/>
     <use x="223.046875" xlink:href="#DejaVuSans-65"/>
     <use x="284.570312" xlink:href="#DejaVuSans-61"/>
     <use x="345.849609" xlink:href="#DejaVuSans-6b"/>
     <use x="403.759766" xlink:href="#DejaVuSans-73"/>
    </g>
   </g>
   <g id="text_45">
    <!-- file -->
    <g transform="translate(612.591071 464.615101)scale(0.07 -0.07)">
     <use xlink:href="#DejaVuSans-66"/>
     <use x="35.205078" xlink:href="#DejaVuSans-69"/>
     <use x="62.988281" xlink:href="#DejaVuSans-6c"/>
     <use x="90.771484" xlink:href="#DejaVuSans-65"/>
    </g>
   </g>
   <g id="text_46">
    <!-- resign -->
    <g transform="translate(705.760781 451.156006)scale(0.07 -0.07)">
     <use xlink:href="#DejaVuSans-72"/>
     <use x="41.082031" xlink:href="#DejaVuSans-65"/>
     <use x="102.605469" xlink:href="#DejaVuSans-73"/>
     <use x="154.705078" xlink:href="#DejaVuSans-69"/>
     <use x="182.488281" xlink:href="#DejaVuSans-67"/>
     <use x="245.964844" xlink:href="#DejaVuSans-6e"/>
    </g>
   </g>
   <g id="text_47">
    <!-- departments -->
    <g transform="translate(675.58711 416.533975)scale(0.07 -0.07)">
     <use xlink:href="#DejaVuSans-64"/>
     <use x="63.476562" xlink:href="#DejaVuSans-65"/>
     <use x="125" xlink:href="#DejaVuSans-70"/>
     <use x="188.476562" xlink:href="#DejaVuSans-61"/>
     <use x="249.755859" xlink:href="#DejaVuSans-72"/>
     <use x="290.869141" xlink:href="#DejaVuSans-74"/>
     <use x="330.078125" xlink:href="#DejaVuSans-6d"/>
     <use x="427.490234" xlink:href="#DejaVuSans-65"/>
     <use x="489.013672" xlink:href="#DejaVuSans-6e"/>
     <use x="552.392578" xlink:href="#DejaVuSans-74"/>
     <use x="591.601562" xlink:href="#DejaVuSans-73"/>
    </g>
   </g>
   <g id="text_48">
    <!-- staff -->
    <g transform="translate(670.880639 472.752981)scale(0.07 -0.07)">
     <use xlink:href="#DejaVuSans-73"/>
     <use x="52.099609" xlink:href="#DejaVuSans-74"/>
     <use x="91.308594" xlink:href="#DejaVuSans-61"/>
     <use x="152.587891" xlink:href="#DejaVuSans-66"/>
     <use x="187.792969" xlink:href="#DejaVuSans-66"/>
    </g>
   </g>
   <g id="text_49">
    <!-- yoga -->
    <g transform="translate(506.81452 425.196748)scale(0.07 -0.07)">
     <use xlink:href="#DejaVuSans-79"/>
     <use x="59.179688" xlink:href="#DejaVuSans-6f"/>
     <use x="120.361328" xlink:href="#DejaVuSans-67"/>
     <use x="183.837891" xlink:href="#DejaVuSans-61"/>
    </g>
   </g>
   <g id="text_50">
    <!-- classified -->
    <g transform="translate(409.123401 436.948841)scale(0.07 -0.07)">
     <use xlink:href="#DejaVuSans-63"/>
     <use x="54.980469" xlink:href="#DejaVuSans-6c"/>
     <use x="82.763672" xlink:href="#DejaVuSans-61"/>
     <use x="144.042969" xlink:href="#DejaVuSans-73"/>
     <use x="196.142578" xlink:href="#DejaVuSans-73"/>
     <use x="248.242188" xlink:href="#DejaVuSans-69"/>
     <use x="276.025391" xlink:href="#DejaVuSans-66"/>
     <use x="311.230469" xlink:href="#DejaVuSans-69"/>
     <use x="339.013672" xlink:href="#DejaVuSans-65"/>
     <use x="400.537109" xlink:href="#DejaVuSans-64"/>
    </g>
   </g>
   <g id="text_51">
    <!-- emails -->
    <g transform="translate(576.640217 436.526993)scale(0.07 -0.07)">
     <use xlink:href="#DejaVuSans-65"/>
     <use x="61.523438" xlink:href="#DejaVuSans-6d"/>
     <use x="158.935547" xlink:href="#DejaVuSans-61"/>
     <use x="220.214844" xlink:href="#DejaVuSans-69"/>
     <use x="247.998047" xlink:href="#DejaVuSans-6c"/>
     <use x="275.78125" xlink:href="#DejaVuSans-73"/>
    </g>
   </g>
   <g id="text_52">
    <!-- wedding -->
    <g transform="translate(496.611862 425.107278)scale(0.07 -0.07)">
     <use xlink:href="#DejaVuSans-77"/>
     <use x="81.787109" xlink:href="#DejaVuSans-65"/>
     <use x="143.310547" xlink:href="#DejaVuSans-64"/>
     <use x="206.787109" xlink:href="#DejaVuSans-64"/>
     <use x="270.263672" xlink:href="#DejaVuSans-69"/>
     <use x="298.046875" xlink:href="#DejaVuSans-6e"/>
     <use x="361.425781" xlink:href="#DejaVuSans-67"/>
    </g>
   </g>
   <g id="text_53">
    <!-- fbi -->
    <g transform="translate(996.373388 423.130254)scale(0.07 -0.07)">
     <use xlink:href="#DejaVuSans-66"/>
     <use x="35.205078" xlink:href="#DejaVuSans-62"/>
     <use x="98.681641" xlink:href="#DejaVuSans-69"/>
    </g>
   </g>
   <g id="text_54">
    <!-- wikileaks -->
    <g transform="translate(789.655874 443.078525)scale(0.07 -0.07)">
     <use xlink:href="#DejaVuSans-77"/>
     <use x="81.787109" xlink:href="#DejaVuSans-69"/>
     <use x="109.570312" xlink:href="#DejaVuSans-6b"/>
     <use x="167.480469" xlink:href="#DejaVuSans-69"/>
     <use x="195.263672" xlink:href="#DejaVuSans-6c"/>
     <use x="223.046875" xlink:href="#DejaVuSans-65"/>
     <use x="284.570312" xlink:href="#DejaVuSans-61"/>
     <use x="345.849609" xlink:href="#DejaVuSans-6b"/>
     <use x="403.759766" xlink:href="#DejaVuSans-73"/>
    </g>
   </g>
   <g id="text_55">
    <!-- documents -->
    <g transform="translate(709.390454 442.011499)scale(0.07 -0.07)">
     <use xlink:href="#DejaVuSans-64"/>
     <use x="63.476562" xlink:href="#DejaVuSans-6f"/>
     <use x="124.658203" xlink:href="#DejaVuSans-63"/>
     <use x="179.638672" xlink:href="#DejaVuSans-75"/>
     <use x="243.017578" xlink:href="#DejaVuSans-6d"/>
     <use x="340.429688" xlink:href="#DejaVuSans-65"/>
     <use x="401.953125" xlink:href="#DejaVuSans-6e"/>
     <use x="465.332031" xlink:href="#DejaVuSans-74"/>
     <use x="504.541016" xlink:href="#DejaVuSans-73"/>
    </g>
   </g>
   <g id="text_56">
    <!-- emails -->
    <g transform="translate(565.159546 228.743832)scale(0.07 -0.07)">
     <use xlink:href="#DejaVuSans-65"/>
     <use x="61.523438" xlink:href="#DejaVuSans-6d"/>
     <use x="158.935547" xlink:href="#DejaVuSans-61"/>
     <use x="220.214844" xlink:href="#DejaVuSans-69"/>
     <use x="247.998047" xlink:href="#DejaVuSans-6c"/>
     <use x="275.78125" xlink:href="#DejaVuSans-73"/>
    </g>
   </g>
   <g id="text_57">
    <!-- investigation -->
    <g transform="translate(632.54768 427.867033)scale(0.07 -0.07)">
     <use xlink:href="#DejaVuSans-69"/>
     <use x="27.783203" xlink:href="#DejaVuSans-6e"/>
     <use x="91.162109" xlink:href="#DejaVuSans-76"/>
     <use x="150.341797" xlink:href="#DejaVuSans-65"/>
     <use x="211.865234" xlink:href="#DejaVuSans-73"/>
     <use x="263.964844" xlink:href="#DejaVuSans-74"/>
     <use x="303.173828" xlink:href="#DejaVuSans-69"/>
     <use x="330.957031" xlink:href="#DejaVuSans-67"/>
     <use x="394.433594" xlink:href="#DejaVuSans-61"/>
     <use x="455.712891" xlink:href="#DejaVuSans-74"/>
     <use x="494.921875" xlink:href="#DejaVuSans-69"/>
     <use x="522.705078" xlink:href="#DejaVuSans-6f"/>
     <use x="583.886719" xlink:href="#DejaVuSans-6e"/>
    </g>
   </g>
   <g id="text_58">
    <!-- attorney -->
    <g transform="translate(587.328115 409.31503)scale(0.07 -0.07)">
     <use xlink:href="#DejaVuSans-61"/>
     <use x="61.279297" xlink:href="#DejaVuSans-74"/>
     <use x="100.488281" xlink:href="#DejaVuSans-74"/>
     <use x="139.697266" xlink:href="#DejaVuSans-6f"/>
     <use x="200.878906" xlink:href="#DejaVuSans-72"/>
     <use x="241.976562" xlink:href="#DejaVuSans-6e"/>
     <use x="305.355469" xlink:href="#DejaVuSans-65"/>
     <use x="366.878906" xlink:href="#DejaVuSans-79"/>
    </g>
   </g>
   <g id="text_59">
    <!-- cash -->
    <g transform="translate(682.422879 448.575785)scale(0.07 -0.07)">
     <use xlink:href="#DejaVuSans-63"/>
     <use x="54.980469" xlink:href="#DejaVuSans-61"/>
     <use x="116.259766" xlink:href="#DejaVuSans-73"/>
     <use x="168.359375" xlink:href="#DejaVuSans-68"/>
    </g>
   </g>
   <g id="text_60">
    <!-- information -->
    <g transform="translate(622.601516 418.520447)scale(0.07 -0.07)">
     <use xlink:href="#DejaVuSans-69"/>
     <use x="27.783203" xlink:href="#DejaVuSans-6e"/>
     <use x="91.162109" xlink:href="#DejaVuSans-66"/>
     <use x="126.367188" xlink:href="#DejaVuSans-6f"/>
     <use x="187.548828" xlink:href="#DejaVuSans-72"/>
     <use x="228.646484" xlink:href="#DejaVuSans-6d"/>
     <use x="326.058594" xlink:href="#DejaVuSans-61"/>
     <use x="387.337891" xlink:href="#DejaVuSans-74"/>
     <use x="426.546875" xlink:href="#DejaVuSans-69"/>
     <use x="454.330078" xlink:href="#DejaVuSans-6f"/>
     <use x="515.511719" xlink:href="#DejaVuSans-6e"/>
    </g>
   </g>
   <g id="text_61">
    <!-- violation -->
    <g transform="translate(870.498721 454.760666)scale(0.07 -0.07)">
     <use xlink:href="#DejaVuSans-76"/>
     <use x="59.179688" xlink:href="#DejaVuSans-69"/>
     <use x="86.962891" xlink:href="#DejaVuSans-6f"/>
     <use x="148.144531" xlink:href="#DejaVuSans-6c"/>
     <use x="175.927734" xlink:href="#DejaVuSans-61"/>
     <use x="237.207031" xlink:href="#DejaVuSans-74"/>
     <use x="276.416016" xlink:href="#DejaVuSans-69"/>
     <use x="304.199219" xlink:href="#DejaVuSans-6f"/>
     <use x="365.380859" xlink:href="#DejaVuSans-6e"/>
    </g>
   </g>
   <g id="text_62">
    <!-- secret -->
    <g transform="translate(650.520709 418.941101)scale(0.07 -0.07)">
     <use xlink:href="#DejaVuSans-73"/>
     <use x="52.099609" xlink:href="#DejaVuSans-65"/>
     <use x="113.623047" xlink:href="#DejaVuSans-63"/>
     <use x="168.603516" xlink:href="#DejaVuSans-72"/>
     <use x="209.685547" xlink:href="#DejaVuSans-65"/>
     <use x="271.208984" xlink:href="#DejaVuSans-74"/>
    </g>
   </g>
   <g id="text_63">
    <!-- fbi -->
    <g transform="translate(316.459215 454.418042)scale(0.07 -0.07)">
     <use xlink:href="#DejaVuSans-66"/>
     <use x="35.205078" xlink:href="#DejaVuSans-62"/>
     <use x="98.681641" xlink:href="#DejaVuSans-69"/>
    </g>
   </g>
   <g id="text_64">
    <!-- hammered -->
    <g transform="translate(673.177063 312.74402)scale(0.07 -0.07)">
     <use xlink:href="#DejaVuSans-68"/>
     <use x="63.378906" xlink:href="#DejaVuSans-61"/>
     <use x="124.658203" xlink:href="#DejaVuSans-6d"/>
     <use x="222.070312" xlink:href="#DejaVuSans-6d"/>
     <use x="319.482422" xlink:href="#DejaVuSans-65"/>
     <use x="381.005859" xlink:href="#DejaVuSans-72"/>
     <use x="422.087891" xlink:href="#DejaVuSans-65"/>
     <use x="483.611328" xlink:href="#DejaVuSans-64"/>
    </g>
   </g>
   <g id="text_65">
    <!-- recall -->
    <g transform="translate(642.725029 376.208551)scale(0.07 -0.07)">
     <use xlink:href="#DejaVuSans-72"/>
     <use x="41.082031" xlink:href="#DejaVuSans-65"/>
     <use x="102.605469" xlink:href="#DejaVuSans-63"/>
     <use x="157.585938" xlink:href="#DejaVuSans-61"/>
     <use x="218.865234" xlink:href="#DejaVuSans-6c"/>
     <use x="246.648438" xlink:href="#DejaVuSans-6c"/>
    </g>
   </g>
   <g id="text_66">
    <!-- fbi -->
    <g transform="translate(316.459215 454.418042)scale(0.07 -0.07)">
     <use xlink:href="#DejaVuSans-66"/>
     <use x="35.205078" xlink:href="#DejaVuSans-62"/>
     <use x="98.681641" xlink:href="#DejaVuSans-69"/>
    </g>
   </g>
   <g id="text_67">
    <!-- subpoena -->
    <g transform="translate(554.897662 414.817599)scale(0.07 -0.07)">
     <use xlink:href="#DejaVuSans-73"/>
     <use x="52.099609" xlink:href="#DejaVuSans-75"/>
     <use x="115.478516" xlink:href="#DejaVuSans-62"/>
     <use x="178.955078" xlink:href="#DejaVuSans-70"/>
     <use x="242.431641" xlink:href="#DejaVuSans-6f"/>
     <use x="303.613281" xlink:href="#DejaVuSans-65"/>
     <use x="365.136719" xlink:href="#DejaVuSans-6e"/>
     <use x="428.515625" xlink:href="#DejaVuSans-61"/>
    </g>
   </g>
   <g id="text_68">
    <!-- false -->
    <g transform="translate(660.594387 409.913048)scale(0.07 -0.07)">
     <use xlink:href="#DejaVuSans-66"/>
     <use x="35.205078" xlink:href="#DejaVuSans-61"/>
     <use x="96.484375" xlink:href="#DejaVuSans-6c"/>
     <use x="124.267578" xlink:href="#DejaVuSans-73"/>
     <use x="176.367188" xlink:href="#DejaVuSans-65"/>
    </g>
   </g>
   <g id="text_69">
    <!-- fbi -->
    <g transform="translate(316.459215 454.418042)scale(0.07 -0.07)">
     <use xlink:href="#DejaVuSans-66"/>
     <use x="35.205078" xlink:href="#DejaVuSans-62"/>
     <use x="98.681641" xlink:href="#DejaVuSans-69"/>
    </g>
   </g>
   <g id="text_70">
    <!-- lobbying -->
    <g transform="translate(540.927834 548.495366)scale(0.07 -0.07)">
     <use xlink:href="#DejaVuSans-6c"/>
     <use x="27.783203" xlink:href="#DejaVuSans-6f"/>
     <use x="88.964844" xlink:href="#DejaVuSans-62"/>
     <use x="152.441406" xlink:href="#DejaVuSans-62"/>
     <use x="215.917969" xlink:href="#DejaVuSans-79"/>
     <use x="275.097656" xlink:href="#DejaVuSans-69"/>
     <use x="302.880859" xlink:href="#DejaVuSans-6e"/>
     <use x="366.259766" xlink:href="#DejaVuSans-67"/>
    </g>
   </g>
   <g id="text_71">
    <!-- collude -->
    <g transform="translate(678.867215 611.591669)scale(0.07 -0.07)">
     <use xlink:href="#DejaVuSans-63"/>
     <use x="54.980469" xlink:href="#DejaVuSans-6f"/>
     <use x="116.162109" xlink:href="#DejaVuSans-6c"/>
     <use x="143.945312" xlink:href="#DejaVuSans-6c"/>
     <use x="171.728516" xlink:href="#DejaVuSans-75"/>
     <use x="235.107422" xlink:href="#DejaVuSans-64"/>
     <use x="298.583984" xlink:href="#DejaVuSans-65"/>
    </g>
   </g>
   <g id="text_72">
    <!-- colluded -->
    <g transform="translate(519.804571 416.09163)scale(0.07 -0.07)">
     <use xlink:href="#DejaVuSans-63"/>
     <use x="54.980469" xlink:href="#DejaVuSans-6f"/>
     <use x="116.162109" xlink:href="#DejaVuSans-6c"/>
     <use x="143.945312" xlink:href="#DejaVuSans-6c"/>
     <use x="171.728516" xlink:href="#DejaVuSans-75"/>
     <use x="235.107422" xlink:href="#DejaVuSans-64"/>
     <use x="298.583984" xlink:href="#DejaVuSans-65"/>
     <use x="360.107422" xlink:href="#DejaVuSans-64"/>
    </g>
   </g>
   <g id="text_73">
    <!-- pressure -->
    <g transform="translate(665.710076 397.296249)scale(0.07 -0.07)">
     <use xlink:href="#DejaVuSans-70"/>
     <use x="63.476562" xlink:href="#DejaVuSans-72"/>
     <use x="104.558594" xlink:href="#DejaVuSans-65"/>
     <use x="166.082031" xlink:href="#DejaVuSans-73"/>
     <use x="218.181641" xlink:href="#DejaVuSans-73"/>
     <use x="270.28125" xlink:href="#DejaVuSans-75"/>
     <use x="333.660156" xlink:href="#DejaVuSans-72"/>
     <use x="374.742188" xlink:href="#DejaVuSans-65"/>
    </g>
   </g>
   <g id="text_74">
    <!-- violation -->
    <g transform="translate(713.761188 471.474545)scale(0.07 -0.07)">
     <use xlink:href="#DejaVuSans-76"/>
     <use x="59.179688" xlink:href="#DejaVuSans-69"/>
     <use x="86.962891" xlink:href="#DejaVuSans-6f"/>
     <use x="148.144531" xlink:href="#DejaVuSans-6c"/>
     <use x="175.927734" xlink:href="#DejaVuSans-61"/>
     <use x="237.207031" xlink:href="#DejaVuSans-74"/>
     <use x="276.416016" xlink:href="#DejaVuSans-69"/>
     <use x="304.199219" xlink:href="#DejaVuSans-6f"/>
     <use x="365.380859" xlink:href="#DejaVuSans-6e"/>
    </g>
   </g>
   <g id="text_75">
    <!-- uranium -->
    <g transform="translate(754.857551 768.96)scale(0.07 -0.07)">
     <use xlink:href="#DejaVuSans-75"/>
     <use x="63.378906" xlink:href="#DejaVuSans-72"/>
     <use x="104.492188" xlink:href="#DejaVuSans-61"/>
     <use x="165.771484" xlink:href="#DejaVuSans-6e"/>
     <use x="229.150391" xlink:href="#DejaVuSans-69"/>
     <use x="256.933594" xlink:href="#DejaVuSans-75"/>
     <use x="320.3125" xlink:href="#DejaVuSans-6d"/>
    </g>
   </g>
   <g id="text_76">
    <!-- telecom -->
    <g transform="translate(697.113009 412.695548)scale(0.07 -0.07)">
     <use xlink:href="#DejaVuSans-74"/>
     <use x="39.208984" xlink:href="#DejaVuSans-65"/>
     <use x="100.732422" xlink:href="#DejaVuSans-6c"/>
     <use x="128.515625" xlink:href="#DejaVuSans-65"/>
     <use x="190.039062" xlink:href="#DejaVuSans-63"/>
     <use x="245.019531" xlink:href="#DejaVuSans-6f"/>
     <use x="306.201172" xlink:href="#DejaVuSans-6d"/>
    </g>
   </g>
   <g id="text_77">
    <!-- uranium -->
    <g transform="translate(729.365791 427.595232)scale(0.07 -0.07)">
     <use xlink:href="#DejaVuSans-75"/>
     <use x="63.378906" xlink:href="#DejaVuSans-72"/>
     <use x="104.492188" xlink:href="#DejaVuSans-61"/>
     <use x="165.771484" xlink:href="#DejaVuSans-6e"/>
     <use x="229.150391" xlink:href="#DejaVuSans-69"/>
     <use x="256.933594" xlink:href="#DejaVuSans-75"/>
     <use x="320.3125" xlink:href="#DejaVuSans-6d"/>
    </g>
   </g>
   <g id="text_78">
    <!-- telecom -->
    <g transform="translate(720.085673 496.574566)scale(0.07 -0.07)">
     <use xlink:href="#DejaVuSans-74"/>
     <use x="39.208984" xlink:href="#DejaVuSans-65"/>
     <use x="100.732422" xlink:href="#DejaVuSans-6c"/>
     <use x="128.515625" xlink:href="#DejaVuSans-65"/>
     <use x="190.039062" xlink:href="#DejaVuSans-63"/>
     <use x="245.019531" xlink:href="#DejaVuSans-6f"/>
     <use x="306.201172" xlink:href="#DejaVuSans-6d"/>
    </g>
   </g>
   <g id="text_79">
    <!-- secretariat -->
    <g transform="translate(657.841839 422.296807)scale(0.07 -0.07)">
     <use xlink:href="#DejaVuSans-73"/>
     <use x="52.099609" xlink:href="#DejaVuSans-65"/>
     <use x="113.623047" xlink:href="#DejaVuSans-63"/>
     <use x="168.603516" xlink:href="#DejaVuSans-72"/>
     <use x="209.685547" xlink:href="#DejaVuSans-65"/>
     <use x="271.208984" xlink:href="#DejaVuSans-74"/>
     <use x="310.417969" xlink:href="#DejaVuSans-61"/>
     <use x="371.697266" xlink:href="#DejaVuSans-72"/>
     <use x="412.810547" xlink:href="#DejaVuSans-69"/>
     <use x="440.59375" xlink:href="#DejaVuSans-61"/>
     <use x="501.873047" xlink:href="#DejaVuSans-74"/>
    </g>
   </g>
   <g id="text_80">
    <!-- dnc -->
    <g transform="translate(721.088223 456.124059)scale(0.07 -0.07)">
     <use xlink:href="#DejaVuSans-64"/>
     <use x="63.476562" xlink:href="#DejaVuSans-6e"/>
     <use x="126.855469" xlink:href="#DejaVuSans-63"/>
    </g>
   </g>
   <g id="text_81">
    <!-- investigate -->
    <g transform="translate(628.955257 424.597771)scale(0.07 -0.07)">
     <use xlink:href="#DejaVuSans-69"/>
     <use x="27.783203" xlink:href="#DejaVuSans-6e"/>
     <use x="91.162109" xlink:href="#DejaVuSans-76"/>
     <use x="150.341797" xlink:href="#DejaVuSans-65"/>
     <use x="211.865234" xlink:href="#DejaVuSans-73"/>
     <use x="263.964844" xlink:href="#DejaVuSans-74"/>
     <use x="303.173828" xlink:href="#DejaVuSans-69"/>
     <use x="330.957031" xlink:href="#DejaVuSans-67"/>
     <use x="394.433594" xlink:href="#DejaVuSans-61"/>
     <use x="455.712891" xlink:href="#DejaVuSans-74"/>
     <use x="494.921875" xlink:href="#DejaVuSans-65"/>
    </g>
   </g>
   <g id="text_82">
    <!-- releases -->
    <g transform="translate(609.147262 443.917487)scale(0.07 -0.07)">
     <use xlink:href="#DejaVuSans-72"/>
     <use x="41.082031" xlink:href="#DejaVuSans-65"/>
     <use x="102.605469" xlink:href="#DejaVuSans-6c"/>
     <use x="130.388672" xlink:href="#DejaVuSans-65"/>
     <use x="191.912109" xlink:href="#DejaVuSans-61"/>
     <use x="253.191406" xlink:href="#DejaVuSans-73"/>
     <use x="305.291016" xlink:href="#DejaVuSans-65"/>
     <use x="366.814453" xlink:href="#DejaVuSans-73"/>
    </g>
   </g>
   <g id="text_83">
    <!-- deleted -->
    <g transform="translate(544.173991 421.379378)scale(0.07 -0.07)">
     <use xlink:href="#DejaVuSans-64"/>
     <use x="63.476562" xlink:href="#DejaVuSans-65"/>
     <use x="125" xlink:href="#DejaVuSans-6c"/>
     <use x="152.783203" xlink:href="#DejaVuSans-65"/>
     <use x="214.306641" xlink:href="#DejaVuSans-74"/>
     <use x="253.515625" xlink:href="#DejaVuSans-65"/>
     <use x="315.039062" xlink:href="#DejaVuSans-64"/>
    </g>
   </g>
   <g id="text_84">
    <!-- hostages -->
    <g transform="translate(860.771815 428.199494)scale(0.07 -0.07)">
     <use xlink:href="#DejaVuSans-68"/>
     <use x="63.378906" xlink:href="#DejaVuSans-6f"/>
     <use x="124.560547" xlink:href="#DejaVuSans-73"/>
     <use x="176.660156" xlink:href="#DejaVuSans-74"/>
     <use x="215.869141" xlink:href="#DejaVuSans-61"/>
     <use x="277.148438" xlink:href="#DejaVuSans-67"/>
     <use x="340.625" xlink:href="#DejaVuSans-65"/>
     <use x="402.148438" xlink:href="#DejaVuSans-73"/>
    </g>
   </g>
   <g id="text_85">
    <!-- congregate -->
    <g transform="translate(688.225553 396.187509)scale(0.07 -0.07)">
     <use xlink:href="#DejaVuSans-63"/>
     <use x="54.980469" xlink:href="#DejaVuSans-6f"/>
     <use x="116.162109" xlink:href="#DejaVuSans-6e"/>
     <use x="179.541016" xlink:href="#DejaVuSans-67"/>
     <use x="243.017578" xlink:href="#DejaVuSans-72"/>
     <use x="284.099609" xlink:href="#DejaVuSans-65"/>
     <use x="345.623047" xlink:href="#DejaVuSans-67"/>
     <use x="409.099609" xlink:href="#DejaVuSans-61"/>
     <use x="470.378906" xlink:href="#DejaVuSans-74"/>
     <use x="509.587891" xlink:href="#DejaVuSans-65"/>
    </g>
   </g>
   <g id="text_86">
    <!-- false -->
    <g transform="translate(556.566119 443.004304)scale(0.07 -0.07)">
     <use xlink:href="#DejaVuSans-66"/>
     <use x="35.205078" xlink:href="#DejaVuSans-61"/>
     <use x="96.484375" xlink:href="#DejaVuSans-6c"/>
     <use x="124.267578" xlink:href="#DejaVuSans-73"/>
     <use x="176.367188" xlink:href="#DejaVuSans-65"/>
    </g>
   </g>
   <g id="text_87">
    <!-- wikileaks -->
    <g transform="translate(638.023769 446.632426)scale(0.07 -0.07)">
     <use xlink:href="#DejaVuSans-77"/>
     <use x="81.787109" xlink:href="#DejaVuSans-69"/>
     <use x="109.570312" xlink:href="#DejaVuSans-6b"/>
     <use x="167.480469" xlink:href="#DejaVuSans-69"/>
     <use x="195.263672" xlink:href="#DejaVuSans-6c"/>
     <use x="223.046875" xlink:href="#DejaVuSans-65"/>
     <use x="284.570312" xlink:href="#DejaVuSans-61"/>
     <use x="345.849609" xlink:href="#DejaVuSans-6b"/>
     <use x="403.759766" xlink:href="#DejaVuSans-73"/>
    </g>
   </g>
   <g id="text_88">
    <!-- ubs -->
    <g transform="translate(689.617694 376.619259)scale(0.07 -0.07)">
     <use xlink:href="#DejaVuSans-75"/>
     <use x="63.378906" xlink:href="#DejaVuSans-62"/>
     <use x="126.855469" xlink:href="#DejaVuSans-73"/>
    </g>
   </g>
   <g id="text_89">
    <!-- foundation -->
    <g transform="translate(666.92147 436.334883)scale(0.07 -0.07)">
     <use xlink:href="#DejaVuSans-66"/>
     <use x="35.205078" xlink:href="#DejaVuSans-6f"/>
     <use x="96.386719" xlink:href="#DejaVuSans-75"/>
     <use x="159.765625" xlink:href="#DejaVuSans-6e"/>
     <use x="223.144531" xlink:href="#DejaVuSans-64"/>
     <use x="286.621094" xlink:href="#DejaVuSans-61"/>
     <use x="347.900391" xlink:href="#DejaVuSans-74"/>
     <use x="387.109375" xlink:href="#DejaVuSans-69"/>
     <use x="414.892578" xlink:href="#DejaVuSans-6f"/>
     <use x="476.074219" xlink:href="#DejaVuSans-6e"/>
    </g>
   </g>
   <g id="text_90">
    <!-- fbi -->
    <g transform="translate(316.459215 454.418042)scale(0.07 -0.07)">
     <use xlink:href="#DejaVuSans-66"/>
     <use x="35.205078" xlink:href="#DejaVuSans-62"/>
     <use x="98.681641" xlink:href="#DejaVuSans-69"/>
    </g>
   </g>
   <g id="text_91">
    <!-- lobbying -->
    <g transform="translate(591.088014 455.851854)scale(0.07 -0.07)">
     <use xlink:href="#DejaVuSans-6c"/>
     <use x="27.783203" xlink:href="#DejaVuSans-6f"/>
     <use x="88.964844" xlink:href="#DejaVuSans-62"/>
     <use x="152.441406" xlink:href="#DejaVuSans-62"/>
     <use x="215.917969" xlink:href="#DejaVuSans-79"/>
     <use x="275.097656" xlink:href="#DejaVuSans-69"/>
     <use x="302.880859" xlink:href="#DejaVuSans-6e"/>
     <use x="366.259766" xlink:href="#DejaVuSans-67"/>
    </g>
   </g>
   <g id="text_92">
    <!-- fbi -->
    <g transform="translate(742.690718 477.626421)scale(0.07 -0.07)">
     <use xlink:href="#DejaVuSans-66"/>
     <use x="35.205078" xlink:href="#DejaVuSans-62"/>
     <use x="98.681641" xlink:href="#DejaVuSans-69"/>
    </g>
   </g>
   <g id="text_93">
    <!-- hostages -->
    <g transform="translate(517.796287 452.625353)scale(0.07 -0.07)">
     <use xlink:href="#DejaVuSans-68"/>
     <use x="63.378906" xlink:href="#DejaVuSans-6f"/>
     <use x="124.560547" xlink:href="#DejaVuSans-73"/>
     <use x="176.660156" xlink:href="#DejaVuSans-74"/>
     <use x="215.869141" xlink:href="#DejaVuSans-61"/>
     <use x="277.148438" xlink:href="#DejaVuSans-67"/>
     <use x="340.625" xlink:href="#DejaVuSans-65"/>
     <use x="402.148438" xlink:href="#DejaVuSans-73"/>
    </g>
   </g>
   <g id="text_94">
    <!-- disgrace -->
    <g transform="translate(771.949433 412.818507)scale(0.07 -0.07)">
     <use xlink:href="#DejaVuSans-64"/>
     <use x="63.476562" xlink:href="#DejaVuSans-69"/>
     <use x="91.259766" xlink:href="#DejaVuSans-73"/>
     <use x="143.359375" xlink:href="#DejaVuSans-67"/>
     <use x="206.835938" xlink:href="#DejaVuSans-72"/>
     <use x="247.949219" xlink:href="#DejaVuSans-61"/>
     <use x="309.228516" xlink:href="#DejaVuSans-63"/>
     <use x="364.208984" xlink:href="#DejaVuSans-65"/>
    </g>
   </g>
   <g id="text_95">
    <!-- Cluster 18 - 94 Items -->
    <defs>
     <path d="M 64.40625 67.28125 
L 64.40625 56.890625 
Q 59.421875 61.53125 53.78125 63.8125 
Q 48.140625 66.109375 41.796875 66.109375 
Q 29.296875 66.109375 22.65625 58.46875 
Q 16.015625 50.828125 16.015625 36.375 
Q 16.015625 21.96875 22.65625 14.328125 
Q 29.296875 6.6875 41.796875 6.6875 
Q 48.140625 6.6875 53.78125 8.984375 
Q 59.421875 11.28125 64.40625 15.921875 
L 64.40625 5.609375 
Q 59.234375 2.09375 53.4375 0.328125 
Q 47.65625 -1.421875 41.21875 -1.421875 
Q 24.65625 -1.421875 15.125 8.703125 
Q 5.609375 18.84375 5.609375 36.375 
Q 5.609375 53.953125 15.125 64.078125 
Q 24.65625 74.21875 41.21875 74.21875 
Q 47.75 74.21875 53.53125 72.484375 
Q 59.328125 70.75 64.40625 67.28125 
" id="DejaVuSans-43"/>
     <path id="DejaVuSans-20"/>
     <path d="M 12.40625 8.296875 
L 28.515625 8.296875 
L 28.515625 63.921875 
L 10.984375 60.40625 
L 10.984375 69.390625 
L 28.421875 72.90625 
L 38.28125 72.90625 
L 38.28125 8.296875 
L 54.390625 8.296875 
L 54.390625 0 
L 12.40625 0 
z
" id="DejaVuSans-31"/>
     <path d="M 31.78125 34.625 
Q 24.75 34.625 20.71875 30.859375 
Q 16.703125 27.09375 16.703125 20.515625 
Q 16.703125 13.921875 20.71875 10.15625 
Q 24.75 6.390625 31.78125 6.390625 
Q 38.8125 6.390625 42.859375 10.171875 
Q 46.921875 13.96875 46.921875 20.515625 
Q 46.921875 27.09375 42.890625 30.859375 
Q 38.875 34.625 31.78125 34.625 
M 21.921875 38.8125 
Q 15.578125 40.375 12.03125 44.71875 
Q 8.5 49.078125 8.5 55.328125 
Q 8.5 64.0625 14.71875 69.140625 
Q 20.953125 74.21875 31.78125 74.21875 
Q 42.671875 74.21875 48.875 69.140625 
Q 55.078125 64.0625 55.078125 55.328125 
Q 55.078125 49.078125 51.53125 44.71875 
Q 48 40.375 41.703125 38.8125 
Q 48.828125 37.15625 52.796875 32.3125 
Q 56.78125 27.484375 56.78125 20.515625 
Q 56.78125 9.90625 50.3125 4.234375 
Q 43.84375 -1.421875 31.78125 -1.421875 
Q 19.734375 -1.421875 13.25 4.234375 
Q 6.78125 9.90625 6.78125 20.515625 
Q 6.78125 27.484375 10.78125 32.3125 
Q 14.796875 37.15625 21.921875 38.8125 
M 18.3125 54.390625 
Q 18.3125 48.734375 21.84375 45.5625 
Q 25.390625 42.390625 31.78125 42.390625 
Q 38.140625 42.390625 41.71875 45.5625 
Q 45.3125 48.734375 45.3125 54.390625 
Q 45.3125 60.0625 41.71875 63.234375 
Q 38.140625 66.40625 31.78125 66.40625 
Q 25.390625 66.40625 21.84375 63.234375 
Q 18.3125 60.0625 18.3125 54.390625 
" id="DejaVuSans-38"/>
     <path d="M 4.890625 31.390625 
L 31.203125 31.390625 
L 31.203125 23.390625 
L 4.890625 23.390625 
z
" id="DejaVuSans-2d"/>
     <path d="M 10.984375 1.515625 
L 10.984375 10.5 
Q 14.703125 8.734375 18.5 7.8125 
Q 22.3125 6.890625 25.984375 6.890625 
Q 35.75 6.890625 40.890625 13.453125 
Q 46.046875 20.015625 46.78125 33.40625 
Q 43.953125 29.203125 39.59375 26.953125 
Q 35.25 24.703125 29.984375 24.703125 
Q 19.046875 24.703125 12.671875 31.3125 
Q 6.296875 37.9375 6.296875 49.421875 
Q 6.296875 60.640625 12.9375 67.421875 
Q 19.578125 74.21875 30.609375 74.21875 
Q 43.265625 74.21875 49.921875 64.515625 
Q 56.59375 54.828125 56.59375 36.375 
Q 56.59375 19.140625 48.40625 8.859375 
Q 40.234375 -1.421875 26.421875 -1.421875 
Q 22.703125 -1.421875 18.890625 -0.6875 
Q 15.09375 0.046875 10.984375 1.515625 
M 30.609375 32.421875 
Q 37.25 32.421875 41.125 36.953125 
Q 45.015625 41.5 45.015625 49.421875 
Q 45.015625 57.28125 41.125 61.84375 
Q 37.25 66.40625 30.609375 66.40625 
Q 23.96875 66.40625 20.09375 61.84375 
Q 16.21875 57.28125 16.21875 49.421875 
Q 16.21875 41.5 20.09375 36.953125 
Q 23.96875 32.421875 30.609375 32.421875 
" id="DejaVuSans-39"/>
     <path d="M 37.796875 64.3125 
L 12.890625 25.390625 
L 37.796875 25.390625 
z
M 35.203125 72.90625 
L 47.609375 72.90625 
L 47.609375 25.390625 
L 58.015625 25.390625 
L 58.015625 17.1875 
L 47.609375 17.1875 
L 47.609375 0 
L 37.796875 0 
L 37.796875 17.1875 
L 4.890625 17.1875 
L 4.890625 26.703125 
z
" id="DejaVuSans-34"/>
     <path d="M 9.8125 72.90625 
L 19.671875 72.90625 
L 19.671875 0 
L 9.8125 0 
z
" id="DejaVuSans-49"/>
    </defs>
    <g transform="translate(527.258438 97.68)scale(0.12 -0.12)">
     <use xlink:href="#DejaVuSans-43"/>
     <use x="69.824219" xlink:href="#DejaVuSans-6c"/>
     <use x="97.607422" xlink:href="#DejaVuSans-75"/>
     <use x="160.986328" xlink:href="#DejaVuSans-73"/>
     <use x="213.085938" xlink:href="#DejaVuSans-74"/>
     <use x="252.294922" xlink:href="#DejaVuSans-65"/>
     <use x="313.818359" xlink:href="#DejaVuSans-72"/>
     <use x="354.931641" xlink:href="#DejaVuSans-20"/>
     <use x="386.71875" xlink:href="#DejaVuSans-31"/>
     <use x="450.341797" xlink:href="#DejaVuSans-38"/>
     <use x="513.964844" xlink:href="#DejaVuSans-20"/>
     <use x="545.751953" xlink:href="#DejaVuSans-2d"/>
     <use x="581.835938" xlink:href="#DejaVuSans-20"/>
     <use x="613.623047" xlink:href="#DejaVuSans-39"/>
     <use x="677.246094" xlink:href="#DejaVuSans-34"/>
     <use x="740.869141" xlink:href="#DejaVuSans-20"/>
     <use x="772.65625" xlink:href="#DejaVuSans-49"/>
     <use x="802.148438" xlink:href="#DejaVuSans-74"/>
     <use x="841.357422" xlink:href="#DejaVuSans-65"/>
     <use x="902.880859" xlink:href="#DejaVuSans-6d"/>
     <use x="1000.292969" xlink:href="#DejaVuSans-73"/>
    </g>
   </g>
  </g>
 </g>
</svg>
