<?xml version="1.0" encoding="utf-8" standalone="no"?>
<!DOCTYPE svg PUBLIC "-//W3C//DTD SVG 1.1//EN"
  "http://www.w3.org/Graphics/SVG/1.1/DTD/svg11.dtd">
<!-- Created with matplotlib (http://matplotlib.org/) -->
<svg height="864pt" version="1.1" viewBox="0 0 1152 864" width="1152pt" xmlns="http://www.w3.org/2000/svg" xmlns:xlink="http://www.w3.org/1999/xlink">
 <defs>
  <style type="text/css">
*{stroke-linecap:butt;stroke-linejoin:round;}
  </style>
 </defs>
 <g id="figure_1">
  <g id="patch_1">
   <path d="M 0 864 
L 1152 864 
L 1152 0 
L 0 0 
z
" style="fill:#ffffff;"/>
  </g>
  <g id="axes_1">
   <g id="text_1">
    <!-- defense -->
    <defs>
     <path d="M 45.40625 46.390625 
L 45.40625 75.984375 
L 54.390625 75.984375 
L 54.390625 0 
L 45.40625 0 
L 45.40625 8.203125 
Q 42.578125 3.328125 38.25 0.953125 
Q 33.9375 -1.421875 27.875 -1.421875 
Q 17.96875 -1.421875 11.734375 6.484375 
Q 5.515625 14.40625 5.515625 27.296875 
Q 5.515625 40.1875 11.734375 48.09375 
Q 17.96875 56 27.875 56 
Q 33.9375 56 38.25 53.625 
Q 42.578125 51.265625 45.40625 46.390625 
M 14.796875 27.296875 
Q 14.796875 17.390625 18.875 11.75 
Q 22.953125 6.109375 30.078125 6.109375 
Q 37.203125 6.109375 41.296875 11.75 
Q 45.40625 17.390625 45.40625 27.296875 
Q 45.40625 37.203125 41.296875 42.84375 
Q 37.203125 48.484375 30.078125 48.484375 
Q 22.953125 48.484375 18.875 42.84375 
Q 14.796875 37.203125 14.796875 27.296875 
" id="DejaVuSans-64"/>
     <path d="M 56.203125 29.59375 
L 56.203125 25.203125 
L 14.890625 25.203125 
Q 15.484375 15.921875 20.484375 11.0625 
Q 25.484375 6.203125 34.421875 6.203125 
Q 39.59375 6.203125 44.453125 7.46875 
Q 49.3125 8.734375 54.109375 11.28125 
L 54.109375 2.78125 
Q 49.265625 0.734375 44.1875 -0.34375 
Q 39.109375 -1.421875 33.890625 -1.421875 
Q 20.796875 -1.421875 13.15625 6.1875 
Q 5.515625 13.8125 5.515625 26.8125 
Q 5.515625 40.234375 12.765625 48.109375 
Q 20.015625 56 32.328125 56 
Q 43.359375 56 49.78125 48.890625 
Q 56.203125 41.796875 56.203125 29.59375 
M 47.21875 32.234375 
Q 47.125 39.59375 43.09375 43.984375 
Q 39.0625 48.390625 32.421875 48.390625 
Q 24.90625 48.390625 20.390625 44.140625 
Q 15.875 39.890625 15.1875 32.171875 
z
" id="DejaVuSans-65"/>
     <path d="M 37.109375 75.984375 
L 37.109375 68.5 
L 28.515625 68.5 
Q 23.6875 68.5 21.796875 66.546875 
Q 19.921875 64.59375 19.921875 59.515625 
L 19.921875 54.6875 
L 34.71875 54.6875 
L 34.71875 47.703125 
L 19.921875 47.703125 
L 19.921875 0 
L 10.890625 0 
L 10.890625 47.703125 
L 2.296875 47.703125 
L 2.296875 54.6875 
L 10.890625 54.6875 
L 10.890625 58.5 
Q 10.890625 67.625 15.140625 71.796875 
Q 19.390625 75.984375 28.609375 75.984375 
z
" id="DejaVuSans-66"/>
     <path d="M 54.890625 33.015625 
L 54.890625 0 
L 45.90625 0 
L 45.90625 32.71875 
Q 45.90625 40.484375 42.875 44.328125 
Q 39.84375 48.1875 33.796875 48.1875 
Q 26.515625 48.1875 22.3125 43.546875 
Q 18.109375 38.921875 18.109375 30.90625 
L 18.109375 0 
L 9.078125 0 
L 9.078125 54.6875 
L 18.109375 54.6875 
L 18.109375 46.1875 
Q 21.34375 51.125 25.703125 53.5625 
Q 30.078125 56 35.796875 56 
Q 45.21875 56 50.046875 50.171875 
Q 54.890625 44.34375 54.890625 33.015625 
" id="DejaVuSans-6e"/>
     <path d="M 44.28125 53.078125 
L 44.28125 44.578125 
Q 40.484375 46.53125 36.375 47.5 
Q 32.28125 48.484375 27.875 48.484375 
Q 21.1875 48.484375 17.84375 46.4375 
Q 14.5 44.390625 14.5 40.28125 
Q 14.5 37.15625 16.890625 35.375 
Q 19.28125 33.59375 26.515625 31.984375 
L 29.59375 31.296875 
Q 39.15625 29.25 43.1875 25.515625 
Q 47.21875 21.78125 47.21875 15.09375 
Q 47.21875 7.46875 41.1875 3.015625 
Q 35.15625 -1.421875 24.609375 -1.421875 
Q 20.21875 -1.421875 15.453125 -0.5625 
Q 10.6875 0.296875 5.421875 2 
L 5.421875 11.28125 
Q 10.40625 8.6875 15.234375 7.390625 
Q 20.0625 6.109375 24.8125 6.109375 
Q 31.15625 6.109375 34.5625 8.28125 
Q 37.984375 10.453125 37.984375 14.40625 
Q 37.984375 18.0625 35.515625 20.015625 
Q 33.0625 21.96875 24.703125 23.78125 
L 21.578125 24.515625 
Q 13.234375 26.265625 9.515625 29.90625 
Q 5.8125 33.546875 5.8125 39.890625 
Q 5.8125 47.609375 11.28125 51.796875 
Q 16.75 56 26.8125 56 
Q 31.78125 56 36.171875 55.265625 
Q 40.578125 54.546875 44.28125 53.078125 
" id="DejaVuSans-73"/>
    </defs>
    <g transform="translate(643.801125 367.694254)scale(0.0579 -0.0579)">
     <use xlink:href="#DejaVuSans-64"/>
     <use x="63.476562" xlink:href="#DejaVuSans-65"/>
     <use x="125" xlink:href="#DejaVuSans-66"/>
     <use x="160.205078" xlink:href="#DejaVuSans-65"/>
     <use x="221.728516" xlink:href="#DejaVuSans-6e"/>
     <use x="285.107422" xlink:href="#DejaVuSans-73"/>
     <use x="337.207031" xlink:href="#DejaVuSans-65"/>
    </g>
   </g>
   <g id="text_2">
    <!-- airborne -->
    <defs>
     <path d="M 34.28125 27.484375 
Q 23.390625 27.484375 19.1875 25 
Q 14.984375 22.515625 14.984375 16.5 
Q 14.984375 11.71875 18.140625 8.90625 
Q 21.296875 6.109375 26.703125 6.109375 
Q 34.1875 6.109375 38.703125 11.40625 
Q 43.21875 16.703125 43.21875 25.484375 
L 43.21875 27.484375 
z
M 52.203125 31.203125 
L 52.203125 0 
L 43.21875 0 
L 43.21875 8.296875 
Q 40.140625 3.328125 35.546875 0.953125 
Q 30.953125 -1.421875 24.3125 -1.421875 
Q 15.921875 -1.421875 10.953125 3.296875 
Q 6 8.015625 6 15.921875 
Q 6 25.140625 12.171875 29.828125 
Q 18.359375 34.515625 30.609375 34.515625 
L 43.21875 34.515625 
L 43.21875 35.40625 
Q 43.21875 41.609375 39.140625 45 
Q 35.0625 48.390625 27.6875 48.390625 
Q 23 48.390625 18.546875 47.265625 
Q 14.109375 46.140625 10.015625 43.890625 
L 10.015625 52.203125 
Q 14.9375 54.109375 19.578125 55.046875 
Q 24.21875 56 28.609375 56 
Q 40.484375 56 46.34375 49.84375 
Q 52.203125 43.703125 52.203125 31.203125 
" id="DejaVuSans-61"/>
     <path d="M 9.421875 54.6875 
L 18.40625 54.6875 
L 18.40625 0 
L 9.421875 0 
z
M 9.421875 75.984375 
L 18.40625 75.984375 
L 18.40625 64.59375 
L 9.421875 64.59375 
z
" id="DejaVuSans-69"/>
     <path d="M 41.109375 46.296875 
Q 39.59375 47.171875 37.8125 47.578125 
Q 36.03125 48 33.890625 48 
Q 26.265625 48 22.1875 43.046875 
Q 18.109375 38.09375 18.109375 28.8125 
L 18.109375 0 
L 9.078125 0 
L 9.078125 54.6875 
L 18.109375 54.6875 
L 18.109375 46.1875 
Q 20.953125 51.171875 25.484375 53.578125 
Q 30.03125 56 36.53125 56 
Q 37.453125 56 38.578125 55.875 
Q 39.703125 55.765625 41.0625 55.515625 
z
" id="DejaVuSans-72"/>
     <path d="M 48.6875 27.296875 
Q 48.6875 37.203125 44.609375 42.84375 
Q 40.53125 48.484375 33.40625 48.484375 
Q 26.265625 48.484375 22.1875 42.84375 
Q 18.109375 37.203125 18.109375 27.296875 
Q 18.109375 17.390625 22.1875 11.75 
Q 26.265625 6.109375 33.40625 6.109375 
Q 40.53125 6.109375 44.609375 11.75 
Q 48.6875 17.390625 48.6875 27.296875 
M 18.109375 46.390625 
Q 20.953125 51.265625 25.265625 53.625 
Q 29.59375 56 35.59375 56 
Q 45.5625 56 51.78125 48.09375 
Q 58.015625 40.1875 58.015625 27.296875 
Q 58.015625 14.40625 51.78125 6.484375 
Q 45.5625 -1.421875 35.59375 -1.421875 
Q 29.59375 -1.421875 25.265625 0.953125 
Q 20.953125 3.328125 18.109375 8.203125 
L 18.109375 0 
L 9.078125 0 
L 9.078125 75.984375 
L 18.109375 75.984375 
z
" id="DejaVuSans-62"/>
     <path d="M 30.609375 48.390625 
Q 23.390625 48.390625 19.1875 42.75 
Q 14.984375 37.109375 14.984375 27.296875 
Q 14.984375 17.484375 19.15625 11.84375 
Q 23.34375 6.203125 30.609375 6.203125 
Q 37.796875 6.203125 41.984375 11.859375 
Q 46.1875 17.53125 46.1875 27.296875 
Q 46.1875 37.015625 41.984375 42.703125 
Q 37.796875 48.390625 30.609375 48.390625 
M 30.609375 56 
Q 42.328125 56 49.015625 48.375 
Q 55.71875 40.765625 55.71875 27.296875 
Q 55.71875 13.875 49.015625 6.21875 
Q 42.328125 -1.421875 30.609375 -1.421875 
Q 18.84375 -1.421875 12.171875 6.21875 
Q 5.515625 13.875 5.515625 27.296875 
Q 5.515625 40.765625 12.171875 48.375 
Q 18.84375 56 30.609375 56 
" id="DejaVuSans-6f"/>
    </defs>
    <g transform="translate(643.70792 407.520956)scale(0.0579 -0.0579)">
     <use xlink:href="#DejaVuSans-61"/>
     <use x="61.279297" xlink:href="#DejaVuSans-69"/>
     <use x="89.0625" xlink:href="#DejaVuSans-72"/>
     <use x="130.175781" xlink:href="#DejaVuSans-62"/>
     <use x="193.652344" xlink:href="#DejaVuSans-6f"/>
     <use x="254.833984" xlink:href="#DejaVuSans-72"/>
     <use x="295.931641" xlink:href="#DejaVuSans-6e"/>
     <use x="359.310547" xlink:href="#DejaVuSans-65"/>
    </g>
   </g>
   <g id="text_3">
    <!-- affairs -->
    <g transform="translate(781.458651 707.375728)scale(0.0579 -0.0579)">
     <use xlink:href="#DejaVuSans-61"/>
     <use x="61.279297" xlink:href="#DejaVuSans-66"/>
     <use x="96.484375" xlink:href="#DejaVuSans-66"/>
     <use x="131.689453" xlink:href="#DejaVuSans-61"/>
     <use x="192.96875" xlink:href="#DejaVuSans-69"/>
     <use x="220.751953" xlink:href="#DejaVuSans-72"/>
     <use x="261.865234" xlink:href="#DejaVuSans-73"/>
    </g>
   </g>
   <g id="text_4">
    <!-- fraternal -->
    <defs>
     <path d="M 18.3125 70.21875 
L 18.3125 54.6875 
L 36.8125 54.6875 
L 36.8125 47.703125 
L 18.3125 47.703125 
L 18.3125 18.015625 
Q 18.3125 11.328125 20.140625 9.421875 
Q 21.96875 7.515625 27.59375 7.515625 
L 36.8125 7.515625 
L 36.8125 0 
L 27.59375 0 
Q 17.1875 0 13.234375 3.875 
Q 9.28125 7.765625 9.28125 18.015625 
L 9.28125 47.703125 
L 2.6875 47.703125 
L 2.6875 54.6875 
L 9.28125 54.6875 
L 9.28125 70.21875 
z
" id="DejaVuSans-74"/>
     <path d="M 9.421875 75.984375 
L 18.40625 75.984375 
L 18.40625 0 
L 9.421875 0 
z
" id="DejaVuSans-6c"/>
    </defs>
    <g transform="translate(638.082298 391.817937)scale(0.0579 -0.0579)">
     <use xlink:href="#DejaVuSans-66"/>
     <use x="35.205078" xlink:href="#DejaVuSans-72"/>
     <use x="76.318359" xlink:href="#DejaVuSans-61"/>
     <use x="137.597656" xlink:href="#DejaVuSans-74"/>
     <use x="176.806641" xlink:href="#DejaVuSans-65"/>
     <use x="238.330078" xlink:href="#DejaVuSans-72"/>
     <use x="279.427734" xlink:href="#DejaVuSans-6e"/>
     <use x="342.806641" xlink:href="#DejaVuSans-61"/>
     <use x="404.085938" xlink:href="#DejaVuSans-6c"/>
    </g>
   </g>
   <g id="text_5">
    <!-- behalf -->
    <defs>
     <path d="M 54.890625 33.015625 
L 54.890625 0 
L 45.90625 0 
L 45.90625 32.71875 
Q 45.90625 40.484375 42.875 44.328125 
Q 39.84375 48.1875 33.796875 48.1875 
Q 26.515625 48.1875 22.3125 43.546875 
Q 18.109375 38.921875 18.109375 30.90625 
L 18.109375 0 
L 9.078125 0 
L 9.078125 75.984375 
L 18.109375 75.984375 
L 18.109375 46.1875 
Q 21.34375 51.125 25.703125 53.5625 
Q 30.078125 56 35.796875 56 
Q 45.21875 56 50.046875 50.171875 
Q 54.890625 44.34375 54.890625 33.015625 
" id="DejaVuSans-68"/>
    </defs>
    <g transform="translate(646.864565 419.328233)scale(0.0579 -0.0579)">
     <use xlink:href="#DejaVuSans-62"/>
     <use x="63.476562" xlink:href="#DejaVuSans-65"/>
     <use x="125" xlink:href="#DejaVuSans-68"/>
     <use x="188.378906" xlink:href="#DejaVuSans-61"/>
     <use x="249.658203" xlink:href="#DejaVuSans-6c"/>
     <use x="277.441406" xlink:href="#DejaVuSans-66"/>
    </g>
   </g>
   <g id="text_6">
    <!-- admirals -->
    <defs>
     <path d="M 52 44.1875 
Q 55.375 50.25 60.0625 53.125 
Q 64.75 56 71.09375 56 
Q 79.640625 56 84.28125 50.015625 
Q 88.921875 44.046875 88.921875 33.015625 
L 88.921875 0 
L 79.890625 0 
L 79.890625 32.71875 
Q 79.890625 40.578125 77.09375 44.375 
Q 74.3125 48.1875 68.609375 48.1875 
Q 61.625 48.1875 57.5625 43.546875 
Q 53.515625 38.921875 53.515625 30.90625 
L 53.515625 0 
L 44.484375 0 
L 44.484375 32.71875 
Q 44.484375 40.625 41.703125 44.40625 
Q 38.921875 48.1875 33.109375 48.1875 
Q 26.21875 48.1875 22.15625 43.53125 
Q 18.109375 38.875 18.109375 30.90625 
L 18.109375 0 
L 9.078125 0 
L 9.078125 54.6875 
L 18.109375 54.6875 
L 18.109375 46.1875 
Q 21.1875 51.21875 25.484375 53.609375 
Q 29.78125 56 35.6875 56 
Q 41.65625 56 45.828125 52.96875 
Q 50 49.953125 52 44.1875 
" id="DejaVuSans-6d"/>
    </defs>
    <g transform="translate(639.899815 433.156369)scale(0.0579 -0.0579)">
     <use xlink:href="#DejaVuSans-61"/>
     <use x="61.279297" xlink:href="#DejaVuSans-64"/>
     <use x="124.755859" xlink:href="#DejaVuSans-6d"/>
     <use x="222.167969" xlink:href="#DejaVuSans-69"/>
     <use x="249.951172" xlink:href="#DejaVuSans-72"/>
     <use x="291.064453" xlink:href="#DejaVuSans-61"/>
     <use x="352.34375" xlink:href="#DejaVuSans-6c"/>
     <use x="380.126953" xlink:href="#DejaVuSans-73"/>
    </g>
   </g>
   <g id="text_7">
    <!-- medal -->
    <g transform="translate(794.970407 263.607545)scale(0.0579 -0.0579)">
     <use xlink:href="#DejaVuSans-6d"/>
     <use x="97.412109" xlink:href="#DejaVuSans-65"/>
     <use x="158.935547" xlink:href="#DejaVuSans-64"/>
     <use x="222.412109" xlink:href="#DejaVuSans-61"/>
     <use x="283.691406" xlink:href="#DejaVuSans-6c"/>
    </g>
   </g>
   <g id="text_8">
    <!-- guard -->
    <defs>
     <path d="M 45.40625 27.984375 
Q 45.40625 37.75 41.375 43.109375 
Q 37.359375 48.484375 30.078125 48.484375 
Q 22.859375 48.484375 18.828125 43.109375 
Q 14.796875 37.75 14.796875 27.984375 
Q 14.796875 18.265625 18.828125 12.890625 
Q 22.859375 7.515625 30.078125 7.515625 
Q 37.359375 7.515625 41.375 12.890625 
Q 45.40625 18.265625 45.40625 27.984375 
M 54.390625 6.78125 
Q 54.390625 -7.171875 48.1875 -13.984375 
Q 42 -20.796875 29.203125 -20.796875 
Q 24.46875 -20.796875 20.265625 -20.09375 
Q 16.0625 -19.390625 12.109375 -17.921875 
L 12.109375 -9.1875 
Q 16.0625 -11.328125 19.921875 -12.34375 
Q 23.78125 -13.375 27.78125 -13.375 
Q 36.625 -13.375 41.015625 -8.765625 
Q 45.40625 -4.15625 45.40625 5.171875 
L 45.40625 9.625 
Q 42.625 4.78125 38.28125 2.390625 
Q 33.9375 0 27.875 0 
Q 17.828125 0 11.671875 7.65625 
Q 5.515625 15.328125 5.515625 27.984375 
Q 5.515625 40.671875 11.671875 48.328125 
Q 17.828125 56 27.875 56 
Q 33.9375 56 38.28125 53.609375 
Q 42.625 51.21875 45.40625 46.390625 
L 45.40625 54.6875 
L 54.390625 54.6875 
z
" id="DejaVuSans-67"/>
     <path d="M 8.5 21.578125 
L 8.5 54.6875 
L 17.484375 54.6875 
L 17.484375 21.921875 
Q 17.484375 14.15625 20.5 10.265625 
Q 23.53125 6.390625 29.59375 6.390625 
Q 36.859375 6.390625 41.078125 11.03125 
Q 45.3125 15.671875 45.3125 23.6875 
L 45.3125 54.6875 
L 54.296875 54.6875 
L 54.296875 0 
L 45.3125 0 
L 45.3125 8.40625 
Q 42.046875 3.421875 37.71875 1 
Q 33.40625 -1.421875 27.6875 -1.421875 
Q 18.265625 -1.421875 13.375 4.4375 
Q 8.5 10.296875 8.5 21.578125 
M 31.109375 56 
z
" id="DejaVuSans-75"/>
    </defs>
    <g transform="translate(522.984776 142.992715)scale(0.0579 -0.0579)">
     <use xlink:href="#DejaVuSans-67"/>
     <use x="63.476562" xlink:href="#DejaVuSans-75"/>
     <use x="126.855469" xlink:href="#DejaVuSans-61"/>
     <use x="188.134766" xlink:href="#DejaVuSans-72"/>
     <use x="229.232422" xlink:href="#DejaVuSans-64"/>
    </g>
   </g>
   <g id="text_9">
    <!-- de -->
    <g transform="translate(625.671229 411.524064)scale(0.0579 -0.0579)">
     <use xlink:href="#DejaVuSans-64"/>
     <use x="63.476562" xlink:href="#DejaVuSans-65"/>
    </g>
   </g>
   <g id="text_10">
    <!-- que -->
    <defs>
     <path d="M 14.796875 27.296875 
Q 14.796875 17.390625 18.875 11.75 
Q 22.953125 6.109375 30.078125 6.109375 
Q 37.203125 6.109375 41.296875 11.75 
Q 45.40625 17.390625 45.40625 27.296875 
Q 45.40625 37.203125 41.296875 42.84375 
Q 37.203125 48.484375 30.078125 48.484375 
Q 22.953125 48.484375 18.875 42.84375 
Q 14.796875 37.203125 14.796875 27.296875 
M 45.40625 8.203125 
Q 42.578125 3.328125 38.25 0.953125 
Q 33.9375 -1.421875 27.875 -1.421875 
Q 17.96875 -1.421875 11.734375 6.484375 
Q 5.515625 14.40625 5.515625 27.296875 
Q 5.515625 40.1875 11.734375 48.09375 
Q 17.96875 56 27.875 56 
Q 33.9375 56 38.25 53.625 
Q 42.578125 51.265625 45.40625 46.390625 
L 45.40625 54.6875 
L 54.390625 54.6875 
L 54.390625 -20.796875 
L 45.40625 -20.796875 
z
" id="DejaVuSans-71"/>
    </defs>
    <g transform="translate(878.623021 768.96)scale(0.0579 -0.0579)">
     <use xlink:href="#DejaVuSans-71"/>
     <use x="63.476562" xlink:href="#DejaVuSans-75"/>
     <use x="126.855469" xlink:href="#DejaVuSans-65"/>
    </g>
   </g>
   <g id="text_11">
    <!-- la -->
    <g transform="translate(623.451308 401.325997)scale(0.0579 -0.0579)">
     <use xlink:href="#DejaVuSans-6c"/>
     <use x="27.783203" xlink:href="#DejaVuSans-61"/>
    </g>
   </g>
   <g id="text_12">
    <!-- en -->
    <g transform="translate(405.171602 201.709255)scale(0.0579 -0.0579)">
     <use xlink:href="#DejaVuSans-65"/>
     <use x="61.523438" xlink:href="#DejaVuSans-6e"/>
    </g>
   </g>
   <g id="text_13">
    <!-- unidos -->
    <g transform="translate(630.666171 397.471732)scale(0.0579 -0.0579)">
     <use xlink:href="#DejaVuSans-75"/>
     <use x="63.378906" xlink:href="#DejaVuSans-6e"/>
     <use x="126.757812" xlink:href="#DejaVuSans-69"/>
     <use x="154.541016" xlink:href="#DejaVuSans-64"/>
     <use x="218.017578" xlink:href="#DejaVuSans-6f"/>
     <use x="279.199219" xlink:href="#DejaVuSans-73"/>
    </g>
   </g>
   <g id="text_14">
    <!-- estados -->
    <g transform="translate(628.458897 402.485959)scale(0.0579 -0.0579)">
     <use xlink:href="#DejaVuSans-65"/>
     <use x="61.523438" xlink:href="#DejaVuSans-73"/>
     <use x="113.623047" xlink:href="#DejaVuSans-74"/>
     <use x="152.832031" xlink:href="#DejaVuSans-61"/>
     <use x="214.111328" xlink:href="#DejaVuSans-64"/>
     <use x="277.587891" xlink:href="#DejaVuSans-6f"/>
     <use x="338.769531" xlink:href="#DejaVuSans-73"/>
    </g>
   </g>
   <g id="text_15">
    <!-- el -->
    <g transform="translate(627.084461 390.223315)scale(0.0579 -0.0579)">
     <use xlink:href="#DejaVuSans-65"/>
     <use x="61.523438" xlink:href="#DejaVuSans-6c"/>
    </g>
   </g>
   <g id="text_16">
    <!-- missile -->
    <g transform="translate(649.038273 378.846644)scale(0.0579 -0.0579)">
     <use xlink:href="#DejaVuSans-6d"/>
     <use x="97.412109" xlink:href="#DejaVuSans-69"/>
     <use x="125.195312" xlink:href="#DejaVuSans-73"/>
     <use x="177.294922" xlink:href="#DejaVuSans-73"/>
     <use x="229.394531" xlink:href="#DejaVuSans-69"/>
     <use x="257.177734" xlink:href="#DejaVuSans-6c"/>
     <use x="284.960938" xlink:href="#DejaVuSans-65"/>
    </g>
   </g>
   <g id="text_17">
    <!-- defense -->
    <g transform="translate(651.978412 364.631196)scale(0.0579 -0.0579)">
     <use xlink:href="#DejaVuSans-64"/>
     <use x="63.476562" xlink:href="#DejaVuSans-65"/>
     <use x="125" xlink:href="#DejaVuSans-66"/>
     <use x="160.205078" xlink:href="#DejaVuSans-65"/>
     <use x="221.728516" xlink:href="#DejaVuSans-6e"/>
     <use x="285.107422" xlink:href="#DejaVuSans-73"/>
     <use x="337.207031" xlink:href="#DejaVuSans-65"/>
    </g>
   </g>
   <g id="text_18">
    <!-- navy -->
    <defs>
     <path d="M 2.984375 54.6875 
L 12.5 54.6875 
L 29.59375 8.796875 
L 46.6875 54.6875 
L 56.203125 54.6875 
L 35.6875 0 
L 23.484375 0 
z
" id="DejaVuSans-76"/>
     <path d="M 32.171875 -5.078125 
Q 28.375 -14.84375 24.75 -17.8125 
Q 21.140625 -20.796875 15.09375 -20.796875 
L 7.90625 -20.796875 
L 7.90625 -13.28125 
L 13.1875 -13.28125 
Q 16.890625 -13.28125 18.9375 -11.515625 
Q 21 -9.765625 23.484375 -3.21875 
L 25.09375 0.875 
L 2.984375 54.6875 
L 12.5 54.6875 
L 29.59375 11.921875 
L 46.6875 54.6875 
L 56.203125 54.6875 
z
" id="DejaVuSans-79"/>
    </defs>
    <g transform="translate(772.574471 224.901678)scale(0.0579 -0.0579)">
     <use xlink:href="#DejaVuSans-6e"/>
     <use x="63.378906" xlink:href="#DejaVuSans-61"/>
     <use x="124.658203" xlink:href="#DejaVuSans-76"/>
     <use x="183.837891" xlink:href="#DejaVuSans-79"/>
    </g>
   </g>
   <g id="text_19">
    <!-- ships -->
    <defs>
     <path d="M 18.109375 8.203125 
L 18.109375 -20.796875 
L 9.078125 -20.796875 
L 9.078125 54.6875 
L 18.109375 54.6875 
L 18.109375 46.390625 
Q 20.953125 51.265625 25.265625 53.625 
Q 29.59375 56 35.59375 56 
Q 45.5625 56 51.78125 48.09375 
Q 58.015625 40.1875 58.015625 27.296875 
Q 58.015625 14.40625 51.78125 6.484375 
Q 45.5625 -1.421875 35.59375 -1.421875 
Q 29.59375 -1.421875 25.265625 0.953125 
Q 20.953125 3.328125 18.109375 8.203125 
M 48.6875 27.296875 
Q 48.6875 37.203125 44.609375 42.84375 
Q 40.53125 48.484375 33.40625 48.484375 
Q 26.265625 48.484375 22.1875 42.84375 
Q 18.109375 37.203125 18.109375 27.296875 
Q 18.109375 17.390625 22.1875 11.75 
Q 26.265625 6.109375 33.40625 6.109375 
Q 40.53125 6.109375 44.609375 11.75 
Q 48.6875 17.390625 48.6875 27.296875 
" id="DejaVuSans-70"/>
    </defs>
    <g transform="translate(795.681907 401.038838)scale(0.0579 -0.0579)">
     <use xlink:href="#DejaVuSans-73"/>
     <use x="52.099609" xlink:href="#DejaVuSans-68"/>
     <use x="115.478516" xlink:href="#DejaVuSans-69"/>
     <use x="143.261719" xlink:href="#DejaVuSans-70"/>
     <use x="206.738281" xlink:href="#DejaVuSans-73"/>
    </g>
   </g>
   <g id="text_20">
    <!-- goals -->
    <g transform="translate(587.856603 728.980146)scale(0.0579 -0.0579)">
     <use xlink:href="#DejaVuSans-67"/>
     <use x="63.476562" xlink:href="#DejaVuSans-6f"/>
     <use x="124.658203" xlink:href="#DejaVuSans-61"/>
     <use x="185.9375" xlink:href="#DejaVuSans-6c"/>
     <use x="213.720703" xlink:href="#DejaVuSans-73"/>
    </g>
   </g>
   <g id="text_21">
    <!-- medal -->
    <g transform="translate(640.131841 422.39158)scale(0.0579 -0.0579)">
     <use xlink:href="#DejaVuSans-6d"/>
     <use x="97.412109" xlink:href="#DejaVuSans-65"/>
     <use x="158.935547" xlink:href="#DejaVuSans-64"/>
     <use x="222.412109" xlink:href="#DejaVuSans-61"/>
     <use x="283.691406" xlink:href="#DejaVuSans-6c"/>
    </g>
   </g>
   <g id="text_22">
    <!-- recipients -->
    <defs>
     <path d="M 48.78125 52.59375 
L 48.78125 44.1875 
Q 44.96875 46.296875 41.140625 47.34375 
Q 37.3125 48.390625 33.40625 48.390625 
Q 24.65625 48.390625 19.8125 42.84375 
Q 14.984375 37.3125 14.984375 27.296875 
Q 14.984375 17.28125 19.8125 11.734375 
Q 24.65625 6.203125 33.40625 6.203125 
Q 37.3125 6.203125 41.140625 7.25 
Q 44.96875 8.296875 48.78125 10.40625 
L 48.78125 2.09375 
Q 45.015625 0.34375 40.984375 -0.53125 
Q 36.96875 -1.421875 32.421875 -1.421875 
Q 20.0625 -1.421875 12.78125 6.34375 
Q 5.515625 14.109375 5.515625 27.296875 
Q 5.515625 40.671875 12.859375 48.328125 
Q 20.21875 56 33.015625 56 
Q 37.15625 56 41.109375 55.140625 
Q 45.0625 54.296875 48.78125 52.59375 
" id="DejaVuSans-63"/>
    </defs>
    <g transform="translate(1036.8 637.987344)scale(0.0579 -0.0579)">
     <use xlink:href="#DejaVuSans-72"/>
     <use x="41.082031" xlink:href="#DejaVuSans-65"/>
     <use x="102.605469" xlink:href="#DejaVuSans-63"/>
     <use x="157.585938" xlink:href="#DejaVuSans-69"/>
     <use x="185.369141" xlink:href="#DejaVuSans-70"/>
     <use x="248.845703" xlink:href="#DejaVuSans-69"/>
     <use x="276.628906" xlink:href="#DejaVuSans-65"/>
     <use x="338.152344" xlink:href="#DejaVuSans-6e"/>
     <use x="401.53125" xlink:href="#DejaVuSans-74"/>
     <use x="440.740234" xlink:href="#DejaVuSans-73"/>
    </g>
   </g>
   <g id="text_23">
    <!-- recipient -->
    <g transform="translate(634.007261 413.870226)scale(0.0579 -0.0579)">
     <use xlink:href="#DejaVuSans-72"/>
     <use x="41.082031" xlink:href="#DejaVuSans-65"/>
     <use x="102.605469" xlink:href="#DejaVuSans-63"/>
     <use x="157.585938" xlink:href="#DejaVuSans-69"/>
     <use x="185.369141" xlink:href="#DejaVuSans-70"/>
     <use x="248.845703" xlink:href="#DejaVuSans-69"/>
     <use x="276.628906" xlink:href="#DejaVuSans-65"/>
     <use x="338.152344" xlink:href="#DejaVuSans-6e"/>
     <use x="401.53125" xlink:href="#DejaVuSans-74"/>
    </g>
   </g>
   <g id="text_24">
    <!-- distinguished -->
    <g transform="translate(639.250194 410.906767)scale(0.0579 -0.0579)">
     <use xlink:href="#DejaVuSans-64"/>
     <use x="63.476562" xlink:href="#DejaVuSans-69"/>
     <use x="91.259766" xlink:href="#DejaVuSans-73"/>
     <use x="143.359375" xlink:href="#DejaVuSans-74"/>
     <use x="182.568359" xlink:href="#DejaVuSans-69"/>
     <use x="210.351562" xlink:href="#DejaVuSans-6e"/>
     <use x="273.730469" xlink:href="#DejaVuSans-67"/>
     <use x="337.207031" xlink:href="#DejaVuSans-75"/>
     <use x="400.585938" xlink:href="#DejaVuSans-69"/>
     <use x="428.369141" xlink:href="#DejaVuSans-73"/>
     <use x="480.46875" xlink:href="#DejaVuSans-68"/>
     <use x="543.847656" xlink:href="#DejaVuSans-65"/>
     <use x="605.371094" xlink:href="#DejaVuSans-64"/>
    </g>
   </g>
   <g id="text_25">
    <!-- medal -->
    <g transform="translate(739.155279 267.17621)scale(0.0579 -0.0579)">
     <use xlink:href="#DejaVuSans-6d"/>
     <use x="97.412109" xlink:href="#DejaVuSans-65"/>
     <use x="158.935547" xlink:href="#DejaVuSans-64"/>
     <use x="222.412109" xlink:href="#DejaVuSans-61"/>
     <use x="283.691406" xlink:href="#DejaVuSans-6c"/>
    </g>
   </g>
   <g id="text_26">
    <!-- recipient -->
    <g transform="translate(631.742209 432.546218)scale(0.0579 -0.0579)">
     <use xlink:href="#DejaVuSans-72"/>
     <use x="41.082031" xlink:href="#DejaVuSans-65"/>
     <use x="102.605469" xlink:href="#DejaVuSans-63"/>
     <use x="157.585938" xlink:href="#DejaVuSans-69"/>
     <use x="185.369141" xlink:href="#DejaVuSans-70"/>
     <use x="248.845703" xlink:href="#DejaVuSans-69"/>
     <use x="276.628906" xlink:href="#DejaVuSans-65"/>
     <use x="338.152344" xlink:href="#DejaVuSans-6e"/>
     <use x="401.53125" xlink:href="#DejaVuSans-74"/>
    </g>
   </g>
   <g id="text_27">
    <!-- distinguished -->
    <g transform="translate(645.089146 400.01419)scale(0.0579 -0.0579)">
     <use xlink:href="#DejaVuSans-64"/>
     <use x="63.476562" xlink:href="#DejaVuSans-69"/>
     <use x="91.259766" xlink:href="#DejaVuSans-73"/>
     <use x="143.359375" xlink:href="#DejaVuSans-74"/>
     <use x="182.568359" xlink:href="#DejaVuSans-69"/>
     <use x="210.351562" xlink:href="#DejaVuSans-6e"/>
     <use x="273.730469" xlink:href="#DejaVuSans-67"/>
     <use x="337.207031" xlink:href="#DejaVuSans-75"/>
     <use x="400.585938" xlink:href="#DejaVuSans-69"/>
     <use x="428.369141" xlink:href="#DejaVuSans-73"/>
     <use x="480.46875" xlink:href="#DejaVuSans-68"/>
     <use x="543.847656" xlink:href="#DejaVuSans-65"/>
     <use x="605.371094" xlink:href="#DejaVuSans-64"/>
    </g>
   </g>
   <g id="text_28">
    <!-- recipients -->
    <g transform="translate(634.19991 423.040544)scale(0.0579 -0.0579)">
     <use xlink:href="#DejaVuSans-72"/>
     <use x="41.082031" xlink:href="#DejaVuSans-65"/>
     <use x="102.605469" xlink:href="#DejaVuSans-63"/>
     <use x="157.585938" xlink:href="#DejaVuSans-69"/>
     <use x="185.369141" xlink:href="#DejaVuSans-70"/>
     <use x="248.845703" xlink:href="#DejaVuSans-69"/>
     <use x="276.628906" xlink:href="#DejaVuSans-65"/>
     <use x="338.152344" xlink:href="#DejaVuSans-6e"/>
     <use x="401.53125" xlink:href="#DejaVuSans-74"/>
     <use x="440.740234" xlink:href="#DejaVuSans-73"/>
    </g>
   </g>
   <g id="text_29">
    <!-- agent -->
    <g transform="translate(1019.174197 699.597832)scale(0.0579 -0.0579)">
     <use xlink:href="#DejaVuSans-61"/>
     <use x="61.279297" xlink:href="#DejaVuSans-67"/>
     <use x="124.755859" xlink:href="#DejaVuSans-65"/>
     <use x="186.279297" xlink:href="#DejaVuSans-6e"/>
     <use x="249.658203" xlink:href="#DejaVuSans-74"/>
    </g>
   </g>
   <g id="text_30">
    <!-- medal -->
    <g transform="translate(144 104.325935)scale(0.0579 -0.0579)">
     <use xlink:href="#DejaVuSans-6d"/>
     <use x="97.412109" xlink:href="#DejaVuSans-65"/>
     <use x="158.935547" xlink:href="#DejaVuSans-64"/>
     <use x="222.412109" xlink:href="#DejaVuSans-61"/>
     <use x="283.691406" xlink:href="#DejaVuSans-6c"/>
    </g>
   </g>
   <g id="text_31">
    <!-- recipient -->
    <g transform="translate(588.516164 399.025562)scale(0.0579 -0.0579)">
     <use xlink:href="#DejaVuSans-72"/>
     <use x="41.082031" xlink:href="#DejaVuSans-65"/>
     <use x="102.605469" xlink:href="#DejaVuSans-63"/>
     <use x="157.585938" xlink:href="#DejaVuSans-69"/>
     <use x="185.369141" xlink:href="#DejaVuSans-70"/>
     <use x="248.845703" xlink:href="#DejaVuSans-69"/>
     <use x="276.628906" xlink:href="#DejaVuSans-65"/>
     <use x="338.152344" xlink:href="#DejaVuSans-6e"/>
     <use x="401.53125" xlink:href="#DejaVuSans-74"/>
    </g>
   </g>
   <g id="text_32">
    <!-- assistant -->
    <g transform="translate(639.771188 400.956827)scale(0.0579 -0.0579)">
     <use xlink:href="#DejaVuSans-61"/>
     <use x="61.279297" xlink:href="#DejaVuSans-73"/>
     <use x="113.378906" xlink:href="#DejaVuSans-73"/>
     <use x="165.478516" xlink:href="#DejaVuSans-69"/>
     <use x="193.261719" xlink:href="#DejaVuSans-73"/>
     <use x="245.361328" xlink:href="#DejaVuSans-74"/>
     <use x="284.570312" xlink:href="#DejaVuSans-61"/>
     <use x="345.849609" xlink:href="#DejaVuSans-6e"/>
     <use x="409.228516" xlink:href="#DejaVuSans-74"/>
    </g>
   </g>
   <g id="text_33">
    <!-- navy -->
    <g transform="translate(577.628015 338.09816)scale(0.0579 -0.0579)">
     <use xlink:href="#DejaVuSans-6e"/>
     <use x="63.378906" xlink:href="#DejaVuSans-61"/>
     <use x="124.658203" xlink:href="#DejaVuSans-76"/>
     <use x="183.837891" xlink:href="#DejaVuSans-79"/>
    </g>
   </g>
   <g id="text_34">
    <!-- generation -->
    <g transform="translate(650.417729 393.128698)scale(0.0579 -0.0579)">
     <use xlink:href="#DejaVuSans-67"/>
     <use x="63.476562" xlink:href="#DejaVuSans-65"/>
     <use x="125" xlink:href="#DejaVuSans-6e"/>
     <use x="188.378906" xlink:href="#DejaVuSans-65"/>
     <use x="249.902344" xlink:href="#DejaVuSans-72"/>
     <use x="291.015625" xlink:href="#DejaVuSans-61"/>
     <use x="352.294922" xlink:href="#DejaVuSans-74"/>
     <use x="391.503906" xlink:href="#DejaVuSans-69"/>
     <use x="419.287109" xlink:href="#DejaVuSans-6f"/>
     <use x="480.46875" xlink:href="#DejaVuSans-6e"/>
    </g>
   </g>
   <g id="text_35">
    <!-- generation -->
    <g transform="translate(616.824744 413.759637)scale(0.0579 -0.0579)">
     <use xlink:href="#DejaVuSans-67"/>
     <use x="63.476562" xlink:href="#DejaVuSans-65"/>
     <use x="125" xlink:href="#DejaVuSans-6e"/>
     <use x="188.378906" xlink:href="#DejaVuSans-65"/>
     <use x="249.902344" xlink:href="#DejaVuSans-72"/>
     <use x="291.015625" xlink:href="#DejaVuSans-61"/>
     <use x="352.294922" xlink:href="#DejaVuSans-74"/>
     <use x="391.503906" xlink:href="#DejaVuSans-69"/>
     <use x="419.287109" xlink:href="#DejaVuSans-6f"/>
     <use x="480.46875" xlink:href="#DejaVuSans-6e"/>
    </g>
   </g>
   <g id="text_36">
    <!-- navy -->
    <g transform="translate(670.662182 510.129979)scale(0.0579 -0.0579)">
     <use xlink:href="#DejaVuSans-6e"/>
     <use x="63.378906" xlink:href="#DejaVuSans-61"/>
     <use x="124.658203" xlink:href="#DejaVuSans-76"/>
     <use x="183.837891" xlink:href="#DejaVuSans-79"/>
    </g>
   </g>
   <g id="text_37">
    <!-- flag -->
    <g transform="translate(655.506305 415.221527)scale(0.0579 -0.0579)">
     <use xlink:href="#DejaVuSans-66"/>
     <use x="35.205078" xlink:href="#DejaVuSans-6c"/>
     <use x="62.988281" xlink:href="#DejaVuSans-61"/>
     <use x="124.267578" xlink:href="#DejaVuSans-67"/>
    </g>
   </g>
   <g id="text_38">
    <!-- mission -->
    <g transform="translate(654.082299 384.824367)scale(0.0579 -0.0579)">
     <use xlink:href="#DejaVuSans-6d"/>
     <use x="97.412109" xlink:href="#DejaVuSans-69"/>
     <use x="125.195312" xlink:href="#DejaVuSans-73"/>
     <use x="177.294922" xlink:href="#DejaVuSans-73"/>
     <use x="229.394531" xlink:href="#DejaVuSans-69"/>
     <use x="257.177734" xlink:href="#DejaVuSans-6f"/>
     <use x="318.359375" xlink:href="#DejaVuSans-6e"/>
    </g>
   </g>
   <g id="text_39">
    <!-- guard -->
    <g transform="translate(667.475089 350.76354)scale(0.0579 -0.0579)">
     <use xlink:href="#DejaVuSans-67"/>
     <use x="63.476562" xlink:href="#DejaVuSans-75"/>
     <use x="126.855469" xlink:href="#DejaVuSans-61"/>
     <use x="188.134766" xlink:href="#DejaVuSans-72"/>
     <use x="229.232422" xlink:href="#DejaVuSans-64"/>
    </g>
   </g>
   <g id="text_40">
    <!-- fraternal -->
    <g transform="translate(643.240984 390.549141)scale(0.0579 -0.0579)">
     <use xlink:href="#DejaVuSans-66"/>
     <use x="35.205078" xlink:href="#DejaVuSans-72"/>
     <use x="76.318359" xlink:href="#DejaVuSans-61"/>
     <use x="137.597656" xlink:href="#DejaVuSans-74"/>
     <use x="176.806641" xlink:href="#DejaVuSans-65"/>
     <use x="238.330078" xlink:href="#DejaVuSans-72"/>
     <use x="279.427734" xlink:href="#DejaVuSans-6e"/>
     <use x="342.806641" xlink:href="#DejaVuSans-61"/>
     <use x="404.085938" xlink:href="#DejaVuSans-6c"/>
    </g>
   </g>
   <g id="text_41">
    <!-- goals -->
    <g transform="translate(650.292485 404.918483)scale(0.0579 -0.0579)">
     <use xlink:href="#DejaVuSans-67"/>
     <use x="63.476562" xlink:href="#DejaVuSans-6f"/>
     <use x="124.658203" xlink:href="#DejaVuSans-61"/>
     <use x="185.9375" xlink:href="#DejaVuSans-6c"/>
     <use x="213.720703" xlink:href="#DejaVuSans-73"/>
    </g>
   </g>
   <g id="text_42">
    <!-- missile -->
    <g transform="translate(717.04903 113.297899)scale(0.0579 -0.0579)">
     <use xlink:href="#DejaVuSans-6d"/>
     <use x="97.412109" xlink:href="#DejaVuSans-69"/>
     <use x="125.195312" xlink:href="#DejaVuSans-73"/>
     <use x="177.294922" xlink:href="#DejaVuSans-73"/>
     <use x="229.394531" xlink:href="#DejaVuSans-69"/>
     <use x="257.177734" xlink:href="#DejaVuSans-6c"/>
     <use x="284.960938" xlink:href="#DejaVuSans-65"/>
    </g>
   </g>
   <g id="text_43">
    <!-- defense -->
    <g transform="translate(651.978412 364.631196)scale(0.0579 -0.0579)">
     <use xlink:href="#DejaVuSans-64"/>
     <use x="63.476562" xlink:href="#DejaVuSans-65"/>
     <use x="125" xlink:href="#DejaVuSans-66"/>
     <use x="160.205078" xlink:href="#DejaVuSans-65"/>
     <use x="221.728516" xlink:href="#DejaVuSans-6e"/>
     <use x="285.107422" xlink:href="#DejaVuSans-73"/>
     <use x="337.207031" xlink:href="#DejaVuSans-65"/>
    </g>
   </g>
   <g id="text_44">
    <!-- navy -->
    <g transform="translate(670.662182 510.129979)scale(0.0579 -0.0579)">
     <use xlink:href="#DejaVuSans-6e"/>
     <use x="63.378906" xlink:href="#DejaVuSans-61"/>
     <use x="124.658203" xlink:href="#DejaVuSans-76"/>
     <use x="183.837891" xlink:href="#DejaVuSans-79"/>
    </g>
   </g>
   <g id="text_45">
    <!-- ships -->
    <g transform="translate(468.579665 577.31636)scale(0.0579 -0.0579)">
     <use xlink:href="#DejaVuSans-73"/>
     <use x="52.099609" xlink:href="#DejaVuSans-68"/>
     <use x="115.478516" xlink:href="#DejaVuSans-69"/>
     <use x="143.261719" xlink:href="#DejaVuSans-70"/>
     <use x="206.738281" xlink:href="#DejaVuSans-73"/>
    </g>
   </g>
   <g id="text_46">
    <!-- defense -->
    <g transform="translate(651.978412 364.631196)scale(0.0579 -0.0579)">
     <use xlink:href="#DejaVuSans-64"/>
     <use x="63.476562" xlink:href="#DejaVuSans-65"/>
     <use x="125" xlink:href="#DejaVuSans-66"/>
     <use x="160.205078" xlink:href="#DejaVuSans-65"/>
     <use x="221.728516" xlink:href="#DejaVuSans-6e"/>
     <use x="285.107422" xlink:href="#DejaVuSans-73"/>
     <use x="337.207031" xlink:href="#DejaVuSans-65"/>
    </g>
   </g>
   <g id="text_47">
    <!-- marine -->
    <g transform="translate(633.941873 381.186321)scale(0.0579 -0.0579)">
     <use xlink:href="#DejaVuSans-6d"/>
     <use x="97.412109" xlink:href="#DejaVuSans-61"/>
     <use x="158.691406" xlink:href="#DejaVuSans-72"/>
     <use x="199.804688" xlink:href="#DejaVuSans-69"/>
     <use x="227.587891" xlink:href="#DejaVuSans-6e"/>
     <use x="290.966797" xlink:href="#DejaVuSans-65"/>
    </g>
   </g>
   <g id="text_48">
    <!-- corps -->
    <g transform="translate(332.474964 103.68)scale(0.0579 -0.0579)">
     <use xlink:href="#DejaVuSans-63"/>
     <use x="54.980469" xlink:href="#DejaVuSans-6f"/>
     <use x="116.162109" xlink:href="#DejaVuSans-72"/>
     <use x="157.275391" xlink:href="#DejaVuSans-70"/>
     <use x="220.751953" xlink:href="#DejaVuSans-73"/>
    </g>
   </g>
   <g id="text_49">
    <!-- Cluster 19 -->
    <defs>
     <path d="M 64.40625 67.28125 
L 64.40625 56.890625 
Q 59.421875 61.53125 53.78125 63.8125 
Q 48.140625 66.109375 41.796875 66.109375 
Q 29.296875 66.109375 22.65625 58.46875 
Q 16.015625 50.828125 16.015625 36.375 
Q 16.015625 21.96875 22.65625 14.328125 
Q 29.296875 6.6875 41.796875 6.6875 
Q 48.140625 6.6875 53.78125 8.984375 
Q 59.421875 11.28125 64.40625 15.921875 
L 64.40625 5.609375 
Q 59.234375 2.09375 53.4375 0.328125 
Q 47.65625 -1.421875 41.21875 -1.421875 
Q 24.65625 -1.421875 15.125 8.703125 
Q 5.609375 18.84375 5.609375 36.375 
Q 5.609375 53.953125 15.125 64.078125 
Q 24.65625 74.21875 41.21875 74.21875 
Q 47.75 74.21875 53.53125 72.484375 
Q 59.328125 70.75 64.40625 67.28125 
" id="DejaVuSans-43"/>
     <path id="DejaVuSans-20"/>
     <path d="M 12.40625 8.296875 
L 28.515625 8.296875 
L 28.515625 63.921875 
L 10.984375 60.40625 
L 10.984375 69.390625 
L 28.421875 72.90625 
L 38.28125 72.90625 
L 38.28125 8.296875 
L 54.390625 8.296875 
L 54.390625 0 
L 12.40625 0 
z
" id="DejaVuSans-31"/>
     <path d="M 10.984375 1.515625 
L 10.984375 10.5 
Q 14.703125 8.734375 18.5 7.8125 
Q 22.3125 6.890625 25.984375 6.890625 
Q 35.75 6.890625 40.890625 13.453125 
Q 46.046875 20.015625 46.78125 33.40625 
Q 43.953125 29.203125 39.59375 26.953125 
Q 35.25 24.703125 29.984375 24.703125 
Q 19.046875 24.703125 12.671875 31.3125 
Q 6.296875 37.9375 6.296875 49.421875 
Q 6.296875 60.640625 12.9375 67.421875 
Q 19.578125 74.21875 30.609375 74.21875 
Q 43.265625 74.21875 49.921875 64.515625 
Q 56.59375 54.828125 56.59375 36.375 
Q 56.59375 19.140625 48.40625 8.859375 
Q 40.234375 -1.421875 26.421875 -1.421875 
Q 22.703125 -1.421875 18.890625 -0.6875 
Q 15.09375 0.046875 10.984375 1.515625 
M 30.609375 32.421875 
Q 37.25 32.421875 41.125 36.953125 
Q 45.015625 41.5 45.015625 49.421875 
Q 45.015625 57.28125 41.125 61.84375 
Q 37.25 66.40625 30.609375 66.40625 
Q 23.96875 66.40625 20.09375 61.84375 
Q 16.21875 57.28125 16.21875 49.421875 
Q 16.21875 41.5 20.09375 36.953125 
Q 23.96875 32.421875 30.609375 32.421875 
" id="DejaVuSans-39"/>
    </defs>
    <g transform="translate(559.562812 97.68)scale(0.12 -0.12)">
     <use xlink:href="#DejaVuSans-43"/>
     <use x="69.824219" xlink:href="#DejaVuSans-6c"/>
     <use x="97.607422" xlink:href="#DejaVuSans-75"/>
     <use x="160.986328" xlink:href="#DejaVuSans-73"/>
     <use x="213.085938" xlink:href="#DejaVuSans-74"/>
     <use x="252.294922" xlink:href="#DejaVuSans-65"/>
     <use x="313.818359" xlink:href="#DejaVuSans-72"/>
     <use x="354.931641" xlink:href="#DejaVuSans-20"/>
     <use x="386.71875" xlink:href="#DejaVuSans-31"/>
     <use x="450.341797" xlink:href="#DejaVuSans-39"/>
    </g>
   </g>
  </g>
 </g>
</svg>
