<?xml version="1.0" encoding="utf-8" standalone="no"?>
<!DOCTYPE svg PUBLIC "-//W3C//DTD SVG 1.1//EN"
  "http://www.w3.org/Graphics/SVG/1.1/DTD/svg11.dtd">
<!-- Created with matplotlib (http://matplotlib.org/) -->
<svg height="864pt" version="1.1" viewBox="0 0 1152 864" width="1152pt" xmlns="http://www.w3.org/2000/svg" xmlns:xlink="http://www.w3.org/1999/xlink">
 <defs>
  <style type="text/css">
*{stroke-linecap:butt;stroke-linejoin:round;}
  </style>
 </defs>
 <g id="figure_1">
  <g id="patch_1">
   <path d="M 0 864 
L 1152 864 
L 1152 0 
L 0 0 
z
" style="fill:#ffffff;"/>
  </g>
  <g id="axes_1">
   <g id="text_1">
    <!-- clinton -->
    <defs>
     <path d="M 48.78125 52.59375 
L 48.78125 44.1875 
Q 44.96875 46.296875 41.140625 47.34375 
Q 37.3125 48.390625 33.40625 48.390625 
Q 24.65625 48.390625 19.8125 42.84375 
Q 14.984375 37.3125 14.984375 27.296875 
Q 14.984375 17.28125 19.8125 11.734375 
Q 24.65625 6.203125 33.40625 6.203125 
Q 37.3125 6.203125 41.140625 7.25 
Q 44.96875 8.296875 48.78125 10.40625 
L 48.78125 2.09375 
Q 45.015625 0.34375 40.984375 -0.53125 
Q 36.96875 -1.421875 32.421875 -1.421875 
Q 20.0625 -1.421875 12.78125 6.34375 
Q 5.515625 14.109375 5.515625 27.296875 
Q 5.515625 40.671875 12.859375 48.328125 
Q 20.21875 56 33.015625 56 
Q 37.15625 56 41.109375 55.140625 
Q 45.0625 54.296875 48.78125 52.59375 
" id="DejaVuSans-63"/>
     <path d="M 9.421875 75.984375 
L 18.40625 75.984375 
L 18.40625 0 
L 9.421875 0 
z
" id="DejaVuSans-6c"/>
     <path d="M 9.421875 54.6875 
L 18.40625 54.6875 
L 18.40625 0 
L 9.421875 0 
z
M 9.421875 75.984375 
L 18.40625 75.984375 
L 18.40625 64.59375 
L 9.421875 64.59375 
z
" id="DejaVuSans-69"/>
     <path d="M 54.890625 33.015625 
L 54.890625 0 
L 45.90625 0 
L 45.90625 32.71875 
Q 45.90625 40.484375 42.875 44.328125 
Q 39.84375 48.1875 33.796875 48.1875 
Q 26.515625 48.1875 22.3125 43.546875 
Q 18.109375 38.921875 18.109375 30.90625 
L 18.109375 0 
L 9.078125 0 
L 9.078125 54.6875 
L 18.109375 54.6875 
L 18.109375 46.1875 
Q 21.34375 51.125 25.703125 53.5625 
Q 30.078125 56 35.796875 56 
Q 45.21875 56 50.046875 50.171875 
Q 54.890625 44.34375 54.890625 33.015625 
" id="DejaVuSans-6e"/>
     <path d="M 18.3125 70.21875 
L 18.3125 54.6875 
L 36.8125 54.6875 
L 36.8125 47.703125 
L 18.3125 47.703125 
L 18.3125 18.015625 
Q 18.3125 11.328125 20.140625 9.421875 
Q 21.96875 7.515625 27.59375 7.515625 
L 36.8125 7.515625 
L 36.8125 0 
L 27.59375 0 
Q 17.1875 0 13.234375 3.875 
Q 9.28125 7.765625 9.28125 18.015625 
L 9.28125 47.703125 
L 2.6875 47.703125 
L 2.6875 54.6875 
L 9.28125 54.6875 
L 9.28125 70.21875 
z
" id="DejaVuSans-74"/>
     <path d="M 30.609375 48.390625 
Q 23.390625 48.390625 19.1875 42.75 
Q 14.984375 37.109375 14.984375 27.296875 
Q 14.984375 17.484375 19.15625 11.84375 
Q 23.34375 6.203125 30.609375 6.203125 
Q 37.796875 6.203125 41.984375 11.859375 
Q 46.1875 17.53125 46.1875 27.296875 
Q 46.1875 37.015625 41.984375 42.703125 
Q 37.796875 48.390625 30.609375 48.390625 
M 30.609375 56 
Q 42.328125 56 49.015625 48.375 
Q 55.71875 40.765625 55.71875 27.296875 
Q 55.71875 13.875 49.015625 6.21875 
Q 42.328125 -1.421875 30.609375 -1.421875 
Q 18.84375 -1.421875 12.171875 6.21875 
Q 5.515625 13.875 5.515625 27.296875 
Q 5.515625 40.765625 12.171875 48.375 
Q 18.84375 56 30.609375 56 
" id="DejaVuSans-6f"/>
    </defs>
    <g transform="translate(919.509023 273.663964)scale(0.08 -0.08)">
     <use xlink:href="#DejaVuSans-63"/>
     <use x="54.980469" xlink:href="#DejaVuSans-6c"/>
     <use x="82.763672" xlink:href="#DejaVuSans-69"/>
     <use x="110.546875" xlink:href="#DejaVuSans-6e"/>
     <use x="173.925781" xlink:href="#DejaVuSans-74"/>
     <use x="213.134766" xlink:href="#DejaVuSans-6f"/>
     <use x="274.316406" xlink:href="#DejaVuSans-6e"/>
    </g>
   </g>
   <g id="text_2">
    <!-- she -->
    <defs>
     <path d="M 44.28125 53.078125 
L 44.28125 44.578125 
Q 40.484375 46.53125 36.375 47.5 
Q 32.28125 48.484375 27.875 48.484375 
Q 21.1875 48.484375 17.84375 46.4375 
Q 14.5 44.390625 14.5 40.28125 
Q 14.5 37.15625 16.890625 35.375 
Q 19.28125 33.59375 26.515625 31.984375 
L 29.59375 31.296875 
Q 39.15625 29.25 43.1875 25.515625 
Q 47.21875 21.78125 47.21875 15.09375 
Q 47.21875 7.46875 41.1875 3.015625 
Q 35.15625 -1.421875 24.609375 -1.421875 
Q 20.21875 -1.421875 15.453125 -0.5625 
Q 10.6875 0.296875 5.421875 2 
L 5.421875 11.28125 
Q 10.40625 8.6875 15.234375 7.390625 
Q 20.0625 6.109375 24.8125 6.109375 
Q 31.15625 6.109375 34.5625 8.28125 
Q 37.984375 10.453125 37.984375 14.40625 
Q 37.984375 18.0625 35.515625 20.015625 
Q 33.0625 21.96875 24.703125 23.78125 
L 21.578125 24.515625 
Q 13.234375 26.265625 9.515625 29.90625 
Q 5.8125 33.546875 5.8125 39.890625 
Q 5.8125 47.609375 11.28125 51.796875 
Q 16.75 56 26.8125 56 
Q 31.78125 56 36.171875 55.265625 
Q 40.578125 54.546875 44.28125 53.078125 
" id="DejaVuSans-73"/>
     <path d="M 54.890625 33.015625 
L 54.890625 0 
L 45.90625 0 
L 45.90625 32.71875 
Q 45.90625 40.484375 42.875 44.328125 
Q 39.84375 48.1875 33.796875 48.1875 
Q 26.515625 48.1875 22.3125 43.546875 
Q 18.109375 38.921875 18.109375 30.90625 
L 18.109375 0 
L 9.078125 0 
L 9.078125 75.984375 
L 18.109375 75.984375 
L 18.109375 46.1875 
Q 21.34375 51.125 25.703125 53.5625 
Q 30.078125 56 35.796875 56 
Q 45.21875 56 50.046875 50.171875 
Q 54.890625 44.34375 54.890625 33.015625 
" id="DejaVuSans-68"/>
     <path d="M 56.203125 29.59375 
L 56.203125 25.203125 
L 14.890625 25.203125 
Q 15.484375 15.921875 20.484375 11.0625 
Q 25.484375 6.203125 34.421875 6.203125 
Q 39.59375 6.203125 44.453125 7.46875 
Q 49.3125 8.734375 54.109375 11.28125 
L 54.109375 2.78125 
Q 49.265625 0.734375 44.1875 -0.34375 
Q 39.109375 -1.421875 33.890625 -1.421875 
Q 20.796875 -1.421875 13.15625 6.1875 
Q 5.515625 13.8125 5.515625 26.8125 
Q 5.515625 40.234375 12.765625 48.109375 
Q 20.015625 56 32.328125 56 
Q 43.359375 56 49.78125 48.890625 
Q 56.203125 41.796875 56.203125 29.59375 
M 47.21875 32.234375 
Q 47.125 39.59375 43.09375 43.984375 
Q 39.0625 48.390625 32.421875 48.390625 
Q 24.90625 48.390625 20.390625 44.140625 
Q 15.875 39.890625 15.1875 32.171875 
z
" id="DejaVuSans-65"/>
    </defs>
    <g transform="translate(776.254534 339.750939)scale(0.08 -0.08)">
     <use xlink:href="#DejaVuSans-73"/>
     <use x="52.099609" xlink:href="#DejaVuSans-68"/>
     <use x="115.478516" xlink:href="#DejaVuSans-65"/>
    </g>
   </g>
   <g id="text_3">
    <!-- she's -->
    <defs>
     <path d="M 17.921875 72.90625 
L 17.921875 45.796875 
L 9.625 45.796875 
L 9.625 72.90625 
z
" id="DejaVuSans-27"/>
    </defs>
    <g transform="translate(736.604816 201.822862)scale(0.08 -0.08)">
     <use xlink:href="#DejaVuSans-73"/>
     <use x="52.099609" xlink:href="#DejaVuSans-68"/>
     <use x="115.478516" xlink:href="#DejaVuSans-65"/>
     <use x="177.001953" xlink:href="#DejaVuSans-27"/>
     <use x="204.492188" xlink:href="#DejaVuSans-73"/>
    </g>
   </g>
   <g id="text_4">
    <!-- bernie -->
    <defs>
     <path d="M 48.6875 27.296875 
Q 48.6875 37.203125 44.609375 42.84375 
Q 40.53125 48.484375 33.40625 48.484375 
Q 26.265625 48.484375 22.1875 42.84375 
Q 18.109375 37.203125 18.109375 27.296875 
Q 18.109375 17.390625 22.1875 11.75 
Q 26.265625 6.109375 33.40625 6.109375 
Q 40.53125 6.109375 44.609375 11.75 
Q 48.6875 17.390625 48.6875 27.296875 
M 18.109375 46.390625 
Q 20.953125 51.265625 25.265625 53.625 
Q 29.59375 56 35.59375 56 
Q 45.5625 56 51.78125 48.09375 
Q 58.015625 40.1875 58.015625 27.296875 
Q 58.015625 14.40625 51.78125 6.484375 
Q 45.5625 -1.421875 35.59375 -1.421875 
Q 29.59375 -1.421875 25.265625 0.953125 
Q 20.953125 3.328125 18.109375 8.203125 
L 18.109375 0 
L 9.078125 0 
L 9.078125 75.984375 
L 18.109375 75.984375 
z
" id="DejaVuSans-62"/>
     <path d="M 41.109375 46.296875 
Q 39.59375 47.171875 37.8125 47.578125 
Q 36.03125 48 33.890625 48 
Q 26.265625 48 22.1875 43.046875 
Q 18.109375 38.09375 18.109375 28.8125 
L 18.109375 0 
L 9.078125 0 
L 9.078125 54.6875 
L 18.109375 54.6875 
L 18.109375 46.1875 
Q 20.953125 51.171875 25.484375 53.578125 
Q 30.03125 56 36.53125 56 
Q 37.453125 56 38.578125 55.875 
Q 39.703125 55.765625 41.0625 55.515625 
z
" id="DejaVuSans-72"/>
    </defs>
    <g transform="translate(659.628314 315.910766)scale(0.08 -0.08)">
     <use xlink:href="#DejaVuSans-62"/>
     <use x="63.476562" xlink:href="#DejaVuSans-65"/>
     <use x="125" xlink:href="#DejaVuSans-72"/>
     <use x="166.097656" xlink:href="#DejaVuSans-6e"/>
     <use x="229.476562" xlink:href="#DejaVuSans-69"/>
     <use x="257.259766" xlink:href="#DejaVuSans-65"/>
    </g>
   </g>
   <g id="text_5">
    <!-- clinton -->
    <g transform="translate(914.488728 334.667527)scale(0.08 -0.08)">
     <use xlink:href="#DejaVuSans-63"/>
     <use x="54.980469" xlink:href="#DejaVuSans-6c"/>
     <use x="82.763672" xlink:href="#DejaVuSans-69"/>
     <use x="110.546875" xlink:href="#DejaVuSans-6e"/>
     <use x="173.925781" xlink:href="#DejaVuSans-74"/>
     <use x="213.134766" xlink:href="#DejaVuSans-6f"/>
     <use x="274.316406" xlink:href="#DejaVuSans-6e"/>
    </g>
   </g>
   <g id="text_6">
    <!-- hillary -->
    <defs>
     <path d="M 34.28125 27.484375 
Q 23.390625 27.484375 19.1875 25 
Q 14.984375 22.515625 14.984375 16.5 
Q 14.984375 11.71875 18.140625 8.90625 
Q 21.296875 6.109375 26.703125 6.109375 
Q 34.1875 6.109375 38.703125 11.40625 
Q 43.21875 16.703125 43.21875 25.484375 
L 43.21875 27.484375 
z
M 52.203125 31.203125 
L 52.203125 0 
L 43.21875 0 
L 43.21875 8.296875 
Q 40.140625 3.328125 35.546875 0.953125 
Q 30.953125 -1.421875 24.3125 -1.421875 
Q 15.921875 -1.421875 10.953125 3.296875 
Q 6 8.015625 6 15.921875 
Q 6 25.140625 12.171875 29.828125 
Q 18.359375 34.515625 30.609375 34.515625 
L 43.21875 34.515625 
L 43.21875 35.40625 
Q 43.21875 41.609375 39.140625 45 
Q 35.0625 48.390625 27.6875 48.390625 
Q 23 48.390625 18.546875 47.265625 
Q 14.109375 46.140625 10.015625 43.890625 
L 10.015625 52.203125 
Q 14.9375 54.109375 19.578125 55.046875 
Q 24.21875 56 28.609375 56 
Q 40.484375 56 46.34375 49.84375 
Q 52.203125 43.703125 52.203125 31.203125 
" id="DejaVuSans-61"/>
     <path d="M 32.171875 -5.078125 
Q 28.375 -14.84375 24.75 -17.8125 
Q 21.140625 -20.796875 15.09375 -20.796875 
L 7.90625 -20.796875 
L 7.90625 -13.28125 
L 13.1875 -13.28125 
Q 16.890625 -13.28125 18.9375 -11.515625 
Q 21 -9.765625 23.484375 -3.21875 
L 25.09375 0.875 
L 2.984375 54.6875 
L 12.5 54.6875 
L 29.59375 11.921875 
L 46.6875 54.6875 
L 56.203125 54.6875 
z
" id="DejaVuSans-79"/>
    </defs>
    <g transform="translate(708.2129 315.748633)scale(0.08 -0.08)">
     <use xlink:href="#DejaVuSans-68"/>
     <use x="63.378906" xlink:href="#DejaVuSans-69"/>
     <use x="91.162109" xlink:href="#DejaVuSans-6c"/>
     <use x="118.945312" xlink:href="#DejaVuSans-6c"/>
     <use x="146.728516" xlink:href="#DejaVuSans-61"/>
     <use x="208.007812" xlink:href="#DejaVuSans-72"/>
     <use x="249.121094" xlink:href="#DejaVuSans-79"/>
    </g>
   </g>
   <g id="text_7">
    <!-- she -->
    <g transform="translate(704.773213 433.710144)scale(0.08 -0.08)">
     <use xlink:href="#DejaVuSans-73"/>
     <use x="52.099609" xlink:href="#DejaVuSans-68"/>
     <use x="115.478516" xlink:href="#DejaVuSans-65"/>
    </g>
   </g>
   <g id="text_8">
    <!-- her -->
    <g transform="translate(144 182.465451)scale(0.08 -0.08)">
     <use xlink:href="#DejaVuSans-68"/>
     <use x="63.378906" xlink:href="#DejaVuSans-65"/>
     <use x="124.902344" xlink:href="#DejaVuSans-72"/>
    </g>
   </g>
   <g id="text_9">
    <!-- scary -->
    <g transform="translate(608.246129 392.395844)scale(0.08 -0.08)">
     <use xlink:href="#DejaVuSans-73"/>
     <use x="52.099609" xlink:href="#DejaVuSans-63"/>
     <use x="107.080078" xlink:href="#DejaVuSans-61"/>
     <use x="168.359375" xlink:href="#DejaVuSans-72"/>
     <use x="209.472656" xlink:href="#DejaVuSans-79"/>
    </g>
   </g>
   <g id="text_10">
    <!-- she -->
    <g transform="translate(710.308027 417.745109)scale(0.08 -0.08)">
     <use xlink:href="#DejaVuSans-73"/>
     <use x="52.099609" xlink:href="#DejaVuSans-68"/>
     <use x="115.478516" xlink:href="#DejaVuSans-65"/>
    </g>
   </g>
   <g id="text_11">
    <!-- haiti -->
    <g transform="translate(480.141781 340.35354)scale(0.08 -0.08)">
     <use xlink:href="#DejaVuSans-68"/>
     <use x="63.378906" xlink:href="#DejaVuSans-61"/>
     <use x="124.658203" xlink:href="#DejaVuSans-69"/>
     <use x="152.441406" xlink:href="#DejaVuSans-74"/>
     <use x="191.650391" xlink:href="#DejaVuSans-69"/>
    </g>
   </g>
   <g id="text_12">
    <!-- clinton -->
    <g transform="translate(661.353641 372.396254)scale(0.08 -0.08)">
     <use xlink:href="#DejaVuSans-63"/>
     <use x="54.980469" xlink:href="#DejaVuSans-6c"/>
     <use x="82.763672" xlink:href="#DejaVuSans-69"/>
     <use x="110.546875" xlink:href="#DejaVuSans-6e"/>
     <use x="173.925781" xlink:href="#DejaVuSans-74"/>
     <use x="213.134766" xlink:href="#DejaVuSans-6f"/>
     <use x="274.316406" xlink:href="#DejaVuSans-6e"/>
    </g>
   </g>
   <g id="text_13">
    <!-- hillary -->
    <g transform="translate(697.885242 348.562027)scale(0.08 -0.08)">
     <use xlink:href="#DejaVuSans-68"/>
     <use x="63.378906" xlink:href="#DejaVuSans-69"/>
     <use x="91.162109" xlink:href="#DejaVuSans-6c"/>
     <use x="118.945312" xlink:href="#DejaVuSans-6c"/>
     <use x="146.728516" xlink:href="#DejaVuSans-61"/>
     <use x="208.007812" xlink:href="#DejaVuSans-72"/>
     <use x="249.121094" xlink:href="#DejaVuSans-79"/>
    </g>
   </g>
   <g id="text_14">
    <!-- clintons -->
    <g transform="translate(635.881107 377.826586)scale(0.08 -0.08)">
     <use xlink:href="#DejaVuSans-63"/>
     <use x="54.980469" xlink:href="#DejaVuSans-6c"/>
     <use x="82.763672" xlink:href="#DejaVuSans-69"/>
     <use x="110.546875" xlink:href="#DejaVuSans-6e"/>
     <use x="173.925781" xlink:href="#DejaVuSans-74"/>
     <use x="213.134766" xlink:href="#DejaVuSans-6f"/>
     <use x="274.316406" xlink:href="#DejaVuSans-6e"/>
     <use x="337.695312" xlink:href="#DejaVuSans-73"/>
    </g>
   </g>
   <g id="text_15">
    <!-- barack -->
    <defs>
     <path d="M 9.078125 75.984375 
L 18.109375 75.984375 
L 18.109375 31.109375 
L 44.921875 54.6875 
L 56.390625 54.6875 
L 27.390625 29.109375 
L 57.625 0 
L 45.90625 0 
L 18.109375 26.703125 
L 18.109375 0 
L 9.078125 0 
z
" id="DejaVuSans-6b"/>
    </defs>
    <g transform="translate(668.788109 392.977421)scale(0.08 -0.08)">
     <use xlink:href="#DejaVuSans-62"/>
     <use x="63.476562" xlink:href="#DejaVuSans-61"/>
     <use x="124.755859" xlink:href="#DejaVuSans-72"/>
     <use x="165.869141" xlink:href="#DejaVuSans-61"/>
     <use x="227.148438" xlink:href="#DejaVuSans-63"/>
     <use x="282.128906" xlink:href="#DejaVuSans-6b"/>
    </g>
   </g>
   <g id="text_16">
    <!-- judgment -->
    <defs>
     <path d="M 9.421875 54.6875 
L 18.40625 54.6875 
L 18.40625 -0.984375 
Q 18.40625 -11.421875 14.421875 -16.109375 
Q 10.453125 -20.796875 1.609375 -20.796875 
L -1.8125 -20.796875 
L -1.8125 -13.1875 
L 0.59375 -13.1875 
Q 5.71875 -13.1875 7.5625 -10.8125 
Q 9.421875 -8.453125 9.421875 -0.984375 
z
M 9.421875 75.984375 
L 18.40625 75.984375 
L 18.40625 64.59375 
L 9.421875 64.59375 
z
" id="DejaVuSans-6a"/>
     <path d="M 8.5 21.578125 
L 8.5 54.6875 
L 17.484375 54.6875 
L 17.484375 21.921875 
Q 17.484375 14.15625 20.5 10.265625 
Q 23.53125 6.390625 29.59375 6.390625 
Q 36.859375 6.390625 41.078125 11.03125 
Q 45.3125 15.671875 45.3125 23.6875 
L 45.3125 54.6875 
L 54.296875 54.6875 
L 54.296875 0 
L 45.3125 0 
L 45.3125 8.40625 
Q 42.046875 3.421875 37.71875 1 
Q 33.40625 -1.421875 27.6875 -1.421875 
Q 18.265625 -1.421875 13.375 4.4375 
Q 8.5 10.296875 8.5 21.578125 
M 31.109375 56 
z
" id="DejaVuSans-75"/>
     <path d="M 45.40625 46.390625 
L 45.40625 75.984375 
L 54.390625 75.984375 
L 54.390625 0 
L 45.40625 0 
L 45.40625 8.203125 
Q 42.578125 3.328125 38.25 0.953125 
Q 33.9375 -1.421875 27.875 -1.421875 
Q 17.96875 -1.421875 11.734375 6.484375 
Q 5.515625 14.40625 5.515625 27.296875 
Q 5.515625 40.1875 11.734375 48.09375 
Q 17.96875 56 27.875 56 
Q 33.9375 56 38.25 53.625 
Q 42.578125 51.265625 45.40625 46.390625 
M 14.796875 27.296875 
Q 14.796875 17.390625 18.875 11.75 
Q 22.953125 6.109375 30.078125 6.109375 
Q 37.203125 6.109375 41.296875 11.75 
Q 45.40625 17.390625 45.40625 27.296875 
Q 45.40625 37.203125 41.296875 42.84375 
Q 37.203125 48.484375 30.078125 48.484375 
Q 22.953125 48.484375 18.875 42.84375 
Q 14.796875 37.203125 14.796875 27.296875 
" id="DejaVuSans-64"/>
     <path d="M 45.40625 27.984375 
Q 45.40625 37.75 41.375 43.109375 
Q 37.359375 48.484375 30.078125 48.484375 
Q 22.859375 48.484375 18.828125 43.109375 
Q 14.796875 37.75 14.796875 27.984375 
Q 14.796875 18.265625 18.828125 12.890625 
Q 22.859375 7.515625 30.078125 7.515625 
Q 37.359375 7.515625 41.375 12.890625 
Q 45.40625 18.265625 45.40625 27.984375 
M 54.390625 6.78125 
Q 54.390625 -7.171875 48.1875 -13.984375 
Q 42 -20.796875 29.203125 -20.796875 
Q 24.46875 -20.796875 20.265625 -20.09375 
Q 16.0625 -19.390625 12.109375 -17.921875 
L 12.109375 -9.1875 
Q 16.0625 -11.328125 19.921875 -12.34375 
Q 23.78125 -13.375 27.78125 -13.375 
Q 36.625 -13.375 41.015625 -8.765625 
Q 45.40625 -4.15625 45.40625 5.171875 
L 45.40625 9.625 
Q 42.625 4.78125 38.28125 2.390625 
Q 33.9375 0 27.875 0 
Q 17.828125 0 11.671875 7.65625 
Q 5.515625 15.328125 5.515625 27.984375 
Q 5.515625 40.671875 11.671875 48.328125 
Q 17.828125 56 27.875 56 
Q 33.9375 56 38.28125 53.609375 
Q 42.625 51.21875 45.40625 46.390625 
L 45.40625 54.6875 
L 54.390625 54.6875 
z
" id="DejaVuSans-67"/>
     <path d="M 52 44.1875 
Q 55.375 50.25 60.0625 53.125 
Q 64.75 56 71.09375 56 
Q 79.640625 56 84.28125 50.015625 
Q 88.921875 44.046875 88.921875 33.015625 
L 88.921875 0 
L 79.890625 0 
L 79.890625 32.71875 
Q 79.890625 40.578125 77.09375 44.375 
Q 74.3125 48.1875 68.609375 48.1875 
Q 61.625 48.1875 57.5625 43.546875 
Q 53.515625 38.921875 53.515625 30.90625 
L 53.515625 0 
L 44.484375 0 
L 44.484375 32.71875 
Q 44.484375 40.625 41.703125 44.40625 
Q 38.921875 48.1875 33.109375 48.1875 
Q 26.21875 48.1875 22.15625 43.53125 
Q 18.109375 38.875 18.109375 30.90625 
L 18.109375 0 
L 9.078125 0 
L 9.078125 54.6875 
L 18.109375 54.6875 
L 18.109375 46.1875 
Q 21.1875 51.21875 25.484375 53.609375 
Q 29.78125 56 35.6875 56 
Q 41.65625 56 45.828125 52.96875 
Q 50 49.953125 52 44.1875 
" id="DejaVuSans-6d"/>
    </defs>
    <g transform="translate(700.219122 365.707914)scale(0.08 -0.08)">
     <use xlink:href="#DejaVuSans-6a"/>
     <use x="27.783203" xlink:href="#DejaVuSans-75"/>
     <use x="91.162109" xlink:href="#DejaVuSans-64"/>
     <use x="154.638672" xlink:href="#DejaVuSans-67"/>
     <use x="218.115234" xlink:href="#DejaVuSans-6d"/>
     <use x="315.527344" xlink:href="#DejaVuSans-65"/>
     <use x="377.050781" xlink:href="#DejaVuSans-6e"/>
     <use x="440.429688" xlink:href="#DejaVuSans-74"/>
    </g>
   </g>
   <g id="text_17">
    <!-- clinton's -->
    <g transform="translate(380.838248 213.453956)scale(0.08 -0.08)">
     <use xlink:href="#DejaVuSans-63"/>
     <use x="54.980469" xlink:href="#DejaVuSans-6c"/>
     <use x="82.763672" xlink:href="#DejaVuSans-69"/>
     <use x="110.546875" xlink:href="#DejaVuSans-6e"/>
     <use x="173.925781" xlink:href="#DejaVuSans-74"/>
     <use x="213.134766" xlink:href="#DejaVuSans-6f"/>
     <use x="274.316406" xlink:href="#DejaVuSans-6e"/>
     <use x="337.695312" xlink:href="#DejaVuSans-27"/>
     <use x="365.185547" xlink:href="#DejaVuSans-73"/>
    </g>
   </g>
   <g id="text_18">
    <!-- clinton -->
    <g transform="translate(674.845192 376.832754)scale(0.08 -0.08)">
     <use xlink:href="#DejaVuSans-63"/>
     <use x="54.980469" xlink:href="#DejaVuSans-6c"/>
     <use x="82.763672" xlink:href="#DejaVuSans-69"/>
     <use x="110.546875" xlink:href="#DejaVuSans-6e"/>
     <use x="173.925781" xlink:href="#DejaVuSans-74"/>
     <use x="213.134766" xlink:href="#DejaVuSans-6f"/>
     <use x="274.316406" xlink:href="#DejaVuSans-6e"/>
    </g>
   </g>
   <g id="text_19">
    <!-- crooked -->
    <g transform="translate(643.042196 189.072847)scale(0.08 -0.08)">
     <use xlink:href="#DejaVuSans-63"/>
     <use x="54.980469" xlink:href="#DejaVuSans-72"/>
     <use x="96.0625" xlink:href="#DejaVuSans-6f"/>
     <use x="157.244141" xlink:href="#DejaVuSans-6f"/>
     <use x="218.425781" xlink:href="#DejaVuSans-6b"/>
     <use x="276.289062" xlink:href="#DejaVuSans-65"/>
     <use x="337.8125" xlink:href="#DejaVuSans-64"/>
    </g>
   </g>
   <g id="text_20">
    <!-- clinton -->
    <g transform="translate(1035.06998 551.0614)scale(0.08 -0.08)">
     <use xlink:href="#DejaVuSans-63"/>
     <use x="54.980469" xlink:href="#DejaVuSans-6c"/>
     <use x="82.763672" xlink:href="#DejaVuSans-69"/>
     <use x="110.546875" xlink:href="#DejaVuSans-6e"/>
     <use x="173.925781" xlink:href="#DejaVuSans-74"/>
     <use x="213.134766" xlink:href="#DejaVuSans-6f"/>
     <use x="274.316406" xlink:href="#DejaVuSans-6e"/>
    </g>
   </g>
   <g id="text_21">
    <!-- she -->
    <g transform="translate(690.973282 417.461321)scale(0.08 -0.08)">
     <use xlink:href="#DejaVuSans-73"/>
     <use x="52.099609" xlink:href="#DejaVuSans-68"/>
     <use x="115.478516" xlink:href="#DejaVuSans-65"/>
    </g>
   </g>
   <g id="text_22">
    <!-- her -->
    <g transform="translate(531.237569 244.47604)scale(0.08 -0.08)">
     <use xlink:href="#DejaVuSans-68"/>
     <use x="63.378906" xlink:href="#DejaVuSans-65"/>
     <use x="124.902344" xlink:href="#DejaVuSans-72"/>
    </g>
   </g>
   <g id="text_23">
    <!-- bill -->
    <g transform="translate(730.658272 406.292437)scale(0.08 -0.08)">
     <use xlink:href="#DejaVuSans-62"/>
     <use x="63.476562" xlink:href="#DejaVuSans-69"/>
     <use x="91.259766" xlink:href="#DejaVuSans-6c"/>
     <use x="119.042969" xlink:href="#DejaVuSans-6c"/>
    </g>
   </g>
   <g id="text_24">
    <!-- clinton -->
    <g transform="translate(464.933556 360.495236)scale(0.08 -0.08)">
     <use xlink:href="#DejaVuSans-63"/>
     <use x="54.980469" xlink:href="#DejaVuSans-6c"/>
     <use x="82.763672" xlink:href="#DejaVuSans-69"/>
     <use x="110.546875" xlink:href="#DejaVuSans-6e"/>
     <use x="173.925781" xlink:href="#DejaVuSans-74"/>
     <use x="213.134766" xlink:href="#DejaVuSans-6f"/>
     <use x="274.316406" xlink:href="#DejaVuSans-6e"/>
    </g>
   </g>
   <g id="text_25">
    <!-- she -->
    <g transform="translate(683.659565 424.479295)scale(0.08 -0.08)">
     <use xlink:href="#DejaVuSans-73"/>
     <use x="52.099609" xlink:href="#DejaVuSans-68"/>
     <use x="115.478516" xlink:href="#DejaVuSans-65"/>
    </g>
   </g>
   <g id="text_26">
    <!-- hillary -->
    <g transform="translate(265.021536 490.652319)scale(0.08 -0.08)">
     <use xlink:href="#DejaVuSans-68"/>
     <use x="63.378906" xlink:href="#DejaVuSans-69"/>
     <use x="91.162109" xlink:href="#DejaVuSans-6c"/>
     <use x="118.945312" xlink:href="#DejaVuSans-6c"/>
     <use x="146.728516" xlink:href="#DejaVuSans-61"/>
     <use x="208.007812" xlink:href="#DejaVuSans-72"/>
     <use x="249.121094" xlink:href="#DejaVuSans-79"/>
    </g>
   </g>
   <g id="text_27">
    <!-- clintons -->
    <g transform="translate(968.32704 398.26375)scale(0.08 -0.08)">
     <use xlink:href="#DejaVuSans-63"/>
     <use x="54.980469" xlink:href="#DejaVuSans-6c"/>
     <use x="82.763672" xlink:href="#DejaVuSans-69"/>
     <use x="110.546875" xlink:href="#DejaVuSans-6e"/>
     <use x="173.925781" xlink:href="#DejaVuSans-74"/>
     <use x="213.134766" xlink:href="#DejaVuSans-6f"/>
     <use x="274.316406" xlink:href="#DejaVuSans-6e"/>
     <use x="337.695312" xlink:href="#DejaVuSans-73"/>
    </g>
   </g>
   <g id="text_28">
    <!-- hillary's -->
    <g transform="translate(682.228986 342.453313)scale(0.08 -0.08)">
     <use xlink:href="#DejaVuSans-68"/>
     <use x="63.378906" xlink:href="#DejaVuSans-69"/>
     <use x="91.162109" xlink:href="#DejaVuSans-6c"/>
     <use x="118.945312" xlink:href="#DejaVuSans-6c"/>
     <use x="146.728516" xlink:href="#DejaVuSans-61"/>
     <use x="208.007812" xlink:href="#DejaVuSans-72"/>
     <use x="249.121094" xlink:href="#DejaVuSans-79"/>
     <use x="308.300781" xlink:href="#DejaVuSans-27"/>
     <use x="335.791016" xlink:href="#DejaVuSans-73"/>
    </g>
   </g>
   <g id="text_29">
    <!-- deplorable -->
    <defs>
     <path d="M 18.109375 8.203125 
L 18.109375 -20.796875 
L 9.078125 -20.796875 
L 9.078125 54.6875 
L 18.109375 54.6875 
L 18.109375 46.390625 
Q 20.953125 51.265625 25.265625 53.625 
Q 29.59375 56 35.59375 56 
Q 45.5625 56 51.78125 48.09375 
Q 58.015625 40.1875 58.015625 27.296875 
Q 58.015625 14.40625 51.78125 6.484375 
Q 45.5625 -1.421875 35.59375 -1.421875 
Q 29.59375 -1.421875 25.265625 0.953125 
Q 20.953125 3.328125 18.109375 8.203125 
M 48.6875 27.296875 
Q 48.6875 37.203125 44.609375 42.84375 
Q 40.53125 48.484375 33.40625 48.484375 
Q 26.265625 48.484375 22.1875 42.84375 
Q 18.109375 37.203125 18.109375 27.296875 
Q 18.109375 17.390625 22.1875 11.75 
Q 26.265625 6.109375 33.40625 6.109375 
Q 40.53125 6.109375 44.609375 11.75 
Q 48.6875 17.390625 48.6875 27.296875 
" id="DejaVuSans-70"/>
    </defs>
    <g transform="translate(716.7364 365.928587)scale(0.08 -0.08)">
     <use xlink:href="#DejaVuSans-64"/>
     <use x="63.476562" xlink:href="#DejaVuSans-65"/>
     <use x="125" xlink:href="#DejaVuSans-70"/>
     <use x="188.476562" xlink:href="#DejaVuSans-6c"/>
     <use x="216.259766" xlink:href="#DejaVuSans-6f"/>
     <use x="277.441406" xlink:href="#DejaVuSans-72"/>
     <use x="318.554688" xlink:href="#DejaVuSans-61"/>
     <use x="379.833984" xlink:href="#DejaVuSans-62"/>
     <use x="443.310547" xlink:href="#DejaVuSans-6c"/>
     <use x="471.09375" xlink:href="#DejaVuSans-65"/>
    </g>
   </g>
   <g id="text_30">
    <!-- she -->
    <g transform="translate(694.567798 459.235139)scale(0.08 -0.08)">
     <use xlink:href="#DejaVuSans-73"/>
     <use x="52.099609" xlink:href="#DejaVuSans-68"/>
     <use x="115.478516" xlink:href="#DejaVuSans-65"/>
    </g>
   </g>
   <g id="text_31">
    <!-- she -->
    <g transform="translate(697.266854 426.140177)scale(0.08 -0.08)">
     <use xlink:href="#DejaVuSans-73"/>
     <use x="52.099609" xlink:href="#DejaVuSans-68"/>
     <use x="115.478516" xlink:href="#DejaVuSans-65"/>
    </g>
   </g>
   <g id="text_32">
    <!-- deplorable -->
    <g transform="translate(669.289965 470.748473)scale(0.08 -0.08)">
     <use xlink:href="#DejaVuSans-64"/>
     <use x="63.476562" xlink:href="#DejaVuSans-65"/>
     <use x="125" xlink:href="#DejaVuSans-70"/>
     <use x="188.476562" xlink:href="#DejaVuSans-6c"/>
     <use x="216.259766" xlink:href="#DejaVuSans-6f"/>
     <use x="277.441406" xlink:href="#DejaVuSans-72"/>
     <use x="318.554688" xlink:href="#DejaVuSans-61"/>
     <use x="379.833984" xlink:href="#DejaVuSans-62"/>
     <use x="443.310547" xlink:href="#DejaVuSans-6c"/>
     <use x="471.09375" xlink:href="#DejaVuSans-65"/>
    </g>
   </g>
   <g id="text_33">
    <!-- she -->
    <g transform="translate(928.047693 230.511653)scale(0.08 -0.08)">
     <use xlink:href="#DejaVuSans-73"/>
     <use x="52.099609" xlink:href="#DejaVuSans-68"/>
     <use x="115.478516" xlink:href="#DejaVuSans-65"/>
    </g>
   </g>
   <g id="text_34">
    <!-- she's -->
    <g transform="translate(738.550036 367.183992)scale(0.08 -0.08)">
     <use xlink:href="#DejaVuSans-73"/>
     <use x="52.099609" xlink:href="#DejaVuSans-68"/>
     <use x="115.478516" xlink:href="#DejaVuSans-65"/>
     <use x="177.001953" xlink:href="#DejaVuSans-27"/>
     <use x="204.492188" xlink:href="#DejaVuSans-73"/>
    </g>
   </g>
   <g id="text_35">
    <!-- clinton -->
    <g transform="translate(643.090657 361.22569)scale(0.08 -0.08)">
     <use xlink:href="#DejaVuSans-63"/>
     <use x="54.980469" xlink:href="#DejaVuSans-6c"/>
     <use x="82.763672" xlink:href="#DejaVuSans-69"/>
     <use x="110.546875" xlink:href="#DejaVuSans-6e"/>
     <use x="173.925781" xlink:href="#DejaVuSans-74"/>
     <use x="213.134766" xlink:href="#DejaVuSans-6f"/>
     <use x="274.316406" xlink:href="#DejaVuSans-6e"/>
    </g>
   </g>
   <g id="text_36">
    <!-- she -->
    <g transform="translate(700.577696 442.816987)scale(0.08 -0.08)">
     <use xlink:href="#DejaVuSans-73"/>
     <use x="52.099609" xlink:href="#DejaVuSans-68"/>
     <use x="115.478516" xlink:href="#DejaVuSans-65"/>
    </g>
   </g>
   <g id="text_37">
    <!-- bernie -->
    <g transform="translate(655.962699 321.316489)scale(0.08 -0.08)">
     <use xlink:href="#DejaVuSans-62"/>
     <use x="63.476562" xlink:href="#DejaVuSans-65"/>
     <use x="125" xlink:href="#DejaVuSans-72"/>
     <use x="166.097656" xlink:href="#DejaVuSans-6e"/>
     <use x="229.476562" xlink:href="#DejaVuSans-69"/>
     <use x="257.259766" xlink:href="#DejaVuSans-65"/>
    </g>
   </g>
   <g id="text_38">
    <!-- she's -->
    <g transform="translate(774.722625 388.468031)scale(0.08 -0.08)">
     <use xlink:href="#DejaVuSans-73"/>
     <use x="52.099609" xlink:href="#DejaVuSans-68"/>
     <use x="115.478516" xlink:href="#DejaVuSans-65"/>
     <use x="177.001953" xlink:href="#DejaVuSans-27"/>
     <use x="204.492188" xlink:href="#DejaVuSans-73"/>
    </g>
   </g>
   <g id="text_39">
    <!-- sanders -->
    <g transform="translate(664.769275 325.644503)scale(0.08 -0.08)">
     <use xlink:href="#DejaVuSans-73"/>
     <use x="52.099609" xlink:href="#DejaVuSans-61"/>
     <use x="113.378906" xlink:href="#DejaVuSans-6e"/>
     <use x="176.757812" xlink:href="#DejaVuSans-64"/>
     <use x="240.234375" xlink:href="#DejaVuSans-65"/>
     <use x="301.757812" xlink:href="#DejaVuSans-72"/>
     <use x="342.871094" xlink:href="#DejaVuSans-73"/>
    </g>
   </g>
   <g id="text_40">
    <!-- haiti -->
    <g transform="translate(447.263947 484.539289)scale(0.08 -0.08)">
     <use xlink:href="#DejaVuSans-68"/>
     <use x="63.378906" xlink:href="#DejaVuSans-61"/>
     <use x="124.658203" xlink:href="#DejaVuSans-69"/>
     <use x="152.441406" xlink:href="#DejaVuSans-74"/>
     <use x="191.650391" xlink:href="#DejaVuSans-69"/>
    </g>
   </g>
   <g id="text_41">
    <!-- clinton -->
    <g transform="translate(648.415286 370.183429)scale(0.08 -0.08)">
     <use xlink:href="#DejaVuSans-63"/>
     <use x="54.980469" xlink:href="#DejaVuSans-6c"/>
     <use x="82.763672" xlink:href="#DejaVuSans-69"/>
     <use x="110.546875" xlink:href="#DejaVuSans-6e"/>
     <use x="173.925781" xlink:href="#DejaVuSans-74"/>
     <use x="213.134766" xlink:href="#DejaVuSans-6f"/>
     <use x="274.316406" xlink:href="#DejaVuSans-6e"/>
    </g>
   </g>
   <g id="text_42">
    <!-- hillary -->
    <g transform="translate(675.518838 362.241153)scale(0.08 -0.08)">
     <use xlink:href="#DejaVuSans-68"/>
     <use x="63.378906" xlink:href="#DejaVuSans-69"/>
     <use x="91.162109" xlink:href="#DejaVuSans-6c"/>
     <use x="118.945312" xlink:href="#DejaVuSans-6c"/>
     <use x="146.728516" xlink:href="#DejaVuSans-61"/>
     <use x="208.007812" xlink:href="#DejaVuSans-72"/>
     <use x="249.121094" xlink:href="#DejaVuSans-79"/>
    </g>
   </g>
   <g id="text_43">
    <!-- deplorable -->
    <g transform="translate(692.406819 328.231134)scale(0.08 -0.08)">
     <use xlink:href="#DejaVuSans-64"/>
     <use x="63.476562" xlink:href="#DejaVuSans-65"/>
     <use x="125" xlink:href="#DejaVuSans-70"/>
     <use x="188.476562" xlink:href="#DejaVuSans-6c"/>
     <use x="216.259766" xlink:href="#DejaVuSans-6f"/>
     <use x="277.441406" xlink:href="#DejaVuSans-72"/>
     <use x="318.554688" xlink:href="#DejaVuSans-61"/>
     <use x="379.833984" xlink:href="#DejaVuSans-62"/>
     <use x="443.310547" xlink:href="#DejaVuSans-6c"/>
     <use x="471.09375" xlink:href="#DejaVuSans-65"/>
    </g>
   </g>
   <g id="text_44">
    <!-- haiti -->
    <g transform="translate(1036.8 103.68)scale(0.08 -0.08)">
     <use xlink:href="#DejaVuSans-68"/>
     <use x="63.378906" xlink:href="#DejaVuSans-61"/>
     <use x="124.658203" xlink:href="#DejaVuSans-69"/>
     <use x="152.441406" xlink:href="#DejaVuSans-74"/>
     <use x="191.650391" xlink:href="#DejaVuSans-69"/>
    </g>
   </g>
   <g id="text_45">
    <!-- clinton -->
    <g transform="translate(843.47344 395.162077)scale(0.08 -0.08)">
     <use xlink:href="#DejaVuSans-63"/>
     <use x="54.980469" xlink:href="#DejaVuSans-6c"/>
     <use x="82.763672" xlink:href="#DejaVuSans-69"/>
     <use x="110.546875" xlink:href="#DejaVuSans-6e"/>
     <use x="173.925781" xlink:href="#DejaVuSans-74"/>
     <use x="213.134766" xlink:href="#DejaVuSans-6f"/>
     <use x="274.316406" xlink:href="#DejaVuSans-6e"/>
    </g>
   </g>
   <g id="text_46">
    <!-- she -->
    <g transform="translate(492.404449 768.96)scale(0.08 -0.08)">
     <use xlink:href="#DejaVuSans-73"/>
     <use x="52.099609" xlink:href="#DejaVuSans-68"/>
     <use x="115.478516" xlink:href="#DejaVuSans-65"/>
    </g>
   </g>
   <g id="text_47">
    <!-- she -->
    <g transform="translate(691.916906 222.873868)scale(0.08 -0.08)">
     <use xlink:href="#DejaVuSans-73"/>
     <use x="52.099609" xlink:href="#DejaVuSans-68"/>
     <use x="115.478516" xlink:href="#DejaVuSans-65"/>
    </g>
   </g>
   <g id="text_48">
    <!-- crooked -->
    <g transform="translate(729.909192 318.601302)scale(0.08 -0.08)">
     <use xlink:href="#DejaVuSans-63"/>
     <use x="54.980469" xlink:href="#DejaVuSans-72"/>
     <use x="96.0625" xlink:href="#DejaVuSans-6f"/>
     <use x="157.244141" xlink:href="#DejaVuSans-6f"/>
     <use x="218.425781" xlink:href="#DejaVuSans-6b"/>
     <use x="276.289062" xlink:href="#DejaVuSans-65"/>
     <use x="337.8125" xlink:href="#DejaVuSans-64"/>
    </g>
   </g>
   <g id="text_49">
    <!-- clinton -->
    <g transform="translate(650.957507 352.01588)scale(0.08 -0.08)">
     <use xlink:href="#DejaVuSans-63"/>
     <use x="54.980469" xlink:href="#DejaVuSans-6c"/>
     <use x="82.763672" xlink:href="#DejaVuSans-69"/>
     <use x="110.546875" xlink:href="#DejaVuSans-6e"/>
     <use x="173.925781" xlink:href="#DejaVuSans-74"/>
     <use x="213.134766" xlink:href="#DejaVuSans-6f"/>
     <use x="274.316406" xlink:href="#DejaVuSans-6e"/>
    </g>
   </g>
   <g id="text_50">
    <!-- hillary -->
    <g transform="translate(678.907618 354.321881)scale(0.08 -0.08)">
     <use xlink:href="#DejaVuSans-68"/>
     <use x="63.378906" xlink:href="#DejaVuSans-69"/>
     <use x="91.162109" xlink:href="#DejaVuSans-6c"/>
     <use x="118.945312" xlink:href="#DejaVuSans-6c"/>
     <use x="146.728516" xlink:href="#DejaVuSans-61"/>
     <use x="208.007812" xlink:href="#DejaVuSans-72"/>
     <use x="249.121094" xlink:href="#DejaVuSans-79"/>
    </g>
   </g>
   <g id="text_51">
    <!-- clintons -->
    <g transform="translate(652.716683 383.704565)scale(0.08 -0.08)">
     <use xlink:href="#DejaVuSans-63"/>
     <use x="54.980469" xlink:href="#DejaVuSans-6c"/>
     <use x="82.763672" xlink:href="#DejaVuSans-69"/>
     <use x="110.546875" xlink:href="#DejaVuSans-6e"/>
     <use x="173.925781" xlink:href="#DejaVuSans-74"/>
     <use x="213.134766" xlink:href="#DejaVuSans-6f"/>
     <use x="274.316406" xlink:href="#DejaVuSans-6e"/>
     <use x="337.695312" xlink:href="#DejaVuSans-73"/>
    </g>
   </g>
   <g id="text_52">
    <!-- herself -->
    <defs>
     <path d="M 37.109375 75.984375 
L 37.109375 68.5 
L 28.515625 68.5 
Q 23.6875 68.5 21.796875 66.546875 
Q 19.921875 64.59375 19.921875 59.515625 
L 19.921875 54.6875 
L 34.71875 54.6875 
L 34.71875 47.703125 
L 19.921875 47.703125 
L 19.921875 0 
L 10.890625 0 
L 10.890625 47.703125 
L 2.296875 47.703125 
L 2.296875 54.6875 
L 10.890625 54.6875 
L 10.890625 58.5 
Q 10.890625 67.625 15.140625 71.796875 
Q 19.390625 75.984375 28.609375 75.984375 
z
" id="DejaVuSans-66"/>
    </defs>
    <g transform="translate(611.872162 209.386878)scale(0.08 -0.08)">
     <use xlink:href="#DejaVuSans-68"/>
     <use x="63.378906" xlink:href="#DejaVuSans-65"/>
     <use x="124.902344" xlink:href="#DejaVuSans-72"/>
     <use x="166.015625" xlink:href="#DejaVuSans-73"/>
     <use x="218.115234" xlink:href="#DejaVuSans-65"/>
     <use x="279.638672" xlink:href="#DejaVuSans-6c"/>
     <use x="307.421875" xlink:href="#DejaVuSans-66"/>
    </g>
   </g>
   <g id="text_53">
    <!-- clinton -->
    <g transform="translate(658.085925 361.758363)scale(0.08 -0.08)">
     <use xlink:href="#DejaVuSans-63"/>
     <use x="54.980469" xlink:href="#DejaVuSans-6c"/>
     <use x="82.763672" xlink:href="#DejaVuSans-69"/>
     <use x="110.546875" xlink:href="#DejaVuSans-6e"/>
     <use x="173.925781" xlink:href="#DejaVuSans-74"/>
     <use x="213.134766" xlink:href="#DejaVuSans-6f"/>
     <use x="274.316406" xlink:href="#DejaVuSans-6e"/>
    </g>
   </g>
   <g id="text_54">
    <!-- irredeemable -->
    <g transform="translate(775.735414 206.342645)scale(0.08 -0.08)">
     <use xlink:href="#DejaVuSans-69"/>
     <use x="27.783203" xlink:href="#DejaVuSans-72"/>
     <use x="68.880859" xlink:href="#DejaVuSans-72"/>
     <use x="109.962891" xlink:href="#DejaVuSans-65"/>
     <use x="171.486328" xlink:href="#DejaVuSans-64"/>
     <use x="234.962891" xlink:href="#DejaVuSans-65"/>
     <use x="296.486328" xlink:href="#DejaVuSans-65"/>
     <use x="358.009766" xlink:href="#DejaVuSans-6d"/>
     <use x="455.421875" xlink:href="#DejaVuSans-61"/>
     <use x="516.701172" xlink:href="#DejaVuSans-62"/>
     <use x="580.177734" xlink:href="#DejaVuSans-6c"/>
     <use x="607.960938" xlink:href="#DejaVuSans-65"/>
    </g>
   </g>
   <g id="text_55">
    <!-- hilary -->
    <g transform="translate(731.501976 554.454629)scale(0.08 -0.08)">
     <use xlink:href="#DejaVuSans-68"/>
     <use x="63.378906" xlink:href="#DejaVuSans-69"/>
     <use x="91.162109" xlink:href="#DejaVuSans-6c"/>
     <use x="118.945312" xlink:href="#DejaVuSans-61"/>
     <use x="180.224609" xlink:href="#DejaVuSans-72"/>
     <use x="221.337891" xlink:href="#DejaVuSans-79"/>
    </g>
   </g>
   <g id="text_56">
    <!-- unfit -->
    <g transform="translate(693.160767 360.094004)scale(0.08 -0.08)">
     <use xlink:href="#DejaVuSans-75"/>
     <use x="63.378906" xlink:href="#DejaVuSans-6e"/>
     <use x="126.757812" xlink:href="#DejaVuSans-66"/>
     <use x="161.962891" xlink:href="#DejaVuSans-69"/>
     <use x="189.746094" xlink:href="#DejaVuSans-74"/>
    </g>
   </g>
   <g id="text_57">
    <!-- clinton -->
    <g transform="translate(658.085925 361.758363)scale(0.08 -0.08)">
     <use xlink:href="#DejaVuSans-63"/>
     <use x="54.980469" xlink:href="#DejaVuSans-6c"/>
     <use x="82.763672" xlink:href="#DejaVuSans-69"/>
     <use x="110.546875" xlink:href="#DejaVuSans-6e"/>
     <use x="173.925781" xlink:href="#DejaVuSans-74"/>
     <use x="213.134766" xlink:href="#DejaVuSans-6f"/>
     <use x="274.316406" xlink:href="#DejaVuSans-6e"/>
    </g>
   </g>
   <g id="text_58">
    <!-- hillary -->
    <g transform="translate(806.043952 318.185045)scale(0.08 -0.08)">
     <use xlink:href="#DejaVuSans-68"/>
     <use x="63.378906" xlink:href="#DejaVuSans-69"/>
     <use x="91.162109" xlink:href="#DejaVuSans-6c"/>
     <use x="118.945312" xlink:href="#DejaVuSans-6c"/>
     <use x="146.728516" xlink:href="#DejaVuSans-61"/>
     <use x="208.007812" xlink:href="#DejaVuSans-72"/>
     <use x="249.121094" xlink:href="#DejaVuSans-79"/>
    </g>
   </g>
   <g id="text_59">
    <!-- she -->
    <g transform="translate(688.348902 445.40324)scale(0.08 -0.08)">
     <use xlink:href="#DejaVuSans-73"/>
     <use x="52.099609" xlink:href="#DejaVuSans-68"/>
     <use x="115.478516" xlink:href="#DejaVuSans-65"/>
    </g>
   </g>
   <g id="text_60">
    <!-- her -->
    <g transform="translate(642.85786 292.328084)scale(0.08 -0.08)">
     <use xlink:href="#DejaVuSans-68"/>
     <use x="63.378906" xlink:href="#DejaVuSans-65"/>
     <use x="124.902344" xlink:href="#DejaVuSans-72"/>
    </g>
   </g>
   <g id="text_61">
    <!-- opponent -->
    <g transform="translate(624.986806 346.863148)scale(0.08 -0.08)">
     <use xlink:href="#DejaVuSans-6f"/>
     <use x="61.181641" xlink:href="#DejaVuSans-70"/>
     <use x="124.658203" xlink:href="#DejaVuSans-70"/>
     <use x="188.134766" xlink:href="#DejaVuSans-6f"/>
     <use x="249.316406" xlink:href="#DejaVuSans-6e"/>
     <use x="312.695312" xlink:href="#DejaVuSans-65"/>
     <use x="374.21875" xlink:href="#DejaVuSans-6e"/>
     <use x="437.597656" xlink:href="#DejaVuSans-74"/>
    </g>
   </g>
   <g id="text_62">
    <!-- crooked -->
    <g transform="translate(731.196946 327.252915)scale(0.08 -0.08)">
     <use xlink:href="#DejaVuSans-63"/>
     <use x="54.980469" xlink:href="#DejaVuSans-72"/>
     <use x="96.0625" xlink:href="#DejaVuSans-6f"/>
     <use x="157.244141" xlink:href="#DejaVuSans-6f"/>
     <use x="218.425781" xlink:href="#DejaVuSans-6b"/>
     <use x="276.289062" xlink:href="#DejaVuSans-65"/>
     <use x="337.8125" xlink:href="#DejaVuSans-64"/>
    </g>
   </g>
   <g id="text_63">
    <!-- she -->
    <g transform="translate(677.788717 439.562045)scale(0.08 -0.08)">
     <use xlink:href="#DejaVuSans-73"/>
     <use x="52.099609" xlink:href="#DejaVuSans-68"/>
     <use x="115.478516" xlink:href="#DejaVuSans-65"/>
    </g>
   </g>
   <g id="text_64">
    <!-- clintons -->
    <g transform="translate(652.716683 383.704565)scale(0.08 -0.08)">
     <use xlink:href="#DejaVuSans-63"/>
     <use x="54.980469" xlink:href="#DejaVuSans-6c"/>
     <use x="82.763672" xlink:href="#DejaVuSans-69"/>
     <use x="110.546875" xlink:href="#DejaVuSans-6e"/>
     <use x="173.925781" xlink:href="#DejaVuSans-74"/>
     <use x="213.134766" xlink:href="#DejaVuSans-6f"/>
     <use x="274.316406" xlink:href="#DejaVuSans-6e"/>
     <use x="337.695312" xlink:href="#DejaVuSans-73"/>
    </g>
   </g>
   <g id="text_65">
    <!-- she -->
    <g transform="translate(674.533701 429.596861)scale(0.08 -0.08)">
     <use xlink:href="#DejaVuSans-73"/>
     <use x="52.099609" xlink:href="#DejaVuSans-68"/>
     <use x="115.478516" xlink:href="#DejaVuSans-65"/>
    </g>
   </g>
   <g id="text_66">
    <!-- clinton -->
    <g transform="translate(658.085925 361.758363)scale(0.08 -0.08)">
     <use xlink:href="#DejaVuSans-63"/>
     <use x="54.980469" xlink:href="#DejaVuSans-6c"/>
     <use x="82.763672" xlink:href="#DejaVuSans-69"/>
     <use x="110.546875" xlink:href="#DejaVuSans-6e"/>
     <use x="173.925781" xlink:href="#DejaVuSans-74"/>
     <use x="213.134766" xlink:href="#DejaVuSans-6f"/>
     <use x="274.316406" xlink:href="#DejaVuSans-6e"/>
    </g>
   </g>
   <g id="text_67">
    <!-- hillary -->
    <g transform="translate(668.659656 350.415415)scale(0.08 -0.08)">
     <use xlink:href="#DejaVuSans-68"/>
     <use x="63.378906" xlink:href="#DejaVuSans-69"/>
     <use x="91.162109" xlink:href="#DejaVuSans-6c"/>
     <use x="118.945312" xlink:href="#DejaVuSans-6c"/>
     <use x="146.728516" xlink:href="#DejaVuSans-61"/>
     <use x="208.007812" xlink:href="#DejaVuSans-72"/>
     <use x="249.121094" xlink:href="#DejaVuSans-79"/>
    </g>
   </g>
   <g id="text_68">
    <!-- she -->
    <g transform="translate(689.752839 434.399278)scale(0.08 -0.08)">
     <use xlink:href="#DejaVuSans-73"/>
     <use x="52.099609" xlink:href="#DejaVuSans-68"/>
     <use x="115.478516" xlink:href="#DejaVuSans-65"/>
    </g>
   </g>
   <g id="text_69">
    <!-- crooked -->
    <g transform="translate(715.444366 331.305147)scale(0.08 -0.08)">
     <use xlink:href="#DejaVuSans-63"/>
     <use x="54.980469" xlink:href="#DejaVuSans-72"/>
     <use x="96.0625" xlink:href="#DejaVuSans-6f"/>
     <use x="157.244141" xlink:href="#DejaVuSans-6f"/>
     <use x="218.425781" xlink:href="#DejaVuSans-6b"/>
     <use x="276.289062" xlink:href="#DejaVuSans-65"/>
     <use x="337.8125" xlink:href="#DejaVuSans-64"/>
    </g>
   </g>
   <g id="text_70">
    <!-- bernie -->
    <g transform="translate(696.333376 378.842253)scale(0.08 -0.08)">
     <use xlink:href="#DejaVuSans-62"/>
     <use x="63.476562" xlink:href="#DejaVuSans-65"/>
     <use x="125" xlink:href="#DejaVuSans-72"/>
     <use x="166.097656" xlink:href="#DejaVuSans-6e"/>
     <use x="229.476562" xlink:href="#DejaVuSans-69"/>
     <use x="257.259766" xlink:href="#DejaVuSans-65"/>
    </g>
   </g>
   <g id="text_71">
    <!-- crooked -->
    <g transform="translate(738.946184 322.605931)scale(0.08 -0.08)">
     <use xlink:href="#DejaVuSans-63"/>
     <use x="54.980469" xlink:href="#DejaVuSans-72"/>
     <use x="96.0625" xlink:href="#DejaVuSans-6f"/>
     <use x="157.244141" xlink:href="#DejaVuSans-6f"/>
     <use x="218.425781" xlink:href="#DejaVuSans-6b"/>
     <use x="276.289062" xlink:href="#DejaVuSans-65"/>
     <use x="337.8125" xlink:href="#DejaVuSans-64"/>
    </g>
   </g>
   <g id="text_72">
    <!-- she -->
    <g transform="translate(689.752839 434.399278)scale(0.08 -0.08)">
     <use xlink:href="#DejaVuSans-73"/>
     <use x="52.099609" xlink:href="#DejaVuSans-68"/>
     <use x="115.478516" xlink:href="#DejaVuSans-65"/>
    </g>
   </g>
   <g id="text_73">
    <!-- sanders -->
    <g transform="translate(669.751205 315.94002)scale(0.08 -0.08)">
     <use xlink:href="#DejaVuSans-73"/>
     <use x="52.099609" xlink:href="#DejaVuSans-61"/>
     <use x="113.378906" xlink:href="#DejaVuSans-6e"/>
     <use x="176.757812" xlink:href="#DejaVuSans-64"/>
     <use x="240.234375" xlink:href="#DejaVuSans-65"/>
     <use x="301.757812" xlink:href="#DejaVuSans-72"/>
     <use x="342.871094" xlink:href="#DejaVuSans-73"/>
    </g>
   </g>
   <g id="text_74">
    <!-- architect -->
    <g transform="translate(643.522488 400.51755)scale(0.08 -0.08)">
     <use xlink:href="#DejaVuSans-61"/>
     <use x="61.279297" xlink:href="#DejaVuSans-72"/>
     <use x="102.361328" xlink:href="#DejaVuSans-63"/>
     <use x="157.341797" xlink:href="#DejaVuSans-68"/>
     <use x="220.720703" xlink:href="#DejaVuSans-69"/>
     <use x="248.503906" xlink:href="#DejaVuSans-74"/>
     <use x="287.712891" xlink:href="#DejaVuSans-65"/>
     <use x="349.236328" xlink:href="#DejaVuSans-63"/>
     <use x="404.216797" xlink:href="#DejaVuSans-74"/>
    </g>
   </g>
   <g id="text_75">
    <!-- Cluster 24 - 74 Items -->
    <defs>
     <path d="M 64.40625 67.28125 
L 64.40625 56.890625 
Q 59.421875 61.53125 53.78125 63.8125 
Q 48.140625 66.109375 41.796875 66.109375 
Q 29.296875 66.109375 22.65625 58.46875 
Q 16.015625 50.828125 16.015625 36.375 
Q 16.015625 21.96875 22.65625 14.328125 
Q 29.296875 6.6875 41.796875 6.6875 
Q 48.140625 6.6875 53.78125 8.984375 
Q 59.421875 11.28125 64.40625 15.921875 
L 64.40625 5.609375 
Q 59.234375 2.09375 53.4375 0.328125 
Q 47.65625 -1.421875 41.21875 -1.421875 
Q 24.65625 -1.421875 15.125 8.703125 
Q 5.609375 18.84375 5.609375 36.375 
Q 5.609375 53.953125 15.125 64.078125 
Q 24.65625 74.21875 41.21875 74.21875 
Q 47.75 74.21875 53.53125 72.484375 
Q 59.328125 70.75 64.40625 67.28125 
" id="DejaVuSans-43"/>
     <path id="DejaVuSans-20"/>
     <path d="M 19.1875 8.296875 
L 53.609375 8.296875 
L 53.609375 0 
L 7.328125 0 
L 7.328125 8.296875 
Q 12.9375 14.109375 22.625 23.890625 
Q 32.328125 33.6875 34.8125 36.53125 
Q 39.546875 41.84375 41.421875 45.53125 
Q 43.3125 49.21875 43.3125 52.78125 
Q 43.3125 58.59375 39.234375 62.25 
Q 35.15625 65.921875 28.609375 65.921875 
Q 23.96875 65.921875 18.8125 64.3125 
Q 13.671875 62.703125 7.8125 59.421875 
L 7.8125 69.390625 
Q 13.765625 71.78125 18.9375 73 
Q 24.125 74.21875 28.421875 74.21875 
Q 39.75 74.21875 46.484375 68.546875 
Q 53.21875 62.890625 53.21875 53.421875 
Q 53.21875 48.921875 51.53125 44.890625 
Q 49.859375 40.875 45.40625 35.40625 
Q 44.1875 33.984375 37.640625 27.21875 
Q 31.109375 20.453125 19.1875 8.296875 
" id="DejaVuSans-32"/>
     <path d="M 37.796875 64.3125 
L 12.890625 25.390625 
L 37.796875 25.390625 
z
M 35.203125 72.90625 
L 47.609375 72.90625 
L 47.609375 25.390625 
L 58.015625 25.390625 
L 58.015625 17.1875 
L 47.609375 17.1875 
L 47.609375 0 
L 37.796875 0 
L 37.796875 17.1875 
L 4.890625 17.1875 
L 4.890625 26.703125 
z
" id="DejaVuSans-34"/>
     <path d="M 4.890625 31.390625 
L 31.203125 31.390625 
L 31.203125 23.390625 
L 4.890625 23.390625 
z
" id="DejaVuSans-2d"/>
     <path d="M 8.203125 72.90625 
L 55.078125 72.90625 
L 55.078125 68.703125 
L 28.609375 0 
L 18.3125 0 
L 43.21875 64.59375 
L 8.203125 64.59375 
z
" id="DejaVuSans-37"/>
     <path d="M 9.8125 72.90625 
L 19.671875 72.90625 
L 19.671875 0 
L 9.8125 0 
z
" id="DejaVuSans-49"/>
    </defs>
    <g transform="translate(527.258438 97.68)scale(0.12 -0.12)">
     <use xlink:href="#DejaVuSans-43"/>
     <use x="69.824219" xlink:href="#DejaVuSans-6c"/>
     <use x="97.607422" xlink:href="#DejaVuSans-75"/>
     <use x="160.986328" xlink:href="#DejaVuSans-73"/>
     <use x="213.085938" xlink:href="#DejaVuSans-74"/>
     <use x="252.294922" xlink:href="#DejaVuSans-65"/>
     <use x="313.818359" xlink:href="#DejaVuSans-72"/>
     <use x="354.931641" xlink:href="#DejaVuSans-20"/>
     <use x="386.71875" xlink:href="#DejaVuSans-32"/>
     <use x="450.341797" xlink:href="#DejaVuSans-34"/>
     <use x="513.964844" xlink:href="#DejaVuSans-20"/>
     <use x="545.751953" xlink:href="#DejaVuSans-2d"/>
     <use x="581.835938" xlink:href="#DejaVuSans-20"/>
     <use x="613.623047" xlink:href="#DejaVuSans-37"/>
     <use x="677.246094" xlink:href="#DejaVuSans-34"/>
     <use x="740.869141" xlink:href="#DejaVuSans-20"/>
     <use x="772.65625" xlink:href="#DejaVuSans-49"/>
     <use x="802.148438" xlink:href="#DejaVuSans-74"/>
     <use x="841.357422" xlink:href="#DejaVuSans-65"/>
     <use x="902.880859" xlink:href="#DejaVuSans-6d"/>
     <use x="1000.292969" xlink:href="#DejaVuSans-73"/>
    </g>
   </g>
  </g>
 </g>
</svg>
