<?xml version="1.0" encoding="utf-8" standalone="no"?>
<!DOCTYPE svg PUBLIC "-//W3C//DTD SVG 1.1//EN"
  "http://www.w3.org/Graphics/SVG/1.1/DTD/svg11.dtd">
<!-- Created with matplotlib (http://matplotlib.org/) -->
<svg height="864pt" version="1.1" viewBox="0 0 1152 864" width="1152pt" xmlns="http://www.w3.org/2000/svg" xmlns:xlink="http://www.w3.org/1999/xlink">
 <defs>
  <style type="text/css">
*{stroke-linecap:butt;stroke-linejoin:round;}
  </style>
 </defs>
 <g id="figure_1">
  <g id="patch_1">
   <path d="M 0 864 
L 1152 864 
L 1152 0 
L 0 0 
z
" style="fill:#ffffff;"/>
  </g>
  <g id="axes_1">
   <g id="text_1">
    <!-- picture -->
    <defs>
     <path d="M 18.109375 8.203125 
L 18.109375 -20.796875 
L 9.078125 -20.796875 
L 9.078125 54.6875 
L 18.109375 54.6875 
L 18.109375 46.390625 
Q 20.953125 51.265625 25.265625 53.625 
Q 29.59375 56 35.59375 56 
Q 45.5625 56 51.78125 48.09375 
Q 58.015625 40.1875 58.015625 27.296875 
Q 58.015625 14.40625 51.78125 6.484375 
Q 45.5625 -1.421875 35.59375 -1.421875 
Q 29.59375 -1.421875 25.265625 0.953125 
Q 20.953125 3.328125 18.109375 8.203125 
M 48.6875 27.296875 
Q 48.6875 37.203125 44.609375 42.84375 
Q 40.53125 48.484375 33.40625 48.484375 
Q 26.265625 48.484375 22.1875 42.84375 
Q 18.109375 37.203125 18.109375 27.296875 
Q 18.109375 17.390625 22.1875 11.75 
Q 26.265625 6.109375 33.40625 6.109375 
Q 40.53125 6.109375 44.609375 11.75 
Q 48.6875 17.390625 48.6875 27.296875 
" id="DejaVuSans-70"/>
     <path d="M 9.421875 54.6875 
L 18.40625 54.6875 
L 18.40625 0 
L 9.421875 0 
z
M 9.421875 75.984375 
L 18.40625 75.984375 
L 18.40625 64.59375 
L 9.421875 64.59375 
z
" id="DejaVuSans-69"/>
     <path d="M 48.78125 52.59375 
L 48.78125 44.1875 
Q 44.96875 46.296875 41.140625 47.34375 
Q 37.3125 48.390625 33.40625 48.390625 
Q 24.65625 48.390625 19.8125 42.84375 
Q 14.984375 37.3125 14.984375 27.296875 
Q 14.984375 17.28125 19.8125 11.734375 
Q 24.65625 6.203125 33.40625 6.203125 
Q 37.3125 6.203125 41.140625 7.25 
Q 44.96875 8.296875 48.78125 10.40625 
L 48.78125 2.09375 
Q 45.015625 0.34375 40.984375 -0.53125 
Q 36.96875 -1.421875 32.421875 -1.421875 
Q 20.0625 -1.421875 12.78125 6.34375 
Q 5.515625 14.109375 5.515625 27.296875 
Q 5.515625 40.671875 12.859375 48.328125 
Q 20.21875 56 33.015625 56 
Q 37.15625 56 41.109375 55.140625 
Q 45.0625 54.296875 48.78125 52.59375 
" id="DejaVuSans-63"/>
     <path d="M 18.3125 70.21875 
L 18.3125 54.6875 
L 36.8125 54.6875 
L 36.8125 47.703125 
L 18.3125 47.703125 
L 18.3125 18.015625 
Q 18.3125 11.328125 20.140625 9.421875 
Q 21.96875 7.515625 27.59375 7.515625 
L 36.8125 7.515625 
L 36.8125 0 
L 27.59375 0 
Q 17.1875 0 13.234375 3.875 
Q 9.28125 7.765625 9.28125 18.015625 
L 9.28125 47.703125 
L 2.6875 47.703125 
L 2.6875 54.6875 
L 9.28125 54.6875 
L 9.28125 70.21875 
z
" id="DejaVuSans-74"/>
     <path d="M 8.5 21.578125 
L 8.5 54.6875 
L 17.484375 54.6875 
L 17.484375 21.921875 
Q 17.484375 14.15625 20.5 10.265625 
Q 23.53125 6.390625 29.59375 6.390625 
Q 36.859375 6.390625 41.078125 11.03125 
Q 45.3125 15.671875 45.3125 23.6875 
L 45.3125 54.6875 
L 54.296875 54.6875 
L 54.296875 0 
L 45.3125 0 
L 45.3125 8.40625 
Q 42.046875 3.421875 37.71875 1 
Q 33.40625 -1.421875 27.6875 -1.421875 
Q 18.265625 -1.421875 13.375 4.4375 
Q 8.5 10.296875 8.5 21.578125 
M 31.109375 56 
z
" id="DejaVuSans-75"/>
     <path d="M 41.109375 46.296875 
Q 39.59375 47.171875 37.8125 47.578125 
Q 36.03125 48 33.890625 48 
Q 26.265625 48 22.1875 43.046875 
Q 18.109375 38.09375 18.109375 28.8125 
L 18.109375 0 
L 9.078125 0 
L 9.078125 54.6875 
L 18.109375 54.6875 
L 18.109375 46.1875 
Q 20.953125 51.171875 25.484375 53.578125 
Q 30.03125 56 36.53125 56 
Q 37.453125 56 38.578125 55.875 
Q 39.703125 55.765625 41.0625 55.515625 
z
" id="DejaVuSans-72"/>
     <path d="M 56.203125 29.59375 
L 56.203125 25.203125 
L 14.890625 25.203125 
Q 15.484375 15.921875 20.484375 11.0625 
Q 25.484375 6.203125 34.421875 6.203125 
Q 39.59375 6.203125 44.453125 7.46875 
Q 49.3125 8.734375 54.109375 11.28125 
L 54.109375 2.78125 
Q 49.265625 0.734375 44.1875 -0.34375 
Q 39.109375 -1.421875 33.890625 -1.421875 
Q 20.796875 -1.421875 13.15625 6.1875 
Q 5.515625 13.8125 5.515625 26.8125 
Q 5.515625 40.234375 12.765625 48.109375 
Q 20.015625 56 32.328125 56 
Q 43.359375 56 49.78125 48.890625 
Q 56.203125 41.796875 56.203125 29.59375 
M 47.21875 32.234375 
Q 47.125 39.59375 43.09375 43.984375 
Q 39.0625 48.390625 32.421875 48.390625 
Q 24.90625 48.390625 20.390625 44.140625 
Q 15.875 39.890625 15.1875 32.171875 
z
" id="DejaVuSans-65"/>
    </defs>
    <g transform="translate(556.751996 513.842356)scale(0.07 -0.07)">
     <use xlink:href="#DejaVuSans-70"/>
     <use x="63.476562" xlink:href="#DejaVuSans-69"/>
     <use x="91.259766" xlink:href="#DejaVuSans-63"/>
     <use x="146.240234" xlink:href="#DejaVuSans-74"/>
     <use x="185.449219" xlink:href="#DejaVuSans-75"/>
     <use x="248.828125" xlink:href="#DejaVuSans-72"/>
     <use x="289.910156" xlink:href="#DejaVuSans-65"/>
    </g>
   </g>
   <g id="text_2">
    <!-- gq -->
    <defs>
     <path d="M 45.40625 27.984375 
Q 45.40625 37.75 41.375 43.109375 
Q 37.359375 48.484375 30.078125 48.484375 
Q 22.859375 48.484375 18.828125 43.109375 
Q 14.796875 37.75 14.796875 27.984375 
Q 14.796875 18.265625 18.828125 12.890625 
Q 22.859375 7.515625 30.078125 7.515625 
Q 37.359375 7.515625 41.375 12.890625 
Q 45.40625 18.265625 45.40625 27.984375 
M 54.390625 6.78125 
Q 54.390625 -7.171875 48.1875 -13.984375 
Q 42 -20.796875 29.203125 -20.796875 
Q 24.46875 -20.796875 20.265625 -20.09375 
Q 16.0625 -19.390625 12.109375 -17.921875 
L 12.109375 -9.1875 
Q 16.0625 -11.328125 19.921875 -12.34375 
Q 23.78125 -13.375 27.78125 -13.375 
Q 36.625 -13.375 41.015625 -8.765625 
Q 45.40625 -4.15625 45.40625 5.171875 
L 45.40625 9.625 
Q 42.625 4.78125 38.28125 2.390625 
Q 33.9375 0 27.875 0 
Q 17.828125 0 11.671875 7.65625 
Q 5.515625 15.328125 5.515625 27.984375 
Q 5.515625 40.671875 11.671875 48.328125 
Q 17.828125 56 27.875 56 
Q 33.9375 56 38.28125 53.609375 
Q 42.625 51.21875 45.40625 46.390625 
L 45.40625 54.6875 
L 54.390625 54.6875 
z
" id="DejaVuSans-67"/>
     <path d="M 14.796875 27.296875 
Q 14.796875 17.390625 18.875 11.75 
Q 22.953125 6.109375 30.078125 6.109375 
Q 37.203125 6.109375 41.296875 11.75 
Q 45.40625 17.390625 45.40625 27.296875 
Q 45.40625 37.203125 41.296875 42.84375 
Q 37.203125 48.484375 30.078125 48.484375 
Q 22.953125 48.484375 18.875 42.84375 
Q 14.796875 37.203125 14.796875 27.296875 
M 45.40625 8.203125 
Q 42.578125 3.328125 38.25 0.953125 
Q 33.9375 -1.421875 27.875 -1.421875 
Q 17.96875 -1.421875 11.734375 6.484375 
Q 5.515625 14.40625 5.515625 27.296875 
Q 5.515625 40.1875 11.734375 48.09375 
Q 17.96875 56 27.875 56 
Q 33.9375 56 38.25 53.625 
Q 42.578125 51.265625 45.40625 46.390625 
L 45.40625 54.6875 
L 54.390625 54.6875 
L 54.390625 -20.796875 
L 45.40625 -20.796875 
z
" id="DejaVuSans-71"/>
    </defs>
    <g transform="translate(840.518887 474.021763)scale(0.07 -0.07)">
     <use xlink:href="#DejaVuSans-67"/>
     <use x="63.476562" xlink:href="#DejaVuSans-71"/>
    </g>
   </g>
   <g id="text_3">
    <!-- book -->
    <defs>
     <path d="M 48.6875 27.296875 
Q 48.6875 37.203125 44.609375 42.84375 
Q 40.53125 48.484375 33.40625 48.484375 
Q 26.265625 48.484375 22.1875 42.84375 
Q 18.109375 37.203125 18.109375 27.296875 
Q 18.109375 17.390625 22.1875 11.75 
Q 26.265625 6.109375 33.40625 6.109375 
Q 40.53125 6.109375 44.609375 11.75 
Q 48.6875 17.390625 48.6875 27.296875 
M 18.109375 46.390625 
Q 20.953125 51.265625 25.265625 53.625 
Q 29.59375 56 35.59375 56 
Q 45.5625 56 51.78125 48.09375 
Q 58.015625 40.1875 58.015625 27.296875 
Q 58.015625 14.40625 51.78125 6.484375 
Q 45.5625 -1.421875 35.59375 -1.421875 
Q 29.59375 -1.421875 25.265625 0.953125 
Q 20.953125 3.328125 18.109375 8.203125 
L 18.109375 0 
L 9.078125 0 
L 9.078125 75.984375 
L 18.109375 75.984375 
z
" id="DejaVuSans-62"/>
     <path d="M 30.609375 48.390625 
Q 23.390625 48.390625 19.1875 42.75 
Q 14.984375 37.109375 14.984375 27.296875 
Q 14.984375 17.484375 19.15625 11.84375 
Q 23.34375 6.203125 30.609375 6.203125 
Q 37.796875 6.203125 41.984375 11.859375 
Q 46.1875 17.53125 46.1875 27.296875 
Q 46.1875 37.015625 41.984375 42.703125 
Q 37.796875 48.390625 30.609375 48.390625 
M 30.609375 56 
Q 42.328125 56 49.015625 48.375 
Q 55.71875 40.765625 55.71875 27.296875 
Q 55.71875 13.875 49.015625 6.21875 
Q 42.328125 -1.421875 30.609375 -1.421875 
Q 18.84375 -1.421875 12.171875 6.21875 
Q 5.515625 13.875 5.515625 27.296875 
Q 5.515625 40.765625 12.171875 48.375 
Q 18.84375 56 30.609375 56 
" id="DejaVuSans-6f"/>
     <path d="M 9.078125 75.984375 
L 18.109375 75.984375 
L 18.109375 31.109375 
L 44.921875 54.6875 
L 56.390625 54.6875 
L 27.390625 29.109375 
L 57.625 0 
L 45.90625 0 
L 18.109375 26.703125 
L 18.109375 0 
L 9.078125 0 
z
" id="DejaVuSans-6b"/>
    </defs>
    <g transform="translate(864.538892 556.543554)scale(0.07 -0.07)">
     <use xlink:href="#DejaVuSans-62"/>
     <use x="63.476562" xlink:href="#DejaVuSans-6f"/>
     <use x="124.658203" xlink:href="#DejaVuSans-6f"/>
     <use x="185.839844" xlink:href="#DejaVuSans-6b"/>
    </g>
   </g>
   <g id="text_4">
    <!-- wish -->
    <defs>
     <path d="M 4.203125 54.6875 
L 13.1875 54.6875 
L 24.421875 12.015625 
L 35.59375 54.6875 
L 46.1875 54.6875 
L 57.421875 12.015625 
L 68.609375 54.6875 
L 77.59375 54.6875 
L 63.28125 0 
L 52.6875 0 
L 40.921875 44.828125 
L 29.109375 0 
L 18.5 0 
z
" id="DejaVuSans-77"/>
     <path d="M 44.28125 53.078125 
L 44.28125 44.578125 
Q 40.484375 46.53125 36.375 47.5 
Q 32.28125 48.484375 27.875 48.484375 
Q 21.1875 48.484375 17.84375 46.4375 
Q 14.5 44.390625 14.5 40.28125 
Q 14.5 37.15625 16.890625 35.375 
Q 19.28125 33.59375 26.515625 31.984375 
L 29.59375 31.296875 
Q 39.15625 29.25 43.1875 25.515625 
Q 47.21875 21.78125 47.21875 15.09375 
Q 47.21875 7.46875 41.1875 3.015625 
Q 35.15625 -1.421875 24.609375 -1.421875 
Q 20.21875 -1.421875 15.453125 -0.5625 
Q 10.6875 0.296875 5.421875 2 
L 5.421875 11.28125 
Q 10.40625 8.6875 15.234375 7.390625 
Q 20.0625 6.109375 24.8125 6.109375 
Q 31.15625 6.109375 34.5625 8.28125 
Q 37.984375 10.453125 37.984375 14.40625 
Q 37.984375 18.0625 35.515625 20.015625 
Q 33.0625 21.96875 24.703125 23.78125 
L 21.578125 24.515625 
Q 13.234375 26.265625 9.515625 29.90625 
Q 5.8125 33.546875 5.8125 39.890625 
Q 5.8125 47.609375 11.28125 51.796875 
Q 16.75 56 26.8125 56 
Q 31.78125 56 36.171875 55.265625 
Q 40.578125 54.546875 44.28125 53.078125 
" id="DejaVuSans-73"/>
     <path d="M 54.890625 33.015625 
L 54.890625 0 
L 45.90625 0 
L 45.90625 32.71875 
Q 45.90625 40.484375 42.875 44.328125 
Q 39.84375 48.1875 33.796875 48.1875 
Q 26.515625 48.1875 22.3125 43.546875 
Q 18.109375 38.921875 18.109375 30.90625 
L 18.109375 0 
L 9.078125 0 
L 9.078125 75.984375 
L 18.109375 75.984375 
L 18.109375 46.1875 
Q 21.34375 51.125 25.703125 53.5625 
Q 30.078125 56 35.796875 56 
Q 45.21875 56 50.046875 50.171875 
Q 54.890625 44.34375 54.890625 33.015625 
" id="DejaVuSans-68"/>
    </defs>
    <g transform="translate(696.625402 455.627636)scale(0.07 -0.07)">
     <use xlink:href="#DejaVuSans-77"/>
     <use x="81.787109" xlink:href="#DejaVuSans-69"/>
     <use x="109.570312" xlink:href="#DejaVuSans-73"/>
     <use x="161.669922" xlink:href="#DejaVuSans-68"/>
    </g>
   </g>
   <g id="text_5">
    <!-- video -->
    <defs>
     <path d="M 2.984375 54.6875 
L 12.5 54.6875 
L 29.59375 8.796875 
L 46.6875 54.6875 
L 56.203125 54.6875 
L 35.6875 0 
L 23.484375 0 
z
" id="DejaVuSans-76"/>
     <path d="M 45.40625 46.390625 
L 45.40625 75.984375 
L 54.390625 75.984375 
L 54.390625 0 
L 45.40625 0 
L 45.40625 8.203125 
Q 42.578125 3.328125 38.25 0.953125 
Q 33.9375 -1.421875 27.875 -1.421875 
Q 17.96875 -1.421875 11.734375 6.484375 
Q 5.515625 14.40625 5.515625 27.296875 
Q 5.515625 40.1875 11.734375 48.09375 
Q 17.96875 56 27.875 56 
Q 33.9375 56 38.25 53.625 
Q 42.578125 51.265625 45.40625 46.390625 
M 14.796875 27.296875 
Q 14.796875 17.390625 18.875 11.75 
Q 22.953125 6.109375 30.078125 6.109375 
Q 37.203125 6.109375 41.296875 11.75 
Q 45.40625 17.390625 45.40625 27.296875 
Q 45.40625 37.203125 41.296875 42.84375 
Q 37.203125 48.484375 30.078125 48.484375 
Q 22.953125 48.484375 18.875 42.84375 
Q 14.796875 37.203125 14.796875 27.296875 
" id="DejaVuSans-64"/>
    </defs>
    <g transform="translate(893.292206 447.29591)scale(0.07 -0.07)">
     <use xlink:href="#DejaVuSans-76"/>
     <use x="59.179688" xlink:href="#DejaVuSans-69"/>
     <use x="86.962891" xlink:href="#DejaVuSans-64"/>
     <use x="150.439453" xlink:href="#DejaVuSans-65"/>
     <use x="211.962891" xlink:href="#DejaVuSans-6f"/>
    </g>
   </g>
   <g id="text_6">
    <!-- file -->
    <defs>
     <path d="M 37.109375 75.984375 
L 37.109375 68.5 
L 28.515625 68.5 
Q 23.6875 68.5 21.796875 66.546875 
Q 19.921875 64.59375 19.921875 59.515625 
L 19.921875 54.6875 
L 34.71875 54.6875 
L 34.71875 47.703125 
L 19.921875 47.703125 
L 19.921875 0 
L 10.890625 0 
L 10.890625 47.703125 
L 2.296875 47.703125 
L 2.296875 54.6875 
L 10.890625 54.6875 
L 10.890625 58.5 
Q 10.890625 67.625 15.140625 71.796875 
Q 19.390625 75.984375 28.609375 75.984375 
z
" id="DejaVuSans-66"/>
     <path d="M 9.421875 75.984375 
L 18.40625 75.984375 
L 18.40625 0 
L 9.421875 0 
z
" id="DejaVuSans-6c"/>
    </defs>
    <g transform="translate(880.310701 457.984668)scale(0.07 -0.07)">
     <use xlink:href="#DejaVuSans-66"/>
     <use x="35.205078" xlink:href="#DejaVuSans-69"/>
     <use x="62.988281" xlink:href="#DejaVuSans-6c"/>
     <use x="90.771484" xlink:href="#DejaVuSans-65"/>
    </g>
   </g>
   <g id="text_7">
    <!-- book -->
    <g transform="translate(858.187601 549.732507)scale(0.07 -0.07)">
     <use xlink:href="#DejaVuSans-62"/>
     <use x="63.476562" xlink:href="#DejaVuSans-6f"/>
     <use x="124.658203" xlink:href="#DejaVuSans-6f"/>
     <use x="185.839844" xlink:href="#DejaVuSans-6b"/>
    </g>
   </g>
   <g id="text_8">
    <!-- false -->
    <defs>
     <path d="M 34.28125 27.484375 
Q 23.390625 27.484375 19.1875 25 
Q 14.984375 22.515625 14.984375 16.5 
Q 14.984375 11.71875 18.140625 8.90625 
Q 21.296875 6.109375 26.703125 6.109375 
Q 34.1875 6.109375 38.703125 11.40625 
Q 43.21875 16.703125 43.21875 25.484375 
L 43.21875 27.484375 
z
M 52.203125 31.203125 
L 52.203125 0 
L 43.21875 0 
L 43.21875 8.296875 
Q 40.140625 3.328125 35.546875 0.953125 
Q 30.953125 -1.421875 24.3125 -1.421875 
Q 15.921875 -1.421875 10.953125 3.296875 
Q 6 8.015625 6 15.921875 
Q 6 25.140625 12.171875 29.828125 
Q 18.359375 34.515625 30.609375 34.515625 
L 43.21875 34.515625 
L 43.21875 35.40625 
Q 43.21875 41.609375 39.140625 45 
Q 35.0625 48.390625 27.6875 48.390625 
Q 23 48.390625 18.546875 47.265625 
Q 14.109375 46.140625 10.015625 43.890625 
L 10.015625 52.203125 
Q 14.9375 54.109375 19.578125 55.046875 
Q 24.21875 56 28.609375 56 
Q 40.484375 56 46.34375 49.84375 
Q 52.203125 43.703125 52.203125 31.203125 
" id="DejaVuSans-61"/>
    </defs>
    <g transform="translate(792.680072 459.085079)scale(0.07 -0.07)">
     <use xlink:href="#DejaVuSans-66"/>
     <use x="35.205078" xlink:href="#DejaVuSans-61"/>
     <use x="96.484375" xlink:href="#DejaVuSans-6c"/>
     <use x="124.267578" xlink:href="#DejaVuSans-73"/>
     <use x="176.367188" xlink:href="#DejaVuSans-65"/>
    </g>
   </g>
   <g id="text_9">
    <!-- book -->
    <g transform="translate(851.538928 449.89929)scale(0.07 -0.07)">
     <use xlink:href="#DejaVuSans-62"/>
     <use x="63.476562" xlink:href="#DejaVuSans-6f"/>
     <use x="124.658203" xlink:href="#DejaVuSans-6f"/>
     <use x="185.839844" xlink:href="#DejaVuSans-6b"/>
    </g>
   </g>
   <g id="text_10">
    <!-- facebook -->
    <g transform="translate(841.470958 462.140192)scale(0.07 -0.07)">
     <use xlink:href="#DejaVuSans-66"/>
     <use x="35.205078" xlink:href="#DejaVuSans-61"/>
     <use x="96.484375" xlink:href="#DejaVuSans-63"/>
     <use x="151.464844" xlink:href="#DejaVuSans-65"/>
     <use x="212.988281" xlink:href="#DejaVuSans-62"/>
     <use x="276.464844" xlink:href="#DejaVuSans-6f"/>
     <use x="337.646484" xlink:href="#DejaVuSans-6f"/>
     <use x="398.828125" xlink:href="#DejaVuSans-6b"/>
    </g>
   </g>
   <g id="text_11">
    <!-- videos -->
    <g transform="translate(852.194426 513.934717)scale(0.07 -0.07)">
     <use xlink:href="#DejaVuSans-76"/>
     <use x="59.179688" xlink:href="#DejaVuSans-69"/>
     <use x="86.962891" xlink:href="#DejaVuSans-64"/>
     <use x="150.439453" xlink:href="#DejaVuSans-65"/>
     <use x="211.962891" xlink:href="#DejaVuSans-6f"/>
     <use x="273.144531" xlink:href="#DejaVuSans-73"/>
    </g>
   </g>
   <g id="text_12">
    <!-- friday -->
    <defs>
     <path d="M 32.171875 -5.078125 
Q 28.375 -14.84375 24.75 -17.8125 
Q 21.140625 -20.796875 15.09375 -20.796875 
L 7.90625 -20.796875 
L 7.90625 -13.28125 
L 13.1875 -13.28125 
Q 16.890625 -13.28125 18.9375 -11.515625 
Q 21 -9.765625 23.484375 -3.21875 
L 25.09375 0.875 
L 2.984375 54.6875 
L 12.5 54.6875 
L 29.59375 11.921875 
L 46.6875 54.6875 
L 56.203125 54.6875 
z
" id="DejaVuSans-79"/>
    </defs>
    <g transform="translate(827.467662 462.923161)scale(0.07 -0.07)">
     <use xlink:href="#DejaVuSans-66"/>
     <use x="35.205078" xlink:href="#DejaVuSans-72"/>
     <use x="76.318359" xlink:href="#DejaVuSans-69"/>
     <use x="104.101562" xlink:href="#DejaVuSans-64"/>
     <use x="167.578125" xlink:href="#DejaVuSans-61"/>
     <use x="228.857422" xlink:href="#DejaVuSans-79"/>
    </g>
   </g>
   <g id="text_13">
    <!-- protesting -->
    <defs>
     <path d="M 54.890625 33.015625 
L 54.890625 0 
L 45.90625 0 
L 45.90625 32.71875 
Q 45.90625 40.484375 42.875 44.328125 
Q 39.84375 48.1875 33.796875 48.1875 
Q 26.515625 48.1875 22.3125 43.546875 
Q 18.109375 38.921875 18.109375 30.90625 
L 18.109375 0 
L 9.078125 0 
L 9.078125 54.6875 
L 18.109375 54.6875 
L 18.109375 46.1875 
Q 21.34375 51.125 25.703125 53.5625 
Q 30.078125 56 35.796875 56 
Q 45.21875 56 50.046875 50.171875 
Q 54.890625 44.34375 54.890625 33.015625 
" id="DejaVuSans-6e"/>
    </defs>
    <g transform="translate(869.592634 482.943972)scale(0.07 -0.07)">
     <use xlink:href="#DejaVuSans-70"/>
     <use x="63.476562" xlink:href="#DejaVuSans-72"/>
     <use x="104.558594" xlink:href="#DejaVuSans-6f"/>
     <use x="165.740234" xlink:href="#DejaVuSans-74"/>
     <use x="204.949219" xlink:href="#DejaVuSans-65"/>
     <use x="266.472656" xlink:href="#DejaVuSans-73"/>
     <use x="318.572266" xlink:href="#DejaVuSans-74"/>
     <use x="357.78125" xlink:href="#DejaVuSans-69"/>
     <use x="385.564453" xlink:href="#DejaVuSans-6e"/>
     <use x="448.943359" xlink:href="#DejaVuSans-67"/>
    </g>
   </g>
   <g id="text_14">
    <!-- protest -->
    <g transform="translate(875.966635 489.11367)scale(0.07 -0.07)">
     <use xlink:href="#DejaVuSans-70"/>
     <use x="63.476562" xlink:href="#DejaVuSans-72"/>
     <use x="104.558594" xlink:href="#DejaVuSans-6f"/>
     <use x="165.740234" xlink:href="#DejaVuSans-74"/>
     <use x="204.949219" xlink:href="#DejaVuSans-65"/>
     <use x="266.472656" xlink:href="#DejaVuSans-73"/>
     <use x="318.572266" xlink:href="#DejaVuSans-74"/>
    </g>
   </g>
   <g id="text_15">
    <!-- msnbc -->
    <defs>
     <path d="M 52 44.1875 
Q 55.375 50.25 60.0625 53.125 
Q 64.75 56 71.09375 56 
Q 79.640625 56 84.28125 50.015625 
Q 88.921875 44.046875 88.921875 33.015625 
L 88.921875 0 
L 79.890625 0 
L 79.890625 32.71875 
Q 79.890625 40.578125 77.09375 44.375 
Q 74.3125 48.1875 68.609375 48.1875 
Q 61.625 48.1875 57.5625 43.546875 
Q 53.515625 38.921875 53.515625 30.90625 
L 53.515625 0 
L 44.484375 0 
L 44.484375 32.71875 
Q 44.484375 40.625 41.703125 44.40625 
Q 38.921875 48.1875 33.109375 48.1875 
Q 26.21875 48.1875 22.15625 43.53125 
Q 18.109375 38.875 18.109375 30.90625 
L 18.109375 0 
L 9.078125 0 
L 9.078125 54.6875 
L 18.109375 54.6875 
L 18.109375 46.1875 
Q 21.1875 51.21875 25.484375 53.609375 
Q 29.78125 56 35.6875 56 
Q 41.65625 56 45.828125 52.96875 
Q 50 49.953125 52 44.1875 
" id="DejaVuSans-6d"/>
    </defs>
    <g transform="translate(841.635183 494.89357)scale(0.07 -0.07)">
     <use xlink:href="#DejaVuSans-6d"/>
     <use x="97.412109" xlink:href="#DejaVuSans-73"/>
     <use x="149.511719" xlink:href="#DejaVuSans-6e"/>
     <use x="212.890625" xlink:href="#DejaVuSans-62"/>
     <use x="276.367188" xlink:href="#DejaVuSans-63"/>
    </g>
   </g>
   <g id="text_16">
    <!-- tweet -->
    <g transform="translate(917.607307 393.779733)scale(0.07 -0.07)">
     <use xlink:href="#DejaVuSans-74"/>
     <use x="39.208984" xlink:href="#DejaVuSans-77"/>
     <use x="120.996094" xlink:href="#DejaVuSans-65"/>
     <use x="182.519531" xlink:href="#DejaVuSans-65"/>
     <use x="244.042969" xlink:href="#DejaVuSans-74"/>
    </g>
   </g>
   <g id="text_17">
    <!-- book -->
    <g transform="translate(865.864683 540.061787)scale(0.07 -0.07)">
     <use xlink:href="#DejaVuSans-62"/>
     <use x="63.476562" xlink:href="#DejaVuSans-6f"/>
     <use x="124.658203" xlink:href="#DejaVuSans-6f"/>
     <use x="185.839844" xlink:href="#DejaVuSans-6b"/>
    </g>
   </g>
   <g id="text_18">
    <!-- interviews -->
    <g transform="translate(831.343653 506.807695)scale(0.07 -0.07)">
     <use xlink:href="#DejaVuSans-69"/>
     <use x="27.783203" xlink:href="#DejaVuSans-6e"/>
     <use x="91.162109" xlink:href="#DejaVuSans-74"/>
     <use x="130.371094" xlink:href="#DejaVuSans-65"/>
     <use x="191.894531" xlink:href="#DejaVuSans-72"/>
     <use x="233.007812" xlink:href="#DejaVuSans-76"/>
     <use x="292.1875" xlink:href="#DejaVuSans-69"/>
     <use x="319.970703" xlink:href="#DejaVuSans-65"/>
     <use x="381.494141" xlink:href="#DejaVuSans-77"/>
     <use x="463.28125" xlink:href="#DejaVuSans-73"/>
    </g>
   </g>
   <g id="text_19">
    <!-- radio -->
    <g transform="translate(852.218146 496.825794)scale(0.07 -0.07)">
     <use xlink:href="#DejaVuSans-72"/>
     <use x="41.113281" xlink:href="#DejaVuSans-61"/>
     <use x="102.392578" xlink:href="#DejaVuSans-64"/>
     <use x="165.869141" xlink:href="#DejaVuSans-69"/>
     <use x="193.652344" xlink:href="#DejaVuSans-6f"/>
    </g>
   </g>
   <g id="text_20">
    <!-- report -->
    <g transform="translate(833.747918 550.81999)scale(0.07 -0.07)">
     <use xlink:href="#DejaVuSans-72"/>
     <use x="41.082031" xlink:href="#DejaVuSans-65"/>
     <use x="102.605469" xlink:href="#DejaVuSans-70"/>
     <use x="166.082031" xlink:href="#DejaVuSans-6f"/>
     <use x="227.263672" xlink:href="#DejaVuSans-72"/>
     <use x="268.376953" xlink:href="#DejaVuSans-74"/>
    </g>
   </g>
   <g id="text_21">
    <!-- dishonest -->
    <g transform="translate(801.210505 474.906155)scale(0.07 -0.07)">
     <use xlink:href="#DejaVuSans-64"/>
     <use x="63.476562" xlink:href="#DejaVuSans-69"/>
     <use x="91.259766" xlink:href="#DejaVuSans-73"/>
     <use x="143.359375" xlink:href="#DejaVuSans-68"/>
     <use x="206.738281" xlink:href="#DejaVuSans-6f"/>
     <use x="267.919922" xlink:href="#DejaVuSans-6e"/>
     <use x="331.298828" xlink:href="#DejaVuSans-65"/>
     <use x="392.822266" xlink:href="#DejaVuSans-73"/>
     <use x="444.921875" xlink:href="#DejaVuSans-74"/>
    </g>
   </g>
   <g id="text_22">
    <!-- crowd -->
    <g transform="translate(896.03545 594.334513)scale(0.07 -0.07)">
     <use xlink:href="#DejaVuSans-63"/>
     <use x="54.980469" xlink:href="#DejaVuSans-72"/>
     <use x="96.0625" xlink:href="#DejaVuSans-6f"/>
     <use x="157.244141" xlink:href="#DejaVuSans-77"/>
     <use x="239.03125" xlink:href="#DejaVuSans-64"/>
    </g>
   </g>
   <g id="text_23">
    <!-- show -->
    <g transform="translate(828.427924 434.142006)scale(0.07 -0.07)">
     <use xlink:href="#DejaVuSans-73"/>
     <use x="52.099609" xlink:href="#DejaVuSans-68"/>
     <use x="115.478516" xlink:href="#DejaVuSans-6f"/>
     <use x="176.660156" xlink:href="#DejaVuSans-77"/>
    </g>
   </g>
   <g id="text_24">
    <!-- speech -->
    <g transform="translate(798.453802 490.368504)scale(0.07 -0.07)">
     <use xlink:href="#DejaVuSans-73"/>
     <use x="52.099609" xlink:href="#DejaVuSans-70"/>
     <use x="115.576172" xlink:href="#DejaVuSans-65"/>
     <use x="177.099609" xlink:href="#DejaVuSans-65"/>
     <use x="238.623047" xlink:href="#DejaVuSans-63"/>
     <use x="293.603516" xlink:href="#DejaVuSans-68"/>
    </g>
   </g>
   <g id="text_25">
    <!-- dishonorable -->
    <g transform="translate(832.644682 529.824587)scale(0.07 -0.07)">
     <use xlink:href="#DejaVuSans-64"/>
     <use x="63.476562" xlink:href="#DejaVuSans-69"/>
     <use x="91.259766" xlink:href="#DejaVuSans-73"/>
     <use x="143.359375" xlink:href="#DejaVuSans-68"/>
     <use x="206.738281" xlink:href="#DejaVuSans-6f"/>
     <use x="267.919922" xlink:href="#DejaVuSans-6e"/>
     <use x="331.298828" xlink:href="#DejaVuSans-6f"/>
     <use x="392.480469" xlink:href="#DejaVuSans-72"/>
     <use x="433.59375" xlink:href="#DejaVuSans-61"/>
     <use x="494.873047" xlink:href="#DejaVuSans-62"/>
     <use x="558.349609" xlink:href="#DejaVuSans-6c"/>
     <use x="586.132812" xlink:href="#DejaVuSans-65"/>
    </g>
   </g>
   <g id="text_26">
    <!-- dishonor -->
    <g transform="translate(807.920525 478.639204)scale(0.07 -0.07)">
     <use xlink:href="#DejaVuSans-64"/>
     <use x="63.476562" xlink:href="#DejaVuSans-69"/>
     <use x="91.259766" xlink:href="#DejaVuSans-73"/>
     <use x="143.359375" xlink:href="#DejaVuSans-68"/>
     <use x="206.738281" xlink:href="#DejaVuSans-6f"/>
     <use x="267.919922" xlink:href="#DejaVuSans-6e"/>
     <use x="331.298828" xlink:href="#DejaVuSans-6f"/>
     <use x="392.480469" xlink:href="#DejaVuSans-72"/>
    </g>
   </g>
   <g id="text_27">
    <!-- cnn -->
    <g transform="translate(843.580391 507.656576)scale(0.07 -0.07)">
     <use xlink:href="#DejaVuSans-63"/>
     <use x="54.980469" xlink:href="#DejaVuSans-6e"/>
     <use x="118.359375" xlink:href="#DejaVuSans-6e"/>
    </g>
   </g>
   <g id="text_28">
    <!-- crow -->
    <g transform="translate(780.94718 508.477314)scale(0.07 -0.07)">
     <use xlink:href="#DejaVuSans-63"/>
     <use x="54.980469" xlink:href="#DejaVuSans-72"/>
     <use x="96.0625" xlink:href="#DejaVuSans-6f"/>
     <use x="157.244141" xlink:href="#DejaVuSans-77"/>
    </g>
   </g>
   <g id="text_29">
    <!-- cameras -->
    <g transform="translate(808.109493 543.556715)scale(0.07 -0.07)">
     <use xlink:href="#DejaVuSans-63"/>
     <use x="54.980469" xlink:href="#DejaVuSans-61"/>
     <use x="116.259766" xlink:href="#DejaVuSans-6d"/>
     <use x="213.671875" xlink:href="#DejaVuSans-65"/>
     <use x="275.195312" xlink:href="#DejaVuSans-72"/>
     <use x="316.308594" xlink:href="#DejaVuSans-61"/>
     <use x="377.587891" xlink:href="#DejaVuSans-73"/>
    </g>
   </g>
   <g id="text_30">
    <!-- beings -->
    <g transform="translate(875.681474 511.781641)scale(0.07 -0.07)">
     <use xlink:href="#DejaVuSans-62"/>
     <use x="63.476562" xlink:href="#DejaVuSans-65"/>
     <use x="125" xlink:href="#DejaVuSans-69"/>
     <use x="152.783203" xlink:href="#DejaVuSans-6e"/>
     <use x="216.162109" xlink:href="#DejaVuSans-67"/>
     <use x="279.638672" xlink:href="#DejaVuSans-73"/>
    </g>
   </g>
   <g id="text_31">
    <!-- protest -->
    <g transform="translate(877.621147 478.007162)scale(0.07 -0.07)">
     <use xlink:href="#DejaVuSans-70"/>
     <use x="63.476562" xlink:href="#DejaVuSans-72"/>
     <use x="104.558594" xlink:href="#DejaVuSans-6f"/>
     <use x="165.740234" xlink:href="#DejaVuSans-74"/>
     <use x="204.949219" xlink:href="#DejaVuSans-65"/>
     <use x="266.472656" xlink:href="#DejaVuSans-73"/>
     <use x="318.572266" xlink:href="#DejaVuSans-74"/>
    </g>
   </g>
   <g id="text_32">
    <!-- facebook -->
    <g transform="translate(848.865344 532.340271)scale(0.07 -0.07)">
     <use xlink:href="#DejaVuSans-66"/>
     <use x="35.205078" xlink:href="#DejaVuSans-61"/>
     <use x="96.484375" xlink:href="#DejaVuSans-63"/>
     <use x="151.464844" xlink:href="#DejaVuSans-65"/>
     <use x="212.988281" xlink:href="#DejaVuSans-62"/>
     <use x="276.464844" xlink:href="#DejaVuSans-6f"/>
     <use x="337.646484" xlink:href="#DejaVuSans-6f"/>
     <use x="398.828125" xlink:href="#DejaVuSans-6b"/>
    </g>
   </g>
   <g id="text_33">
    <!-- picture -->
    <g transform="translate(881.826397 432.131225)scale(0.07 -0.07)">
     <use xlink:href="#DejaVuSans-70"/>
     <use x="63.476562" xlink:href="#DejaVuSans-69"/>
     <use x="91.259766" xlink:href="#DejaVuSans-63"/>
     <use x="146.240234" xlink:href="#DejaVuSans-74"/>
     <use x="185.449219" xlink:href="#DejaVuSans-75"/>
     <use x="248.828125" xlink:href="#DejaVuSans-72"/>
     <use x="289.910156" xlink:href="#DejaVuSans-65"/>
    </g>
   </g>
   <g id="text_34">
    <!-- gq -->
    <g transform="translate(805.489154 768.96)scale(0.07 -0.07)">
     <use xlink:href="#DejaVuSans-67"/>
     <use x="63.476562" xlink:href="#DejaVuSans-71"/>
    </g>
   </g>
   <g id="text_35">
    <!-- crowd -->
    <g transform="translate(1030.747477 656.842307)scale(0.07 -0.07)">
     <use xlink:href="#DejaVuSans-63"/>
     <use x="54.980469" xlink:href="#DejaVuSans-72"/>
     <use x="96.0625" xlink:href="#DejaVuSans-6f"/>
     <use x="157.244141" xlink:href="#DejaVuSans-77"/>
     <use x="239.03125" xlink:href="#DejaVuSans-64"/>
    </g>
   </g>
   <g id="text_36">
    <!-- face -->
    <g transform="translate(836.847361 447.608478)scale(0.07 -0.07)">
     <use xlink:href="#DejaVuSans-66"/>
     <use x="35.205078" xlink:href="#DejaVuSans-61"/>
     <use x="96.484375" xlink:href="#DejaVuSans-63"/>
     <use x="151.464844" xlink:href="#DejaVuSans-65"/>
    </g>
   </g>
   <g id="text_37">
    <!-- show -->
    <g transform="translate(863.343091 445.404065)scale(0.07 -0.07)">
     <use xlink:href="#DejaVuSans-73"/>
     <use x="52.099609" xlink:href="#DejaVuSans-68"/>
     <use x="115.478516" xlink:href="#DejaVuSans-6f"/>
     <use x="176.660156" xlink:href="#DejaVuSans-77"/>
    </g>
   </g>
   <g id="text_38">
    <!-- cameras -->
    <g transform="translate(796.398039 547.689083)scale(0.07 -0.07)">
     <use xlink:href="#DejaVuSans-63"/>
     <use x="54.980469" xlink:href="#DejaVuSans-61"/>
     <use x="116.259766" xlink:href="#DejaVuSans-6d"/>
     <use x="213.671875" xlink:href="#DejaVuSans-65"/>
     <use x="275.195312" xlink:href="#DejaVuSans-72"/>
     <use x="316.308594" xlink:href="#DejaVuSans-61"/>
     <use x="377.587891" xlink:href="#DejaVuSans-73"/>
    </g>
   </g>
   <g id="text_39">
    <!-- show -->
    <g transform="translate(783.729806 432.509577)scale(0.07 -0.07)">
     <use xlink:href="#DejaVuSans-73"/>
     <use x="52.099609" xlink:href="#DejaVuSans-68"/>
     <use x="115.478516" xlink:href="#DejaVuSans-6f"/>
     <use x="176.660156" xlink:href="#DejaVuSans-77"/>
    </g>
   </g>
   <g id="text_40">
    <!-- teleprompters -->
    <g transform="translate(812.101704 490.616657)scale(0.07 -0.07)">
     <use xlink:href="#DejaVuSans-74"/>
     <use x="39.208984" xlink:href="#DejaVuSans-65"/>
     <use x="100.732422" xlink:href="#DejaVuSans-6c"/>
     <use x="128.515625" xlink:href="#DejaVuSans-65"/>
     <use x="190.039062" xlink:href="#DejaVuSans-70"/>
     <use x="253.515625" xlink:href="#DejaVuSans-72"/>
     <use x="294.597656" xlink:href="#DejaVuSans-6f"/>
     <use x="355.779297" xlink:href="#DejaVuSans-6d"/>
     <use x="453.191406" xlink:href="#DejaVuSans-70"/>
     <use x="516.667969" xlink:href="#DejaVuSans-74"/>
     <use x="555.876953" xlink:href="#DejaVuSans-65"/>
     <use x="617.400391" xlink:href="#DejaVuSans-72"/>
     <use x="658.513672" xlink:href="#DejaVuSans-73"/>
    </g>
   </g>
   <g id="text_41">
    <!-- camera -->
    <g transform="translate(799.869196 539.525274)scale(0.07 -0.07)">
     <use xlink:href="#DejaVuSans-63"/>
     <use x="54.980469" xlink:href="#DejaVuSans-61"/>
     <use x="116.259766" xlink:href="#DejaVuSans-6d"/>
     <use x="213.671875" xlink:href="#DejaVuSans-65"/>
     <use x="275.195312" xlink:href="#DejaVuSans-72"/>
     <use x="316.308594" xlink:href="#DejaVuSans-61"/>
    </g>
   </g>
   <g id="text_42">
    <!-- picture -->
    <g transform="translate(817.367733 527.172169)scale(0.07 -0.07)">
     <use xlink:href="#DejaVuSans-70"/>
     <use x="63.476562" xlink:href="#DejaVuSans-69"/>
     <use x="91.259766" xlink:href="#DejaVuSans-63"/>
     <use x="146.240234" xlink:href="#DejaVuSans-74"/>
     <use x="185.449219" xlink:href="#DejaVuSans-75"/>
     <use x="248.828125" xlink:href="#DejaVuSans-72"/>
     <use x="289.910156" xlink:href="#DejaVuSans-65"/>
    </g>
   </g>
   <g id="text_43">
    <!-- disruptors -->
    <g transform="translate(825.590537 484.698305)scale(0.07 -0.07)">
     <use xlink:href="#DejaVuSans-64"/>
     <use x="63.476562" xlink:href="#DejaVuSans-69"/>
     <use x="91.259766" xlink:href="#DejaVuSans-73"/>
     <use x="143.359375" xlink:href="#DejaVuSans-72"/>
     <use x="184.472656" xlink:href="#DejaVuSans-75"/>
     <use x="247.851562" xlink:href="#DejaVuSans-70"/>
     <use x="311.328125" xlink:href="#DejaVuSans-74"/>
     <use x="350.537109" xlink:href="#DejaVuSans-6f"/>
     <use x="411.71875" xlink:href="#DejaVuSans-72"/>
     <use x="452.832031" xlink:href="#DejaVuSans-73"/>
    </g>
   </g>
   <g id="text_44">
    <!-- protesters -->
    <g transform="translate(882.300657 484.25862)scale(0.07 -0.07)">
     <use xlink:href="#DejaVuSans-70"/>
     <use x="63.476562" xlink:href="#DejaVuSans-72"/>
     <use x="104.558594" xlink:href="#DejaVuSans-6f"/>
     <use x="165.740234" xlink:href="#DejaVuSans-74"/>
     <use x="204.949219" xlink:href="#DejaVuSans-65"/>
     <use x="266.472656" xlink:href="#DejaVuSans-73"/>
     <use x="318.572266" xlink:href="#DejaVuSans-74"/>
     <use x="357.78125" xlink:href="#DejaVuSans-65"/>
     <use x="419.304688" xlink:href="#DejaVuSans-72"/>
     <use x="460.417969" xlink:href="#DejaVuSans-73"/>
    </g>
   </g>
   <g id="text_45">
    <!-- agitators -->
    <g transform="translate(833.875367 489.036863)scale(0.07 -0.07)">
     <use xlink:href="#DejaVuSans-61"/>
     <use x="61.279297" xlink:href="#DejaVuSans-67"/>
     <use x="124.755859" xlink:href="#DejaVuSans-69"/>
     <use x="152.539062" xlink:href="#DejaVuSans-74"/>
     <use x="191.748047" xlink:href="#DejaVuSans-61"/>
     <use x="253.027344" xlink:href="#DejaVuSans-74"/>
     <use x="292.236328" xlink:href="#DejaVuSans-6f"/>
     <use x="353.417969" xlink:href="#DejaVuSans-72"/>
     <use x="394.53125" xlink:href="#DejaVuSans-73"/>
    </g>
   </g>
   <g id="text_46">
    <!-- headlines -->
    <g transform="translate(844.385905 486.57344)scale(0.07 -0.07)">
     <use xlink:href="#DejaVuSans-68"/>
     <use x="63.378906" xlink:href="#DejaVuSans-65"/>
     <use x="124.902344" xlink:href="#DejaVuSans-61"/>
     <use x="186.181641" xlink:href="#DejaVuSans-64"/>
     <use x="249.658203" xlink:href="#DejaVuSans-6c"/>
     <use x="277.441406" xlink:href="#DejaVuSans-69"/>
     <use x="305.224609" xlink:href="#DejaVuSans-6e"/>
     <use x="368.603516" xlink:href="#DejaVuSans-65"/>
     <use x="430.126953" xlink:href="#DejaVuSans-73"/>
    </g>
   </g>
   <g id="text_47">
    <!-- book -->
    <g transform="translate(854.811288 558.001114)scale(0.07 -0.07)">
     <use xlink:href="#DejaVuSans-62"/>
     <use x="63.476562" xlink:href="#DejaVuSans-6f"/>
     <use x="124.658203" xlink:href="#DejaVuSans-6f"/>
     <use x="185.839844" xlink:href="#DejaVuSans-6b"/>
    </g>
   </g>
   <g id="text_48">
    <!-- seats -->
    <g transform="translate(852.937688 480.519437)scale(0.07 -0.07)">
     <use xlink:href="#DejaVuSans-73"/>
     <use x="52.099609" xlink:href="#DejaVuSans-65"/>
     <use x="113.623047" xlink:href="#DejaVuSans-61"/>
     <use x="174.902344" xlink:href="#DejaVuSans-74"/>
     <use x="214.111328" xlink:href="#DejaVuSans-73"/>
    </g>
   </g>
   <g id="text_49">
    <!-- disruptors -->
    <g transform="translate(834.593491 482.284441)scale(0.07 -0.07)">
     <use xlink:href="#DejaVuSans-64"/>
     <use x="63.476562" xlink:href="#DejaVuSans-69"/>
     <use x="91.259766" xlink:href="#DejaVuSans-73"/>
     <use x="143.359375" xlink:href="#DejaVuSans-72"/>
     <use x="184.472656" xlink:href="#DejaVuSans-75"/>
     <use x="247.851562" xlink:href="#DejaVuSans-70"/>
     <use x="311.328125" xlink:href="#DejaVuSans-74"/>
     <use x="350.537109" xlink:href="#DejaVuSans-6f"/>
     <use x="411.71875" xlink:href="#DejaVuSans-72"/>
     <use x="452.832031" xlink:href="#DejaVuSans-73"/>
    </g>
   </g>
   <g id="text_50">
    <!-- coverage -->
    <g transform="translate(797.851796 505.772953)scale(0.07 -0.07)">
     <use xlink:href="#DejaVuSans-63"/>
     <use x="54.980469" xlink:href="#DejaVuSans-6f"/>
     <use x="116.162109" xlink:href="#DejaVuSans-76"/>
     <use x="175.341797" xlink:href="#DejaVuSans-65"/>
     <use x="236.865234" xlink:href="#DejaVuSans-72"/>
     <use x="277.978516" xlink:href="#DejaVuSans-61"/>
     <use x="339.257812" xlink:href="#DejaVuSans-67"/>
     <use x="402.734375" xlink:href="#DejaVuSans-65"/>
    </g>
   </g>
   <g id="text_51">
    <!-- facebook -->
    <g transform="translate(851.590005 465.571773)scale(0.07 -0.07)">
     <use xlink:href="#DejaVuSans-66"/>
     <use x="35.205078" xlink:href="#DejaVuSans-61"/>
     <use x="96.484375" xlink:href="#DejaVuSans-63"/>
     <use x="151.464844" xlink:href="#DejaVuSans-65"/>
     <use x="212.988281" xlink:href="#DejaVuSans-62"/>
     <use x="276.464844" xlink:href="#DejaVuSans-6f"/>
     <use x="337.646484" xlink:href="#DejaVuSans-6f"/>
     <use x="398.828125" xlink:href="#DejaVuSans-6b"/>
    </g>
   </g>
   <g id="text_52">
    <!-- commercial -->
    <g transform="translate(810.536771 461.097245)scale(0.07 -0.07)">
     <use xlink:href="#DejaVuSans-63"/>
     <use x="54.980469" xlink:href="#DejaVuSans-6f"/>
     <use x="116.162109" xlink:href="#DejaVuSans-6d"/>
     <use x="213.574219" xlink:href="#DejaVuSans-6d"/>
     <use x="310.986328" xlink:href="#DejaVuSans-65"/>
     <use x="372.509766" xlink:href="#DejaVuSans-72"/>
     <use x="413.591797" xlink:href="#DejaVuSans-63"/>
     <use x="468.572266" xlink:href="#DejaVuSans-69"/>
     <use x="496.355469" xlink:href="#DejaVuSans-61"/>
     <use x="557.634766" xlink:href="#DejaVuSans-6c"/>
    </g>
   </g>
   <g id="text_53">
    <!-- booths -->
    <g transform="translate(825.315713 494.251449)scale(0.07 -0.07)">
     <use xlink:href="#DejaVuSans-62"/>
     <use x="63.476562" xlink:href="#DejaVuSans-6f"/>
     <use x="124.658203" xlink:href="#DejaVuSans-6f"/>
     <use x="185.839844" xlink:href="#DejaVuSans-74"/>
     <use x="225.048828" xlink:href="#DejaVuSans-68"/>
     <use x="288.427734" xlink:href="#DejaVuSans-73"/>
    </g>
   </g>
   <g id="text_54">
    <!-- racist -->
    <g transform="translate(860.266226 494.903515)scale(0.07 -0.07)">
     <use xlink:href="#DejaVuSans-72"/>
     <use x="41.113281" xlink:href="#DejaVuSans-61"/>
     <use x="102.392578" xlink:href="#DejaVuSans-63"/>
     <use x="157.373047" xlink:href="#DejaVuSans-69"/>
     <use x="185.15625" xlink:href="#DejaVuSans-73"/>
     <use x="237.255859" xlink:href="#DejaVuSans-74"/>
    </g>
   </g>
   <g id="text_55">
    <!-- arena -->
    <g transform="translate(822.174487 473.788791)scale(0.07 -0.07)">
     <use xlink:href="#DejaVuSans-61"/>
     <use x="61.279297" xlink:href="#DejaVuSans-72"/>
     <use x="102.361328" xlink:href="#DejaVuSans-65"/>
     <use x="163.884766" xlink:href="#DejaVuSans-6e"/>
     <use x="227.263672" xlink:href="#DejaVuSans-61"/>
    </g>
   </g>
   <g id="text_56">
    <!-- test -->
    <g transform="translate(865.427422 469.521025)scale(0.07 -0.07)">
     <use xlink:href="#DejaVuSans-74"/>
     <use x="39.208984" xlink:href="#DejaVuSans-65"/>
     <use x="100.732422" xlink:href="#DejaVuSans-73"/>
     <use x="152.832031" xlink:href="#DejaVuSans-74"/>
    </g>
   </g>
   <g id="text_57">
    <!-- story -->
    <g transform="translate(935.289371 439.017576)scale(0.07 -0.07)">
     <use xlink:href="#DejaVuSans-73"/>
     <use x="52.099609" xlink:href="#DejaVuSans-74"/>
     <use x="91.308594" xlink:href="#DejaVuSans-6f"/>
     <use x="152.490234" xlink:href="#DejaVuSans-72"/>
     <use x="193.603516" xlink:href="#DejaVuSans-79"/>
    </g>
   </g>
   <g id="text_58">
    <!-- false -->
    <g transform="translate(792.133746 447.664074)scale(0.07 -0.07)">
     <use xlink:href="#DejaVuSans-66"/>
     <use x="35.205078" xlink:href="#DejaVuSans-61"/>
     <use x="96.484375" xlink:href="#DejaVuSans-6c"/>
     <use x="124.267578" xlink:href="#DejaVuSans-73"/>
     <use x="176.367188" xlink:href="#DejaVuSans-65"/>
    </g>
   </g>
   <g id="text_59">
    <!-- media -->
    <g transform="translate(1036.8 572.607796)scale(0.07 -0.07)">
     <use xlink:href="#DejaVuSans-6d"/>
     <use x="97.412109" xlink:href="#DejaVuSans-65"/>
     <use x="158.935547" xlink:href="#DejaVuSans-64"/>
     <use x="222.412109" xlink:href="#DejaVuSans-69"/>
     <use x="250.195312" xlink:href="#DejaVuSans-61"/>
    </g>
   </g>
   <g id="text_60">
    <!-- coverage -->
    <g transform="translate(842.460845 521.240938)scale(0.07 -0.07)">
     <use xlink:href="#DejaVuSans-63"/>
     <use x="54.980469" xlink:href="#DejaVuSans-6f"/>
     <use x="116.162109" xlink:href="#DejaVuSans-76"/>
     <use x="175.341797" xlink:href="#DejaVuSans-65"/>
     <use x="236.865234" xlink:href="#DejaVuSans-72"/>
     <use x="277.978516" xlink:href="#DejaVuSans-61"/>
     <use x="339.257812" xlink:href="#DejaVuSans-67"/>
     <use x="402.734375" xlink:href="#DejaVuSans-65"/>
    </g>
   </g>
   <g id="text_61">
    <!-- cameras -->
    <g transform="translate(796.398039 547.689083)scale(0.07 -0.07)">
     <use xlink:href="#DejaVuSans-63"/>
     <use x="54.980469" xlink:href="#DejaVuSans-61"/>
     <use x="116.259766" xlink:href="#DejaVuSans-6d"/>
     <use x="213.671875" xlink:href="#DejaVuSans-65"/>
     <use x="275.195312" xlink:href="#DejaVuSans-72"/>
     <use x="316.308594" xlink:href="#DejaVuSans-61"/>
     <use x="377.587891" xlink:href="#DejaVuSans-73"/>
    </g>
   </g>
   <g id="text_62">
    <!-- racial -->
    <g transform="translate(144 399.675594)scale(0.07 -0.07)">
     <use xlink:href="#DejaVuSans-72"/>
     <use x="41.113281" xlink:href="#DejaVuSans-61"/>
     <use x="102.392578" xlink:href="#DejaVuSans-63"/>
     <use x="157.373047" xlink:href="#DejaVuSans-69"/>
     <use x="185.15625" xlink:href="#DejaVuSans-61"/>
     <use x="246.435547" xlink:href="#DejaVuSans-6c"/>
    </g>
   </g>
   <g id="text_63">
    <!-- fox -->
    <defs>
     <path d="M 54.890625 54.6875 
L 35.109375 28.078125 
L 55.90625 0 
L 45.3125 0 
L 29.390625 21.484375 
L 13.484375 0 
L 2.875 0 
L 24.125 28.609375 
L 4.6875 54.6875 
L 15.28125 54.6875 
L 29.78125 35.203125 
L 44.28125 54.6875 
z
" id="DejaVuSans-78"/>
    </defs>
    <g transform="translate(810.925468 447.263993)scale(0.07 -0.07)">
     <use xlink:href="#DejaVuSans-66"/>
     <use x="35.205078" xlink:href="#DejaVuSans-6f"/>
     <use x="96.339844" xlink:href="#DejaVuSans-78"/>
    </g>
   </g>
   <g id="text_64">
    <!-- magazine -->
    <defs>
     <path d="M 5.515625 54.6875 
L 48.1875 54.6875 
L 48.1875 46.484375 
L 14.40625 7.171875 
L 48.1875 7.171875 
L 48.1875 0 
L 4.296875 0 
L 4.296875 8.203125 
L 38.09375 47.515625 
L 5.515625 47.515625 
z
" id="DejaVuSans-7a"/>
    </defs>
    <g transform="translate(848.066164 339.707624)scale(0.07 -0.07)">
     <use xlink:href="#DejaVuSans-6d"/>
     <use x="97.412109" xlink:href="#DejaVuSans-61"/>
     <use x="158.691406" xlink:href="#DejaVuSans-67"/>
     <use x="222.167969" xlink:href="#DejaVuSans-61"/>
     <use x="283.447266" xlink:href="#DejaVuSans-7a"/>
     <use x="335.9375" xlink:href="#DejaVuSans-69"/>
     <use x="363.720703" xlink:href="#DejaVuSans-6e"/>
     <use x="427.099609" xlink:href="#DejaVuSans-65"/>
    </g>
   </g>
   <g id="text_65">
    <!-- book -->
    <g transform="translate(854.811288 558.001114)scale(0.07 -0.07)">
     <use xlink:href="#DejaVuSans-62"/>
     <use x="63.476562" xlink:href="#DejaVuSans-6f"/>
     <use x="124.658203" xlink:href="#DejaVuSans-6f"/>
     <use x="185.839844" xlink:href="#DejaVuSans-6b"/>
    </g>
   </g>
   <g id="text_66">
    <!-- story -->
    <g transform="translate(1000.423713 103.68)scale(0.07 -0.07)">
     <use xlink:href="#DejaVuSans-73"/>
     <use x="52.099609" xlink:href="#DejaVuSans-74"/>
     <use x="91.308594" xlink:href="#DejaVuSans-6f"/>
     <use x="152.490234" xlink:href="#DejaVuSans-72"/>
     <use x="193.603516" xlink:href="#DejaVuSans-79"/>
    </g>
   </g>
   <g id="text_67">
    <!-- false -->
    <g transform="translate(792.133746 447.664074)scale(0.07 -0.07)">
     <use xlink:href="#DejaVuSans-66"/>
     <use x="35.205078" xlink:href="#DejaVuSans-61"/>
     <use x="96.484375" xlink:href="#DejaVuSans-6c"/>
     <use x="124.267578" xlink:href="#DejaVuSans-73"/>
     <use x="176.367188" xlink:href="#DejaVuSans-65"/>
    </g>
   </g>
   <g id="text_68">
    <!-- commercial -->
    <g transform="translate(804.495695 516.654767)scale(0.07 -0.07)">
     <use xlink:href="#DejaVuSans-63"/>
     <use x="54.980469" xlink:href="#DejaVuSans-6f"/>
     <use x="116.162109" xlink:href="#DejaVuSans-6d"/>
     <use x="213.574219" xlink:href="#DejaVuSans-6d"/>
     <use x="310.986328" xlink:href="#DejaVuSans-65"/>
     <use x="372.509766" xlink:href="#DejaVuSans-72"/>
     <use x="413.591797" xlink:href="#DejaVuSans-63"/>
     <use x="468.572266" xlink:href="#DejaVuSans-69"/>
     <use x="496.355469" xlink:href="#DejaVuSans-61"/>
     <use x="557.634766" xlink:href="#DejaVuSans-6c"/>
    </g>
   </g>
   <g id="text_69">
    <!-- story -->
    <g transform="translate(906.726149 476.595085)scale(0.07 -0.07)">
     <use xlink:href="#DejaVuSans-73"/>
     <use x="52.099609" xlink:href="#DejaVuSans-74"/>
     <use x="91.308594" xlink:href="#DejaVuSans-6f"/>
     <use x="152.490234" xlink:href="#DejaVuSans-72"/>
     <use x="193.603516" xlink:href="#DejaVuSans-79"/>
    </g>
   </g>
   <g id="text_70">
    <!-- nbc -->
    <g transform="translate(893.407421 505.389347)scale(0.07 -0.07)">
     <use xlink:href="#DejaVuSans-6e"/>
     <use x="63.378906" xlink:href="#DejaVuSans-62"/>
     <use x="126.855469" xlink:href="#DejaVuSans-63"/>
    </g>
   </g>
   <g id="text_71">
    <!-- medieval -->
    <g transform="translate(822.113776 513.736076)scale(0.07 -0.07)">
     <use xlink:href="#DejaVuSans-6d"/>
     <use x="97.412109" xlink:href="#DejaVuSans-65"/>
     <use x="158.935547" xlink:href="#DejaVuSans-64"/>
     <use x="222.412109" xlink:href="#DejaVuSans-69"/>
     <use x="250.195312" xlink:href="#DejaVuSans-65"/>
     <use x="311.71875" xlink:href="#DejaVuSans-76"/>
     <use x="370.898438" xlink:href="#DejaVuSans-61"/>
     <use x="432.177734" xlink:href="#DejaVuSans-6c"/>
    </g>
   </g>
   <g id="text_72">
    <!-- media -->
    <g transform="translate(862.986293 508.672039)scale(0.07 -0.07)">
     <use xlink:href="#DejaVuSans-6d"/>
     <use x="97.412109" xlink:href="#DejaVuSans-65"/>
     <use x="158.935547" xlink:href="#DejaVuSans-64"/>
     <use x="222.412109" xlink:href="#DejaVuSans-69"/>
     <use x="250.195312" xlink:href="#DejaVuSans-61"/>
    </g>
   </g>
   <g id="text_73">
    <!-- reporter -->
    <g transform="translate(898.281929 531.360328)scale(0.07 -0.07)">
     <use xlink:href="#DejaVuSans-72"/>
     <use x="41.082031" xlink:href="#DejaVuSans-65"/>
     <use x="102.605469" xlink:href="#DejaVuSans-70"/>
     <use x="166.082031" xlink:href="#DejaVuSans-6f"/>
     <use x="227.263672" xlink:href="#DejaVuSans-72"/>
     <use x="268.376953" xlink:href="#DejaVuSans-74"/>
     <use x="307.585938" xlink:href="#DejaVuSans-65"/>
     <use x="369.109375" xlink:href="#DejaVuSans-72"/>
    </g>
   </g>
   <g id="text_74">
    <!-- arena -->
    <g transform="translate(784.561594 488.995403)scale(0.07 -0.07)">
     <use xlink:href="#DejaVuSans-61"/>
     <use x="61.279297" xlink:href="#DejaVuSans-72"/>
     <use x="102.361328" xlink:href="#DejaVuSans-65"/>
     <use x="163.884766" xlink:href="#DejaVuSans-6e"/>
     <use x="227.263672" xlink:href="#DejaVuSans-61"/>
    </g>
   </g>
   <g id="text_75">
    <!-- event -->
    <g transform="translate(809.385455 430.99325)scale(0.07 -0.07)">
     <use xlink:href="#DejaVuSans-65"/>
     <use x="61.523438" xlink:href="#DejaVuSans-76"/>
     <use x="120.703125" xlink:href="#DejaVuSans-65"/>
     <use x="182.226562" xlink:href="#DejaVuSans-6e"/>
     <use x="245.605469" xlink:href="#DejaVuSans-74"/>
    </g>
   </g>
   <g id="text_76">
    <!-- rallies -->
    <g transform="translate(816.577689 501.537683)scale(0.07 -0.07)">
     <use xlink:href="#DejaVuSans-72"/>
     <use x="41.113281" xlink:href="#DejaVuSans-61"/>
     <use x="102.392578" xlink:href="#DejaVuSans-6c"/>
     <use x="130.175781" xlink:href="#DejaVuSans-6c"/>
     <use x="157.958984" xlink:href="#DejaVuSans-69"/>
     <use x="185.742188" xlink:href="#DejaVuSans-65"/>
     <use x="247.265625" xlink:href="#DejaVuSans-73"/>
    </g>
   </g>
   <g id="text_77">
    <!-- interviewed -->
    <g transform="translate(835.159926 501.924376)scale(0.07 -0.07)">
     <use xlink:href="#DejaVuSans-69"/>
     <use x="27.783203" xlink:href="#DejaVuSans-6e"/>
     <use x="91.162109" xlink:href="#DejaVuSans-74"/>
     <use x="130.371094" xlink:href="#DejaVuSans-65"/>
     <use x="191.894531" xlink:href="#DejaVuSans-72"/>
     <use x="233.007812" xlink:href="#DejaVuSans-76"/>
     <use x="292.1875" xlink:href="#DejaVuSans-69"/>
     <use x="319.970703" xlink:href="#DejaVuSans-65"/>
     <use x="381.494141" xlink:href="#DejaVuSans-77"/>
     <use x="463.28125" xlink:href="#DejaVuSans-65"/>
     <use x="524.804688" xlink:href="#DejaVuSans-64"/>
    </g>
   </g>
   <g id="text_78">
    <!-- Cluster 25 - 77 Items -->
    <defs>
     <path d="M 64.40625 67.28125 
L 64.40625 56.890625 
Q 59.421875 61.53125 53.78125 63.8125 
Q 48.140625 66.109375 41.796875 66.109375 
Q 29.296875 66.109375 22.65625 58.46875 
Q 16.015625 50.828125 16.015625 36.375 
Q 16.015625 21.96875 22.65625 14.328125 
Q 29.296875 6.6875 41.796875 6.6875 
Q 48.140625 6.6875 53.78125 8.984375 
Q 59.421875 11.28125 64.40625 15.921875 
L 64.40625 5.609375 
Q 59.234375 2.09375 53.4375 0.328125 
Q 47.65625 -1.421875 41.21875 -1.421875 
Q 24.65625 -1.421875 15.125 8.703125 
Q 5.609375 18.84375 5.609375 36.375 
Q 5.609375 53.953125 15.125 64.078125 
Q 24.65625 74.21875 41.21875 74.21875 
Q 47.75 74.21875 53.53125 72.484375 
Q 59.328125 70.75 64.40625 67.28125 
" id="DejaVuSans-43"/>
     <path id="DejaVuSans-20"/>
     <path d="M 19.1875 8.296875 
L 53.609375 8.296875 
L 53.609375 0 
L 7.328125 0 
L 7.328125 8.296875 
Q 12.9375 14.109375 22.625 23.890625 
Q 32.328125 33.6875 34.8125 36.53125 
Q 39.546875 41.84375 41.421875 45.53125 
Q 43.3125 49.21875 43.3125 52.78125 
Q 43.3125 58.59375 39.234375 62.25 
Q 35.15625 65.921875 28.609375 65.921875 
Q 23.96875 65.921875 18.8125 64.3125 
Q 13.671875 62.703125 7.8125 59.421875 
L 7.8125 69.390625 
Q 13.765625 71.78125 18.9375 73 
Q 24.125 74.21875 28.421875 74.21875 
Q 39.75 74.21875 46.484375 68.546875 
Q 53.21875 62.890625 53.21875 53.421875 
Q 53.21875 48.921875 51.53125 44.890625 
Q 49.859375 40.875 45.40625 35.40625 
Q 44.1875 33.984375 37.640625 27.21875 
Q 31.109375 20.453125 19.1875 8.296875 
" id="DejaVuSans-32"/>
     <path d="M 10.796875 72.90625 
L 49.515625 72.90625 
L 49.515625 64.59375 
L 19.828125 64.59375 
L 19.828125 46.734375 
Q 21.96875 47.46875 24.109375 47.828125 
Q 26.265625 48.1875 28.421875 48.1875 
Q 40.625 48.1875 47.75 41.5 
Q 54.890625 34.8125 54.890625 23.390625 
Q 54.890625 11.625 47.5625 5.09375 
Q 40.234375 -1.421875 26.90625 -1.421875 
Q 22.3125 -1.421875 17.546875 -0.640625 
Q 12.796875 0.140625 7.71875 1.703125 
L 7.71875 11.625 
Q 12.109375 9.234375 16.796875 8.0625 
Q 21.484375 6.890625 26.703125 6.890625 
Q 35.15625 6.890625 40.078125 11.328125 
Q 45.015625 15.765625 45.015625 23.390625 
Q 45.015625 31 40.078125 35.4375 
Q 35.15625 39.890625 26.703125 39.890625 
Q 22.75 39.890625 18.8125 39.015625 
Q 14.890625 38.140625 10.796875 36.28125 
z
" id="DejaVuSans-35"/>
     <path d="M 4.890625 31.390625 
L 31.203125 31.390625 
L 31.203125 23.390625 
L 4.890625 23.390625 
z
" id="DejaVuSans-2d"/>
     <path d="M 8.203125 72.90625 
L 55.078125 72.90625 
L 55.078125 68.703125 
L 28.609375 0 
L 18.3125 0 
L 43.21875 64.59375 
L 8.203125 64.59375 
z
" id="DejaVuSans-37"/>
     <path d="M 9.8125 72.90625 
L 19.671875 72.90625 
L 19.671875 0 
L 9.8125 0 
z
" id="DejaVuSans-49"/>
    </defs>
    <g transform="translate(527.258438 97.68)scale(0.12 -0.12)">
     <use xlink:href="#DejaVuSans-43"/>
     <use x="69.824219" xlink:href="#DejaVuSans-6c"/>
     <use x="97.607422" xlink:href="#DejaVuSans-75"/>
     <use x="160.986328" xlink:href="#DejaVuSans-73"/>
     <use x="213.085938" xlink:href="#DejaVuSans-74"/>
     <use x="252.294922" xlink:href="#DejaVuSans-65"/>
     <use x="313.818359" xlink:href="#DejaVuSans-72"/>
     <use x="354.931641" xlink:href="#DejaVuSans-20"/>
     <use x="386.71875" xlink:href="#DejaVuSans-32"/>
     <use x="450.341797" xlink:href="#DejaVuSans-35"/>
     <use x="513.964844" xlink:href="#DejaVuSans-20"/>
     <use x="545.751953" xlink:href="#DejaVuSans-2d"/>
     <use x="581.835938" xlink:href="#DejaVuSans-20"/>
     <use x="613.623047" xlink:href="#DejaVuSans-37"/>
     <use x="677.246094" xlink:href="#DejaVuSans-37"/>
     <use x="740.869141" xlink:href="#DejaVuSans-20"/>
     <use x="772.65625" xlink:href="#DejaVuSans-49"/>
     <use x="802.148438" xlink:href="#DejaVuSans-74"/>
     <use x="841.357422" xlink:href="#DejaVuSans-65"/>
     <use x="902.880859" xlink:href="#DejaVuSans-6d"/>
     <use x="1000.292969" xlink:href="#DejaVuSans-73"/>
    </g>
   </g>
  </g>
 </g>
</svg>
