<?xml version="1.0" encoding="utf-8" standalone="no"?>
<!DOCTYPE svg PUBLIC "-//W3C//DTD SVG 1.1//EN"
  "http://www.w3.org/Graphics/SVG/1.1/DTD/svg11.dtd">
<!-- Created with matplotlib (http://matplotlib.org/) -->
<svg height="864pt" version="1.1" viewBox="0 0 1152 864" width="1152pt" xmlns="http://www.w3.org/2000/svg" xmlns:xlink="http://www.w3.org/1999/xlink">
 <defs>
  <style type="text/css">
*{stroke-linecap:butt;stroke-linejoin:round;}
  </style>
 </defs>
 <g id="figure_1">
  <g id="patch_1">
   <path d="M 0 864 
L 1152 864 
L 1152 0 
L 0 0 
z
" style="fill:#ffffff;"/>
  </g>
  <g id="axes_1">
   <g id="text_1">
    <!-- north -->
    <defs>
     <path d="M 54.890625 33.015625 
L 54.890625 0 
L 45.90625 0 
L 45.90625 32.71875 
Q 45.90625 40.484375 42.875 44.328125 
Q 39.84375 48.1875 33.796875 48.1875 
Q 26.515625 48.1875 22.3125 43.546875 
Q 18.109375 38.921875 18.109375 30.90625 
L 18.109375 0 
L 9.078125 0 
L 9.078125 54.6875 
L 18.109375 54.6875 
L 18.109375 46.1875 
Q 21.34375 51.125 25.703125 53.5625 
Q 30.078125 56 35.796875 56 
Q 45.21875 56 50.046875 50.171875 
Q 54.890625 44.34375 54.890625 33.015625 
" id="DejaVuSans-6e"/>
     <path d="M 30.609375 48.390625 
Q 23.390625 48.390625 19.1875 42.75 
Q 14.984375 37.109375 14.984375 27.296875 
Q 14.984375 17.484375 19.15625 11.84375 
Q 23.34375 6.203125 30.609375 6.203125 
Q 37.796875 6.203125 41.984375 11.859375 
Q 46.1875 17.53125 46.1875 27.296875 
Q 46.1875 37.015625 41.984375 42.703125 
Q 37.796875 48.390625 30.609375 48.390625 
M 30.609375 56 
Q 42.328125 56 49.015625 48.375 
Q 55.71875 40.765625 55.71875 27.296875 
Q 55.71875 13.875 49.015625 6.21875 
Q 42.328125 -1.421875 30.609375 -1.421875 
Q 18.84375 -1.421875 12.171875 6.21875 
Q 5.515625 13.875 5.515625 27.296875 
Q 5.515625 40.765625 12.171875 48.375 
Q 18.84375 56 30.609375 56 
" id="DejaVuSans-6f"/>
     <path d="M 41.109375 46.296875 
Q 39.59375 47.171875 37.8125 47.578125 
Q 36.03125 48 33.890625 48 
Q 26.265625 48 22.1875 43.046875 
Q 18.109375 38.09375 18.109375 28.8125 
L 18.109375 0 
L 9.078125 0 
L 9.078125 54.6875 
L 18.109375 54.6875 
L 18.109375 46.1875 
Q 20.953125 51.171875 25.484375 53.578125 
Q 30.03125 56 36.53125 56 
Q 37.453125 56 38.578125 55.875 
Q 39.703125 55.765625 41.0625 55.515625 
z
" id="DejaVuSans-72"/>
     <path d="M 18.3125 70.21875 
L 18.3125 54.6875 
L 36.8125 54.6875 
L 36.8125 47.703125 
L 18.3125 47.703125 
L 18.3125 18.015625 
Q 18.3125 11.328125 20.140625 9.421875 
Q 21.96875 7.515625 27.59375 7.515625 
L 36.8125 7.515625 
L 36.8125 0 
L 27.59375 0 
Q 17.1875 0 13.234375 3.875 
Q 9.28125 7.765625 9.28125 18.015625 
L 9.28125 47.703125 
L 2.6875 47.703125 
L 2.6875 54.6875 
L 9.28125 54.6875 
L 9.28125 70.21875 
z
" id="DejaVuSans-74"/>
     <path d="M 54.890625 33.015625 
L 54.890625 0 
L 45.90625 0 
L 45.90625 32.71875 
Q 45.90625 40.484375 42.875 44.328125 
Q 39.84375 48.1875 33.796875 48.1875 
Q 26.515625 48.1875 22.3125 43.546875 
Q 18.109375 38.921875 18.109375 30.90625 
L 18.109375 0 
L 9.078125 0 
L 9.078125 75.984375 
L 18.109375 75.984375 
L 18.109375 46.1875 
Q 21.34375 51.125 25.703125 53.5625 
Q 30.078125 56 35.796875 56 
Q 45.21875 56 50.046875 50.171875 
Q 54.890625 44.34375 54.890625 33.015625 
" id="DejaVuSans-68"/>
    </defs>
    <g transform="translate(481.820998 563.499374)scale(0.08 -0.08)">
     <use xlink:href="#DejaVuSans-6e"/>
     <use x="63.378906" xlink:href="#DejaVuSans-6f"/>
     <use x="124.560547" xlink:href="#DejaVuSans-72"/>
     <use x="165.673828" xlink:href="#DejaVuSans-74"/>
     <use x="204.882812" xlink:href="#DejaVuSans-68"/>
    </g>
   </g>
   <g id="text_2">
    <!-- carolina -->
    <defs>
     <path d="M 48.78125 52.59375 
L 48.78125 44.1875 
Q 44.96875 46.296875 41.140625 47.34375 
Q 37.3125 48.390625 33.40625 48.390625 
Q 24.65625 48.390625 19.8125 42.84375 
Q 14.984375 37.3125 14.984375 27.296875 
Q 14.984375 17.28125 19.8125 11.734375 
Q 24.65625 6.203125 33.40625 6.203125 
Q 37.3125 6.203125 41.140625 7.25 
Q 44.96875 8.296875 48.78125 10.40625 
L 48.78125 2.09375 
Q 45.015625 0.34375 40.984375 -0.53125 
Q 36.96875 -1.421875 32.421875 -1.421875 
Q 20.0625 -1.421875 12.78125 6.34375 
Q 5.515625 14.109375 5.515625 27.296875 
Q 5.515625 40.671875 12.859375 48.328125 
Q 20.21875 56 33.015625 56 
Q 37.15625 56 41.109375 55.140625 
Q 45.0625 54.296875 48.78125 52.59375 
" id="DejaVuSans-63"/>
     <path d="M 34.28125 27.484375 
Q 23.390625 27.484375 19.1875 25 
Q 14.984375 22.515625 14.984375 16.5 
Q 14.984375 11.71875 18.140625 8.90625 
Q 21.296875 6.109375 26.703125 6.109375 
Q 34.1875 6.109375 38.703125 11.40625 
Q 43.21875 16.703125 43.21875 25.484375 
L 43.21875 27.484375 
z
M 52.203125 31.203125 
L 52.203125 0 
L 43.21875 0 
L 43.21875 8.296875 
Q 40.140625 3.328125 35.546875 0.953125 
Q 30.953125 -1.421875 24.3125 -1.421875 
Q 15.921875 -1.421875 10.953125 3.296875 
Q 6 8.015625 6 15.921875 
Q 6 25.140625 12.171875 29.828125 
Q 18.359375 34.515625 30.609375 34.515625 
L 43.21875 34.515625 
L 43.21875 35.40625 
Q 43.21875 41.609375 39.140625 45 
Q 35.0625 48.390625 27.6875 48.390625 
Q 23 48.390625 18.546875 47.265625 
Q 14.109375 46.140625 10.015625 43.890625 
L 10.015625 52.203125 
Q 14.9375 54.109375 19.578125 55.046875 
Q 24.21875 56 28.609375 56 
Q 40.484375 56 46.34375 49.84375 
Q 52.203125 43.703125 52.203125 31.203125 
" id="DejaVuSans-61"/>
     <path d="M 9.421875 75.984375 
L 18.40625 75.984375 
L 18.40625 0 
L 9.421875 0 
z
" id="DejaVuSans-6c"/>
     <path d="M 9.421875 54.6875 
L 18.40625 54.6875 
L 18.40625 0 
L 9.421875 0 
z
M 9.421875 75.984375 
L 18.40625 75.984375 
L 18.40625 64.59375 
L 9.421875 64.59375 
z
" id="DejaVuSans-69"/>
    </defs>
    <g transform="translate(509.537177 540.72704)scale(0.08 -0.08)">
     <use xlink:href="#DejaVuSans-63"/>
     <use x="54.980469" xlink:href="#DejaVuSans-61"/>
     <use x="116.259766" xlink:href="#DejaVuSans-72"/>
     <use x="157.341797" xlink:href="#DejaVuSans-6f"/>
     <use x="218.523438" xlink:href="#DejaVuSans-6c"/>
     <use x="246.306641" xlink:href="#DejaVuSans-69"/>
     <use x="274.089844" xlink:href="#DejaVuSans-6e"/>
     <use x="337.46875" xlink:href="#DejaVuSans-61"/>
    </g>
   </g>
   <g id="text_3">
    <!-- south -->
    <defs>
     <path d="M 44.28125 53.078125 
L 44.28125 44.578125 
Q 40.484375 46.53125 36.375 47.5 
Q 32.28125 48.484375 27.875 48.484375 
Q 21.1875 48.484375 17.84375 46.4375 
Q 14.5 44.390625 14.5 40.28125 
Q 14.5 37.15625 16.890625 35.375 
Q 19.28125 33.59375 26.515625 31.984375 
L 29.59375 31.296875 
Q 39.15625 29.25 43.1875 25.515625 
Q 47.21875 21.78125 47.21875 15.09375 
Q 47.21875 7.46875 41.1875 3.015625 
Q 35.15625 -1.421875 24.609375 -1.421875 
Q 20.21875 -1.421875 15.453125 -0.5625 
Q 10.6875 0.296875 5.421875 2 
L 5.421875 11.28125 
Q 10.40625 8.6875 15.234375 7.390625 
Q 20.0625 6.109375 24.8125 6.109375 
Q 31.15625 6.109375 34.5625 8.28125 
Q 37.984375 10.453125 37.984375 14.40625 
Q 37.984375 18.0625 35.515625 20.015625 
Q 33.0625 21.96875 24.703125 23.78125 
L 21.578125 24.515625 
Q 13.234375 26.265625 9.515625 29.90625 
Q 5.8125 33.546875 5.8125 39.890625 
Q 5.8125 47.609375 11.28125 51.796875 
Q 16.75 56 26.8125 56 
Q 31.78125 56 36.171875 55.265625 
Q 40.578125 54.546875 44.28125 53.078125 
" id="DejaVuSans-73"/>
     <path d="M 8.5 21.578125 
L 8.5 54.6875 
L 17.484375 54.6875 
L 17.484375 21.921875 
Q 17.484375 14.15625 20.5 10.265625 
Q 23.53125 6.390625 29.59375 6.390625 
Q 36.859375 6.390625 41.078125 11.03125 
Q 45.3125 15.671875 45.3125 23.6875 
L 45.3125 54.6875 
L 54.296875 54.6875 
L 54.296875 0 
L 45.3125 0 
L 45.3125 8.40625 
Q 42.046875 3.421875 37.71875 1 
Q 33.40625 -1.421875 27.6875 -1.421875 
Q 18.265625 -1.421875 13.375 4.4375 
Q 8.5 10.296875 8.5 21.578125 
M 31.109375 56 
z
" id="DejaVuSans-75"/>
    </defs>
    <g transform="translate(1036.8 103.68)scale(0.08 -0.08)">
     <use xlink:href="#DejaVuSans-73"/>
     <use x="52.099609" xlink:href="#DejaVuSans-6f"/>
     <use x="113.28125" xlink:href="#DejaVuSans-75"/>
     <use x="176.660156" xlink:href="#DejaVuSans-74"/>
     <use x="215.869141" xlink:href="#DejaVuSans-68"/>
    </g>
   </g>
   <g id="text_4">
    <!-- caroline -->
    <defs>
     <path d="M 56.203125 29.59375 
L 56.203125 25.203125 
L 14.890625 25.203125 
Q 15.484375 15.921875 20.484375 11.0625 
Q 25.484375 6.203125 34.421875 6.203125 
Q 39.59375 6.203125 44.453125 7.46875 
Q 49.3125 8.734375 54.109375 11.28125 
L 54.109375 2.78125 
Q 49.265625 0.734375 44.1875 -0.34375 
Q 39.109375 -1.421875 33.890625 -1.421875 
Q 20.796875 -1.421875 13.15625 6.1875 
Q 5.515625 13.8125 5.515625 26.8125 
Q 5.515625 40.234375 12.765625 48.109375 
Q 20.015625 56 32.328125 56 
Q 43.359375 56 49.78125 48.890625 
Q 56.203125 41.796875 56.203125 29.59375 
M 47.21875 32.234375 
Q 47.125 39.59375 43.09375 43.984375 
Q 39.0625 48.390625 32.421875 48.390625 
Q 24.90625 48.390625 20.390625 44.140625 
Q 15.875 39.890625 15.1875 32.171875 
z
" id="DejaVuSans-65"/>
    </defs>
    <g transform="translate(608.958211 651.953378)scale(0.08 -0.08)">
     <use xlink:href="#DejaVuSans-63"/>
     <use x="54.980469" xlink:href="#DejaVuSans-61"/>
     <use x="116.259766" xlink:href="#DejaVuSans-72"/>
     <use x="157.341797" xlink:href="#DejaVuSans-6f"/>
     <use x="218.523438" xlink:href="#DejaVuSans-6c"/>
     <use x="246.306641" xlink:href="#DejaVuSans-69"/>
     <use x="274.089844" xlink:href="#DejaVuSans-6e"/>
     <use x="337.46875" xlink:href="#DejaVuSans-65"/>
    </g>
   </g>
   <g id="text_5">
    <!-- north -->
    <g transform="translate(637.473682 563.904719)scale(0.08 -0.08)">
     <use xlink:href="#DejaVuSans-6e"/>
     <use x="63.378906" xlink:href="#DejaVuSans-6f"/>
     <use x="124.560547" xlink:href="#DejaVuSans-72"/>
     <use x="165.673828" xlink:href="#DejaVuSans-74"/>
     <use x="204.882812" xlink:href="#DejaVuSans-68"/>
    </g>
   </g>
   <g id="text_6">
    <!-- carolina -->
    <g transform="translate(521.795849 539.035611)scale(0.08 -0.08)">
     <use xlink:href="#DejaVuSans-63"/>
     <use x="54.980469" xlink:href="#DejaVuSans-61"/>
     <use x="116.259766" xlink:href="#DejaVuSans-72"/>
     <use x="157.341797" xlink:href="#DejaVuSans-6f"/>
     <use x="218.523438" xlink:href="#DejaVuSans-6c"/>
     <use x="246.306641" xlink:href="#DejaVuSans-69"/>
     <use x="274.089844" xlink:href="#DejaVuSans-6e"/>
     <use x="337.46875" xlink:href="#DejaVuSans-61"/>
    </g>
   </g>
   <g id="text_7">
    <!-- carolina -->
    <g transform="translate(540.763037 556.529019)scale(0.08 -0.08)">
     <use xlink:href="#DejaVuSans-63"/>
     <use x="54.980469" xlink:href="#DejaVuSans-61"/>
     <use x="116.259766" xlink:href="#DejaVuSans-72"/>
     <use x="157.341797" xlink:href="#DejaVuSans-6f"/>
     <use x="218.523438" xlink:href="#DejaVuSans-6c"/>
     <use x="246.306641" xlink:href="#DejaVuSans-69"/>
     <use x="274.089844" xlink:href="#DejaVuSans-6e"/>
     <use x="337.46875" xlink:href="#DejaVuSans-61"/>
    </g>
   </g>
   <g id="text_8">
    <!-- south -->
    <g transform="translate(621.299787 523.020233)scale(0.08 -0.08)">
     <use xlink:href="#DejaVuSans-73"/>
     <use x="52.099609" xlink:href="#DejaVuSans-6f"/>
     <use x="113.28125" xlink:href="#DejaVuSans-75"/>
     <use x="176.660156" xlink:href="#DejaVuSans-74"/>
     <use x="215.869141" xlink:href="#DejaVuSans-68"/>
    </g>
   </g>
   <g id="text_9">
    <!-- pennsylvania -->
    <defs>
     <path d="M 18.109375 8.203125 
L 18.109375 -20.796875 
L 9.078125 -20.796875 
L 9.078125 54.6875 
L 18.109375 54.6875 
L 18.109375 46.390625 
Q 20.953125 51.265625 25.265625 53.625 
Q 29.59375 56 35.59375 56 
Q 45.5625 56 51.78125 48.09375 
Q 58.015625 40.1875 58.015625 27.296875 
Q 58.015625 14.40625 51.78125 6.484375 
Q 45.5625 -1.421875 35.59375 -1.421875 
Q 29.59375 -1.421875 25.265625 0.953125 
Q 20.953125 3.328125 18.109375 8.203125 
M 48.6875 27.296875 
Q 48.6875 37.203125 44.609375 42.84375 
Q 40.53125 48.484375 33.40625 48.484375 
Q 26.265625 48.484375 22.1875 42.84375 
Q 18.109375 37.203125 18.109375 27.296875 
Q 18.109375 17.390625 22.1875 11.75 
Q 26.265625 6.109375 33.40625 6.109375 
Q 40.53125 6.109375 44.609375 11.75 
Q 48.6875 17.390625 48.6875 27.296875 
" id="DejaVuSans-70"/>
     <path d="M 32.171875 -5.078125 
Q 28.375 -14.84375 24.75 -17.8125 
Q 21.140625 -20.796875 15.09375 -20.796875 
L 7.90625 -20.796875 
L 7.90625 -13.28125 
L 13.1875 -13.28125 
Q 16.890625 -13.28125 18.9375 -11.515625 
Q 21 -9.765625 23.484375 -3.21875 
L 25.09375 0.875 
L 2.984375 54.6875 
L 12.5 54.6875 
L 29.59375 11.921875 
L 46.6875 54.6875 
L 56.203125 54.6875 
z
" id="DejaVuSans-79"/>
     <path d="M 2.984375 54.6875 
L 12.5 54.6875 
L 29.59375 8.796875 
L 46.6875 54.6875 
L 56.203125 54.6875 
L 35.6875 0 
L 23.484375 0 
z
" id="DejaVuSans-76"/>
    </defs>
    <g transform="translate(545.656326 518.410688)scale(0.08 -0.08)">
     <use xlink:href="#DejaVuSans-70"/>
     <use x="63.476562" xlink:href="#DejaVuSans-65"/>
     <use x="125" xlink:href="#DejaVuSans-6e"/>
     <use x="188.378906" xlink:href="#DejaVuSans-6e"/>
     <use x="251.757812" xlink:href="#DejaVuSans-73"/>
     <use x="303.857422" xlink:href="#DejaVuSans-79"/>
     <use x="363.037109" xlink:href="#DejaVuSans-6c"/>
     <use x="390.820312" xlink:href="#DejaVuSans-76"/>
     <use x="450" xlink:href="#DejaVuSans-61"/>
     <use x="511.279297" xlink:href="#DejaVuSans-6e"/>
     <use x="574.658203" xlink:href="#DejaVuSans-69"/>
     <use x="602.441406" xlink:href="#DejaVuSans-61"/>
    </g>
   </g>
   <g id="text_10">
    <!-- north -->
    <g transform="translate(597.313611 557.980545)scale(0.08 -0.08)">
     <use xlink:href="#DejaVuSans-6e"/>
     <use x="63.378906" xlink:href="#DejaVuSans-6f"/>
     <use x="124.560547" xlink:href="#DejaVuSans-72"/>
     <use x="165.673828" xlink:href="#DejaVuSans-74"/>
     <use x="204.882812" xlink:href="#DejaVuSans-68"/>
    </g>
   </g>
   <g id="text_11">
    <!-- carolina -->
    <g transform="translate(524.64382 546.849738)scale(0.08 -0.08)">
     <use xlink:href="#DejaVuSans-63"/>
     <use x="54.980469" xlink:href="#DejaVuSans-61"/>
     <use x="116.259766" xlink:href="#DejaVuSans-72"/>
     <use x="157.341797" xlink:href="#DejaVuSans-6f"/>
     <use x="218.523438" xlink:href="#DejaVuSans-6c"/>
     <use x="246.306641" xlink:href="#DejaVuSans-69"/>
     <use x="274.089844" xlink:href="#DejaVuSans-6e"/>
     <use x="337.46875" xlink:href="#DejaVuSans-61"/>
    </g>
   </g>
   <g id="text_12">
    <!-- north -->
    <g transform="translate(482.397445 523.501021)scale(0.08 -0.08)">
     <use xlink:href="#DejaVuSans-6e"/>
     <use x="63.378906" xlink:href="#DejaVuSans-6f"/>
     <use x="124.560547" xlink:href="#DejaVuSans-72"/>
     <use x="165.673828" xlink:href="#DejaVuSans-74"/>
     <use x="204.882812" xlink:href="#DejaVuSans-68"/>
    </g>
   </g>
   <g id="text_13">
    <!-- carolina -->
    <g transform="translate(511.556847 525.480133)scale(0.08 -0.08)">
     <use xlink:href="#DejaVuSans-63"/>
     <use x="54.980469" xlink:href="#DejaVuSans-61"/>
     <use x="116.259766" xlink:href="#DejaVuSans-72"/>
     <use x="157.341797" xlink:href="#DejaVuSans-6f"/>
     <use x="218.523438" xlink:href="#DejaVuSans-6c"/>
     <use x="246.306641" xlink:href="#DejaVuSans-69"/>
     <use x="274.089844" xlink:href="#DejaVuSans-6e"/>
     <use x="337.46875" xlink:href="#DejaVuSans-61"/>
    </g>
   </g>
   <g id="text_14">
    <!-- ohio -->
    <g transform="translate(845.157411 503.613191)scale(0.08 -0.08)">
     <use xlink:href="#DejaVuSans-6f"/>
     <use x="61.181641" xlink:href="#DejaVuSans-68"/>
     <use x="124.560547" xlink:href="#DejaVuSans-69"/>
     <use x="152.34375" xlink:href="#DejaVuSans-6f"/>
    </g>
   </g>
   <g id="text_15">
    <!-- pennsylvania -->
    <g transform="translate(144 633.378036)scale(0.08 -0.08)">
     <use xlink:href="#DejaVuSans-70"/>
     <use x="63.476562" xlink:href="#DejaVuSans-65"/>
     <use x="125" xlink:href="#DejaVuSans-6e"/>
     <use x="188.378906" xlink:href="#DejaVuSans-6e"/>
     <use x="251.757812" xlink:href="#DejaVuSans-73"/>
     <use x="303.857422" xlink:href="#DejaVuSans-79"/>
     <use x="363.037109" xlink:href="#DejaVuSans-6c"/>
     <use x="390.820312" xlink:href="#DejaVuSans-76"/>
     <use x="450" xlink:href="#DejaVuSans-61"/>
     <use x="511.279297" xlink:href="#DejaVuSans-6e"/>
     <use x="574.658203" xlink:href="#DejaVuSans-69"/>
     <use x="602.441406" xlink:href="#DejaVuSans-61"/>
    </g>
   </g>
   <g id="text_16">
    <!-- north -->
    <g transform="translate(572.79406 537.344206)scale(0.08 -0.08)">
     <use xlink:href="#DejaVuSans-6e"/>
     <use x="63.378906" xlink:href="#DejaVuSans-6f"/>
     <use x="124.560547" xlink:href="#DejaVuSans-72"/>
     <use x="165.673828" xlink:href="#DejaVuSans-74"/>
     <use x="204.882812" xlink:href="#DejaVuSans-68"/>
    </g>
   </g>
   <g id="text_17">
    <!-- carolina -->
    <g transform="translate(553.152757 521.951829)scale(0.08 -0.08)">
     <use xlink:href="#DejaVuSans-63"/>
     <use x="54.980469" xlink:href="#DejaVuSans-61"/>
     <use x="116.259766" xlink:href="#DejaVuSans-72"/>
     <use x="157.341797" xlink:href="#DejaVuSans-6f"/>
     <use x="218.523438" xlink:href="#DejaVuSans-6c"/>
     <use x="246.306641" xlink:href="#DejaVuSans-69"/>
     <use x="274.089844" xlink:href="#DejaVuSans-6e"/>
     <use x="337.46875" xlink:href="#DejaVuSans-61"/>
    </g>
   </g>
   <g id="text_18">
    <!-- pennsylvania -->
    <g transform="translate(547.426925 524.661743)scale(0.08 -0.08)">
     <use xlink:href="#DejaVuSans-70"/>
     <use x="63.476562" xlink:href="#DejaVuSans-65"/>
     <use x="125" xlink:href="#DejaVuSans-6e"/>
     <use x="188.378906" xlink:href="#DejaVuSans-6e"/>
     <use x="251.757812" xlink:href="#DejaVuSans-73"/>
     <use x="303.857422" xlink:href="#DejaVuSans-79"/>
     <use x="363.037109" xlink:href="#DejaVuSans-6c"/>
     <use x="390.820312" xlink:href="#DejaVuSans-76"/>
     <use x="450" xlink:href="#DejaVuSans-61"/>
     <use x="511.279297" xlink:href="#DejaVuSans-6e"/>
     <use x="574.658203" xlink:href="#DejaVuSans-69"/>
     <use x="602.441406" xlink:href="#DejaVuSans-61"/>
    </g>
   </g>
   <g id="text_19">
    <!-- north -->
    <g transform="translate(559.820942 541.178061)scale(0.08 -0.08)">
     <use xlink:href="#DejaVuSans-6e"/>
     <use x="63.378906" xlink:href="#DejaVuSans-6f"/>
     <use x="124.560547" xlink:href="#DejaVuSans-72"/>
     <use x="165.673828" xlink:href="#DejaVuSans-74"/>
     <use x="204.882812" xlink:href="#DejaVuSans-68"/>
    </g>
   </g>
   <g id="text_20">
    <!-- carolina -->
    <g transform="translate(422.972163 589.25612)scale(0.08 -0.08)">
     <use xlink:href="#DejaVuSans-63"/>
     <use x="54.980469" xlink:href="#DejaVuSans-61"/>
     <use x="116.259766" xlink:href="#DejaVuSans-72"/>
     <use x="157.341797" xlink:href="#DejaVuSans-6f"/>
     <use x="218.523438" xlink:href="#DejaVuSans-6c"/>
     <use x="246.306641" xlink:href="#DejaVuSans-69"/>
     <use x="274.089844" xlink:href="#DejaVuSans-6e"/>
     <use x="337.46875" xlink:href="#DejaVuSans-61"/>
    </g>
   </g>
   <g id="text_21">
    <!-- ohio -->
    <g transform="translate(573.129445 601.66012)scale(0.08 -0.08)">
     <use xlink:href="#DejaVuSans-6f"/>
     <use x="61.181641" xlink:href="#DejaVuSans-68"/>
     <use x="124.560547" xlink:href="#DejaVuSans-69"/>
     <use x="152.34375" xlink:href="#DejaVuSans-6f"/>
    </g>
   </g>
   <g id="text_22">
    <!-- pennsylvania -->
    <g transform="translate(570.849714 524.806733)scale(0.08 -0.08)">
     <use xlink:href="#DejaVuSans-70"/>
     <use x="63.476562" xlink:href="#DejaVuSans-65"/>
     <use x="125" xlink:href="#DejaVuSans-6e"/>
     <use x="188.378906" xlink:href="#DejaVuSans-6e"/>
     <use x="251.757812" xlink:href="#DejaVuSans-73"/>
     <use x="303.857422" xlink:href="#DejaVuSans-79"/>
     <use x="363.037109" xlink:href="#DejaVuSans-6c"/>
     <use x="390.820312" xlink:href="#DejaVuSans-76"/>
     <use x="450" xlink:href="#DejaVuSans-61"/>
     <use x="511.279297" xlink:href="#DejaVuSans-6e"/>
     <use x="574.658203" xlink:href="#DejaVuSans-69"/>
     <use x="602.441406" xlink:href="#DejaVuSans-61"/>
    </g>
   </g>
   <g id="text_23">
    <!-- carolina -->
    <g transform="translate(629.675671 719.208047)scale(0.08 -0.08)">
     <use xlink:href="#DejaVuSans-63"/>
     <use x="54.980469" xlink:href="#DejaVuSans-61"/>
     <use x="116.259766" xlink:href="#DejaVuSans-72"/>
     <use x="157.341797" xlink:href="#DejaVuSans-6f"/>
     <use x="218.523438" xlink:href="#DejaVuSans-6c"/>
     <use x="246.306641" xlink:href="#DejaVuSans-69"/>
     <use x="274.089844" xlink:href="#DejaVuSans-6e"/>
     <use x="337.46875" xlink:href="#DejaVuSans-61"/>
    </g>
   </g>
   <g id="text_24">
    <!-- north -->
    <g transform="translate(549.927808 528.287742)scale(0.08 -0.08)">
     <use xlink:href="#DejaVuSans-6e"/>
     <use x="63.378906" xlink:href="#DejaVuSans-6f"/>
     <use x="124.560547" xlink:href="#DejaVuSans-72"/>
     <use x="165.673828" xlink:href="#DejaVuSans-74"/>
     <use x="204.882812" xlink:href="#DejaVuSans-68"/>
    </g>
   </g>
   <g id="text_25">
    <!-- pennsylvania -->
    <g transform="translate(542.817161 524.597531)scale(0.08 -0.08)">
     <use xlink:href="#DejaVuSans-70"/>
     <use x="63.476562" xlink:href="#DejaVuSans-65"/>
     <use x="125" xlink:href="#DejaVuSans-6e"/>
     <use x="188.378906" xlink:href="#DejaVuSans-6e"/>
     <use x="251.757812" xlink:href="#DejaVuSans-73"/>
     <use x="303.857422" xlink:href="#DejaVuSans-79"/>
     <use x="363.037109" xlink:href="#DejaVuSans-6c"/>
     <use x="390.820312" xlink:href="#DejaVuSans-76"/>
     <use x="450" xlink:href="#DejaVuSans-61"/>
     <use x="511.279297" xlink:href="#DejaVuSans-6e"/>
     <use x="574.658203" xlink:href="#DejaVuSans-69"/>
     <use x="602.441406" xlink:href="#DejaVuSans-61"/>
    </g>
   </g>
   <g id="text_26">
    <!-- north -->
    <g transform="translate(608.11038 556.781158)scale(0.08 -0.08)">
     <use xlink:href="#DejaVuSans-6e"/>
     <use x="63.378906" xlink:href="#DejaVuSans-6f"/>
     <use x="124.560547" xlink:href="#DejaVuSans-72"/>
     <use x="165.673828" xlink:href="#DejaVuSans-74"/>
     <use x="204.882812" xlink:href="#DejaVuSans-68"/>
    </g>
   </g>
   <g id="text_27">
    <!-- carolina -->
    <g transform="translate(516.287264 537.136537)scale(0.08 -0.08)">
     <use xlink:href="#DejaVuSans-63"/>
     <use x="54.980469" xlink:href="#DejaVuSans-61"/>
     <use x="116.259766" xlink:href="#DejaVuSans-72"/>
     <use x="157.341797" xlink:href="#DejaVuSans-6f"/>
     <use x="218.523438" xlink:href="#DejaVuSans-6c"/>
     <use x="246.306641" xlink:href="#DejaVuSans-69"/>
     <use x="274.089844" xlink:href="#DejaVuSans-6e"/>
     <use x="337.46875" xlink:href="#DejaVuSans-61"/>
    </g>
   </g>
   <g id="text_28">
    <!-- ohio -->
    <g transform="translate(833.799657 350.81192)scale(0.08 -0.08)">
     <use xlink:href="#DejaVuSans-6f"/>
     <use x="61.181641" xlink:href="#DejaVuSans-68"/>
     <use x="124.560547" xlink:href="#DejaVuSans-69"/>
     <use x="152.34375" xlink:href="#DejaVuSans-6f"/>
    </g>
   </g>
   <g id="text_29">
    <!-- north -->
    <g transform="translate(527.215915 536.979866)scale(0.08 -0.08)">
     <use xlink:href="#DejaVuSans-6e"/>
     <use x="63.378906" xlink:href="#DejaVuSans-6f"/>
     <use x="124.560547" xlink:href="#DejaVuSans-72"/>
     <use x="165.673828" xlink:href="#DejaVuSans-74"/>
     <use x="204.882812" xlink:href="#DejaVuSans-68"/>
    </g>
   </g>
   <g id="text_30">
    <!-- carolina -->
    <g transform="translate(522.147511 542.009293)scale(0.08 -0.08)">
     <use xlink:href="#DejaVuSans-63"/>
     <use x="54.980469" xlink:href="#DejaVuSans-61"/>
     <use x="116.259766" xlink:href="#DejaVuSans-72"/>
     <use x="157.341797" xlink:href="#DejaVuSans-6f"/>
     <use x="218.523438" xlink:href="#DejaVuSans-6c"/>
     <use x="246.306641" xlink:href="#DejaVuSans-69"/>
     <use x="274.089844" xlink:href="#DejaVuSans-6e"/>
     <use x="337.46875" xlink:href="#DejaVuSans-61"/>
    </g>
   </g>
   <g id="text_31">
    <!-- ohio -->
    <g transform="translate(330.06767 528.462671)scale(0.08 -0.08)">
     <use xlink:href="#DejaVuSans-6f"/>
     <use x="61.181641" xlink:href="#DejaVuSans-68"/>
     <use x="124.560547" xlink:href="#DejaVuSans-69"/>
     <use x="152.34375" xlink:href="#DejaVuSans-6f"/>
    </g>
   </g>
   <g id="text_32">
    <!-- north -->
    <g transform="translate(563.37983 535.766423)scale(0.08 -0.08)">
     <use xlink:href="#DejaVuSans-6e"/>
     <use x="63.378906" xlink:href="#DejaVuSans-6f"/>
     <use x="124.560547" xlink:href="#DejaVuSans-72"/>
     <use x="165.673828" xlink:href="#DejaVuSans-74"/>
     <use x="204.882812" xlink:href="#DejaVuSans-68"/>
    </g>
   </g>
   <g id="text_33">
    <!-- carolina -->
    <g transform="translate(519.717714 547.4712)scale(0.08 -0.08)">
     <use xlink:href="#DejaVuSans-63"/>
     <use x="54.980469" xlink:href="#DejaVuSans-61"/>
     <use x="116.259766" xlink:href="#DejaVuSans-72"/>
     <use x="157.341797" xlink:href="#DejaVuSans-6f"/>
     <use x="218.523438" xlink:href="#DejaVuSans-6c"/>
     <use x="246.306641" xlink:href="#DejaVuSans-69"/>
     <use x="274.089844" xlink:href="#DejaVuSans-6e"/>
     <use x="337.46875" xlink:href="#DejaVuSans-61"/>
    </g>
   </g>
   <g id="text_34">
    <!-- north -->
    <g transform="translate(626.198305 567.595847)scale(0.08 -0.08)">
     <use xlink:href="#DejaVuSans-6e"/>
     <use x="63.378906" xlink:href="#DejaVuSans-6f"/>
     <use x="124.560547" xlink:href="#DejaVuSans-72"/>
     <use x="165.673828" xlink:href="#DejaVuSans-74"/>
     <use x="204.882812" xlink:href="#DejaVuSans-68"/>
    </g>
   </g>
   <g id="text_35">
    <!-- ohio -->
    <g transform="translate(568.55311 503.317726)scale(0.08 -0.08)">
     <use xlink:href="#DejaVuSans-6f"/>
     <use x="61.181641" xlink:href="#DejaVuSans-68"/>
     <use x="124.560547" xlink:href="#DejaVuSans-69"/>
     <use x="152.34375" xlink:href="#DejaVuSans-6f"/>
    </g>
   </g>
   <g id="text_36">
    <!-- pennsylvania -->
    <g transform="translate(495.323918 581.241802)scale(0.08 -0.08)">
     <use xlink:href="#DejaVuSans-70"/>
     <use x="63.476562" xlink:href="#DejaVuSans-65"/>
     <use x="125" xlink:href="#DejaVuSans-6e"/>
     <use x="188.378906" xlink:href="#DejaVuSans-6e"/>
     <use x="251.757812" xlink:href="#DejaVuSans-73"/>
     <use x="303.857422" xlink:href="#DejaVuSans-79"/>
     <use x="363.037109" xlink:href="#DejaVuSans-6c"/>
     <use x="390.820312" xlink:href="#DejaVuSans-76"/>
     <use x="450" xlink:href="#DejaVuSans-61"/>
     <use x="511.279297" xlink:href="#DejaVuSans-6e"/>
     <use x="574.658203" xlink:href="#DejaVuSans-69"/>
     <use x="602.441406" xlink:href="#DejaVuSans-61"/>
    </g>
   </g>
   <g id="text_37">
    <!-- michigan -->
    <defs>
     <path d="M 52 44.1875 
Q 55.375 50.25 60.0625 53.125 
Q 64.75 56 71.09375 56 
Q 79.640625 56 84.28125 50.015625 
Q 88.921875 44.046875 88.921875 33.015625 
L 88.921875 0 
L 79.890625 0 
L 79.890625 32.71875 
Q 79.890625 40.578125 77.09375 44.375 
Q 74.3125 48.1875 68.609375 48.1875 
Q 61.625 48.1875 57.5625 43.546875 
Q 53.515625 38.921875 53.515625 30.90625 
L 53.515625 0 
L 44.484375 0 
L 44.484375 32.71875 
Q 44.484375 40.625 41.703125 44.40625 
Q 38.921875 48.1875 33.109375 48.1875 
Q 26.21875 48.1875 22.15625 43.53125 
Q 18.109375 38.875 18.109375 30.90625 
L 18.109375 0 
L 9.078125 0 
L 9.078125 54.6875 
L 18.109375 54.6875 
L 18.109375 46.1875 
Q 21.1875 51.21875 25.484375 53.609375 
Q 29.78125 56 35.6875 56 
Q 41.65625 56 45.828125 52.96875 
Q 50 49.953125 52 44.1875 
" id="DejaVuSans-6d"/>
     <path d="M 45.40625 27.984375 
Q 45.40625 37.75 41.375 43.109375 
Q 37.359375 48.484375 30.078125 48.484375 
Q 22.859375 48.484375 18.828125 43.109375 
Q 14.796875 37.75 14.796875 27.984375 
Q 14.796875 18.265625 18.828125 12.890625 
Q 22.859375 7.515625 30.078125 7.515625 
Q 37.359375 7.515625 41.375 12.890625 
Q 45.40625 18.265625 45.40625 27.984375 
M 54.390625 6.78125 
Q 54.390625 -7.171875 48.1875 -13.984375 
Q 42 -20.796875 29.203125 -20.796875 
Q 24.46875 -20.796875 20.265625 -20.09375 
Q 16.0625 -19.390625 12.109375 -17.921875 
L 12.109375 -9.1875 
Q 16.0625 -11.328125 19.921875 -12.34375 
Q 23.78125 -13.375 27.78125 -13.375 
Q 36.625 -13.375 41.015625 -8.765625 
Q 45.40625 -4.15625 45.40625 5.171875 
L 45.40625 9.625 
Q 42.625 4.78125 38.28125 2.390625 
Q 33.9375 0 27.875 0 
Q 17.828125 0 11.671875 7.65625 
Q 5.515625 15.328125 5.515625 27.984375 
Q 5.515625 40.671875 11.671875 48.328125 
Q 17.828125 56 27.875 56 
Q 33.9375 56 38.28125 53.609375 
Q 42.625 51.21875 45.40625 46.390625 
L 45.40625 54.6875 
L 54.390625 54.6875 
z
" id="DejaVuSans-67"/>
    </defs>
    <g transform="translate(539.640437 461.521613)scale(0.08 -0.08)">
     <use xlink:href="#DejaVuSans-6d"/>
     <use x="97.412109" xlink:href="#DejaVuSans-69"/>
     <use x="125.195312" xlink:href="#DejaVuSans-63"/>
     <use x="180.175781" xlink:href="#DejaVuSans-68"/>
     <use x="243.554688" xlink:href="#DejaVuSans-69"/>
     <use x="271.337891" xlink:href="#DejaVuSans-67"/>
     <use x="334.814453" xlink:href="#DejaVuSans-61"/>
     <use x="396.09375" xlink:href="#DejaVuSans-6e"/>
    </g>
   </g>
   <g id="text_38">
    <!-- ohio -->
    <g transform="translate(458.04651 546.730401)scale(0.08 -0.08)">
     <use xlink:href="#DejaVuSans-6f"/>
     <use x="61.181641" xlink:href="#DejaVuSans-68"/>
     <use x="124.560547" xlink:href="#DejaVuSans-69"/>
     <use x="152.34375" xlink:href="#DejaVuSans-6f"/>
    </g>
   </g>
   <g id="text_39">
    <!-- north -->
    <g transform="translate(500.579249 542.787072)scale(0.08 -0.08)">
     <use xlink:href="#DejaVuSans-6e"/>
     <use x="63.378906" xlink:href="#DejaVuSans-6f"/>
     <use x="124.560547" xlink:href="#DejaVuSans-72"/>
     <use x="165.673828" xlink:href="#DejaVuSans-74"/>
     <use x="204.882812" xlink:href="#DejaVuSans-68"/>
    </g>
   </g>
   <g id="text_40">
    <!-- carolina -->
    <g transform="translate(511.79036 541.881326)scale(0.08 -0.08)">
     <use xlink:href="#DejaVuSans-63"/>
     <use x="54.980469" xlink:href="#DejaVuSans-61"/>
     <use x="116.259766" xlink:href="#DejaVuSans-72"/>
     <use x="157.341797" xlink:href="#DejaVuSans-6f"/>
     <use x="218.523438" xlink:href="#DejaVuSans-6c"/>
     <use x="246.306641" xlink:href="#DejaVuSans-69"/>
     <use x="274.089844" xlink:href="#DejaVuSans-6e"/>
     <use x="337.46875" xlink:href="#DejaVuSans-61"/>
    </g>
   </g>
   <g id="text_41">
    <!-- michigan -->
    <g transform="translate(539.734383 467.089722)scale(0.08 -0.08)">
     <use xlink:href="#DejaVuSans-6d"/>
     <use x="97.412109" xlink:href="#DejaVuSans-69"/>
     <use x="125.195312" xlink:href="#DejaVuSans-63"/>
     <use x="180.175781" xlink:href="#DejaVuSans-68"/>
     <use x="243.554688" xlink:href="#DejaVuSans-69"/>
     <use x="271.337891" xlink:href="#DejaVuSans-67"/>
     <use x="334.814453" xlink:href="#DejaVuSans-61"/>
     <use x="396.09375" xlink:href="#DejaVuSans-6e"/>
    </g>
   </g>
   <g id="text_42">
    <!-- pennsylvania -->
    <g transform="translate(525.683947 489.461179)scale(0.08 -0.08)">
     <use xlink:href="#DejaVuSans-70"/>
     <use x="63.476562" xlink:href="#DejaVuSans-65"/>
     <use x="125" xlink:href="#DejaVuSans-6e"/>
     <use x="188.378906" xlink:href="#DejaVuSans-6e"/>
     <use x="251.757812" xlink:href="#DejaVuSans-73"/>
     <use x="303.857422" xlink:href="#DejaVuSans-79"/>
     <use x="363.037109" xlink:href="#DejaVuSans-6c"/>
     <use x="390.820312" xlink:href="#DejaVuSans-76"/>
     <use x="450" xlink:href="#DejaVuSans-61"/>
     <use x="511.279297" xlink:href="#DejaVuSans-6e"/>
     <use x="574.658203" xlink:href="#DejaVuSans-69"/>
     <use x="602.441406" xlink:href="#DejaVuSans-61"/>
    </g>
   </g>
   <g id="text_43">
    <!-- carolina -->
    <g transform="translate(510.409936 415.35893)scale(0.08 -0.08)">
     <use xlink:href="#DejaVuSans-63"/>
     <use x="54.980469" xlink:href="#DejaVuSans-61"/>
     <use x="116.259766" xlink:href="#DejaVuSans-72"/>
     <use x="157.341797" xlink:href="#DejaVuSans-6f"/>
     <use x="218.523438" xlink:href="#DejaVuSans-6c"/>
     <use x="246.306641" xlink:href="#DejaVuSans-69"/>
     <use x="274.089844" xlink:href="#DejaVuSans-6e"/>
     <use x="337.46875" xlink:href="#DejaVuSans-61"/>
    </g>
   </g>
   <g id="text_44">
    <!-- north -->
    <g transform="translate(596.555126 429.153632)scale(0.08 -0.08)">
     <use xlink:href="#DejaVuSans-6e"/>
     <use x="63.378906" xlink:href="#DejaVuSans-6f"/>
     <use x="124.560547" xlink:href="#DejaVuSans-72"/>
     <use x="165.673828" xlink:href="#DejaVuSans-74"/>
     <use x="204.882812" xlink:href="#DejaVuSans-68"/>
    </g>
   </g>
   <g id="text_45">
    <!-- carolina -->
    <g transform="translate(625.111659 503.081127)scale(0.08 -0.08)">
     <use xlink:href="#DejaVuSans-63"/>
     <use x="54.980469" xlink:href="#DejaVuSans-61"/>
     <use x="116.259766" xlink:href="#DejaVuSans-72"/>
     <use x="157.341797" xlink:href="#DejaVuSans-6f"/>
     <use x="218.523438" xlink:href="#DejaVuSans-6c"/>
     <use x="246.306641" xlink:href="#DejaVuSans-69"/>
     <use x="274.089844" xlink:href="#DejaVuSans-6e"/>
     <use x="337.46875" xlink:href="#DejaVuSans-61"/>
    </g>
   </g>
   <g id="text_46">
    <!-- korea -->
    <defs>
     <path d="M 9.078125 75.984375 
L 18.109375 75.984375 
L 18.109375 31.109375 
L 44.921875 54.6875 
L 56.390625 54.6875 
L 27.390625 29.109375 
L 57.625 0 
L 45.90625 0 
L 18.109375 26.703125 
L 18.109375 0 
L 9.078125 0 
z
" id="DejaVuSans-6b"/>
    </defs>
    <g transform="translate(459.460904 686.835706)scale(0.08 -0.08)">
     <use xlink:href="#DejaVuSans-6b"/>
     <use x="57.863281" xlink:href="#DejaVuSans-6f"/>
     <use x="119.044922" xlink:href="#DejaVuSans-72"/>
     <use x="160.126953" xlink:href="#DejaVuSans-65"/>
     <use x="221.650391" xlink:href="#DejaVuSans-61"/>
    </g>
   </g>
   <g id="text_47">
    <!-- south -->
    <g transform="translate(323.174978 768.96)scale(0.08 -0.08)">
     <use xlink:href="#DejaVuSans-73"/>
     <use x="52.099609" xlink:href="#DejaVuSans-6f"/>
     <use x="113.28125" xlink:href="#DejaVuSans-75"/>
     <use x="176.660156" xlink:href="#DejaVuSans-74"/>
     <use x="215.869141" xlink:href="#DejaVuSans-68"/>
    </g>
   </g>
   <g id="text_48">
    <!-- south -->
    <g transform="translate(323.174978 768.96)scale(0.08 -0.08)">
     <use xlink:href="#DejaVuSans-73"/>
     <use x="52.099609" xlink:href="#DejaVuSans-6f"/>
     <use x="113.28125" xlink:href="#DejaVuSans-75"/>
     <use x="176.660156" xlink:href="#DejaVuSans-74"/>
     <use x="215.869141" xlink:href="#DejaVuSans-68"/>
    </g>
   </g>
   <g id="text_49">
    <!-- ohio -->
    <g transform="translate(560.46168 708.459536)scale(0.08 -0.08)">
     <use xlink:href="#DejaVuSans-6f"/>
     <use x="61.181641" xlink:href="#DejaVuSans-68"/>
     <use x="124.560547" xlink:href="#DejaVuSans-69"/>
     <use x="152.34375" xlink:href="#DejaVuSans-6f"/>
    </g>
   </g>
   <g id="text_50">
    <!-- ohio -->
    <g transform="translate(458.04651 546.730401)scale(0.08 -0.08)">
     <use xlink:href="#DejaVuSans-6f"/>
     <use x="61.181641" xlink:href="#DejaVuSans-68"/>
     <use x="124.560547" xlink:href="#DejaVuSans-69"/>
     <use x="152.34375" xlink:href="#DejaVuSans-6f"/>
    </g>
   </g>
   <g id="text_51">
    <!-- michigan -->
    <g transform="translate(539.640437 461.521613)scale(0.08 -0.08)">
     <use xlink:href="#DejaVuSans-6d"/>
     <use x="97.412109" xlink:href="#DejaVuSans-69"/>
     <use x="125.195312" xlink:href="#DejaVuSans-63"/>
     <use x="180.175781" xlink:href="#DejaVuSans-68"/>
     <use x="243.554688" xlink:href="#DejaVuSans-69"/>
     <use x="271.337891" xlink:href="#DejaVuSans-67"/>
     <use x="334.814453" xlink:href="#DejaVuSans-61"/>
     <use x="396.09375" xlink:href="#DejaVuSans-6e"/>
    </g>
   </g>
   <g id="text_52">
    <!-- carolina -->
    <g transform="translate(510.409936 415.35893)scale(0.08 -0.08)">
     <use xlink:href="#DejaVuSans-63"/>
     <use x="54.980469" xlink:href="#DejaVuSans-61"/>
     <use x="116.259766" xlink:href="#DejaVuSans-72"/>
     <use x="157.341797" xlink:href="#DejaVuSans-6f"/>
     <use x="218.523438" xlink:href="#DejaVuSans-6c"/>
     <use x="246.306641" xlink:href="#DejaVuSans-69"/>
     <use x="274.089844" xlink:href="#DejaVuSans-6e"/>
     <use x="337.46875" xlink:href="#DejaVuSans-61"/>
    </g>
   </g>
   <g id="text_53">
    <!-- south -->
    <g transform="translate(323.174978 768.96)scale(0.08 -0.08)">
     <use xlink:href="#DejaVuSans-73"/>
     <use x="52.099609" xlink:href="#DejaVuSans-6f"/>
     <use x="113.28125" xlink:href="#DejaVuSans-75"/>
     <use x="176.660156" xlink:href="#DejaVuSans-74"/>
     <use x="215.869141" xlink:href="#DejaVuSans-68"/>
    </g>
   </g>
   <g id="text_54">
    <!-- michigan -->
    <g transform="translate(539.640437 461.521613)scale(0.08 -0.08)">
     <use xlink:href="#DejaVuSans-6d"/>
     <use x="97.412109" xlink:href="#DejaVuSans-69"/>
     <use x="125.195312" xlink:href="#DejaVuSans-63"/>
     <use x="180.175781" xlink:href="#DejaVuSans-68"/>
     <use x="243.554688" xlink:href="#DejaVuSans-69"/>
     <use x="271.337891" xlink:href="#DejaVuSans-67"/>
     <use x="334.814453" xlink:href="#DejaVuSans-61"/>
     <use x="396.09375" xlink:href="#DejaVuSans-6e"/>
    </g>
   </g>
   <g id="text_55">
    <!-- ohio -->
    <g transform="translate(458.04651 546.730401)scale(0.08 -0.08)">
     <use xlink:href="#DejaVuSans-6f"/>
     <use x="61.181641" xlink:href="#DejaVuSans-68"/>
     <use x="124.560547" xlink:href="#DejaVuSans-69"/>
     <use x="152.34375" xlink:href="#DejaVuSans-6f"/>
    </g>
   </g>
   <g id="text_56">
    <!-- michigan -->
    <g transform="translate(539.640437 461.521613)scale(0.08 -0.08)">
     <use xlink:href="#DejaVuSans-6d"/>
     <use x="97.412109" xlink:href="#DejaVuSans-69"/>
     <use x="125.195312" xlink:href="#DejaVuSans-63"/>
     <use x="180.175781" xlink:href="#DejaVuSans-68"/>
     <use x="243.554688" xlink:href="#DejaVuSans-69"/>
     <use x="271.337891" xlink:href="#DejaVuSans-67"/>
     <use x="334.814453" xlink:href="#DejaVuSans-61"/>
     <use x="396.09375" xlink:href="#DejaVuSans-6e"/>
    </g>
   </g>
   <g id="text_57">
    <!-- Cluster 26 - 56 Items -->
    <defs>
     <path d="M 64.40625 67.28125 
L 64.40625 56.890625 
Q 59.421875 61.53125 53.78125 63.8125 
Q 48.140625 66.109375 41.796875 66.109375 
Q 29.296875 66.109375 22.65625 58.46875 
Q 16.015625 50.828125 16.015625 36.375 
Q 16.015625 21.96875 22.65625 14.328125 
Q 29.296875 6.6875 41.796875 6.6875 
Q 48.140625 6.6875 53.78125 8.984375 
Q 59.421875 11.28125 64.40625 15.921875 
L 64.40625 5.609375 
Q 59.234375 2.09375 53.4375 0.328125 
Q 47.65625 -1.421875 41.21875 -1.421875 
Q 24.65625 -1.421875 15.125 8.703125 
Q 5.609375 18.84375 5.609375 36.375 
Q 5.609375 53.953125 15.125 64.078125 
Q 24.65625 74.21875 41.21875 74.21875 
Q 47.75 74.21875 53.53125 72.484375 
Q 59.328125 70.75 64.40625 67.28125 
" id="DejaVuSans-43"/>
     <path id="DejaVuSans-20"/>
     <path d="M 19.1875 8.296875 
L 53.609375 8.296875 
L 53.609375 0 
L 7.328125 0 
L 7.328125 8.296875 
Q 12.9375 14.109375 22.625 23.890625 
Q 32.328125 33.6875 34.8125 36.53125 
Q 39.546875 41.84375 41.421875 45.53125 
Q 43.3125 49.21875 43.3125 52.78125 
Q 43.3125 58.59375 39.234375 62.25 
Q 35.15625 65.921875 28.609375 65.921875 
Q 23.96875 65.921875 18.8125 64.3125 
Q 13.671875 62.703125 7.8125 59.421875 
L 7.8125 69.390625 
Q 13.765625 71.78125 18.9375 73 
Q 24.125 74.21875 28.421875 74.21875 
Q 39.75 74.21875 46.484375 68.546875 
Q 53.21875 62.890625 53.21875 53.421875 
Q 53.21875 48.921875 51.53125 44.890625 
Q 49.859375 40.875 45.40625 35.40625 
Q 44.1875 33.984375 37.640625 27.21875 
Q 31.109375 20.453125 19.1875 8.296875 
" id="DejaVuSans-32"/>
     <path d="M 33.015625 40.375 
Q 26.375 40.375 22.484375 35.828125 
Q 18.609375 31.296875 18.609375 23.390625 
Q 18.609375 15.53125 22.484375 10.953125 
Q 26.375 6.390625 33.015625 6.390625 
Q 39.65625 6.390625 43.53125 10.953125 
Q 47.40625 15.53125 47.40625 23.390625 
Q 47.40625 31.296875 43.53125 35.828125 
Q 39.65625 40.375 33.015625 40.375 
M 52.59375 71.296875 
L 52.59375 62.3125 
Q 48.875 64.0625 45.09375 64.984375 
Q 41.3125 65.921875 37.59375 65.921875 
Q 27.828125 65.921875 22.671875 59.328125 
Q 17.53125 52.734375 16.796875 39.40625 
Q 19.671875 43.65625 24.015625 45.921875 
Q 28.375 48.1875 33.59375 48.1875 
Q 44.578125 48.1875 50.953125 41.515625 
Q 57.328125 34.859375 57.328125 23.390625 
Q 57.328125 12.15625 50.6875 5.359375 
Q 44.046875 -1.421875 33.015625 -1.421875 
Q 20.359375 -1.421875 13.671875 8.265625 
Q 6.984375 17.96875 6.984375 36.375 
Q 6.984375 53.65625 15.1875 63.9375 
Q 23.390625 74.21875 37.203125 74.21875 
Q 40.921875 74.21875 44.703125 73.484375 
Q 48.484375 72.75 52.59375 71.296875 
" id="DejaVuSans-36"/>
     <path d="M 4.890625 31.390625 
L 31.203125 31.390625 
L 31.203125 23.390625 
L 4.890625 23.390625 
z
" id="DejaVuSans-2d"/>
     <path d="M 10.796875 72.90625 
L 49.515625 72.90625 
L 49.515625 64.59375 
L 19.828125 64.59375 
L 19.828125 46.734375 
Q 21.96875 47.46875 24.109375 47.828125 
Q 26.265625 48.1875 28.421875 48.1875 
Q 40.625 48.1875 47.75 41.5 
Q 54.890625 34.8125 54.890625 23.390625 
Q 54.890625 11.625 47.5625 5.09375 
Q 40.234375 -1.421875 26.90625 -1.421875 
Q 22.3125 -1.421875 17.546875 -0.640625 
Q 12.796875 0.140625 7.71875 1.703125 
L 7.71875 11.625 
Q 12.109375 9.234375 16.796875 8.0625 
Q 21.484375 6.890625 26.703125 6.890625 
Q 35.15625 6.890625 40.078125 11.328125 
Q 45.015625 15.765625 45.015625 23.390625 
Q 45.015625 31 40.078125 35.4375 
Q 35.15625 39.890625 26.703125 39.890625 
Q 22.75 39.890625 18.8125 39.015625 
Q 14.890625 38.140625 10.796875 36.28125 
z
" id="DejaVuSans-35"/>
     <path d="M 9.8125 72.90625 
L 19.671875 72.90625 
L 19.671875 0 
L 9.8125 0 
z
" id="DejaVuSans-49"/>
    </defs>
    <g transform="translate(527.258438 97.68)scale(0.12 -0.12)">
     <use xlink:href="#DejaVuSans-43"/>
     <use x="69.824219" xlink:href="#DejaVuSans-6c"/>
     <use x="97.607422" xlink:href="#DejaVuSans-75"/>
     <use x="160.986328" xlink:href="#DejaVuSans-73"/>
     <use x="213.085938" xlink:href="#DejaVuSans-74"/>
     <use x="252.294922" xlink:href="#DejaVuSans-65"/>
     <use x="313.818359" xlink:href="#DejaVuSans-72"/>
     <use x="354.931641" xlink:href="#DejaVuSans-20"/>
     <use x="386.71875" xlink:href="#DejaVuSans-32"/>
     <use x="450.341797" xlink:href="#DejaVuSans-36"/>
     <use x="513.964844" xlink:href="#DejaVuSans-20"/>
     <use x="545.751953" xlink:href="#DejaVuSans-2d"/>
     <use x="581.835938" xlink:href="#DejaVuSans-20"/>
     <use x="613.623047" xlink:href="#DejaVuSans-35"/>
     <use x="677.246094" xlink:href="#DejaVuSans-36"/>
     <use x="740.869141" xlink:href="#DejaVuSans-20"/>
     <use x="772.65625" xlink:href="#DejaVuSans-49"/>
     <use x="802.148438" xlink:href="#DejaVuSans-74"/>
     <use x="841.357422" xlink:href="#DejaVuSans-65"/>
     <use x="902.880859" xlink:href="#DejaVuSans-6d"/>
     <use x="1000.292969" xlink:href="#DejaVuSans-73"/>
    </g>
   </g>
  </g>
 </g>
</svg>
