<?xml version="1.0" encoding="utf-8" standalone="no"?>
<!DOCTYPE svg PUBLIC "-//W3C//DTD SVG 1.1//EN"
  "http://www.w3.org/Graphics/SVG/1.1/DTD/svg11.dtd">
<!-- Created with matplotlib (http://matplotlib.org/) -->
<svg height="864pt" version="1.1" viewBox="0 0 1152 864" width="1152pt" xmlns="http://www.w3.org/2000/svg" xmlns:xlink="http://www.w3.org/1999/xlink">
 <defs>
  <style type="text/css">
*{stroke-linecap:butt;stroke-linejoin:round;}
  </style>
 </defs>
 <g id="figure_1">
  <g id="patch_1">
   <path d="M 0 864 
L 1152 864 
L 1152 0 
L 0 0 
z
" style="fill:#ffffff;"/>
  </g>
  <g id="axes_1">
   <g id="text_1">
    <!-- sixty-two -->
    <defs>
     <path d="M 44.28125 53.078125 
L 44.28125 44.578125 
Q 40.484375 46.53125 36.375 47.5 
Q 32.28125 48.484375 27.875 48.484375 
Q 21.1875 48.484375 17.84375 46.4375 
Q 14.5 44.390625 14.5 40.28125 
Q 14.5 37.15625 16.890625 35.375 
Q 19.28125 33.59375 26.515625 31.984375 
L 29.59375 31.296875 
Q 39.15625 29.25 43.1875 25.515625 
Q 47.21875 21.78125 47.21875 15.09375 
Q 47.21875 7.46875 41.1875 3.015625 
Q 35.15625 -1.421875 24.609375 -1.421875 
Q 20.21875 -1.421875 15.453125 -0.5625 
Q 10.6875 0.296875 5.421875 2 
L 5.421875 11.28125 
Q 10.40625 8.6875 15.234375 7.390625 
Q 20.0625 6.109375 24.8125 6.109375 
Q 31.15625 6.109375 34.5625 8.28125 
Q 37.984375 10.453125 37.984375 14.40625 
Q 37.984375 18.0625 35.515625 20.015625 
Q 33.0625 21.96875 24.703125 23.78125 
L 21.578125 24.515625 
Q 13.234375 26.265625 9.515625 29.90625 
Q 5.8125 33.546875 5.8125 39.890625 
Q 5.8125 47.609375 11.28125 51.796875 
Q 16.75 56 26.8125 56 
Q 31.78125 56 36.171875 55.265625 
Q 40.578125 54.546875 44.28125 53.078125 
" id="DejaVuSans-73"/>
     <path d="M 9.421875 54.6875 
L 18.40625 54.6875 
L 18.40625 0 
L 9.421875 0 
z
M 9.421875 75.984375 
L 18.40625 75.984375 
L 18.40625 64.59375 
L 9.421875 64.59375 
z
" id="DejaVuSans-69"/>
     <path d="M 54.890625 54.6875 
L 35.109375 28.078125 
L 55.90625 0 
L 45.3125 0 
L 29.390625 21.484375 
L 13.484375 0 
L 2.875 0 
L 24.125 28.609375 
L 4.6875 54.6875 
L 15.28125 54.6875 
L 29.78125 35.203125 
L 44.28125 54.6875 
z
" id="DejaVuSans-78"/>
     <path d="M 18.3125 70.21875 
L 18.3125 54.6875 
L 36.8125 54.6875 
L 36.8125 47.703125 
L 18.3125 47.703125 
L 18.3125 18.015625 
Q 18.3125 11.328125 20.140625 9.421875 
Q 21.96875 7.515625 27.59375 7.515625 
L 36.8125 7.515625 
L 36.8125 0 
L 27.59375 0 
Q 17.1875 0 13.234375 3.875 
Q 9.28125 7.765625 9.28125 18.015625 
L 9.28125 47.703125 
L 2.6875 47.703125 
L 2.6875 54.6875 
L 9.28125 54.6875 
L 9.28125 70.21875 
z
" id="DejaVuSans-74"/>
     <path d="M 32.171875 -5.078125 
Q 28.375 -14.84375 24.75 -17.8125 
Q 21.140625 -20.796875 15.09375 -20.796875 
L 7.90625 -20.796875 
L 7.90625 -13.28125 
L 13.1875 -13.28125 
Q 16.890625 -13.28125 18.9375 -11.515625 
Q 21 -9.765625 23.484375 -3.21875 
L 25.09375 0.875 
L 2.984375 54.6875 
L 12.5 54.6875 
L 29.59375 11.921875 
L 46.6875 54.6875 
L 56.203125 54.6875 
z
" id="DejaVuSans-79"/>
     <path d="M 4.890625 31.390625 
L 31.203125 31.390625 
L 31.203125 23.390625 
L 4.890625 23.390625 
z
" id="DejaVuSans-2d"/>
     <path d="M 4.203125 54.6875 
L 13.1875 54.6875 
L 24.421875 12.015625 
L 35.59375 54.6875 
L 46.1875 54.6875 
L 57.421875 12.015625 
L 68.609375 54.6875 
L 77.59375 54.6875 
L 63.28125 0 
L 52.6875 0 
L 40.921875 44.828125 
L 29.109375 0 
L 18.5 0 
z
" id="DejaVuSans-77"/>
     <path d="M 30.609375 48.390625 
Q 23.390625 48.390625 19.1875 42.75 
Q 14.984375 37.109375 14.984375 27.296875 
Q 14.984375 17.484375 19.15625 11.84375 
Q 23.34375 6.203125 30.609375 6.203125 
Q 37.796875 6.203125 41.984375 11.859375 
Q 46.1875 17.53125 46.1875 27.296875 
Q 46.1875 37.015625 41.984375 42.703125 
Q 37.796875 48.390625 30.609375 48.390625 
M 30.609375 56 
Q 42.328125 56 49.015625 48.375 
Q 55.71875 40.765625 55.71875 27.296875 
Q 55.71875 13.875 49.015625 6.21875 
Q 42.328125 -1.421875 30.609375 -1.421875 
Q 18.84375 -1.421875 12.171875 6.21875 
Q 5.515625 13.875 5.515625 27.296875 
Q 5.515625 40.765625 12.171875 48.375 
Q 18.84375 56 30.609375 56 
" id="DejaVuSans-6f"/>
    </defs>
    <g transform="translate(518.924864 539.859104)scale(0.0579 -0.0579)">
     <use xlink:href="#DejaVuSans-73"/>
     <use x="52.099609" xlink:href="#DejaVuSans-69"/>
     <use x="79.882812" xlink:href="#DejaVuSans-78"/>
     <use x="139.0625" xlink:href="#DejaVuSans-74"/>
     <use x="178.271484" xlink:href="#DejaVuSans-79"/>
     <use x="237.435547" xlink:href="#DejaVuSans-2d"/>
     <use x="273.519531" xlink:href="#DejaVuSans-74"/>
     <use x="312.728516" xlink:href="#DejaVuSans-77"/>
     <use x="394.515625" xlink:href="#DejaVuSans-6f"/>
    </g>
   </g>
   <g id="text_2">
    <!-- ninety-seven -->
    <defs>
     <path d="M 54.890625 33.015625 
L 54.890625 0 
L 45.90625 0 
L 45.90625 32.71875 
Q 45.90625 40.484375 42.875 44.328125 
Q 39.84375 48.1875 33.796875 48.1875 
Q 26.515625 48.1875 22.3125 43.546875 
Q 18.109375 38.921875 18.109375 30.90625 
L 18.109375 0 
L 9.078125 0 
L 9.078125 54.6875 
L 18.109375 54.6875 
L 18.109375 46.1875 
Q 21.34375 51.125 25.703125 53.5625 
Q 30.078125 56 35.796875 56 
Q 45.21875 56 50.046875 50.171875 
Q 54.890625 44.34375 54.890625 33.015625 
" id="DejaVuSans-6e"/>
     <path d="M 56.203125 29.59375 
L 56.203125 25.203125 
L 14.890625 25.203125 
Q 15.484375 15.921875 20.484375 11.0625 
Q 25.484375 6.203125 34.421875 6.203125 
Q 39.59375 6.203125 44.453125 7.46875 
Q 49.3125 8.734375 54.109375 11.28125 
L 54.109375 2.78125 
Q 49.265625 0.734375 44.1875 -0.34375 
Q 39.109375 -1.421875 33.890625 -1.421875 
Q 20.796875 -1.421875 13.15625 6.1875 
Q 5.515625 13.8125 5.515625 26.8125 
Q 5.515625 40.234375 12.765625 48.109375 
Q 20.015625 56 32.328125 56 
Q 43.359375 56 49.78125 48.890625 
Q 56.203125 41.796875 56.203125 29.59375 
M 47.21875 32.234375 
Q 47.125 39.59375 43.09375 43.984375 
Q 39.0625 48.390625 32.421875 48.390625 
Q 24.90625 48.390625 20.390625 44.140625 
Q 15.875 39.890625 15.1875 32.171875 
z
" id="DejaVuSans-65"/>
     <path d="M 2.984375 54.6875 
L 12.5 54.6875 
L 29.59375 8.796875 
L 46.6875 54.6875 
L 56.203125 54.6875 
L 35.6875 0 
L 23.484375 0 
z
" id="DejaVuSans-76"/>
    </defs>
    <g transform="translate(503.532872 533.697092)scale(0.0579 -0.0579)">
     <use xlink:href="#DejaVuSans-6e"/>
     <use x="63.378906" xlink:href="#DejaVuSans-69"/>
     <use x="91.162109" xlink:href="#DejaVuSans-6e"/>
     <use x="154.541016" xlink:href="#DejaVuSans-65"/>
     <use x="216.064453" xlink:href="#DejaVuSans-74"/>
     <use x="255.273438" xlink:href="#DejaVuSans-79"/>
     <use x="314.4375" xlink:href="#DejaVuSans-2d"/>
     <use x="350.521484" xlink:href="#DejaVuSans-73"/>
     <use x="402.621094" xlink:href="#DejaVuSans-65"/>
     <use x="464.144531" xlink:href="#DejaVuSans-76"/>
     <use x="523.324219" xlink:href="#DejaVuSans-65"/>
     <use x="584.847656" xlink:href="#DejaVuSans-6e"/>
    </g>
   </g>
   <g id="text_3">
    <!-- illinois -->
    <defs>
     <path d="M 9.421875 75.984375 
L 18.40625 75.984375 
L 18.40625 0 
L 9.421875 0 
z
" id="DejaVuSans-6c"/>
    </defs>
    <g transform="translate(484.921449 531.554457)scale(0.0579 -0.0579)">
     <use xlink:href="#DejaVuSans-69"/>
     <use x="27.783203" xlink:href="#DejaVuSans-6c"/>
     <use x="55.566406" xlink:href="#DejaVuSans-6c"/>
     <use x="83.349609" xlink:href="#DejaVuSans-69"/>
     <use x="111.132812" xlink:href="#DejaVuSans-6e"/>
     <use x="174.511719" xlink:href="#DejaVuSans-6f"/>
     <use x="235.693359" xlink:href="#DejaVuSans-69"/>
     <use x="263.476562" xlink:href="#DejaVuSans-73"/>
    </g>
   </g>
   <g id="text_4">
    <!-- nevada -->
    <defs>
     <path d="M 34.28125 27.484375 
Q 23.390625 27.484375 19.1875 25 
Q 14.984375 22.515625 14.984375 16.5 
Q 14.984375 11.71875 18.140625 8.90625 
Q 21.296875 6.109375 26.703125 6.109375 
Q 34.1875 6.109375 38.703125 11.40625 
Q 43.21875 16.703125 43.21875 25.484375 
L 43.21875 27.484375 
z
M 52.203125 31.203125 
L 52.203125 0 
L 43.21875 0 
L 43.21875 8.296875 
Q 40.140625 3.328125 35.546875 0.953125 
Q 30.953125 -1.421875 24.3125 -1.421875 
Q 15.921875 -1.421875 10.953125 3.296875 
Q 6 8.015625 6 15.921875 
Q 6 25.140625 12.171875 29.828125 
Q 18.359375 34.515625 30.609375 34.515625 
L 43.21875 34.515625 
L 43.21875 35.40625 
Q 43.21875 41.609375 39.140625 45 
Q 35.0625 48.390625 27.6875 48.390625 
Q 23 48.390625 18.546875 47.265625 
Q 14.109375 46.140625 10.015625 43.890625 
L 10.015625 52.203125 
Q 14.9375 54.109375 19.578125 55.046875 
Q 24.21875 56 28.609375 56 
Q 40.484375 56 46.34375 49.84375 
Q 52.203125 43.703125 52.203125 31.203125 
" id="DejaVuSans-61"/>
     <path d="M 45.40625 46.390625 
L 45.40625 75.984375 
L 54.390625 75.984375 
L 54.390625 0 
L 45.40625 0 
L 45.40625 8.203125 
Q 42.578125 3.328125 38.25 0.953125 
Q 33.9375 -1.421875 27.875 -1.421875 
Q 17.96875 -1.421875 11.734375 6.484375 
Q 5.515625 14.40625 5.515625 27.296875 
Q 5.515625 40.1875 11.734375 48.09375 
Q 17.96875 56 27.875 56 
Q 33.9375 56 38.25 53.625 
Q 42.578125 51.265625 45.40625 46.390625 
M 14.796875 27.296875 
Q 14.796875 17.390625 18.875 11.75 
Q 22.953125 6.109375 30.078125 6.109375 
Q 37.203125 6.109375 41.296875 11.75 
Q 45.40625 17.390625 45.40625 27.296875 
Q 45.40625 37.203125 41.296875 42.84375 
Q 37.203125 48.484375 30.078125 48.484375 
Q 22.953125 48.484375 18.875 42.84375 
Q 14.796875 37.203125 14.796875 27.296875 
" id="DejaVuSans-64"/>
    </defs>
    <g transform="translate(1036.8 614.161145)scale(0.0579 -0.0579)">
     <use xlink:href="#DejaVuSans-6e"/>
     <use x="63.378906" xlink:href="#DejaVuSans-65"/>
     <use x="124.902344" xlink:href="#DejaVuSans-76"/>
     <use x="184.082031" xlink:href="#DejaVuSans-61"/>
     <use x="245.361328" xlink:href="#DejaVuSans-64"/>
     <use x="308.837891" xlink:href="#DejaVuSans-61"/>
    </g>
   </g>
   <g id="text_5">
    <!-- wisconsin -->
    <defs>
     <path d="M 48.78125 52.59375 
L 48.78125 44.1875 
Q 44.96875 46.296875 41.140625 47.34375 
Q 37.3125 48.390625 33.40625 48.390625 
Q 24.65625 48.390625 19.8125 42.84375 
Q 14.984375 37.3125 14.984375 27.296875 
Q 14.984375 17.28125 19.8125 11.734375 
Q 24.65625 6.203125 33.40625 6.203125 
Q 37.3125 6.203125 41.140625 7.25 
Q 44.96875 8.296875 48.78125 10.40625 
L 48.78125 2.09375 
Q 45.015625 0.34375 40.984375 -0.53125 
Q 36.96875 -1.421875 32.421875 -1.421875 
Q 20.0625 -1.421875 12.78125 6.34375 
Q 5.515625 14.109375 5.515625 27.296875 
Q 5.515625 40.671875 12.859375 48.328125 
Q 20.21875 56 33.015625 56 
Q 37.15625 56 41.109375 55.140625 
Q 45.0625 54.296875 48.78125 52.59375 
" id="DejaVuSans-63"/>
    </defs>
    <g transform="translate(552.518554 567.975491)scale(0.0579 -0.0579)">
     <use xlink:href="#DejaVuSans-77"/>
     <use x="81.787109" xlink:href="#DejaVuSans-69"/>
     <use x="109.570312" xlink:href="#DejaVuSans-73"/>
     <use x="161.669922" xlink:href="#DejaVuSans-63"/>
     <use x="216.650391" xlink:href="#DejaVuSans-6f"/>
     <use x="277.832031" xlink:href="#DejaVuSans-6e"/>
     <use x="341.210938" xlink:href="#DejaVuSans-73"/>
     <use x="393.310547" xlink:href="#DejaVuSans-69"/>
     <use x="421.09375" xlink:href="#DejaVuSans-6e"/>
    </g>
   </g>
   <g id="text_6">
    <!-- statistics -->
    <g transform="translate(491.943381 557.044105)scale(0.0579 -0.0579)">
     <use xlink:href="#DejaVuSans-73"/>
     <use x="52.099609" xlink:href="#DejaVuSans-74"/>
     <use x="91.308594" xlink:href="#DejaVuSans-61"/>
     <use x="152.587891" xlink:href="#DejaVuSans-74"/>
     <use x="191.796875" xlink:href="#DejaVuSans-69"/>
     <use x="219.580078" xlink:href="#DejaVuSans-73"/>
     <use x="271.679688" xlink:href="#DejaVuSans-74"/>
     <use x="310.888672" xlink:href="#DejaVuSans-69"/>
     <use x="338.671875" xlink:href="#DejaVuSans-63"/>
     <use x="393.652344" xlink:href="#DejaVuSans-73"/>
    </g>
   </g>
   <g id="text_7">
    <!-- comics -->
    <defs>
     <path d="M 52 44.1875 
Q 55.375 50.25 60.0625 53.125 
Q 64.75 56 71.09375 56 
Q 79.640625 56 84.28125 50.015625 
Q 88.921875 44.046875 88.921875 33.015625 
L 88.921875 0 
L 79.890625 0 
L 79.890625 32.71875 
Q 79.890625 40.578125 77.09375 44.375 
Q 74.3125 48.1875 68.609375 48.1875 
Q 61.625 48.1875 57.5625 43.546875 
Q 53.515625 38.921875 53.515625 30.90625 
L 53.515625 0 
L 44.484375 0 
L 44.484375 32.71875 
Q 44.484375 40.625 41.703125 44.40625 
Q 38.921875 48.1875 33.109375 48.1875 
Q 26.21875 48.1875 22.15625 43.53125 
Q 18.109375 38.875 18.109375 30.90625 
L 18.109375 0 
L 9.078125 0 
L 9.078125 54.6875 
L 18.109375 54.6875 
L 18.109375 46.1875 
Q 21.1875 51.21875 25.484375 53.609375 
Q 29.78125 56 35.6875 56 
Q 41.65625 56 45.828125 52.96875 
Q 50 49.953125 52 44.1875 
" id="DejaVuSans-6d"/>
    </defs>
    <g transform="translate(505.432203 552.027602)scale(0.0579 -0.0579)">
     <use xlink:href="#DejaVuSans-63"/>
     <use x="54.980469" xlink:href="#DejaVuSans-6f"/>
     <use x="116.162109" xlink:href="#DejaVuSans-6d"/>
     <use x="213.574219" xlink:href="#DejaVuSans-69"/>
     <use x="241.357422" xlink:href="#DejaVuSans-63"/>
     <use x="296.337891" xlink:href="#DejaVuSans-73"/>
    </g>
   </g>
   <g id="text_8">
    <!-- caroline -->
    <defs>
     <path d="M 41.109375 46.296875 
Q 39.59375 47.171875 37.8125 47.578125 
Q 36.03125 48 33.890625 48 
Q 26.265625 48 22.1875 43.046875 
Q 18.109375 38.09375 18.109375 28.8125 
L 18.109375 0 
L 9.078125 0 
L 9.078125 54.6875 
L 18.109375 54.6875 
L 18.109375 46.1875 
Q 20.953125 51.171875 25.484375 53.578125 
Q 30.03125 56 36.53125 56 
Q 37.453125 56 38.578125 55.875 
Q 39.703125 55.765625 41.0625 55.515625 
z
" id="DejaVuSans-72"/>
    </defs>
    <g transform="translate(281.115869 302.034783)scale(0.0579 -0.0579)">
     <use xlink:href="#DejaVuSans-63"/>
     <use x="54.980469" xlink:href="#DejaVuSans-61"/>
     <use x="116.259766" xlink:href="#DejaVuSans-72"/>
     <use x="157.341797" xlink:href="#DejaVuSans-6f"/>
     <use x="218.523438" xlink:href="#DejaVuSans-6c"/>
     <use x="246.306641" xlink:href="#DejaVuSans-69"/>
     <use x="274.089844" xlink:href="#DejaVuSans-6e"/>
     <use x="337.46875" xlink:href="#DejaVuSans-65"/>
    </g>
   </g>
   <g id="text_9">
    <!-- congratulations -->
    <defs>
     <path d="M 45.40625 27.984375 
Q 45.40625 37.75 41.375 43.109375 
Q 37.359375 48.484375 30.078125 48.484375 
Q 22.859375 48.484375 18.828125 43.109375 
Q 14.796875 37.75 14.796875 27.984375 
Q 14.796875 18.265625 18.828125 12.890625 
Q 22.859375 7.515625 30.078125 7.515625 
Q 37.359375 7.515625 41.375 12.890625 
Q 45.40625 18.265625 45.40625 27.984375 
M 54.390625 6.78125 
Q 54.390625 -7.171875 48.1875 -13.984375 
Q 42 -20.796875 29.203125 -20.796875 
Q 24.46875 -20.796875 20.265625 -20.09375 
Q 16.0625 -19.390625 12.109375 -17.921875 
L 12.109375 -9.1875 
Q 16.0625 -11.328125 19.921875 -12.34375 
Q 23.78125 -13.375 27.78125 -13.375 
Q 36.625 -13.375 41.015625 -8.765625 
Q 45.40625 -4.15625 45.40625 5.171875 
L 45.40625 9.625 
Q 42.625 4.78125 38.28125 2.390625 
Q 33.9375 0 27.875 0 
Q 17.828125 0 11.671875 7.65625 
Q 5.515625 15.328125 5.515625 27.984375 
Q 5.515625 40.671875 11.671875 48.328125 
Q 17.828125 56 27.875 56 
Q 33.9375 56 38.28125 53.609375 
Q 42.625 51.21875 45.40625 46.390625 
L 45.40625 54.6875 
L 54.390625 54.6875 
z
" id="DejaVuSans-67"/>
     <path d="M 8.5 21.578125 
L 8.5 54.6875 
L 17.484375 54.6875 
L 17.484375 21.921875 
Q 17.484375 14.15625 20.5 10.265625 
Q 23.53125 6.390625 29.59375 6.390625 
Q 36.859375 6.390625 41.078125 11.03125 
Q 45.3125 15.671875 45.3125 23.6875 
L 45.3125 54.6875 
L 54.296875 54.6875 
L 54.296875 0 
L 45.3125 0 
L 45.3125 8.40625 
Q 42.046875 3.421875 37.71875 1 
Q 33.40625 -1.421875 27.6875 -1.421875 
Q 18.265625 -1.421875 13.375 4.4375 
Q 8.5 10.296875 8.5 21.578125 
M 31.109375 56 
z
" id="DejaVuSans-75"/>
    </defs>
    <g transform="translate(513.919301 558.893973)scale(0.0579 -0.0579)">
     <use xlink:href="#DejaVuSans-63"/>
     <use x="54.980469" xlink:href="#DejaVuSans-6f"/>
     <use x="116.162109" xlink:href="#DejaVuSans-6e"/>
     <use x="179.541016" xlink:href="#DejaVuSans-67"/>
     <use x="243.017578" xlink:href="#DejaVuSans-72"/>
     <use x="284.130859" xlink:href="#DejaVuSans-61"/>
     <use x="345.410156" xlink:href="#DejaVuSans-74"/>
     <use x="384.619141" xlink:href="#DejaVuSans-75"/>
     <use x="447.998047" xlink:href="#DejaVuSans-6c"/>
     <use x="475.78125" xlink:href="#DejaVuSans-61"/>
     <use x="537.060547" xlink:href="#DejaVuSans-74"/>
     <use x="576.269531" xlink:href="#DejaVuSans-69"/>
     <use x="604.052734" xlink:href="#DejaVuSans-6f"/>
     <use x="665.234375" xlink:href="#DejaVuSans-6e"/>
     <use x="728.613281" xlink:href="#DejaVuSans-73"/>
    </g>
   </g>
   <g id="text_10">
    <!-- suffolk -->
    <defs>
     <path d="M 37.109375 75.984375 
L 37.109375 68.5 
L 28.515625 68.5 
Q 23.6875 68.5 21.796875 66.546875 
Q 19.921875 64.59375 19.921875 59.515625 
L 19.921875 54.6875 
L 34.71875 54.6875 
L 34.71875 47.703125 
L 19.921875 47.703125 
L 19.921875 0 
L 10.890625 0 
L 10.890625 47.703125 
L 2.296875 47.703125 
L 2.296875 54.6875 
L 10.890625 54.6875 
L 10.890625 58.5 
Q 10.890625 67.625 15.140625 71.796875 
Q 19.390625 75.984375 28.609375 75.984375 
z
" id="DejaVuSans-66"/>
     <path d="M 9.078125 75.984375 
L 18.109375 75.984375 
L 18.109375 31.109375 
L 44.921875 54.6875 
L 56.390625 54.6875 
L 27.390625 29.109375 
L 57.625 0 
L 45.90625 0 
L 18.109375 26.703125 
L 18.109375 0 
L 9.078125 0 
z
" id="DejaVuSans-6b"/>
    </defs>
    <g transform="translate(478.02968 542.010622)scale(0.0579 -0.0579)">
     <use xlink:href="#DejaVuSans-73"/>
     <use x="52.099609" xlink:href="#DejaVuSans-75"/>
     <use x="115.478516" xlink:href="#DejaVuSans-66"/>
     <use x="150.683594" xlink:href="#DejaVuSans-66"/>
     <use x="185.888672" xlink:href="#DejaVuSans-6f"/>
     <use x="247.070312" xlink:href="#DejaVuSans-6c"/>
     <use x="274.853516" xlink:href="#DejaVuSans-6b"/>
    </g>
   </g>
   <g id="text_11">
    <!-- county -->
    <g transform="translate(444.938787 558.573056)scale(0.0579 -0.0579)">
     <use xlink:href="#DejaVuSans-63"/>
     <use x="54.980469" xlink:href="#DejaVuSans-6f"/>
     <use x="116.162109" xlink:href="#DejaVuSans-75"/>
     <use x="179.541016" xlink:href="#DejaVuSans-6e"/>
     <use x="242.919922" xlink:href="#DejaVuSans-74"/>
     <use x="282.128906" xlink:href="#DejaVuSans-79"/>
    </g>
   </g>
   <g id="text_12">
    <!-- hartford -->
    <defs>
     <path d="M 54.890625 33.015625 
L 54.890625 0 
L 45.90625 0 
L 45.90625 32.71875 
Q 45.90625 40.484375 42.875 44.328125 
Q 39.84375 48.1875 33.796875 48.1875 
Q 26.515625 48.1875 22.3125 43.546875 
Q 18.109375 38.921875 18.109375 30.90625 
L 18.109375 0 
L 9.078125 0 
L 9.078125 75.984375 
L 18.109375 75.984375 
L 18.109375 46.1875 
Q 21.34375 51.125 25.703125 53.5625 
Q 30.078125 56 35.796875 56 
Q 45.21875 56 50.046875 50.171875 
Q 54.890625 44.34375 54.890625 33.015625 
" id="DejaVuSans-68"/>
    </defs>
    <g transform="translate(618.323573 103.68)scale(0.0579 -0.0579)">
     <use xlink:href="#DejaVuSans-68"/>
     <use x="63.378906" xlink:href="#DejaVuSans-61"/>
     <use x="124.658203" xlink:href="#DejaVuSans-72"/>
     <use x="165.771484" xlink:href="#DejaVuSans-74"/>
     <use x="204.980469" xlink:href="#DejaVuSans-66"/>
     <use x="240.185547" xlink:href="#DejaVuSans-6f"/>
     <use x="301.367188" xlink:href="#DejaVuSans-72"/>
     <use x="342.464844" xlink:href="#DejaVuSans-64"/>
    </g>
   </g>
   <g id="text_13">
    <!-- connecticut -->
    <g transform="translate(471.384667 535.221371)scale(0.0579 -0.0579)">
     <use xlink:href="#DejaVuSans-63"/>
     <use x="54.980469" xlink:href="#DejaVuSans-6f"/>
     <use x="116.162109" xlink:href="#DejaVuSans-6e"/>
     <use x="179.541016" xlink:href="#DejaVuSans-6e"/>
     <use x="242.919922" xlink:href="#DejaVuSans-65"/>
     <use x="304.443359" xlink:href="#DejaVuSans-63"/>
     <use x="359.423828" xlink:href="#DejaVuSans-74"/>
     <use x="398.632812" xlink:href="#DejaVuSans-69"/>
     <use x="426.416016" xlink:href="#DejaVuSans-63"/>
     <use x="481.396484" xlink:href="#DejaVuSans-75"/>
     <use x="544.775391" xlink:href="#DejaVuSans-74"/>
    </g>
   </g>
   <g id="text_14">
    <!-- mississippi -->
    <defs>
     <path d="M 18.109375 8.203125 
L 18.109375 -20.796875 
L 9.078125 -20.796875 
L 9.078125 54.6875 
L 18.109375 54.6875 
L 18.109375 46.390625 
Q 20.953125 51.265625 25.265625 53.625 
Q 29.59375 56 35.59375 56 
Q 45.5625 56 51.78125 48.09375 
Q 58.015625 40.1875 58.015625 27.296875 
Q 58.015625 14.40625 51.78125 6.484375 
Q 45.5625 -1.421875 35.59375 -1.421875 
Q 29.59375 -1.421875 25.265625 0.953125 
Q 20.953125 3.328125 18.109375 8.203125 
M 48.6875 27.296875 
Q 48.6875 37.203125 44.609375 42.84375 
Q 40.53125 48.484375 33.40625 48.484375 
Q 26.265625 48.484375 22.1875 42.84375 
Q 18.109375 37.203125 18.109375 27.296875 
Q 18.109375 17.390625 22.1875 11.75 
Q 26.265625 6.109375 33.40625 6.109375 
Q 40.53125 6.109375 44.609375 11.75 
Q 48.6875 17.390625 48.6875 27.296875 
" id="DejaVuSans-70"/>
    </defs>
    <g transform="translate(437.392599 484.842825)scale(0.0579 -0.0579)">
     <use xlink:href="#DejaVuSans-6d"/>
     <use x="97.412109" xlink:href="#DejaVuSans-69"/>
     <use x="125.195312" xlink:href="#DejaVuSans-73"/>
     <use x="177.294922" xlink:href="#DejaVuSans-73"/>
     <use x="229.394531" xlink:href="#DejaVuSans-69"/>
     <use x="257.177734" xlink:href="#DejaVuSans-73"/>
     <use x="309.277344" xlink:href="#DejaVuSans-73"/>
     <use x="361.376953" xlink:href="#DejaVuSans-69"/>
     <use x="389.160156" xlink:href="#DejaVuSans-70"/>
     <use x="452.636719" xlink:href="#DejaVuSans-70"/>
     <use x="516.113281" xlink:href="#DejaVuSans-69"/>
    </g>
   </g>
   <g id="text_15">
    <!-- hoosiers -->
    <g transform="translate(144 386.480441)scale(0.0579 -0.0579)">
     <use xlink:href="#DejaVuSans-68"/>
     <use x="63.378906" xlink:href="#DejaVuSans-6f"/>
     <use x="124.560547" xlink:href="#DejaVuSans-6f"/>
     <use x="185.742188" xlink:href="#DejaVuSans-73"/>
     <use x="237.841797" xlink:href="#DejaVuSans-69"/>
     <use x="265.625" xlink:href="#DejaVuSans-65"/>
     <use x="327.148438" xlink:href="#DejaVuSans-72"/>
     <use x="368.261719" xlink:href="#DejaVuSans-73"/>
    </g>
   </g>
   <g id="text_16">
    <!-- rochester -->
    <g transform="translate(449.166158 549.892831)scale(0.0579 -0.0579)">
     <use xlink:href="#DejaVuSans-72"/>
     <use x="41.082031" xlink:href="#DejaVuSans-6f"/>
     <use x="102.263672" xlink:href="#DejaVuSans-63"/>
     <use x="157.244141" xlink:href="#DejaVuSans-68"/>
     <use x="220.623047" xlink:href="#DejaVuSans-65"/>
     <use x="282.146484" xlink:href="#DejaVuSans-73"/>
     <use x="334.246094" xlink:href="#DejaVuSans-74"/>
     <use x="373.455078" xlink:href="#DejaVuSans-65"/>
     <use x="434.978516" xlink:href="#DejaVuSans-72"/>
    </g>
   </g>
   <g id="text_17">
    <!-- african -->
    <g transform="translate(486.241235 583.7994)scale(0.0579 -0.0579)">
     <use xlink:href="#DejaVuSans-61"/>
     <use x="61.279297" xlink:href="#DejaVuSans-66"/>
     <use x="96.484375" xlink:href="#DejaVuSans-72"/>
     <use x="137.597656" xlink:href="#DejaVuSans-69"/>
     <use x="165.380859" xlink:href="#DejaVuSans-63"/>
     <use x="220.361328" xlink:href="#DejaVuSans-61"/>
     <use x="281.640625" xlink:href="#DejaVuSans-6e"/>
    </g>
   </g>
   <g id="text_18">
    <!-- mississippi -->
    <g transform="translate(447.245732 568.406625)scale(0.0579 -0.0579)">
     <use xlink:href="#DejaVuSans-6d"/>
     <use x="97.412109" xlink:href="#DejaVuSans-69"/>
     <use x="125.195312" xlink:href="#DejaVuSans-73"/>
     <use x="177.294922" xlink:href="#DejaVuSans-73"/>
     <use x="229.394531" xlink:href="#DejaVuSans-69"/>
     <use x="257.177734" xlink:href="#DejaVuSans-73"/>
     <use x="309.277344" xlink:href="#DejaVuSans-73"/>
     <use x="361.376953" xlink:href="#DejaVuSans-69"/>
     <use x="389.160156" xlink:href="#DejaVuSans-70"/>
     <use x="452.636719" xlink:href="#DejaVuSans-70"/>
     <use x="516.113281" xlink:href="#DejaVuSans-69"/>
    </g>
   </g>
   <g id="text_19">
    <!-- hispanics -->
    <g transform="translate(463.503912 584.156892)scale(0.0579 -0.0579)">
     <use xlink:href="#DejaVuSans-68"/>
     <use x="63.378906" xlink:href="#DejaVuSans-69"/>
     <use x="91.162109" xlink:href="#DejaVuSans-73"/>
     <use x="143.261719" xlink:href="#DejaVuSans-70"/>
     <use x="206.738281" xlink:href="#DejaVuSans-61"/>
     <use x="268.017578" xlink:href="#DejaVuSans-6e"/>
     <use x="331.396484" xlink:href="#DejaVuSans-69"/>
     <use x="359.179688" xlink:href="#DejaVuSans-63"/>
     <use x="414.160156" xlink:href="#DejaVuSans-73"/>
    </g>
   </g>
   <g id="text_20">
    <!-- wisconsin -->
    <g transform="translate(533.113582 520.017206)scale(0.0579 -0.0579)">
     <use xlink:href="#DejaVuSans-77"/>
     <use x="81.787109" xlink:href="#DejaVuSans-69"/>
     <use x="109.570312" xlink:href="#DejaVuSans-73"/>
     <use x="161.669922" xlink:href="#DejaVuSans-63"/>
     <use x="216.650391" xlink:href="#DejaVuSans-6f"/>
     <use x="277.832031" xlink:href="#DejaVuSans-6e"/>
     <use x="341.210938" xlink:href="#DejaVuSans-73"/>
     <use x="393.310547" xlink:href="#DejaVuSans-69"/>
     <use x="421.09375" xlink:href="#DejaVuSans-6e"/>
    </g>
   </g>
   <g id="text_21">
    <!-- latinos -->
    <g transform="translate(495.465887 577.508307)scale(0.0579 -0.0579)">
     <use xlink:href="#DejaVuSans-6c"/>
     <use x="27.783203" xlink:href="#DejaVuSans-61"/>
     <use x="89.0625" xlink:href="#DejaVuSans-74"/>
     <use x="128.271484" xlink:href="#DejaVuSans-69"/>
     <use x="156.054688" xlink:href="#DejaVuSans-6e"/>
     <use x="219.433594" xlink:href="#DejaVuSans-6f"/>
     <use x="280.615234" xlink:href="#DejaVuSans-73"/>
    </g>
   </g>
   <g id="text_22">
    <!-- seventy-five -->
    <g transform="translate(551.249327 543.299396)scale(0.0579 -0.0579)">
     <use xlink:href="#DejaVuSans-73"/>
     <use x="52.099609" xlink:href="#DejaVuSans-65"/>
     <use x="113.623047" xlink:href="#DejaVuSans-76"/>
     <use x="172.802734" xlink:href="#DejaVuSans-65"/>
     <use x="234.326172" xlink:href="#DejaVuSans-6e"/>
     <use x="297.705078" xlink:href="#DejaVuSans-74"/>
     <use x="336.914062" xlink:href="#DejaVuSans-79"/>
     <use x="396.078125" xlink:href="#DejaVuSans-2d"/>
     <use x="432.162109" xlink:href="#DejaVuSans-66"/>
     <use x="467.367188" xlink:href="#DejaVuSans-69"/>
     <use x="495.150391" xlink:href="#DejaVuSans-76"/>
     <use x="554.330078" xlink:href="#DejaVuSans-65"/>
    </g>
   </g>
   <g id="text_23">
    <!-- forty-eight -->
    <g transform="translate(544.897856 550.343463)scale(0.0579 -0.0579)">
     <use xlink:href="#DejaVuSans-66"/>
     <use x="35.205078" xlink:href="#DejaVuSans-6f"/>
     <use x="96.386719" xlink:href="#DejaVuSans-72"/>
     <use x="137.5" xlink:href="#DejaVuSans-74"/>
     <use x="176.708984" xlink:href="#DejaVuSans-79"/>
     <use x="235.873047" xlink:href="#DejaVuSans-2d"/>
     <use x="271.957031" xlink:href="#DejaVuSans-65"/>
     <use x="333.480469" xlink:href="#DejaVuSans-69"/>
     <use x="361.263672" xlink:href="#DejaVuSans-67"/>
     <use x="424.740234" xlink:href="#DejaVuSans-68"/>
     <use x="488.119141" xlink:href="#DejaVuSans-74"/>
    </g>
   </g>
   <g id="text_24">
    <!-- wisconsin -->
    <g transform="translate(546.883392 561.222897)scale(0.0579 -0.0579)">
     <use xlink:href="#DejaVuSans-77"/>
     <use x="81.787109" xlink:href="#DejaVuSans-69"/>
     <use x="109.570312" xlink:href="#DejaVuSans-73"/>
     <use x="161.669922" xlink:href="#DejaVuSans-63"/>
     <use x="216.650391" xlink:href="#DejaVuSans-6f"/>
     <use x="277.832031" xlink:href="#DejaVuSans-6e"/>
     <use x="341.210938" xlink:href="#DejaVuSans-73"/>
     <use x="393.310547" xlink:href="#DejaVuSans-69"/>
     <use x="421.09375" xlink:href="#DejaVuSans-6e"/>
    </g>
   </g>
   <g id="text_25">
    <!-- pittsburgh -->
    <defs>
     <path d="M 48.6875 27.296875 
Q 48.6875 37.203125 44.609375 42.84375 
Q 40.53125 48.484375 33.40625 48.484375 
Q 26.265625 48.484375 22.1875 42.84375 
Q 18.109375 37.203125 18.109375 27.296875 
Q 18.109375 17.390625 22.1875 11.75 
Q 26.265625 6.109375 33.40625 6.109375 
Q 40.53125 6.109375 44.609375 11.75 
Q 48.6875 17.390625 48.6875 27.296875 
M 18.109375 46.390625 
Q 20.953125 51.265625 25.265625 53.625 
Q 29.59375 56 35.59375 56 
Q 45.5625 56 51.78125 48.09375 
Q 58.015625 40.1875 58.015625 27.296875 
Q 58.015625 14.40625 51.78125 6.484375 
Q 45.5625 -1.421875 35.59375 -1.421875 
Q 29.59375 -1.421875 25.265625 0.953125 
Q 20.953125 3.328125 18.109375 8.203125 
L 18.109375 0 
L 9.078125 0 
L 9.078125 75.984375 
L 18.109375 75.984375 
z
" id="DejaVuSans-62"/>
    </defs>
    <g transform="translate(464.781151 554.412937)scale(0.0579 -0.0579)">
     <use xlink:href="#DejaVuSans-70"/>
     <use x="63.476562" xlink:href="#DejaVuSans-69"/>
     <use x="91.259766" xlink:href="#DejaVuSans-74"/>
     <use x="130.46875" xlink:href="#DejaVuSans-74"/>
     <use x="169.677734" xlink:href="#DejaVuSans-73"/>
     <use x="221.777344" xlink:href="#DejaVuSans-62"/>
     <use x="285.253906" xlink:href="#DejaVuSans-75"/>
     <use x="348.632812" xlink:href="#DejaVuSans-72"/>
     <use x="389.730469" xlink:href="#DejaVuSans-67"/>
     <use x="453.207031" xlink:href="#DejaVuSans-68"/>
    </g>
   </g>
   <g id="text_26">
    <!-- connecticut -->
    <g transform="translate(445.336546 532.940833)scale(0.0579 -0.0579)">
     <use xlink:href="#DejaVuSans-63"/>
     <use x="54.980469" xlink:href="#DejaVuSans-6f"/>
     <use x="116.162109" xlink:href="#DejaVuSans-6e"/>
     <use x="179.541016" xlink:href="#DejaVuSans-6e"/>
     <use x="242.919922" xlink:href="#DejaVuSans-65"/>
     <use x="304.443359" xlink:href="#DejaVuSans-63"/>
     <use x="359.423828" xlink:href="#DejaVuSans-74"/>
     <use x="398.632812" xlink:href="#DejaVuSans-69"/>
     <use x="426.416016" xlink:href="#DejaVuSans-63"/>
     <use x="481.396484" xlink:href="#DejaVuSans-75"/>
     <use x="544.775391" xlink:href="#DejaVuSans-74"/>
    </g>
   </g>
   <g id="text_27">
    <!-- wisconsin -->
    <g transform="translate(820.243068 768.96)scale(0.0579 -0.0579)">
     <use xlink:href="#DejaVuSans-77"/>
     <use x="81.787109" xlink:href="#DejaVuSans-69"/>
     <use x="109.570312" xlink:href="#DejaVuSans-73"/>
     <use x="161.669922" xlink:href="#DejaVuSans-63"/>
     <use x="216.650391" xlink:href="#DejaVuSans-6f"/>
     <use x="277.832031" xlink:href="#DejaVuSans-6e"/>
     <use x="341.210938" xlink:href="#DejaVuSans-73"/>
     <use x="393.310547" xlink:href="#DejaVuSans-69"/>
     <use x="421.09375" xlink:href="#DejaVuSans-6e"/>
    </g>
   </g>
   <g id="text_28">
    <!-- mississippi -->
    <g transform="translate(551.600543 522.188425)scale(0.0579 -0.0579)">
     <use xlink:href="#DejaVuSans-6d"/>
     <use x="97.412109" xlink:href="#DejaVuSans-69"/>
     <use x="125.195312" xlink:href="#DejaVuSans-73"/>
     <use x="177.294922" xlink:href="#DejaVuSans-73"/>
     <use x="229.394531" xlink:href="#DejaVuSans-69"/>
     <use x="257.177734" xlink:href="#DejaVuSans-73"/>
     <use x="309.277344" xlink:href="#DejaVuSans-73"/>
     <use x="361.376953" xlink:href="#DejaVuSans-69"/>
     <use x="389.160156" xlink:href="#DejaVuSans-70"/>
     <use x="452.636719" xlink:href="#DejaVuSans-70"/>
     <use x="516.113281" xlink:href="#DejaVuSans-69"/>
    </g>
   </g>
   <g id="text_29">
    <!-- populace -->
    <g transform="translate(504.061076 540.715577)scale(0.0579 -0.0579)">
     <use xlink:href="#DejaVuSans-70"/>
     <use x="63.476562" xlink:href="#DejaVuSans-6f"/>
     <use x="124.658203" xlink:href="#DejaVuSans-70"/>
     <use x="188.134766" xlink:href="#DejaVuSans-75"/>
     <use x="251.513672" xlink:href="#DejaVuSans-6c"/>
     <use x="279.296875" xlink:href="#DejaVuSans-61"/>
     <use x="340.576172" xlink:href="#DejaVuSans-63"/>
     <use x="395.556641" xlink:href="#DejaVuSans-65"/>
    </g>
   </g>
   <g id="text_30">
    <!-- harrisburg -->
    <g transform="translate(443.534342 543.175612)scale(0.0579 -0.0579)">
     <use xlink:href="#DejaVuSans-68"/>
     <use x="63.378906" xlink:href="#DejaVuSans-61"/>
     <use x="124.658203" xlink:href="#DejaVuSans-72"/>
     <use x="165.755859" xlink:href="#DejaVuSans-72"/>
     <use x="206.869141" xlink:href="#DejaVuSans-69"/>
     <use x="234.652344" xlink:href="#DejaVuSans-73"/>
     <use x="286.751953" xlink:href="#DejaVuSans-62"/>
     <use x="350.228516" xlink:href="#DejaVuSans-75"/>
     <use x="413.607422" xlink:href="#DejaVuSans-72"/>
     <use x="454.705078" xlink:href="#DejaVuSans-67"/>
    </g>
   </g>
   <g id="text_31">
    <!-- mexican -->
    <g transform="translate(502.611969 564.344094)scale(0.0579 -0.0579)">
     <use xlink:href="#DejaVuSans-6d"/>
     <use x="97.412109" xlink:href="#DejaVuSans-65"/>
     <use x="158.919922" xlink:href="#DejaVuSans-78"/>
     <use x="218.099609" xlink:href="#DejaVuSans-69"/>
     <use x="245.882812" xlink:href="#DejaVuSans-63"/>
     <use x="300.863281" xlink:href="#DejaVuSans-61"/>
     <use x="362.142578" xlink:href="#DejaVuSans-6e"/>
    </g>
   </g>
   <g id="text_32">
    <!-- milwaukee -->
    <g transform="translate(517.161486 572.316877)scale(0.0579 -0.0579)">
     <use xlink:href="#DejaVuSans-6d"/>
     <use x="97.412109" xlink:href="#DejaVuSans-69"/>
     <use x="125.195312" xlink:href="#DejaVuSans-6c"/>
     <use x="152.978516" xlink:href="#DejaVuSans-77"/>
     <use x="234.765625" xlink:href="#DejaVuSans-61"/>
     <use x="296.044922" xlink:href="#DejaVuSans-75"/>
     <use x="359.423828" xlink:href="#DejaVuSans-6b"/>
     <use x="417.287109" xlink:href="#DejaVuSans-65"/>
     <use x="478.810547" xlink:href="#DejaVuSans-65"/>
    </g>
   </g>
   <g id="text_33">
    <!-- latino -->
    <g transform="translate(419.421307 552.39083)scale(0.0579 -0.0579)">
     <use xlink:href="#DejaVuSans-6c"/>
     <use x="27.783203" xlink:href="#DejaVuSans-61"/>
     <use x="89.0625" xlink:href="#DejaVuSans-74"/>
     <use x="128.271484" xlink:href="#DejaVuSans-69"/>
     <use x="156.054688" xlink:href="#DejaVuSans-6e"/>
     <use x="219.433594" xlink:href="#DejaVuSans-6f"/>
    </g>
   </g>
   <g id="text_34">
    <!-- harrisburg -->
    <g transform="translate(455.86113 539.214877)scale(0.0579 -0.0579)">
     <use xlink:href="#DejaVuSans-68"/>
     <use x="63.378906" xlink:href="#DejaVuSans-61"/>
     <use x="124.658203" xlink:href="#DejaVuSans-72"/>
     <use x="165.755859" xlink:href="#DejaVuSans-72"/>
     <use x="206.869141" xlink:href="#DejaVuSans-69"/>
     <use x="234.652344" xlink:href="#DejaVuSans-73"/>
     <use x="286.751953" xlink:href="#DejaVuSans-62"/>
     <use x="350.228516" xlink:href="#DejaVuSans-75"/>
     <use x="413.607422" xlink:href="#DejaVuSans-72"/>
     <use x="454.705078" xlink:href="#DejaVuSans-67"/>
    </g>
   </g>
   <g id="text_35">
    <!-- pittsburgh -->
    <g transform="translate(461.407839 546.091155)scale(0.0579 -0.0579)">
     <use xlink:href="#DejaVuSans-70"/>
     <use x="63.476562" xlink:href="#DejaVuSans-69"/>
     <use x="91.259766" xlink:href="#DejaVuSans-74"/>
     <use x="130.46875" xlink:href="#DejaVuSans-74"/>
     <use x="169.677734" xlink:href="#DejaVuSans-73"/>
     <use x="221.777344" xlink:href="#DejaVuSans-62"/>
     <use x="285.253906" xlink:href="#DejaVuSans-75"/>
     <use x="348.632812" xlink:href="#DejaVuSans-72"/>
     <use x="389.730469" xlink:href="#DejaVuSans-67"/>
     <use x="453.207031" xlink:href="#DejaVuSans-68"/>
    </g>
   </g>
   <g id="text_36">
    <!-- bureau -->
    <g transform="translate(483.838697 551.781163)scale(0.0579 -0.0579)">
     <use xlink:href="#DejaVuSans-62"/>
     <use x="63.476562" xlink:href="#DejaVuSans-75"/>
     <use x="126.855469" xlink:href="#DejaVuSans-72"/>
     <use x="167.9375" xlink:href="#DejaVuSans-65"/>
     <use x="229.460938" xlink:href="#DejaVuSans-61"/>
     <use x="290.740234" xlink:href="#DejaVuSans-75"/>
    </g>
   </g>
   <g id="text_37">
    <!-- wisconsinite -->
    <g transform="translate(528.642016 560.643281)scale(0.0579 -0.0579)">
     <use xlink:href="#DejaVuSans-77"/>
     <use x="81.787109" xlink:href="#DejaVuSans-69"/>
     <use x="109.570312" xlink:href="#DejaVuSans-73"/>
     <use x="161.669922" xlink:href="#DejaVuSans-63"/>
     <use x="216.650391" xlink:href="#DejaVuSans-6f"/>
     <use x="277.832031" xlink:href="#DejaVuSans-6e"/>
     <use x="341.210938" xlink:href="#DejaVuSans-73"/>
     <use x="393.310547" xlink:href="#DejaVuSans-69"/>
     <use x="421.09375" xlink:href="#DejaVuSans-6e"/>
     <use x="484.472656" xlink:href="#DejaVuSans-69"/>
     <use x="512.255859" xlink:href="#DejaVuSans-74"/>
     <use x="551.464844" xlink:href="#DejaVuSans-65"/>
    </g>
   </g>
   <g id="text_38">
    <!-- plattsburgh -->
    <g transform="translate(808.48233 434.290255)scale(0.0579 -0.0579)">
     <use xlink:href="#DejaVuSans-70"/>
     <use x="63.476562" xlink:href="#DejaVuSans-6c"/>
     <use x="91.259766" xlink:href="#DejaVuSans-61"/>
     <use x="152.539062" xlink:href="#DejaVuSans-74"/>
     <use x="191.748047" xlink:href="#DejaVuSans-74"/>
     <use x="230.957031" xlink:href="#DejaVuSans-73"/>
     <use x="283.056641" xlink:href="#DejaVuSans-62"/>
     <use x="346.533203" xlink:href="#DejaVuSans-75"/>
     <use x="409.912109" xlink:href="#DejaVuSans-72"/>
     <use x="451.009766" xlink:href="#DejaVuSans-67"/>
     <use x="514.486328" xlink:href="#DejaVuSans-68"/>
    </g>
   </g>
   <g id="text_39">
    <!-- plattsburgh -->
    <g transform="translate(472.543527 548.368046)scale(0.0579 -0.0579)">
     <use xlink:href="#DejaVuSans-70"/>
     <use x="63.476562" xlink:href="#DejaVuSans-6c"/>
     <use x="91.259766" xlink:href="#DejaVuSans-61"/>
     <use x="152.539062" xlink:href="#DejaVuSans-74"/>
     <use x="191.748047" xlink:href="#DejaVuSans-74"/>
     <use x="230.957031" xlink:href="#DejaVuSans-73"/>
     <use x="283.056641" xlink:href="#DejaVuSans-62"/>
     <use x="346.533203" xlink:href="#DejaVuSans-75"/>
     <use x="409.912109" xlink:href="#DejaVuSans-72"/>
     <use x="451.009766" xlink:href="#DejaVuSans-67"/>
     <use x="514.486328" xlink:href="#DejaVuSans-68"/>
    </g>
   </g>
   <g id="text_40">
    <!-- wisconsin -->
    <g transform="translate(538.990251 566.974009)scale(0.0579 -0.0579)">
     <use xlink:href="#DejaVuSans-77"/>
     <use x="81.787109" xlink:href="#DejaVuSans-69"/>
     <use x="109.570312" xlink:href="#DejaVuSans-73"/>
     <use x="161.669922" xlink:href="#DejaVuSans-63"/>
     <use x="216.650391" xlink:href="#DejaVuSans-6f"/>
     <use x="277.832031" xlink:href="#DejaVuSans-6e"/>
     <use x="341.210938" xlink:href="#DejaVuSans-73"/>
     <use x="393.310547" xlink:href="#DejaVuSans-69"/>
     <use x="421.09375" xlink:href="#DejaVuSans-6e"/>
    </g>
   </g>
   <g id="text_41">
    <!-- satisfactory -->
    <g transform="translate(495.607952 546.518965)scale(0.0579 -0.0579)">
     <use xlink:href="#DejaVuSans-73"/>
     <use x="52.099609" xlink:href="#DejaVuSans-61"/>
     <use x="113.378906" xlink:href="#DejaVuSans-74"/>
     <use x="152.587891" xlink:href="#DejaVuSans-69"/>
     <use x="180.371094" xlink:href="#DejaVuSans-73"/>
     <use x="232.470703" xlink:href="#DejaVuSans-66"/>
     <use x="267.675781" xlink:href="#DejaVuSans-61"/>
     <use x="328.955078" xlink:href="#DejaVuSans-63"/>
     <use x="383.935547" xlink:href="#DejaVuSans-74"/>
     <use x="423.144531" xlink:href="#DejaVuSans-6f"/>
     <use x="484.326172" xlink:href="#DejaVuSans-72"/>
     <use x="525.439453" xlink:href="#DejaVuSans-79"/>
    </g>
   </g>
   <g id="text_42">
    <!-- eighth -->
    <g transform="translate(527.980661 580.890002)scale(0.0579 -0.0579)">
     <use xlink:href="#DejaVuSans-65"/>
     <use x="61.523438" xlink:href="#DejaVuSans-69"/>
     <use x="89.306641" xlink:href="#DejaVuSans-67"/>
     <use x="152.783203" xlink:href="#DejaVuSans-68"/>
     <use x="216.162109" xlink:href="#DejaVuSans-74"/>
     <use x="255.371094" xlink:href="#DejaVuSans-68"/>
    </g>
   </g>
   <g id="text_43">
    <!-- york -->
    <g transform="translate(459.386934 530.609008)scale(0.0579 -0.0579)">
     <use xlink:href="#DejaVuSans-79"/>
     <use x="59.179688" xlink:href="#DejaVuSans-6f"/>
     <use x="120.361328" xlink:href="#DejaVuSans-72"/>
     <use x="161.474609" xlink:href="#DejaVuSans-6b"/>
    </g>
   </g>
   <g id="text_44">
    <!-- dakota -->
    <g transform="translate(489.755023 538.347464)scale(0.0579 -0.0579)">
     <use xlink:href="#DejaVuSans-64"/>
     <use x="63.476562" xlink:href="#DejaVuSans-61"/>
     <use x="124.755859" xlink:href="#DejaVuSans-6b"/>
     <use x="182.619141" xlink:href="#DejaVuSans-6f"/>
     <use x="243.800781" xlink:href="#DejaVuSans-74"/>
     <use x="283.009766" xlink:href="#DejaVuSans-61"/>
    </g>
   </g>
   <g id="text_45">
    <!-- one- -->
    <g transform="translate(446.942685 522.893076)scale(0.0579 -0.0579)">
     <use xlink:href="#DejaVuSans-6f"/>
     <use x="61.181641" xlink:href="#DejaVuSans-6e"/>
     <use x="124.560547" xlink:href="#DejaVuSans-65"/>
     <use x="186.083984" xlink:href="#DejaVuSans-2d"/>
    </g>
   </g>
   <g id="text_46">
    <!-- eleven-thirty -->
    <g transform="translate(513.033977 545.556554)scale(0.0579 -0.0579)">
     <use xlink:href="#DejaVuSans-65"/>
     <use x="61.523438" xlink:href="#DejaVuSans-6c"/>
     <use x="89.306641" xlink:href="#DejaVuSans-65"/>
     <use x="150.830078" xlink:href="#DejaVuSans-76"/>
     <use x="210.009766" xlink:href="#DejaVuSans-65"/>
     <use x="271.533203" xlink:href="#DejaVuSans-6e"/>
     <use x="334.912109" xlink:href="#DejaVuSans-2d"/>
     <use x="370.996094" xlink:href="#DejaVuSans-74"/>
     <use x="410.205078" xlink:href="#DejaVuSans-68"/>
     <use x="473.583984" xlink:href="#DejaVuSans-69"/>
     <use x="501.367188" xlink:href="#DejaVuSans-72"/>
     <use x="542.480469" xlink:href="#DejaVuSans-74"/>
     <use x="581.689453" xlink:href="#DejaVuSans-79"/>
    </g>
   </g>
   <g id="text_47">
    <!-- michigan -->
    <g transform="translate(451.473771 512.374968)scale(0.0579 -0.0579)">
     <use xlink:href="#DejaVuSans-6d"/>
     <use x="97.412109" xlink:href="#DejaVuSans-69"/>
     <use x="125.195312" xlink:href="#DejaVuSans-63"/>
     <use x="180.175781" xlink:href="#DejaVuSans-68"/>
     <use x="243.554688" xlink:href="#DejaVuSans-69"/>
     <use x="271.337891" xlink:href="#DejaVuSans-67"/>
     <use x="334.814453" xlink:href="#DejaVuSans-61"/>
     <use x="396.09375" xlink:href="#DejaVuSans-6e"/>
    </g>
   </g>
   <g id="text_48">
    <!-- twenty-nine -->
    <g transform="translate(479.25634 560.87178)scale(0.0579 -0.0579)">
     <use xlink:href="#DejaVuSans-74"/>
     <use x="39.208984" xlink:href="#DejaVuSans-77"/>
     <use x="120.996094" xlink:href="#DejaVuSans-65"/>
     <use x="182.519531" xlink:href="#DejaVuSans-6e"/>
     <use x="245.898438" xlink:href="#DejaVuSans-74"/>
     <use x="285.107422" xlink:href="#DejaVuSans-79"/>
     <use x="344.271484" xlink:href="#DejaVuSans-2d"/>
     <use x="380.355469" xlink:href="#DejaVuSans-6e"/>
     <use x="443.734375" xlink:href="#DejaVuSans-69"/>
     <use x="471.517578" xlink:href="#DejaVuSans-6e"/>
     <use x="534.896484" xlink:href="#DejaVuSans-65"/>
    </g>
   </g>
   <g id="text_49">
    <!-- forty-six -->
    <g transform="translate(484.561477 569.705287)scale(0.0579 -0.0579)">
     <use xlink:href="#DejaVuSans-66"/>
     <use x="35.205078" xlink:href="#DejaVuSans-6f"/>
     <use x="96.386719" xlink:href="#DejaVuSans-72"/>
     <use x="137.5" xlink:href="#DejaVuSans-74"/>
     <use x="176.708984" xlink:href="#DejaVuSans-79"/>
     <use x="235.873047" xlink:href="#DejaVuSans-2d"/>
     <use x="271.957031" xlink:href="#DejaVuSans-73"/>
     <use x="324.056641" xlink:href="#DejaVuSans-69"/>
     <use x="351.839844" xlink:href="#DejaVuSans-78"/>
    </g>
   </g>
   <g id="text_50">
    <!-- pennsylvania -->
    <g transform="translate(428.526042 538.534357)scale(0.0579 -0.0579)">
     <use xlink:href="#DejaVuSans-70"/>
     <use x="63.476562" xlink:href="#DejaVuSans-65"/>
     <use x="125" xlink:href="#DejaVuSans-6e"/>
     <use x="188.378906" xlink:href="#DejaVuSans-6e"/>
     <use x="251.757812" xlink:href="#DejaVuSans-73"/>
     <use x="303.857422" xlink:href="#DejaVuSans-79"/>
     <use x="363.037109" xlink:href="#DejaVuSans-6c"/>
     <use x="390.820312" xlink:href="#DejaVuSans-76"/>
     <use x="450" xlink:href="#DejaVuSans-61"/>
     <use x="511.279297" xlink:href="#DejaVuSans-6e"/>
     <use x="574.658203" xlink:href="#DejaVuSans-69"/>
     <use x="602.441406" xlink:href="#DejaVuSans-61"/>
    </g>
   </g>
   <g id="text_51">
    <!-- forty-six -->
    <g transform="translate(508.646695 524.557128)scale(0.0579 -0.0579)">
     <use xlink:href="#DejaVuSans-66"/>
     <use x="35.205078" xlink:href="#DejaVuSans-6f"/>
     <use x="96.386719" xlink:href="#DejaVuSans-72"/>
     <use x="137.5" xlink:href="#DejaVuSans-74"/>
     <use x="176.708984" xlink:href="#DejaVuSans-79"/>
     <use x="235.873047" xlink:href="#DejaVuSans-2d"/>
     <use x="271.957031" xlink:href="#DejaVuSans-73"/>
     <use x="324.056641" xlink:href="#DejaVuSans-69"/>
     <use x="351.839844" xlink:href="#DejaVuSans-78"/>
    </g>
   </g>
   <g id="text_52">
    <!-- hoosier -->
    <g transform="translate(418.264237 569.352288)scale(0.0579 -0.0579)">
     <use xlink:href="#DejaVuSans-68"/>
     <use x="63.378906" xlink:href="#DejaVuSans-6f"/>
     <use x="124.560547" xlink:href="#DejaVuSans-6f"/>
     <use x="185.742188" xlink:href="#DejaVuSans-73"/>
     <use x="237.841797" xlink:href="#DejaVuSans-69"/>
     <use x="265.625" xlink:href="#DejaVuSans-65"/>
     <use x="327.148438" xlink:href="#DejaVuSans-72"/>
    </g>
   </g>
   <g id="text_53">
    <!-- hoosiers -->
    <g transform="translate(418.953818 562.290899)scale(0.0579 -0.0579)">
     <use xlink:href="#DejaVuSans-68"/>
     <use x="63.378906" xlink:href="#DejaVuSans-6f"/>
     <use x="124.560547" xlink:href="#DejaVuSans-6f"/>
     <use x="185.742188" xlink:href="#DejaVuSans-73"/>
     <use x="237.841797" xlink:href="#DejaVuSans-69"/>
     <use x="265.625" xlink:href="#DejaVuSans-65"/>
     <use x="327.148438" xlink:href="#DejaVuSans-72"/>
     <use x="368.261719" xlink:href="#DejaVuSans-73"/>
    </g>
   </g>
   <g id="text_54">
    <!-- milwaukee -->
    <g transform="translate(541.638497 535.665734)scale(0.0579 -0.0579)">
     <use xlink:href="#DejaVuSans-6d"/>
     <use x="97.412109" xlink:href="#DejaVuSans-69"/>
     <use x="125.195312" xlink:href="#DejaVuSans-6c"/>
     <use x="152.978516" xlink:href="#DejaVuSans-77"/>
     <use x="234.765625" xlink:href="#DejaVuSans-61"/>
     <use x="296.044922" xlink:href="#DejaVuSans-75"/>
     <use x="359.423828" xlink:href="#DejaVuSans-6b"/>
     <use x="417.287109" xlink:href="#DejaVuSans-65"/>
     <use x="478.810547" xlink:href="#DejaVuSans-65"/>
    </g>
   </g>
   <g id="text_55">
    <!-- thirty-two -->
    <g transform="translate(529.539066 544.31736)scale(0.0579 -0.0579)">
     <use xlink:href="#DejaVuSans-74"/>
     <use x="39.208984" xlink:href="#DejaVuSans-68"/>
     <use x="102.587891" xlink:href="#DejaVuSans-69"/>
     <use x="130.371094" xlink:href="#DejaVuSans-72"/>
     <use x="171.484375" xlink:href="#DejaVuSans-74"/>
     <use x="210.693359" xlink:href="#DejaVuSans-79"/>
     <use x="269.857422" xlink:href="#DejaVuSans-2d"/>
     <use x="305.941406" xlink:href="#DejaVuSans-74"/>
     <use x="345.150391" xlink:href="#DejaVuSans-77"/>
     <use x="426.9375" xlink:href="#DejaVuSans-6f"/>
    </g>
   </g>
   <g id="text_56">
    <!-- wisconsin -->
    <g transform="translate(465.933119 572.289928)scale(0.0579 -0.0579)">
     <use xlink:href="#DejaVuSans-77"/>
     <use x="81.787109" xlink:href="#DejaVuSans-69"/>
     <use x="109.570312" xlink:href="#DejaVuSans-73"/>
     <use x="161.669922" xlink:href="#DejaVuSans-63"/>
     <use x="216.650391" xlink:href="#DejaVuSans-6f"/>
     <use x="277.832031" xlink:href="#DejaVuSans-6e"/>
     <use x="341.210938" xlink:href="#DejaVuSans-73"/>
     <use x="393.310547" xlink:href="#DejaVuSans-69"/>
     <use x="421.09375" xlink:href="#DejaVuSans-6e"/>
    </g>
   </g>
   <g id="text_57">
    <!-- hoosiers -->
    <g transform="translate(508.623003 501.543746)scale(0.0579 -0.0579)">
     <use xlink:href="#DejaVuSans-68"/>
     <use x="63.378906" xlink:href="#DejaVuSans-6f"/>
     <use x="124.560547" xlink:href="#DejaVuSans-6f"/>
     <use x="185.742188" xlink:href="#DejaVuSans-73"/>
     <use x="237.841797" xlink:href="#DejaVuSans-69"/>
     <use x="265.625" xlink:href="#DejaVuSans-65"/>
     <use x="327.148438" xlink:href="#DejaVuSans-72"/>
     <use x="368.261719" xlink:href="#DejaVuSans-73"/>
    </g>
   </g>
   <g id="text_58">
    <!-- south -->
    <g transform="translate(509.035186 512.125551)scale(0.0579 -0.0579)">
     <use xlink:href="#DejaVuSans-73"/>
     <use x="52.099609" xlink:href="#DejaVuSans-6f"/>
     <use x="113.28125" xlink:href="#DejaVuSans-75"/>
     <use x="176.660156" xlink:href="#DejaVuSans-74"/>
     <use x="215.869141" xlink:href="#DejaVuSans-68"/>
    </g>
   </g>
   <g id="text_59">
    <!-- sucked -->
    <g transform="translate(483.975181 522.510886)scale(0.0579 -0.0579)">
     <use xlink:href="#DejaVuSans-73"/>
     <use x="52.099609" xlink:href="#DejaVuSans-75"/>
     <use x="115.478516" xlink:href="#DejaVuSans-63"/>
     <use x="170.458984" xlink:href="#DejaVuSans-6b"/>
     <use x="228.322266" xlink:href="#DejaVuSans-65"/>
     <use x="289.845703" xlink:href="#DejaVuSans-64"/>
    </g>
   </g>
   <g id="text_60">
    <!-- pittsburgh -->
    <g transform="translate(464.781151 554.412937)scale(0.0579 -0.0579)">
     <use xlink:href="#DejaVuSans-70"/>
     <use x="63.476562" xlink:href="#DejaVuSans-69"/>
     <use x="91.259766" xlink:href="#DejaVuSans-74"/>
     <use x="130.46875" xlink:href="#DejaVuSans-74"/>
     <use x="169.677734" xlink:href="#DejaVuSans-73"/>
     <use x="221.777344" xlink:href="#DejaVuSans-62"/>
     <use x="285.253906" xlink:href="#DejaVuSans-75"/>
     <use x="348.632812" xlink:href="#DejaVuSans-72"/>
     <use x="389.730469" xlink:href="#DejaVuSans-67"/>
     <use x="453.207031" xlink:href="#DejaVuSans-68"/>
    </g>
   </g>
   <g id="text_61">
    <!-- mexicans -->
    <g transform="translate(501.933767 569.045111)scale(0.0579 -0.0579)">
     <use xlink:href="#DejaVuSans-6d"/>
     <use x="97.412109" xlink:href="#DejaVuSans-65"/>
     <use x="158.919922" xlink:href="#DejaVuSans-78"/>
     <use x="218.099609" xlink:href="#DejaVuSans-69"/>
     <use x="245.882812" xlink:href="#DejaVuSans-63"/>
     <use x="300.863281" xlink:href="#DejaVuSans-61"/>
     <use x="362.142578" xlink:href="#DejaVuSans-6e"/>
     <use x="425.521484" xlink:href="#DejaVuSans-73"/>
    </g>
   </g>
   <g id="text_62">
    <!-- mexican-american -->
    <g transform="translate(325.323538 581.580391)scale(0.0579 -0.0579)">
     <use xlink:href="#DejaVuSans-6d"/>
     <use x="97.412109" xlink:href="#DejaVuSans-65"/>
     <use x="158.919922" xlink:href="#DejaVuSans-78"/>
     <use x="218.099609" xlink:href="#DejaVuSans-69"/>
     <use x="245.882812" xlink:href="#DejaVuSans-63"/>
     <use x="300.863281" xlink:href="#DejaVuSans-61"/>
     <use x="362.142578" xlink:href="#DejaVuSans-6e"/>
     <use x="425.521484" xlink:href="#DejaVuSans-2d"/>
     <use x="461.605469" xlink:href="#DejaVuSans-61"/>
     <use x="522.884766" xlink:href="#DejaVuSans-6d"/>
     <use x="620.296875" xlink:href="#DejaVuSans-65"/>
     <use x="681.820312" xlink:href="#DejaVuSans-72"/>
     <use x="722.933594" xlink:href="#DejaVuSans-69"/>
     <use x="750.716797" xlink:href="#DejaVuSans-63"/>
     <use x="805.697266" xlink:href="#DejaVuSans-61"/>
     <use x="866.976562" xlink:href="#DejaVuSans-6e"/>
    </g>
   </g>
   <g id="text_63">
    <!-- houston -->
    <g transform="translate(516.118462 530.673154)scale(0.0579 -0.0579)">
     <use xlink:href="#DejaVuSans-68"/>
     <use x="63.378906" xlink:href="#DejaVuSans-6f"/>
     <use x="124.560547" xlink:href="#DejaVuSans-75"/>
     <use x="187.939453" xlink:href="#DejaVuSans-73"/>
     <use x="240.039062" xlink:href="#DejaVuSans-74"/>
     <use x="279.248047" xlink:href="#DejaVuSans-6f"/>
     <use x="340.429688" xlink:href="#DejaVuSans-6e"/>
    </g>
   </g>
   <g id="text_64">
    <!-- detroit -->
    <g transform="translate(528.44291 532.303337)scale(0.0579 -0.0579)">
     <use xlink:href="#DejaVuSans-64"/>
     <use x="63.476562" xlink:href="#DejaVuSans-65"/>
     <use x="125" xlink:href="#DejaVuSans-74"/>
     <use x="164.208984" xlink:href="#DejaVuSans-72"/>
     <use x="205.291016" xlink:href="#DejaVuSans-6f"/>
     <use x="266.472656" xlink:href="#DejaVuSans-69"/>
     <use x="294.255859" xlink:href="#DejaVuSans-74"/>
    </g>
   </g>
   <g id="text_65">
    <!-- rat -->
    <g transform="translate(488.370292 594.550797)scale(0.0579 -0.0579)">
     <use xlink:href="#DejaVuSans-72"/>
     <use x="41.113281" xlink:href="#DejaVuSans-61"/>
     <use x="102.392578" xlink:href="#DejaVuSans-74"/>
    </g>
   </g>
   <g id="text_66">
    <!-- unemployed -->
    <g transform="translate(571.92899 556.472279)scale(0.0579 -0.0579)">
     <use xlink:href="#DejaVuSans-75"/>
     <use x="63.378906" xlink:href="#DejaVuSans-6e"/>
     <use x="126.757812" xlink:href="#DejaVuSans-65"/>
     <use x="188.28125" xlink:href="#DejaVuSans-6d"/>
     <use x="285.693359" xlink:href="#DejaVuSans-70"/>
     <use x="349.169922" xlink:href="#DejaVuSans-6c"/>
     <use x="376.953125" xlink:href="#DejaVuSans-6f"/>
     <use x="438.134766" xlink:href="#DejaVuSans-79"/>
     <use x="497.314453" xlink:href="#DejaVuSans-65"/>
     <use x="558.837891" xlink:href="#DejaVuSans-64"/>
    </g>
   </g>
   <g id="text_67">
    <!-- nevada -->
    <g transform="translate(470.162353 516.565466)scale(0.0579 -0.0579)">
     <use xlink:href="#DejaVuSans-6e"/>
     <use x="63.378906" xlink:href="#DejaVuSans-65"/>
     <use x="124.902344" xlink:href="#DejaVuSans-76"/>
     <use x="184.082031" xlink:href="#DejaVuSans-61"/>
     <use x="245.361328" xlink:href="#DejaVuSans-64"/>
     <use x="308.837891" xlink:href="#DejaVuSans-61"/>
    </g>
   </g>
   <g id="text_68">
    <!-- lecturing -->
    <g transform="translate(521.492382 551.768801)scale(0.0579 -0.0579)">
     <use xlink:href="#DejaVuSans-6c"/>
     <use x="27.783203" xlink:href="#DejaVuSans-65"/>
     <use x="89.306641" xlink:href="#DejaVuSans-63"/>
     <use x="144.287109" xlink:href="#DejaVuSans-74"/>
     <use x="183.496094" xlink:href="#DejaVuSans-75"/>
     <use x="246.875" xlink:href="#DejaVuSans-72"/>
     <use x="287.988281" xlink:href="#DejaVuSans-69"/>
     <use x="315.771484" xlink:href="#DejaVuSans-6e"/>
     <use x="379.150391" xlink:href="#DejaVuSans-67"/>
    </g>
   </g>
   <g id="text_69">
    <!-- Cluster 4 -->
    <defs>
     <path d="M 64.40625 67.28125 
L 64.40625 56.890625 
Q 59.421875 61.53125 53.78125 63.8125 
Q 48.140625 66.109375 41.796875 66.109375 
Q 29.296875 66.109375 22.65625 58.46875 
Q 16.015625 50.828125 16.015625 36.375 
Q 16.015625 21.96875 22.65625 14.328125 
Q 29.296875 6.6875 41.796875 6.6875 
Q 48.140625 6.6875 53.78125 8.984375 
Q 59.421875 11.28125 64.40625 15.921875 
L 64.40625 5.609375 
Q 59.234375 2.09375 53.4375 0.328125 
Q 47.65625 -1.421875 41.21875 -1.421875 
Q 24.65625 -1.421875 15.125 8.703125 
Q 5.609375 18.84375 5.609375 36.375 
Q 5.609375 53.953125 15.125 64.078125 
Q 24.65625 74.21875 41.21875 74.21875 
Q 47.75 74.21875 53.53125 72.484375 
Q 59.328125 70.75 64.40625 67.28125 
" id="DejaVuSans-43"/>
     <path id="DejaVuSans-20"/>
     <path d="M 37.796875 64.3125 
L 12.890625 25.390625 
L 37.796875 25.390625 
z
M 35.203125 72.90625 
L 47.609375 72.90625 
L 47.609375 25.390625 
L 58.015625 25.390625 
L 58.015625 17.1875 
L 47.609375 17.1875 
L 47.609375 0 
L 37.796875 0 
L 37.796875 17.1875 
L 4.890625 17.1875 
L 4.890625 26.703125 
z
" id="DejaVuSans-34"/>
    </defs>
    <g transform="translate(563.380312 97.68)scale(0.12 -0.12)">
     <use xlink:href="#DejaVuSans-43"/>
     <use x="69.824219" xlink:href="#DejaVuSans-6c"/>
     <use x="97.607422" xlink:href="#DejaVuSans-75"/>
     <use x="160.986328" xlink:href="#DejaVuSans-73"/>
     <use x="213.085938" xlink:href="#DejaVuSans-74"/>
     <use x="252.294922" xlink:href="#DejaVuSans-65"/>
     <use x="313.818359" xlink:href="#DejaVuSans-72"/>
     <use x="354.931641" xlink:href="#DejaVuSans-20"/>
     <use x="386.71875" xlink:href="#DejaVuSans-34"/>
    </g>
   </g>
  </g>
 </g>
</svg>
