<?xml version="1.0" encoding="utf-8" standalone="no"?>
<!DOCTYPE svg PUBLIC "-//W3C//DTD SVG 1.1//EN"
  "http://www.w3.org/Graphics/SVG/1.1/DTD/svg11.dtd">
<!-- Created with matplotlib (http://matplotlib.org/) -->
<svg height="864pt" version="1.1" viewBox="0 0 1152 864" width="1152pt" xmlns="http://www.w3.org/2000/svg" xmlns:xlink="http://www.w3.org/1999/xlink">
 <defs>
  <style type="text/css">
*{stroke-linecap:butt;stroke-linejoin:round;}
  </style>
 </defs>
 <g id="figure_1">
  <g id="patch_1">
   <path d="M 0 864 
L 1152 864 
L 1152 0 
L 0 0 
z
" style="fill:#ffffff;"/>
  </g>
  <g id="axes_1">
   <g id="text_1">
    <!-- harwood -->
    <defs>
     <path d="M 54.890625 33.015625 
L 54.890625 0 
L 45.90625 0 
L 45.90625 32.71875 
Q 45.90625 40.484375 42.875 44.328125 
Q 39.84375 48.1875 33.796875 48.1875 
Q 26.515625 48.1875 22.3125 43.546875 
Q 18.109375 38.921875 18.109375 30.90625 
L 18.109375 0 
L 9.078125 0 
L 9.078125 75.984375 
L 18.109375 75.984375 
L 18.109375 46.1875 
Q 21.34375 51.125 25.703125 53.5625 
Q 30.078125 56 35.796875 56 
Q 45.21875 56 50.046875 50.171875 
Q 54.890625 44.34375 54.890625 33.015625 
" id="DejaVuSans-68"/>
     <path d="M 34.28125 27.484375 
Q 23.390625 27.484375 19.1875 25 
Q 14.984375 22.515625 14.984375 16.5 
Q 14.984375 11.71875 18.140625 8.90625 
Q 21.296875 6.109375 26.703125 6.109375 
Q 34.1875 6.109375 38.703125 11.40625 
Q 43.21875 16.703125 43.21875 25.484375 
L 43.21875 27.484375 
z
M 52.203125 31.203125 
L 52.203125 0 
L 43.21875 0 
L 43.21875 8.296875 
Q 40.140625 3.328125 35.546875 0.953125 
Q 30.953125 -1.421875 24.3125 -1.421875 
Q 15.921875 -1.421875 10.953125 3.296875 
Q 6 8.015625 6 15.921875 
Q 6 25.140625 12.171875 29.828125 
Q 18.359375 34.515625 30.609375 34.515625 
L 43.21875 34.515625 
L 43.21875 35.40625 
Q 43.21875 41.609375 39.140625 45 
Q 35.0625 48.390625 27.6875 48.390625 
Q 23 48.390625 18.546875 47.265625 
Q 14.109375 46.140625 10.015625 43.890625 
L 10.015625 52.203125 
Q 14.9375 54.109375 19.578125 55.046875 
Q 24.21875 56 28.609375 56 
Q 40.484375 56 46.34375 49.84375 
Q 52.203125 43.703125 52.203125 31.203125 
" id="DejaVuSans-61"/>
     <path d="M 41.109375 46.296875 
Q 39.59375 47.171875 37.8125 47.578125 
Q 36.03125 48 33.890625 48 
Q 26.265625 48 22.1875 43.046875 
Q 18.109375 38.09375 18.109375 28.8125 
L 18.109375 0 
L 9.078125 0 
L 9.078125 54.6875 
L 18.109375 54.6875 
L 18.109375 46.1875 
Q 20.953125 51.171875 25.484375 53.578125 
Q 30.03125 56 36.53125 56 
Q 37.453125 56 38.578125 55.875 
Q 39.703125 55.765625 41.0625 55.515625 
z
" id="DejaVuSans-72"/>
     <path d="M 4.203125 54.6875 
L 13.1875 54.6875 
L 24.421875 12.015625 
L 35.59375 54.6875 
L 46.1875 54.6875 
L 57.421875 12.015625 
L 68.609375 54.6875 
L 77.59375 54.6875 
L 63.28125 0 
L 52.6875 0 
L 40.921875 44.828125 
L 29.109375 0 
L 18.5 0 
z
" id="DejaVuSans-77"/>
     <path d="M 30.609375 48.390625 
Q 23.390625 48.390625 19.1875 42.75 
Q 14.984375 37.109375 14.984375 27.296875 
Q 14.984375 17.484375 19.15625 11.84375 
Q 23.34375 6.203125 30.609375 6.203125 
Q 37.796875 6.203125 41.984375 11.859375 
Q 46.1875 17.53125 46.1875 27.296875 
Q 46.1875 37.015625 41.984375 42.703125 
Q 37.796875 48.390625 30.609375 48.390625 
M 30.609375 56 
Q 42.328125 56 49.015625 48.375 
Q 55.71875 40.765625 55.71875 27.296875 
Q 55.71875 13.875 49.015625 6.21875 
Q 42.328125 -1.421875 30.609375 -1.421875 
Q 18.84375 -1.421875 12.171875 6.21875 
Q 5.515625 13.875 5.515625 27.296875 
Q 5.515625 40.765625 12.171875 48.375 
Q 18.84375 56 30.609375 56 
" id="DejaVuSans-6f"/>
     <path d="M 45.40625 46.390625 
L 45.40625 75.984375 
L 54.390625 75.984375 
L 54.390625 0 
L 45.40625 0 
L 45.40625 8.203125 
Q 42.578125 3.328125 38.25 0.953125 
Q 33.9375 -1.421875 27.875 -1.421875 
Q 17.96875 -1.421875 11.734375 6.484375 
Q 5.515625 14.40625 5.515625 27.296875 
Q 5.515625 40.1875 11.734375 48.09375 
Q 17.96875 56 27.875 56 
Q 33.9375 56 38.25 53.625 
Q 42.578125 51.265625 45.40625 46.390625 
M 14.796875 27.296875 
Q 14.796875 17.390625 18.875 11.75 
Q 22.953125 6.109375 30.078125 6.109375 
Q 37.203125 6.109375 41.296875 11.75 
Q 45.40625 17.390625 45.40625 27.296875 
Q 45.40625 37.203125 41.296875 42.84375 
Q 37.203125 48.484375 30.078125 48.484375 
Q 22.953125 48.484375 18.875 42.84375 
Q 14.796875 37.203125 14.796875 27.296875 
" id="DejaVuSans-64"/>
    </defs>
    <g transform="translate(365.667715 434.580292)scale(0.07 -0.07)">
     <use xlink:href="#DejaVuSans-68"/>
     <use x="63.378906" xlink:href="#DejaVuSans-61"/>
     <use x="124.658203" xlink:href="#DejaVuSans-72"/>
     <use x="165.771484" xlink:href="#DejaVuSans-77"/>
     <use x="247.558594" xlink:href="#DejaVuSans-6f"/>
     <use x="308.740234" xlink:href="#DejaVuSans-6f"/>
     <use x="369.921875" xlink:href="#DejaVuSans-64"/>
    </g>
   </g>
   <g id="text_2">
    <!-- lyin -->
    <defs>
     <path d="M 9.421875 75.984375 
L 18.40625 75.984375 
L 18.40625 0 
L 9.421875 0 
z
" id="DejaVuSans-6c"/>
     <path d="M 32.171875 -5.078125 
Q 28.375 -14.84375 24.75 -17.8125 
Q 21.140625 -20.796875 15.09375 -20.796875 
L 7.90625 -20.796875 
L 7.90625 -13.28125 
L 13.1875 -13.28125 
Q 16.890625 -13.28125 18.9375 -11.515625 
Q 21 -9.765625 23.484375 -3.21875 
L 25.09375 0.875 
L 2.984375 54.6875 
L 12.5 54.6875 
L 29.59375 11.921875 
L 46.6875 54.6875 
L 56.203125 54.6875 
z
" id="DejaVuSans-79"/>
     <path d="M 9.421875 54.6875 
L 18.40625 54.6875 
L 18.40625 0 
L 9.421875 0 
z
M 9.421875 75.984375 
L 18.40625 75.984375 
L 18.40625 64.59375 
L 9.421875 64.59375 
z
" id="DejaVuSans-69"/>
     <path d="M 54.890625 33.015625 
L 54.890625 0 
L 45.90625 0 
L 45.90625 32.71875 
Q 45.90625 40.484375 42.875 44.328125 
Q 39.84375 48.1875 33.796875 48.1875 
Q 26.515625 48.1875 22.3125 43.546875 
Q 18.109375 38.921875 18.109375 30.90625 
L 18.109375 0 
L 9.078125 0 
L 9.078125 54.6875 
L 18.109375 54.6875 
L 18.109375 46.1875 
Q 21.34375 51.125 25.703125 53.5625 
Q 30.078125 56 35.796875 56 
Q 45.21875 56 50.046875 50.171875 
Q 54.890625 44.34375 54.890625 33.015625 
" id="DejaVuSans-6e"/>
    </defs>
    <g transform="translate(367.741914 456.573151)scale(0.07 -0.07)">
     <use xlink:href="#DejaVuSans-6c"/>
     <use x="27.783203" xlink:href="#DejaVuSans-79"/>
     <use x="86.962891" xlink:href="#DejaVuSans-69"/>
     <use x="114.746094" xlink:href="#DejaVuSans-6e"/>
    </g>
   </g>
   <g id="text_3">
    <!-- lyin -->
    <g transform="translate(370.751506 439.887618)scale(0.07 -0.07)">
     <use xlink:href="#DejaVuSans-6c"/>
     <use x="27.783203" xlink:href="#DejaVuSans-79"/>
     <use x="86.962891" xlink:href="#DejaVuSans-69"/>
     <use x="114.746094" xlink:href="#DejaVuSans-6e"/>
    </g>
   </g>
   <g id="text_4">
    <!-- carter -->
    <defs>
     <path d="M 48.78125 52.59375 
L 48.78125 44.1875 
Q 44.96875 46.296875 41.140625 47.34375 
Q 37.3125 48.390625 33.40625 48.390625 
Q 24.65625 48.390625 19.8125 42.84375 
Q 14.984375 37.3125 14.984375 27.296875 
Q 14.984375 17.28125 19.8125 11.734375 
Q 24.65625 6.203125 33.40625 6.203125 
Q 37.3125 6.203125 41.140625 7.25 
Q 44.96875 8.296875 48.78125 10.40625 
L 48.78125 2.09375 
Q 45.015625 0.34375 40.984375 -0.53125 
Q 36.96875 -1.421875 32.421875 -1.421875 
Q 20.0625 -1.421875 12.78125 6.34375 
Q 5.515625 14.109375 5.515625 27.296875 
Q 5.515625 40.671875 12.859375 48.328125 
Q 20.21875 56 33.015625 56 
Q 37.15625 56 41.109375 55.140625 
Q 45.0625 54.296875 48.78125 52.59375 
" id="DejaVuSans-63"/>
     <path d="M 18.3125 70.21875 
L 18.3125 54.6875 
L 36.8125 54.6875 
L 36.8125 47.703125 
L 18.3125 47.703125 
L 18.3125 18.015625 
Q 18.3125 11.328125 20.140625 9.421875 
Q 21.96875 7.515625 27.59375 7.515625 
L 36.8125 7.515625 
L 36.8125 0 
L 27.59375 0 
Q 17.1875 0 13.234375 3.875 
Q 9.28125 7.765625 9.28125 18.015625 
L 9.28125 47.703125 
L 2.6875 47.703125 
L 2.6875 54.6875 
L 9.28125 54.6875 
L 9.28125 70.21875 
z
" id="DejaVuSans-74"/>
     <path d="M 56.203125 29.59375 
L 56.203125 25.203125 
L 14.890625 25.203125 
Q 15.484375 15.921875 20.484375 11.0625 
Q 25.484375 6.203125 34.421875 6.203125 
Q 39.59375 6.203125 44.453125 7.46875 
Q 49.3125 8.734375 54.109375 11.28125 
L 54.109375 2.78125 
Q 49.265625 0.734375 44.1875 -0.34375 
Q 39.109375 -1.421875 33.890625 -1.421875 
Q 20.796875 -1.421875 13.15625 6.1875 
Q 5.515625 13.8125 5.515625 26.8125 
Q 5.515625 40.234375 12.765625 48.109375 
Q 20.015625 56 32.328125 56 
Q 43.359375 56 49.78125 48.890625 
Q 56.203125 41.796875 56.203125 29.59375 
M 47.21875 32.234375 
Q 47.125 39.59375 43.09375 43.984375 
Q 39.0625 48.390625 32.421875 48.390625 
Q 24.90625 48.390625 20.390625 44.140625 
Q 15.875 39.890625 15.1875 32.171875 
z
" id="DejaVuSans-65"/>
    </defs>
    <g transform="translate(361.55155 446.153334)scale(0.07 -0.07)">
     <use xlink:href="#DejaVuSans-63"/>
     <use x="54.980469" xlink:href="#DejaVuSans-61"/>
     <use x="116.259766" xlink:href="#DejaVuSans-72"/>
     <use x="157.373047" xlink:href="#DejaVuSans-74"/>
     <use x="196.582031" xlink:href="#DejaVuSans-65"/>
     <use x="258.105469" xlink:href="#DejaVuSans-72"/>
    </g>
   </g>
   <g id="text_5">
    <!-- sessions -->
    <defs>
     <path d="M 44.28125 53.078125 
L 44.28125 44.578125 
Q 40.484375 46.53125 36.375 47.5 
Q 32.28125 48.484375 27.875 48.484375 
Q 21.1875 48.484375 17.84375 46.4375 
Q 14.5 44.390625 14.5 40.28125 
Q 14.5 37.15625 16.890625 35.375 
Q 19.28125 33.59375 26.515625 31.984375 
L 29.59375 31.296875 
Q 39.15625 29.25 43.1875 25.515625 
Q 47.21875 21.78125 47.21875 15.09375 
Q 47.21875 7.46875 41.1875 3.015625 
Q 35.15625 -1.421875 24.609375 -1.421875 
Q 20.21875 -1.421875 15.453125 -0.5625 
Q 10.6875 0.296875 5.421875 2 
L 5.421875 11.28125 
Q 10.40625 8.6875 15.234375 7.390625 
Q 20.0625 6.109375 24.8125 6.109375 
Q 31.15625 6.109375 34.5625 8.28125 
Q 37.984375 10.453125 37.984375 14.40625 
Q 37.984375 18.0625 35.515625 20.015625 
Q 33.0625 21.96875 24.703125 23.78125 
L 21.578125 24.515625 
Q 13.234375 26.265625 9.515625 29.90625 
Q 5.8125 33.546875 5.8125 39.890625 
Q 5.8125 47.609375 11.28125 51.796875 
Q 16.75 56 26.8125 56 
Q 31.78125 56 36.171875 55.265625 
Q 40.578125 54.546875 44.28125 53.078125 
" id="DejaVuSans-73"/>
    </defs>
    <g transform="translate(421.14515 480.075068)scale(0.07 -0.07)">
     <use xlink:href="#DejaVuSans-73"/>
     <use x="52.099609" xlink:href="#DejaVuSans-65"/>
     <use x="113.623047" xlink:href="#DejaVuSans-73"/>
     <use x="165.722656" xlink:href="#DejaVuSans-73"/>
     <use x="217.822266" xlink:href="#DejaVuSans-69"/>
     <use x="245.605469" xlink:href="#DejaVuSans-6f"/>
     <use x="306.787109" xlink:href="#DejaVuSans-6e"/>
     <use x="370.166016" xlink:href="#DejaVuSans-73"/>
    </g>
   </g>
   <g id="text_6">
    <!-- romney -->
    <defs>
     <path d="M 52 44.1875 
Q 55.375 50.25 60.0625 53.125 
Q 64.75 56 71.09375 56 
Q 79.640625 56 84.28125 50.015625 
Q 88.921875 44.046875 88.921875 33.015625 
L 88.921875 0 
L 79.890625 0 
L 79.890625 32.71875 
Q 79.890625 40.578125 77.09375 44.375 
Q 74.3125 48.1875 68.609375 48.1875 
Q 61.625 48.1875 57.5625 43.546875 
Q 53.515625 38.921875 53.515625 30.90625 
L 53.515625 0 
L 44.484375 0 
L 44.484375 32.71875 
Q 44.484375 40.625 41.703125 44.40625 
Q 38.921875 48.1875 33.109375 48.1875 
Q 26.21875 48.1875 22.15625 43.53125 
Q 18.109375 38.875 18.109375 30.90625 
L 18.109375 0 
L 9.078125 0 
L 9.078125 54.6875 
L 18.109375 54.6875 
L 18.109375 46.1875 
Q 21.1875 51.21875 25.484375 53.609375 
Q 29.78125 56 35.6875 56 
Q 41.65625 56 45.828125 52.96875 
Q 50 49.953125 52 44.1875 
" id="DejaVuSans-6d"/>
    </defs>
    <g transform="translate(378.677666 416.958415)scale(0.07 -0.07)">
     <use xlink:href="#DejaVuSans-72"/>
     <use x="41.082031" xlink:href="#DejaVuSans-6f"/>
     <use x="102.263672" xlink:href="#DejaVuSans-6d"/>
     <use x="199.675781" xlink:href="#DejaVuSans-6e"/>
     <use x="263.054688" xlink:href="#DejaVuSans-65"/>
     <use x="324.578125" xlink:href="#DejaVuSans-79"/>
    </g>
   </g>
   <g id="text_7">
    <!-- mit -->
    <g transform="translate(369.115949 424.596883)scale(0.07 -0.07)">
     <use xlink:href="#DejaVuSans-6d"/>
     <use x="97.412109" xlink:href="#DejaVuSans-69"/>
     <use x="125.195312" xlink:href="#DejaVuSans-74"/>
    </g>
   </g>
   <g id="text_8">
    <!-- mitt -->
    <g transform="translate(376.861047 424.468507)scale(0.07 -0.07)">
     <use xlink:href="#DejaVuSans-6d"/>
     <use x="97.412109" xlink:href="#DejaVuSans-69"/>
     <use x="125.195312" xlink:href="#DejaVuSans-74"/>
     <use x="164.404297" xlink:href="#DejaVuSans-74"/>
    </g>
   </g>
   <g id="text_9">
    <!-- johnson -->
    <defs>
     <path d="M 9.421875 54.6875 
L 18.40625 54.6875 
L 18.40625 -0.984375 
Q 18.40625 -11.421875 14.421875 -16.109375 
Q 10.453125 -20.796875 1.609375 -20.796875 
L -1.8125 -20.796875 
L -1.8125 -13.1875 
L 0.59375 -13.1875 
Q 5.71875 -13.1875 7.5625 -10.8125 
Q 9.421875 -8.453125 9.421875 -0.984375 
z
M 9.421875 75.984375 
L 18.40625 75.984375 
L 18.40625 64.59375 
L 9.421875 64.59375 
z
" id="DejaVuSans-6a"/>
    </defs>
    <g transform="translate(380.40254 407.897186)scale(0.07 -0.07)">
     <use xlink:href="#DejaVuSans-6a"/>
     <use x="27.783203" xlink:href="#DejaVuSans-6f"/>
     <use x="88.964844" xlink:href="#DejaVuSans-68"/>
     <use x="152.34375" xlink:href="#DejaVuSans-6e"/>
     <use x="215.722656" xlink:href="#DejaVuSans-73"/>
     <use x="267.822266" xlink:href="#DejaVuSans-6f"/>
     <use x="329.003906" xlink:href="#DejaVuSans-6e"/>
    </g>
   </g>
   <g id="text_10">
    <!-- kasich -->
    <defs>
     <path d="M 9.078125 75.984375 
L 18.109375 75.984375 
L 18.109375 31.109375 
L 44.921875 54.6875 
L 56.390625 54.6875 
L 27.390625 29.109375 
L 57.625 0 
L 45.90625 0 
L 18.109375 26.703125 
L 18.109375 0 
L 9.078125 0 
z
" id="DejaVuSans-6b"/>
    </defs>
    <g transform="translate(350.362666 448.267847)scale(0.07 -0.07)">
     <use xlink:href="#DejaVuSans-6b"/>
     <use x="57.894531" xlink:href="#DejaVuSans-61"/>
     <use x="119.173828" xlink:href="#DejaVuSans-73"/>
     <use x="171.273438" xlink:href="#DejaVuSans-69"/>
     <use x="199.056641" xlink:href="#DejaVuSans-63"/>
     <use x="254.037109" xlink:href="#DejaVuSans-68"/>
    </g>
   </g>
   <g id="text_11">
    <!-- jokes -->
    <g transform="translate(401.603374 455.834831)scale(0.07 -0.07)">
     <use xlink:href="#DejaVuSans-6a"/>
     <use x="27.783203" xlink:href="#DejaVuSans-6f"/>
     <use x="88.964844" xlink:href="#DejaVuSans-6b"/>
     <use x="146.828125" xlink:href="#DejaVuSans-65"/>
     <use x="208.351562" xlink:href="#DejaVuSans-73"/>
    </g>
   </g>
   <g id="text_12">
    <!-- carter -->
    <g transform="translate(358.348473 419.681566)scale(0.07 -0.07)">
     <use xlink:href="#DejaVuSans-63"/>
     <use x="54.980469" xlink:href="#DejaVuSans-61"/>
     <use x="116.259766" xlink:href="#DejaVuSans-72"/>
     <use x="157.373047" xlink:href="#DejaVuSans-74"/>
     <use x="196.582031" xlink:href="#DejaVuSans-65"/>
     <use x="258.105469" xlink:href="#DejaVuSans-72"/>
    </g>
   </g>
   <g id="text_13">
    <!-- canadian -->
    <g transform="translate(382.706441 463.875179)scale(0.07 -0.07)">
     <use xlink:href="#DejaVuSans-63"/>
     <use x="54.980469" xlink:href="#DejaVuSans-61"/>
     <use x="116.259766" xlink:href="#DejaVuSans-6e"/>
     <use x="179.638672" xlink:href="#DejaVuSans-61"/>
     <use x="240.917969" xlink:href="#DejaVuSans-64"/>
     <use x="304.394531" xlink:href="#DejaVuSans-69"/>
     <use x="332.177734" xlink:href="#DejaVuSans-61"/>
     <use x="393.457031" xlink:href="#DejaVuSans-6e"/>
    </g>
   </g>
   <g id="text_14">
    <!-- carbon -->
    <defs>
     <path d="M 48.6875 27.296875 
Q 48.6875 37.203125 44.609375 42.84375 
Q 40.53125 48.484375 33.40625 48.484375 
Q 26.265625 48.484375 22.1875 42.84375 
Q 18.109375 37.203125 18.109375 27.296875 
Q 18.109375 17.390625 22.1875 11.75 
Q 26.265625 6.109375 33.40625 6.109375 
Q 40.53125 6.109375 44.609375 11.75 
Q 48.6875 17.390625 48.6875 27.296875 
M 18.109375 46.390625 
Q 20.953125 51.265625 25.265625 53.625 
Q 29.59375 56 35.59375 56 
Q 45.5625 56 51.78125 48.09375 
Q 58.015625 40.1875 58.015625 27.296875 
Q 58.015625 14.40625 51.78125 6.484375 
Q 45.5625 -1.421875 35.59375 -1.421875 
Q 29.59375 -1.421875 25.265625 0.953125 
Q 20.953125 3.328125 18.109375 8.203125 
L 18.109375 0 
L 9.078125 0 
L 9.078125 75.984375 
L 18.109375 75.984375 
z
" id="DejaVuSans-62"/>
    </defs>
    <g transform="translate(407.408654 436.395091)scale(0.07 -0.07)">
     <use xlink:href="#DejaVuSans-63"/>
     <use x="54.980469" xlink:href="#DejaVuSans-61"/>
     <use x="116.259766" xlink:href="#DejaVuSans-72"/>
     <use x="157.373047" xlink:href="#DejaVuSans-62"/>
     <use x="220.849609" xlink:href="#DejaVuSans-6f"/>
     <use x="282.03125" xlink:href="#DejaVuSans-6e"/>
    </g>
   </g>
   <g id="text_15">
    <!-- ben -->
    <g transform="translate(680.113982 103.68)scale(0.07 -0.07)">
     <use xlink:href="#DejaVuSans-62"/>
     <use x="63.476562" xlink:href="#DejaVuSans-65"/>
     <use x="125" xlink:href="#DejaVuSans-6e"/>
    </g>
   </g>
   <g id="text_16">
    <!-- dr. -->
    <defs>
     <path d="M 10.6875 12.40625 
L 21 12.40625 
L 21 0 
L 10.6875 0 
z
" id="DejaVuSans-2e"/>
    </defs>
    <g transform="translate(485.498727 516.447395)scale(0.07 -0.07)">
     <use xlink:href="#DejaVuSans-64"/>
     <use x="63.476562" xlink:href="#DejaVuSans-72"/>
     <use x="104.449219" xlink:href="#DejaVuSans-2e"/>
    </g>
   </g>
   <g id="text_17">
    <!-- carson -->
    <g transform="translate(410.229171 502.171514)scale(0.07 -0.07)">
     <use xlink:href="#DejaVuSans-63"/>
     <use x="54.980469" xlink:href="#DejaVuSans-61"/>
     <use x="116.259766" xlink:href="#DejaVuSans-72"/>
     <use x="157.373047" xlink:href="#DejaVuSans-73"/>
     <use x="209.472656" xlink:href="#DejaVuSans-6f"/>
     <use x="270.654297" xlink:href="#DejaVuSans-6e"/>
    </g>
   </g>
   <g id="text_18">
    <!-- rubio -->
    <defs>
     <path d="M 8.5 21.578125 
L 8.5 54.6875 
L 17.484375 54.6875 
L 17.484375 21.921875 
Q 17.484375 14.15625 20.5 10.265625 
Q 23.53125 6.390625 29.59375 6.390625 
Q 36.859375 6.390625 41.078125 11.03125 
Q 45.3125 15.671875 45.3125 23.6875 
L 45.3125 54.6875 
L 54.296875 54.6875 
L 54.296875 0 
L 45.3125 0 
L 45.3125 8.40625 
Q 42.046875 3.421875 37.71875 1 
Q 33.40625 -1.421875 27.6875 -1.421875 
Q 18.265625 -1.421875 13.375 4.4375 
Q 8.5 10.296875 8.5 21.578125 
M 31.109375 56 
z
" id="DejaVuSans-75"/>
    </defs>
    <g transform="translate(144 449.379664)scale(0.07 -0.07)">
     <use xlink:href="#DejaVuSans-72"/>
     <use x="41.113281" xlink:href="#DejaVuSans-75"/>
     <use x="104.492188" xlink:href="#DejaVuSans-62"/>
     <use x="167.96875" xlink:href="#DejaVuSans-69"/>
     <use x="195.751953" xlink:href="#DejaVuSans-6f"/>
    </g>
   </g>
   <g id="text_19">
    <!-- he -->
    <g transform="translate(399.191016 437.150766)scale(0.07 -0.07)">
     <use xlink:href="#DejaVuSans-68"/>
     <use x="63.378906" xlink:href="#DejaVuSans-65"/>
    </g>
   </g>
   <g id="text_20">
    <!-- cart -->
    <g transform="translate(399.248357 601.396488)scale(0.07 -0.07)">
     <use xlink:href="#DejaVuSans-63"/>
     <use x="54.980469" xlink:href="#DejaVuSans-61"/>
     <use x="116.259766" xlink:href="#DejaVuSans-72"/>
     <use x="157.373047" xlink:href="#DejaVuSans-74"/>
    </g>
   </g>
   <g id="text_21">
    <!-- johnson -->
    <g transform="translate(356.370168 486.957923)scale(0.07 -0.07)">
     <use xlink:href="#DejaVuSans-6a"/>
     <use x="27.783203" xlink:href="#DejaVuSans-6f"/>
     <use x="88.964844" xlink:href="#DejaVuSans-68"/>
     <use x="152.34375" xlink:href="#DejaVuSans-6e"/>
     <use x="215.722656" xlink:href="#DejaVuSans-73"/>
     <use x="267.822266" xlink:href="#DejaVuSans-6f"/>
     <use x="329.003906" xlink:href="#DejaVuSans-6e"/>
    </g>
   </g>
   <g id="text_22">
    <!-- lyndon -->
    <g transform="translate(391.996701 429.012581)scale(0.07 -0.07)">
     <use xlink:href="#DejaVuSans-6c"/>
     <use x="27.783203" xlink:href="#DejaVuSans-79"/>
     <use x="86.962891" xlink:href="#DejaVuSans-6e"/>
     <use x="150.341797" xlink:href="#DejaVuSans-64"/>
     <use x="213.818359" xlink:href="#DejaVuSans-6f"/>
     <use x="275" xlink:href="#DejaVuSans-6e"/>
    </g>
   </g>
   <g id="text_23">
    <!-- canadian -->
    <g transform="translate(383.066607 452.586606)scale(0.07 -0.07)">
     <use xlink:href="#DejaVuSans-63"/>
     <use x="54.980469" xlink:href="#DejaVuSans-61"/>
     <use x="116.259766" xlink:href="#DejaVuSans-6e"/>
     <use x="179.638672" xlink:href="#DejaVuSans-61"/>
     <use x="240.917969" xlink:href="#DejaVuSans-64"/>
     <use x="304.394531" xlink:href="#DejaVuSans-69"/>
     <use x="332.177734" xlink:href="#DejaVuSans-61"/>
     <use x="393.457031" xlink:href="#DejaVuSans-6e"/>
    </g>
   </g>
   <g id="text_24">
    <!-- canada -->
    <g transform="translate(378.744867 458.705819)scale(0.07 -0.07)">
     <use xlink:href="#DejaVuSans-63"/>
     <use x="54.980469" xlink:href="#DejaVuSans-61"/>
     <use x="116.259766" xlink:href="#DejaVuSans-6e"/>
     <use x="179.638672" xlink:href="#DejaVuSans-61"/>
     <use x="240.917969" xlink:href="#DejaVuSans-64"/>
     <use x="304.394531" xlink:href="#DejaVuSans-61"/>
    </g>
   </g>
   <g id="text_25">
    <!-- carly -->
    <g transform="translate(507.531195 405.842418)scale(0.07 -0.07)">
     <use xlink:href="#DejaVuSans-63"/>
     <use x="54.980469" xlink:href="#DejaVuSans-61"/>
     <use x="116.259766" xlink:href="#DejaVuSans-72"/>
     <use x="157.373047" xlink:href="#DejaVuSans-6c"/>
     <use x="185.15625" xlink:href="#DejaVuSans-79"/>
    </g>
   </g>
   <g id="text_26">
    <!-- johnson -->
    <g transform="translate(345.489343 413.767137)scale(0.07 -0.07)">
     <use xlink:href="#DejaVuSans-6a"/>
     <use x="27.783203" xlink:href="#DejaVuSans-6f"/>
     <use x="88.964844" xlink:href="#DejaVuSans-68"/>
     <use x="152.34375" xlink:href="#DejaVuSans-6e"/>
     <use x="215.722656" xlink:href="#DejaVuSans-73"/>
     <use x="267.822266" xlink:href="#DejaVuSans-6f"/>
     <use x="329.003906" xlink:href="#DejaVuSans-6e"/>
    </g>
   </g>
   <g id="text_27">
    <!-- graham -->
    <defs>
     <path d="M 45.40625 27.984375 
Q 45.40625 37.75 41.375 43.109375 
Q 37.359375 48.484375 30.078125 48.484375 
Q 22.859375 48.484375 18.828125 43.109375 
Q 14.796875 37.75 14.796875 27.984375 
Q 14.796875 18.265625 18.828125 12.890625 
Q 22.859375 7.515625 30.078125 7.515625 
Q 37.359375 7.515625 41.375 12.890625 
Q 45.40625 18.265625 45.40625 27.984375 
M 54.390625 6.78125 
Q 54.390625 -7.171875 48.1875 -13.984375 
Q 42 -20.796875 29.203125 -20.796875 
Q 24.46875 -20.796875 20.265625 -20.09375 
Q 16.0625 -19.390625 12.109375 -17.921875 
L 12.109375 -9.1875 
Q 16.0625 -11.328125 19.921875 -12.34375 
Q 23.78125 -13.375 27.78125 -13.375 
Q 36.625 -13.375 41.015625 -8.765625 
Q 45.40625 -4.15625 45.40625 5.171875 
L 45.40625 9.625 
Q 42.625 4.78125 38.28125 2.390625 
Q 33.9375 0 27.875 0 
Q 17.828125 0 11.671875 7.65625 
Q 5.515625 15.328125 5.515625 27.984375 
Q 5.515625 40.671875 11.671875 48.328125 
Q 17.828125 56 27.875 56 
Q 33.9375 56 38.28125 53.609375 
Q 42.625 51.21875 45.40625 46.390625 
L 45.40625 54.6875 
L 54.390625 54.6875 
z
" id="DejaVuSans-67"/>
    </defs>
    <g transform="translate(391.904637 447.270274)scale(0.07 -0.07)">
     <use xlink:href="#DejaVuSans-67"/>
     <use x="63.476562" xlink:href="#DejaVuSans-72"/>
     <use x="104.589844" xlink:href="#DejaVuSans-61"/>
     <use x="165.869141" xlink:href="#DejaVuSans-68"/>
     <use x="229.248047" xlink:href="#DejaVuSans-61"/>
     <use x="290.527344" xlink:href="#DejaVuSans-6d"/>
    </g>
   </g>
   <g id="text_28">
    <!-- jeffrey -->
    <defs>
     <path d="M 37.109375 75.984375 
L 37.109375 68.5 
L 28.515625 68.5 
Q 23.6875 68.5 21.796875 66.546875 
Q 19.921875 64.59375 19.921875 59.515625 
L 19.921875 54.6875 
L 34.71875 54.6875 
L 34.71875 47.703125 
L 19.921875 47.703125 
L 19.921875 0 
L 10.890625 0 
L 10.890625 47.703125 
L 2.296875 47.703125 
L 2.296875 54.6875 
L 10.890625 54.6875 
L 10.890625 58.5 
Q 10.890625 67.625 15.140625 71.796875 
Q 19.390625 75.984375 28.609375 75.984375 
z
" id="DejaVuSans-66"/>
    </defs>
    <g transform="translate(401.273309 446.337905)scale(0.07 -0.07)">
     <use xlink:href="#DejaVuSans-6a"/>
     <use x="27.783203" xlink:href="#DejaVuSans-65"/>
     <use x="89.306641" xlink:href="#DejaVuSans-66"/>
     <use x="124.511719" xlink:href="#DejaVuSans-66"/>
     <use x="159.716797" xlink:href="#DejaVuSans-72"/>
     <use x="200.798828" xlink:href="#DejaVuSans-65"/>
     <use x="262.322266" xlink:href="#DejaVuSans-79"/>
    </g>
   </g>
   <g id="text_29">
    <!-- marco -->
    <g transform="translate(666.094812 560.35508)scale(0.07 -0.07)">
     <use xlink:href="#DejaVuSans-6d"/>
     <use x="97.412109" xlink:href="#DejaVuSans-61"/>
     <use x="158.691406" xlink:href="#DejaVuSans-72"/>
     <use x="199.773438" xlink:href="#DejaVuSans-63"/>
     <use x="254.753906" xlink:href="#DejaVuSans-6f"/>
    </g>
   </g>
   <g id="text_30">
    <!-- ted -->
    <g transform="translate(396.543566 487.794705)scale(0.07 -0.07)">
     <use xlink:href="#DejaVuSans-74"/>
     <use x="39.208984" xlink:href="#DejaVuSans-65"/>
     <use x="100.732422" xlink:href="#DejaVuSans-64"/>
    </g>
   </g>
   <g id="text_31">
    <!-- canadian -->
    <g transform="translate(377.924108 451.469251)scale(0.07 -0.07)">
     <use xlink:href="#DejaVuSans-63"/>
     <use x="54.980469" xlink:href="#DejaVuSans-61"/>
     <use x="116.259766" xlink:href="#DejaVuSans-6e"/>
     <use x="179.638672" xlink:href="#DejaVuSans-61"/>
     <use x="240.917969" xlink:href="#DejaVuSans-64"/>
     <use x="304.394531" xlink:href="#DejaVuSans-69"/>
     <use x="332.177734" xlink:href="#DejaVuSans-61"/>
     <use x="393.457031" xlink:href="#DejaVuSans-6e"/>
    </g>
   </g>
   <g id="text_32">
    <!-- kelly -->
    <g transform="translate(417.261351 426.761927)scale(0.07 -0.07)">
     <use xlink:href="#DejaVuSans-6b"/>
     <use x="57.863281" xlink:href="#DejaVuSans-65"/>
     <use x="119.386719" xlink:href="#DejaVuSans-6c"/>
     <use x="147.169922" xlink:href="#DejaVuSans-6c"/>
     <use x="174.953125" xlink:href="#DejaVuSans-79"/>
    </g>
   </g>
   <g id="text_33">
    <!-- cain -->
    <g transform="translate(197.282755 768.96)scale(0.07 -0.07)">
     <use xlink:href="#DejaVuSans-63"/>
     <use x="54.980469" xlink:href="#DejaVuSans-61"/>
     <use x="116.259766" xlink:href="#DejaVuSans-69"/>
     <use x="144.042969" xlink:href="#DejaVuSans-6e"/>
    </g>
   </g>
   <g id="text_34">
    <!-- mccain -->
    <g transform="translate(345.057491 446.497253)scale(0.07 -0.07)">
     <use xlink:href="#DejaVuSans-6d"/>
     <use x="97.412109" xlink:href="#DejaVuSans-63"/>
     <use x="152.392578" xlink:href="#DejaVuSans-63"/>
     <use x="207.373047" xlink:href="#DejaVuSans-61"/>
     <use x="268.652344" xlink:href="#DejaVuSans-69"/>
     <use x="296.435547" xlink:href="#DejaVuSans-6e"/>
    </g>
   </g>
   <g id="text_35">
    <!-- john -->
    <g transform="translate(369.947665 407.882581)scale(0.07 -0.07)">
     <use xlink:href="#DejaVuSans-6a"/>
     <use x="27.783203" xlink:href="#DejaVuSans-6f"/>
     <use x="88.964844" xlink:href="#DejaVuSans-68"/>
     <use x="152.34375" xlink:href="#DejaVuSans-6e"/>
    </g>
   </g>
   <g id="text_36">
    <!-- choke -->
    <g transform="translate(397.112778 472.707925)scale(0.07 -0.07)">
     <use xlink:href="#DejaVuSans-63"/>
     <use x="54.980469" xlink:href="#DejaVuSans-68"/>
     <use x="118.359375" xlink:href="#DejaVuSans-6f"/>
     <use x="179.541016" xlink:href="#DejaVuSans-6b"/>
     <use x="237.404297" xlink:href="#DejaVuSans-65"/>
    </g>
   </g>
   <g id="text_37">
    <!-- romney -->
    <g transform="translate(383.345078 424.435015)scale(0.07 -0.07)">
     <use xlink:href="#DejaVuSans-72"/>
     <use x="41.082031" xlink:href="#DejaVuSans-6f"/>
     <use x="102.263672" xlink:href="#DejaVuSans-6d"/>
     <use x="199.675781" xlink:href="#DejaVuSans-6e"/>
     <use x="263.054688" xlink:href="#DejaVuSans-65"/>
     <use x="324.578125" xlink:href="#DejaVuSans-79"/>
    </g>
   </g>
   <g id="text_38">
    <!-- jeffrey -->
    <g transform="translate(1036.8 149.33575)scale(0.07 -0.07)">
     <use xlink:href="#DejaVuSans-6a"/>
     <use x="27.783203" xlink:href="#DejaVuSans-65"/>
     <use x="89.306641" xlink:href="#DejaVuSans-66"/>
     <use x="124.511719" xlink:href="#DejaVuSans-66"/>
     <use x="159.716797" xlink:href="#DejaVuSans-72"/>
     <use x="200.798828" xlink:href="#DejaVuSans-65"/>
     <use x="262.322266" xlink:href="#DejaVuSans-79"/>
    </g>
   </g>
   <g id="text_39">
    <!-- session -->
    <g transform="translate(424.837123 486.983194)scale(0.07 -0.07)">
     <use xlink:href="#DejaVuSans-73"/>
     <use x="52.099609" xlink:href="#DejaVuSans-65"/>
     <use x="113.623047" xlink:href="#DejaVuSans-73"/>
     <use x="165.722656" xlink:href="#DejaVuSans-73"/>
     <use x="217.822266" xlink:href="#DejaVuSans-69"/>
     <use x="245.605469" xlink:href="#DejaVuSans-6f"/>
     <use x="306.787109" xlink:href="#DejaVuSans-6e"/>
    </g>
   </g>
   <g id="text_40">
    <!-- rubio -->
    <g transform="translate(430.52057 424.169829)scale(0.07 -0.07)">
     <use xlink:href="#DejaVuSans-72"/>
     <use x="41.113281" xlink:href="#DejaVuSans-75"/>
     <use x="104.492188" xlink:href="#DejaVuSans-62"/>
     <use x="167.96875" xlink:href="#DejaVuSans-69"/>
     <use x="195.751953" xlink:href="#DejaVuSans-6f"/>
    </g>
   </g>
   <g id="text_41">
    <!-- lion -->
    <g transform="translate(430.262476 449.54151)scale(0.07 -0.07)">
     <use xlink:href="#DejaVuSans-6c"/>
     <use x="27.783203" xlink:href="#DejaVuSans-69"/>
     <use x="55.566406" xlink:href="#DejaVuSans-6f"/>
     <use x="116.748047" xlink:href="#DejaVuSans-6e"/>
    </g>
   </g>
   <g id="text_42">
    <!-- marco -->
    <g transform="translate(263.861939 339.660112)scale(0.07 -0.07)">
     <use xlink:href="#DejaVuSans-6d"/>
     <use x="97.412109" xlink:href="#DejaVuSans-61"/>
     <use x="158.691406" xlink:href="#DejaVuSans-72"/>
     <use x="199.773438" xlink:href="#DejaVuSans-63"/>
     <use x="254.753906" xlink:href="#DejaVuSans-6f"/>
    </g>
   </g>
   <g id="text_43">
    <!-- ted -->
    <g transform="translate(378.960708 440.340711)scale(0.07 -0.07)">
     <use xlink:href="#DejaVuSans-74"/>
     <use x="39.208984" xlink:href="#DejaVuSans-65"/>
     <use x="100.732422" xlink:href="#DejaVuSans-64"/>
    </g>
   </g>
   <g id="text_44">
    <!-- dr -->
    <g transform="translate(420.79444 436.134199)scale(0.07 -0.07)">
     <use xlink:href="#DejaVuSans-64"/>
     <use x="63.476562" xlink:href="#DejaVuSans-72"/>
    </g>
   </g>
   <g id="text_45">
    <!-- tpp -->
    <defs>
     <path d="M 18.109375 8.203125 
L 18.109375 -20.796875 
L 9.078125 -20.796875 
L 9.078125 54.6875 
L 18.109375 54.6875 
L 18.109375 46.390625 
Q 20.953125 51.265625 25.265625 53.625 
Q 29.59375 56 35.59375 56 
Q 45.5625 56 51.78125 48.09375 
Q 58.015625 40.1875 58.015625 27.296875 
Q 58.015625 14.40625 51.78125 6.484375 
Q 45.5625 -1.421875 35.59375 -1.421875 
Q 29.59375 -1.421875 25.265625 0.953125 
Q 20.953125 3.328125 18.109375 8.203125 
M 48.6875 27.296875 
Q 48.6875 37.203125 44.609375 42.84375 
Q 40.53125 48.484375 33.40625 48.484375 
Q 26.265625 48.484375 22.1875 42.84375 
Q 18.109375 37.203125 18.109375 27.296875 
Q 18.109375 17.390625 22.1875 11.75 
Q 26.265625 6.109375 33.40625 6.109375 
Q 40.53125 6.109375 44.609375 11.75 
Q 48.6875 17.390625 48.6875 27.296875 
" id="DejaVuSans-70"/>
    </defs>
    <g transform="translate(396.716732 417.8619)scale(0.07 -0.07)">
     <use xlink:href="#DejaVuSans-74"/>
     <use x="39.208984" xlink:href="#DejaVuSans-70"/>
     <use x="102.685547" xlink:href="#DejaVuSans-70"/>
    </g>
   </g>
   <g id="text_46">
    <!-- sessions -->
    <g transform="translate(421.454513 495.124159)scale(0.07 -0.07)">
     <use xlink:href="#DejaVuSans-73"/>
     <use x="52.099609" xlink:href="#DejaVuSans-65"/>
     <use x="113.623047" xlink:href="#DejaVuSans-73"/>
     <use x="165.722656" xlink:href="#DejaVuSans-73"/>
     <use x="217.822266" xlink:href="#DejaVuSans-69"/>
     <use x="245.605469" xlink:href="#DejaVuSans-6f"/>
     <use x="306.787109" xlink:href="#DejaVuSans-6e"/>
     <use x="370.166016" xlink:href="#DejaVuSans-73"/>
    </g>
   </g>
   <g id="text_47">
    <!-- carl -->
    <g transform="translate(404.276141 465.852981)scale(0.07 -0.07)">
     <use xlink:href="#DejaVuSans-63"/>
     <use x="54.980469" xlink:href="#DejaVuSans-61"/>
     <use x="116.259766" xlink:href="#DejaVuSans-72"/>
     <use x="157.373047" xlink:href="#DejaVuSans-6c"/>
    </g>
   </g>
   <g id="text_48">
    <!-- senator -->
    <g transform="translate(412.855808 482.224015)scale(0.07 -0.07)">
     <use xlink:href="#DejaVuSans-73"/>
     <use x="52.099609" xlink:href="#DejaVuSans-65"/>
     <use x="113.623047" xlink:href="#DejaVuSans-6e"/>
     <use x="177.001953" xlink:href="#DejaVuSans-61"/>
     <use x="238.28125" xlink:href="#DejaVuSans-74"/>
     <use x="277.490234" xlink:href="#DejaVuSans-6f"/>
     <use x="338.671875" xlink:href="#DejaVuSans-72"/>
    </g>
   </g>
   <g id="text_49">
    <!-- quit -->
    <defs>
     <path d="M 14.796875 27.296875 
Q 14.796875 17.390625 18.875 11.75 
Q 22.953125 6.109375 30.078125 6.109375 
Q 37.203125 6.109375 41.296875 11.75 
Q 45.40625 17.390625 45.40625 27.296875 
Q 45.40625 37.203125 41.296875 42.84375 
Q 37.203125 48.484375 30.078125 48.484375 
Q 22.953125 48.484375 18.875 42.84375 
Q 14.796875 37.203125 14.796875 27.296875 
M 45.40625 8.203125 
Q 42.578125 3.328125 38.25 0.953125 
Q 33.9375 -1.421875 27.875 -1.421875 
Q 17.96875 -1.421875 11.734375 6.484375 
Q 5.515625 14.40625 5.515625 27.296875 
Q 5.515625 40.1875 11.734375 48.09375 
Q 17.96875 56 27.875 56 
Q 33.9375 56 38.25 53.625 
Q 42.578125 51.265625 45.40625 46.390625 
L 45.40625 54.6875 
L 54.390625 54.6875 
L 54.390625 -20.796875 
L 45.40625 -20.796875 
z
" id="DejaVuSans-71"/>
    </defs>
    <g transform="translate(408.392618 449.132901)scale(0.07 -0.07)">
     <use xlink:href="#DejaVuSans-71"/>
     <use x="63.476562" xlink:href="#DejaVuSans-75"/>
     <use x="126.855469" xlink:href="#DejaVuSans-69"/>
     <use x="154.638672" xlink:href="#DejaVuSans-74"/>
    </g>
   </g>
   <g id="text_50">
    <!-- f -->
    <g transform="translate(425.467342 408.126458)scale(0.07 -0.07)">
     <use xlink:href="#DejaVuSans-66"/>
    </g>
   </g>
   <g id="text_51">
    <!-- carson -->
    <g transform="translate(421.550644 469.005651)scale(0.07 -0.07)">
     <use xlink:href="#DejaVuSans-63"/>
     <use x="54.980469" xlink:href="#DejaVuSans-61"/>
     <use x="116.259766" xlink:href="#DejaVuSans-72"/>
     <use x="157.373047" xlink:href="#DejaVuSans-73"/>
     <use x="209.472656" xlink:href="#DejaVuSans-6f"/>
     <use x="270.654297" xlink:href="#DejaVuSans-6e"/>
    </g>
   </g>
   <g id="text_52">
    <!-- ben -->
    <g transform="translate(383.632579 495.815539)scale(0.07 -0.07)">
     <use xlink:href="#DejaVuSans-62"/>
     <use x="63.476562" xlink:href="#DejaVuSans-65"/>
     <use x="125" xlink:href="#DejaVuSans-6e"/>
    </g>
   </g>
   <g id="text_53">
    <!-- race -->
    <g transform="translate(262.423025 395.031285)scale(0.07 -0.07)">
     <use xlink:href="#DejaVuSans-72"/>
     <use x="41.113281" xlink:href="#DejaVuSans-61"/>
     <use x="102.392578" xlink:href="#DejaVuSans-63"/>
     <use x="157.373047" xlink:href="#DejaVuSans-65"/>
    </g>
   </g>
   <g id="text_54">
    <!-- cruz -->
    <defs>
     <path d="M 5.515625 54.6875 
L 48.1875 54.6875 
L 48.1875 46.484375 
L 14.40625 7.171875 
L 48.1875 7.171875 
L 48.1875 0 
L 4.296875 0 
L 4.296875 8.203125 
L 38.09375 47.515625 
L 5.515625 47.515625 
z
" id="DejaVuSans-7a"/>
    </defs>
    <g transform="translate(388.455156 486.547406)scale(0.07 -0.07)">
     <use xlink:href="#DejaVuSans-63"/>
     <use x="54.980469" xlink:href="#DejaVuSans-72"/>
     <use x="96.09375" xlink:href="#DejaVuSans-75"/>
     <use x="159.472656" xlink:href="#DejaVuSans-7a"/>
    </g>
   </g>
   <g id="text_55">
    <!-- bush -->
    <g transform="translate(406.845917 410.68675)scale(0.07 -0.07)">
     <use xlink:href="#DejaVuSans-62"/>
     <use x="63.476562" xlink:href="#DejaVuSans-75"/>
     <use x="126.855469" xlink:href="#DejaVuSans-73"/>
     <use x="178.955078" xlink:href="#DejaVuSans-68"/>
    </g>
   </g>
   <g id="text_56">
    <!-- li -->
    <g transform="translate(380.684237 371.294144)scale(0.07 -0.07)">
     <use xlink:href="#DejaVuSans-6c"/>
     <use x="27.783203" xlink:href="#DejaVuSans-69"/>
    </g>
   </g>
   <g id="text_57">
    <!-- sessions -->
    <g transform="translate(417.125049 490.597719)scale(0.07 -0.07)">
     <use xlink:href="#DejaVuSans-73"/>
     <use x="52.099609" xlink:href="#DejaVuSans-65"/>
     <use x="113.623047" xlink:href="#DejaVuSans-73"/>
     <use x="165.722656" xlink:href="#DejaVuSans-73"/>
     <use x="217.822266" xlink:href="#DejaVuSans-69"/>
     <use x="245.605469" xlink:href="#DejaVuSans-6f"/>
     <use x="306.787109" xlink:href="#DejaVuSans-6e"/>
     <use x="370.166016" xlink:href="#DejaVuSans-73"/>
    </g>
   </g>
   <g id="text_58">
    <!-- kelly -->
    <g transform="translate(421.710479 446.048561)scale(0.07 -0.07)">
     <use xlink:href="#DejaVuSans-6b"/>
     <use x="57.863281" xlink:href="#DejaVuSans-65"/>
     <use x="119.386719" xlink:href="#DejaVuSans-6c"/>
     <use x="147.169922" xlink:href="#DejaVuSans-6c"/>
     <use x="174.953125" xlink:href="#DejaVuSans-79"/>
    </g>
   </g>
   <g id="text_59">
    <!-- ben -->
    <g transform="translate(413.256048 466.430235)scale(0.07 -0.07)">
     <use xlink:href="#DejaVuSans-62"/>
     <use x="63.476562" xlink:href="#DejaVuSans-65"/>
     <use x="125" xlink:href="#DejaVuSans-6e"/>
    </g>
   </g>
   <g id="text_60">
    <!-- dr. -->
    <g transform="translate(461.240996 242.988883)scale(0.07 -0.07)">
     <use xlink:href="#DejaVuSans-64"/>
     <use x="63.476562" xlink:href="#DejaVuSans-72"/>
     <use x="104.449219" xlink:href="#DejaVuSans-2e"/>
    </g>
   </g>
   <g id="text_61">
    <!-- carson -->
    <g transform="translate(260.061337 735.420553)scale(0.07 -0.07)">
     <use xlink:href="#DejaVuSans-63"/>
     <use x="54.980469" xlink:href="#DejaVuSans-61"/>
     <use x="116.259766" xlink:href="#DejaVuSans-72"/>
     <use x="157.373047" xlink:href="#DejaVuSans-73"/>
     <use x="209.472656" xlink:href="#DejaVuSans-6f"/>
     <use x="270.654297" xlink:href="#DejaVuSans-6e"/>
    </g>
   </g>
   <g id="text_62">
    <!-- ted -->
    <g transform="translate(391.263541 290.552235)scale(0.07 -0.07)">
     <use xlink:href="#DejaVuSans-74"/>
     <use x="39.208984" xlink:href="#DejaVuSans-65"/>
     <use x="100.732422" xlink:href="#DejaVuSans-64"/>
    </g>
   </g>
   <g id="text_63">
    <!-- johnson -->
    <g transform="translate(396.120948 529.124024)scale(0.07 -0.07)">
     <use xlink:href="#DejaVuSans-6a"/>
     <use x="27.783203" xlink:href="#DejaVuSans-6f"/>
     <use x="88.964844" xlink:href="#DejaVuSans-68"/>
     <use x="152.34375" xlink:href="#DejaVuSans-6e"/>
     <use x="215.722656" xlink:href="#DejaVuSans-73"/>
     <use x="267.822266" xlink:href="#DejaVuSans-6f"/>
     <use x="329.003906" xlink:href="#DejaVuSans-6e"/>
    </g>
   </g>
   <g id="text_64">
    <!-- dr. -->
    <g transform="translate(347.242576 677.739877)scale(0.07 -0.07)">
     <use xlink:href="#DejaVuSans-64"/>
     <use x="63.476562" xlink:href="#DejaVuSans-72"/>
     <use x="104.449219" xlink:href="#DejaVuSans-2e"/>
    </g>
   </g>
   <g id="text_65">
    <!-- john -->
    <g transform="translate(454.234157 498.399424)scale(0.07 -0.07)">
     <use xlink:href="#DejaVuSans-6a"/>
     <use x="27.783203" xlink:href="#DejaVuSans-6f"/>
     <use x="88.964844" xlink:href="#DejaVuSans-68"/>
     <use x="152.34375" xlink:href="#DejaVuSans-6e"/>
    </g>
   </g>
   <g id="text_66">
    <!-- carson -->
    <g transform="translate(427.068874 468.424147)scale(0.07 -0.07)">
     <use xlink:href="#DejaVuSans-63"/>
     <use x="54.980469" xlink:href="#DejaVuSans-61"/>
     <use x="116.259766" xlink:href="#DejaVuSans-72"/>
     <use x="157.373047" xlink:href="#DejaVuSans-73"/>
     <use x="209.472656" xlink:href="#DejaVuSans-6f"/>
     <use x="270.654297" xlink:href="#DejaVuSans-6e"/>
    </g>
   </g>
   <g id="text_67">
    <!-- ben -->
    <g transform="translate(420.369693 459.558589)scale(0.07 -0.07)">
     <use xlink:href="#DejaVuSans-62"/>
     <use x="63.476562" xlink:href="#DejaVuSans-65"/>
     <use x="125" xlink:href="#DejaVuSans-6e"/>
    </g>
   </g>
   <g id="text_68">
    <!-- john -->
    <g transform="translate(434.352578 383.441106)scale(0.07 -0.07)">
     <use xlink:href="#DejaVuSans-6a"/>
     <use x="27.783203" xlink:href="#DejaVuSans-6f"/>
     <use x="88.964844" xlink:href="#DejaVuSans-68"/>
     <use x="152.34375" xlink:href="#DejaVuSans-6e"/>
    </g>
   </g>
   <g id="text_69">
    <!-- mit -->
    <g transform="translate(372.146303 417.456036)scale(0.07 -0.07)">
     <use xlink:href="#DejaVuSans-6d"/>
     <use x="97.412109" xlink:href="#DejaVuSans-69"/>
     <use x="125.195312" xlink:href="#DejaVuSans-74"/>
    </g>
   </g>
   <g id="text_70">
    <!-- mitt -->
    <g transform="translate(384.802146 416.966616)scale(0.07 -0.07)">
     <use xlink:href="#DejaVuSans-6d"/>
     <use x="97.412109" xlink:href="#DejaVuSans-69"/>
     <use x="125.195312" xlink:href="#DejaVuSans-74"/>
     <use x="164.404297" xlink:href="#DejaVuSans-74"/>
    </g>
   </g>
   <g id="text_71">
    <!-- he's -->
    <defs>
     <path d="M 17.921875 72.90625 
L 17.921875 45.796875 
L 9.625 45.796875 
L 9.625 72.90625 
z
" id="DejaVuSans-27"/>
    </defs>
    <g transform="translate(393.865167 458.517736)scale(0.07 -0.07)">
     <use xlink:href="#DejaVuSans-68"/>
     <use x="63.378906" xlink:href="#DejaVuSans-65"/>
     <use x="124.902344" xlink:href="#DejaVuSans-27"/>
     <use x="152.392578" xlink:href="#DejaVuSans-73"/>
    </g>
   </g>
   <g id="text_72">
    <!-- mccain -->
    <g transform="translate(388.717918 439.044452)scale(0.07 -0.07)">
     <use xlink:href="#DejaVuSans-6d"/>
     <use x="97.412109" xlink:href="#DejaVuSans-63"/>
     <use x="152.392578" xlink:href="#DejaVuSans-63"/>
     <use x="207.373047" xlink:href="#DejaVuSans-61"/>
     <use x="268.652344" xlink:href="#DejaVuSans-69"/>
     <use x="296.435547" xlink:href="#DejaVuSans-6e"/>
    </g>
   </g>
   <g id="text_73">
    <!-- he -->
    <g transform="translate(334.358234 465.085483)scale(0.07 -0.07)">
     <use xlink:href="#DejaVuSans-68"/>
     <use x="63.378906" xlink:href="#DejaVuSans-65"/>
    </g>
   </g>
   <g id="text_74">
    <!-- sessions -->
    <g transform="translate(417.125049 490.597719)scale(0.07 -0.07)">
     <use xlink:href="#DejaVuSans-73"/>
     <use x="52.099609" xlink:href="#DejaVuSans-65"/>
     <use x="113.623047" xlink:href="#DejaVuSans-73"/>
     <use x="165.722656" xlink:href="#DejaVuSans-73"/>
     <use x="217.822266" xlink:href="#DejaVuSans-69"/>
     <use x="245.605469" xlink:href="#DejaVuSans-6f"/>
     <use x="306.787109" xlink:href="#DejaVuSans-6e"/>
     <use x="370.166016" xlink:href="#DejaVuSans-73"/>
    </g>
   </g>
   <g id="text_75">
    <!-- marco -->
    <g transform="translate(396.24398 394.592713)scale(0.07 -0.07)">
     <use xlink:href="#DejaVuSans-6d"/>
     <use x="97.412109" xlink:href="#DejaVuSans-61"/>
     <use x="158.691406" xlink:href="#DejaVuSans-72"/>
     <use x="199.773438" xlink:href="#DejaVuSans-63"/>
     <use x="254.753906" xlink:href="#DejaVuSans-6f"/>
    </g>
   </g>
   <g id="text_76">
    <!-- lyin -->
    <g transform="translate(370.751506 439.887618)scale(0.07 -0.07)">
     <use xlink:href="#DejaVuSans-6c"/>
     <use x="27.783203" xlink:href="#DejaVuSans-79"/>
     <use x="86.962891" xlink:href="#DejaVuSans-69"/>
     <use x="114.746094" xlink:href="#DejaVuSans-6e"/>
    </g>
   </g>
   <g id="text_77">
    <!-- Cluster 4 - 76 Items -->
    <defs>
     <path d="M 64.40625 67.28125 
L 64.40625 56.890625 
Q 59.421875 61.53125 53.78125 63.8125 
Q 48.140625 66.109375 41.796875 66.109375 
Q 29.296875 66.109375 22.65625 58.46875 
Q 16.015625 50.828125 16.015625 36.375 
Q 16.015625 21.96875 22.65625 14.328125 
Q 29.296875 6.6875 41.796875 6.6875 
Q 48.140625 6.6875 53.78125 8.984375 
Q 59.421875 11.28125 64.40625 15.921875 
L 64.40625 5.609375 
Q 59.234375 2.09375 53.4375 0.328125 
Q 47.65625 -1.421875 41.21875 -1.421875 
Q 24.65625 -1.421875 15.125 8.703125 
Q 5.609375 18.84375 5.609375 36.375 
Q 5.609375 53.953125 15.125 64.078125 
Q 24.65625 74.21875 41.21875 74.21875 
Q 47.75 74.21875 53.53125 72.484375 
Q 59.328125 70.75 64.40625 67.28125 
" id="DejaVuSans-43"/>
     <path id="DejaVuSans-20"/>
     <path d="M 37.796875 64.3125 
L 12.890625 25.390625 
L 37.796875 25.390625 
z
M 35.203125 72.90625 
L 47.609375 72.90625 
L 47.609375 25.390625 
L 58.015625 25.390625 
L 58.015625 17.1875 
L 47.609375 17.1875 
L 47.609375 0 
L 37.796875 0 
L 37.796875 17.1875 
L 4.890625 17.1875 
L 4.890625 26.703125 
z
" id="DejaVuSans-34"/>
     <path d="M 4.890625 31.390625 
L 31.203125 31.390625 
L 31.203125 23.390625 
L 4.890625 23.390625 
z
" id="DejaVuSans-2d"/>
     <path d="M 8.203125 72.90625 
L 55.078125 72.90625 
L 55.078125 68.703125 
L 28.609375 0 
L 18.3125 0 
L 43.21875 64.59375 
L 8.203125 64.59375 
z
" id="DejaVuSans-37"/>
     <path d="M 33.015625 40.375 
Q 26.375 40.375 22.484375 35.828125 
Q 18.609375 31.296875 18.609375 23.390625 
Q 18.609375 15.53125 22.484375 10.953125 
Q 26.375 6.390625 33.015625 6.390625 
Q 39.65625 6.390625 43.53125 10.953125 
Q 47.40625 15.53125 47.40625 23.390625 
Q 47.40625 31.296875 43.53125 35.828125 
Q 39.65625 40.375 33.015625 40.375 
M 52.59375 71.296875 
L 52.59375 62.3125 
Q 48.875 64.0625 45.09375 64.984375 
Q 41.3125 65.921875 37.59375 65.921875 
Q 27.828125 65.921875 22.671875 59.328125 
Q 17.53125 52.734375 16.796875 39.40625 
Q 19.671875 43.65625 24.015625 45.921875 
Q 28.375 48.1875 33.59375 48.1875 
Q 44.578125 48.1875 50.953125 41.515625 
Q 57.328125 34.859375 57.328125 23.390625 
Q 57.328125 12.15625 50.6875 5.359375 
Q 44.046875 -1.421875 33.015625 -1.421875 
Q 20.359375 -1.421875 13.671875 8.265625 
Q 6.984375 17.96875 6.984375 36.375 
Q 6.984375 53.65625 15.1875 63.9375 
Q 23.390625 74.21875 37.203125 74.21875 
Q 40.921875 74.21875 44.703125 73.484375 
Q 48.484375 72.75 52.59375 71.296875 
" id="DejaVuSans-36"/>
     <path d="M 9.8125 72.90625 
L 19.671875 72.90625 
L 19.671875 0 
L 9.8125 0 
z
" id="DejaVuSans-49"/>
    </defs>
    <g transform="translate(531.075938 97.68)scale(0.12 -0.12)">
     <use xlink:href="#DejaVuSans-43"/>
     <use x="69.824219" xlink:href="#DejaVuSans-6c"/>
     <use x="97.607422" xlink:href="#DejaVuSans-75"/>
     <use x="160.986328" xlink:href="#DejaVuSans-73"/>
     <use x="213.085938" xlink:href="#DejaVuSans-74"/>
     <use x="252.294922" xlink:href="#DejaVuSans-65"/>
     <use x="313.818359" xlink:href="#DejaVuSans-72"/>
     <use x="354.931641" xlink:href="#DejaVuSans-20"/>
     <use x="386.71875" xlink:href="#DejaVuSans-34"/>
     <use x="450.341797" xlink:href="#DejaVuSans-20"/>
     <use x="482.128906" xlink:href="#DejaVuSans-2d"/>
     <use x="518.212891" xlink:href="#DejaVuSans-20"/>
     <use x="550" xlink:href="#DejaVuSans-37"/>
     <use x="613.623047" xlink:href="#DejaVuSans-36"/>
     <use x="677.246094" xlink:href="#DejaVuSans-20"/>
     <use x="709.033203" xlink:href="#DejaVuSans-49"/>
     <use x="738.525391" xlink:href="#DejaVuSans-74"/>
     <use x="777.734375" xlink:href="#DejaVuSans-65"/>
     <use x="839.257812" xlink:href="#DejaVuSans-6d"/>
     <use x="936.669922" xlink:href="#DejaVuSans-73"/>
    </g>
   </g>
  </g>
 </g>
</svg>
