<?xml version="1.0" encoding="utf-8" standalone="no"?>
<!DOCTYPE svg PUBLIC "-//W3C//DTD SVG 1.1//EN"
  "http://www.w3.org/Graphics/SVG/1.1/DTD/svg11.dtd">
<!-- Created with matplotlib (http://matplotlib.org/) -->
<svg height="864pt" version="1.1" viewBox="0 0 1152 864" width="1152pt" xmlns="http://www.w3.org/2000/svg" xmlns:xlink="http://www.w3.org/1999/xlink">
 <defs>
  <style type="text/css">
*{stroke-linecap:butt;stroke-linejoin:round;}
  </style>
 </defs>
 <g id="figure_1">
  <g id="patch_1">
   <path d="M 0 864 
L 1152 864 
L 1152 0 
L 0 0 
z
" style="fill:#ffffff;"/>
  </g>
  <g id="axes_1">
   <g id="text_1">
    <!-- sanctuary -->
    <defs>
     <path d="M 44.28125 53.078125 
L 44.28125 44.578125 
Q 40.484375 46.53125 36.375 47.5 
Q 32.28125 48.484375 27.875 48.484375 
Q 21.1875 48.484375 17.84375 46.4375 
Q 14.5 44.390625 14.5 40.28125 
Q 14.5 37.15625 16.890625 35.375 
Q 19.28125 33.59375 26.515625 31.984375 
L 29.59375 31.296875 
Q 39.15625 29.25 43.1875 25.515625 
Q 47.21875 21.78125 47.21875 15.09375 
Q 47.21875 7.46875 41.1875 3.015625 
Q 35.15625 -1.421875 24.609375 -1.421875 
Q 20.21875 -1.421875 15.453125 -0.5625 
Q 10.6875 0.296875 5.421875 2 
L 5.421875 11.28125 
Q 10.40625 8.6875 15.234375 7.390625 
Q 20.0625 6.109375 24.8125 6.109375 
Q 31.15625 6.109375 34.5625 8.28125 
Q 37.984375 10.453125 37.984375 14.40625 
Q 37.984375 18.0625 35.515625 20.015625 
Q 33.0625 21.96875 24.703125 23.78125 
L 21.578125 24.515625 
Q 13.234375 26.265625 9.515625 29.90625 
Q 5.8125 33.546875 5.8125 39.890625 
Q 5.8125 47.609375 11.28125 51.796875 
Q 16.75 56 26.8125 56 
Q 31.78125 56 36.171875 55.265625 
Q 40.578125 54.546875 44.28125 53.078125 
" id="DejaVuSans-73"/>
     <path d="M 34.28125 27.484375 
Q 23.390625 27.484375 19.1875 25 
Q 14.984375 22.515625 14.984375 16.5 
Q 14.984375 11.71875 18.140625 8.90625 
Q 21.296875 6.109375 26.703125 6.109375 
Q 34.1875 6.109375 38.703125 11.40625 
Q 43.21875 16.703125 43.21875 25.484375 
L 43.21875 27.484375 
z
M 52.203125 31.203125 
L 52.203125 0 
L 43.21875 0 
L 43.21875 8.296875 
Q 40.140625 3.328125 35.546875 0.953125 
Q 30.953125 -1.421875 24.3125 -1.421875 
Q 15.921875 -1.421875 10.953125 3.296875 
Q 6 8.015625 6 15.921875 
Q 6 25.140625 12.171875 29.828125 
Q 18.359375 34.515625 30.609375 34.515625 
L 43.21875 34.515625 
L 43.21875 35.40625 
Q 43.21875 41.609375 39.140625 45 
Q 35.0625 48.390625 27.6875 48.390625 
Q 23 48.390625 18.546875 47.265625 
Q 14.109375 46.140625 10.015625 43.890625 
L 10.015625 52.203125 
Q 14.9375 54.109375 19.578125 55.046875 
Q 24.21875 56 28.609375 56 
Q 40.484375 56 46.34375 49.84375 
Q 52.203125 43.703125 52.203125 31.203125 
" id="DejaVuSans-61"/>
     <path d="M 54.890625 33.015625 
L 54.890625 0 
L 45.90625 0 
L 45.90625 32.71875 
Q 45.90625 40.484375 42.875 44.328125 
Q 39.84375 48.1875 33.796875 48.1875 
Q 26.515625 48.1875 22.3125 43.546875 
Q 18.109375 38.921875 18.109375 30.90625 
L 18.109375 0 
L 9.078125 0 
L 9.078125 54.6875 
L 18.109375 54.6875 
L 18.109375 46.1875 
Q 21.34375 51.125 25.703125 53.5625 
Q 30.078125 56 35.796875 56 
Q 45.21875 56 50.046875 50.171875 
Q 54.890625 44.34375 54.890625 33.015625 
" id="DejaVuSans-6e"/>
     <path d="M 48.78125 52.59375 
L 48.78125 44.1875 
Q 44.96875 46.296875 41.140625 47.34375 
Q 37.3125 48.390625 33.40625 48.390625 
Q 24.65625 48.390625 19.8125 42.84375 
Q 14.984375 37.3125 14.984375 27.296875 
Q 14.984375 17.28125 19.8125 11.734375 
Q 24.65625 6.203125 33.40625 6.203125 
Q 37.3125 6.203125 41.140625 7.25 
Q 44.96875 8.296875 48.78125 10.40625 
L 48.78125 2.09375 
Q 45.015625 0.34375 40.984375 -0.53125 
Q 36.96875 -1.421875 32.421875 -1.421875 
Q 20.0625 -1.421875 12.78125 6.34375 
Q 5.515625 14.109375 5.515625 27.296875 
Q 5.515625 40.671875 12.859375 48.328125 
Q 20.21875 56 33.015625 56 
Q 37.15625 56 41.109375 55.140625 
Q 45.0625 54.296875 48.78125 52.59375 
" id="DejaVuSans-63"/>
     <path d="M 18.3125 70.21875 
L 18.3125 54.6875 
L 36.8125 54.6875 
L 36.8125 47.703125 
L 18.3125 47.703125 
L 18.3125 18.015625 
Q 18.3125 11.328125 20.140625 9.421875 
Q 21.96875 7.515625 27.59375 7.515625 
L 36.8125 7.515625 
L 36.8125 0 
L 27.59375 0 
Q 17.1875 0 13.234375 3.875 
Q 9.28125 7.765625 9.28125 18.015625 
L 9.28125 47.703125 
L 2.6875 47.703125 
L 2.6875 54.6875 
L 9.28125 54.6875 
L 9.28125 70.21875 
z
" id="DejaVuSans-74"/>
     <path d="M 8.5 21.578125 
L 8.5 54.6875 
L 17.484375 54.6875 
L 17.484375 21.921875 
Q 17.484375 14.15625 20.5 10.265625 
Q 23.53125 6.390625 29.59375 6.390625 
Q 36.859375 6.390625 41.078125 11.03125 
Q 45.3125 15.671875 45.3125 23.6875 
L 45.3125 54.6875 
L 54.296875 54.6875 
L 54.296875 0 
L 45.3125 0 
L 45.3125 8.40625 
Q 42.046875 3.421875 37.71875 1 
Q 33.40625 -1.421875 27.6875 -1.421875 
Q 18.265625 -1.421875 13.375 4.4375 
Q 8.5 10.296875 8.5 21.578125 
M 31.109375 56 
z
" id="DejaVuSans-75"/>
     <path d="M 41.109375 46.296875 
Q 39.59375 47.171875 37.8125 47.578125 
Q 36.03125 48 33.890625 48 
Q 26.265625 48 22.1875 43.046875 
Q 18.109375 38.09375 18.109375 28.8125 
L 18.109375 0 
L 9.078125 0 
L 9.078125 54.6875 
L 18.109375 54.6875 
L 18.109375 46.1875 
Q 20.953125 51.171875 25.484375 53.578125 
Q 30.03125 56 36.53125 56 
Q 37.453125 56 38.578125 55.875 
Q 39.703125 55.765625 41.0625 55.515625 
z
" id="DejaVuSans-72"/>
     <path d="M 32.171875 -5.078125 
Q 28.375 -14.84375 24.75 -17.8125 
Q 21.140625 -20.796875 15.09375 -20.796875 
L 7.90625 -20.796875 
L 7.90625 -13.28125 
L 13.1875 -13.28125 
Q 16.890625 -13.28125 18.9375 -11.515625 
Q 21 -9.765625 23.484375 -3.21875 
L 25.09375 0.875 
L 2.984375 54.6875 
L 12.5 54.6875 
L 29.59375 11.921875 
L 46.6875 54.6875 
L 56.203125 54.6875 
z
" id="DejaVuSans-79"/>
    </defs>
    <g transform="translate(490.721809 469.503795)scale(0.07 -0.07)">
     <use xlink:href="#DejaVuSans-73"/>
     <use x="52.099609" xlink:href="#DejaVuSans-61"/>
     <use x="113.378906" xlink:href="#DejaVuSans-6e"/>
     <use x="176.757812" xlink:href="#DejaVuSans-63"/>
     <use x="231.738281" xlink:href="#DejaVuSans-74"/>
     <use x="270.947266" xlink:href="#DejaVuSans-75"/>
     <use x="334.326172" xlink:href="#DejaVuSans-61"/>
     <use x="395.605469" xlink:href="#DejaVuSans-72"/>
     <use x="436.71875" xlink:href="#DejaVuSans-79"/>
    </g>
   </g>
   <g id="text_2">
    <!-- alien -->
    <defs>
     <path d="M 9.421875 75.984375 
L 18.40625 75.984375 
L 18.40625 0 
L 9.421875 0 
z
" id="DejaVuSans-6c"/>
     <path d="M 9.421875 54.6875 
L 18.40625 54.6875 
L 18.40625 0 
L 9.421875 0 
z
M 9.421875 75.984375 
L 18.40625 75.984375 
L 18.40625 64.59375 
L 9.421875 64.59375 
z
" id="DejaVuSans-69"/>
     <path d="M 56.203125 29.59375 
L 56.203125 25.203125 
L 14.890625 25.203125 
Q 15.484375 15.921875 20.484375 11.0625 
Q 25.484375 6.203125 34.421875 6.203125 
Q 39.59375 6.203125 44.453125 7.46875 
Q 49.3125 8.734375 54.109375 11.28125 
L 54.109375 2.78125 
Q 49.265625 0.734375 44.1875 -0.34375 
Q 39.109375 -1.421875 33.890625 -1.421875 
Q 20.796875 -1.421875 13.15625 6.1875 
Q 5.515625 13.8125 5.515625 26.8125 
Q 5.515625 40.234375 12.765625 48.109375 
Q 20.015625 56 32.328125 56 
Q 43.359375 56 49.78125 48.890625 
Q 56.203125 41.796875 56.203125 29.59375 
M 47.21875 32.234375 
Q 47.125 39.59375 43.09375 43.984375 
Q 39.0625 48.390625 32.421875 48.390625 
Q 24.90625 48.390625 20.390625 44.140625 
Q 15.875 39.890625 15.1875 32.171875 
z
" id="DejaVuSans-65"/>
    </defs>
    <g transform="translate(438.262009 288.898054)scale(0.07 -0.07)">
     <use xlink:href="#DejaVuSans-61"/>
     <use x="61.279297" xlink:href="#DejaVuSans-6c"/>
     <use x="89.0625" xlink:href="#DejaVuSans-69"/>
     <use x="116.845703" xlink:href="#DejaVuSans-65"/>
     <use x="178.369141" xlink:href="#DejaVuSans-6e"/>
    </g>
   </g>
   <g id="text_3">
    <!-- illegal -->
    <defs>
     <path d="M 45.40625 27.984375 
Q 45.40625 37.75 41.375 43.109375 
Q 37.359375 48.484375 30.078125 48.484375 
Q 22.859375 48.484375 18.828125 43.109375 
Q 14.796875 37.75 14.796875 27.984375 
Q 14.796875 18.265625 18.828125 12.890625 
Q 22.859375 7.515625 30.078125 7.515625 
Q 37.359375 7.515625 41.375 12.890625 
Q 45.40625 18.265625 45.40625 27.984375 
M 54.390625 6.78125 
Q 54.390625 -7.171875 48.1875 -13.984375 
Q 42 -20.796875 29.203125 -20.796875 
Q 24.46875 -20.796875 20.265625 -20.09375 
Q 16.0625 -19.390625 12.109375 -17.921875 
L 12.109375 -9.1875 
Q 16.0625 -11.328125 19.921875 -12.34375 
Q 23.78125 -13.375 27.78125 -13.375 
Q 36.625 -13.375 41.015625 -8.765625 
Q 45.40625 -4.15625 45.40625 5.171875 
L 45.40625 9.625 
Q 42.625 4.78125 38.28125 2.390625 
Q 33.9375 0 27.875 0 
Q 17.828125 0 11.671875 7.65625 
Q 5.515625 15.328125 5.515625 27.984375 
Q 5.515625 40.671875 11.671875 48.328125 
Q 17.828125 56 27.875 56 
Q 33.9375 56 38.28125 53.609375 
Q 42.625 51.21875 45.40625 46.390625 
L 45.40625 54.6875 
L 54.390625 54.6875 
z
" id="DejaVuSans-67"/>
    </defs>
    <g transform="translate(513.962639 354.673168)scale(0.07 -0.07)">
     <use xlink:href="#DejaVuSans-69"/>
     <use x="27.783203" xlink:href="#DejaVuSans-6c"/>
     <use x="55.566406" xlink:href="#DejaVuSans-6c"/>
     <use x="83.349609" xlink:href="#DejaVuSans-65"/>
     <use x="144.873047" xlink:href="#DejaVuSans-67"/>
     <use x="208.349609" xlink:href="#DejaVuSans-61"/>
     <use x="269.628906" xlink:href="#DejaVuSans-6c"/>
    </g>
   </g>
   <g id="text_4">
    <!-- aliens -->
    <g transform="translate(433.40102 304.573589)scale(0.07 -0.07)">
     <use xlink:href="#DejaVuSans-61"/>
     <use x="61.279297" xlink:href="#DejaVuSans-6c"/>
     <use x="89.0625" xlink:href="#DejaVuSans-69"/>
     <use x="116.845703" xlink:href="#DejaVuSans-65"/>
     <use x="178.369141" xlink:href="#DejaVuSans-6e"/>
     <use x="241.748047" xlink:href="#DejaVuSans-73"/>
    </g>
   </g>
   <g id="text_5">
    <!-- deported -->
    <defs>
     <path d="M 45.40625 46.390625 
L 45.40625 75.984375 
L 54.390625 75.984375 
L 54.390625 0 
L 45.40625 0 
L 45.40625 8.203125 
Q 42.578125 3.328125 38.25 0.953125 
Q 33.9375 -1.421875 27.875 -1.421875 
Q 17.96875 -1.421875 11.734375 6.484375 
Q 5.515625 14.40625 5.515625 27.296875 
Q 5.515625 40.1875 11.734375 48.09375 
Q 17.96875 56 27.875 56 
Q 33.9375 56 38.25 53.625 
Q 42.578125 51.265625 45.40625 46.390625 
M 14.796875 27.296875 
Q 14.796875 17.390625 18.875 11.75 
Q 22.953125 6.109375 30.078125 6.109375 
Q 37.203125 6.109375 41.296875 11.75 
Q 45.40625 17.390625 45.40625 27.296875 
Q 45.40625 37.203125 41.296875 42.84375 
Q 37.203125 48.484375 30.078125 48.484375 
Q 22.953125 48.484375 18.875 42.84375 
Q 14.796875 37.203125 14.796875 27.296875 
" id="DejaVuSans-64"/>
     <path d="M 18.109375 8.203125 
L 18.109375 -20.796875 
L 9.078125 -20.796875 
L 9.078125 54.6875 
L 18.109375 54.6875 
L 18.109375 46.390625 
Q 20.953125 51.265625 25.265625 53.625 
Q 29.59375 56 35.59375 56 
Q 45.5625 56 51.78125 48.09375 
Q 58.015625 40.1875 58.015625 27.296875 
Q 58.015625 14.40625 51.78125 6.484375 
Q 45.5625 -1.421875 35.59375 -1.421875 
Q 29.59375 -1.421875 25.265625 0.953125 
Q 20.953125 3.328125 18.109375 8.203125 
M 48.6875 27.296875 
Q 48.6875 37.203125 44.609375 42.84375 
Q 40.53125 48.484375 33.40625 48.484375 
Q 26.265625 48.484375 22.1875 42.84375 
Q 18.109375 37.203125 18.109375 27.296875 
Q 18.109375 17.390625 22.1875 11.75 
Q 26.265625 6.109375 33.40625 6.109375 
Q 40.53125 6.109375 44.609375 11.75 
Q 48.6875 17.390625 48.6875 27.296875 
" id="DejaVuSans-70"/>
     <path d="M 30.609375 48.390625 
Q 23.390625 48.390625 19.1875 42.75 
Q 14.984375 37.109375 14.984375 27.296875 
Q 14.984375 17.484375 19.15625 11.84375 
Q 23.34375 6.203125 30.609375 6.203125 
Q 37.796875 6.203125 41.984375 11.859375 
Q 46.1875 17.53125 46.1875 27.296875 
Q 46.1875 37.015625 41.984375 42.703125 
Q 37.796875 48.390625 30.609375 48.390625 
M 30.609375 56 
Q 42.328125 56 49.015625 48.375 
Q 55.71875 40.765625 55.71875 27.296875 
Q 55.71875 13.875 49.015625 6.21875 
Q 42.328125 -1.421875 30.609375 -1.421875 
Q 18.84375 -1.421875 12.171875 6.21875 
Q 5.515625 13.875 5.515625 27.296875 
Q 5.515625 40.765625 12.171875 48.375 
Q 18.84375 56 30.609375 56 
" id="DejaVuSans-6f"/>
    </defs>
    <g transform="translate(402.179196 303.580317)scale(0.07 -0.07)">
     <use xlink:href="#DejaVuSans-64"/>
     <use x="63.476562" xlink:href="#DejaVuSans-65"/>
     <use x="125" xlink:href="#DejaVuSans-70"/>
     <use x="188.476562" xlink:href="#DejaVuSans-6f"/>
     <use x="249.658203" xlink:href="#DejaVuSans-72"/>
     <use x="290.771484" xlink:href="#DejaVuSans-74"/>
     <use x="329.980469" xlink:href="#DejaVuSans-65"/>
     <use x="391.503906" xlink:href="#DejaVuSans-64"/>
    </g>
   </g>
   <g id="text_6">
    <!-- radicalized -->
    <defs>
     <path d="M 5.515625 54.6875 
L 48.1875 54.6875 
L 48.1875 46.484375 
L 14.40625 7.171875 
L 48.1875 7.171875 
L 48.1875 0 
L 4.296875 0 
L 4.296875 8.203125 
L 38.09375 47.515625 
L 5.515625 47.515625 
z
" id="DejaVuSans-7a"/>
    </defs>
    <g transform="translate(400.109821 461.83048)scale(0.07 -0.07)">
     <use xlink:href="#DejaVuSans-72"/>
     <use x="41.113281" xlink:href="#DejaVuSans-61"/>
     <use x="102.392578" xlink:href="#DejaVuSans-64"/>
     <use x="165.869141" xlink:href="#DejaVuSans-69"/>
     <use x="193.652344" xlink:href="#DejaVuSans-63"/>
     <use x="248.632812" xlink:href="#DejaVuSans-61"/>
     <use x="309.912109" xlink:href="#DejaVuSans-6c"/>
     <use x="337.695312" xlink:href="#DejaVuSans-69"/>
     <use x="365.478516" xlink:href="#DejaVuSans-7a"/>
     <use x="417.96875" xlink:href="#DejaVuSans-65"/>
     <use x="479.492188" xlink:href="#DejaVuSans-64"/>
    </g>
   </g>
   <g id="text_7">
    <!-- wall -->
    <defs>
     <path d="M 4.203125 54.6875 
L 13.1875 54.6875 
L 24.421875 12.015625 
L 35.59375 54.6875 
L 46.1875 54.6875 
L 57.421875 12.015625 
L 68.609375 54.6875 
L 77.59375 54.6875 
L 63.28125 0 
L 52.6875 0 
L 40.921875 44.828125 
L 29.109375 0 
L 18.5 0 
z
" id="DejaVuSans-77"/>
    </defs>
    <g transform="translate(452.513741 552.173163)scale(0.07 -0.07)">
     <use xlink:href="#DejaVuSans-77"/>
     <use x="81.787109" xlink:href="#DejaVuSans-61"/>
     <use x="143.066406" xlink:href="#DejaVuSans-6c"/>
     <use x="170.849609" xlink:href="#DejaVuSans-6c"/>
    </g>
   </g>
   <g id="text_8">
    <!-- crimea -->
    <defs>
     <path d="M 52 44.1875 
Q 55.375 50.25 60.0625 53.125 
Q 64.75 56 71.09375 56 
Q 79.640625 56 84.28125 50.015625 
Q 88.921875 44.046875 88.921875 33.015625 
L 88.921875 0 
L 79.890625 0 
L 79.890625 32.71875 
Q 79.890625 40.578125 77.09375 44.375 
Q 74.3125 48.1875 68.609375 48.1875 
Q 61.625 48.1875 57.5625 43.546875 
Q 53.515625 38.921875 53.515625 30.90625 
L 53.515625 0 
L 44.484375 0 
L 44.484375 32.71875 
Q 44.484375 40.625 41.703125 44.40625 
Q 38.921875 48.1875 33.109375 48.1875 
Q 26.21875 48.1875 22.15625 43.53125 
Q 18.109375 38.875 18.109375 30.90625 
L 18.109375 0 
L 9.078125 0 
L 9.078125 54.6875 
L 18.109375 54.6875 
L 18.109375 46.1875 
Q 21.1875 51.21875 25.484375 53.609375 
Q 29.78125 56 35.6875 56 
Q 41.65625 56 45.828125 52.96875 
Q 50 49.953125 52 44.1875 
" id="DejaVuSans-6d"/>
    </defs>
    <g transform="translate(277.499075 488.841563)scale(0.07 -0.07)">
     <use xlink:href="#DejaVuSans-63"/>
     <use x="54.980469" xlink:href="#DejaVuSans-72"/>
     <use x="96.09375" xlink:href="#DejaVuSans-69"/>
     <use x="123.876953" xlink:href="#DejaVuSans-6d"/>
     <use x="221.289062" xlink:href="#DejaVuSans-65"/>
     <use x="282.8125" xlink:href="#DejaVuSans-61"/>
    </g>
   </g>
   <g id="text_9">
    <!-- mendoza -->
    <g transform="translate(779.082265 306.827338)scale(0.07 -0.07)">
     <use xlink:href="#DejaVuSans-6d"/>
     <use x="97.412109" xlink:href="#DejaVuSans-65"/>
     <use x="158.935547" xlink:href="#DejaVuSans-6e"/>
     <use x="222.314453" xlink:href="#DejaVuSans-64"/>
     <use x="285.791016" xlink:href="#DejaVuSans-6f"/>
     <use x="346.972656" xlink:href="#DejaVuSans-7a"/>
     <use x="399.462891" xlink:href="#DejaVuSans-61"/>
    </g>
   </g>
   <g id="text_10">
    <!-- ice -->
    <g transform="translate(395.978017 500.89308)scale(0.07 -0.07)">
     <use xlink:href="#DejaVuSans-69"/>
     <use x="27.783203" xlink:href="#DejaVuSans-63"/>
     <use x="82.763672" xlink:href="#DejaVuSans-65"/>
    </g>
   </g>
   <g id="text_11">
    <!-- poured -->
    <g transform="translate(469.544434 358.673248)scale(0.07 -0.07)">
     <use xlink:href="#DejaVuSans-70"/>
     <use x="63.476562" xlink:href="#DejaVuSans-6f"/>
     <use x="124.658203" xlink:href="#DejaVuSans-75"/>
     <use x="188.037109" xlink:href="#DejaVuSans-72"/>
     <use x="229.119141" xlink:href="#DejaVuSans-65"/>
     <use x="290.642578" xlink:href="#DejaVuSans-64"/>
    </g>
   </g>
   <g id="text_12">
    <!-- laredo -->
    <g transform="translate(514.519673 440.245758)scale(0.07 -0.07)">
     <use xlink:href="#DejaVuSans-6c"/>
     <use x="27.783203" xlink:href="#DejaVuSans-61"/>
     <use x="89.0625" xlink:href="#DejaVuSans-72"/>
     <use x="130.144531" xlink:href="#DejaVuSans-65"/>
     <use x="191.667969" xlink:href="#DejaVuSans-64"/>
     <use x="255.144531" xlink:href="#DejaVuSans-6f"/>
    </g>
   </g>
   <g id="text_13">
    <!-- borders -->
    <defs>
     <path d="M 48.6875 27.296875 
Q 48.6875 37.203125 44.609375 42.84375 
Q 40.53125 48.484375 33.40625 48.484375 
Q 26.265625 48.484375 22.1875 42.84375 
Q 18.109375 37.203125 18.109375 27.296875 
Q 18.109375 17.390625 22.1875 11.75 
Q 26.265625 6.109375 33.40625 6.109375 
Q 40.53125 6.109375 44.609375 11.75 
Q 48.6875 17.390625 48.6875 27.296875 
M 18.109375 46.390625 
Q 20.953125 51.265625 25.265625 53.625 
Q 29.59375 56 35.59375 56 
Q 45.5625 56 51.78125 48.09375 
Q 58.015625 40.1875 58.015625 27.296875 
Q 58.015625 14.40625 51.78125 6.484375 
Q 45.5625 -1.421875 35.59375 -1.421875 
Q 29.59375 -1.421875 25.265625 0.953125 
Q 20.953125 3.328125 18.109375 8.203125 
L 18.109375 0 
L 9.078125 0 
L 9.078125 75.984375 
L 18.109375 75.984375 
z
" id="DejaVuSans-62"/>
    </defs>
    <g transform="translate(565.004647 258.779613)scale(0.07 -0.07)">
     <use xlink:href="#DejaVuSans-62"/>
     <use x="63.476562" xlink:href="#DejaVuSans-6f"/>
     <use x="124.658203" xlink:href="#DejaVuSans-72"/>
     <use x="165.755859" xlink:href="#DejaVuSans-64"/>
     <use x="229.232422" xlink:href="#DejaVuSans-65"/>
     <use x="290.755859" xlink:href="#DejaVuSans-72"/>
     <use x="331.869141" xlink:href="#DejaVuSans-73"/>
    </g>
   </g>
   <g id="text_14">
    <!-- aged -->
    <g transform="translate(436.410852 421.942743)scale(0.07 -0.07)">
     <use xlink:href="#DejaVuSans-61"/>
     <use x="61.279297" xlink:href="#DejaVuSans-67"/>
     <use x="124.755859" xlink:href="#DejaVuSans-65"/>
     <use x="186.279297" xlink:href="#DejaVuSans-64"/>
    </g>
   </g>
   <g id="text_15">
    <!-- sheriff -->
    <defs>
     <path d="M 54.890625 33.015625 
L 54.890625 0 
L 45.90625 0 
L 45.90625 32.71875 
Q 45.90625 40.484375 42.875 44.328125 
Q 39.84375 48.1875 33.796875 48.1875 
Q 26.515625 48.1875 22.3125 43.546875 
Q 18.109375 38.921875 18.109375 30.90625 
L 18.109375 0 
L 9.078125 0 
L 9.078125 75.984375 
L 18.109375 75.984375 
L 18.109375 46.1875 
Q 21.34375 51.125 25.703125 53.5625 
Q 30.078125 56 35.796875 56 
Q 45.21875 56 50.046875 50.171875 
Q 54.890625 44.34375 54.890625 33.015625 
" id="DejaVuSans-68"/>
     <path d="M 37.109375 75.984375 
L 37.109375 68.5 
L 28.515625 68.5 
Q 23.6875 68.5 21.796875 66.546875 
Q 19.921875 64.59375 19.921875 59.515625 
L 19.921875 54.6875 
L 34.71875 54.6875 
L 34.71875 47.703125 
L 19.921875 47.703125 
L 19.921875 0 
L 10.890625 0 
L 10.890625 47.703125 
L 2.296875 47.703125 
L 2.296875 54.6875 
L 10.890625 54.6875 
L 10.890625 58.5 
Q 10.890625 67.625 15.140625 71.796875 
Q 19.390625 75.984375 28.609375 75.984375 
z
" id="DejaVuSans-66"/>
    </defs>
    <g transform="translate(454.091986 189.299352)scale(0.07 -0.07)">
     <use xlink:href="#DejaVuSans-73"/>
     <use x="52.099609" xlink:href="#DejaVuSans-68"/>
     <use x="115.478516" xlink:href="#DejaVuSans-65"/>
     <use x="177.001953" xlink:href="#DejaVuSans-72"/>
     <use x="218.115234" xlink:href="#DejaVuSans-69"/>
     <use x="245.898438" xlink:href="#DejaVuSans-66"/>
     <use x="281.103516" xlink:href="#DejaVuSans-66"/>
    </g>
   </g>
   <g id="text_16">
    <!-- sheriff -->
    <g transform="translate(422.092649 258.739585)scale(0.07 -0.07)">
     <use xlink:href="#DejaVuSans-73"/>
     <use x="52.099609" xlink:href="#DejaVuSans-68"/>
     <use x="115.478516" xlink:href="#DejaVuSans-65"/>
     <use x="177.001953" xlink:href="#DejaVuSans-72"/>
     <use x="218.115234" xlink:href="#DejaVuSans-69"/>
     <use x="245.898438" xlink:href="#DejaVuSans-66"/>
     <use x="281.103516" xlink:href="#DejaVuSans-66"/>
    </g>
   </g>
   <g id="text_17">
    <!-- heroin -->
    <g transform="translate(408.649557 345.805222)scale(0.07 -0.07)">
     <use xlink:href="#DejaVuSans-68"/>
     <use x="63.378906" xlink:href="#DejaVuSans-65"/>
     <use x="124.902344" xlink:href="#DejaVuSans-72"/>
     <use x="165.984375" xlink:href="#DejaVuSans-6f"/>
     <use x="227.166016" xlink:href="#DejaVuSans-69"/>
     <use x="254.949219" xlink:href="#DejaVuSans-6e"/>
    </g>
   </g>
   <g id="text_18">
    <!-- border -->
    <g transform="translate(548.609251 322.830214)scale(0.07 -0.07)">
     <use xlink:href="#DejaVuSans-62"/>
     <use x="63.476562" xlink:href="#DejaVuSans-6f"/>
     <use x="124.658203" xlink:href="#DejaVuSans-72"/>
     <use x="165.755859" xlink:href="#DejaVuSans-64"/>
     <use x="229.232422" xlink:href="#DejaVuSans-65"/>
     <use x="290.755859" xlink:href="#DejaVuSans-72"/>
    </g>
   </g>
   <g id="text_19">
    <!-- southern -->
    <g transform="translate(522.059804 418.97256)scale(0.07 -0.07)">
     <use xlink:href="#DejaVuSans-73"/>
     <use x="52.099609" xlink:href="#DejaVuSans-6f"/>
     <use x="113.28125" xlink:href="#DejaVuSans-75"/>
     <use x="176.660156" xlink:href="#DejaVuSans-74"/>
     <use x="215.869141" xlink:href="#DejaVuSans-68"/>
     <use x="279.248047" xlink:href="#DejaVuSans-65"/>
     <use x="340.771484" xlink:href="#DejaVuSans-72"/>
     <use x="381.869141" xlink:href="#DejaVuSans-6e"/>
    </g>
   </g>
   <g id="text_20">
    <!-- en -->
    <g transform="translate(347.213719 372.730649)scale(0.07 -0.07)">
     <use xlink:href="#DejaVuSans-65"/>
     <use x="61.523438" xlink:href="#DejaVuSans-6e"/>
    </g>
   </g>
   <g id="text_21">
    <!-- por -->
    <g transform="translate(422.188063 404.16713)scale(0.07 -0.07)">
     <use xlink:href="#DejaVuSans-70"/>
     <use x="63.476562" xlink:href="#DejaVuSans-6f"/>
     <use x="124.658203" xlink:href="#DejaVuSans-72"/>
    </g>
   </g>
   <g id="text_22">
    <!-- victim -->
    <defs>
     <path d="M 2.984375 54.6875 
L 12.5 54.6875 
L 29.59375 8.796875 
L 46.6875 54.6875 
L 56.203125 54.6875 
L 35.6875 0 
L 23.484375 0 
z
" id="DejaVuSans-76"/>
    </defs>
    <g transform="translate(475.502185 435.321276)scale(0.07 -0.07)">
     <use xlink:href="#DejaVuSans-76"/>
     <use x="59.179688" xlink:href="#DejaVuSans-69"/>
     <use x="86.962891" xlink:href="#DejaVuSans-63"/>
     <use x="141.943359" xlink:href="#DejaVuSans-74"/>
     <use x="181.152344" xlink:href="#DejaVuSans-69"/>
     <use x="208.935547" xlink:href="#DejaVuSans-6d"/>
    </g>
   </g>
   <g id="text_23">
    <!-- open -->
    <g transform="translate(163.966174 391.319716)scale(0.07 -0.07)">
     <use xlink:href="#DejaVuSans-6f"/>
     <use x="61.181641" xlink:href="#DejaVuSans-70"/>
     <use x="124.658203" xlink:href="#DejaVuSans-65"/>
     <use x="186.181641" xlink:href="#DejaVuSans-6e"/>
    </g>
   </g>
   <g id="text_24">
    <!-- boarding -->
    <g transform="translate(440.689818 453.207353)scale(0.07 -0.07)">
     <use xlink:href="#DejaVuSans-62"/>
     <use x="63.476562" xlink:href="#DejaVuSans-6f"/>
     <use x="124.658203" xlink:href="#DejaVuSans-61"/>
     <use x="185.9375" xlink:href="#DejaVuSans-72"/>
     <use x="227.035156" xlink:href="#DejaVuSans-64"/>
     <use x="290.511719" xlink:href="#DejaVuSans-69"/>
     <use x="318.294922" xlink:href="#DejaVuSans-6e"/>
     <use x="381.673828" xlink:href="#DejaVuSans-67"/>
    </g>
   </g>
   <g id="text_25">
    <!-- main -->
    <g transform="translate(609.123249 377.017617)scale(0.07 -0.07)">
     <use xlink:href="#DejaVuSans-6d"/>
     <use x="97.412109" xlink:href="#DejaVuSans-61"/>
     <use x="158.691406" xlink:href="#DejaVuSans-69"/>
     <use x="186.474609" xlink:href="#DejaVuSans-6e"/>
    </g>
   </g>
   <g id="text_26">
    <!-- kill -->
    <defs>
     <path d="M 9.078125 75.984375 
L 18.109375 75.984375 
L 18.109375 31.109375 
L 44.921875 54.6875 
L 56.390625 54.6875 
L 27.390625 29.109375 
L 57.625 0 
L 45.90625 0 
L 18.109375 26.703125 
L 18.109375 0 
L 9.078125 0 
z
" id="DejaVuSans-6b"/>
    </defs>
    <g transform="translate(389.898892 404.177681)scale(0.07 -0.07)">
     <use xlink:href="#DejaVuSans-6b"/>
     <use x="57.910156" xlink:href="#DejaVuSans-69"/>
     <use x="85.693359" xlink:href="#DejaVuSans-6c"/>
     <use x="113.476562" xlink:href="#DejaVuSans-6c"/>
    </g>
   </g>
   <g id="text_27">
    <!-- poisoning -->
    <g transform="translate(419.765763 322.896592)scale(0.07 -0.07)">
     <use xlink:href="#DejaVuSans-70"/>
     <use x="63.476562" xlink:href="#DejaVuSans-6f"/>
     <use x="124.658203" xlink:href="#DejaVuSans-69"/>
     <use x="152.441406" xlink:href="#DejaVuSans-73"/>
     <use x="204.541016" xlink:href="#DejaVuSans-6f"/>
     <use x="265.722656" xlink:href="#DejaVuSans-6e"/>
     <use x="329.101562" xlink:href="#DejaVuSans-69"/>
     <use x="356.884766" xlink:href="#DejaVuSans-6e"/>
     <use x="420.263672" xlink:href="#DejaVuSans-67"/>
    </g>
   </g>
   <g id="text_28">
    <!-- open -->
    <g transform="translate(550.097644 408.185631)scale(0.07 -0.07)">
     <use xlink:href="#DejaVuSans-6f"/>
     <use x="61.181641" xlink:href="#DejaVuSans-70"/>
     <use x="124.658203" xlink:href="#DejaVuSans-65"/>
     <use x="186.181641" xlink:href="#DejaVuSans-6e"/>
    </g>
   </g>
   <g id="text_29">
    <!-- crisis -->
    <g transform="translate(414.442215 436.685141)scale(0.07 -0.07)">
     <use xlink:href="#DejaVuSans-63"/>
     <use x="54.980469" xlink:href="#DejaVuSans-72"/>
     <use x="96.09375" xlink:href="#DejaVuSans-69"/>
     <use x="123.876953" xlink:href="#DejaVuSans-73"/>
     <use x="175.976562" xlink:href="#DejaVuSans-69"/>
     <use x="203.759766" xlink:href="#DejaVuSans-73"/>
    </g>
   </g>
   <g id="text_30">
    <!-- main -->
    <g transform="translate(432.07478 373.697758)scale(0.07 -0.07)">
     <use xlink:href="#DejaVuSans-6d"/>
     <use x="97.412109" xlink:href="#DejaVuSans-61"/>
     <use x="158.691406" xlink:href="#DejaVuSans-69"/>
     <use x="186.474609" xlink:href="#DejaVuSans-6e"/>
    </g>
   </g>
   <g id="text_31">
    <!-- prison -->
    <g transform="translate(476.440021 405.761373)scale(0.07 -0.07)">
     <use xlink:href="#DejaVuSans-70"/>
     <use x="63.476562" xlink:href="#DejaVuSans-72"/>
     <use x="104.589844" xlink:href="#DejaVuSans-69"/>
     <use x="132.373047" xlink:href="#DejaVuSans-73"/>
     <use x="184.472656" xlink:href="#DejaVuSans-6f"/>
     <use x="245.654297" xlink:href="#DejaVuSans-6e"/>
    </g>
   </g>
   <g id="text_32">
    <!-- swiftly -->
    <g transform="translate(451.278957 395.832516)scale(0.07 -0.07)">
     <use xlink:href="#DejaVuSans-73"/>
     <use x="52.099609" xlink:href="#DejaVuSans-77"/>
     <use x="133.886719" xlink:href="#DejaVuSans-69"/>
     <use x="161.669922" xlink:href="#DejaVuSans-66"/>
     <use x="196.859375" xlink:href="#DejaVuSans-74"/>
     <use x="236.068359" xlink:href="#DejaVuSans-6c"/>
     <use x="263.851562" xlink:href="#DejaVuSans-79"/>
    </g>
   </g>
   <g id="text_33">
    <!-- alien -->
    <g transform="translate(436.211299 323.075875)scale(0.07 -0.07)">
     <use xlink:href="#DejaVuSans-61"/>
     <use x="61.279297" xlink:href="#DejaVuSans-6c"/>
     <use x="89.0625" xlink:href="#DejaVuSans-69"/>
     <use x="116.845703" xlink:href="#DejaVuSans-65"/>
     <use x="178.369141" xlink:href="#DejaVuSans-6e"/>
    </g>
   </g>
   <g id="text_34">
    <!-- illegal -->
    <g transform="translate(275.862022 391.861922)scale(0.07 -0.07)">
     <use xlink:href="#DejaVuSans-69"/>
     <use x="27.783203" xlink:href="#DejaVuSans-6c"/>
     <use x="55.566406" xlink:href="#DejaVuSans-6c"/>
     <use x="83.349609" xlink:href="#DejaVuSans-65"/>
     <use x="144.873047" xlink:href="#DejaVuSans-67"/>
     <use x="208.349609" xlink:href="#DejaVuSans-61"/>
     <use x="269.628906" xlink:href="#DejaVuSans-6c"/>
    </g>
   </g>
   <g id="text_35">
    <!-- aliens -->
    <g transform="translate(424.645062 513.764799)scale(0.07 -0.07)">
     <use xlink:href="#DejaVuSans-61"/>
     <use x="61.279297" xlink:href="#DejaVuSans-6c"/>
     <use x="89.0625" xlink:href="#DejaVuSans-69"/>
     <use x="116.845703" xlink:href="#DejaVuSans-65"/>
     <use x="178.369141" xlink:href="#DejaVuSans-6e"/>
     <use x="241.748047" xlink:href="#DejaVuSans-73"/>
    </g>
   </g>
   <g id="text_36">
    <!-- deported -->
    <g transform="translate(417.66013 477.71329)scale(0.07 -0.07)">
     <use xlink:href="#DejaVuSans-64"/>
     <use x="63.476562" xlink:href="#DejaVuSans-65"/>
     <use x="125" xlink:href="#DejaVuSans-70"/>
     <use x="188.476562" xlink:href="#DejaVuSans-6f"/>
     <use x="249.658203" xlink:href="#DejaVuSans-72"/>
     <use x="290.771484" xlink:href="#DejaVuSans-74"/>
     <use x="329.980469" xlink:href="#DejaVuSans-65"/>
     <use x="391.503906" xlink:href="#DejaVuSans-64"/>
    </g>
   </g>
   <g id="text_37">
    <!-- spree -->
    <g transform="translate(539.244647 377.412981)scale(0.07 -0.07)">
     <use xlink:href="#DejaVuSans-73"/>
     <use x="52.099609" xlink:href="#DejaVuSans-70"/>
     <use x="115.576172" xlink:href="#DejaVuSans-72"/>
     <use x="156.658203" xlink:href="#DejaVuSans-65"/>
     <use x="218.181641" xlink:href="#DejaVuSans-65"/>
    </g>
   </g>
   <g id="text_38">
    <!-- deputy -->
    <g transform="translate(462.434194 447.231639)scale(0.07 -0.07)">
     <use xlink:href="#DejaVuSans-64"/>
     <use x="63.476562" xlink:href="#DejaVuSans-65"/>
     <use x="125" xlink:href="#DejaVuSans-70"/>
     <use x="188.476562" xlink:href="#DejaVuSans-75"/>
     <use x="251.855469" xlink:href="#DejaVuSans-74"/>
     <use x="291.064453" xlink:href="#DejaVuSans-79"/>
    </g>
   </g>
   <g id="text_39">
    <!-- sanctuary -->
    <g transform="translate(505.910779 328.465333)scale(0.07 -0.07)">
     <use xlink:href="#DejaVuSans-73"/>
     <use x="52.099609" xlink:href="#DejaVuSans-61"/>
     <use x="113.378906" xlink:href="#DejaVuSans-6e"/>
     <use x="176.757812" xlink:href="#DejaVuSans-63"/>
     <use x="231.738281" xlink:href="#DejaVuSans-74"/>
     <use x="270.947266" xlink:href="#DejaVuSans-75"/>
     <use x="334.326172" xlink:href="#DejaVuSans-61"/>
     <use x="395.605469" xlink:href="#DejaVuSans-72"/>
     <use x="436.71875" xlink:href="#DejaVuSans-79"/>
    </g>
   </g>
   <g id="text_40">
    <!-- drugs -->
    <g transform="translate(517.536117 381.628026)scale(0.07 -0.07)">
     <use xlink:href="#DejaVuSans-64"/>
     <use x="63.476562" xlink:href="#DejaVuSans-72"/>
     <use x="104.589844" xlink:href="#DejaVuSans-75"/>
     <use x="167.96875" xlink:href="#DejaVuSans-67"/>
     <use x="231.445312" xlink:href="#DejaVuSans-73"/>
    </g>
   </g>
   <g id="text_41">
    <!-- safely -->
    <g transform="translate(439.48845 396.903854)scale(0.07 -0.07)">
     <use xlink:href="#DejaVuSans-73"/>
     <use x="52.099609" xlink:href="#DejaVuSans-61"/>
     <use x="113.378906" xlink:href="#DejaVuSans-66"/>
     <use x="148.583984" xlink:href="#DejaVuSans-65"/>
     <use x="210.107422" xlink:href="#DejaVuSans-6c"/>
     <use x="237.890625" xlink:href="#DejaVuSans-79"/>
    </g>
   </g>
   <g id="text_42">
    <!-- ice -->
    <g transform="translate(527.165301 298.605224)scale(0.07 -0.07)">
     <use xlink:href="#DejaVuSans-69"/>
     <use x="27.783203" xlink:href="#DejaVuSans-63"/>
     <use x="82.763672" xlink:href="#DejaVuSans-65"/>
    </g>
   </g>
   <g id="text_43">
    <!-- immunity -->
    <g transform="translate(463.498192 400.143712)scale(0.07 -0.07)">
     <use xlink:href="#DejaVuSans-69"/>
     <use x="27.783203" xlink:href="#DejaVuSans-6d"/>
     <use x="125.195312" xlink:href="#DejaVuSans-6d"/>
     <use x="222.607422" xlink:href="#DejaVuSans-75"/>
     <use x="285.986328" xlink:href="#DejaVuSans-6e"/>
     <use x="349.365234" xlink:href="#DejaVuSans-69"/>
     <use x="377.148438" xlink:href="#DejaVuSans-74"/>
     <use x="416.357422" xlink:href="#DejaVuSans-79"/>
    </g>
   </g>
   <g id="text_44">
    <!-- laredo -->
    <g transform="translate(349.964034 103.68)scale(0.07 -0.07)">
     <use xlink:href="#DejaVuSans-6c"/>
     <use x="27.783203" xlink:href="#DejaVuSans-61"/>
     <use x="89.0625" xlink:href="#DejaVuSans-72"/>
     <use x="130.144531" xlink:href="#DejaVuSans-65"/>
     <use x="191.667969" xlink:href="#DejaVuSans-64"/>
     <use x="255.144531" xlink:href="#DejaVuSans-6f"/>
    </g>
   </g>
   <g id="text_45">
    <!-- arrest -->
    <g transform="translate(495.067271 431.496256)scale(0.07 -0.07)">
     <use xlink:href="#DejaVuSans-61"/>
     <use x="61.279297" xlink:href="#DejaVuSans-72"/>
     <use x="102.376953" xlink:href="#DejaVuSans-72"/>
     <use x="143.458984" xlink:href="#DejaVuSans-65"/>
     <use x="204.982422" xlink:href="#DejaVuSans-73"/>
     <use x="257.082031" xlink:href="#DejaVuSans-74"/>
    </g>
   </g>
   <g id="text_46">
    <!-- wed -->
    <g transform="translate(448.608611 369.964145)scale(0.07 -0.07)">
     <use xlink:href="#DejaVuSans-77"/>
     <use x="81.787109" xlink:href="#DejaVuSans-65"/>
     <use x="143.310547" xlink:href="#DejaVuSans-64"/>
    </g>
   </g>
   <g id="text_47">
    <!-- sheriff -->
    <g transform="translate(144 289.308097)scale(0.07 -0.07)">
     <use xlink:href="#DejaVuSans-73"/>
     <use x="52.099609" xlink:href="#DejaVuSans-68"/>
     <use x="115.478516" xlink:href="#DejaVuSans-65"/>
     <use x="177.001953" xlink:href="#DejaVuSans-72"/>
     <use x="218.115234" xlink:href="#DejaVuSans-69"/>
     <use x="245.898438" xlink:href="#DejaVuSans-66"/>
     <use x="281.103516" xlink:href="#DejaVuSans-66"/>
    </g>
   </g>
   <g id="text_48">
    <!-- borders -->
    <g transform="translate(517.971388 474.597381)scale(0.07 -0.07)">
     <use xlink:href="#DejaVuSans-62"/>
     <use x="63.476562" xlink:href="#DejaVuSans-6f"/>
     <use x="124.658203" xlink:href="#DejaVuSans-72"/>
     <use x="165.755859" xlink:href="#DejaVuSans-64"/>
     <use x="229.232422" xlink:href="#DejaVuSans-65"/>
     <use x="290.755859" xlink:href="#DejaVuSans-72"/>
     <use x="331.869141" xlink:href="#DejaVuSans-73"/>
    </g>
   </g>
   <g id="text_49">
    <!-- illegally -->
    <g transform="translate(550.128128 443.520508)scale(0.07 -0.07)">
     <use xlink:href="#DejaVuSans-69"/>
     <use x="27.783203" xlink:href="#DejaVuSans-6c"/>
     <use x="55.566406" xlink:href="#DejaVuSans-6c"/>
     <use x="83.349609" xlink:href="#DejaVuSans-65"/>
     <use x="144.873047" xlink:href="#DejaVuSans-67"/>
     <use x="208.349609" xlink:href="#DejaVuSans-61"/>
     <use x="269.628906" xlink:href="#DejaVuSans-6c"/>
     <use x="297.412109" xlink:href="#DejaVuSans-6c"/>
     <use x="325.195312" xlink:href="#DejaVuSans-79"/>
    </g>
   </g>
   <g id="text_50">
    <!-- agent -->
    <g transform="translate(458.22035 479.766539)scale(0.07 -0.07)">
     <use xlink:href="#DejaVuSans-61"/>
     <use x="61.279297" xlink:href="#DejaVuSans-67"/>
     <use x="124.755859" xlink:href="#DejaVuSans-65"/>
     <use x="186.279297" xlink:href="#DejaVuSans-6e"/>
     <use x="249.658203" xlink:href="#DejaVuSans-74"/>
    </g>
   </g>
   <g id="text_51">
    <!-- refugee -->
    <g transform="translate(580.373655 397.164025)scale(0.07 -0.07)">
     <use xlink:href="#DejaVuSans-72"/>
     <use x="41.082031" xlink:href="#DejaVuSans-65"/>
     <use x="102.605469" xlink:href="#DejaVuSans-66"/>
     <use x="137.810547" xlink:href="#DejaVuSans-75"/>
     <use x="201.189453" xlink:href="#DejaVuSans-67"/>
     <use x="264.666016" xlink:href="#DejaVuSans-65"/>
     <use x="326.189453" xlink:href="#DejaVuSans-65"/>
    </g>
   </g>
   <g id="text_52">
    <!-- porn -->
    <g transform="translate(474.168062 381.080195)scale(0.07 -0.07)">
     <use xlink:href="#DejaVuSans-70"/>
     <use x="63.476562" xlink:href="#DejaVuSans-6f"/>
     <use x="124.658203" xlink:href="#DejaVuSans-72"/>
     <use x="165.755859" xlink:href="#DejaVuSans-6e"/>
    </g>
   </g>
   <g id="text_53">
    <!-- crisis -->
    <g transform="translate(422.466417 440.264887)scale(0.07 -0.07)">
     <use xlink:href="#DejaVuSans-63"/>
     <use x="54.980469" xlink:href="#DejaVuSans-72"/>
     <use x="96.09375" xlink:href="#DejaVuSans-69"/>
     <use x="123.876953" xlink:href="#DejaVuSans-73"/>
     <use x="175.976562" xlink:href="#DejaVuSans-69"/>
     <use x="203.759766" xlink:href="#DejaVuSans-73"/>
    </g>
   </g>
   <g id="text_54">
    <!-- illegally -->
    <g transform="translate(622.637292 468.325215)scale(0.07 -0.07)">
     <use xlink:href="#DejaVuSans-69"/>
     <use x="27.783203" xlink:href="#DejaVuSans-6c"/>
     <use x="55.566406" xlink:href="#DejaVuSans-6c"/>
     <use x="83.349609" xlink:href="#DejaVuSans-65"/>
     <use x="144.873047" xlink:href="#DejaVuSans-67"/>
     <use x="208.349609" xlink:href="#DejaVuSans-61"/>
     <use x="269.628906" xlink:href="#DejaVuSans-6c"/>
     <use x="297.412109" xlink:href="#DejaVuSans-6c"/>
     <use x="325.195312" xlink:href="#DejaVuSans-79"/>
    </g>
   </g>
   <g id="text_55">
    <!-- law-and-order -->
    <defs>
     <path d="M 4.890625 31.390625 
L 31.203125 31.390625 
L 31.203125 23.390625 
L 4.890625 23.390625 
z
" id="DejaVuSans-2d"/>
    </defs>
    <g transform="translate(714.791927 768.96)scale(0.07 -0.07)">
     <use xlink:href="#DejaVuSans-6c"/>
     <use x="27.783203" xlink:href="#DejaVuSans-61"/>
     <use x="89.0625" xlink:href="#DejaVuSans-77"/>
     <use x="170.849609" xlink:href="#DejaVuSans-2d"/>
     <use x="206.933594" xlink:href="#DejaVuSans-61"/>
     <use x="268.212891" xlink:href="#DejaVuSans-6e"/>
     <use x="331.591797" xlink:href="#DejaVuSans-64"/>
     <use x="395.068359" xlink:href="#DejaVuSans-2d"/>
     <use x="431.167969" xlink:href="#DejaVuSans-6f"/>
     <use x="492.349609" xlink:href="#DejaVuSans-72"/>
     <use x="533.447266" xlink:href="#DejaVuSans-64"/>
     <use x="596.923828" xlink:href="#DejaVuSans-65"/>
     <use x="658.447266" xlink:href="#DejaVuSans-72"/>
    </g>
   </g>
   <g id="text_56">
    <!-- poison -->
    <g transform="translate(485.14204 319.670908)scale(0.07 -0.07)">
     <use xlink:href="#DejaVuSans-70"/>
     <use x="63.476562" xlink:href="#DejaVuSans-6f"/>
     <use x="124.658203" xlink:href="#DejaVuSans-69"/>
     <use x="152.441406" xlink:href="#DejaVuSans-73"/>
     <use x="204.541016" xlink:href="#DejaVuSans-6f"/>
     <use x="265.722656" xlink:href="#DejaVuSans-6e"/>
    </g>
   </g>
   <g id="text_57">
    <!-- police -->
    <g transform="translate(377.490612 467.401652)scale(0.07 -0.07)">
     <use xlink:href="#DejaVuSans-70"/>
     <use x="63.476562" xlink:href="#DejaVuSans-6f"/>
     <use x="124.658203" xlink:href="#DejaVuSans-6c"/>
     <use x="152.441406" xlink:href="#DejaVuSans-69"/>
     <use x="180.224609" xlink:href="#DejaVuSans-63"/>
     <use x="235.205078" xlink:href="#DejaVuSans-65"/>
    </g>
   </g>
   <g id="text_58">
    <!-- box -->
    <defs>
     <path d="M 54.890625 54.6875 
L 35.109375 28.078125 
L 55.90625 0 
L 45.3125 0 
L 29.390625 21.484375 
L 13.484375 0 
L 2.875 0 
L 24.125 28.609375 
L 4.6875 54.6875 
L 15.28125 54.6875 
L 29.78125 35.203125 
L 44.28125 54.6875 
z
" id="DejaVuSans-78"/>
    </defs>
    <g transform="translate(448.949469 435.913121)scale(0.07 -0.07)">
     <use xlink:href="#DejaVuSans-62"/>
     <use x="63.476562" xlink:href="#DejaVuSans-6f"/>
     <use x="124.611328" xlink:href="#DejaVuSans-78"/>
    </g>
   </g>
   <g id="text_59">
    <!-- immunity -->
    <g transform="translate(500.210939 400.87804)scale(0.07 -0.07)">
     <use xlink:href="#DejaVuSans-69"/>
     <use x="27.783203" xlink:href="#DejaVuSans-6d"/>
     <use x="125.195312" xlink:href="#DejaVuSans-6d"/>
     <use x="222.607422" xlink:href="#DejaVuSans-75"/>
     <use x="285.986328" xlink:href="#DejaVuSans-6e"/>
     <use x="349.365234" xlink:href="#DejaVuSans-69"/>
     <use x="377.148438" xlink:href="#DejaVuSans-74"/>
     <use x="416.357422" xlink:href="#DejaVuSans-79"/>
    </g>
   </g>
   <g id="text_60">
    <!-- heroin -->
    <g transform="translate(462.102603 302.334415)scale(0.07 -0.07)">
     <use xlink:href="#DejaVuSans-68"/>
     <use x="63.378906" xlink:href="#DejaVuSans-65"/>
     <use x="124.902344" xlink:href="#DejaVuSans-72"/>
     <use x="165.984375" xlink:href="#DejaVuSans-6f"/>
     <use x="227.166016" xlink:href="#DejaVuSans-69"/>
     <use x="254.949219" xlink:href="#DejaVuSans-6e"/>
    </g>
   </g>
   <g id="text_61">
    <!-- legally -->
    <g transform="translate(470.536577 263.88096)scale(0.07 -0.07)">
     <use xlink:href="#DejaVuSans-6c"/>
     <use x="27.783203" xlink:href="#DejaVuSans-65"/>
     <use x="89.306641" xlink:href="#DejaVuSans-67"/>
     <use x="152.783203" xlink:href="#DejaVuSans-61"/>
     <use x="214.0625" xlink:href="#DejaVuSans-6c"/>
     <use x="241.845703" xlink:href="#DejaVuSans-6c"/>
     <use x="269.628906" xlink:href="#DejaVuSans-79"/>
    </g>
   </g>
   <g id="text_62">
    <!-- citizenship -->
    <g transform="translate(454.284778 416.463603)scale(0.07 -0.07)">
     <use xlink:href="#DejaVuSans-63"/>
     <use x="54.980469" xlink:href="#DejaVuSans-69"/>
     <use x="82.763672" xlink:href="#DejaVuSans-74"/>
     <use x="121.972656" xlink:href="#DejaVuSans-69"/>
     <use x="149.755859" xlink:href="#DejaVuSans-7a"/>
     <use x="202.246094" xlink:href="#DejaVuSans-65"/>
     <use x="263.769531" xlink:href="#DejaVuSans-6e"/>
     <use x="327.148438" xlink:href="#DejaVuSans-73"/>
     <use x="379.248047" xlink:href="#DejaVuSans-68"/>
     <use x="442.626953" xlink:href="#DejaVuSans-69"/>
     <use x="470.410156" xlink:href="#DejaVuSans-70"/>
    </g>
   </g>
   <g id="text_63">
    <!-- deported -->
    <g transform="translate(395.009608 294.791648)scale(0.07 -0.07)">
     <use xlink:href="#DejaVuSans-64"/>
     <use x="63.476562" xlink:href="#DejaVuSans-65"/>
     <use x="125" xlink:href="#DejaVuSans-70"/>
     <use x="188.476562" xlink:href="#DejaVuSans-6f"/>
     <use x="249.658203" xlink:href="#DejaVuSans-72"/>
     <use x="290.771484" xlink:href="#DejaVuSans-74"/>
     <use x="329.980469" xlink:href="#DejaVuSans-65"/>
     <use x="391.503906" xlink:href="#DejaVuSans-64"/>
    </g>
   </g>
   <g id="text_64">
    <!-- criminal -->
    <g transform="translate(427.96551 347.579462)scale(0.07 -0.07)">
     <use xlink:href="#DejaVuSans-63"/>
     <use x="54.980469" xlink:href="#DejaVuSans-72"/>
     <use x="96.09375" xlink:href="#DejaVuSans-69"/>
     <use x="123.876953" xlink:href="#DejaVuSans-6d"/>
     <use x="221.289062" xlink:href="#DejaVuSans-69"/>
     <use x="249.072266" xlink:href="#DejaVuSans-6e"/>
     <use x="312.451172" xlink:href="#DejaVuSans-61"/>
     <use x="373.730469" xlink:href="#DejaVuSans-6c"/>
    </g>
   </g>
   <g id="text_65">
    <!-- draped -->
    <g transform="translate(461.098273 373.342462)scale(0.07 -0.07)">
     <use xlink:href="#DejaVuSans-64"/>
     <use x="63.476562" xlink:href="#DejaVuSans-72"/>
     <use x="104.589844" xlink:href="#DejaVuSans-61"/>
     <use x="165.869141" xlink:href="#DejaVuSans-70"/>
     <use x="229.345703" xlink:href="#DejaVuSans-65"/>
     <use x="290.869141" xlink:href="#DejaVuSans-64"/>
    </g>
   </g>
   <g id="text_66">
    <!-- crisis -->
    <g transform="translate(437.418205 479.659946)scale(0.07 -0.07)">
     <use xlink:href="#DejaVuSans-63"/>
     <use x="54.980469" xlink:href="#DejaVuSans-72"/>
     <use x="96.09375" xlink:href="#DejaVuSans-69"/>
     <use x="123.876953" xlink:href="#DejaVuSans-73"/>
     <use x="175.976562" xlink:href="#DejaVuSans-69"/>
     <use x="203.759766" xlink:href="#DejaVuSans-73"/>
    </g>
   </g>
   <g id="text_67">
    <!-- sheriff's -->
    <defs>
     <path d="M 17.921875 72.90625 
L 17.921875 45.796875 
L 9.625 45.796875 
L 9.625 72.90625 
z
" id="DejaVuSans-27"/>
    </defs>
    <g transform="translate(492.366729 362.196432)scale(0.07 -0.07)">
     <use xlink:href="#DejaVuSans-73"/>
     <use x="52.099609" xlink:href="#DejaVuSans-68"/>
     <use x="115.478516" xlink:href="#DejaVuSans-65"/>
     <use x="177.001953" xlink:href="#DejaVuSans-72"/>
     <use x="218.115234" xlink:href="#DejaVuSans-69"/>
     <use x="245.898438" xlink:href="#DejaVuSans-66"/>
     <use x="281.103516" xlink:href="#DejaVuSans-66"/>
     <use x="316.308594" xlink:href="#DejaVuSans-27"/>
     <use x="343.798828" xlink:href="#DejaVuSans-73"/>
    </g>
   </g>
   <g id="text_68">
    <!-- sanctuary -->
    <g transform="translate(482.32031 470.386626)scale(0.07 -0.07)">
     <use xlink:href="#DejaVuSans-73"/>
     <use x="52.099609" xlink:href="#DejaVuSans-61"/>
     <use x="113.378906" xlink:href="#DejaVuSans-6e"/>
     <use x="176.757812" xlink:href="#DejaVuSans-63"/>
     <use x="231.738281" xlink:href="#DejaVuSans-74"/>
     <use x="270.947266" xlink:href="#DejaVuSans-75"/>
     <use x="334.326172" xlink:href="#DejaVuSans-61"/>
     <use x="395.605469" xlink:href="#DejaVuSans-72"/>
     <use x="436.71875" xlink:href="#DejaVuSans-79"/>
    </g>
   </g>
   <g id="text_69">
    <!-- border -->
    <g transform="translate(512.924134 280.414784)scale(0.07 -0.07)">
     <use xlink:href="#DejaVuSans-62"/>
     <use x="63.476562" xlink:href="#DejaVuSans-6f"/>
     <use x="124.658203" xlink:href="#DejaVuSans-72"/>
     <use x="165.755859" xlink:href="#DejaVuSans-64"/>
     <use x="229.232422" xlink:href="#DejaVuSans-65"/>
     <use x="290.755859" xlink:href="#DejaVuSans-72"/>
    </g>
   </g>
   <g id="text_70">
    <!-- killed -->
    <g transform="translate(398.519727 410.53521)scale(0.07 -0.07)">
     <use xlink:href="#DejaVuSans-6b"/>
     <use x="57.910156" xlink:href="#DejaVuSans-69"/>
     <use x="85.693359" xlink:href="#DejaVuSans-6c"/>
     <use x="113.476562" xlink:href="#DejaVuSans-6c"/>
     <use x="141.259766" xlink:href="#DejaVuSans-65"/>
     <use x="202.783203" xlink:href="#DejaVuSans-64"/>
    </g>
   </g>
   <g id="text_71">
    <!-- arrested -->
    <g transform="translate(489.05108 420.321658)scale(0.07 -0.07)">
     <use xlink:href="#DejaVuSans-61"/>
     <use x="61.279297" xlink:href="#DejaVuSans-72"/>
     <use x="102.376953" xlink:href="#DejaVuSans-72"/>
     <use x="143.458984" xlink:href="#DejaVuSans-65"/>
     <use x="204.982422" xlink:href="#DejaVuSans-73"/>
     <use x="257.082031" xlink:href="#DejaVuSans-74"/>
     <use x="296.291016" xlink:href="#DejaVuSans-65"/>
     <use x="357.814453" xlink:href="#DejaVuSans-64"/>
    </g>
   </g>
   <g id="text_72">
    <!-- ported -->
    <g transform="translate(390.425536 316.5199)scale(0.07 -0.07)">
     <use xlink:href="#DejaVuSans-70"/>
     <use x="63.476562" xlink:href="#DejaVuSans-6f"/>
     <use x="124.658203" xlink:href="#DejaVuSans-72"/>
     <use x="165.771484" xlink:href="#DejaVuSans-74"/>
     <use x="204.980469" xlink:href="#DejaVuSans-65"/>
     <use x="266.503906" xlink:href="#DejaVuSans-64"/>
    </g>
   </g>
   <g id="text_73">
    <!-- mendoza -->
    <g transform="translate(487.104905 390.518045)scale(0.07 -0.07)">
     <use xlink:href="#DejaVuSans-6d"/>
     <use x="97.412109" xlink:href="#DejaVuSans-65"/>
     <use x="158.935547" xlink:href="#DejaVuSans-6e"/>
     <use x="222.314453" xlink:href="#DejaVuSans-64"/>
     <use x="285.791016" xlink:href="#DejaVuSans-6f"/>
     <use x="346.972656" xlink:href="#DejaVuSans-7a"/>
     <use x="399.462891" xlink:href="#DejaVuSans-61"/>
    </g>
   </g>
   <g id="text_74">
    <!-- innocent -->
    <g transform="translate(452.632891 349.087845)scale(0.07 -0.07)">
     <use xlink:href="#DejaVuSans-69"/>
     <use x="27.783203" xlink:href="#DejaVuSans-6e"/>
     <use x="91.162109" xlink:href="#DejaVuSans-6e"/>
     <use x="154.541016" xlink:href="#DejaVuSans-6f"/>
     <use x="215.722656" xlink:href="#DejaVuSans-63"/>
     <use x="270.703125" xlink:href="#DejaVuSans-65"/>
     <use x="332.226562" xlink:href="#DejaVuSans-6e"/>
     <use x="395.605469" xlink:href="#DejaVuSans-74"/>
    </g>
   </g>
   <g id="text_75">
    <!-- crist -->
    <g transform="translate(481.266421 500.105633)scale(0.07 -0.07)">
     <use xlink:href="#DejaVuSans-63"/>
     <use x="54.980469" xlink:href="#DejaVuSans-72"/>
     <use x="96.09375" xlink:href="#DejaVuSans-69"/>
     <use x="123.876953" xlink:href="#DejaVuSans-73"/>
     <use x="175.976562" xlink:href="#DejaVuSans-74"/>
    </g>
   </g>
   <g id="text_76">
    <!-- poisoning -->
    <g transform="translate(482.848365 305.020593)scale(0.07 -0.07)">
     <use xlink:href="#DejaVuSans-70"/>
     <use x="63.476562" xlink:href="#DejaVuSans-6f"/>
     <use x="124.658203" xlink:href="#DejaVuSans-69"/>
     <use x="152.441406" xlink:href="#DejaVuSans-73"/>
     <use x="204.541016" xlink:href="#DejaVuSans-6f"/>
     <use x="265.722656" xlink:href="#DejaVuSans-6e"/>
     <use x="329.101562" xlink:href="#DejaVuSans-69"/>
     <use x="356.884766" xlink:href="#DejaVuSans-6e"/>
     <use x="420.263672" xlink:href="#DejaVuSans-67"/>
    </g>
   </g>
   <g id="text_77">
    <!-- heroin -->
    <g transform="translate(451.324012 321.029389)scale(0.07 -0.07)">
     <use xlink:href="#DejaVuSans-68"/>
     <use x="63.378906" xlink:href="#DejaVuSans-65"/>
     <use x="124.902344" xlink:href="#DejaVuSans-72"/>
     <use x="165.984375" xlink:href="#DejaVuSans-6f"/>
     <use x="227.166016" xlink:href="#DejaVuSans-69"/>
     <use x="254.949219" xlink:href="#DejaVuSans-6e"/>
    </g>
   </g>
   <g id="text_78">
    <!-- victimized -->
    <g transform="translate(467.419789 423.818566)scale(0.07 -0.07)">
     <use xlink:href="#DejaVuSans-76"/>
     <use x="59.179688" xlink:href="#DejaVuSans-69"/>
     <use x="86.962891" xlink:href="#DejaVuSans-63"/>
     <use x="141.943359" xlink:href="#DejaVuSans-74"/>
     <use x="181.152344" xlink:href="#DejaVuSans-69"/>
     <use x="208.935547" xlink:href="#DejaVuSans-6d"/>
     <use x="306.347656" xlink:href="#DejaVuSans-69"/>
     <use x="334.130859" xlink:href="#DejaVuSans-7a"/>
     <use x="386.621094" xlink:href="#DejaVuSans-65"/>
     <use x="448.144531" xlink:href="#DejaVuSans-64"/>
    </g>
   </g>
   <g id="text_79">
    <!-- pour -->
    <g transform="translate(473.561122 338.617384)scale(0.07 -0.07)">
     <use xlink:href="#DejaVuSans-70"/>
     <use x="63.476562" xlink:href="#DejaVuSans-6f"/>
     <use x="124.658203" xlink:href="#DejaVuSans-75"/>
     <use x="188.037109" xlink:href="#DejaVuSans-72"/>
    </g>
   </g>
   <g id="text_80">
    <!-- radicalized -->
    <g transform="translate(1036.8 466.546471)scale(0.07 -0.07)">
     <use xlink:href="#DejaVuSans-72"/>
     <use x="41.113281" xlink:href="#DejaVuSans-61"/>
     <use x="102.392578" xlink:href="#DejaVuSans-64"/>
     <use x="165.869141" xlink:href="#DejaVuSans-69"/>
     <use x="193.652344" xlink:href="#DejaVuSans-63"/>
     <use x="248.632812" xlink:href="#DejaVuSans-61"/>
     <use x="309.912109" xlink:href="#DejaVuSans-6c"/>
     <use x="337.695312" xlink:href="#DejaVuSans-69"/>
     <use x="365.478516" xlink:href="#DejaVuSans-7a"/>
     <use x="417.96875" xlink:href="#DejaVuSans-65"/>
     <use x="479.492188" xlink:href="#DejaVuSans-64"/>
    </g>
   </g>
   <g id="text_81">
    <!-- radicalized -->
    <g transform="translate(251.291932 438.219243)scale(0.07 -0.07)">
     <use xlink:href="#DejaVuSans-72"/>
     <use x="41.113281" xlink:href="#DejaVuSans-61"/>
     <use x="102.392578" xlink:href="#DejaVuSans-64"/>
     <use x="165.869141" xlink:href="#DejaVuSans-69"/>
     <use x="193.652344" xlink:href="#DejaVuSans-63"/>
     <use x="248.632812" xlink:href="#DejaVuSans-61"/>
     <use x="309.912109" xlink:href="#DejaVuSans-6c"/>
     <use x="337.695312" xlink:href="#DejaVuSans-69"/>
     <use x="365.478516" xlink:href="#DejaVuSans-7a"/>
     <use x="417.96875" xlink:href="#DejaVuSans-65"/>
     <use x="479.492188" xlink:href="#DejaVuSans-64"/>
    </g>
   </g>
   <g id="text_82">
    <!-- illegally -->
    <g transform="translate(412.845361 376.104935)scale(0.07 -0.07)">
     <use xlink:href="#DejaVuSans-69"/>
     <use x="27.783203" xlink:href="#DejaVuSans-6c"/>
     <use x="55.566406" xlink:href="#DejaVuSans-6c"/>
     <use x="83.349609" xlink:href="#DejaVuSans-65"/>
     <use x="144.873047" xlink:href="#DejaVuSans-67"/>
     <use x="208.349609" xlink:href="#DejaVuSans-61"/>
     <use x="269.628906" xlink:href="#DejaVuSans-6c"/>
     <use x="297.412109" xlink:href="#DejaVuSans-6c"/>
     <use x="325.195312" xlink:href="#DejaVuSans-79"/>
    </g>
   </g>
   <g id="text_83">
    <!-- illegal -->
    <g transform="translate(650.98417 346.392049)scale(0.07 -0.07)">
     <use xlink:href="#DejaVuSans-69"/>
     <use x="27.783203" xlink:href="#DejaVuSans-6c"/>
     <use x="55.566406" xlink:href="#DejaVuSans-6c"/>
     <use x="83.349609" xlink:href="#DejaVuSans-65"/>
     <use x="144.873047" xlink:href="#DejaVuSans-67"/>
     <use x="208.349609" xlink:href="#DejaVuSans-61"/>
     <use x="269.628906" xlink:href="#DejaVuSans-6c"/>
    </g>
   </g>
   <g id="text_84">
    <!-- immigration -->
    <g transform="translate(528.234801 347.150515)scale(0.07 -0.07)">
     <use xlink:href="#DejaVuSans-69"/>
     <use x="27.783203" xlink:href="#DejaVuSans-6d"/>
     <use x="125.195312" xlink:href="#DejaVuSans-6d"/>
     <use x="222.607422" xlink:href="#DejaVuSans-69"/>
     <use x="250.390625" xlink:href="#DejaVuSans-67"/>
     <use x="313.867188" xlink:href="#DejaVuSans-72"/>
     <use x="354.980469" xlink:href="#DejaVuSans-61"/>
     <use x="416.259766" xlink:href="#DejaVuSans-74"/>
     <use x="455.46875" xlink:href="#DejaVuSans-69"/>
     <use x="483.251953" xlink:href="#DejaVuSans-6f"/>
     <use x="544.433594" xlink:href="#DejaVuSans-6e"/>
    </g>
   </g>
   <g id="text_85">
    <!-- border -->
    <g transform="translate(548.609251 322.830214)scale(0.07 -0.07)">
     <use xlink:href="#DejaVuSans-62"/>
     <use x="63.476562" xlink:href="#DejaVuSans-6f"/>
     <use x="124.658203" xlink:href="#DejaVuSans-72"/>
     <use x="165.755859" xlink:href="#DejaVuSans-64"/>
     <use x="229.232422" xlink:href="#DejaVuSans-65"/>
     <use x="290.755859" xlink:href="#DejaVuSans-72"/>
    </g>
   </g>
   <g id="text_86">
    <!-- wall -->
    <g transform="translate(457.145107 529.500924)scale(0.07 -0.07)">
     <use xlink:href="#DejaVuSans-77"/>
     <use x="81.787109" xlink:href="#DejaVuSans-61"/>
     <use x="143.066406" xlink:href="#DejaVuSans-6c"/>
     <use x="170.849609" xlink:href="#DejaVuSans-6c"/>
    </g>
   </g>
   <g id="text_87">
    <!-- Cluster 4 - 86 Items -->
    <defs>
     <path d="M 64.40625 67.28125 
L 64.40625 56.890625 
Q 59.421875 61.53125 53.78125 63.8125 
Q 48.140625 66.109375 41.796875 66.109375 
Q 29.296875 66.109375 22.65625 58.46875 
Q 16.015625 50.828125 16.015625 36.375 
Q 16.015625 21.96875 22.65625 14.328125 
Q 29.296875 6.6875 41.796875 6.6875 
Q 48.140625 6.6875 53.78125 8.984375 
Q 59.421875 11.28125 64.40625 15.921875 
L 64.40625 5.609375 
Q 59.234375 2.09375 53.4375 0.328125 
Q 47.65625 -1.421875 41.21875 -1.421875 
Q 24.65625 -1.421875 15.125 8.703125 
Q 5.609375 18.84375 5.609375 36.375 
Q 5.609375 53.953125 15.125 64.078125 
Q 24.65625 74.21875 41.21875 74.21875 
Q 47.75 74.21875 53.53125 72.484375 
Q 59.328125 70.75 64.40625 67.28125 
" id="DejaVuSans-43"/>
     <path id="DejaVuSans-20"/>
     <path d="M 37.796875 64.3125 
L 12.890625 25.390625 
L 37.796875 25.390625 
z
M 35.203125 72.90625 
L 47.609375 72.90625 
L 47.609375 25.390625 
L 58.015625 25.390625 
L 58.015625 17.1875 
L 47.609375 17.1875 
L 47.609375 0 
L 37.796875 0 
L 37.796875 17.1875 
L 4.890625 17.1875 
L 4.890625 26.703125 
z
" id="DejaVuSans-34"/>
     <path d="M 31.78125 34.625 
Q 24.75 34.625 20.71875 30.859375 
Q 16.703125 27.09375 16.703125 20.515625 
Q 16.703125 13.921875 20.71875 10.15625 
Q 24.75 6.390625 31.78125 6.390625 
Q 38.8125 6.390625 42.859375 10.171875 
Q 46.921875 13.96875 46.921875 20.515625 
Q 46.921875 27.09375 42.890625 30.859375 
Q 38.875 34.625 31.78125 34.625 
M 21.921875 38.8125 
Q 15.578125 40.375 12.03125 44.71875 
Q 8.5 49.078125 8.5 55.328125 
Q 8.5 64.0625 14.71875 69.140625 
Q 20.953125 74.21875 31.78125 74.21875 
Q 42.671875 74.21875 48.875 69.140625 
Q 55.078125 64.0625 55.078125 55.328125 
Q 55.078125 49.078125 51.53125 44.71875 
Q 48 40.375 41.703125 38.8125 
Q 48.828125 37.15625 52.796875 32.3125 
Q 56.78125 27.484375 56.78125 20.515625 
Q 56.78125 9.90625 50.3125 4.234375 
Q 43.84375 -1.421875 31.78125 -1.421875 
Q 19.734375 -1.421875 13.25 4.234375 
Q 6.78125 9.90625 6.78125 20.515625 
Q 6.78125 27.484375 10.78125 32.3125 
Q 14.796875 37.15625 21.921875 38.8125 
M 18.3125 54.390625 
Q 18.3125 48.734375 21.84375 45.5625 
Q 25.390625 42.390625 31.78125 42.390625 
Q 38.140625 42.390625 41.71875 45.5625 
Q 45.3125 48.734375 45.3125 54.390625 
Q 45.3125 60.0625 41.71875 63.234375 
Q 38.140625 66.40625 31.78125 66.40625 
Q 25.390625 66.40625 21.84375 63.234375 
Q 18.3125 60.0625 18.3125 54.390625 
" id="DejaVuSans-38"/>
     <path d="M 33.015625 40.375 
Q 26.375 40.375 22.484375 35.828125 
Q 18.609375 31.296875 18.609375 23.390625 
Q 18.609375 15.53125 22.484375 10.953125 
Q 26.375 6.390625 33.015625 6.390625 
Q 39.65625 6.390625 43.53125 10.953125 
Q 47.40625 15.53125 47.40625 23.390625 
Q 47.40625 31.296875 43.53125 35.828125 
Q 39.65625 40.375 33.015625 40.375 
M 52.59375 71.296875 
L 52.59375 62.3125 
Q 48.875 64.0625 45.09375 64.984375 
Q 41.3125 65.921875 37.59375 65.921875 
Q 27.828125 65.921875 22.671875 59.328125 
Q 17.53125 52.734375 16.796875 39.40625 
Q 19.671875 43.65625 24.015625 45.921875 
Q 28.375 48.1875 33.59375 48.1875 
Q 44.578125 48.1875 50.953125 41.515625 
Q 57.328125 34.859375 57.328125 23.390625 
Q 57.328125 12.15625 50.6875 5.359375 
Q 44.046875 -1.421875 33.015625 -1.421875 
Q 20.359375 -1.421875 13.671875 8.265625 
Q 6.984375 17.96875 6.984375 36.375 
Q 6.984375 53.65625 15.1875 63.9375 
Q 23.390625 74.21875 37.203125 74.21875 
Q 40.921875 74.21875 44.703125 73.484375 
Q 48.484375 72.75 52.59375 71.296875 
" id="DejaVuSans-36"/>
     <path d="M 9.8125 72.90625 
L 19.671875 72.90625 
L 19.671875 0 
L 9.8125 0 
z
" id="DejaVuSans-49"/>
    </defs>
    <g transform="translate(531.075938 97.68)scale(0.12 -0.12)">
     <use xlink:href="#DejaVuSans-43"/>
     <use x="69.824219" xlink:href="#DejaVuSans-6c"/>
     <use x="97.607422" xlink:href="#DejaVuSans-75"/>
     <use x="160.986328" xlink:href="#DejaVuSans-73"/>
     <use x="213.085938" xlink:href="#DejaVuSans-74"/>
     <use x="252.294922" xlink:href="#DejaVuSans-65"/>
     <use x="313.818359" xlink:href="#DejaVuSans-72"/>
     <use x="354.931641" xlink:href="#DejaVuSans-20"/>
     <use x="386.71875" xlink:href="#DejaVuSans-34"/>
     <use x="450.341797" xlink:href="#DejaVuSans-20"/>
     <use x="482.128906" xlink:href="#DejaVuSans-2d"/>
     <use x="518.212891" xlink:href="#DejaVuSans-20"/>
     <use x="550" xlink:href="#DejaVuSans-38"/>
     <use x="613.623047" xlink:href="#DejaVuSans-36"/>
     <use x="677.246094" xlink:href="#DejaVuSans-20"/>
     <use x="709.033203" xlink:href="#DejaVuSans-49"/>
     <use x="738.525391" xlink:href="#DejaVuSans-74"/>
     <use x="777.734375" xlink:href="#DejaVuSans-65"/>
     <use x="839.257812" xlink:href="#DejaVuSans-6d"/>
     <use x="936.669922" xlink:href="#DejaVuSans-73"/>
    </g>
   </g>
  </g>
 </g>
</svg>
