<?xml version="1.0" encoding="utf-8" standalone="no"?>
<!DOCTYPE svg PUBLIC "-//W3C//DTD SVG 1.1//EN"
  "http://www.w3.org/Graphics/SVG/1.1/DTD/svg11.dtd">
<!-- Created with matplotlib (http://matplotlib.org/) -->
<svg height="864pt" version="1.1" viewBox="0 0 1152 864" width="1152pt" xmlns="http://www.w3.org/2000/svg" xmlns:xlink="http://www.w3.org/1999/xlink">
 <defs>
  <style type="text/css">
*{stroke-linecap:butt;stroke-linejoin:round;}
  </style>
 </defs>
 <g id="figure_1">
  <g id="patch_1">
   <path d="M 0 864 
L 1152 864 
L 1152 0 
L 0 0 
z
" style="fill:#ffffff;"/>
  </g>
  <g id="axes_1">
   <g id="text_1">
    <!-- york -->
    <defs>
     <path d="M 32.171875 -5.078125 
Q 28.375 -14.84375 24.75 -17.8125 
Q 21.140625 -20.796875 15.09375 -20.796875 
L 7.90625 -20.796875 
L 7.90625 -13.28125 
L 13.1875 -13.28125 
Q 16.890625 -13.28125 18.9375 -11.515625 
Q 21 -9.765625 23.484375 -3.21875 
L 25.09375 0.875 
L 2.984375 54.6875 
L 12.5 54.6875 
L 29.59375 11.921875 
L 46.6875 54.6875 
L 56.203125 54.6875 
z
" id="DejaVuSans-79"/>
     <path d="M 30.609375 48.390625 
Q 23.390625 48.390625 19.1875 42.75 
Q 14.984375 37.109375 14.984375 27.296875 
Q 14.984375 17.484375 19.15625 11.84375 
Q 23.34375 6.203125 30.609375 6.203125 
Q 37.796875 6.203125 41.984375 11.859375 
Q 46.1875 17.53125 46.1875 27.296875 
Q 46.1875 37.015625 41.984375 42.703125 
Q 37.796875 48.390625 30.609375 48.390625 
M 30.609375 56 
Q 42.328125 56 49.015625 48.375 
Q 55.71875 40.765625 55.71875 27.296875 
Q 55.71875 13.875 49.015625 6.21875 
Q 42.328125 -1.421875 30.609375 -1.421875 
Q 18.84375 -1.421875 12.171875 6.21875 
Q 5.515625 13.875 5.515625 27.296875 
Q 5.515625 40.765625 12.171875 48.375 
Q 18.84375 56 30.609375 56 
" id="DejaVuSans-6f"/>
     <path d="M 41.109375 46.296875 
Q 39.59375 47.171875 37.8125 47.578125 
Q 36.03125 48 33.890625 48 
Q 26.265625 48 22.1875 43.046875 
Q 18.109375 38.09375 18.109375 28.8125 
L 18.109375 0 
L 9.078125 0 
L 9.078125 54.6875 
L 18.109375 54.6875 
L 18.109375 46.1875 
Q 20.953125 51.171875 25.484375 53.578125 
Q 30.03125 56 36.53125 56 
Q 37.453125 56 38.578125 55.875 
Q 39.703125 55.765625 41.0625 55.515625 
z
" id="DejaVuSans-72"/>
     <path d="M 9.078125 75.984375 
L 18.109375 75.984375 
L 18.109375 31.109375 
L 44.921875 54.6875 
L 56.390625 54.6875 
L 27.390625 29.109375 
L 57.625 0 
L 45.90625 0 
L 18.109375 26.703125 
L 18.109375 0 
L 9.078125 0 
z
" id="DejaVuSans-6b"/>
    </defs>
    <g transform="translate(430.666824 148.119681)scale(0.08 -0.08)">
     <use xlink:href="#DejaVuSans-79"/>
     <use x="59.179688" xlink:href="#DejaVuSans-6f"/>
     <use x="120.361328" xlink:href="#DejaVuSans-72"/>
     <use x="161.474609" xlink:href="#DejaVuSans-6b"/>
    </g>
   </g>
   <g id="text_2">
    <!-- illinois -->
    <defs>
     <path d="M 9.421875 54.6875 
L 18.40625 54.6875 
L 18.40625 0 
L 9.421875 0 
z
M 9.421875 75.984375 
L 18.40625 75.984375 
L 18.40625 64.59375 
L 9.421875 64.59375 
z
" id="DejaVuSans-69"/>
     <path d="M 9.421875 75.984375 
L 18.40625 75.984375 
L 18.40625 0 
L 9.421875 0 
z
" id="DejaVuSans-6c"/>
     <path d="M 54.890625 33.015625 
L 54.890625 0 
L 45.90625 0 
L 45.90625 32.71875 
Q 45.90625 40.484375 42.875 44.328125 
Q 39.84375 48.1875 33.796875 48.1875 
Q 26.515625 48.1875 22.3125 43.546875 
Q 18.109375 38.921875 18.109375 30.90625 
L 18.109375 0 
L 9.078125 0 
L 9.078125 54.6875 
L 18.109375 54.6875 
L 18.109375 46.1875 
Q 21.34375 51.125 25.703125 53.5625 
Q 30.078125 56 35.796875 56 
Q 45.21875 56 50.046875 50.171875 
Q 54.890625 44.34375 54.890625 33.015625 
" id="DejaVuSans-6e"/>
     <path d="M 44.28125 53.078125 
L 44.28125 44.578125 
Q 40.484375 46.53125 36.375 47.5 
Q 32.28125 48.484375 27.875 48.484375 
Q 21.1875 48.484375 17.84375 46.4375 
Q 14.5 44.390625 14.5 40.28125 
Q 14.5 37.15625 16.890625 35.375 
Q 19.28125 33.59375 26.515625 31.984375 
L 29.59375 31.296875 
Q 39.15625 29.25 43.1875 25.515625 
Q 47.21875 21.78125 47.21875 15.09375 
Q 47.21875 7.46875 41.1875 3.015625 
Q 35.15625 -1.421875 24.609375 -1.421875 
Q 20.21875 -1.421875 15.453125 -0.5625 
Q 10.6875 0.296875 5.421875 2 
L 5.421875 11.28125 
Q 10.40625 8.6875 15.234375 7.390625 
Q 20.0625 6.109375 24.8125 6.109375 
Q 31.15625 6.109375 34.5625 8.28125 
Q 37.984375 10.453125 37.984375 14.40625 
Q 37.984375 18.0625 35.515625 20.015625 
Q 33.0625 21.96875 24.703125 23.78125 
L 21.578125 24.515625 
Q 13.234375 26.265625 9.515625 29.90625 
Q 5.8125 33.546875 5.8125 39.890625 
Q 5.8125 47.609375 11.28125 51.796875 
Q 16.75 56 26.8125 56 
Q 31.78125 56 36.171875 55.265625 
Q 40.578125 54.546875 44.28125 53.078125 
" id="DejaVuSans-73"/>
    </defs>
    <g transform="translate(692.431634 224.985678)scale(0.08 -0.08)">
     <use xlink:href="#DejaVuSans-69"/>
     <use x="27.783203" xlink:href="#DejaVuSans-6c"/>
     <use x="55.566406" xlink:href="#DejaVuSans-6c"/>
     <use x="83.349609" xlink:href="#DejaVuSans-69"/>
     <use x="111.132812" xlink:href="#DejaVuSans-6e"/>
     <use x="174.511719" xlink:href="#DejaVuSans-6f"/>
     <use x="235.693359" xlink:href="#DejaVuSans-69"/>
     <use x="263.476562" xlink:href="#DejaVuSans-73"/>
    </g>
   </g>
   <g id="text_3">
    <!-- connecticut -->
    <defs>
     <path d="M 48.78125 52.59375 
L 48.78125 44.1875 
Q 44.96875 46.296875 41.140625 47.34375 
Q 37.3125 48.390625 33.40625 48.390625 
Q 24.65625 48.390625 19.8125 42.84375 
Q 14.984375 37.3125 14.984375 27.296875 
Q 14.984375 17.28125 19.8125 11.734375 
Q 24.65625 6.203125 33.40625 6.203125 
Q 37.3125 6.203125 41.140625 7.25 
Q 44.96875 8.296875 48.78125 10.40625 
L 48.78125 2.09375 
Q 45.015625 0.34375 40.984375 -0.53125 
Q 36.96875 -1.421875 32.421875 -1.421875 
Q 20.0625 -1.421875 12.78125 6.34375 
Q 5.515625 14.109375 5.515625 27.296875 
Q 5.515625 40.671875 12.859375 48.328125 
Q 20.21875 56 33.015625 56 
Q 37.15625 56 41.109375 55.140625 
Q 45.0625 54.296875 48.78125 52.59375 
" id="DejaVuSans-63"/>
     <path d="M 56.203125 29.59375 
L 56.203125 25.203125 
L 14.890625 25.203125 
Q 15.484375 15.921875 20.484375 11.0625 
Q 25.484375 6.203125 34.421875 6.203125 
Q 39.59375 6.203125 44.453125 7.46875 
Q 49.3125 8.734375 54.109375 11.28125 
L 54.109375 2.78125 
Q 49.265625 0.734375 44.1875 -0.34375 
Q 39.109375 -1.421875 33.890625 -1.421875 
Q 20.796875 -1.421875 13.15625 6.1875 
Q 5.515625 13.8125 5.515625 26.8125 
Q 5.515625 40.234375 12.765625 48.109375 
Q 20.015625 56 32.328125 56 
Q 43.359375 56 49.78125 48.890625 
Q 56.203125 41.796875 56.203125 29.59375 
M 47.21875 32.234375 
Q 47.125 39.59375 43.09375 43.984375 
Q 39.0625 48.390625 32.421875 48.390625 
Q 24.90625 48.390625 20.390625 44.140625 
Q 15.875 39.890625 15.1875 32.171875 
z
" id="DejaVuSans-65"/>
     <path d="M 18.3125 70.21875 
L 18.3125 54.6875 
L 36.8125 54.6875 
L 36.8125 47.703125 
L 18.3125 47.703125 
L 18.3125 18.015625 
Q 18.3125 11.328125 20.140625 9.421875 
Q 21.96875 7.515625 27.59375 7.515625 
L 36.8125 7.515625 
L 36.8125 0 
L 27.59375 0 
Q 17.1875 0 13.234375 3.875 
Q 9.28125 7.765625 9.28125 18.015625 
L 9.28125 47.703125 
L 2.6875 47.703125 
L 2.6875 54.6875 
L 9.28125 54.6875 
L 9.28125 70.21875 
z
" id="DejaVuSans-74"/>
     <path d="M 8.5 21.578125 
L 8.5 54.6875 
L 17.484375 54.6875 
L 17.484375 21.921875 
Q 17.484375 14.15625 20.5 10.265625 
Q 23.53125 6.390625 29.59375 6.390625 
Q 36.859375 6.390625 41.078125 11.03125 
Q 45.3125 15.671875 45.3125 23.6875 
L 45.3125 54.6875 
L 54.296875 54.6875 
L 54.296875 0 
L 45.3125 0 
L 45.3125 8.40625 
Q 42.046875 3.421875 37.71875 1 
Q 33.40625 -1.421875 27.6875 -1.421875 
Q 18.265625 -1.421875 13.375 4.4375 
Q 8.5 10.296875 8.5 21.578125 
M 31.109375 56 
z
" id="DejaVuSans-75"/>
    </defs>
    <g transform="translate(732.562515 145.216631)scale(0.08 -0.08)">
     <use xlink:href="#DejaVuSans-63"/>
     <use x="54.980469" xlink:href="#DejaVuSans-6f"/>
     <use x="116.162109" xlink:href="#DejaVuSans-6e"/>
     <use x="179.541016" xlink:href="#DejaVuSans-6e"/>
     <use x="242.919922" xlink:href="#DejaVuSans-65"/>
     <use x="304.443359" xlink:href="#DejaVuSans-63"/>
     <use x="359.423828" xlink:href="#DejaVuSans-74"/>
     <use x="398.632812" xlink:href="#DejaVuSans-69"/>
     <use x="426.416016" xlink:href="#DejaVuSans-63"/>
     <use x="481.396484" xlink:href="#DejaVuSans-75"/>
     <use x="544.775391" xlink:href="#DejaVuSans-74"/>
    </g>
   </g>
   <g id="text_4">
    <!-- louisiana -->
    <defs>
     <path d="M 34.28125 27.484375 
Q 23.390625 27.484375 19.1875 25 
Q 14.984375 22.515625 14.984375 16.5 
Q 14.984375 11.71875 18.140625 8.90625 
Q 21.296875 6.109375 26.703125 6.109375 
Q 34.1875 6.109375 38.703125 11.40625 
Q 43.21875 16.703125 43.21875 25.484375 
L 43.21875 27.484375 
z
M 52.203125 31.203125 
L 52.203125 0 
L 43.21875 0 
L 43.21875 8.296875 
Q 40.140625 3.328125 35.546875 0.953125 
Q 30.953125 -1.421875 24.3125 -1.421875 
Q 15.921875 -1.421875 10.953125 3.296875 
Q 6 8.015625 6 15.921875 
Q 6 25.140625 12.171875 29.828125 
Q 18.359375 34.515625 30.609375 34.515625 
L 43.21875 34.515625 
L 43.21875 35.40625 
Q 43.21875 41.609375 39.140625 45 
Q 35.0625 48.390625 27.6875 48.390625 
Q 23 48.390625 18.546875 47.265625 
Q 14.109375 46.140625 10.015625 43.890625 
L 10.015625 52.203125 
Q 14.9375 54.109375 19.578125 55.046875 
Q 24.21875 56 28.609375 56 
Q 40.484375 56 46.34375 49.84375 
Q 52.203125 43.703125 52.203125 31.203125 
" id="DejaVuSans-61"/>
    </defs>
    <g transform="translate(648.177471 255.057321)scale(0.08 -0.08)">
     <use xlink:href="#DejaVuSans-6c"/>
     <use x="27.783203" xlink:href="#DejaVuSans-6f"/>
     <use x="88.964844" xlink:href="#DejaVuSans-75"/>
     <use x="152.34375" xlink:href="#DejaVuSans-69"/>
     <use x="180.126953" xlink:href="#DejaVuSans-73"/>
     <use x="232.226562" xlink:href="#DejaVuSans-69"/>
     <use x="260.009766" xlink:href="#DejaVuSans-61"/>
     <use x="321.289062" xlink:href="#DejaVuSans-6e"/>
     <use x="384.667969" xlink:href="#DejaVuSans-61"/>
    </g>
   </g>
   <g id="text_5">
    <!-- indiana -->
    <defs>
     <path d="M 45.40625 46.390625 
L 45.40625 75.984375 
L 54.390625 75.984375 
L 54.390625 0 
L 45.40625 0 
L 45.40625 8.203125 
Q 42.578125 3.328125 38.25 0.953125 
Q 33.9375 -1.421875 27.875 -1.421875 
Q 17.96875 -1.421875 11.734375 6.484375 
Q 5.515625 14.40625 5.515625 27.296875 
Q 5.515625 40.1875 11.734375 48.09375 
Q 17.96875 56 27.875 56 
Q 33.9375 56 38.25 53.625 
Q 42.578125 51.265625 45.40625 46.390625 
M 14.796875 27.296875 
Q 14.796875 17.390625 18.875 11.75 
Q 22.953125 6.109375 30.078125 6.109375 
Q 37.203125 6.109375 41.296875 11.75 
Q 45.40625 17.390625 45.40625 27.296875 
Q 45.40625 37.203125 41.296875 42.84375 
Q 37.203125 48.484375 30.078125 48.484375 
Q 22.953125 48.484375 18.875 42.84375 
Q 14.796875 37.203125 14.796875 27.296875 
" id="DejaVuSans-64"/>
    </defs>
    <g transform="translate(843.135897 200.201707)scale(0.08 -0.08)">
     <use xlink:href="#DejaVuSans-69"/>
     <use x="27.783203" xlink:href="#DejaVuSans-6e"/>
     <use x="91.162109" xlink:href="#DejaVuSans-64"/>
     <use x="154.638672" xlink:href="#DejaVuSans-69"/>
     <use x="182.421875" xlink:href="#DejaVuSans-61"/>
     <use x="243.701172" xlink:href="#DejaVuSans-6e"/>
     <use x="307.080078" xlink:href="#DejaVuSans-61"/>
    </g>
   </g>
   <g id="text_6">
    <!-- rochester -->
    <defs>
     <path d="M 54.890625 33.015625 
L 54.890625 0 
L 45.90625 0 
L 45.90625 32.71875 
Q 45.90625 40.484375 42.875 44.328125 
Q 39.84375 48.1875 33.796875 48.1875 
Q 26.515625 48.1875 22.3125 43.546875 
Q 18.109375 38.921875 18.109375 30.90625 
L 18.109375 0 
L 9.078125 0 
L 9.078125 75.984375 
L 18.109375 75.984375 
L 18.109375 46.1875 
Q 21.34375 51.125 25.703125 53.5625 
Q 30.078125 56 35.796875 56 
Q 45.21875 56 50.046875 50.171875 
Q 54.890625 44.34375 54.890625 33.015625 
" id="DejaVuSans-68"/>
    </defs>
    <g transform="translate(687.974353 216.321668)scale(0.08 -0.08)">
     <use xlink:href="#DejaVuSans-72"/>
     <use x="41.082031" xlink:href="#DejaVuSans-6f"/>
     <use x="102.263672" xlink:href="#DejaVuSans-63"/>
     <use x="157.244141" xlink:href="#DejaVuSans-68"/>
     <use x="220.623047" xlink:href="#DejaVuSans-65"/>
     <use x="282.146484" xlink:href="#DejaVuSans-73"/>
     <use x="334.246094" xlink:href="#DejaVuSans-74"/>
     <use x="373.455078" xlink:href="#DejaVuSans-65"/>
     <use x="434.978516" xlink:href="#DejaVuSans-72"/>
    </g>
   </g>
   <g id="text_7">
    <!-- indiana -->
    <g transform="translate(572.117017 249.434683)scale(0.08 -0.08)">
     <use xlink:href="#DejaVuSans-69"/>
     <use x="27.783203" xlink:href="#DejaVuSans-6e"/>
     <use x="91.162109" xlink:href="#DejaVuSans-64"/>
     <use x="154.638672" xlink:href="#DejaVuSans-69"/>
     <use x="182.421875" xlink:href="#DejaVuSans-61"/>
     <use x="243.701172" xlink:href="#DejaVuSans-6e"/>
     <use x="307.080078" xlink:href="#DejaVuSans-61"/>
    </g>
   </g>
   <g id="text_8">
    <!-- ohio -->
    <g transform="translate(578.784823 290.039199)scale(0.08 -0.08)">
     <use xlink:href="#DejaVuSans-6f"/>
     <use x="61.181641" xlink:href="#DejaVuSans-68"/>
     <use x="124.560547" xlink:href="#DejaVuSans-69"/>
     <use x="152.34375" xlink:href="#DejaVuSans-6f"/>
    </g>
   </g>
   <g id="text_9">
    <!-- missouri -->
    <defs>
     <path d="M 52 44.1875 
Q 55.375 50.25 60.0625 53.125 
Q 64.75 56 71.09375 56 
Q 79.640625 56 84.28125 50.015625 
Q 88.921875 44.046875 88.921875 33.015625 
L 88.921875 0 
L 79.890625 0 
L 79.890625 32.71875 
Q 79.890625 40.578125 77.09375 44.375 
Q 74.3125 48.1875 68.609375 48.1875 
Q 61.625 48.1875 57.5625 43.546875 
Q 53.515625 38.921875 53.515625 30.90625 
L 53.515625 0 
L 44.484375 0 
L 44.484375 32.71875 
Q 44.484375 40.625 41.703125 44.40625 
Q 38.921875 48.1875 33.109375 48.1875 
Q 26.21875 48.1875 22.15625 43.53125 
Q 18.109375 38.875 18.109375 30.90625 
L 18.109375 0 
L 9.078125 0 
L 9.078125 54.6875 
L 18.109375 54.6875 
L 18.109375 46.1875 
Q 21.1875 51.21875 25.484375 53.609375 
Q 29.78125 56 35.6875 56 
Q 41.65625 56 45.828125 52.96875 
Q 50 49.953125 52 44.1875 
" id="DejaVuSans-6d"/>
    </defs>
    <g transform="translate(677.062906 218.269001)scale(0.08 -0.08)">
     <use xlink:href="#DejaVuSans-6d"/>
     <use x="97.412109" xlink:href="#DejaVuSans-69"/>
     <use x="125.195312" xlink:href="#DejaVuSans-73"/>
     <use x="177.294922" xlink:href="#DejaVuSans-73"/>
     <use x="229.394531" xlink:href="#DejaVuSans-6f"/>
     <use x="290.576172" xlink:href="#DejaVuSans-75"/>
     <use x="353.955078" xlink:href="#DejaVuSans-72"/>
     <use x="395.068359" xlink:href="#DejaVuSans-69"/>
    </g>
   </g>
   <g id="text_10">
    <!-- missouri -->
    <g transform="translate(640.660959 211.319151)scale(0.08 -0.08)">
     <use xlink:href="#DejaVuSans-6d"/>
     <use x="97.412109" xlink:href="#DejaVuSans-69"/>
     <use x="125.195312" xlink:href="#DejaVuSans-73"/>
     <use x="177.294922" xlink:href="#DejaVuSans-73"/>
     <use x="229.394531" xlink:href="#DejaVuSans-6f"/>
     <use x="290.576172" xlink:href="#DejaVuSans-75"/>
     <use x="353.955078" xlink:href="#DejaVuSans-72"/>
     <use x="395.068359" xlink:href="#DejaVuSans-69"/>
    </g>
   </g>
   <g id="text_11">
    <!-- pittsburgh -->
    <defs>
     <path d="M 18.109375 8.203125 
L 18.109375 -20.796875 
L 9.078125 -20.796875 
L 9.078125 54.6875 
L 18.109375 54.6875 
L 18.109375 46.390625 
Q 20.953125 51.265625 25.265625 53.625 
Q 29.59375 56 35.59375 56 
Q 45.5625 56 51.78125 48.09375 
Q 58.015625 40.1875 58.015625 27.296875 
Q 58.015625 14.40625 51.78125 6.484375 
Q 45.5625 -1.421875 35.59375 -1.421875 
Q 29.59375 -1.421875 25.265625 0.953125 
Q 20.953125 3.328125 18.109375 8.203125 
M 48.6875 27.296875 
Q 48.6875 37.203125 44.609375 42.84375 
Q 40.53125 48.484375 33.40625 48.484375 
Q 26.265625 48.484375 22.1875 42.84375 
Q 18.109375 37.203125 18.109375 27.296875 
Q 18.109375 17.390625 22.1875 11.75 
Q 26.265625 6.109375 33.40625 6.109375 
Q 40.53125 6.109375 44.609375 11.75 
Q 48.6875 17.390625 48.6875 27.296875 
" id="DejaVuSans-70"/>
     <path d="M 48.6875 27.296875 
Q 48.6875 37.203125 44.609375 42.84375 
Q 40.53125 48.484375 33.40625 48.484375 
Q 26.265625 48.484375 22.1875 42.84375 
Q 18.109375 37.203125 18.109375 27.296875 
Q 18.109375 17.390625 22.1875 11.75 
Q 26.265625 6.109375 33.40625 6.109375 
Q 40.53125 6.109375 44.609375 11.75 
Q 48.6875 17.390625 48.6875 27.296875 
M 18.109375 46.390625 
Q 20.953125 51.265625 25.265625 53.625 
Q 29.59375 56 35.59375 56 
Q 45.5625 56 51.78125 48.09375 
Q 58.015625 40.1875 58.015625 27.296875 
Q 58.015625 14.40625 51.78125 6.484375 
Q 45.5625 -1.421875 35.59375 -1.421875 
Q 29.59375 -1.421875 25.265625 0.953125 
Q 20.953125 3.328125 18.109375 8.203125 
L 18.109375 0 
L 9.078125 0 
L 9.078125 75.984375 
L 18.109375 75.984375 
z
" id="DejaVuSans-62"/>
     <path d="M 45.40625 27.984375 
Q 45.40625 37.75 41.375 43.109375 
Q 37.359375 48.484375 30.078125 48.484375 
Q 22.859375 48.484375 18.828125 43.109375 
Q 14.796875 37.75 14.796875 27.984375 
Q 14.796875 18.265625 18.828125 12.890625 
Q 22.859375 7.515625 30.078125 7.515625 
Q 37.359375 7.515625 41.375 12.890625 
Q 45.40625 18.265625 45.40625 27.984375 
M 54.390625 6.78125 
Q 54.390625 -7.171875 48.1875 -13.984375 
Q 42 -20.796875 29.203125 -20.796875 
Q 24.46875 -20.796875 20.265625 -20.09375 
Q 16.0625 -19.390625 12.109375 -17.921875 
L 12.109375 -9.1875 
Q 16.0625 -11.328125 19.921875 -12.34375 
Q 23.78125 -13.375 27.78125 -13.375 
Q 36.625 -13.375 41.015625 -8.765625 
Q 45.40625 -4.15625 45.40625 5.171875 
L 45.40625 9.625 
Q 42.625 4.78125 38.28125 2.390625 
Q 33.9375 0 27.875 0 
Q 17.828125 0 11.671875 7.65625 
Q 5.515625 15.328125 5.515625 27.984375 
Q 5.515625 40.671875 11.671875 48.328125 
Q 17.828125 56 27.875 56 
Q 33.9375 56 38.28125 53.609375 
Q 42.625 51.21875 45.40625 46.390625 
L 45.40625 54.6875 
L 54.390625 54.6875 
z
" id="DejaVuSans-67"/>
    </defs>
    <g transform="translate(699.622214 232.79073)scale(0.08 -0.08)">
     <use xlink:href="#DejaVuSans-70"/>
     <use x="63.476562" xlink:href="#DejaVuSans-69"/>
     <use x="91.259766" xlink:href="#DejaVuSans-74"/>
     <use x="130.46875" xlink:href="#DejaVuSans-74"/>
     <use x="169.677734" xlink:href="#DejaVuSans-73"/>
     <use x="221.777344" xlink:href="#DejaVuSans-62"/>
     <use x="285.253906" xlink:href="#DejaVuSans-75"/>
     <use x="348.632812" xlink:href="#DejaVuSans-72"/>
     <use x="389.730469" xlink:href="#DejaVuSans-67"/>
     <use x="453.207031" xlink:href="#DejaVuSans-68"/>
    </g>
   </g>
   <g id="text_12">
    <!-- connecticut -->
    <g transform="translate(718.820216 214.365135)scale(0.08 -0.08)">
     <use xlink:href="#DejaVuSans-63"/>
     <use x="54.980469" xlink:href="#DejaVuSans-6f"/>
     <use x="116.162109" xlink:href="#DejaVuSans-6e"/>
     <use x="179.541016" xlink:href="#DejaVuSans-6e"/>
     <use x="242.919922" xlink:href="#DejaVuSans-65"/>
     <use x="304.443359" xlink:href="#DejaVuSans-63"/>
     <use x="359.423828" xlink:href="#DejaVuSans-74"/>
     <use x="398.632812" xlink:href="#DejaVuSans-69"/>
     <use x="426.416016" xlink:href="#DejaVuSans-63"/>
     <use x="481.396484" xlink:href="#DejaVuSans-75"/>
     <use x="544.775391" xlink:href="#DejaVuSans-74"/>
    </g>
   </g>
   <g id="text_13">
    <!-- ohio -->
    <g transform="translate(779.233511 143.734077)scale(0.08 -0.08)">
     <use xlink:href="#DejaVuSans-6f"/>
     <use x="61.181641" xlink:href="#DejaVuSans-68"/>
     <use x="124.560547" xlink:href="#DejaVuSans-69"/>
     <use x="152.34375" xlink:href="#DejaVuSans-6f"/>
    </g>
   </g>
   <g id="text_14">
    <!-- won -->
    <defs>
     <path d="M 4.203125 54.6875 
L 13.1875 54.6875 
L 24.421875 12.015625 
L 35.59375 54.6875 
L 46.1875 54.6875 
L 57.421875 12.015625 
L 68.609375 54.6875 
L 77.59375 54.6875 
L 63.28125 0 
L 52.6875 0 
L 40.921875 44.828125 
L 29.109375 0 
L 18.5 0 
z
" id="DejaVuSans-77"/>
    </defs>
    <g transform="translate(634.534418 234.271253)scale(0.08 -0.08)">
     <use xlink:href="#DejaVuSans-77"/>
     <use x="81.787109" xlink:href="#DejaVuSans-6f"/>
     <use x="142.96875" xlink:href="#DejaVuSans-6e"/>
    </g>
   </g>
   <g id="text_15">
    <!-- harrisburg -->
    <g transform="translate(676.655431 240.180548)scale(0.08 -0.08)">
     <use xlink:href="#DejaVuSans-68"/>
     <use x="63.378906" xlink:href="#DejaVuSans-61"/>
     <use x="124.658203" xlink:href="#DejaVuSans-72"/>
     <use x="165.755859" xlink:href="#DejaVuSans-72"/>
     <use x="206.869141" xlink:href="#DejaVuSans-69"/>
     <use x="234.652344" xlink:href="#DejaVuSans-73"/>
     <use x="286.751953" xlink:href="#DejaVuSans-62"/>
     <use x="350.228516" xlink:href="#DejaVuSans-75"/>
     <use x="413.607422" xlink:href="#DejaVuSans-72"/>
     <use x="454.705078" xlink:href="#DejaVuSans-67"/>
    </g>
   </g>
   <g id="text_16">
    <!-- pennsylvania -->
    <defs>
     <path d="M 2.984375 54.6875 
L 12.5 54.6875 
L 29.59375 8.796875 
L 46.6875 54.6875 
L 56.203125 54.6875 
L 35.6875 0 
L 23.484375 0 
z
" id="DejaVuSans-76"/>
    </defs>
    <g transform="translate(671.631417 199.448858)scale(0.08 -0.08)">
     <use xlink:href="#DejaVuSans-70"/>
     <use x="63.476562" xlink:href="#DejaVuSans-65"/>
     <use x="125" xlink:href="#DejaVuSans-6e"/>
     <use x="188.378906" xlink:href="#DejaVuSans-6e"/>
     <use x="251.757812" xlink:href="#DejaVuSans-73"/>
     <use x="303.857422" xlink:href="#DejaVuSans-79"/>
     <use x="363.037109" xlink:href="#DejaVuSans-6c"/>
     <use x="390.820312" xlink:href="#DejaVuSans-76"/>
     <use x="450" xlink:href="#DejaVuSans-61"/>
     <use x="511.279297" xlink:href="#DejaVuSans-6e"/>
     <use x="574.658203" xlink:href="#DejaVuSans-69"/>
     <use x="602.441406" xlink:href="#DejaVuSans-61"/>
    </g>
   </g>
   <g id="text_17">
    <!-- kansas -->
    <g transform="translate(649.779662 235.278945)scale(0.08 -0.08)">
     <use xlink:href="#DejaVuSans-6b"/>
     <use x="57.894531" xlink:href="#DejaVuSans-61"/>
     <use x="119.173828" xlink:href="#DejaVuSans-6e"/>
     <use x="182.552734" xlink:href="#DejaVuSans-73"/>
     <use x="234.652344" xlink:href="#DejaVuSans-61"/>
     <use x="295.931641" xlink:href="#DejaVuSans-73"/>
    </g>
   </g>
   <g id="text_18">
    <!-- kentucky -->
    <g transform="translate(422.187514 180.168917)scale(0.08 -0.08)">
     <use xlink:href="#DejaVuSans-6b"/>
     <use x="57.863281" xlink:href="#DejaVuSans-65"/>
     <use x="119.386719" xlink:href="#DejaVuSans-6e"/>
     <use x="182.765625" xlink:href="#DejaVuSans-74"/>
     <use x="221.974609" xlink:href="#DejaVuSans-75"/>
     <use x="285.353516" xlink:href="#DejaVuSans-63"/>
     <use x="340.333984" xlink:href="#DejaVuSans-6b"/>
     <use x="398.197266" xlink:href="#DejaVuSans-79"/>
    </g>
   </g>
   <g id="text_19">
    <!-- louisiana -->
    <g transform="translate(708.487402 166.485524)scale(0.08 -0.08)">
     <use xlink:href="#DejaVuSans-6c"/>
     <use x="27.783203" xlink:href="#DejaVuSans-6f"/>
     <use x="88.964844" xlink:href="#DejaVuSans-75"/>
     <use x="152.34375" xlink:href="#DejaVuSans-69"/>
     <use x="180.126953" xlink:href="#DejaVuSans-73"/>
     <use x="232.226562" xlink:href="#DejaVuSans-69"/>
     <use x="260.009766" xlink:href="#DejaVuSans-61"/>
     <use x="321.289062" xlink:href="#DejaVuSans-6e"/>
     <use x="384.667969" xlink:href="#DejaVuSans-61"/>
    </g>
   </g>
   <g id="text_20">
    <!-- kansas -->
    <g transform="translate(144 768.96)scale(0.08 -0.08)">
     <use xlink:href="#DejaVuSans-6b"/>
     <use x="57.894531" xlink:href="#DejaVuSans-61"/>
     <use x="119.173828" xlink:href="#DejaVuSans-6e"/>
     <use x="182.552734" xlink:href="#DejaVuSans-73"/>
     <use x="234.652344" xlink:href="#DejaVuSans-61"/>
     <use x="295.931641" xlink:href="#DejaVuSans-73"/>
    </g>
   </g>
   <g id="text_21">
    <!-- indiana -->
    <g transform="translate(616.899407 246.619271)scale(0.08 -0.08)">
     <use xlink:href="#DejaVuSans-69"/>
     <use x="27.783203" xlink:href="#DejaVuSans-6e"/>
     <use x="91.162109" xlink:href="#DejaVuSans-64"/>
     <use x="154.638672" xlink:href="#DejaVuSans-69"/>
     <use x="182.421875" xlink:href="#DejaVuSans-61"/>
     <use x="243.701172" xlink:href="#DejaVuSans-6e"/>
     <use x="307.080078" xlink:href="#DejaVuSans-61"/>
    </g>
   </g>
   <g id="text_22">
    <!-- harrisburg -->
    <g transform="translate(730.24696 153.655167)scale(0.08 -0.08)">
     <use xlink:href="#DejaVuSans-68"/>
     <use x="63.378906" xlink:href="#DejaVuSans-61"/>
     <use x="124.658203" xlink:href="#DejaVuSans-72"/>
     <use x="165.755859" xlink:href="#DejaVuSans-72"/>
     <use x="206.869141" xlink:href="#DejaVuSans-69"/>
     <use x="234.652344" xlink:href="#DejaVuSans-73"/>
     <use x="286.751953" xlink:href="#DejaVuSans-62"/>
     <use x="350.228516" xlink:href="#DejaVuSans-75"/>
     <use x="413.607422" xlink:href="#DejaVuSans-72"/>
     <use x="454.705078" xlink:href="#DejaVuSans-67"/>
    </g>
   </g>
   <g id="text_23">
    <!-- pennsylvania -->
    <g transform="translate(678.989046 200.900016)scale(0.08 -0.08)">
     <use xlink:href="#DejaVuSans-70"/>
     <use x="63.476562" xlink:href="#DejaVuSans-65"/>
     <use x="125" xlink:href="#DejaVuSans-6e"/>
     <use x="188.378906" xlink:href="#DejaVuSans-6e"/>
     <use x="251.757812" xlink:href="#DejaVuSans-73"/>
     <use x="303.857422" xlink:href="#DejaVuSans-79"/>
     <use x="363.037109" xlink:href="#DejaVuSans-6c"/>
     <use x="390.820312" xlink:href="#DejaVuSans-76"/>
     <use x="450" xlink:href="#DejaVuSans-61"/>
     <use x="511.279297" xlink:href="#DejaVuSans-6e"/>
     <use x="574.658203" xlink:href="#DejaVuSans-69"/>
     <use x="602.441406" xlink:href="#DejaVuSans-61"/>
    </g>
   </g>
   <g id="text_24">
    <!-- cleveland -->
    <g transform="translate(619.534677 230.449093)scale(0.08 -0.08)">
     <use xlink:href="#DejaVuSans-63"/>
     <use x="54.980469" xlink:href="#DejaVuSans-6c"/>
     <use x="82.763672" xlink:href="#DejaVuSans-65"/>
     <use x="144.287109" xlink:href="#DejaVuSans-76"/>
     <use x="203.466797" xlink:href="#DejaVuSans-65"/>
     <use x="264.990234" xlink:href="#DejaVuSans-6c"/>
     <use x="292.773438" xlink:href="#DejaVuSans-61"/>
     <use x="354.052734" xlink:href="#DejaVuSans-6e"/>
     <use x="417.431641" xlink:href="#DejaVuSans-64"/>
    </g>
   </g>
   <g id="text_25">
    <!-- pittsburgh -->
    <g transform="translate(686.632781 232.714219)scale(0.08 -0.08)">
     <use xlink:href="#DejaVuSans-70"/>
     <use x="63.476562" xlink:href="#DejaVuSans-69"/>
     <use x="91.259766" xlink:href="#DejaVuSans-74"/>
     <use x="130.46875" xlink:href="#DejaVuSans-74"/>
     <use x="169.677734" xlink:href="#DejaVuSans-73"/>
     <use x="221.777344" xlink:href="#DejaVuSans-62"/>
     <use x="285.253906" xlink:href="#DejaVuSans-75"/>
     <use x="348.632812" xlink:href="#DejaVuSans-72"/>
     <use x="389.730469" xlink:href="#DejaVuSans-67"/>
     <use x="453.207031" xlink:href="#DejaVuSans-68"/>
    </g>
   </g>
   <g id="text_26">
    <!-- york -->
    <g transform="translate(658.005745 225.036365)scale(0.08 -0.08)">
     <use xlink:href="#DejaVuSans-79"/>
     <use x="59.179688" xlink:href="#DejaVuSans-6f"/>
     <use x="120.361328" xlink:href="#DejaVuSans-72"/>
     <use x="161.474609" xlink:href="#DejaVuSans-6b"/>
    </g>
   </g>
   <g id="text_27">
    <!-- kansas -->
    <g transform="translate(700.255878 216.141558)scale(0.08 -0.08)">
     <use xlink:href="#DejaVuSans-6b"/>
     <use x="57.894531" xlink:href="#DejaVuSans-61"/>
     <use x="119.173828" xlink:href="#DejaVuSans-6e"/>
     <use x="182.552734" xlink:href="#DejaVuSans-73"/>
     <use x="234.652344" xlink:href="#DejaVuSans-61"/>
     <use x="295.931641" xlink:href="#DejaVuSans-73"/>
    </g>
   </g>
   <g id="text_28">
    <!-- kentucky -->
    <g transform="translate(658.55756 266.226204)scale(0.08 -0.08)">
     <use xlink:href="#DejaVuSans-6b"/>
     <use x="57.863281" xlink:href="#DejaVuSans-65"/>
     <use x="119.386719" xlink:href="#DejaVuSans-6e"/>
     <use x="182.765625" xlink:href="#DejaVuSans-74"/>
     <use x="221.974609" xlink:href="#DejaVuSans-75"/>
     <use x="285.353516" xlink:href="#DejaVuSans-63"/>
     <use x="340.333984" xlink:href="#DejaVuSans-6b"/>
     <use x="398.197266" xlink:href="#DejaVuSans-79"/>
    </g>
   </g>
   <g id="text_29">
    <!-- louisiana -->
    <g transform="translate(638.76919 223.285496)scale(0.08 -0.08)">
     <use xlink:href="#DejaVuSans-6c"/>
     <use x="27.783203" xlink:href="#DejaVuSans-6f"/>
     <use x="88.964844" xlink:href="#DejaVuSans-75"/>
     <use x="152.34375" xlink:href="#DejaVuSans-69"/>
     <use x="180.126953" xlink:href="#DejaVuSans-73"/>
     <use x="232.226562" xlink:href="#DejaVuSans-69"/>
     <use x="260.009766" xlink:href="#DejaVuSans-61"/>
     <use x="321.289062" xlink:href="#DejaVuSans-6e"/>
     <use x="384.667969" xlink:href="#DejaVuSans-61"/>
    </g>
   </g>
   <g id="text_30">
    <!-- york -->
    <g transform="translate(665.897151 222.238109)scale(0.08 -0.08)">
     <use xlink:href="#DejaVuSans-79"/>
     <use x="59.179688" xlink:href="#DejaVuSans-6f"/>
     <use x="120.361328" xlink:href="#DejaVuSans-72"/>
     <use x="161.474609" xlink:href="#DejaVuSans-6b"/>
    </g>
   </g>
   <g id="text_31">
    <!-- indiana -->
    <g transform="translate(653.404516 192.362249)scale(0.08 -0.08)">
     <use xlink:href="#DejaVuSans-69"/>
     <use x="27.783203" xlink:href="#DejaVuSans-6e"/>
     <use x="91.162109" xlink:href="#DejaVuSans-64"/>
     <use x="154.638672" xlink:href="#DejaVuSans-69"/>
     <use x="182.421875" xlink:href="#DejaVuSans-61"/>
     <use x="243.701172" xlink:href="#DejaVuSans-6e"/>
     <use x="307.080078" xlink:href="#DejaVuSans-61"/>
    </g>
   </g>
   <g id="text_32">
    <!-- york -->
    <g transform="translate(666.065179 228.877725)scale(0.08 -0.08)">
     <use xlink:href="#DejaVuSans-79"/>
     <use x="59.179688" xlink:href="#DejaVuSans-6f"/>
     <use x="120.361328" xlink:href="#DejaVuSans-72"/>
     <use x="161.474609" xlink:href="#DejaVuSans-6b"/>
    </g>
   </g>
   <g id="text_33">
    <!-- kentucky -->
    <g transform="translate(712.573091 152.413066)scale(0.08 -0.08)">
     <use xlink:href="#DejaVuSans-6b"/>
     <use x="57.863281" xlink:href="#DejaVuSans-65"/>
     <use x="119.386719" xlink:href="#DejaVuSans-6e"/>
     <use x="182.765625" xlink:href="#DejaVuSans-74"/>
     <use x="221.974609" xlink:href="#DejaVuSans-75"/>
     <use x="285.353516" xlink:href="#DejaVuSans-63"/>
     <use x="340.333984" xlink:href="#DejaVuSans-6b"/>
     <use x="398.197266" xlink:href="#DejaVuSans-79"/>
    </g>
   </g>
   <g id="text_34">
    <!-- jersey -->
    <defs>
     <path d="M 9.421875 54.6875 
L 18.40625 54.6875 
L 18.40625 -0.984375 
Q 18.40625 -11.421875 14.421875 -16.109375 
Q 10.453125 -20.796875 1.609375 -20.796875 
L -1.8125 -20.796875 
L -1.8125 -13.1875 
L 0.59375 -13.1875 
Q 5.71875 -13.1875 7.5625 -10.8125 
Q 9.421875 -8.453125 9.421875 -0.984375 
z
M 9.421875 75.984375 
L 18.40625 75.984375 
L 18.40625 64.59375 
L 9.421875 64.59375 
z
" id="DejaVuSans-6a"/>
    </defs>
    <g transform="translate(677.516373 227.913141)scale(0.08 -0.08)">
     <use xlink:href="#DejaVuSans-6a"/>
     <use x="27.783203" xlink:href="#DejaVuSans-65"/>
     <use x="89.306641" xlink:href="#DejaVuSans-72"/>
     <use x="130.419922" xlink:href="#DejaVuSans-73"/>
     <use x="182.519531" xlink:href="#DejaVuSans-65"/>
     <use x="244.042969" xlink:href="#DejaVuSans-79"/>
    </g>
   </g>
   <g id="text_35">
    <!-- york -->
    <g transform="translate(688.412854 242.368076)scale(0.08 -0.08)">
     <use xlink:href="#DejaVuSans-79"/>
     <use x="59.179688" xlink:href="#DejaVuSans-6f"/>
     <use x="120.361328" xlink:href="#DejaVuSans-72"/>
     <use x="161.474609" xlink:href="#DejaVuSans-6b"/>
    </g>
   </g>
   <g id="text_36">
    <!-- ohio -->
    <g transform="translate(668.529321 209.966485)scale(0.08 -0.08)">
     <use xlink:href="#DejaVuSans-6f"/>
     <use x="61.181641" xlink:href="#DejaVuSans-68"/>
     <use x="124.560547" xlink:href="#DejaVuSans-69"/>
     <use x="152.34375" xlink:href="#DejaVuSans-6f"/>
    </g>
   </g>
   <g id="text_37">
    <!-- won -->
    <g transform="translate(926.766134 103.68)scale(0.08 -0.08)">
     <use xlink:href="#DejaVuSans-77"/>
     <use x="81.787109" xlink:href="#DejaVuSans-6f"/>
     <use x="142.96875" xlink:href="#DejaVuSans-6e"/>
    </g>
   </g>
   <g id="text_38">
    <!-- ohio -->
    <g transform="translate(698.091308 147.104514)scale(0.08 -0.08)">
     <use xlink:href="#DejaVuSans-6f"/>
     <use x="61.181641" xlink:href="#DejaVuSans-68"/>
     <use x="124.560547" xlink:href="#DejaVuSans-69"/>
     <use x="152.34375" xlink:href="#DejaVuSans-6f"/>
    </g>
   </g>
   <g id="text_39">
    <!-- pennsylvania -->
    <g transform="translate(662.118994 239.475696)scale(0.08 -0.08)">
     <use xlink:href="#DejaVuSans-70"/>
     <use x="63.476562" xlink:href="#DejaVuSans-65"/>
     <use x="125" xlink:href="#DejaVuSans-6e"/>
     <use x="188.378906" xlink:href="#DejaVuSans-6e"/>
     <use x="251.757812" xlink:href="#DejaVuSans-73"/>
     <use x="303.857422" xlink:href="#DejaVuSans-79"/>
     <use x="363.037109" xlink:href="#DejaVuSans-6c"/>
     <use x="390.820312" xlink:href="#DejaVuSans-76"/>
     <use x="450" xlink:href="#DejaVuSans-61"/>
     <use x="511.279297" xlink:href="#DejaVuSans-6e"/>
     <use x="574.658203" xlink:href="#DejaVuSans-69"/>
     <use x="602.441406" xlink:href="#DejaVuSans-61"/>
    </g>
   </g>
   <g id="text_40">
    <!-- indiana -->
    <g transform="translate(652.684915 209.115813)scale(0.08 -0.08)">
     <use xlink:href="#DejaVuSans-69"/>
     <use x="27.783203" xlink:href="#DejaVuSans-6e"/>
     <use x="91.162109" xlink:href="#DejaVuSans-64"/>
     <use x="154.638672" xlink:href="#DejaVuSans-69"/>
     <use x="182.421875" xlink:href="#DejaVuSans-61"/>
     <use x="243.701172" xlink:href="#DejaVuSans-6e"/>
     <use x="307.080078" xlink:href="#DejaVuSans-61"/>
    </g>
   </g>
   <g id="text_41">
    <!-- michigan -->
    <g transform="translate(1036.8 254.131113)scale(0.08 -0.08)">
     <use xlink:href="#DejaVuSans-6d"/>
     <use x="97.412109" xlink:href="#DejaVuSans-69"/>
     <use x="125.195312" xlink:href="#DejaVuSans-63"/>
     <use x="180.175781" xlink:href="#DejaVuSans-68"/>
     <use x="243.554688" xlink:href="#DejaVuSans-69"/>
     <use x="271.337891" xlink:href="#DejaVuSans-67"/>
     <use x="334.814453" xlink:href="#DejaVuSans-61"/>
     <use x="396.09375" xlink:href="#DejaVuSans-6e"/>
    </g>
   </g>
   <g id="text_42">
    <!-- york -->
    <g transform="translate(780.670831 263.023273)scale(0.08 -0.08)">
     <use xlink:href="#DejaVuSans-79"/>
     <use x="59.179688" xlink:href="#DejaVuSans-6f"/>
     <use x="120.361328" xlink:href="#DejaVuSans-72"/>
     <use x="161.474609" xlink:href="#DejaVuSans-6b"/>
    </g>
   </g>
   <g id="text_43">
    <!-- michigan -->
    <g transform="translate(377.813082 186.000512)scale(0.08 -0.08)">
     <use xlink:href="#DejaVuSans-6d"/>
     <use x="97.412109" xlink:href="#DejaVuSans-69"/>
     <use x="125.195312" xlink:href="#DejaVuSans-63"/>
     <use x="180.175781" xlink:href="#DejaVuSans-68"/>
     <use x="243.554688" xlink:href="#DejaVuSans-69"/>
     <use x="271.337891" xlink:href="#DejaVuSans-67"/>
     <use x="334.814453" xlink:href="#DejaVuSans-61"/>
     <use x="396.09375" xlink:href="#DejaVuSans-6e"/>
    </g>
   </g>
   <g id="text_44">
    <!-- indiana -->
    <g transform="translate(645.923627 187.787013)scale(0.08 -0.08)">
     <use xlink:href="#DejaVuSans-69"/>
     <use x="27.783203" xlink:href="#DejaVuSans-6e"/>
     <use x="91.162109" xlink:href="#DejaVuSans-64"/>
     <use x="154.638672" xlink:href="#DejaVuSans-69"/>
     <use x="182.421875" xlink:href="#DejaVuSans-61"/>
     <use x="243.701172" xlink:href="#DejaVuSans-6e"/>
     <use x="307.080078" xlink:href="#DejaVuSans-61"/>
    </g>
   </g>
   <g id="text_45">
    <!-- louisiana -->
    <g transform="translate(643.291532 260.794416)scale(0.08 -0.08)">
     <use xlink:href="#DejaVuSans-6c"/>
     <use x="27.783203" xlink:href="#DejaVuSans-6f"/>
     <use x="88.964844" xlink:href="#DejaVuSans-75"/>
     <use x="152.34375" xlink:href="#DejaVuSans-69"/>
     <use x="180.126953" xlink:href="#DejaVuSans-73"/>
     <use x="232.226562" xlink:href="#DejaVuSans-69"/>
     <use x="260.009766" xlink:href="#DejaVuSans-61"/>
     <use x="321.289062" xlink:href="#DejaVuSans-6e"/>
     <use x="384.667969" xlink:href="#DejaVuSans-61"/>
    </g>
   </g>
   <g id="text_46">
    <!-- pennsylvania -->
    <g transform="translate(988.126661 296.150797)scale(0.08 -0.08)">
     <use xlink:href="#DejaVuSans-70"/>
     <use x="63.476562" xlink:href="#DejaVuSans-65"/>
     <use x="125" xlink:href="#DejaVuSans-6e"/>
     <use x="188.378906" xlink:href="#DejaVuSans-6e"/>
     <use x="251.757812" xlink:href="#DejaVuSans-73"/>
     <use x="303.857422" xlink:href="#DejaVuSans-79"/>
     <use x="363.037109" xlink:href="#DejaVuSans-6c"/>
     <use x="390.820312" xlink:href="#DejaVuSans-76"/>
     <use x="450" xlink:href="#DejaVuSans-61"/>
     <use x="511.279297" xlink:href="#DejaVuSans-6e"/>
     <use x="574.658203" xlink:href="#DejaVuSans-69"/>
     <use x="602.441406" xlink:href="#DejaVuSans-61"/>
    </g>
   </g>
   <g id="text_47">
    <!-- indiana -->
    <g transform="translate(632.639029 246.479286)scale(0.08 -0.08)">
     <use xlink:href="#DejaVuSans-69"/>
     <use x="27.783203" xlink:href="#DejaVuSans-6e"/>
     <use x="91.162109" xlink:href="#DejaVuSans-64"/>
     <use x="154.638672" xlink:href="#DejaVuSans-69"/>
     <use x="182.421875" xlink:href="#DejaVuSans-61"/>
     <use x="243.701172" xlink:href="#DejaVuSans-6e"/>
     <use x="307.080078" xlink:href="#DejaVuSans-61"/>
    </g>
   </g>
   <g id="text_48">
    <!-- pittsburgh -->
    <g transform="translate(798.58455 269.754601)scale(0.08 -0.08)">
     <use xlink:href="#DejaVuSans-70"/>
     <use x="63.476562" xlink:href="#DejaVuSans-69"/>
     <use x="91.259766" xlink:href="#DejaVuSans-74"/>
     <use x="130.46875" xlink:href="#DejaVuSans-74"/>
     <use x="169.677734" xlink:href="#DejaVuSans-73"/>
     <use x="221.777344" xlink:href="#DejaVuSans-62"/>
     <use x="285.253906" xlink:href="#DejaVuSans-75"/>
     <use x="348.632812" xlink:href="#DejaVuSans-72"/>
     <use x="389.730469" xlink:href="#DejaVuSans-67"/>
     <use x="453.207031" xlink:href="#DejaVuSans-68"/>
    </g>
   </g>
   <g id="text_49">
    <!-- louisiana -->
    <g transform="translate(643.291532 260.794416)scale(0.08 -0.08)">
     <use xlink:href="#DejaVuSans-6c"/>
     <use x="27.783203" xlink:href="#DejaVuSans-6f"/>
     <use x="88.964844" xlink:href="#DejaVuSans-75"/>
     <use x="152.34375" xlink:href="#DejaVuSans-69"/>
     <use x="180.126953" xlink:href="#DejaVuSans-73"/>
     <use x="232.226562" xlink:href="#DejaVuSans-69"/>
     <use x="260.009766" xlink:href="#DejaVuSans-61"/>
     <use x="321.289062" xlink:href="#DejaVuSans-6e"/>
     <use x="384.667969" xlink:href="#DejaVuSans-61"/>
    </g>
   </g>
   <g id="text_50">
    <!-- ohio -->
    <g transform="translate(700.686221 262.9226)scale(0.08 -0.08)">
     <use xlink:href="#DejaVuSans-6f"/>
     <use x="61.181641" xlink:href="#DejaVuSans-68"/>
     <use x="124.560547" xlink:href="#DejaVuSans-69"/>
     <use x="152.34375" xlink:href="#DejaVuSans-6f"/>
    </g>
   </g>
   <g id="text_51">
    <!-- indiana -->
    <g transform="translate(681.990924 312.509234)scale(0.08 -0.08)">
     <use xlink:href="#DejaVuSans-69"/>
     <use x="27.783203" xlink:href="#DejaVuSans-6e"/>
     <use x="91.162109" xlink:href="#DejaVuSans-64"/>
     <use x="154.638672" xlink:href="#DejaVuSans-69"/>
     <use x="182.421875" xlink:href="#DejaVuSans-61"/>
     <use x="243.701172" xlink:href="#DejaVuSans-6e"/>
     <use x="307.080078" xlink:href="#DejaVuSans-61"/>
    </g>
   </g>
   <g id="text_52">
    <!-- michigan -->
    <g transform="translate(377.813082 186.000512)scale(0.08 -0.08)">
     <use xlink:href="#DejaVuSans-6d"/>
     <use x="97.412109" xlink:href="#DejaVuSans-69"/>
     <use x="125.195312" xlink:href="#DejaVuSans-63"/>
     <use x="180.175781" xlink:href="#DejaVuSans-68"/>
     <use x="243.554688" xlink:href="#DejaVuSans-69"/>
     <use x="271.337891" xlink:href="#DejaVuSans-67"/>
     <use x="334.814453" xlink:href="#DejaVuSans-61"/>
     <use x="396.09375" xlink:href="#DejaVuSans-6e"/>
    </g>
   </g>
   <g id="text_53">
    <!-- kentucky -->
    <g transform="translate(723.306501 278.087467)scale(0.08 -0.08)">
     <use xlink:href="#DejaVuSans-6b"/>
     <use x="57.863281" xlink:href="#DejaVuSans-65"/>
     <use x="119.386719" xlink:href="#DejaVuSans-6e"/>
     <use x="182.765625" xlink:href="#DejaVuSans-74"/>
     <use x="221.974609" xlink:href="#DejaVuSans-75"/>
     <use x="285.353516" xlink:href="#DejaVuSans-63"/>
     <use x="340.333984" xlink:href="#DejaVuSans-6b"/>
     <use x="398.197266" xlink:href="#DejaVuSans-79"/>
    </g>
   </g>
   <g id="text_54">
    <!-- michigan -->
    <g transform="translate(664.921928 250.875773)scale(0.08 -0.08)">
     <use xlink:href="#DejaVuSans-6d"/>
     <use x="97.412109" xlink:href="#DejaVuSans-69"/>
     <use x="125.195312" xlink:href="#DejaVuSans-63"/>
     <use x="180.175781" xlink:href="#DejaVuSans-68"/>
     <use x="243.554688" xlink:href="#DejaVuSans-69"/>
     <use x="271.337891" xlink:href="#DejaVuSans-67"/>
     <use x="334.814453" xlink:href="#DejaVuSans-61"/>
     <use x="396.09375" xlink:href="#DejaVuSans-6e"/>
    </g>
   </g>
   <g id="text_55">
    <!-- michigan -->
    <g transform="translate(377.813082 186.000512)scale(0.08 -0.08)">
     <use xlink:href="#DejaVuSans-6d"/>
     <use x="97.412109" xlink:href="#DejaVuSans-69"/>
     <use x="125.195312" xlink:href="#DejaVuSans-63"/>
     <use x="180.175781" xlink:href="#DejaVuSans-68"/>
     <use x="243.554688" xlink:href="#DejaVuSans-69"/>
     <use x="271.337891" xlink:href="#DejaVuSans-67"/>
     <use x="334.814453" xlink:href="#DejaVuSans-61"/>
     <use x="396.09375" xlink:href="#DejaVuSans-6e"/>
    </g>
   </g>
   <g id="text_56">
    <!-- Cluster 5 - 55 Items -->
    <defs>
     <path d="M 64.40625 67.28125 
L 64.40625 56.890625 
Q 59.421875 61.53125 53.78125 63.8125 
Q 48.140625 66.109375 41.796875 66.109375 
Q 29.296875 66.109375 22.65625 58.46875 
Q 16.015625 50.828125 16.015625 36.375 
Q 16.015625 21.96875 22.65625 14.328125 
Q 29.296875 6.6875 41.796875 6.6875 
Q 48.140625 6.6875 53.78125 8.984375 
Q 59.421875 11.28125 64.40625 15.921875 
L 64.40625 5.609375 
Q 59.234375 2.09375 53.4375 0.328125 
Q 47.65625 -1.421875 41.21875 -1.421875 
Q 24.65625 -1.421875 15.125 8.703125 
Q 5.609375 18.84375 5.609375 36.375 
Q 5.609375 53.953125 15.125 64.078125 
Q 24.65625 74.21875 41.21875 74.21875 
Q 47.75 74.21875 53.53125 72.484375 
Q 59.328125 70.75 64.40625 67.28125 
" id="DejaVuSans-43"/>
     <path id="DejaVuSans-20"/>
     <path d="M 10.796875 72.90625 
L 49.515625 72.90625 
L 49.515625 64.59375 
L 19.828125 64.59375 
L 19.828125 46.734375 
Q 21.96875 47.46875 24.109375 47.828125 
Q 26.265625 48.1875 28.421875 48.1875 
Q 40.625 48.1875 47.75 41.5 
Q 54.890625 34.8125 54.890625 23.390625 
Q 54.890625 11.625 47.5625 5.09375 
Q 40.234375 -1.421875 26.90625 -1.421875 
Q 22.3125 -1.421875 17.546875 -0.640625 
Q 12.796875 0.140625 7.71875 1.703125 
L 7.71875 11.625 
Q 12.109375 9.234375 16.796875 8.0625 
Q 21.484375 6.890625 26.703125 6.890625 
Q 35.15625 6.890625 40.078125 11.328125 
Q 45.015625 15.765625 45.015625 23.390625 
Q 45.015625 31 40.078125 35.4375 
Q 35.15625 39.890625 26.703125 39.890625 
Q 22.75 39.890625 18.8125 39.015625 
Q 14.890625 38.140625 10.796875 36.28125 
z
" id="DejaVuSans-35"/>
     <path d="M 4.890625 31.390625 
L 31.203125 31.390625 
L 31.203125 23.390625 
L 4.890625 23.390625 
z
" id="DejaVuSans-2d"/>
     <path d="M 9.8125 72.90625 
L 19.671875 72.90625 
L 19.671875 0 
L 9.8125 0 
z
" id="DejaVuSans-49"/>
    </defs>
    <g transform="translate(531.075938 97.68)scale(0.12 -0.12)">
     <use xlink:href="#DejaVuSans-43"/>
     <use x="69.824219" xlink:href="#DejaVuSans-6c"/>
     <use x="97.607422" xlink:href="#DejaVuSans-75"/>
     <use x="160.986328" xlink:href="#DejaVuSans-73"/>
     <use x="213.085938" xlink:href="#DejaVuSans-74"/>
     <use x="252.294922" xlink:href="#DejaVuSans-65"/>
     <use x="313.818359" xlink:href="#DejaVuSans-72"/>
     <use x="354.931641" xlink:href="#DejaVuSans-20"/>
     <use x="386.71875" xlink:href="#DejaVuSans-35"/>
     <use x="450.341797" xlink:href="#DejaVuSans-20"/>
     <use x="482.128906" xlink:href="#DejaVuSans-2d"/>
     <use x="518.212891" xlink:href="#DejaVuSans-20"/>
     <use x="550" xlink:href="#DejaVuSans-35"/>
     <use x="613.623047" xlink:href="#DejaVuSans-35"/>
     <use x="677.246094" xlink:href="#DejaVuSans-20"/>
     <use x="709.033203" xlink:href="#DejaVuSans-49"/>
     <use x="738.525391" xlink:href="#DejaVuSans-74"/>
     <use x="777.734375" xlink:href="#DejaVuSans-65"/>
     <use x="839.257812" xlink:href="#DejaVuSans-6d"/>
     <use x="936.669922" xlink:href="#DejaVuSans-73"/>
    </g>
   </g>
  </g>
 </g>
</svg>
