<?xml version="1.0" encoding="utf-8" standalone="no"?>
<!DOCTYPE svg PUBLIC "-//W3C//DTD SVG 1.1//EN"
  "http://www.w3.org/Graphics/SVG/1.1/DTD/svg11.dtd">
<!-- Created with matplotlib (http://matplotlib.org/) -->
<svg height="864pt" version="1.1" viewBox="0 0 1152 864" width="1152pt" xmlns="http://www.w3.org/2000/svg" xmlns:xlink="http://www.w3.org/1999/xlink">
 <defs>
  <style type="text/css">
*{stroke-linecap:butt;stroke-linejoin:round;}
  </style>
 </defs>
 <g id="figure_1">
  <g id="patch_1">
   <path d="M 0 864 
L 1152 864 
L 1152 0 
L 0 0 
z
" style="fill:#ffffff;"/>
  </g>
  <g id="axes_1">
   <g id="patch_2">
    <path d="M 144 768.96 
L 1036.8 768.96 
L 1036.8 103.68 
L 144 103.68 
z
" style="fill:#ffffff;"/>
   </g>
   <g id="matplotlib.axis_1"/>
   <g id="matplotlib.axis_2"/>
   <g id="patch_3">
    <path d="M 144 768.96 
L 144 103.68 
" style="fill:none;stroke:#000000;stroke-linecap:square;stroke-linejoin:miter;stroke-width:0.8;"/>
   </g>
   <g id="patch_4">
    <path d="M 1036.8 768.96 
L 1036.8 103.68 
" style="fill:none;stroke:#000000;stroke-linecap:square;stroke-linejoin:miter;stroke-width:0.8;"/>
   </g>
   <g id="patch_5">
    <path d="M 144 768.96 
L 1036.8 768.96 
" style="fill:none;stroke:#000000;stroke-linecap:square;stroke-linejoin:miter;stroke-width:0.8;"/>
   </g>
   <g id="patch_6">
    <path d="M 144 103.68 
L 1036.8 103.68 
" style="fill:none;stroke:#000000;stroke-linecap:square;stroke-linejoin:miter;stroke-width:0.8;"/>
   </g>
   <g id="text_1">
    <!-- park -->
    <defs>
     <path d="M 18.109375 8.203125 
L 18.109375 -20.796875 
L 9.078125 -20.796875 
L 9.078125 54.6875 
L 18.109375 54.6875 
L 18.109375 46.390625 
Q 20.953125 51.265625 25.265625 53.625 
Q 29.59375 56 35.59375 56 
Q 45.5625 56 51.78125 48.09375 
Q 58.015625 40.1875 58.015625 27.296875 
Q 58.015625 14.40625 51.78125 6.484375 
Q 45.5625 -1.421875 35.59375 -1.421875 
Q 29.59375 -1.421875 25.265625 0.953125 
Q 20.953125 3.328125 18.109375 8.203125 
M 48.6875 27.296875 
Q 48.6875 37.203125 44.609375 42.84375 
Q 40.53125 48.484375 33.40625 48.484375 
Q 26.265625 48.484375 22.1875 42.84375 
Q 18.109375 37.203125 18.109375 27.296875 
Q 18.109375 17.390625 22.1875 11.75 
Q 26.265625 6.109375 33.40625 6.109375 
Q 40.53125 6.109375 44.609375 11.75 
Q 48.6875 17.390625 48.6875 27.296875 
" id="DejaVuSans-70"/>
     <path d="M 34.28125 27.484375 
Q 23.390625 27.484375 19.1875 25 
Q 14.984375 22.515625 14.984375 16.5 
Q 14.984375 11.71875 18.140625 8.90625 
Q 21.296875 6.109375 26.703125 6.109375 
Q 34.1875 6.109375 38.703125 11.40625 
Q 43.21875 16.703125 43.21875 25.484375 
L 43.21875 27.484375 
z
M 52.203125 31.203125 
L 52.203125 0 
L 43.21875 0 
L 43.21875 8.296875 
Q 40.140625 3.328125 35.546875 0.953125 
Q 30.953125 -1.421875 24.3125 -1.421875 
Q 15.921875 -1.421875 10.953125 3.296875 
Q 6 8.015625 6 15.921875 
Q 6 25.140625 12.171875 29.828125 
Q 18.359375 34.515625 30.609375 34.515625 
L 43.21875 34.515625 
L 43.21875 35.40625 
Q 43.21875 41.609375 39.140625 45 
Q 35.0625 48.390625 27.6875 48.390625 
Q 23 48.390625 18.546875 47.265625 
Q 14.109375 46.140625 10.015625 43.890625 
L 10.015625 52.203125 
Q 14.9375 54.109375 19.578125 55.046875 
Q 24.21875 56 28.609375 56 
Q 40.484375 56 46.34375 49.84375 
Q 52.203125 43.703125 52.203125 31.203125 
" id="DejaVuSans-61"/>
     <path d="M 41.109375 46.296875 
Q 39.59375 47.171875 37.8125 47.578125 
Q 36.03125 48 33.890625 48 
Q 26.265625 48 22.1875 43.046875 
Q 18.109375 38.09375 18.109375 28.8125 
L 18.109375 0 
L 9.078125 0 
L 9.078125 54.6875 
L 18.109375 54.6875 
L 18.109375 46.1875 
Q 20.953125 51.171875 25.484375 53.578125 
Q 30.03125 56 36.53125 56 
Q 37.453125 56 38.578125 55.875 
Q 39.703125 55.765625 41.0625 55.515625 
z
" id="DejaVuSans-72"/>
     <path d="M 9.078125 75.984375 
L 18.109375 75.984375 
L 18.109375 31.109375 
L 44.921875 54.6875 
L 56.390625 54.6875 
L 27.390625 29.109375 
L 57.625 0 
L 45.90625 0 
L 18.109375 26.703125 
L 18.109375 0 
L 9.078125 0 
z
" id="DejaVuSans-6b"/>
    </defs>
    <g transform="translate(144.939692 573.379034)scale(0.0579 -0.0579)">
     <use xlink:href="#DejaVuSans-70"/>
     <use x="63.476562" xlink:href="#DejaVuSans-61"/>
     <use x="124.755859" xlink:href="#DejaVuSans-72"/>
     <use x="165.869141" xlink:href="#DejaVuSans-6b"/>
    </g>
   </g>
   <g id="text_2">
    <!-- rink -->
    <defs>
     <path d="M 9.421875 54.6875 
L 18.40625 54.6875 
L 18.40625 0 
L 9.421875 0 
z
M 9.421875 75.984375 
L 18.40625 75.984375 
L 18.40625 64.59375 
L 9.421875 64.59375 
z
" id="DejaVuSans-69"/>
     <path d="M 54.890625 33.015625 
L 54.890625 0 
L 45.90625 0 
L 45.90625 32.71875 
Q 45.90625 40.484375 42.875 44.328125 
Q 39.84375 48.1875 33.796875 48.1875 
Q 26.515625 48.1875 22.3125 43.546875 
Q 18.109375 38.921875 18.109375 30.90625 
L 18.109375 0 
L 9.078125 0 
L 9.078125 54.6875 
L 18.109375 54.6875 
L 18.109375 46.1875 
Q 21.34375 51.125 25.703125 53.5625 
Q 30.078125 56 35.796875 56 
Q 45.21875 56 50.046875 50.171875 
Q 54.890625 44.34375 54.890625 33.015625 
" id="DejaVuSans-6e"/>
    </defs>
    <g transform="translate(539.777743 458.834775)scale(0.0579 -0.0579)">
     <use xlink:href="#DejaVuSans-72"/>
     <use x="41.113281" xlink:href="#DejaVuSans-69"/>
     <use x="68.896484" xlink:href="#DejaVuSans-6e"/>
     <use x="132.275391" xlink:href="#DejaVuSans-6b"/>
    </g>
   </g>
   <g id="text_3">
    <!-- california -->
    <defs>
     <path d="M 48.78125 52.59375 
L 48.78125 44.1875 
Q 44.96875 46.296875 41.140625 47.34375 
Q 37.3125 48.390625 33.40625 48.390625 
Q 24.65625 48.390625 19.8125 42.84375 
Q 14.984375 37.3125 14.984375 27.296875 
Q 14.984375 17.28125 19.8125 11.734375 
Q 24.65625 6.203125 33.40625 6.203125 
Q 37.3125 6.203125 41.140625 7.25 
Q 44.96875 8.296875 48.78125 10.40625 
L 48.78125 2.09375 
Q 45.015625 0.34375 40.984375 -0.53125 
Q 36.96875 -1.421875 32.421875 -1.421875 
Q 20.0625 -1.421875 12.78125 6.34375 
Q 5.515625 14.109375 5.515625 27.296875 
Q 5.515625 40.671875 12.859375 48.328125 
Q 20.21875 56 33.015625 56 
Q 37.15625 56 41.109375 55.140625 
Q 45.0625 54.296875 48.78125 52.59375 
" id="DejaVuSans-63"/>
     <path d="M 9.421875 75.984375 
L 18.40625 75.984375 
L 18.40625 0 
L 9.421875 0 
z
" id="DejaVuSans-6c"/>
     <path d="M 37.109375 75.984375 
L 37.109375 68.5 
L 28.515625 68.5 
Q 23.6875 68.5 21.796875 66.546875 
Q 19.921875 64.59375 19.921875 59.515625 
L 19.921875 54.6875 
L 34.71875 54.6875 
L 34.71875 47.703125 
L 19.921875 47.703125 
L 19.921875 0 
L 10.890625 0 
L 10.890625 47.703125 
L 2.296875 47.703125 
L 2.296875 54.6875 
L 10.890625 54.6875 
L 10.890625 58.5 
Q 10.890625 67.625 15.140625 71.796875 
Q 19.390625 75.984375 28.609375 75.984375 
z
" id="DejaVuSans-66"/>
     <path d="M 30.609375 48.390625 
Q 23.390625 48.390625 19.1875 42.75 
Q 14.984375 37.109375 14.984375 27.296875 
Q 14.984375 17.484375 19.15625 11.84375 
Q 23.34375 6.203125 30.609375 6.203125 
Q 37.796875 6.203125 41.984375 11.859375 
Q 46.1875 17.53125 46.1875 27.296875 
Q 46.1875 37.015625 41.984375 42.703125 
Q 37.796875 48.390625 30.609375 48.390625 
M 30.609375 56 
Q 42.328125 56 49.015625 48.375 
Q 55.71875 40.765625 55.71875 27.296875 
Q 55.71875 13.875 49.015625 6.21875 
Q 42.328125 -1.421875 30.609375 -1.421875 
Q 18.84375 -1.421875 12.171875 6.21875 
Q 5.515625 13.875 5.515625 27.296875 
Q 5.515625 40.765625 12.171875 48.375 
Q 18.84375 56 30.609375 56 
" id="DejaVuSans-6f"/>
    </defs>
    <g transform="translate(788.807565 495.743997)scale(0.0579 -0.0579)">
     <use xlink:href="#DejaVuSans-63"/>
     <use x="54.980469" xlink:href="#DejaVuSans-61"/>
     <use x="116.259766" xlink:href="#DejaVuSans-6c"/>
     <use x="144.042969" xlink:href="#DejaVuSans-69"/>
     <use x="171.826172" xlink:href="#DejaVuSans-66"/>
     <use x="207.03125" xlink:href="#DejaVuSans-6f"/>
     <use x="268.212891" xlink:href="#DejaVuSans-72"/>
     <use x="309.310547" xlink:href="#DejaVuSans-6e"/>
     <use x="372.689453" xlink:href="#DejaVuSans-69"/>
     <use x="400.472656" xlink:href="#DejaVuSans-61"/>
    </g>
   </g>
   <g id="text_4">
    <!-- bombs -->
    <defs>
     <path d="M 48.6875 27.296875 
Q 48.6875 37.203125 44.609375 42.84375 
Q 40.53125 48.484375 33.40625 48.484375 
Q 26.265625 48.484375 22.1875 42.84375 
Q 18.109375 37.203125 18.109375 27.296875 
Q 18.109375 17.390625 22.1875 11.75 
Q 26.265625 6.109375 33.40625 6.109375 
Q 40.53125 6.109375 44.609375 11.75 
Q 48.6875 17.390625 48.6875 27.296875 
M 18.109375 46.390625 
Q 20.953125 51.265625 25.265625 53.625 
Q 29.59375 56 35.59375 56 
Q 45.5625 56 51.78125 48.09375 
Q 58.015625 40.1875 58.015625 27.296875 
Q 58.015625 14.40625 51.78125 6.484375 
Q 45.5625 -1.421875 35.59375 -1.421875 
Q 29.59375 -1.421875 25.265625 0.953125 
Q 20.953125 3.328125 18.109375 8.203125 
L 18.109375 0 
L 9.078125 0 
L 9.078125 75.984375 
L 18.109375 75.984375 
z
" id="DejaVuSans-62"/>
     <path d="M 52 44.1875 
Q 55.375 50.25 60.0625 53.125 
Q 64.75 56 71.09375 56 
Q 79.640625 56 84.28125 50.015625 
Q 88.921875 44.046875 88.921875 33.015625 
L 88.921875 0 
L 79.890625 0 
L 79.890625 32.71875 
Q 79.890625 40.578125 77.09375 44.375 
Q 74.3125 48.1875 68.609375 48.1875 
Q 61.625 48.1875 57.5625 43.546875 
Q 53.515625 38.921875 53.515625 30.90625 
L 53.515625 0 
L 44.484375 0 
L 44.484375 32.71875 
Q 44.484375 40.625 41.703125 44.40625 
Q 38.921875 48.1875 33.109375 48.1875 
Q 26.21875 48.1875 22.15625 43.53125 
Q 18.109375 38.875 18.109375 30.90625 
L 18.109375 0 
L 9.078125 0 
L 9.078125 54.6875 
L 18.109375 54.6875 
L 18.109375 46.1875 
Q 21.1875 51.21875 25.484375 53.609375 
Q 29.78125 56 35.6875 56 
Q 41.65625 56 45.828125 52.96875 
Q 50 49.953125 52 44.1875 
" id="DejaVuSans-6d"/>
     <path d="M 44.28125 53.078125 
L 44.28125 44.578125 
Q 40.484375 46.53125 36.375 47.5 
Q 32.28125 48.484375 27.875 48.484375 
Q 21.1875 48.484375 17.84375 46.4375 
Q 14.5 44.390625 14.5 40.28125 
Q 14.5 37.15625 16.890625 35.375 
Q 19.28125 33.59375 26.515625 31.984375 
L 29.59375 31.296875 
Q 39.15625 29.25 43.1875 25.515625 
Q 47.21875 21.78125 47.21875 15.09375 
Q 47.21875 7.46875 41.1875 3.015625 
Q 35.15625 -1.421875 24.609375 -1.421875 
Q 20.21875 -1.421875 15.453125 -0.5625 
Q 10.6875 0.296875 5.421875 2 
L 5.421875 11.28125 
Q 10.40625 8.6875 15.234375 7.390625 
Q 20.0625 6.109375 24.8125 6.109375 
Q 31.15625 6.109375 34.5625 8.28125 
Q 37.984375 10.453125 37.984375 14.40625 
Q 37.984375 18.0625 35.515625 20.015625 
Q 33.0625 21.96875 24.703125 23.78125 
L 21.578125 24.515625 
Q 13.234375 26.265625 9.515625 29.90625 
Q 5.8125 33.546875 5.8125 39.890625 
Q 5.8125 47.609375 11.28125 51.796875 
Q 16.75 56 26.8125 56 
Q 31.78125 56 36.171875 55.265625 
Q 40.578125 54.546875 44.28125 53.078125 
" id="DejaVuSans-73"/>
    </defs>
    <g transform="translate(403.30888 454.594275)scale(0.0579 -0.0579)">
     <use xlink:href="#DejaVuSans-62"/>
     <use x="63.476562" xlink:href="#DejaVuSans-6f"/>
     <use x="124.658203" xlink:href="#DejaVuSans-6d"/>
     <use x="222.070312" xlink:href="#DejaVuSans-62"/>
     <use x="285.546875" xlink:href="#DejaVuSans-73"/>
    </g>
   </g>
   <g id="text_5">
    <!-- tournament -->
    <defs>
     <path d="M 18.3125 70.21875 
L 18.3125 54.6875 
L 36.8125 54.6875 
L 36.8125 47.703125 
L 18.3125 47.703125 
L 18.3125 18.015625 
Q 18.3125 11.328125 20.140625 9.421875 
Q 21.96875 7.515625 27.59375 7.515625 
L 36.8125 7.515625 
L 36.8125 0 
L 27.59375 0 
Q 17.1875 0 13.234375 3.875 
Q 9.28125 7.765625 9.28125 18.015625 
L 9.28125 47.703125 
L 2.6875 47.703125 
L 2.6875 54.6875 
L 9.28125 54.6875 
L 9.28125 70.21875 
z
" id="DejaVuSans-74"/>
     <path d="M 8.5 21.578125 
L 8.5 54.6875 
L 17.484375 54.6875 
L 17.484375 21.921875 
Q 17.484375 14.15625 20.5 10.265625 
Q 23.53125 6.390625 29.59375 6.390625 
Q 36.859375 6.390625 41.078125 11.03125 
Q 45.3125 15.671875 45.3125 23.6875 
L 45.3125 54.6875 
L 54.296875 54.6875 
L 54.296875 0 
L 45.3125 0 
L 45.3125 8.40625 
Q 42.046875 3.421875 37.71875 1 
Q 33.40625 -1.421875 27.6875 -1.421875 
Q 18.265625 -1.421875 13.375 4.4375 
Q 8.5 10.296875 8.5 21.578125 
M 31.109375 56 
z
" id="DejaVuSans-75"/>
     <path d="M 56.203125 29.59375 
L 56.203125 25.203125 
L 14.890625 25.203125 
Q 15.484375 15.921875 20.484375 11.0625 
Q 25.484375 6.203125 34.421875 6.203125 
Q 39.59375 6.203125 44.453125 7.46875 
Q 49.3125 8.734375 54.109375 11.28125 
L 54.109375 2.78125 
Q 49.265625 0.734375 44.1875 -0.34375 
Q 39.109375 -1.421875 33.890625 -1.421875 
Q 20.796875 -1.421875 13.15625 6.1875 
Q 5.515625 13.8125 5.515625 26.8125 
Q 5.515625 40.234375 12.765625 48.109375 
Q 20.015625 56 32.328125 56 
Q 43.359375 56 49.78125 48.890625 
Q 56.203125 41.796875 56.203125 29.59375 
M 47.21875 32.234375 
Q 47.125 39.59375 43.09375 43.984375 
Q 39.0625 48.390625 32.421875 48.390625 
Q 24.90625 48.390625 20.390625 44.140625 
Q 15.875 39.890625 15.1875 32.171875 
z
" id="DejaVuSans-65"/>
    </defs>
    <g transform="translate(601.389338 496.126401)scale(0.0579 -0.0579)">
     <use xlink:href="#DejaVuSans-74"/>
     <use x="39.208984" xlink:href="#DejaVuSans-6f"/>
     <use x="100.390625" xlink:href="#DejaVuSans-75"/>
     <use x="163.769531" xlink:href="#DejaVuSans-72"/>
     <use x="204.867188" xlink:href="#DejaVuSans-6e"/>
     <use x="268.246094" xlink:href="#DejaVuSans-61"/>
     <use x="329.525391" xlink:href="#DejaVuSans-6d"/>
     <use x="426.9375" xlink:href="#DejaVuSans-65"/>
     <use x="488.460938" xlink:href="#DejaVuSans-6e"/>
     <use x="551.839844" xlink:href="#DejaVuSans-74"/>
    </g>
   </g>
   <g id="text_6">
    <!-- chest -->
    <defs>
     <path d="M 54.890625 33.015625 
L 54.890625 0 
L 45.90625 0 
L 45.90625 32.71875 
Q 45.90625 40.484375 42.875 44.328125 
Q 39.84375 48.1875 33.796875 48.1875 
Q 26.515625 48.1875 22.3125 43.546875 
Q 18.109375 38.921875 18.109375 30.90625 
L 18.109375 0 
L 9.078125 0 
L 9.078125 75.984375 
L 18.109375 75.984375 
L 18.109375 46.1875 
Q 21.34375 51.125 25.703125 53.5625 
Q 30.078125 56 35.796875 56 
Q 45.21875 56 50.046875 50.171875 
Q 54.890625 44.34375 54.890625 33.015625 
" id="DejaVuSans-68"/>
    </defs>
    <g transform="translate(835.844703 528.401736)scale(0.0579 -0.0579)">
     <use xlink:href="#DejaVuSans-63"/>
     <use x="54.980469" xlink:href="#DejaVuSans-68"/>
     <use x="118.359375" xlink:href="#DejaVuSans-65"/>
     <use x="179.882812" xlink:href="#DejaVuSans-73"/>
     <use x="231.982422" xlink:href="#DejaVuSans-74"/>
    </g>
   </g>
   <g id="text_7">
    <!-- rink -->
    <g transform="translate(326.236797 443.359702)scale(0.0579 -0.0579)">
     <use xlink:href="#DejaVuSans-72"/>
     <use x="41.113281" xlink:href="#DejaVuSans-69"/>
     <use x="68.896484" xlink:href="#DejaVuSans-6e"/>
     <use x="132.275391" xlink:href="#DejaVuSans-6b"/>
    </g>
   </g>
   <g id="text_8">
    <!-- copper -->
    <g transform="translate(618.34561 417.644422)scale(0.0579 -0.0579)">
     <use xlink:href="#DejaVuSans-63"/>
     <use x="54.980469" xlink:href="#DejaVuSans-6f"/>
     <use x="116.162109" xlink:href="#DejaVuSans-70"/>
     <use x="179.638672" xlink:href="#DejaVuSans-70"/>
     <use x="243.115234" xlink:href="#DejaVuSans-65"/>
     <use x="304.638672" xlink:href="#DejaVuSans-72"/>
    </g>
   </g>
   <g id="text_9">
    <!-- ice -->
    <g transform="translate(751.518715 339.837249)scale(0.0579 -0.0579)">
     <use xlink:href="#DejaVuSans-69"/>
     <use x="27.783203" xlink:href="#DejaVuSans-63"/>
     <use x="82.763672" xlink:href="#DejaVuSans-65"/>
    </g>
   </g>
   <g id="text_10">
    <!-- chunk -->
    <g transform="translate(356.636478 510.157841)scale(0.0579 -0.0579)">
     <use xlink:href="#DejaVuSans-63"/>
     <use x="54.980469" xlink:href="#DejaVuSans-68"/>
     <use x="118.359375" xlink:href="#DejaVuSans-75"/>
     <use x="181.738281" xlink:href="#DejaVuSans-6e"/>
     <use x="245.117188" xlink:href="#DejaVuSans-6b"/>
    </g>
   </g>
   <g id="text_11">
    <!-- randy -->
    <defs>
     <path d="M 45.40625 46.390625 
L 45.40625 75.984375 
L 54.390625 75.984375 
L 54.390625 0 
L 45.40625 0 
L 45.40625 8.203125 
Q 42.578125 3.328125 38.25 0.953125 
Q 33.9375 -1.421875 27.875 -1.421875 
Q 17.96875 -1.421875 11.734375 6.484375 
Q 5.515625 14.40625 5.515625 27.296875 
Q 5.515625 40.1875 11.734375 48.09375 
Q 17.96875 56 27.875 56 
Q 33.9375 56 38.25 53.625 
Q 42.578125 51.265625 45.40625 46.390625 
M 14.796875 27.296875 
Q 14.796875 17.390625 18.875 11.75 
Q 22.953125 6.109375 30.078125 6.109375 
Q 37.203125 6.109375 41.296875 11.75 
Q 45.40625 17.390625 45.40625 27.296875 
Q 45.40625 37.203125 41.296875 42.84375 
Q 37.203125 48.484375 30.078125 48.484375 
Q 22.953125 48.484375 18.875 42.84375 
Q 14.796875 37.203125 14.796875 27.296875 
" id="DejaVuSans-64"/>
     <path d="M 32.171875 -5.078125 
Q 28.375 -14.84375 24.75 -17.8125 
Q 21.140625 -20.796875 15.09375 -20.796875 
L 7.90625 -20.796875 
L 7.90625 -13.28125 
L 13.1875 -13.28125 
Q 16.890625 -13.28125 18.9375 -11.515625 
Q 21 -9.765625 23.484375 -3.21875 
L 25.09375 0.875 
L 2.984375 54.6875 
L 12.5 54.6875 
L 29.59375 11.921875 
L 46.6875 54.6875 
L 56.203125 54.6875 
z
" id="DejaVuSans-79"/>
    </defs>
    <g transform="translate(517.602332 344.27496)scale(0.0579 -0.0579)">
     <use xlink:href="#DejaVuSans-72"/>
     <use x="41.113281" xlink:href="#DejaVuSans-61"/>
     <use x="102.392578" xlink:href="#DejaVuSans-6e"/>
     <use x="165.771484" xlink:href="#DejaVuSans-64"/>
     <use x="229.248047" xlink:href="#DejaVuSans-79"/>
    </g>
   </g>
   <g id="text_12">
    <!-- grand -->
    <defs>
     <path d="M 45.40625 27.984375 
Q 45.40625 37.75 41.375 43.109375 
Q 37.359375 48.484375 30.078125 48.484375 
Q 22.859375 48.484375 18.828125 43.109375 
Q 14.796875 37.75 14.796875 27.984375 
Q 14.796875 18.265625 18.828125 12.890625 
Q 22.859375 7.515625 30.078125 7.515625 
Q 37.359375 7.515625 41.375 12.890625 
Q 45.40625 18.265625 45.40625 27.984375 
M 54.390625 6.78125 
Q 54.390625 -7.171875 48.1875 -13.984375 
Q 42 -20.796875 29.203125 -20.796875 
Q 24.46875 -20.796875 20.265625 -20.09375 
Q 16.0625 -19.390625 12.109375 -17.921875 
L 12.109375 -9.1875 
Q 16.0625 -11.328125 19.921875 -12.34375 
Q 23.78125 -13.375 27.78125 -13.375 
Q 36.625 -13.375 41.015625 -8.765625 
Q 45.40625 -4.15625 45.40625 5.171875 
L 45.40625 9.625 
Q 42.625 4.78125 38.28125 2.390625 
Q 33.9375 0 27.875 0 
Q 17.828125 0 11.671875 7.65625 
Q 5.515625 15.328125 5.515625 27.984375 
Q 5.515625 40.671875 11.671875 48.328125 
Q 17.828125 56 27.875 56 
Q 33.9375 56 38.28125 53.609375 
Q 42.625 51.21875 45.40625 46.390625 
L 45.40625 54.6875 
L 54.390625 54.6875 
z
" id="DejaVuSans-67"/>
    </defs>
    <g transform="translate(558.29235 717.289232)scale(0.0579 -0.0579)">
     <use xlink:href="#DejaVuSans-67"/>
     <use x="63.476562" xlink:href="#DejaVuSans-72"/>
     <use x="104.589844" xlink:href="#DejaVuSans-61"/>
     <use x="165.869141" xlink:href="#DejaVuSans-6e"/>
     <use x="229.248047" xlink:href="#DejaVuSans-64"/>
    </g>
   </g>
   <g id="text_13">
    <!-- airborne -->
    <g transform="translate(626.724613 333.104397)scale(0.0579 -0.0579)">
     <use xlink:href="#DejaVuSans-61"/>
     <use x="61.279297" xlink:href="#DejaVuSans-69"/>
     <use x="89.0625" xlink:href="#DejaVuSans-72"/>
     <use x="130.175781" xlink:href="#DejaVuSans-62"/>
     <use x="193.652344" xlink:href="#DejaVuSans-6f"/>
     <use x="254.833984" xlink:href="#DejaVuSans-72"/>
     <use x="295.931641" xlink:href="#DejaVuSans-6e"/>
     <use x="359.310547" xlink:href="#DejaVuSans-65"/>
    </g>
   </g>
   <g id="text_14">
    <!-- sports -->
    <g transform="translate(812.979458 565.211092)scale(0.0579 -0.0579)">
     <use xlink:href="#DejaVuSans-73"/>
     <use x="52.099609" xlink:href="#DejaVuSans-70"/>
     <use x="115.576172" xlink:href="#DejaVuSans-6f"/>
     <use x="176.757812" xlink:href="#DejaVuSans-72"/>
     <use x="217.871094" xlink:href="#DejaVuSans-74"/>
     <use x="257.080078" xlink:href="#DejaVuSans-73"/>
    </g>
   </g>
   <g id="text_15">
    <!-- carpet -->
    <g transform="translate(784.015729 295.384468)scale(0.0579 -0.0579)">
     <use xlink:href="#DejaVuSans-63"/>
     <use x="54.980469" xlink:href="#DejaVuSans-61"/>
     <use x="116.259766" xlink:href="#DejaVuSans-72"/>
     <use x="157.373047" xlink:href="#DejaVuSans-70"/>
     <use x="220.849609" xlink:href="#DejaVuSans-65"/>
     <use x="282.373047" xlink:href="#DejaVuSans-74"/>
    </g>
   </g>
   <g id="text_16">
    <!-- rafters -->
    <g transform="translate(457.768793 314.647855)scale(0.0579 -0.0579)">
     <use xlink:href="#DejaVuSans-72"/>
     <use x="41.113281" xlink:href="#DejaVuSans-61"/>
     <use x="102.392578" xlink:href="#DejaVuSans-66"/>
     <use x="137.582031" xlink:href="#DejaVuSans-74"/>
     <use x="176.791016" xlink:href="#DejaVuSans-65"/>
     <use x="238.314453" xlink:href="#DejaVuSans-72"/>
     <use x="279.427734" xlink:href="#DejaVuSans-73"/>
    </g>
   </g>
   <g id="text_17">
    <!-- gun-free -->
    <defs>
     <path d="M 4.890625 31.390625 
L 31.203125 31.390625 
L 31.203125 23.390625 
L 4.890625 23.390625 
z
" id="DejaVuSans-2d"/>
    </defs>
    <g transform="translate(253.361603 334.522723)scale(0.0579 -0.0579)">
     <use xlink:href="#DejaVuSans-67"/>
     <use x="63.476562" xlink:href="#DejaVuSans-75"/>
     <use x="126.855469" xlink:href="#DejaVuSans-6e"/>
     <use x="190.234375" xlink:href="#DejaVuSans-2d"/>
     <use x="226.318359" xlink:href="#DejaVuSans-66"/>
     <use x="261.523438" xlink:href="#DejaVuSans-72"/>
     <use x="302.605469" xlink:href="#DejaVuSans-65"/>
     <use x="364.128906" xlink:href="#DejaVuSans-65"/>
    </g>
   </g>
   <g id="text_18">
    <!-- airplanes -->
    <g transform="translate(504.888312 370.622822)scale(0.0579 -0.0579)">
     <use xlink:href="#DejaVuSans-61"/>
     <use x="61.279297" xlink:href="#DejaVuSans-69"/>
     <use x="89.0625" xlink:href="#DejaVuSans-72"/>
     <use x="130.175781" xlink:href="#DejaVuSans-70"/>
     <use x="193.652344" xlink:href="#DejaVuSans-6c"/>
     <use x="221.435547" xlink:href="#DejaVuSans-61"/>
     <use x="282.714844" xlink:href="#DejaVuSans-6e"/>
     <use x="346.09375" xlink:href="#DejaVuSans-65"/>
     <use x="407.617188" xlink:href="#DejaVuSans-73"/>
    </g>
   </g>
   <g id="text_19">
    <!-- pentagon -->
    <g transform="translate(684.344522 457.625894)scale(0.0579 -0.0579)">
     <use xlink:href="#DejaVuSans-70"/>
     <use x="63.476562" xlink:href="#DejaVuSans-65"/>
     <use x="125" xlink:href="#DejaVuSans-6e"/>
     <use x="188.378906" xlink:href="#DejaVuSans-74"/>
     <use x="227.587891" xlink:href="#DejaVuSans-61"/>
     <use x="288.867188" xlink:href="#DejaVuSans-67"/>
     <use x="352.34375" xlink:href="#DejaVuSans-6f"/>
     <use x="413.525391" xlink:href="#DejaVuSans-6e"/>
    </g>
   </g>
   <g id="text_20">
    <!-- manhattan -->
    <g transform="translate(150.528221 430.952646)scale(0.0579 -0.0579)">
     <use xlink:href="#DejaVuSans-6d"/>
     <use x="97.412109" xlink:href="#DejaVuSans-61"/>
     <use x="158.691406" xlink:href="#DejaVuSans-6e"/>
     <use x="222.070312" xlink:href="#DejaVuSans-68"/>
     <use x="285.449219" xlink:href="#DejaVuSans-61"/>
     <use x="346.728516" xlink:href="#DejaVuSans-74"/>
     <use x="385.9375" xlink:href="#DejaVuSans-74"/>
     <use x="425.146484" xlink:href="#DejaVuSans-61"/>
     <use x="486.425781" xlink:href="#DejaVuSans-6e"/>
    </g>
   </g>
   <g id="text_21">
    <!-- space -->
    <g transform="translate(413.025182 341.409642)scale(0.0579 -0.0579)">
     <use xlink:href="#DejaVuSans-73"/>
     <use x="52.099609" xlink:href="#DejaVuSans-70"/>
     <use x="115.576172" xlink:href="#DejaVuSans-61"/>
     <use x="176.855469" xlink:href="#DejaVuSans-63"/>
     <use x="231.835938" xlink:href="#DejaVuSans-65"/>
    </g>
   </g>
   <g id="text_22">
    <!-- usa -->
    <g transform="translate(641.588417 228.131282)scale(0.0579 -0.0579)">
     <use xlink:href="#DejaVuSans-75"/>
     <use x="63.378906" xlink:href="#DejaVuSans-73"/>
     <use x="115.478516" xlink:href="#DejaVuSans-61"/>
    </g>
   </g>
   <g id="text_23">
    <!-- shooters -->
    <g transform="translate(822.450524 473.085466)scale(0.0579 -0.0579)">
     <use xlink:href="#DejaVuSans-73"/>
     <use x="52.099609" xlink:href="#DejaVuSans-68"/>
     <use x="115.478516" xlink:href="#DejaVuSans-6f"/>
     <use x="176.660156" xlink:href="#DejaVuSans-6f"/>
     <use x="237.841797" xlink:href="#DejaVuSans-74"/>
     <use x="277.050781" xlink:href="#DejaVuSans-65"/>
     <use x="338.574219" xlink:href="#DejaVuSans-72"/>
     <use x="379.6875" xlink:href="#DejaVuSans-73"/>
    </g>
   </g>
   <g id="text_24">
    <!-- queens -->
    <defs>
     <path d="M 14.796875 27.296875 
Q 14.796875 17.390625 18.875 11.75 
Q 22.953125 6.109375 30.078125 6.109375 
Q 37.203125 6.109375 41.296875 11.75 
Q 45.40625 17.390625 45.40625 27.296875 
Q 45.40625 37.203125 41.296875 42.84375 
Q 37.203125 48.484375 30.078125 48.484375 
Q 22.953125 48.484375 18.875 42.84375 
Q 14.796875 37.203125 14.796875 27.296875 
M 45.40625 8.203125 
Q 42.578125 3.328125 38.25 0.953125 
Q 33.9375 -1.421875 27.875 -1.421875 
Q 17.96875 -1.421875 11.734375 6.484375 
Q 5.515625 14.40625 5.515625 27.296875 
Q 5.515625 40.1875 11.734375 48.09375 
Q 17.96875 56 27.875 56 
Q 33.9375 56 38.25 53.625 
Q 42.578125 51.265625 45.40625 46.390625 
L 45.40625 54.6875 
L 54.390625 54.6875 
L 54.390625 -20.796875 
L 45.40625 -20.796875 
z
" id="DejaVuSans-71"/>
    </defs>
    <g transform="translate(420.262698 502.651691)scale(0.0579 -0.0579)">
     <use xlink:href="#DejaVuSans-71"/>
     <use x="63.476562" xlink:href="#DejaVuSans-75"/>
     <use x="126.855469" xlink:href="#DejaVuSans-65"/>
     <use x="188.378906" xlink:href="#DejaVuSans-65"/>
     <use x="249.902344" xlink:href="#DejaVuSans-6e"/>
     <use x="313.28125" xlink:href="#DejaVuSans-73"/>
    </g>
   </g>
   <g id="text_25">
    <!-- bikers -->
    <g transform="translate(372.468966 576.841319)scale(0.0579 -0.0579)">
     <use xlink:href="#DejaVuSans-62"/>
     <use x="63.476562" xlink:href="#DejaVuSans-69"/>
     <use x="91.259766" xlink:href="#DejaVuSans-6b"/>
     <use x="149.123047" xlink:href="#DejaVuSans-65"/>
     <use x="210.646484" xlink:href="#DejaVuSans-72"/>
     <use x="251.759766" xlink:href="#DejaVuSans-73"/>
    </g>
   </g>
   <g id="text_26">
    <!-- chest -->
    <g transform="translate(899.029239 467.233423)scale(0.0579 -0.0579)">
     <use xlink:href="#DejaVuSans-63"/>
     <use x="54.980469" xlink:href="#DejaVuSans-68"/>
     <use x="118.359375" xlink:href="#DejaVuSans-65"/>
     <use x="179.882812" xlink:href="#DejaVuSans-73"/>
     <use x="231.982422" xlink:href="#DejaVuSans-74"/>
    </g>
   </g>
   <g id="text_27">
    <!-- bragg -->
    <g transform="translate(581.570834 323.661281)scale(0.0579 -0.0579)">
     <use xlink:href="#DejaVuSans-62"/>
     <use x="63.476562" xlink:href="#DejaVuSans-72"/>
     <use x="104.589844" xlink:href="#DejaVuSans-61"/>
     <use x="165.869141" xlink:href="#DejaVuSans-67"/>
     <use x="229.345703" xlink:href="#DejaVuSans-67"/>
    </g>
   </g>
   <g id="text_28">
    <!-- fort -->
    <g transform="translate(565.746016 297.628965)scale(0.0579 -0.0579)">
     <use xlink:href="#DejaVuSans-66"/>
     <use x="35.205078" xlink:href="#DejaVuSans-6f"/>
     <use x="96.386719" xlink:href="#DejaVuSans-72"/>
     <use x="137.5" xlink:href="#DejaVuSans-74"/>
    </g>
   </g>
   <g id="text_29">
    <!-- guard -->
    <g transform="translate(470.037303 257.430594)scale(0.0579 -0.0579)">
     <use xlink:href="#DejaVuSans-67"/>
     <use x="63.476562" xlink:href="#DejaVuSans-75"/>
     <use x="126.855469" xlink:href="#DejaVuSans-61"/>
     <use x="188.134766" xlink:href="#DejaVuSans-72"/>
     <use x="229.232422" xlink:href="#DejaVuSans-64"/>
    </g>
   </g>
   <g id="text_30">
    <!-- cattle -->
    <g transform="translate(340.371494 479.481586)scale(0.0579 -0.0579)">
     <use xlink:href="#DejaVuSans-63"/>
     <use x="54.980469" xlink:href="#DejaVuSans-61"/>
     <use x="116.259766" xlink:href="#DejaVuSans-74"/>
     <use x="155.46875" xlink:href="#DejaVuSans-74"/>
     <use x="194.677734" xlink:href="#DejaVuSans-6c"/>
     <use x="222.460938" xlink:href="#DejaVuSans-65"/>
    </g>
   </g>
   <g id="text_31">
    <!-- scenes -->
    <g transform="translate(502.407428 516.665445)scale(0.0579 -0.0579)">
     <use xlink:href="#DejaVuSans-73"/>
     <use x="52.099609" xlink:href="#DejaVuSans-63"/>
     <use x="107.080078" xlink:href="#DejaVuSans-65"/>
     <use x="168.603516" xlink:href="#DejaVuSans-6e"/>
     <use x="231.982422" xlink:href="#DejaVuSans-65"/>
     <use x="293.505859" xlink:href="#DejaVuSans-73"/>
    </g>
   </g>
   <g id="text_32">
    <!-- usa -->
    <g transform="translate(585.968851 246.44259)scale(0.0579 -0.0579)">
     <use xlink:href="#DejaVuSans-75"/>
     <use x="63.378906" xlink:href="#DejaVuSans-73"/>
     <use x="115.478516" xlink:href="#DejaVuSans-61"/>
    </g>
   </g>
   <g id="text_33">
    <!-- movie -->
    <defs>
     <path d="M 2.984375 54.6875 
L 12.5 54.6875 
L 29.59375 8.796875 
L 46.6875 54.6875 
L 56.203125 54.6875 
L 35.6875 0 
L 23.484375 0 
z
" id="DejaVuSans-76"/>
    </defs>
    <g transform="translate(1036.8 264.415782)scale(0.0579 -0.0579)">
     <use xlink:href="#DejaVuSans-6d"/>
     <use x="97.412109" xlink:href="#DejaVuSans-6f"/>
     <use x="158.59375" xlink:href="#DejaVuSans-76"/>
     <use x="217.773438" xlink:href="#DejaVuSans-69"/>
     <use x="245.556641" xlink:href="#DejaVuSans-65"/>
    </g>
   </g>
   <g id="text_34">
    <!-- heavy -->
    <g transform="translate(584.168169 528.241661)scale(0.0579 -0.0579)">
     <use xlink:href="#DejaVuSans-68"/>
     <use x="63.378906" xlink:href="#DejaVuSans-65"/>
     <use x="124.902344" xlink:href="#DejaVuSans-61"/>
     <use x="186.181641" xlink:href="#DejaVuSans-76"/>
     <use x="245.361328" xlink:href="#DejaVuSans-79"/>
    </g>
   </g>
   <g id="text_35">
    <!-- bikers -->
    <g transform="translate(309.301807 537.5788)scale(0.0579 -0.0579)">
     <use xlink:href="#DejaVuSans-62"/>
     <use x="63.476562" xlink:href="#DejaVuSans-69"/>
     <use x="91.259766" xlink:href="#DejaVuSans-6b"/>
     <use x="149.123047" xlink:href="#DejaVuSans-65"/>
     <use x="210.646484" xlink:href="#DejaVuSans-72"/>
     <use x="251.759766" xlink:href="#DejaVuSans-73"/>
    </g>
   </g>
   <g id="text_36">
    <!-- fields -->
    <g transform="translate(737.396165 608.08493)scale(0.0579 -0.0579)">
     <use xlink:href="#DejaVuSans-66"/>
     <use x="35.205078" xlink:href="#DejaVuSans-69"/>
     <use x="62.988281" xlink:href="#DejaVuSans-65"/>
     <use x="124.511719" xlink:href="#DejaVuSans-6c"/>
     <use x="152.294922" xlink:href="#DejaVuSans-64"/>
     <use x="215.771484" xlink:href="#DejaVuSans-73"/>
    </g>
   </g>
   <g id="text_37">
    <!-- arm -->
    <g transform="translate(801.77089 387.934695)scale(0.0579 -0.0579)">
     <use xlink:href="#DejaVuSans-61"/>
     <use x="61.279297" xlink:href="#DejaVuSans-72"/>
     <use x="102.376953" xlink:href="#DejaVuSans-6d"/>
    </g>
   </g>
   <g id="text_38">
    <!-- bikers -->
    <g transform="translate(422.187923 570.212381)scale(0.0579 -0.0579)">
     <use xlink:href="#DejaVuSans-62"/>
     <use x="63.476562" xlink:href="#DejaVuSans-69"/>
     <use x="91.259766" xlink:href="#DejaVuSans-6b"/>
     <use x="149.123047" xlink:href="#DejaVuSans-65"/>
     <use x="210.646484" xlink:href="#DejaVuSans-72"/>
     <use x="251.759766" xlink:href="#DejaVuSans-73"/>
    </g>
   </g>
   <g id="text_39">
    <!-- teamsters -->
    <g transform="translate(422.125148 418.602728)scale(0.0579 -0.0579)">
     <use xlink:href="#DejaVuSans-74"/>
     <use x="39.208984" xlink:href="#DejaVuSans-65"/>
     <use x="100.732422" xlink:href="#DejaVuSans-61"/>
     <use x="162.011719" xlink:href="#DejaVuSans-6d"/>
     <use x="259.423828" xlink:href="#DejaVuSans-73"/>
     <use x="311.523438" xlink:href="#DejaVuSans-74"/>
     <use x="350.732422" xlink:href="#DejaVuSans-65"/>
     <use x="412.255859" xlink:href="#DejaVuSans-72"/>
     <use x="453.369141" xlink:href="#DejaVuSans-73"/>
    </g>
   </g>
   <g id="text_40">
    <!-- fighters -->
    <g transform="translate(683.406466 271.221182)scale(0.0579 -0.0579)">
     <use xlink:href="#DejaVuSans-66"/>
     <use x="35.205078" xlink:href="#DejaVuSans-69"/>
     <use x="62.988281" xlink:href="#DejaVuSans-67"/>
     <use x="126.464844" xlink:href="#DejaVuSans-68"/>
     <use x="189.84375" xlink:href="#DejaVuSans-74"/>
     <use x="229.052734" xlink:href="#DejaVuSans-65"/>
     <use x="290.576172" xlink:href="#DejaVuSans-72"/>
     <use x="331.689453" xlink:href="#DejaVuSans-73"/>
    </g>
   </g>
   <g id="text_41">
    <!-- navy -->
    <g transform="translate(992.071846 445.741627)scale(0.0579 -0.0579)">
     <use xlink:href="#DejaVuSans-6e"/>
     <use x="63.378906" xlink:href="#DejaVuSans-61"/>
     <use x="124.658203" xlink:href="#DejaVuSans-76"/>
     <use x="183.837891" xlink:href="#DejaVuSans-79"/>
    </g>
   </g>
   <g id="text_42">
    <!-- ships -->
    <g transform="translate(538.904503 103.68)scale(0.0579 -0.0579)">
     <use xlink:href="#DejaVuSans-73"/>
     <use x="52.099609" xlink:href="#DejaVuSans-68"/>
     <use x="115.478516" xlink:href="#DejaVuSans-69"/>
     <use x="143.261719" xlink:href="#DejaVuSans-70"/>
     <use x="206.738281" xlink:href="#DejaVuSans-73"/>
    </g>
   </g>
   <g id="text_43">
    <!-- smack -->
    <g transform="translate(963.920575 487.909392)scale(0.0579 -0.0579)">
     <use xlink:href="#DejaVuSans-73"/>
     <use x="52.099609" xlink:href="#DejaVuSans-6d"/>
     <use x="149.511719" xlink:href="#DejaVuSans-61"/>
     <use x="210.791016" xlink:href="#DejaVuSans-63"/>
     <use x="265.771484" xlink:href="#DejaVuSans-6b"/>
    </g>
   </g>
   <g id="text_44">
    <!-- ice -->
    <g transform="translate(712.768337 317.283384)scale(0.0579 -0.0579)">
     <use xlink:href="#DejaVuSans-69"/>
     <use x="27.783203" xlink:href="#DejaVuSans-63"/>
     <use x="82.763672" xlink:href="#DejaVuSans-65"/>
    </g>
   </g>
   <g id="text_45">
    <!-- sports -->
    <g transform="translate(1024.871792 388.229064)scale(0.0579 -0.0579)">
     <use xlink:href="#DejaVuSans-73"/>
     <use x="52.099609" xlink:href="#DejaVuSans-70"/>
     <use x="115.576172" xlink:href="#DejaVuSans-6f"/>
     <use x="176.757812" xlink:href="#DejaVuSans-72"/>
     <use x="217.871094" xlink:href="#DejaVuSans-74"/>
     <use x="257.080078" xlink:href="#DejaVuSans-73"/>
    </g>
   </g>
   <g id="text_46">
    <!-- mob -->
    <g transform="translate(723.729881 490.962387)scale(0.0579 -0.0579)">
     <use xlink:href="#DejaVuSans-6d"/>
     <use x="97.412109" xlink:href="#DejaVuSans-6f"/>
     <use x="158.59375" xlink:href="#DejaVuSans-62"/>
    </g>
   </g>
   <g id="text_47">
    <!-- drivers -->
    <g transform="translate(744.378624 461.39279)scale(0.0579 -0.0579)">
     <use xlink:href="#DejaVuSans-64"/>
     <use x="63.476562" xlink:href="#DejaVuSans-72"/>
     <use x="104.589844" xlink:href="#DejaVuSans-69"/>
     <use x="132.373047" xlink:href="#DejaVuSans-76"/>
     <use x="191.552734" xlink:href="#DejaVuSans-65"/>
     <use x="253.076172" xlink:href="#DejaVuSans-72"/>
     <use x="294.189453" xlink:href="#DejaVuSans-73"/>
    </g>
   </g>
   <g id="text_48">
    <!-- nascar -->
    <g transform="translate(542.733486 429.474258)scale(0.0579 -0.0579)">
     <use xlink:href="#DejaVuSans-6e"/>
     <use x="63.378906" xlink:href="#DejaVuSans-61"/>
     <use x="124.658203" xlink:href="#DejaVuSans-73"/>
     <use x="176.757812" xlink:href="#DejaVuSans-63"/>
     <use x="231.738281" xlink:href="#DejaVuSans-61"/>
     <use x="293.017578" xlink:href="#DejaVuSans-72"/>
    </g>
   </g>
   <g id="text_49">
    <!-- stairs -->
    <g transform="translate(799.993317 432.872172)scale(0.0579 -0.0579)">
     <use xlink:href="#DejaVuSans-73"/>
     <use x="52.099609" xlink:href="#DejaVuSans-74"/>
     <use x="91.308594" xlink:href="#DejaVuSans-61"/>
     <use x="152.587891" xlink:href="#DejaVuSans-69"/>
     <use x="180.371094" xlink:href="#DejaVuSans-72"/>
     <use x="221.484375" xlink:href="#DejaVuSans-73"/>
    </g>
   </g>
   <g id="text_50">
    <!-- bikers -->
    <g transform="translate(468.109908 446.334054)scale(0.0579 -0.0579)">
     <use xlink:href="#DejaVuSans-62"/>
     <use x="63.476562" xlink:href="#DejaVuSans-69"/>
     <use x="91.259766" xlink:href="#DejaVuSans-6b"/>
     <use x="149.123047" xlink:href="#DejaVuSans-65"/>
     <use x="210.646484" xlink:href="#DejaVuSans-72"/>
     <use x="251.759766" xlink:href="#DejaVuSans-73"/>
    </g>
   </g>
   <g id="text_51">
    <!-- gun-free -->
    <g transform="translate(544.342242 397.872923)scale(0.0579 -0.0579)">
     <use xlink:href="#DejaVuSans-67"/>
     <use x="63.476562" xlink:href="#DejaVuSans-75"/>
     <use x="126.855469" xlink:href="#DejaVuSans-6e"/>
     <use x="190.234375" xlink:href="#DejaVuSans-2d"/>
     <use x="226.318359" xlink:href="#DejaVuSans-66"/>
     <use x="261.523438" xlink:href="#DejaVuSans-72"/>
     <use x="302.605469" xlink:href="#DejaVuSans-65"/>
     <use x="364.128906" xlink:href="#DejaVuSans-65"/>
    </g>
   </g>
   <g id="text_52">
    <!-- planes -->
    <g transform="translate(461.816799 371.554852)scale(0.0579 -0.0579)">
     <use xlink:href="#DejaVuSans-70"/>
     <use x="63.476562" xlink:href="#DejaVuSans-6c"/>
     <use x="91.259766" xlink:href="#DejaVuSans-61"/>
     <use x="152.539062" xlink:href="#DejaVuSans-6e"/>
     <use x="215.917969" xlink:href="#DejaVuSans-65"/>
     <use x="277.441406" xlink:href="#DejaVuSans-73"/>
    </g>
   </g>
   <g id="text_53">
    <!-- bikes -->
    <g transform="translate(822.256208 602.511205)scale(0.0579 -0.0579)">
     <use xlink:href="#DejaVuSans-62"/>
     <use x="63.476562" xlink:href="#DejaVuSans-69"/>
     <use x="91.259766" xlink:href="#DejaVuSans-6b"/>
     <use x="149.123047" xlink:href="#DejaVuSans-65"/>
     <use x="210.646484" xlink:href="#DejaVuSans-73"/>
    </g>
   </g>
   <g id="text_54">
    <!-- bikers -->
    <g transform="translate(361.484476 599.710185)scale(0.0579 -0.0579)">
     <use xlink:href="#DejaVuSans-62"/>
     <use x="63.476562" xlink:href="#DejaVuSans-69"/>
     <use x="91.259766" xlink:href="#DejaVuSans-6b"/>
     <use x="149.123047" xlink:href="#DejaVuSans-65"/>
     <use x="210.646484" xlink:href="#DejaVuSans-72"/>
     <use x="251.759766" xlink:href="#DejaVuSans-73"/>
    </g>
   </g>
   <g id="text_55">
    <!-- battleship -->
    <g transform="translate(484.409943 481.230056)scale(0.0579 -0.0579)">
     <use xlink:href="#DejaVuSans-62"/>
     <use x="63.476562" xlink:href="#DejaVuSans-61"/>
     <use x="124.755859" xlink:href="#DejaVuSans-74"/>
     <use x="163.964844" xlink:href="#DejaVuSans-74"/>
     <use x="203.173828" xlink:href="#DejaVuSans-6c"/>
     <use x="230.957031" xlink:href="#DejaVuSans-65"/>
     <use x="292.480469" xlink:href="#DejaVuSans-73"/>
     <use x="344.580078" xlink:href="#DejaVuSans-68"/>
     <use x="407.958984" xlink:href="#DejaVuSans-69"/>
     <use x="435.742188" xlink:href="#DejaVuSans-70"/>
    </g>
   </g>
   <g id="text_56">
    <!-- battles -->
    <g transform="translate(624.936287 661.098831)scale(0.0579 -0.0579)">
     <use xlink:href="#DejaVuSans-62"/>
     <use x="63.476562" xlink:href="#DejaVuSans-61"/>
     <use x="124.755859" xlink:href="#DejaVuSans-74"/>
     <use x="163.964844" xlink:href="#DejaVuSans-74"/>
     <use x="203.173828" xlink:href="#DejaVuSans-6c"/>
     <use x="230.957031" xlink:href="#DejaVuSans-65"/>
     <use x="292.480469" xlink:href="#DejaVuSans-73"/>
    </g>
   </g>
   <g id="text_57">
    <!-- silver -->
    <g transform="translate(738.498178 402.868947)scale(0.0579 -0.0579)">
     <use xlink:href="#DejaVuSans-73"/>
     <use x="52.099609" xlink:href="#DejaVuSans-69"/>
     <use x="79.882812" xlink:href="#DejaVuSans-6c"/>
     <use x="107.666016" xlink:href="#DejaVuSans-76"/>
     <use x="166.845703" xlink:href="#DejaVuSans-65"/>
     <use x="228.369141" xlink:href="#DejaVuSans-72"/>
    </g>
   </g>
   <g id="text_58">
    <!-- islands -->
    <g transform="translate(761.688948 651.786933)scale(0.0579 -0.0579)">
     <use xlink:href="#DejaVuSans-69"/>
     <use x="27.783203" xlink:href="#DejaVuSans-73"/>
     <use x="79.882812" xlink:href="#DejaVuSans-6c"/>
     <use x="107.666016" xlink:href="#DejaVuSans-61"/>
     <use x="168.945312" xlink:href="#DejaVuSans-6e"/>
     <use x="232.324219" xlink:href="#DejaVuSans-64"/>
     <use x="295.800781" xlink:href="#DejaVuSans-73"/>
    </g>
   </g>
   <g id="text_59">
    <!-- wine -->
    <defs>
     <path d="M 4.203125 54.6875 
L 13.1875 54.6875 
L 24.421875 12.015625 
L 35.59375 54.6875 
L 46.1875 54.6875 
L 57.421875 12.015625 
L 68.609375 54.6875 
L 77.59375 54.6875 
L 63.28125 0 
L 52.6875 0 
L 40.921875 44.828125 
L 29.109375 0 
L 18.5 0 
z
" id="DejaVuSans-77"/>
    </defs>
    <g transform="translate(393.530226 384.355674)scale(0.0579 -0.0579)">
     <use xlink:href="#DejaVuSans-77"/>
     <use x="81.787109" xlink:href="#DejaVuSans-69"/>
     <use x="109.570312" xlink:href="#DejaVuSans-6e"/>
     <use x="172.949219" xlink:href="#DejaVuSans-65"/>
    </g>
   </g>
   <g id="text_60">
    <!-- airline -->
    <g transform="translate(615.68899 390.129089)scale(0.0579 -0.0579)">
     <use xlink:href="#DejaVuSans-61"/>
     <use x="61.279297" xlink:href="#DejaVuSans-69"/>
     <use x="89.0625" xlink:href="#DejaVuSans-72"/>
     <use x="130.175781" xlink:href="#DejaVuSans-6c"/>
     <use x="157.958984" xlink:href="#DejaVuSans-69"/>
     <use x="185.742188" xlink:href="#DejaVuSans-6e"/>
     <use x="249.121094" xlink:href="#DejaVuSans-65"/>
    </g>
   </g>
   <g id="text_61">
    <!-- steaks -->
    <g transform="translate(278.486926 614.029438)scale(0.0579 -0.0579)">
     <use xlink:href="#DejaVuSans-73"/>
     <use x="52.099609" xlink:href="#DejaVuSans-74"/>
     <use x="91.308594" xlink:href="#DejaVuSans-65"/>
     <use x="152.832031" xlink:href="#DejaVuSans-61"/>
     <use x="214.111328" xlink:href="#DejaVuSans-6b"/>
     <use x="272.021484" xlink:href="#DejaVuSans-73"/>
    </g>
   </g>
   <g id="text_62">
    <!-- bikers -->
    <g transform="translate(378.392313 550.571163)scale(0.0579 -0.0579)">
     <use xlink:href="#DejaVuSans-62"/>
     <use x="63.476562" xlink:href="#DejaVuSans-69"/>
     <use x="91.259766" xlink:href="#DejaVuSans-6b"/>
     <use x="149.123047" xlink:href="#DejaVuSans-65"/>
     <use x="210.646484" xlink:href="#DejaVuSans-72"/>
     <use x="251.759766" xlink:href="#DejaVuSans-73"/>
    </g>
   </g>
   <g id="text_63">
    <!-- arena -->
    <g transform="translate(882.333624 417.317823)scale(0.0579 -0.0579)">
     <use xlink:href="#DejaVuSans-61"/>
     <use x="61.279297" xlink:href="#DejaVuSans-72"/>
     <use x="102.361328" xlink:href="#DejaVuSans-65"/>
     <use x="163.884766" xlink:href="#DejaVuSans-6e"/>
     <use x="227.263672" xlink:href="#DejaVuSans-61"/>
    </g>
   </g>
   <g id="text_64">
    <!-- navy -->
    <g transform="translate(470.299645 625.013521)scale(0.0579 -0.0579)">
     <use xlink:href="#DejaVuSans-6e"/>
     <use x="63.378906" xlink:href="#DejaVuSans-61"/>
     <use x="124.658203" xlink:href="#DejaVuSans-76"/>
     <use x="183.837891" xlink:href="#DejaVuSans-79"/>
    </g>
   </g>
   <g id="text_65">
    <!-- harriers -->
    <g transform="translate(513.245046 552.685589)scale(0.0579 -0.0579)">
     <use xlink:href="#DejaVuSans-68"/>
     <use x="63.378906" xlink:href="#DejaVuSans-61"/>
     <use x="124.658203" xlink:href="#DejaVuSans-72"/>
     <use x="165.755859" xlink:href="#DejaVuSans-72"/>
     <use x="206.869141" xlink:href="#DejaVuSans-69"/>
     <use x="234.652344" xlink:href="#DejaVuSans-65"/>
     <use x="296.175781" xlink:href="#DejaVuSans-72"/>
     <use x="337.289062" xlink:href="#DejaVuSans-73"/>
    </g>
   </g>
   <g id="text_66">
    <!-- tombs -->
    <g transform="translate(652.824258 441.77207)scale(0.0579 -0.0579)">
     <use xlink:href="#DejaVuSans-74"/>
     <use x="39.208984" xlink:href="#DejaVuSans-6f"/>
     <use x="100.390625" xlink:href="#DejaVuSans-6d"/>
     <use x="197.802734" xlink:href="#DejaVuSans-62"/>
     <use x="261.279297" xlink:href="#DejaVuSans-73"/>
    </g>
   </g>
   <g id="text_67">
    <!-- cattle -->
    <g transform="translate(327.339512 768.96)scale(0.0579 -0.0579)">
     <use xlink:href="#DejaVuSans-63"/>
     <use x="54.980469" xlink:href="#DejaVuSans-61"/>
     <use x="116.259766" xlink:href="#DejaVuSans-74"/>
     <use x="155.46875" xlink:href="#DejaVuSans-74"/>
     <use x="194.677734" xlink:href="#DejaVuSans-6c"/>
     <use x="222.460938" xlink:href="#DejaVuSans-65"/>
    </g>
   </g>
   <g id="text_68">
    <!-- acres -->
    <g transform="translate(635.442003 473.849725)scale(0.0579 -0.0579)">
     <use xlink:href="#DejaVuSans-61"/>
     <use x="61.279297" xlink:href="#DejaVuSans-63"/>
     <use x="116.259766" xlink:href="#DejaVuSans-72"/>
     <use x="157.341797" xlink:href="#DejaVuSans-65"/>
     <use x="218.865234" xlink:href="#DejaVuSans-73"/>
    </g>
   </g>
   <g id="text_69">
    <!-- sean -->
    <g transform="translate(682.224193 389.898571)scale(0.0579 -0.0579)">
     <use xlink:href="#DejaVuSans-73"/>
     <use x="52.099609" xlink:href="#DejaVuSans-65"/>
     <use x="113.623047" xlink:href="#DejaVuSans-61"/>
     <use x="174.902344" xlink:href="#DejaVuSans-6e"/>
    </g>
   </g>
   <g id="text_70">
    <!-- pits -->
    <g transform="translate(577.943812 626.929276)scale(0.0579 -0.0579)">
     <use xlink:href="#DejaVuSans-70"/>
     <use x="63.476562" xlink:href="#DejaVuSans-69"/>
     <use x="91.259766" xlink:href="#DejaVuSans-74"/>
     <use x="130.46875" xlink:href="#DejaVuSans-73"/>
    </g>
   </g>
   <g id="text_71">
    <!-- plank -->
    <g transform="translate(686.301054 359.831802)scale(0.0579 -0.0579)">
     <use xlink:href="#DejaVuSans-70"/>
     <use x="63.476562" xlink:href="#DejaVuSans-6c"/>
     <use x="91.259766" xlink:href="#DejaVuSans-61"/>
     <use x="152.539062" xlink:href="#DejaVuSans-6e"/>
     <use x="215.917969" xlink:href="#DejaVuSans-6b"/>
    </g>
   </g>
   <g id="text_72">
    <!-- feet -->
    <g transform="translate(159.403047 323.275592)scale(0.0579 -0.0579)">
     <use xlink:href="#DejaVuSans-66"/>
     <use x="35.205078" xlink:href="#DejaVuSans-65"/>
     <use x="96.728516" xlink:href="#DejaVuSans-65"/>
     <use x="158.251953" xlink:href="#DejaVuSans-74"/>
    </g>
   </g>
   <g id="text_73">
    <!-- bikers -->
    <g transform="translate(326.536025 565.990669)scale(0.0579 -0.0579)">
     <use xlink:href="#DejaVuSans-62"/>
     <use x="63.476562" xlink:href="#DejaVuSans-69"/>
     <use x="91.259766" xlink:href="#DejaVuSans-6b"/>
     <use x="149.123047" xlink:href="#DejaVuSans-65"/>
     <use x="210.646484" xlink:href="#DejaVuSans-72"/>
     <use x="251.759766" xlink:href="#DejaVuSans-73"/>
    </g>
   </g>
   <g id="text_74">
    <!-- feet -->
    <g transform="translate(903.425684 319.32349)scale(0.0579 -0.0579)">
     <use xlink:href="#DejaVuSans-66"/>
     <use x="35.205078" xlink:href="#DejaVuSans-65"/>
     <use x="96.728516" xlink:href="#DejaVuSans-65"/>
     <use x="158.251953" xlink:href="#DejaVuSans-74"/>
    </g>
   </g>
   <g id="text_75">
    <!-- wine -->
    <g transform="translate(317.317126 405.560729)scale(0.0579 -0.0579)">
     <use xlink:href="#DejaVuSans-77"/>
     <use x="81.787109" xlink:href="#DejaVuSans-69"/>
     <use x="109.570312" xlink:href="#DejaVuSans-6e"/>
     <use x="172.949219" xlink:href="#DejaVuSans-65"/>
    </g>
   </g>
   <g id="text_76">
    <!-- steaks -->
    <g transform="translate(654.133159 511.973696)scale(0.0579 -0.0579)">
     <use xlink:href="#DejaVuSans-73"/>
     <use x="52.099609" xlink:href="#DejaVuSans-74"/>
     <use x="91.308594" xlink:href="#DejaVuSans-65"/>
     <use x="152.832031" xlink:href="#DejaVuSans-61"/>
     <use x="214.111328" xlink:href="#DejaVuSans-6b"/>
     <use x="272.021484" xlink:href="#DejaVuSans-73"/>
    </g>
   </g>
   <g id="text_77">
    <!-- capita -->
    <g transform="translate(895.013776 372.267014)scale(0.0579 -0.0579)">
     <use xlink:href="#DejaVuSans-63"/>
     <use x="54.980469" xlink:href="#DejaVuSans-61"/>
     <use x="116.259766" xlink:href="#DejaVuSans-70"/>
     <use x="179.736328" xlink:href="#DejaVuSans-69"/>
     <use x="207.519531" xlink:href="#DejaVuSans-74"/>
     <use x="246.728516" xlink:href="#DejaVuSans-61"/>
    </g>
   </g>
   <g id="text_78">
    <!-- bombs -->
    <g transform="translate(930.946536 573.632323)scale(0.0579 -0.0579)">
     <use xlink:href="#DejaVuSans-62"/>
     <use x="63.476562" xlink:href="#DejaVuSans-6f"/>
     <use x="124.658203" xlink:href="#DejaVuSans-6d"/>
     <use x="222.070312" xlink:href="#DejaVuSans-62"/>
     <use x="285.546875" xlink:href="#DejaVuSans-73"/>
    </g>
   </g>
   <g id="text_79">
    <!-- builder -->
    <g transform="translate(439.4023 668.270179)scale(0.0579 -0.0579)">
     <use xlink:href="#DejaVuSans-62"/>
     <use x="63.476562" xlink:href="#DejaVuSans-75"/>
     <use x="126.855469" xlink:href="#DejaVuSans-69"/>
     <use x="154.638672" xlink:href="#DejaVuSans-6c"/>
     <use x="182.421875" xlink:href="#DejaVuSans-64"/>
     <use x="245.898438" xlink:href="#DejaVuSans-65"/>
     <use x="307.421875" xlink:href="#DejaVuSans-72"/>
    </g>
   </g>
   <g id="text_80">
    <!-- landmark -->
    <g transform="translate(338.126971 321.371961)scale(0.0579 -0.0579)">
     <use xlink:href="#DejaVuSans-6c"/>
     <use x="27.783203" xlink:href="#DejaVuSans-61"/>
     <use x="89.0625" xlink:href="#DejaVuSans-6e"/>
     <use x="152.441406" xlink:href="#DejaVuSans-64"/>
     <use x="215.917969" xlink:href="#DejaVuSans-6d"/>
     <use x="313.330078" xlink:href="#DejaVuSans-61"/>
     <use x="374.609375" xlink:href="#DejaVuSans-72"/>
     <use x="415.722656" xlink:href="#DejaVuSans-6b"/>
    </g>
   </g>
   <g id="text_81">
    <!-- ropes -->
    <g transform="translate(543.538623 492.597292)scale(0.0579 -0.0579)">
     <use xlink:href="#DejaVuSans-72"/>
     <use x="41.082031" xlink:href="#DejaVuSans-6f"/>
     <use x="102.263672" xlink:href="#DejaVuSans-70"/>
     <use x="165.740234" xlink:href="#DejaVuSans-65"/>
     <use x="227.263672" xlink:href="#DejaVuSans-73"/>
    </g>
   </g>
   <g id="text_82">
    <!-- navy -->
    <g transform="translate(498.326245 606.673451)scale(0.0579 -0.0579)">
     <use xlink:href="#DejaVuSans-6e"/>
     <use x="63.378906" xlink:href="#DejaVuSans-61"/>
     <use x="124.658203" xlink:href="#DejaVuSans-76"/>
     <use x="183.837891" xlink:href="#DejaVuSans-79"/>
    </g>
   </g>
   <g id="text_83">
    <!-- fleet -->
    <g transform="translate(674.967206 421.920616)scale(0.0579 -0.0579)">
     <use xlink:href="#DejaVuSans-66"/>
     <use x="35.205078" xlink:href="#DejaVuSans-6c"/>
     <use x="62.988281" xlink:href="#DejaVuSans-65"/>
     <use x="124.511719" xlink:href="#DejaVuSans-65"/>
     <use x="186.035156" xlink:href="#DejaVuSans-74"/>
    </g>
   </g>
   <g id="text_84">
    <!-- airplanes -->
    <g transform="translate(472.543575 395.708667)scale(0.0579 -0.0579)">
     <use xlink:href="#DejaVuSans-61"/>
     <use x="61.279297" xlink:href="#DejaVuSans-69"/>
     <use x="89.0625" xlink:href="#DejaVuSans-72"/>
     <use x="130.175781" xlink:href="#DejaVuSans-70"/>
     <use x="193.652344" xlink:href="#DejaVuSans-6c"/>
     <use x="221.435547" xlink:href="#DejaVuSans-61"/>
     <use x="282.714844" xlink:href="#DejaVuSans-6e"/>
     <use x="346.09375" xlink:href="#DejaVuSans-65"/>
     <use x="407.617188" xlink:href="#DejaVuSans-73"/>
    </g>
   </g>
   <g id="text_85">
    <!-- nascar -->
    <g transform="translate(222.82583 520.027117)scale(0.0579 -0.0579)">
     <use xlink:href="#DejaVuSans-6e"/>
     <use x="63.378906" xlink:href="#DejaVuSans-61"/>
     <use x="124.658203" xlink:href="#DejaVuSans-73"/>
     <use x="176.757812" xlink:href="#DejaVuSans-63"/>
     <use x="231.738281" xlink:href="#DejaVuSans-61"/>
     <use x="293.017578" xlink:href="#DejaVuSans-72"/>
    </g>
   </g>
   <g id="text_86">
    <!-- played -->
    <g transform="translate(911.119362 519.904723)scale(0.0579 -0.0579)">
     <use xlink:href="#DejaVuSans-70"/>
     <use x="63.476562" xlink:href="#DejaVuSans-6c"/>
     <use x="91.259766" xlink:href="#DejaVuSans-61"/>
     <use x="152.539062" xlink:href="#DejaVuSans-79"/>
     <use x="211.71875" xlink:href="#DejaVuSans-65"/>
     <use x="273.242188" xlink:href="#DejaVuSans-64"/>
    </g>
   </g>
   <g id="text_87">
    <!-- queens -->
    <g transform="translate(144 458.72014)scale(0.0579 -0.0579)">
     <use xlink:href="#DejaVuSans-71"/>
     <use x="63.476562" xlink:href="#DejaVuSans-75"/>
     <use x="126.855469" xlink:href="#DejaVuSans-65"/>
     <use x="188.378906" xlink:href="#DejaVuSans-65"/>
     <use x="249.902344" xlink:href="#DejaVuSans-6e"/>
     <use x="313.28125" xlink:href="#DejaVuSans-73"/>
    </g>
   </g>
   <g id="text_88">
    <!-- airport -->
    <g transform="translate(660.776655 610.019897)scale(0.0579 -0.0579)">
     <use xlink:href="#DejaVuSans-61"/>
     <use x="61.279297" xlink:href="#DejaVuSans-69"/>
     <use x="89.0625" xlink:href="#DejaVuSans-72"/>
     <use x="130.175781" xlink:href="#DejaVuSans-70"/>
     <use x="193.652344" xlink:href="#DejaVuSans-6f"/>
     <use x="254.833984" xlink:href="#DejaVuSans-72"/>
     <use x="295.947266" xlink:href="#DejaVuSans-74"/>
    </g>
   </g>
   <g id="text_89">
    <!-- guard -->
    <g transform="translate(585.125439 357.291885)scale(0.0579 -0.0579)">
     <use xlink:href="#DejaVuSans-67"/>
     <use x="63.476562" xlink:href="#DejaVuSans-75"/>
     <use x="126.855469" xlink:href="#DejaVuSans-61"/>
     <use x="188.134766" xlink:href="#DejaVuSans-72"/>
     <use x="229.232422" xlink:href="#DejaVuSans-64"/>
    </g>
   </g>
   <g id="text_90">
    <!-- nascar -->
    <g transform="translate(751.681201 528.14712)scale(0.0579 -0.0579)">
     <use xlink:href="#DejaVuSans-6e"/>
     <use x="63.378906" xlink:href="#DejaVuSans-61"/>
     <use x="124.658203" xlink:href="#DejaVuSans-73"/>
     <use x="176.757812" xlink:href="#DejaVuSans-63"/>
     <use x="231.738281" xlink:href="#DejaVuSans-61"/>
     <use x="293.017578" xlink:href="#DejaVuSans-72"/>
    </g>
   </g>
   <g id="text_91">
    <!-- bridge -->
    <g transform="translate(709.258883 573.550974)scale(0.0579 -0.0579)">
     <use xlink:href="#DejaVuSans-62"/>
     <use x="63.476562" xlink:href="#DejaVuSans-72"/>
     <use x="104.589844" xlink:href="#DejaVuSans-69"/>
     <use x="132.373047" xlink:href="#DejaVuSans-64"/>
     <use x="195.849609" xlink:href="#DejaVuSans-67"/>
     <use x="259.326172" xlink:href="#DejaVuSans-65"/>
    </g>
   </g>
   <g id="text_92">
    <!-- navy -->
    <g transform="translate(247.540086 381.312218)scale(0.0579 -0.0579)">
     <use xlink:href="#DejaVuSans-6e"/>
     <use x="63.378906" xlink:href="#DejaVuSans-61"/>
     <use x="124.658203" xlink:href="#DejaVuSans-76"/>
     <use x="183.837891" xlink:href="#DejaVuSans-79"/>
    </g>
   </g>
   <g id="text_93">
    <!-- ships -->
    <g transform="translate(628.689816 182.04724)scale(0.0579 -0.0579)">
     <use xlink:href="#DejaVuSans-73"/>
     <use x="52.099609" xlink:href="#DejaVuSans-68"/>
     <use x="115.478516" xlink:href="#DejaVuSans-69"/>
     <use x="143.261719" xlink:href="#DejaVuSans-70"/>
     <use x="206.738281" xlink:href="#DejaVuSans-73"/>
    </g>
   </g>
   <g id="text_94">
    <!-- island -->
    <g transform="translate(325.582413 365.962866)scale(0.0579 -0.0579)">
     <use xlink:href="#DejaVuSans-69"/>
     <use x="27.783203" xlink:href="#DejaVuSans-73"/>
     <use x="79.882812" xlink:href="#DejaVuSans-6c"/>
     <use x="107.666016" xlink:href="#DejaVuSans-61"/>
     <use x="168.945312" xlink:href="#DejaVuSans-6e"/>
     <use x="232.324219" xlink:href="#DejaVuSans-64"/>
    </g>
   </g>
   <g id="text_95">
    <!-- played -->
    <g transform="translate(685.888465 537.507856)scale(0.0579 -0.0579)">
     <use xlink:href="#DejaVuSans-70"/>
     <use x="63.476562" xlink:href="#DejaVuSans-6c"/>
     <use x="91.259766" xlink:href="#DejaVuSans-61"/>
     <use x="152.539062" xlink:href="#DejaVuSans-79"/>
     <use x="211.71875" xlink:href="#DejaVuSans-65"/>
     <use x="273.242188" xlink:href="#DejaVuSans-64"/>
    </g>
   </g>
   <g id="text_96">
    <!-- carpet -->
    <g transform="translate(572.294808 581.322354)scale(0.0579 -0.0579)">
     <use xlink:href="#DejaVuSans-63"/>
     <use x="54.980469" xlink:href="#DejaVuSans-61"/>
     <use x="116.259766" xlink:href="#DejaVuSans-72"/>
     <use x="157.373047" xlink:href="#DejaVuSans-70"/>
     <use x="220.849609" xlink:href="#DejaVuSans-65"/>
     <use x="282.373047" xlink:href="#DejaVuSans-74"/>
    </g>
   </g>
   <g id="text_97">
    <!-- corps -->
    <g transform="translate(819.559375 347.655338)scale(0.0579 -0.0579)">
     <use xlink:href="#DejaVuSans-63"/>
     <use x="54.980469" xlink:href="#DejaVuSans-6f"/>
     <use x="116.162109" xlink:href="#DejaVuSans-72"/>
     <use x="157.275391" xlink:href="#DejaVuSans-70"/>
     <use x="220.751953" xlink:href="#DejaVuSans-73"/>
    </g>
   </g>
   <g id="text_98">
    <!-- battle -->
    <g transform="translate(243.025492 571.163819)scale(0.0579 -0.0579)">
     <use xlink:href="#DejaVuSans-62"/>
     <use x="63.476562" xlink:href="#DejaVuSans-61"/>
     <use x="124.755859" xlink:href="#DejaVuSans-74"/>
     <use x="163.964844" xlink:href="#DejaVuSans-74"/>
     <use x="203.173828" xlink:href="#DejaVuSans-6c"/>
     <use x="230.957031" xlink:href="#DejaVuSans-65"/>
    </g>
   </g>
   <g id="text_99">
    <!-- stars -->
    <g transform="translate(628.982142 558.407888)scale(0.0579 -0.0579)">
     <use xlink:href="#DejaVuSans-73"/>
     <use x="52.099609" xlink:href="#DejaVuSans-74"/>
     <use x="91.308594" xlink:href="#DejaVuSans-61"/>
     <use x="152.587891" xlink:href="#DejaVuSans-72"/>
     <use x="193.701172" xlink:href="#DejaVuSans-73"/>
    </g>
   </g>
   <g id="text_100">
    <!-- landmark -->
    <g transform="translate(722.576483 433.384528)scale(0.0579 -0.0579)">
     <use xlink:href="#DejaVuSans-6c"/>
     <use x="27.783203" xlink:href="#DejaVuSans-61"/>
     <use x="89.0625" xlink:href="#DejaVuSans-6e"/>
     <use x="152.441406" xlink:href="#DejaVuSans-64"/>
     <use x="215.917969" xlink:href="#DejaVuSans-6d"/>
     <use x="313.330078" xlink:href="#DejaVuSans-61"/>
     <use x="374.609375" xlink:href="#DejaVuSans-72"/>
     <use x="415.722656" xlink:href="#DejaVuSans-6b"/>
    </g>
   </g>
   <g id="text_101">
    <!-- chug -->
    <g transform="translate(597.474869 449.531783)scale(0.0579 -0.0579)">
     <use xlink:href="#DejaVuSans-63"/>
     <use x="54.980469" xlink:href="#DejaVuSans-68"/>
     <use x="118.359375" xlink:href="#DejaVuSans-75"/>
     <use x="181.738281" xlink:href="#DejaVuSans-67"/>
    </g>
   </g>
   <g id="text_102">
    <!-- island -->
    <g transform="translate(237.710529 454.640908)scale(0.0579 -0.0579)">
     <use xlink:href="#DejaVuSans-69"/>
     <use x="27.783203" xlink:href="#DejaVuSans-73"/>
     <use x="79.882812" xlink:href="#DejaVuSans-6c"/>
     <use x="107.666016" xlink:href="#DejaVuSans-61"/>
     <use x="168.945312" xlink:href="#DejaVuSans-6e"/>
     <use x="232.324219" xlink:href="#DejaVuSans-64"/>
    </g>
   </g>
   <g id="text_103">
    <!-- Cluster 5 -->
    <defs>
     <path d="M 64.40625 67.28125 
L 64.40625 56.890625 
Q 59.421875 61.53125 53.78125 63.8125 
Q 48.140625 66.109375 41.796875 66.109375 
Q 29.296875 66.109375 22.65625 58.46875 
Q 16.015625 50.828125 16.015625 36.375 
Q 16.015625 21.96875 22.65625 14.328125 
Q 29.296875 6.6875 41.796875 6.6875 
Q 48.140625 6.6875 53.78125 8.984375 
Q 59.421875 11.28125 64.40625 15.921875 
L 64.40625 5.609375 
Q 59.234375 2.09375 53.4375 0.328125 
Q 47.65625 -1.421875 41.21875 -1.421875 
Q 24.65625 -1.421875 15.125 8.703125 
Q 5.609375 18.84375 5.609375 36.375 
Q 5.609375 53.953125 15.125 64.078125 
Q 24.65625 74.21875 41.21875 74.21875 
Q 47.75 74.21875 53.53125 72.484375 
Q 59.328125 70.75 64.40625 67.28125 
" id="DejaVuSans-43"/>
     <path id="DejaVuSans-20"/>
     <path d="M 10.796875 72.90625 
L 49.515625 72.90625 
L 49.515625 64.59375 
L 19.828125 64.59375 
L 19.828125 46.734375 
Q 21.96875 47.46875 24.109375 47.828125 
Q 26.265625 48.1875 28.421875 48.1875 
Q 40.625 48.1875 47.75 41.5 
Q 54.890625 34.8125 54.890625 23.390625 
Q 54.890625 11.625 47.5625 5.09375 
Q 40.234375 -1.421875 26.90625 -1.421875 
Q 22.3125 -1.421875 17.546875 -0.640625 
Q 12.796875 0.140625 7.71875 1.703125 
L 7.71875 11.625 
Q 12.109375 9.234375 16.796875 8.0625 
Q 21.484375 6.890625 26.703125 6.890625 
Q 35.15625 6.890625 40.078125 11.328125 
Q 45.015625 15.765625 45.015625 23.390625 
Q 45.015625 31 40.078125 35.4375 
Q 35.15625 39.890625 26.703125 39.890625 
Q 22.75 39.890625 18.8125 39.015625 
Q 14.890625 38.140625 10.796875 36.28125 
z
" id="DejaVuSans-35"/>
    </defs>
    <g transform="translate(563.380312 97.68)scale(0.12 -0.12)">
     <use xlink:href="#DejaVuSans-43"/>
     <use x="69.824219" xlink:href="#DejaVuSans-6c"/>
     <use x="97.607422" xlink:href="#DejaVuSans-75"/>
     <use x="160.986328" xlink:href="#DejaVuSans-73"/>
     <use x="213.085938" xlink:href="#DejaVuSans-74"/>
     <use x="252.294922" xlink:href="#DejaVuSans-65"/>
     <use x="313.818359" xlink:href="#DejaVuSans-72"/>
     <use x="354.931641" xlink:href="#DejaVuSans-20"/>
     <use x="386.71875" xlink:href="#DejaVuSans-35"/>
    </g>
   </g>
  </g>
 </g>
</svg>
