<?xml version="1.0" encoding="utf-8" standalone="no"?>
<!DOCTYPE svg PUBLIC "-//W3C//DTD SVG 1.1//EN"
  "http://www.w3.org/Graphics/SVG/1.1/DTD/svg11.dtd">
<!-- Created with matplotlib (http://matplotlib.org/) -->
<svg height="864pt" version="1.1" viewBox="0 0 1152 864" width="1152pt" xmlns="http://www.w3.org/2000/svg" xmlns:xlink="http://www.w3.org/1999/xlink">
 <defs>
  <style type="text/css">
*{stroke-linecap:butt;stroke-linejoin:round;}
  </style>
 </defs>
 <g id="figure_1">
  <g id="patch_1">
   <path d="M 0 864 
L 1152 864 
L 1152 0 
L 0 0 
z
" style="fill:#ffffff;"/>
  </g>
  <g id="axes_1">
   <g id="patch_2">
    <path d="M 144 768.96 
L 1036.8 768.96 
L 1036.8 103.68 
L 144 103.68 
z
" style="fill:#ffffff;"/>
   </g>
   <g id="matplotlib.axis_1"/>
   <g id="matplotlib.axis_2"/>
   <g id="patch_3">
    <path d="M 144 768.96 
L 144 103.68 
" style="fill:none;stroke:#000000;stroke-linecap:square;stroke-linejoin:miter;stroke-width:0.8;"/>
   </g>
   <g id="patch_4">
    <path d="M 1036.8 768.96 
L 1036.8 103.68 
" style="fill:none;stroke:#000000;stroke-linecap:square;stroke-linejoin:miter;stroke-width:0.8;"/>
   </g>
   <g id="patch_5">
    <path d="M 144 768.96 
L 1036.8 768.96 
" style="fill:none;stroke:#000000;stroke-linecap:square;stroke-linejoin:miter;stroke-width:0.8;"/>
   </g>
   <g id="patch_6">
    <path d="M 144 103.68 
L 1036.8 103.68 
" style="fill:none;stroke:#000000;stroke-linecap:square;stroke-linejoin:miter;stroke-width:0.8;"/>
   </g>
   <g id="text_1">
    <!-- gays -->
    <defs>
     <path d="M 45.40625 27.984375 
Q 45.40625 37.75 41.375 43.109375 
Q 37.359375 48.484375 30.078125 48.484375 
Q 22.859375 48.484375 18.828125 43.109375 
Q 14.796875 37.75 14.796875 27.984375 
Q 14.796875 18.265625 18.828125 12.890625 
Q 22.859375 7.515625 30.078125 7.515625 
Q 37.359375 7.515625 41.375 12.890625 
Q 45.40625 18.265625 45.40625 27.984375 
M 54.390625 6.78125 
Q 54.390625 -7.171875 48.1875 -13.984375 
Q 42 -20.796875 29.203125 -20.796875 
Q 24.46875 -20.796875 20.265625 -20.09375 
Q 16.0625 -19.390625 12.109375 -17.921875 
L 12.109375 -9.1875 
Q 16.0625 -11.328125 19.921875 -12.34375 
Q 23.78125 -13.375 27.78125 -13.375 
Q 36.625 -13.375 41.015625 -8.765625 
Q 45.40625 -4.15625 45.40625 5.171875 
L 45.40625 9.625 
Q 42.625 4.78125 38.28125 2.390625 
Q 33.9375 0 27.875 0 
Q 17.828125 0 11.671875 7.65625 
Q 5.515625 15.328125 5.515625 27.984375 
Q 5.515625 40.671875 11.671875 48.328125 
Q 17.828125 56 27.875 56 
Q 33.9375 56 38.28125 53.609375 
Q 42.625 51.21875 45.40625 46.390625 
L 45.40625 54.6875 
L 54.390625 54.6875 
z
" id="DejaVuSans-67"/>
     <path d="M 34.28125 27.484375 
Q 23.390625 27.484375 19.1875 25 
Q 14.984375 22.515625 14.984375 16.5 
Q 14.984375 11.71875 18.140625 8.90625 
Q 21.296875 6.109375 26.703125 6.109375 
Q 34.1875 6.109375 38.703125 11.40625 
Q 43.21875 16.703125 43.21875 25.484375 
L 43.21875 27.484375 
z
M 52.203125 31.203125 
L 52.203125 0 
L 43.21875 0 
L 43.21875 8.296875 
Q 40.140625 3.328125 35.546875 0.953125 
Q 30.953125 -1.421875 24.3125 -1.421875 
Q 15.921875 -1.421875 10.953125 3.296875 
Q 6 8.015625 6 15.921875 
Q 6 25.140625 12.171875 29.828125 
Q 18.359375 34.515625 30.609375 34.515625 
L 43.21875 34.515625 
L 43.21875 35.40625 
Q 43.21875 41.609375 39.140625 45 
Q 35.0625 48.390625 27.6875 48.390625 
Q 23 48.390625 18.546875 47.265625 
Q 14.109375 46.140625 10.015625 43.890625 
L 10.015625 52.203125 
Q 14.9375 54.109375 19.578125 55.046875 
Q 24.21875 56 28.609375 56 
Q 40.484375 56 46.34375 49.84375 
Q 52.203125 43.703125 52.203125 31.203125 
" id="DejaVuSans-61"/>
     <path d="M 32.171875 -5.078125 
Q 28.375 -14.84375 24.75 -17.8125 
Q 21.140625 -20.796875 15.09375 -20.796875 
L 7.90625 -20.796875 
L 7.90625 -13.28125 
L 13.1875 -13.28125 
Q 16.890625 -13.28125 18.9375 -11.515625 
Q 21 -9.765625 23.484375 -3.21875 
L 25.09375 0.875 
L 2.984375 54.6875 
L 12.5 54.6875 
L 29.59375 11.921875 
L 46.6875 54.6875 
L 56.203125 54.6875 
z
" id="DejaVuSans-79"/>
     <path d="M 44.28125 53.078125 
L 44.28125 44.578125 
Q 40.484375 46.53125 36.375 47.5 
Q 32.28125 48.484375 27.875 48.484375 
Q 21.1875 48.484375 17.84375 46.4375 
Q 14.5 44.390625 14.5 40.28125 
Q 14.5 37.15625 16.890625 35.375 
Q 19.28125 33.59375 26.515625 31.984375 
L 29.59375 31.296875 
Q 39.15625 29.25 43.1875 25.515625 
Q 47.21875 21.78125 47.21875 15.09375 
Q 47.21875 7.46875 41.1875 3.015625 
Q 35.15625 -1.421875 24.609375 -1.421875 
Q 20.21875 -1.421875 15.453125 -0.5625 
Q 10.6875 0.296875 5.421875 2 
L 5.421875 11.28125 
Q 10.40625 8.6875 15.234375 7.390625 
Q 20.0625 6.109375 24.8125 6.109375 
Q 31.15625 6.109375 34.5625 8.28125 
Q 37.984375 10.453125 37.984375 14.40625 
Q 37.984375 18.0625 35.515625 20.015625 
Q 33.0625 21.96875 24.703125 23.78125 
L 21.578125 24.515625 
Q 13.234375 26.265625 9.515625 29.90625 
Q 5.8125 33.546875 5.8125 39.890625 
Q 5.8125 47.609375 11.28125 51.796875 
Q 16.75 56 26.8125 56 
Q 31.78125 56 36.171875 55.265625 
Q 40.578125 54.546875 44.28125 53.078125 
" id="DejaVuSans-73"/>
    </defs>
    <g transform="translate(261.810164 696.611948)scale(0.0579 -0.0579)">
     <use xlink:href="#DejaVuSans-67"/>
     <use x="63.476562" xlink:href="#DejaVuSans-61"/>
     <use x="124.755859" xlink:href="#DejaVuSans-79"/>
     <use x="183.935547" xlink:href="#DejaVuSans-73"/>
    </g>
   </g>
   <g id="text_2">
    <!-- weights -->
    <defs>
     <path d="M 4.203125 54.6875 
L 13.1875 54.6875 
L 24.421875 12.015625 
L 35.59375 54.6875 
L 46.1875 54.6875 
L 57.421875 12.015625 
L 68.609375 54.6875 
L 77.59375 54.6875 
L 63.28125 0 
L 52.6875 0 
L 40.921875 44.828125 
L 29.109375 0 
L 18.5 0 
z
" id="DejaVuSans-77"/>
     <path d="M 56.203125 29.59375 
L 56.203125 25.203125 
L 14.890625 25.203125 
Q 15.484375 15.921875 20.484375 11.0625 
Q 25.484375 6.203125 34.421875 6.203125 
Q 39.59375 6.203125 44.453125 7.46875 
Q 49.3125 8.734375 54.109375 11.28125 
L 54.109375 2.78125 
Q 49.265625 0.734375 44.1875 -0.34375 
Q 39.109375 -1.421875 33.890625 -1.421875 
Q 20.796875 -1.421875 13.15625 6.1875 
Q 5.515625 13.8125 5.515625 26.8125 
Q 5.515625 40.234375 12.765625 48.109375 
Q 20.015625 56 32.328125 56 
Q 43.359375 56 49.78125 48.890625 
Q 56.203125 41.796875 56.203125 29.59375 
M 47.21875 32.234375 
Q 47.125 39.59375 43.09375 43.984375 
Q 39.0625 48.390625 32.421875 48.390625 
Q 24.90625 48.390625 20.390625 44.140625 
Q 15.875 39.890625 15.1875 32.171875 
z
" id="DejaVuSans-65"/>
     <path d="M 9.421875 54.6875 
L 18.40625 54.6875 
L 18.40625 0 
L 9.421875 0 
z
M 9.421875 75.984375 
L 18.40625 75.984375 
L 18.40625 64.59375 
L 9.421875 64.59375 
z
" id="DejaVuSans-69"/>
     <path d="M 54.890625 33.015625 
L 54.890625 0 
L 45.90625 0 
L 45.90625 32.71875 
Q 45.90625 40.484375 42.875 44.328125 
Q 39.84375 48.1875 33.796875 48.1875 
Q 26.515625 48.1875 22.3125 43.546875 
Q 18.109375 38.921875 18.109375 30.90625 
L 18.109375 0 
L 9.078125 0 
L 9.078125 75.984375 
L 18.109375 75.984375 
L 18.109375 46.1875 
Q 21.34375 51.125 25.703125 53.5625 
Q 30.078125 56 35.796875 56 
Q 45.21875 56 50.046875 50.171875 
Q 54.890625 44.34375 54.890625 33.015625 
" id="DejaVuSans-68"/>
     <path d="M 18.3125 70.21875 
L 18.3125 54.6875 
L 36.8125 54.6875 
L 36.8125 47.703125 
L 18.3125 47.703125 
L 18.3125 18.015625 
Q 18.3125 11.328125 20.140625 9.421875 
Q 21.96875 7.515625 27.59375 7.515625 
L 36.8125 7.515625 
L 36.8125 0 
L 27.59375 0 
Q 17.1875 0 13.234375 3.875 
Q 9.28125 7.765625 9.28125 18.015625 
L 9.28125 47.703125 
L 2.6875 47.703125 
L 2.6875 54.6875 
L 9.28125 54.6875 
L 9.28125 70.21875 
z
" id="DejaVuSans-74"/>
    </defs>
    <g transform="translate(217.605566 500.895267)scale(0.0579 -0.0579)">
     <use xlink:href="#DejaVuSans-77"/>
     <use x="81.787109" xlink:href="#DejaVuSans-65"/>
     <use x="143.310547" xlink:href="#DejaVuSans-69"/>
     <use x="171.09375" xlink:href="#DejaVuSans-67"/>
     <use x="234.570312" xlink:href="#DejaVuSans-68"/>
     <use x="297.949219" xlink:href="#DejaVuSans-74"/>
     <use x="337.158203" xlink:href="#DejaVuSans-73"/>
    </g>
   </g>
   <g id="text_3">
    <!-- warrior -->
    <defs>
     <path d="M 41.109375 46.296875 
Q 39.59375 47.171875 37.8125 47.578125 
Q 36.03125 48 33.890625 48 
Q 26.265625 48 22.1875 43.046875 
Q 18.109375 38.09375 18.109375 28.8125 
L 18.109375 0 
L 9.078125 0 
L 9.078125 54.6875 
L 18.109375 54.6875 
L 18.109375 46.1875 
Q 20.953125 51.171875 25.484375 53.578125 
Q 30.03125 56 36.53125 56 
Q 37.453125 56 38.578125 55.875 
Q 39.703125 55.765625 41.0625 55.515625 
z
" id="DejaVuSans-72"/>
     <path d="M 30.609375 48.390625 
Q 23.390625 48.390625 19.1875 42.75 
Q 14.984375 37.109375 14.984375 27.296875 
Q 14.984375 17.484375 19.15625 11.84375 
Q 23.34375 6.203125 30.609375 6.203125 
Q 37.796875 6.203125 41.984375 11.859375 
Q 46.1875 17.53125 46.1875 27.296875 
Q 46.1875 37.015625 41.984375 42.703125 
Q 37.796875 48.390625 30.609375 48.390625 
M 30.609375 56 
Q 42.328125 56 49.015625 48.375 
Q 55.71875 40.765625 55.71875 27.296875 
Q 55.71875 13.875 49.015625 6.21875 
Q 42.328125 -1.421875 30.609375 -1.421875 
Q 18.84375 -1.421875 12.171875 6.21875 
Q 5.515625 13.875 5.515625 27.296875 
Q 5.515625 40.765625 12.171875 48.375 
Q 18.84375 56 30.609375 56 
" id="DejaVuSans-6f"/>
    </defs>
    <g transform="translate(443.687993 719.501906)scale(0.0579 -0.0579)">
     <use xlink:href="#DejaVuSans-77"/>
     <use x="81.787109" xlink:href="#DejaVuSans-61"/>
     <use x="143.066406" xlink:href="#DejaVuSans-72"/>
     <use x="184.164062" xlink:href="#DejaVuSans-72"/>
     <use x="225.277344" xlink:href="#DejaVuSans-69"/>
     <use x="253.060547" xlink:href="#DejaVuSans-6f"/>
     <use x="314.242188" xlink:href="#DejaVuSans-72"/>
    </g>
   </g>
   <g id="text_4">
    <!-- retired -->
    <defs>
     <path d="M 45.40625 46.390625 
L 45.40625 75.984375 
L 54.390625 75.984375 
L 54.390625 0 
L 45.40625 0 
L 45.40625 8.203125 
Q 42.578125 3.328125 38.25 0.953125 
Q 33.9375 -1.421875 27.875 -1.421875 
Q 17.96875 -1.421875 11.734375 6.484375 
Q 5.515625 14.40625 5.515625 27.296875 
Q 5.515625 40.1875 11.734375 48.09375 
Q 17.96875 56 27.875 56 
Q 33.9375 56 38.25 53.625 
Q 42.578125 51.265625 45.40625 46.390625 
M 14.796875 27.296875 
Q 14.796875 17.390625 18.875 11.75 
Q 22.953125 6.109375 30.078125 6.109375 
Q 37.203125 6.109375 41.296875 11.75 
Q 45.40625 17.390625 45.40625 27.296875 
Q 45.40625 37.203125 41.296875 42.84375 
Q 37.203125 48.484375 30.078125 48.484375 
Q 22.953125 48.484375 18.875 42.84375 
Q 14.796875 37.203125 14.796875 27.296875 
" id="DejaVuSans-64"/>
    </defs>
    <g transform="translate(465.723187 492.735933)scale(0.0579 -0.0579)">
     <use xlink:href="#DejaVuSans-72"/>
     <use x="41.082031" xlink:href="#DejaVuSans-65"/>
     <use x="102.605469" xlink:href="#DejaVuSans-74"/>
     <use x="141.814453" xlink:href="#DejaVuSans-69"/>
     <use x="169.597656" xlink:href="#DejaVuSans-72"/>
     <use x="210.679688" xlink:href="#DejaVuSans-65"/>
     <use x="272.203125" xlink:href="#DejaVuSans-64"/>
    </g>
   </g>
   <g id="text_5">
    <!-- incredibly -->
    <defs>
     <path d="M 54.890625 33.015625 
L 54.890625 0 
L 45.90625 0 
L 45.90625 32.71875 
Q 45.90625 40.484375 42.875 44.328125 
Q 39.84375 48.1875 33.796875 48.1875 
Q 26.515625 48.1875 22.3125 43.546875 
Q 18.109375 38.921875 18.109375 30.90625 
L 18.109375 0 
L 9.078125 0 
L 9.078125 54.6875 
L 18.109375 54.6875 
L 18.109375 46.1875 
Q 21.34375 51.125 25.703125 53.5625 
Q 30.078125 56 35.796875 56 
Q 45.21875 56 50.046875 50.171875 
Q 54.890625 44.34375 54.890625 33.015625 
" id="DejaVuSans-6e"/>
     <path d="M 48.78125 52.59375 
L 48.78125 44.1875 
Q 44.96875 46.296875 41.140625 47.34375 
Q 37.3125 48.390625 33.40625 48.390625 
Q 24.65625 48.390625 19.8125 42.84375 
Q 14.984375 37.3125 14.984375 27.296875 
Q 14.984375 17.28125 19.8125 11.734375 
Q 24.65625 6.203125 33.40625 6.203125 
Q 37.3125 6.203125 41.140625 7.25 
Q 44.96875 8.296875 48.78125 10.40625 
L 48.78125 2.09375 
Q 45.015625 0.34375 40.984375 -0.53125 
Q 36.96875 -1.421875 32.421875 -1.421875 
Q 20.0625 -1.421875 12.78125 6.34375 
Q 5.515625 14.109375 5.515625 27.296875 
Q 5.515625 40.671875 12.859375 48.328125 
Q 20.21875 56 33.015625 56 
Q 37.15625 56 41.109375 55.140625 
Q 45.0625 54.296875 48.78125 52.59375 
" id="DejaVuSans-63"/>
     <path d="M 48.6875 27.296875 
Q 48.6875 37.203125 44.609375 42.84375 
Q 40.53125 48.484375 33.40625 48.484375 
Q 26.265625 48.484375 22.1875 42.84375 
Q 18.109375 37.203125 18.109375 27.296875 
Q 18.109375 17.390625 22.1875 11.75 
Q 26.265625 6.109375 33.40625 6.109375 
Q 40.53125 6.109375 44.609375 11.75 
Q 48.6875 17.390625 48.6875 27.296875 
M 18.109375 46.390625 
Q 20.953125 51.265625 25.265625 53.625 
Q 29.59375 56 35.59375 56 
Q 45.5625 56 51.78125 48.09375 
Q 58.015625 40.1875 58.015625 27.296875 
Q 58.015625 14.40625 51.78125 6.484375 
Q 45.5625 -1.421875 35.59375 -1.421875 
Q 29.59375 -1.421875 25.265625 0.953125 
Q 20.953125 3.328125 18.109375 8.203125 
L 18.109375 0 
L 9.078125 0 
L 9.078125 75.984375 
L 18.109375 75.984375 
z
" id="DejaVuSans-62"/>
     <path d="M 9.421875 75.984375 
L 18.40625 75.984375 
L 18.40625 0 
L 9.421875 0 
z
" id="DejaVuSans-6c"/>
    </defs>
    <g transform="translate(339.402305 437.765696)scale(0.0579 -0.0579)">
     <use xlink:href="#DejaVuSans-69"/>
     <use x="27.783203" xlink:href="#DejaVuSans-6e"/>
     <use x="91.162109" xlink:href="#DejaVuSans-63"/>
     <use x="146.142578" xlink:href="#DejaVuSans-72"/>
     <use x="187.224609" xlink:href="#DejaVuSans-65"/>
     <use x="248.748047" xlink:href="#DejaVuSans-64"/>
     <use x="312.224609" xlink:href="#DejaVuSans-69"/>
     <use x="340.007812" xlink:href="#DejaVuSans-62"/>
     <use x="403.484375" xlink:href="#DejaVuSans-6c"/>
     <use x="431.267578" xlink:href="#DejaVuSans-79"/>
    </g>
   </g>
   <g id="text_6">
    <!-- remembrance -->
    <defs>
     <path d="M 52 44.1875 
Q 55.375 50.25 60.0625 53.125 
Q 64.75 56 71.09375 56 
Q 79.640625 56 84.28125 50.015625 
Q 88.921875 44.046875 88.921875 33.015625 
L 88.921875 0 
L 79.890625 0 
L 79.890625 32.71875 
Q 79.890625 40.578125 77.09375 44.375 
Q 74.3125 48.1875 68.609375 48.1875 
Q 61.625 48.1875 57.5625 43.546875 
Q 53.515625 38.921875 53.515625 30.90625 
L 53.515625 0 
L 44.484375 0 
L 44.484375 32.71875 
Q 44.484375 40.625 41.703125 44.40625 
Q 38.921875 48.1875 33.109375 48.1875 
Q 26.21875 48.1875 22.15625 43.53125 
Q 18.109375 38.875 18.109375 30.90625 
L 18.109375 0 
L 9.078125 0 
L 9.078125 54.6875 
L 18.109375 54.6875 
L 18.109375 46.1875 
Q 21.1875 51.21875 25.484375 53.609375 
Q 29.78125 56 35.6875 56 
Q 41.65625 56 45.828125 52.96875 
Q 50 49.953125 52 44.1875 
" id="DejaVuSans-6d"/>
    </defs>
    <g transform="translate(229.870887 451.005786)scale(0.0579 -0.0579)">
     <use xlink:href="#DejaVuSans-72"/>
     <use x="41.082031" xlink:href="#DejaVuSans-65"/>
     <use x="102.605469" xlink:href="#DejaVuSans-6d"/>
     <use x="200.017578" xlink:href="#DejaVuSans-65"/>
     <use x="261.541016" xlink:href="#DejaVuSans-6d"/>
     <use x="358.953125" xlink:href="#DejaVuSans-62"/>
     <use x="422.429688" xlink:href="#DejaVuSans-72"/>
     <use x="463.542969" xlink:href="#DejaVuSans-61"/>
     <use x="524.822266" xlink:href="#DejaVuSans-6e"/>
     <use x="588.201172" xlink:href="#DejaVuSans-63"/>
     <use x="643.181641" xlink:href="#DejaVuSans-65"/>
    </g>
   </g>
   <g id="text_7">
    <!-- mendoza -->
    <defs>
     <path d="M 5.515625 54.6875 
L 48.1875 54.6875 
L 48.1875 46.484375 
L 14.40625 7.171875 
L 48.1875 7.171875 
L 48.1875 0 
L 4.296875 0 
L 4.296875 8.203125 
L 38.09375 47.515625 
L 5.515625 47.515625 
z
" id="DejaVuSans-7a"/>
    </defs>
    <g transform="translate(542.634928 493.461841)scale(0.0579 -0.0579)">
     <use xlink:href="#DejaVuSans-6d"/>
     <use x="97.412109" xlink:href="#DejaVuSans-65"/>
     <use x="158.935547" xlink:href="#DejaVuSans-6e"/>
     <use x="222.314453" xlink:href="#DejaVuSans-64"/>
     <use x="285.791016" xlink:href="#DejaVuSans-6f"/>
     <use x="346.972656" xlink:href="#DejaVuSans-7a"/>
     <use x="399.462891" xlink:href="#DejaVuSans-61"/>
    </g>
   </g>
   <g id="text_8">
    <!-- among -->
    <g transform="translate(586.69878 648.780176)scale(0.0579 -0.0579)">
     <use xlink:href="#DejaVuSans-61"/>
     <use x="61.279297" xlink:href="#DejaVuSans-6d"/>
     <use x="158.691406" xlink:href="#DejaVuSans-6f"/>
     <use x="219.873047" xlink:href="#DejaVuSans-6e"/>
     <use x="283.251953" xlink:href="#DejaVuSans-67"/>
    </g>
   </g>
   <g id="text_9">
    <!-- wounded -->
    <defs>
     <path d="M 8.5 21.578125 
L 8.5 54.6875 
L 17.484375 54.6875 
L 17.484375 21.921875 
Q 17.484375 14.15625 20.5 10.265625 
Q 23.53125 6.390625 29.59375 6.390625 
Q 36.859375 6.390625 41.078125 11.03125 
Q 45.3125 15.671875 45.3125 23.6875 
L 45.3125 54.6875 
L 54.296875 54.6875 
L 54.296875 0 
L 45.3125 0 
L 45.3125 8.40625 
Q 42.046875 3.421875 37.71875 1 
Q 33.40625 -1.421875 27.6875 -1.421875 
Q 18.265625 -1.421875 13.375 4.4375 
Q 8.5 10.296875 8.5 21.578125 
M 31.109375 56 
z
" id="DejaVuSans-75"/>
    </defs>
    <g transform="translate(419.109959 748.001696)scale(0.0579 -0.0579)">
     <use xlink:href="#DejaVuSans-77"/>
     <use x="81.787109" xlink:href="#DejaVuSans-6f"/>
     <use x="142.96875" xlink:href="#DejaVuSans-75"/>
     <use x="206.347656" xlink:href="#DejaVuSans-6e"/>
     <use x="269.726562" xlink:href="#DejaVuSans-64"/>
     <use x="333.203125" xlink:href="#DejaVuSans-65"/>
     <use x="394.726562" xlink:href="#DejaVuSans-64"/>
    </g>
   </g>
   <g id="text_10">
    <!-- warrior -->
    <g transform="translate(383.577931 699.115759)scale(0.0579 -0.0579)">
     <use xlink:href="#DejaVuSans-77"/>
     <use x="81.787109" xlink:href="#DejaVuSans-61"/>
     <use x="143.066406" xlink:href="#DejaVuSans-72"/>
     <use x="184.164062" xlink:href="#DejaVuSans-72"/>
     <use x="225.277344" xlink:href="#DejaVuSans-69"/>
     <use x="253.060547" xlink:href="#DejaVuSans-6f"/>
     <use x="314.242188" xlink:href="#DejaVuSans-72"/>
    </g>
   </g>
   <g id="text_11">
    <!-- who've -->
    <defs>
     <path d="M 17.921875 72.90625 
L 17.921875 45.796875 
L 9.625 45.796875 
L 9.625 72.90625 
z
" id="DejaVuSans-27"/>
     <path d="M 2.984375 54.6875 
L 12.5 54.6875 
L 29.59375 8.796875 
L 46.6875 54.6875 
L 56.203125 54.6875 
L 35.6875 0 
L 23.484375 0 
z
" id="DejaVuSans-76"/>
    </defs>
    <g transform="translate(427.225273 576.238998)scale(0.0579 -0.0579)">
     <use xlink:href="#DejaVuSans-77"/>
     <use x="81.787109" xlink:href="#DejaVuSans-68"/>
     <use x="145.166016" xlink:href="#DejaVuSans-6f"/>
     <use x="206.347656" xlink:href="#DejaVuSans-27"/>
     <use x="233.837891" xlink:href="#DejaVuSans-76"/>
     <use x="293.017578" xlink:href="#DejaVuSans-65"/>
    </g>
   </g>
   <g id="text_12">
    <!-- christians -->
    <g transform="translate(212.473394 545.028728)scale(0.0579 -0.0579)">
     <use xlink:href="#DejaVuSans-63"/>
     <use x="54.980469" xlink:href="#DejaVuSans-68"/>
     <use x="118.359375" xlink:href="#DejaVuSans-72"/>
     <use x="159.472656" xlink:href="#DejaVuSans-69"/>
     <use x="187.255859" xlink:href="#DejaVuSans-73"/>
     <use x="239.355469" xlink:href="#DejaVuSans-74"/>
     <use x="278.564453" xlink:href="#DejaVuSans-69"/>
     <use x="306.347656" xlink:href="#DejaVuSans-61"/>
     <use x="367.626953" xlink:href="#DejaVuSans-6e"/>
     <use x="431.005859" xlink:href="#DejaVuSans-73"/>
    </g>
   </g>
   <g id="text_13">
    <!-- endorsers -->
    <g transform="translate(696.052874 608.822216)scale(0.0579 -0.0579)">
     <use xlink:href="#DejaVuSans-65"/>
     <use x="61.523438" xlink:href="#DejaVuSans-6e"/>
     <use x="124.902344" xlink:href="#DejaVuSans-64"/>
     <use x="188.378906" xlink:href="#DejaVuSans-6f"/>
     <use x="249.560547" xlink:href="#DejaVuSans-72"/>
     <use x="290.673828" xlink:href="#DejaVuSans-73"/>
     <use x="342.773438" xlink:href="#DejaVuSans-65"/>
     <use x="404.296875" xlink:href="#DejaVuSans-72"/>
     <use x="445.410156" xlink:href="#DejaVuSans-73"/>
    </g>
   </g>
   <g id="text_14">
    <!-- comfort -->
    <defs>
     <path d="M 37.109375 75.984375 
L 37.109375 68.5 
L 28.515625 68.5 
Q 23.6875 68.5 21.796875 66.546875 
Q 19.921875 64.59375 19.921875 59.515625 
L 19.921875 54.6875 
L 34.71875 54.6875 
L 34.71875 47.703125 
L 19.921875 47.703125 
L 19.921875 0 
L 10.890625 0 
L 10.890625 47.703125 
L 2.296875 47.703125 
L 2.296875 54.6875 
L 10.890625 54.6875 
L 10.890625 58.5 
Q 10.890625 67.625 15.140625 71.796875 
Q 19.390625 75.984375 28.609375 75.984375 
z
" id="DejaVuSans-66"/>
    </defs>
    <g transform="translate(469.758129 768.96)scale(0.0579 -0.0579)">
     <use xlink:href="#DejaVuSans-63"/>
     <use x="54.980469" xlink:href="#DejaVuSans-6f"/>
     <use x="116.162109" xlink:href="#DejaVuSans-6d"/>
     <use x="213.574219" xlink:href="#DejaVuSans-66"/>
     <use x="248.779297" xlink:href="#DejaVuSans-6f"/>
     <use x="309.960938" xlink:href="#DejaVuSans-72"/>
     <use x="351.074219" xlink:href="#DejaVuSans-74"/>
    </g>
   </g>
   <g id="text_15">
    <!-- minerals -->
    <g transform="translate(631.455644 560.931935)scale(0.0579 -0.0579)">
     <use xlink:href="#DejaVuSans-6d"/>
     <use x="97.412109" xlink:href="#DejaVuSans-69"/>
     <use x="125.195312" xlink:href="#DejaVuSans-6e"/>
     <use x="188.574219" xlink:href="#DejaVuSans-65"/>
     <use x="250.097656" xlink:href="#DejaVuSans-72"/>
     <use x="291.210938" xlink:href="#DejaVuSans-61"/>
     <use x="352.490234" xlink:href="#DejaVuSans-6c"/>
     <use x="380.273438" xlink:href="#DejaVuSans-73"/>
    </g>
   </g>
   <g id="text_16">
    <!-- metals -->
    <g transform="translate(528.277714 587.262366)scale(0.0579 -0.0579)">
     <use xlink:href="#DejaVuSans-6d"/>
     <use x="97.412109" xlink:href="#DejaVuSans-65"/>
     <use x="158.935547" xlink:href="#DejaVuSans-74"/>
     <use x="198.144531" xlink:href="#DejaVuSans-61"/>
     <use x="259.423828" xlink:href="#DejaVuSans-6c"/>
     <use x="287.207031" xlink:href="#DejaVuSans-73"/>
    </g>
   </g>
   <g id="text_17">
    <!-- veteran -->
    <g transform="translate(427.390597 660.870735)scale(0.0579 -0.0579)">
     <use xlink:href="#DejaVuSans-76"/>
     <use x="59.179688" xlink:href="#DejaVuSans-65"/>
     <use x="120.703125" xlink:href="#DejaVuSans-74"/>
     <use x="159.912109" xlink:href="#DejaVuSans-65"/>
     <use x="221.435547" xlink:href="#DejaVuSans-72"/>
     <use x="262.548828" xlink:href="#DejaVuSans-61"/>
     <use x="323.828125" xlink:href="#DejaVuSans-6e"/>
    </g>
   </g>
   <g id="text_18">
    <!-- raices -->
    <g transform="translate(348.260693 635.869519)scale(0.0579 -0.0579)">
     <use xlink:href="#DejaVuSans-72"/>
     <use x="41.113281" xlink:href="#DejaVuSans-61"/>
     <use x="102.392578" xlink:href="#DejaVuSans-69"/>
     <use x="130.175781" xlink:href="#DejaVuSans-63"/>
     <use x="185.15625" xlink:href="#DejaVuSans-65"/>
     <use x="246.679688" xlink:href="#DejaVuSans-73"/>
    </g>
   </g>
   <g id="text_19">
    <!-- brave -->
    <g transform="translate(531.833385 555.352473)scale(0.0579 -0.0579)">
     <use xlink:href="#DejaVuSans-62"/>
     <use x="63.476562" xlink:href="#DejaVuSans-72"/>
     <use x="104.589844" xlink:href="#DejaVuSans-61"/>
     <use x="165.869141" xlink:href="#DejaVuSans-76"/>
     <use x="225.048828" xlink:href="#DejaVuSans-65"/>
    </g>
   </g>
   <g id="text_20">
    <!-- admirals -->
    <g transform="translate(640.8529 594.589995)scale(0.0579 -0.0579)">
     <use xlink:href="#DejaVuSans-61"/>
     <use x="61.279297" xlink:href="#DejaVuSans-64"/>
     <use x="124.755859" xlink:href="#DejaVuSans-6d"/>
     <use x="222.167969" xlink:href="#DejaVuSans-69"/>
     <use x="249.951172" xlink:href="#DejaVuSans-72"/>
     <use x="291.064453" xlink:href="#DejaVuSans-61"/>
     <use x="352.34375" xlink:href="#DejaVuSans-6c"/>
     <use x="380.126953" xlink:href="#DejaVuSans-73"/>
    </g>
   </g>
   <g id="text_21">
    <!-- wives -->
    <g transform="translate(358.03757 578.726925)scale(0.0579 -0.0579)">
     <use xlink:href="#DejaVuSans-77"/>
     <use x="81.787109" xlink:href="#DejaVuSans-69"/>
     <use x="109.570312" xlink:href="#DejaVuSans-76"/>
     <use x="168.75" xlink:href="#DejaVuSans-65"/>
     <use x="230.273438" xlink:href="#DejaVuSans-73"/>
    </g>
   </g>
   <g id="text_22">
    <!-- forgot -->
    <g transform="translate(752.583502 250.748185)scale(0.0579 -0.0579)">
     <use xlink:href="#DejaVuSans-66"/>
     <use x="35.205078" xlink:href="#DejaVuSans-6f"/>
     <use x="96.386719" xlink:href="#DejaVuSans-72"/>
     <use x="137.484375" xlink:href="#DejaVuSans-67"/>
     <use x="200.960938" xlink:href="#DejaVuSans-6f"/>
     <use x="262.142578" xlink:href="#DejaVuSans-74"/>
    </g>
   </g>
   <g id="text_23">
    <!-- dealings -->
    <g transform="translate(341.939601 488.05914)scale(0.0579 -0.0579)">
     <use xlink:href="#DejaVuSans-64"/>
     <use x="63.476562" xlink:href="#DejaVuSans-65"/>
     <use x="125" xlink:href="#DejaVuSans-61"/>
     <use x="186.279297" xlink:href="#DejaVuSans-6c"/>
     <use x="214.0625" xlink:href="#DejaVuSans-69"/>
     <use x="241.845703" xlink:href="#DejaVuSans-6e"/>
     <use x="305.224609" xlink:href="#DejaVuSans-67"/>
     <use x="368.701172" xlink:href="#DejaVuSans-73"/>
    </g>
   </g>
   <g id="text_24">
    <!-- militarily -->
    <g transform="translate(496.727824 404.987243)scale(0.0579 -0.0579)">
     <use xlink:href="#DejaVuSans-6d"/>
     <use x="97.412109" xlink:href="#DejaVuSans-69"/>
     <use x="125.195312" xlink:href="#DejaVuSans-6c"/>
     <use x="152.978516" xlink:href="#DejaVuSans-69"/>
     <use x="180.761719" xlink:href="#DejaVuSans-74"/>
     <use x="219.970703" xlink:href="#DejaVuSans-61"/>
     <use x="281.25" xlink:href="#DejaVuSans-72"/>
     <use x="322.363281" xlink:href="#DejaVuSans-69"/>
     <use x="350.146484" xlink:href="#DejaVuSans-6c"/>
     <use x="377.929688" xlink:href="#DejaVuSans-79"/>
    </g>
   </g>
   <g id="text_25">
    <!-- mentally -->
    <g transform="translate(394.398743 517.748641)scale(0.0579 -0.0579)">
     <use xlink:href="#DejaVuSans-6d"/>
     <use x="97.412109" xlink:href="#DejaVuSans-65"/>
     <use x="158.935547" xlink:href="#DejaVuSans-6e"/>
     <use x="222.314453" xlink:href="#DejaVuSans-74"/>
     <use x="261.523438" xlink:href="#DejaVuSans-61"/>
     <use x="322.802734" xlink:href="#DejaVuSans-6c"/>
     <use x="350.585938" xlink:href="#DejaVuSans-6c"/>
     <use x="378.369141" xlink:href="#DejaVuSans-79"/>
    </g>
   </g>
   <g id="text_26">
    <!-- equitably -->
    <defs>
     <path d="M 14.796875 27.296875 
Q 14.796875 17.390625 18.875 11.75 
Q 22.953125 6.109375 30.078125 6.109375 
Q 37.203125 6.109375 41.296875 11.75 
Q 45.40625 17.390625 45.40625 27.296875 
Q 45.40625 37.203125 41.296875 42.84375 
Q 37.203125 48.484375 30.078125 48.484375 
Q 22.953125 48.484375 18.875 42.84375 
Q 14.796875 37.203125 14.796875 27.296875 
M 45.40625 8.203125 
Q 42.578125 3.328125 38.25 0.953125 
Q 33.9375 -1.421875 27.875 -1.421875 
Q 17.96875 -1.421875 11.734375 6.484375 
Q 5.515625 14.40625 5.515625 27.296875 
Q 5.515625 40.1875 11.734375 48.09375 
Q 17.96875 56 27.875 56 
Q 33.9375 56 38.25 53.625 
Q 42.578125 51.265625 45.40625 46.390625 
L 45.40625 54.6875 
L 54.390625 54.6875 
L 54.390625 -20.796875 
L 45.40625 -20.796875 
z
" id="DejaVuSans-71"/>
    </defs>
    <g transform="translate(426.705722 501.922017)scale(0.0579 -0.0579)">
     <use xlink:href="#DejaVuSans-65"/>
     <use x="61.523438" xlink:href="#DejaVuSans-71"/>
     <use x="125" xlink:href="#DejaVuSans-75"/>
     <use x="188.378906" xlink:href="#DejaVuSans-69"/>
     <use x="216.162109" xlink:href="#DejaVuSans-74"/>
     <use x="255.371094" xlink:href="#DejaVuSans-61"/>
     <use x="316.650391" xlink:href="#DejaVuSans-62"/>
     <use x="380.126953" xlink:href="#DejaVuSans-6c"/>
     <use x="407.910156" xlink:href="#DejaVuSans-79"/>
    </g>
   </g>
   <g id="text_27">
    <!-- suicides -->
    <g transform="translate(602.287775 422.891401)scale(0.0579 -0.0579)">
     <use xlink:href="#DejaVuSans-73"/>
     <use x="52.099609" xlink:href="#DejaVuSans-75"/>
     <use x="115.478516" xlink:href="#DejaVuSans-69"/>
     <use x="143.261719" xlink:href="#DejaVuSans-63"/>
     <use x="198.242188" xlink:href="#DejaVuSans-69"/>
     <use x="226.025391" xlink:href="#DejaVuSans-64"/>
     <use x="289.501953" xlink:href="#DejaVuSans-65"/>
     <use x="351.025391" xlink:href="#DejaVuSans-73"/>
    </g>
   </g>
   <g id="text_28">
    <!-- protects -->
    <defs>
     <path d="M 18.109375 8.203125 
L 18.109375 -20.796875 
L 9.078125 -20.796875 
L 9.078125 54.6875 
L 18.109375 54.6875 
L 18.109375 46.390625 
Q 20.953125 51.265625 25.265625 53.625 
Q 29.59375 56 35.59375 56 
Q 45.5625 56 51.78125 48.09375 
Q 58.015625 40.1875 58.015625 27.296875 
Q 58.015625 14.40625 51.78125 6.484375 
Q 45.5625 -1.421875 35.59375 -1.421875 
Q 29.59375 -1.421875 25.265625 0.953125 
Q 20.953125 3.328125 18.109375 8.203125 
M 48.6875 27.296875 
Q 48.6875 37.203125 44.609375 42.84375 
Q 40.53125 48.484375 33.40625 48.484375 
Q 26.265625 48.484375 22.1875 42.84375 
Q 18.109375 37.203125 18.109375 27.296875 
Q 18.109375 17.390625 22.1875 11.75 
Q 26.265625 6.109375 33.40625 6.109375 
Q 40.53125 6.109375 44.609375 11.75 
Q 48.6875 17.390625 48.6875 27.296875 
" id="DejaVuSans-70"/>
    </defs>
    <g transform="translate(423.402234 300.714366)scale(0.0579 -0.0579)">
     <use xlink:href="#DejaVuSans-70"/>
     <use x="63.476562" xlink:href="#DejaVuSans-72"/>
     <use x="104.558594" xlink:href="#DejaVuSans-6f"/>
     <use x="165.740234" xlink:href="#DejaVuSans-74"/>
     <use x="204.949219" xlink:href="#DejaVuSans-65"/>
     <use x="266.472656" xlink:href="#DejaVuSans-63"/>
     <use x="321.453125" xlink:href="#DejaVuSans-74"/>
     <use x="360.662109" xlink:href="#DejaVuSans-73"/>
    </g>
   </g>
   <g id="text_29">
    <!-- decades -->
    <g transform="translate(422.347762 373.076322)scale(0.0579 -0.0579)">
     <use xlink:href="#DejaVuSans-64"/>
     <use x="63.476562" xlink:href="#DejaVuSans-65"/>
     <use x="125" xlink:href="#DejaVuSans-63"/>
     <use x="179.980469" xlink:href="#DejaVuSans-61"/>
     <use x="241.259766" xlink:href="#DejaVuSans-64"/>
     <use x="304.736328" xlink:href="#DejaVuSans-65"/>
     <use x="366.259766" xlink:href="#DejaVuSans-73"/>
    </g>
   </g>
   <g id="text_30">
    <!-- forgot -->
    <g transform="translate(527.366971 334.751158)scale(0.0579 -0.0579)">
     <use xlink:href="#DejaVuSans-66"/>
     <use x="35.205078" xlink:href="#DejaVuSans-6f"/>
     <use x="96.386719" xlink:href="#DejaVuSans-72"/>
     <use x="137.484375" xlink:href="#DejaVuSans-67"/>
     <use x="200.960938" xlink:href="#DejaVuSans-6f"/>
     <use x="262.142578" xlink:href="#DejaVuSans-74"/>
    </g>
   </g>
   <g id="text_31">
    <!-- talents -->
    <g transform="translate(257.502492 604.693587)scale(0.0579 -0.0579)">
     <use xlink:href="#DejaVuSans-74"/>
     <use x="39.208984" xlink:href="#DejaVuSans-61"/>
     <use x="100.488281" xlink:href="#DejaVuSans-6c"/>
     <use x="128.271484" xlink:href="#DejaVuSans-65"/>
     <use x="189.794922" xlink:href="#DejaVuSans-6e"/>
     <use x="253.173828" xlink:href="#DejaVuSans-74"/>
     <use x="292.382812" xlink:href="#DejaVuSans-73"/>
    </g>
   </g>
   <g id="text_32">
    <!-- rollers -->
    <g transform="translate(579.889804 592.239651)scale(0.0579 -0.0579)">
     <use xlink:href="#DejaVuSans-72"/>
     <use x="41.082031" xlink:href="#DejaVuSans-6f"/>
     <use x="102.263672" xlink:href="#DejaVuSans-6c"/>
     <use x="130.046875" xlink:href="#DejaVuSans-6c"/>
     <use x="157.830078" xlink:href="#DejaVuSans-65"/>
     <use x="219.353516" xlink:href="#DejaVuSans-72"/>
     <use x="260.466797" xlink:href="#DejaVuSans-73"/>
    </g>
   </g>
   <g id="text_33">
    <!-- beings -->
    <g transform="translate(437.390511 614.222686)scale(0.0579 -0.0579)">
     <use xlink:href="#DejaVuSans-62"/>
     <use x="63.476562" xlink:href="#DejaVuSans-65"/>
     <use x="125" xlink:href="#DejaVuSans-69"/>
     <use x="152.783203" xlink:href="#DejaVuSans-6e"/>
     <use x="216.162109" xlink:href="#DejaVuSans-67"/>
     <use x="279.638672" xlink:href="#DejaVuSans-73"/>
    </g>
   </g>
   <g id="text_34">
    <!-- preserve -->
    <g transform="translate(302.550563 585.112526)scale(0.0579 -0.0579)">
     <use xlink:href="#DejaVuSans-70"/>
     <use x="63.476562" xlink:href="#DejaVuSans-72"/>
     <use x="104.558594" xlink:href="#DejaVuSans-65"/>
     <use x="166.082031" xlink:href="#DejaVuSans-73"/>
     <use x="218.181641" xlink:href="#DejaVuSans-65"/>
     <use x="279.705078" xlink:href="#DejaVuSans-72"/>
     <use x="320.818359" xlink:href="#DejaVuSans-76"/>
     <use x="379.998047" xlink:href="#DejaVuSans-65"/>
    </g>
   </g>
   <g id="text_35">
    <!-- robbery -->
    <g transform="translate(447.97664 555.691086)scale(0.0579 -0.0579)">
     <use xlink:href="#DejaVuSans-72"/>
     <use x="41.082031" xlink:href="#DejaVuSans-6f"/>
     <use x="102.263672" xlink:href="#DejaVuSans-62"/>
     <use x="165.740234" xlink:href="#DejaVuSans-62"/>
     <use x="229.216797" xlink:href="#DejaVuSans-65"/>
     <use x="290.740234" xlink:href="#DejaVuSans-72"/>
     <use x="331.853516" xlink:href="#DejaVuSans-79"/>
    </g>
   </g>
   <g id="text_36">
    <!-- warriors -->
    <g transform="translate(359.931055 724.60893)scale(0.0579 -0.0579)">
     <use xlink:href="#DejaVuSans-77"/>
     <use x="81.787109" xlink:href="#DejaVuSans-61"/>
     <use x="143.066406" xlink:href="#DejaVuSans-72"/>
     <use x="184.164062" xlink:href="#DejaVuSans-72"/>
     <use x="225.277344" xlink:href="#DejaVuSans-69"/>
     <use x="253.060547" xlink:href="#DejaVuSans-6f"/>
     <use x="314.242188" xlink:href="#DejaVuSans-72"/>
     <use x="355.355469" xlink:href="#DejaVuSans-73"/>
    </g>
   </g>
   <g id="text_37">
    <!-- forgotten -->
    <g transform="translate(272.273648 652.549305)scale(0.0579 -0.0579)">
     <use xlink:href="#DejaVuSans-66"/>
     <use x="35.205078" xlink:href="#DejaVuSans-6f"/>
     <use x="96.386719" xlink:href="#DejaVuSans-72"/>
     <use x="137.484375" xlink:href="#DejaVuSans-67"/>
     <use x="200.960938" xlink:href="#DejaVuSans-6f"/>
     <use x="262.142578" xlink:href="#DejaVuSans-74"/>
     <use x="301.351562" xlink:href="#DejaVuSans-74"/>
     <use x="340.560547" xlink:href="#DejaVuSans-65"/>
     <use x="402.083984" xlink:href="#DejaVuSans-6e"/>
    </g>
   </g>
   <g id="text_38">
    <!-- beings -->
    <g transform="translate(306.663568 486.378286)scale(0.0579 -0.0579)">
     <use xlink:href="#DejaVuSans-62"/>
     <use x="63.476562" xlink:href="#DejaVuSans-65"/>
     <use x="125" xlink:href="#DejaVuSans-69"/>
     <use x="152.783203" xlink:href="#DejaVuSans-6e"/>
     <use x="216.162109" xlink:href="#DejaVuSans-67"/>
     <use x="279.638672" xlink:href="#DejaVuSans-73"/>
    </g>
   </g>
   <g id="text_39">
    <!-- remembrance -->
    <g transform="translate(648.90103 664.66435)scale(0.0579 -0.0579)">
     <use xlink:href="#DejaVuSans-72"/>
     <use x="41.082031" xlink:href="#DejaVuSans-65"/>
     <use x="102.605469" xlink:href="#DejaVuSans-6d"/>
     <use x="200.017578" xlink:href="#DejaVuSans-65"/>
     <use x="261.541016" xlink:href="#DejaVuSans-6d"/>
     <use x="358.953125" xlink:href="#DejaVuSans-62"/>
     <use x="422.429688" xlink:href="#DejaVuSans-72"/>
     <use x="463.542969" xlink:href="#DejaVuSans-61"/>
     <use x="524.822266" xlink:href="#DejaVuSans-6e"/>
     <use x="588.201172" xlink:href="#DejaVuSans-63"/>
     <use x="643.181641" xlink:href="#DejaVuSans-65"/>
    </g>
   </g>
   <g id="text_40">
    <!-- equally -->
    <g transform="translate(289.298259 442.218026)scale(0.0579 -0.0579)">
     <use xlink:href="#DejaVuSans-65"/>
     <use x="61.523438" xlink:href="#DejaVuSans-71"/>
     <use x="125" xlink:href="#DejaVuSans-75"/>
     <use x="188.378906" xlink:href="#DejaVuSans-61"/>
     <use x="249.658203" xlink:href="#DejaVuSans-6c"/>
     <use x="277.441406" xlink:href="#DejaVuSans-6c"/>
     <use x="305.224609" xlink:href="#DejaVuSans-79"/>
    </g>
   </g>
   <g id="text_41">
    <!-- alderman -->
    <g transform="translate(484.126243 519.843437)scale(0.0579 -0.0579)">
     <use xlink:href="#DejaVuSans-61"/>
     <use x="61.279297" xlink:href="#DejaVuSans-6c"/>
     <use x="89.0625" xlink:href="#DejaVuSans-64"/>
     <use x="152.539062" xlink:href="#DejaVuSans-65"/>
     <use x="214.0625" xlink:href="#DejaVuSans-72"/>
     <use x="255.160156" xlink:href="#DejaVuSans-6d"/>
     <use x="352.572266" xlink:href="#DejaVuSans-61"/>
     <use x="413.851562" xlink:href="#DejaVuSans-6e"/>
    </g>
   </g>
   <g id="text_42">
    <!-- christians -->
    <g transform="translate(357.811021 327.340367)scale(0.0579 -0.0579)">
     <use xlink:href="#DejaVuSans-63"/>
     <use x="54.980469" xlink:href="#DejaVuSans-68"/>
     <use x="118.359375" xlink:href="#DejaVuSans-72"/>
     <use x="159.472656" xlink:href="#DejaVuSans-69"/>
     <use x="187.255859" xlink:href="#DejaVuSans-73"/>
     <use x="239.355469" xlink:href="#DejaVuSans-74"/>
     <use x="278.564453" xlink:href="#DejaVuSans-69"/>
     <use x="306.347656" xlink:href="#DejaVuSans-61"/>
     <use x="367.626953" xlink:href="#DejaVuSans-6e"/>
     <use x="431.005859" xlink:href="#DejaVuSans-73"/>
    </g>
   </g>
   <g id="text_43">
    <!-- remembrance -->
    <g transform="translate(266.4327 560.120501)scale(0.0579 -0.0579)">
     <use xlink:href="#DejaVuSans-72"/>
     <use x="41.082031" xlink:href="#DejaVuSans-65"/>
     <use x="102.605469" xlink:href="#DejaVuSans-6d"/>
     <use x="200.017578" xlink:href="#DejaVuSans-65"/>
     <use x="261.541016" xlink:href="#DejaVuSans-6d"/>
     <use x="358.953125" xlink:href="#DejaVuSans-62"/>
     <use x="422.429688" xlink:href="#DejaVuSans-72"/>
     <use x="463.542969" xlink:href="#DejaVuSans-61"/>
     <use x="524.822266" xlink:href="#DejaVuSans-6e"/>
     <use x="588.201172" xlink:href="#DejaVuSans-63"/>
     <use x="643.181641" xlink:href="#DejaVuSans-65"/>
    </g>
   </g>
   <g id="text_44">
    <!-- fathers -->
    <g transform="translate(622.369751 471.312576)scale(0.0579 -0.0579)">
     <use xlink:href="#DejaVuSans-66"/>
     <use x="35.205078" xlink:href="#DejaVuSans-61"/>
     <use x="96.484375" xlink:href="#DejaVuSans-74"/>
     <use x="135.693359" xlink:href="#DejaVuSans-68"/>
     <use x="199.072266" xlink:href="#DejaVuSans-65"/>
     <use x="260.595703" xlink:href="#DejaVuSans-72"/>
     <use x="301.708984" xlink:href="#DejaVuSans-73"/>
    </g>
   </g>
   <g id="text_45">
    <!-- whom -->
    <g transform="translate(281.974231 520.23373)scale(0.0579 -0.0579)">
     <use xlink:href="#DejaVuSans-77"/>
     <use x="81.787109" xlink:href="#DejaVuSans-68"/>
     <use x="145.166016" xlink:href="#DejaVuSans-6f"/>
     <use x="206.347656" xlink:href="#DejaVuSans-6d"/>
    </g>
   </g>
   <g id="text_46">
    <!-- working-class -->
    <defs>
     <path d="M 9.078125 75.984375 
L 18.109375 75.984375 
L 18.109375 31.109375 
L 44.921875 54.6875 
L 56.390625 54.6875 
L 27.390625 29.109375 
L 57.625 0 
L 45.90625 0 
L 18.109375 26.703125 
L 18.109375 0 
L 9.078125 0 
z
" id="DejaVuSans-6b"/>
     <path d="M 4.890625 31.390625 
L 31.203125 31.390625 
L 31.203125 23.390625 
L 4.890625 23.390625 
z
" id="DejaVuSans-2d"/>
    </defs>
    <g transform="translate(390.101783 560.427299)scale(0.0579 -0.0579)">
     <use xlink:href="#DejaVuSans-77"/>
     <use x="81.787109" xlink:href="#DejaVuSans-6f"/>
     <use x="142.96875" xlink:href="#DejaVuSans-72"/>
     <use x="184.082031" xlink:href="#DejaVuSans-6b"/>
     <use x="241.992188" xlink:href="#DejaVuSans-69"/>
     <use x="269.775391" xlink:href="#DejaVuSans-6e"/>
     <use x="333.154297" xlink:href="#DejaVuSans-67"/>
     <use x="396.630859" xlink:href="#DejaVuSans-2d"/>
     <use x="432.714844" xlink:href="#DejaVuSans-63"/>
     <use x="487.695312" xlink:href="#DejaVuSans-6c"/>
     <use x="515.478516" xlink:href="#DejaVuSans-61"/>
     <use x="576.757812" xlink:href="#DejaVuSans-73"/>
     <use x="628.857422" xlink:href="#DejaVuSans-73"/>
    </g>
   </g>
   <g id="text_47">
    <!-- lilies -->
    <g transform="translate(371.225486 608.338167)scale(0.0579 -0.0579)">
     <use xlink:href="#DejaVuSans-6c"/>
     <use x="27.783203" xlink:href="#DejaVuSans-69"/>
     <use x="55.566406" xlink:href="#DejaVuSans-6c"/>
     <use x="83.349609" xlink:href="#DejaVuSans-69"/>
     <use x="111.132812" xlink:href="#DejaVuSans-65"/>
     <use x="172.65625" xlink:href="#DejaVuSans-73"/>
    </g>
   </g>
   <g id="text_48">
    <!-- energized -->
    <g transform="translate(474.929925 459.258482)scale(0.0579 -0.0579)">
     <use xlink:href="#DejaVuSans-65"/>
     <use x="61.523438" xlink:href="#DejaVuSans-6e"/>
     <use x="124.902344" xlink:href="#DejaVuSans-65"/>
     <use x="186.425781" xlink:href="#DejaVuSans-72"/>
     <use x="227.523438" xlink:href="#DejaVuSans-67"/>
     <use x="291" xlink:href="#DejaVuSans-69"/>
     <use x="318.783203" xlink:href="#DejaVuSans-7a"/>
     <use x="371.273438" xlink:href="#DejaVuSans-65"/>
     <use x="432.796875" xlink:href="#DejaVuSans-64"/>
    </g>
   </g>
   <g id="text_49">
    <!-- happiest -->
    <g transform="translate(416.963852 539.368983)scale(0.0579 -0.0579)">
     <use xlink:href="#DejaVuSans-68"/>
     <use x="63.378906" xlink:href="#DejaVuSans-61"/>
     <use x="124.658203" xlink:href="#DejaVuSans-70"/>
     <use x="188.134766" xlink:href="#DejaVuSans-70"/>
     <use x="251.611328" xlink:href="#DejaVuSans-69"/>
     <use x="279.394531" xlink:href="#DejaVuSans-65"/>
     <use x="340.917969" xlink:href="#DejaVuSans-73"/>
     <use x="393.017578" xlink:href="#DejaVuSans-74"/>
    </g>
   </g>
   <g id="text_50">
    <!-- serving -->
    <g transform="translate(388.76289 416.885344)scale(0.0579 -0.0579)">
     <use xlink:href="#DejaVuSans-73"/>
     <use x="52.099609" xlink:href="#DejaVuSans-65"/>
     <use x="113.623047" xlink:href="#DejaVuSans-72"/>
     <use x="154.736328" xlink:href="#DejaVuSans-76"/>
     <use x="213.916016" xlink:href="#DejaVuSans-69"/>
     <use x="241.699219" xlink:href="#DejaVuSans-6e"/>
     <use x="305.078125" xlink:href="#DejaVuSans-67"/>
    </g>
   </g>
   <g id="text_51">
    <!-- served -->
    <g transform="translate(391.96798 439.495407)scale(0.0579 -0.0579)">
     <use xlink:href="#DejaVuSans-73"/>
     <use x="52.099609" xlink:href="#DejaVuSans-65"/>
     <use x="113.623047" xlink:href="#DejaVuSans-72"/>
     <use x="154.736328" xlink:href="#DejaVuSans-76"/>
     <use x="213.916016" xlink:href="#DejaVuSans-65"/>
     <use x="275.439453" xlink:href="#DejaVuSans-64"/>
    </g>
   </g>
   <g id="text_52">
    <!-- protection -->
    <g transform="translate(154.010835 564.20057)scale(0.0579 -0.0579)">
     <use xlink:href="#DejaVuSans-70"/>
     <use x="63.476562" xlink:href="#DejaVuSans-72"/>
     <use x="104.558594" xlink:href="#DejaVuSans-6f"/>
     <use x="165.740234" xlink:href="#DejaVuSans-74"/>
     <use x="204.949219" xlink:href="#DejaVuSans-65"/>
     <use x="266.472656" xlink:href="#DejaVuSans-63"/>
     <use x="321.453125" xlink:href="#DejaVuSans-74"/>
     <use x="360.662109" xlink:href="#DejaVuSans-69"/>
     <use x="388.445312" xlink:href="#DejaVuSans-6f"/>
     <use x="449.626953" xlink:href="#DejaVuSans-6e"/>
    </g>
   </g>
   <g id="text_53">
    <!-- vets -->
    <g transform="translate(1036.8 103.68)scale(0.0579 -0.0579)">
     <use xlink:href="#DejaVuSans-76"/>
     <use x="59.179688" xlink:href="#DejaVuSans-65"/>
     <use x="120.703125" xlink:href="#DejaVuSans-74"/>
     <use x="159.912109" xlink:href="#DejaVuSans-73"/>
    </g>
   </g>
   <g id="text_54">
    <!-- protects -->
    <g transform="translate(639.331623 354.316299)scale(0.0579 -0.0579)">
     <use xlink:href="#DejaVuSans-70"/>
     <use x="63.476562" xlink:href="#DejaVuSans-72"/>
     <use x="104.558594" xlink:href="#DejaVuSans-6f"/>
     <use x="165.740234" xlink:href="#DejaVuSans-74"/>
     <use x="204.949219" xlink:href="#DejaVuSans-65"/>
     <use x="266.472656" xlink:href="#DejaVuSans-63"/>
     <use x="321.453125" xlink:href="#DejaVuSans-74"/>
     <use x="360.662109" xlink:href="#DejaVuSans-73"/>
    </g>
   </g>
   <g id="text_55">
    <!-- treats -->
    <g transform="translate(584.875176 705.457903)scale(0.0579 -0.0579)">
     <use xlink:href="#DejaVuSans-74"/>
     <use x="39.208984" xlink:href="#DejaVuSans-72"/>
     <use x="80.291016" xlink:href="#DejaVuSans-65"/>
     <use x="141.814453" xlink:href="#DejaVuSans-61"/>
     <use x="203.09375" xlink:href="#DejaVuSans-74"/>
     <use x="242.302734" xlink:href="#DejaVuSans-73"/>
    </g>
   </g>
   <g id="text_56">
    <!-- devoted -->
    <g transform="translate(429.328338 466.967638)scale(0.0579 -0.0579)">
     <use xlink:href="#DejaVuSans-64"/>
     <use x="63.476562" xlink:href="#DejaVuSans-65"/>
     <use x="125" xlink:href="#DejaVuSans-76"/>
     <use x="184.179688" xlink:href="#DejaVuSans-6f"/>
     <use x="245.361328" xlink:href="#DejaVuSans-74"/>
     <use x="284.570312" xlink:href="#DejaVuSans-65"/>
     <use x="346.09375" xlink:href="#DejaVuSans-64"/>
    </g>
   </g>
   <g id="text_57">
    <!-- rave -->
    <g transform="translate(451.291398 419.102673)scale(0.0579 -0.0579)">
     <use xlink:href="#DejaVuSans-72"/>
     <use x="41.113281" xlink:href="#DejaVuSans-61"/>
     <use x="102.392578" xlink:href="#DejaVuSans-76"/>
     <use x="161.572266" xlink:href="#DejaVuSans-65"/>
    </g>
   </g>
   <g id="text_58">
    <!-- protects -->
    <g transform="translate(144 535.393044)scale(0.0579 -0.0579)">
     <use xlink:href="#DejaVuSans-70"/>
     <use x="63.476562" xlink:href="#DejaVuSans-72"/>
     <use x="104.558594" xlink:href="#DejaVuSans-6f"/>
     <use x="165.740234" xlink:href="#DejaVuSans-74"/>
     <use x="204.949219" xlink:href="#DejaVuSans-65"/>
     <use x="266.472656" xlink:href="#DejaVuSans-63"/>
     <use x="321.453125" xlink:href="#DejaVuSans-74"/>
     <use x="360.662109" xlink:href="#DejaVuSans-73"/>
    </g>
   </g>
   <g id="text_59">
    <!-- servants -->
    <g transform="translate(318.313653 610.976896)scale(0.0579 -0.0579)">
     <use xlink:href="#DejaVuSans-73"/>
     <use x="52.099609" xlink:href="#DejaVuSans-65"/>
     <use x="113.623047" xlink:href="#DejaVuSans-72"/>
     <use x="154.736328" xlink:href="#DejaVuSans-76"/>
     <use x="213.916016" xlink:href="#DejaVuSans-61"/>
     <use x="275.195312" xlink:href="#DejaVuSans-6e"/>
     <use x="338.574219" xlink:href="#DejaVuSans-74"/>
     <use x="377.783203" xlink:href="#DejaVuSans-73"/>
    </g>
   </g>
   <g id="text_60">
    <!-- targeted -->
    <g transform="translate(444.238077 523.289844)scale(0.0579 -0.0579)">
     <use xlink:href="#DejaVuSans-74"/>
     <use x="39.208984" xlink:href="#DejaVuSans-61"/>
     <use x="100.488281" xlink:href="#DejaVuSans-72"/>
     <use x="141.585938" xlink:href="#DejaVuSans-67"/>
     <use x="205.0625" xlink:href="#DejaVuSans-65"/>
     <use x="266.585938" xlink:href="#DejaVuSans-74"/>
     <use x="305.794922" xlink:href="#DejaVuSans-65"/>
     <use x="367.318359" xlink:href="#DejaVuSans-64"/>
    </g>
   </g>
   <g id="text_61">
    <!-- root -->
    <g transform="translate(398.007756 589.531584)scale(0.0579 -0.0579)">
     <use xlink:href="#DejaVuSans-72"/>
     <use x="41.082031" xlink:href="#DejaVuSans-6f"/>
     <use x="102.263672" xlink:href="#DejaVuSans-6f"/>
     <use x="163.445312" xlink:href="#DejaVuSans-74"/>
    </g>
   </g>
   <g id="text_62">
    <!-- bravery -->
    <g transform="translate(499.591245 563.706366)scale(0.0579 -0.0579)">
     <use xlink:href="#DejaVuSans-62"/>
     <use x="63.476562" xlink:href="#DejaVuSans-72"/>
     <use x="104.589844" xlink:href="#DejaVuSans-61"/>
     <use x="165.869141" xlink:href="#DejaVuSans-76"/>
     <use x="225.048828" xlink:href="#DejaVuSans-65"/>
     <use x="286.572266" xlink:href="#DejaVuSans-72"/>
     <use x="327.685547" xlink:href="#DejaVuSans-79"/>
    </g>
   </g>
   <g id="text_63">
    <!-- forgotten -->
    <g transform="translate(512.98391 692.671249)scale(0.0579 -0.0579)">
     <use xlink:href="#DejaVuSans-66"/>
     <use x="35.205078" xlink:href="#DejaVuSans-6f"/>
     <use x="96.386719" xlink:href="#DejaVuSans-72"/>
     <use x="137.484375" xlink:href="#DejaVuSans-67"/>
     <use x="200.960938" xlink:href="#DejaVuSans-6f"/>
     <use x="262.142578" xlink:href="#DejaVuSans-74"/>
     <use x="301.351562" xlink:href="#DejaVuSans-74"/>
     <use x="340.560547" xlink:href="#DejaVuSans-65"/>
     <use x="402.083984" xlink:href="#DejaVuSans-6e"/>
    </g>
   </g>
   <g id="text_64">
    <!-- warriors -->
    <g transform="translate(416.486132 710.157458)scale(0.0579 -0.0579)">
     <use xlink:href="#DejaVuSans-77"/>
     <use x="81.787109" xlink:href="#DejaVuSans-61"/>
     <use x="143.066406" xlink:href="#DejaVuSans-72"/>
     <use x="184.164062" xlink:href="#DejaVuSans-72"/>
     <use x="225.277344" xlink:href="#DejaVuSans-69"/>
     <use x="253.060547" xlink:href="#DejaVuSans-6f"/>
     <use x="314.242188" xlink:href="#DejaVuSans-72"/>
     <use x="355.355469" xlink:href="#DejaVuSans-73"/>
    </g>
   </g>
   <g id="text_65">
    <!-- wounded -->
    <g transform="translate(389.864408 729.803093)scale(0.0579 -0.0579)">
     <use xlink:href="#DejaVuSans-77"/>
     <use x="81.787109" xlink:href="#DejaVuSans-6f"/>
     <use x="142.96875" xlink:href="#DejaVuSans-75"/>
     <use x="206.347656" xlink:href="#DejaVuSans-6e"/>
     <use x="269.726562" xlink:href="#DejaVuSans-64"/>
     <use x="333.203125" xlink:href="#DejaVuSans-65"/>
     <use x="394.726562" xlink:href="#DejaVuSans-64"/>
    </g>
   </g>
   <g id="text_66">
    <!-- mendoza -->
    <g transform="translate(507.461517 498.250389)scale(0.0579 -0.0579)">
     <use xlink:href="#DejaVuSans-6d"/>
     <use x="97.412109" xlink:href="#DejaVuSans-65"/>
     <use x="158.935547" xlink:href="#DejaVuSans-6e"/>
     <use x="222.314453" xlink:href="#DejaVuSans-64"/>
     <use x="285.791016" xlink:href="#DejaVuSans-6f"/>
     <use x="346.972656" xlink:href="#DejaVuSans-7a"/>
     <use x="399.462891" xlink:href="#DejaVuSans-61"/>
    </g>
   </g>
   <g id="text_67">
    <!-- among -->
    <g transform="translate(385.207481 483.35317)scale(0.0579 -0.0579)">
     <use xlink:href="#DejaVuSans-61"/>
     <use x="61.279297" xlink:href="#DejaVuSans-6d"/>
     <use x="158.691406" xlink:href="#DejaVuSans-6f"/>
     <use x="219.873047" xlink:href="#DejaVuSans-6e"/>
     <use x="283.251953" xlink:href="#DejaVuSans-67"/>
    </g>
   </g>
   <g id="text_68">
    <!-- stolen -->
    <g transform="translate(473.355999 636.363818)scale(0.0579 -0.0579)">
     <use xlink:href="#DejaVuSans-73"/>
     <use x="52.099609" xlink:href="#DejaVuSans-74"/>
     <use x="91.308594" xlink:href="#DejaVuSans-6f"/>
     <use x="152.490234" xlink:href="#DejaVuSans-6c"/>
     <use x="180.273438" xlink:href="#DejaVuSans-65"/>
     <use x="241.796875" xlink:href="#DejaVuSans-6e"/>
    </g>
   </g>
   <g id="text_69">
    <!-- moments -->
    <g transform="translate(535.658195 628.84234)scale(0.0579 -0.0579)">
     <use xlink:href="#DejaVuSans-6d"/>
     <use x="97.412109" xlink:href="#DejaVuSans-6f"/>
     <use x="158.59375" xlink:href="#DejaVuSans-6d"/>
     <use x="256.005859" xlink:href="#DejaVuSans-65"/>
     <use x="317.529297" xlink:href="#DejaVuSans-6e"/>
     <use x="380.908203" xlink:href="#DejaVuSans-74"/>
     <use x="420.117188" xlink:href="#DejaVuSans-73"/>
    </g>
   </g>
   <g id="text_70">
    <!-- female -->
    <g transform="translate(524.666261 455.805565)scale(0.0579 -0.0579)">
     <use xlink:href="#DejaVuSans-66"/>
     <use x="35.205078" xlink:href="#DejaVuSans-65"/>
     <use x="96.728516" xlink:href="#DejaVuSans-6d"/>
     <use x="194.140625" xlink:href="#DejaVuSans-61"/>
     <use x="255.419922" xlink:href="#DejaVuSans-6c"/>
     <use x="283.203125" xlink:href="#DejaVuSans-65"/>
    </g>
   </g>
   <g id="text_71">
    <!-- veteran -->
    <g transform="translate(325.167407 552.195705)scale(0.0579 -0.0579)">
     <use xlink:href="#DejaVuSans-76"/>
     <use x="59.179688" xlink:href="#DejaVuSans-65"/>
     <use x="120.703125" xlink:href="#DejaVuSans-74"/>
     <use x="159.912109" xlink:href="#DejaVuSans-65"/>
     <use x="221.435547" xlink:href="#DejaVuSans-72"/>
     <use x="262.548828" xlink:href="#DejaVuSans-61"/>
     <use x="323.828125" xlink:href="#DejaVuSans-6e"/>
    </g>
   </g>
   <g id="text_72">
    <!-- viendo -->
    <g transform="translate(522.788546 519.429997)scale(0.0579 -0.0579)">
     <use xlink:href="#DejaVuSans-76"/>
     <use x="59.179688" xlink:href="#DejaVuSans-69"/>
     <use x="86.962891" xlink:href="#DejaVuSans-65"/>
     <use x="148.486328" xlink:href="#DejaVuSans-6e"/>
     <use x="211.865234" xlink:href="#DejaVuSans-64"/>
     <use x="275.341797" xlink:href="#DejaVuSans-6f"/>
    </g>
   </g>
   <g id="text_73">
    <!-- bravery -->
    <g transform="translate(472.329776 583.788769)scale(0.0579 -0.0579)">
     <use xlink:href="#DejaVuSans-62"/>
     <use x="63.476562" xlink:href="#DejaVuSans-72"/>
     <use x="104.589844" xlink:href="#DejaVuSans-61"/>
     <use x="165.869141" xlink:href="#DejaVuSans-76"/>
     <use x="225.048828" xlink:href="#DejaVuSans-65"/>
     <use x="286.572266" xlink:href="#DejaVuSans-72"/>
     <use x="327.685547" xlink:href="#DejaVuSans-79"/>
    </g>
   </g>
   <g id="text_74">
    <!-- yemen -->
    <g transform="translate(318.650206 376.572988)scale(0.0579 -0.0579)">
     <use xlink:href="#DejaVuSans-79"/>
     <use x="59.179688" xlink:href="#DejaVuSans-65"/>
     <use x="120.703125" xlink:href="#DejaVuSans-6d"/>
     <use x="218.115234" xlink:href="#DejaVuSans-65"/>
     <use x="279.638672" xlink:href="#DejaVuSans-6e"/>
    </g>
   </g>
   <g id="text_75">
    <!-- nra -->
    <g transform="translate(739.813752 753.79033)scale(0.0579 -0.0579)">
     <use xlink:href="#DejaVuSans-6e"/>
     <use x="63.378906" xlink:href="#DejaVuSans-72"/>
     <use x="104.492188" xlink:href="#DejaVuSans-61"/>
    </g>
   </g>
   <g id="text_76">
    <!-- victimized -->
    <g transform="translate(552.266863 424.013045)scale(0.0579 -0.0579)">
     <use xlink:href="#DejaVuSans-76"/>
     <use x="59.179688" xlink:href="#DejaVuSans-69"/>
     <use x="86.962891" xlink:href="#DejaVuSans-63"/>
     <use x="141.943359" xlink:href="#DejaVuSans-74"/>
     <use x="181.152344" xlink:href="#DejaVuSans-69"/>
     <use x="208.935547" xlink:href="#DejaVuSans-6d"/>
     <use x="306.347656" xlink:href="#DejaVuSans-69"/>
     <use x="334.130859" xlink:href="#DejaVuSans-7a"/>
     <use x="386.621094" xlink:href="#DejaVuSans-65"/>
     <use x="448.144531" xlink:href="#DejaVuSans-64"/>
    </g>
   </g>
   <g id="text_77">
    <!-- brutality -->
    <g transform="translate(474.518466 542.643461)scale(0.0579 -0.0579)">
     <use xlink:href="#DejaVuSans-62"/>
     <use x="63.476562" xlink:href="#DejaVuSans-72"/>
     <use x="104.589844" xlink:href="#DejaVuSans-75"/>
     <use x="167.96875" xlink:href="#DejaVuSans-74"/>
     <use x="207.177734" xlink:href="#DejaVuSans-61"/>
     <use x="268.457031" xlink:href="#DejaVuSans-6c"/>
     <use x="296.240234" xlink:href="#DejaVuSans-69"/>
     <use x="324.023438" xlink:href="#DejaVuSans-74"/>
     <use x="363.232422" xlink:href="#DejaVuSans-79"/>
    </g>
   </g>
   <g id="text_78">
    <!-- female -->
    <g transform="translate(405.739261 640.184574)scale(0.0579 -0.0579)">
     <use xlink:href="#DejaVuSans-66"/>
     <use x="35.205078" xlink:href="#DejaVuSans-65"/>
     <use x="96.728516" xlink:href="#DejaVuSans-6d"/>
     <use x="194.140625" xlink:href="#DejaVuSans-61"/>
     <use x="255.419922" xlink:href="#DejaVuSans-6c"/>
     <use x="283.203125" xlink:href="#DejaVuSans-65"/>
    </g>
   </g>
   <g id="text_79">
    <!-- treats -->
    <g transform="translate(714.042296 513.753987)scale(0.0579 -0.0579)">
     <use xlink:href="#DejaVuSans-74"/>
     <use x="39.208984" xlink:href="#DejaVuSans-72"/>
     <use x="80.291016" xlink:href="#DejaVuSans-65"/>
     <use x="141.814453" xlink:href="#DejaVuSans-61"/>
     <use x="203.09375" xlink:href="#DejaVuSans-74"/>
     <use x="242.302734" xlink:href="#DejaVuSans-73"/>
    </g>
   </g>
   <g id="text_80">
    <!-- civilian -->
    <g transform="translate(571.702991 541.533531)scale(0.0579 -0.0579)">
     <use xlink:href="#DejaVuSans-63"/>
     <use x="54.980469" xlink:href="#DejaVuSans-69"/>
     <use x="82.763672" xlink:href="#DejaVuSans-76"/>
     <use x="141.943359" xlink:href="#DejaVuSans-69"/>
     <use x="169.726562" xlink:href="#DejaVuSans-6c"/>
     <use x="197.509766" xlink:href="#DejaVuSans-69"/>
     <use x="225.292969" xlink:href="#DejaVuSans-61"/>
     <use x="286.572266" xlink:href="#DejaVuSans-6e"/>
    </g>
   </g>
   <g id="text_81">
    <!-- afghan -->
    <g transform="translate(588.379 511.370543)scale(0.0579 -0.0579)">
     <use xlink:href="#DejaVuSans-61"/>
     <use x="61.279297" xlink:href="#DejaVuSans-66"/>
     <use x="96.484375" xlink:href="#DejaVuSans-67"/>
     <use x="159.960938" xlink:href="#DejaVuSans-68"/>
     <use x="223.339844" xlink:href="#DejaVuSans-61"/>
     <use x="284.619141" xlink:href="#DejaVuSans-6e"/>
    </g>
   </g>
   <g id="text_82">
    <!-- sims -->
    <g transform="translate(499.03488 607.51133)scale(0.0579 -0.0579)">
     <use xlink:href="#DejaVuSans-73"/>
     <use x="52.099609" xlink:href="#DejaVuSans-69"/>
     <use x="79.882812" xlink:href="#DejaVuSans-6d"/>
     <use x="177.294922" xlink:href="#DejaVuSans-73"/>
    </g>
   </g>
   <g id="text_83">
    <!-- incredibly -->
    <g transform="translate(350.615525 521.660518)scale(0.0579 -0.0579)">
     <use xlink:href="#DejaVuSans-69"/>
     <use x="27.783203" xlink:href="#DejaVuSans-6e"/>
     <use x="91.162109" xlink:href="#DejaVuSans-63"/>
     <use x="146.142578" xlink:href="#DejaVuSans-72"/>
     <use x="187.224609" xlink:href="#DejaVuSans-65"/>
     <use x="248.748047" xlink:href="#DejaVuSans-64"/>
     <use x="312.224609" xlink:href="#DejaVuSans-69"/>
     <use x="340.007812" xlink:href="#DejaVuSans-62"/>
     <use x="403.484375" xlink:href="#DejaVuSans-6c"/>
     <use x="431.267578" xlink:href="#DejaVuSans-79"/>
    </g>
   </g>
   <g id="text_84">
    <!-- bravery -->
    <g transform="translate(472.329776 583.788769)scale(0.0579 -0.0579)">
     <use xlink:href="#DejaVuSans-62"/>
     <use x="63.476562" xlink:href="#DejaVuSans-72"/>
     <use x="104.589844" xlink:href="#DejaVuSans-61"/>
     <use x="165.869141" xlink:href="#DejaVuSans-76"/>
     <use x="225.048828" xlink:href="#DejaVuSans-65"/>
     <use x="286.572266" xlink:href="#DejaVuSans-72"/>
     <use x="327.685547" xlink:href="#DejaVuSans-79"/>
    </g>
   </g>
   <g id="text_85">
    <!-- Cluster 7 -->
    <defs>
     <path d="M 64.40625 67.28125 
L 64.40625 56.890625 
Q 59.421875 61.53125 53.78125 63.8125 
Q 48.140625 66.109375 41.796875 66.109375 
Q 29.296875 66.109375 22.65625 58.46875 
Q 16.015625 50.828125 16.015625 36.375 
Q 16.015625 21.96875 22.65625 14.328125 
Q 29.296875 6.6875 41.796875 6.6875 
Q 48.140625 6.6875 53.78125 8.984375 
Q 59.421875 11.28125 64.40625 15.921875 
L 64.40625 5.609375 
Q 59.234375 2.09375 53.4375 0.328125 
Q 47.65625 -1.421875 41.21875 -1.421875 
Q 24.65625 -1.421875 15.125 8.703125 
Q 5.609375 18.84375 5.609375 36.375 
Q 5.609375 53.953125 15.125 64.078125 
Q 24.65625 74.21875 41.21875 74.21875 
Q 47.75 74.21875 53.53125 72.484375 
Q 59.328125 70.75 64.40625 67.28125 
" id="DejaVuSans-43"/>
     <path id="DejaVuSans-20"/>
     <path d="M 8.203125 72.90625 
L 55.078125 72.90625 
L 55.078125 68.703125 
L 28.609375 0 
L 18.3125 0 
L 43.21875 64.59375 
L 8.203125 64.59375 
z
" id="DejaVuSans-37"/>
    </defs>
    <g transform="translate(563.380312 97.68)scale(0.12 -0.12)">
     <use xlink:href="#DejaVuSans-43"/>
     <use x="69.824219" xlink:href="#DejaVuSans-6c"/>
     <use x="97.607422" xlink:href="#DejaVuSans-75"/>
     <use x="160.986328" xlink:href="#DejaVuSans-73"/>
     <use x="213.085938" xlink:href="#DejaVuSans-74"/>
     <use x="252.294922" xlink:href="#DejaVuSans-65"/>
     <use x="313.818359" xlink:href="#DejaVuSans-72"/>
     <use x="354.931641" xlink:href="#DejaVuSans-20"/>
     <use x="386.71875" xlink:href="#DejaVuSans-37"/>
    </g>
   </g>
  </g>
 </g>
</svg>
